<?xml version="1.0" encoding="utf-8"?>
<!-- Generator: Adobe Illustrator 16.0.0, SVG Export Plug-In . SVG Version: 6.00 Build 0)  -->
<!DOCTYPE svg PUBLIC "-//W3C//DTD SVG 1.1//EN" "http://www.w3.org/Graphics/SVG/1.1/DTD/svg11.dtd">
<svg version="1.1" id="图层_1" xmlns="http://www.w3.org/2000/svg" xmlns:xlink="http://www.w3.org/1999/xlink" x="0px" y="0px"
	 width="33.834px" height="41.125px" viewBox="0 0 33.834 41.125" enable-background="new 0 0 33.834 41.125" xml:space="preserve">
<g id="char">
	<path fill="#CBC8B8" d="M3.3,2.113C3.3,0.945,3.542,0,4.708,0h24.189c1.171,0,1.41,0.945,1.41,2.113c0,0,0,17.609,0,23.48H3.3
		C3.3,19.723,3.3,2.113,3.3,2.113z"/>
	<path fill="#BCBAAF" d="M33.828,39.813c0,0.701-0.945,1.277-2.111,1.277H2.126c-1.168,0-2.114-0.576-2.114-1.277
		c0,0,5.52-10.695,5.52-14.219h23.311C28.84,29.117,33.828,39.813,33.828,39.813z"/>
	<path fill="#5E5951" d="M27.959,5.869c0-0.389,0.313-0.705,0.703-0.705h3.287c0.391,0,0.705,0.316,0.705,0.705v19.254
		c0,0.393-0.314,0.705-0.705,0.705h-3.287c-0.391,0-0.703-0.313-0.703-0.705V5.869z"/>
	<path fill="#5E5951" d="M1.187,5.869c0-0.389,0.314-0.705,0.703-0.705h3.288c0.39,0,0.704,0.316,0.704,0.705v19.254
		c0,0.393-0.314,0.705-0.704,0.705H1.89c-0.389,0-0.703-0.313-0.703-0.705V5.869z"/>
</g>
</svg>
