<?xml version="1.0" encoding="utf-8"?>
<!-- Generator: Adobe Illustrator 16.0.0, SVG Export Plug-In . SVG Version: 6.00 Build 0)  -->
<!DOCTYPE svg PUBLIC "-//W3C//DTD SVG 1.1//EN" "http://www.w3.org/Graphics/SVG/1.1/DTD/svg11.dtd">
<svg version="1.1" id="图层_1" xmlns="http://www.w3.org/2000/svg" xmlns:xlink="http://www.w3.org/1999/xlink" x="0px" y="0px"
	 width="117.667px" height="87.688px" viewBox="1.583 3.125 117.667 87.688" enable-background="new 1.583 3.125 117.667 87.688"
	 xml:space="preserve">
<g id="char">
	<path fill="#CBC8B8" d="M47.937,51.846c0-1.168,0.242-2.113,1.408-2.113h24.185c1.17,0,1.41,0.945,1.41,2.113c0,0,0,17.609,0,23.48
		H47.937C47.937,69.455,47.937,51.846,47.937,51.846z"/>
	<path fill="#BCBAAF" d="M78.463,89.545c0,0.701-0.947,1.277-2.113,1.277H46.764c-1.168,0-2.114-0.576-2.114-1.277
		c0,0,5.519-10.695,5.519-14.219h23.307C73.474,78.85,78.463,89.545,78.463,89.545z"/>
	<path fill="#5E5951" d="M72.593,55.602c0-0.389,0.313-0.705,0.704-0.705h3.287c0.39,0,0.705,0.316,0.705,0.705v19.254
		c0,0.391-0.315,0.705-0.705,0.705h-3.287c-0.391,0-0.704-0.314-0.704-0.705V55.602z"/>
	<path fill="#5E5951" d="M45.824,55.602c0-0.389,0.315-0.705,0.704-0.705h3.288c0.389,0,0.704,0.316,0.704,0.705v19.254
		c0,0.391-0.315,0.705-0.704,0.705h-3.288c-0.389,0-0.704-0.314-0.704-0.705V55.602z"/>
</g>
<rect x="2.619" y="4.178" fill="#E2E0D6" stroke="#4D4D4D" stroke-width="2" stroke-miterlimit="10" width="115.762" height="57.529"/>
<g id="keyboard">
	<path fill="#C0CED8" d="M89.732,43.189c0,1.383-0.716,3.254-1.688,3.254H33.191c-0.972,0-1.927-1.871-1.927-3.254V30.671
		c0-1.383,0.955-2.073,1.927-2.073h54.854c0.972,0,1.688,0.69,1.688,2.073V43.189L89.732,43.189z"/>
	<path fill="#E6E6E6" d="M89.732,42.203c0,1.291-0.561,3.064-1.535,3.064h-55c-0.974,0-1.932-1.773-1.932-3.064V30.52
		c0-1.29,0.958-1.923,1.932-1.923h55c0.977,0,1.535,0.633,1.535,1.923V42.203z"/>
	<g id="key">
		<g id="line1_2_">
			<path d="M85.689,32.009c0,0.408-0.331,0.74-0.738,0.74h-5.988c-0.408,0-0.738-0.332-0.738-0.74v-1.576
				c0-0.406,0.33-0.738,0.738-0.738h5.988c0.407,0,0.738,0.332,0.738,0.738V32.009z"/>
			<path d="M47.004,32.009c0,0.408-0.332,0.74-0.738,0.74h-1.578c-0.408,0-0.738-0.332-0.738-0.74v-1.576
				c0-0.406,0.33-0.738,0.738-0.738h1.578c0.406,0,0.738,0.332,0.738,0.738V32.009z"/>
			<path d="M50.737,32.009c0,0.408-0.331,0.74-0.739,0.74h-1.576c-0.409,0-0.74-0.332-0.74-0.74v-1.576
				c0-0.406,0.332-0.738,0.74-0.738h1.576c0.408,0,0.739,0.332,0.739,0.738V32.009z"/>
			<path d="M54.47,32.009c0,0.408-0.331,0.74-0.739,0.74h-1.577c-0.407,0-0.739-0.332-0.739-0.74v-1.576
				c0-0.406,0.332-0.738,0.739-0.738h1.577c0.408,0,0.739,0.332,0.739,0.738V32.009z"/>
			<path d="M58.541,32.009c0,0.408-0.33,0.74-0.739,0.74h-1.577c-0.408,0-0.74-0.332-0.74-0.74v-1.576
				c0-0.406,0.332-0.738,0.74-0.738h1.577c0.409,0,0.739,0.332,0.739,0.738V32.009z"/>
			<path d="M62.205,32.009c0,0.408-0.33,0.74-0.738,0.74H59.89c-0.407,0-0.738-0.332-0.738-0.74v-1.576
				c0-0.406,0.332-0.738,0.738-0.738h1.577c0.408,0,0.738,0.332,0.738,0.738V32.009z"/>
			<path d="M66.076,32.009c0,0.408-0.33,0.74-0.738,0.74h-1.575c-0.409,0-0.74-0.332-0.74-0.74v-1.576
				c0-0.406,0.331-0.738,0.74-0.738h1.575c0.408,0,0.738,0.332,0.738,0.738V32.009z"/>
			<path d="M69.842,32.009c0,0.408-0.334,0.74-0.739,0.74h-1.577c-0.406,0-0.738-0.332-0.738-0.74v-1.576
				c0-0.406,0.332-0.738,0.738-0.738h1.577c0.405,0,0.739,0.332,0.739,0.738V32.009z"/>
			<path d="M73.813,32.009c0,0.408-0.33,0.74-0.738,0.74h-1.578c-0.406,0-0.738-0.332-0.738-0.74v-1.576
				c0-0.406,0.332-0.738,0.738-0.738h1.578c0.408,0,0.738,0.332,0.738,0.738V32.009z"/>
			<path d="M77.545,32.009c0,0.408-0.33,0.74-0.737,0.74H75.23c-0.409,0-0.74-0.332-0.74-0.74v-1.576
				c0-0.406,0.331-0.738,0.74-0.738h1.577c0.407,0,0.737,0.332,0.737,0.738V32.009z"/>
			<path d="M43.271,32.009c0,0.408-0.331,0.74-0.739,0.74h-5.986c-0.409,0-0.74-0.332-0.74-0.74v-1.576
				c0-0.406,0.331-0.738,0.74-0.738h5.986c0.409,0,0.739,0.332,0.739,0.738V32.009z"/>
		</g>
		<g id="line2">
			<path d="M41.914,36.082c0,0.406-0.332,0.738-0.74,0.738h-1.575c-0.408,0-0.739-0.332-0.739-0.738v-1.576
				c0-0.407,0.331-0.74,0.739-0.74h1.575c0.408,0,0.74,0.333,0.74,0.74V36.082z"/>
			<path d="M45.646,36.082c0,0.406-0.332,0.738-0.738,0.738H43.33c-0.408,0-0.738-0.332-0.738-0.738v-1.576
				c0-0.407,0.33-0.74,0.738-0.74h1.578c0.407,0,0.738,0.333,0.738,0.74V36.082z"/>
			<path d="M49.176,36.082c0,0.406-0.332,0.738-0.74,0.738h-1.576c-0.408,0-0.738-0.332-0.738-0.738v-1.576
				c0-0.407,0.33-0.74,0.738-0.74h1.576c0.408,0,0.74,0.333,0.74,0.74V36.082z"/>
			<path d="M53.213,36.082c0,0.406-0.332,0.738-0.736,0.738h-1.578c-0.406,0-0.738-0.332-0.738-0.738v-1.576
				c0-0.407,0.332-0.74,0.738-0.74h1.578c0.408,0,0.736,0.333,0.736,0.74V36.082z"/>
			<path d="M56.845,36.082c0,0.406-0.332,0.738-0.739,0.738h-1.578c-0.406,0-0.738-0.332-0.738-0.738v-1.576
				c0-0.407,0.332-0.74,0.738-0.74h1.578c0.408,0,0.739,0.333,0.739,0.74V36.082z"/>
			<path d="M60.987,36.082c0,0.406-0.333,0.738-0.739,0.738H58.67c-0.408,0-0.739-0.332-0.739-0.738v-1.576
				c0-0.407,0.332-0.74,0.739-0.74h1.578c0.406,0,0.739,0.333,0.739,0.74V36.082z"/>
			<path d="M64.649,36.082c0,0.406-0.331,0.738-0.737,0.738h-1.578c-0.407,0-0.739-0.332-0.739-0.738v-1.576
				c0-0.407,0.332-0.74,0.739-0.74h1.578c0.406,0,0.737,0.333,0.737,0.74V36.082z"/>
			<path d="M68.381,36.082c0,0.406-0.328,0.738-0.737,0.738h-1.578c-0.405,0-0.737-0.332-0.737-0.738v-1.576
				c0-0.407,0.332-0.74,0.737-0.74h1.578c0.409,0,0.737,0.333,0.737,0.74V36.082z"/>
			<path d="M72.455,36.082c0,0.406-0.332,0.738-0.74,0.738H70.14c-0.407,0-0.739-0.332-0.739-0.738v-1.576
				c0-0.407,0.332-0.74,0.739-0.74h1.575c0.408,0,0.74,0.333,0.74,0.74V36.082z"/>
			<path d="M76.188,36.082c0,0.406-0.332,0.738-0.739,0.738h-1.574c-0.41,0-0.74-0.332-0.74-0.738v-1.576
				c0-0.407,0.33-0.74,0.74-0.74h1.574c0.407,0,0.739,0.333,0.739,0.74V36.082z"/>
			<path d="M80.26,36.082c0,0.406-0.329,0.738-0.738,0.738h-1.576c-0.408,0-0.738-0.332-0.738-0.738v-1.576
				c0-0.407,0.33-0.74,0.738-0.74h1.576c0.409,0,0.738,0.333,0.738,0.74V36.082z"/>
			<path d="M83.992,36.082c0,0.406-0.33,0.738-0.736,0.738h-1.577c-0.41,0-0.739-0.332-0.739-0.738v-1.576
				c0-0.407,0.329-0.74,0.739-0.74h1.577c0.406,0,0.736,0.333,0.736,0.74V36.082z"/>
		</g>
		<g id="line3_2_">
			<path d="M85.689,39.934c0,0.408-0.331,0.738-0.738,0.738h-5.988c-0.408,0-0.738-0.33-0.738-0.738v-1.576
				c0-0.409,0.33-0.739,0.738-0.739h5.988c0.407,0,0.738,0.332,0.738,0.739V39.934z"/>
			<path d="M47.071,39.934c0,0.408-0.331,0.738-0.739,0.738h-1.576c-0.408,0-0.74-0.33-0.74-0.738v-1.576
				c0-0.409,0.332-0.739,0.74-0.739h1.576c0.408,0,0.739,0.332,0.739,0.739V39.934z"/>
			<path d="M50.771,39.934c0,0.408-0.332,0.738-0.739,0.738h-1.576c-0.408,0-0.74-0.33-0.74-0.738v-1.576
				c0-0.409,0.332-0.739,0.74-0.739h1.576c0.407,0,0.739,0.332,0.739,0.739V39.934z"/>
			<path d="M54.504,39.934c0,0.408-0.332,0.738-0.739,0.738h-1.577c-0.408,0-0.738-0.33-0.738-0.738v-1.576
				c0-0.409,0.332-0.739,0.738-0.739h1.577c0.407,0,0.739,0.332,0.739,0.739V39.934z"/>
			<path d="M58.371,39.934c0,0.408-0.33,0.738-0.738,0.738h-1.576c-0.409,0-0.74-0.33-0.74-0.738v-1.576
				c0-0.409,0.332-0.739,0.74-0.739h1.576c0.408,0,0.738,0.332,0.738,0.739V39.934z"/>
			<path d="M62.139,39.934c0,0.408-0.331,0.738-0.739,0.738h-1.575c-0.41,0-0.74-0.33-0.74-0.738v-1.576
				c0-0.409,0.33-0.739,0.74-0.739h1.575c0.408,0,0.739,0.332,0.739,0.739V39.934z"/>
			<path d="M66.111,39.934c0,0.408-0.333,0.738-0.74,0.738h-1.576c-0.407,0-0.74-0.33-0.74-0.738v-1.576
				c0-0.409,0.333-0.739,0.74-0.739h1.576c0.407,0,0.74,0.332,0.74,0.739V39.934z"/>
			<path d="M69.877,39.934c0,0.408-0.334,0.738-0.74,0.738h-1.578c-0.405,0-0.738-0.33-0.738-0.738v-1.576
				c0-0.409,0.333-0.739,0.738-0.739h1.578c0.406,0,0.74,0.332,0.74,0.739V39.934z"/>
			<path d="M73.813,39.934c0,0.408-0.33,0.738-0.738,0.738h-1.578c-0.406,0-0.738-0.33-0.738-0.738v-1.576
				c0-0.409,0.332-0.739,0.738-0.739h1.578c0.408,0,0.738,0.332,0.738,0.739V39.934z"/>
			<path d="M77.545,39.934c0,0.408-0.33,0.738-0.737,0.738H75.23c-0.409,0-0.74-0.33-0.74-0.738v-1.576
				c0-0.409,0.331-0.739,0.74-0.739h1.577c0.407,0,0.737,0.332,0.737,0.739V39.934z"/>
			<path d="M43.271,39.934c0,0.408-0.331,0.738-0.739,0.738h-5.986c-0.409,0-0.74-0.33-0.74-0.738v-1.576
				c0-0.409,0.331-0.739,0.74-0.739h5.986c0.409,0,0.739,0.332,0.739,0.739V39.934z"/>
		</g>
		<g id="line4">
			<path d="M42.084,43.885c0,0.41-0.332,0.74-0.74,0.74h-1.576c-0.408,0-0.739-0.33-0.739-0.74v-1.574
				c0-0.408,0.332-0.738,0.739-0.738h1.576c0.408,0,0.74,0.33,0.74,0.738V43.885z"/>
			<path d="M45.815,43.885c0,0.41-0.332,0.74-0.739,0.74H43.5c-0.407,0-0.738-0.33-0.738-0.74v-1.574
				c0-0.408,0.331-0.738,0.738-0.738h1.576c0.407,0,0.739,0.33,0.739,0.738V43.885z"/>
			<path d="M49.514,43.885c0,0.41-0.333,0.74-0.74,0.74h-1.577c-0.407,0-0.739-0.33-0.739-0.74v-1.574
				c0-0.408,0.332-0.738,0.739-0.738h1.577c0.407,0,0.74,0.33,0.74,0.738V43.885z"/>
			<path d="M75.986,43.885c0,0.41-0.33,0.74-0.74,0.74H73.67c-0.407,0-0.738-0.33-0.738-0.74v-1.574
				c0-0.408,0.331-0.738,0.738-0.738h1.576c0.41,0,0.74,0.33,0.74,0.738V43.885z"/>
			<path d="M80.058,43.885c0,0.41-0.33,0.74-0.74,0.74h-1.575c-0.408,0-0.738-0.33-0.738-0.74v-1.574
				c0-0.408,0.33-0.738,0.738-0.738h1.575c0.41,0,0.74,0.33,0.74,0.738V43.885z"/>
			<path d="M83.789,43.885c0,0.41-0.33,0.74-0.737,0.74h-1.576c-0.41,0-0.739-0.33-0.739-0.74v-1.574
				c0-0.408,0.329-0.738,0.739-0.738h1.576c0.407,0,0.737,0.33,0.737,0.738V43.885z"/>
			<path d="M72.117,43.691c0,0.467-0.34,0.936-0.748,0.936H51.047c-0.408,0-0.648-0.469-0.648-0.936v-1.266
				c0-0.469,0.24-0.854,0.648-0.854h20.322c0.408,0,0.748,0.387,0.748,0.854V43.691L72.117,43.691z"/>
		</g>
	</g>
</g>
<g id="monitor">
	<path d="M71.888,20.766c0,0.437-0.353,0.789-0.787,0.789H51.308c-0.435,0-0.787-0.353-0.787-0.789v-3.119
		c0-0.436,0.353-0.788,0.787-0.788h19.793c0.437,0,0.787,0.353,0.787,0.788V20.766z"/>
	<path fill="#C0CED8" d="M107.814,22.309c0,0.437-0.286,1.124-0.931,1.124h-92.49c-0.646,0-1.442-0.688-1.442-1.124v-2.76
		c0-0.435,0.797-0.343,1.442-0.343h92.49c0.645,0,0.931-0.092,0.931,0.343V22.309L107.814,22.309z"/>
</g>
</svg>
