<?xml version="1.0" encoding="utf-8"?>
<!-- Generator: Adobe Illustrator 16.0.0, SVG Export Plug-In . SVG Version: 6.00 Build 0)  -->
<!DOCTYPE svg PUBLIC "-//W3C//DTD SVG 1.1//EN" "http://www.w3.org/Graphics/SVG/1.1/DTD/svg11.dtd">
<svg version="1.1" id="图层_1" xmlns="http://www.w3.org/2000/svg" xmlns:xlink="http://www.w3.org/1999/xlink" x="0px" y="0px"
	 width="92px" height="98px" viewBox="0 0 92 98" enable-background="new 0 0 92 98" xml:space="preserve">
<ellipse fill="#EDE1AE" cx="80.126" cy="23.167" rx="11.215" ry="14"/>
<ellipse transform="matrix(0.2155 -0.9765 0.9765 0.2155 6.6364 118.5959)" fill="#EDE1AE" cx="77.127" cy="55.168" rx="14" ry="11.214"/>
<ellipse transform="matrix(0.9168 -0.3993 0.3993 0.9168 -26.8459 31.4788)" fill="#EDE1AE" cx="62.125" cy="80.169" rx="14" ry="11.214"/>
<path fill="#6D6D6D" d="M36.958,95.668c-10.756-1.163-27.167-16-29.167-27.833C2.287,35.266,2.133,7.5,2.133,7.5l17.492-0.332
	c0,0-2.599,23.196,1.667,47.5C23.398,66.671,44.957,81.33,44.957,81.33L36.958,95.668z"/>
<path fill="#B1B0A1" d="M69.458,93.001C64.791,96.166,56.459,98,44.958,98c-13.833,0-31.666-7.33-38.333-26.665
	C-0.014,52.082-0.042,8-0.042,8h4.034c0,0,0.337,44.448,6.133,61.168C14.458,81.669,24.958,95,44.958,95
	c13.166,0,23.667-4.337,23.667-4.337L69.458,93.001z"/>
<path fill="#E2E0D6" d="M44.958,81.33c-10.833,0-18.969-13.373-23.102-22.137C17.085,49.077,18.313,8,18.313,8h53.144
	c0,0,0.297,43.884-3.542,51.193C63.19,68.186,55.315,81.33,44.958,81.33z"/>
<rect x="-0.042" fill="#B1B0A1" width="92" height="8"/>
</svg>
