<?xml version="1.0" encoding="utf-8"?>
<!-- Generator: Adobe Illustrator 16.0.0, SVG Export Plug-In . SVG Version: 6.00 Build 0)  -->
<!DOCTYPE svg PUBLIC "-//W3C//DTD SVG 1.1//EN" "http://www.w3.org/Graphics/SVG/1.1/DTD/svg11.dtd">
<svg version="1.1" id="图层_1" xmlns="http://www.w3.org/2000/svg" xmlns:xlink="http://www.w3.org/1999/xlink" x="0px" y="0px"
	 width="144.25px" height="87.5px" viewBox="0 0 144.25 87.5" enable-background="new 0 0 144.25 87.5" xml:space="preserve">
<g id="anothertable">
	<g id="chair">
		<g id="char_5_">
			<path fill="#CBC8B8" d="M110.004,39.097c0.879-0.771,1.748-1.214,2.517-0.335l15.955,18.176c0.771,0.879,0.221,1.682-0.659,2.454
				c0,0-13.233,11.615-17.646,15.489L92.357,54.587C96.771,50.713,110.004,39.097,110.004,39.097z"/>
			<path fill="#BCBAAF" d="M101.81,86.909c-0.526,0.463-1.585,0.131-2.354-0.744L79.938,63.93c-0.771-0.878-0.964-1.97-0.433-2.432
				c0,0,11.677-2.909,14.323-5.232l15.376,17.515C106.556,76.104,101.81,86.909,101.81,86.909z"/>
			<path fill="#5E5951" d="M123.444,60.107c0.295-0.259,0.737-0.23,0.997,0.062l2.169,2.47c0.256,0.295,0.227,0.74-0.064,0.996
				l-14.471,12.703c-0.294,0.257-0.738,0.228-0.995-0.065l-2.169-2.47c-0.258-0.294-0.228-0.737,0.066-0.995L123.444,60.107z"/>
			<path fill="#5E5951" d="M105.79,39.988c0.29-0.255,0.733-0.228,0.993,0.064l2.169,2.469c0.256,0.293,0.227,0.74-0.065,0.995
				L94.415,56.219c-0.293,0.258-0.736,0.229-0.994-0.063l-2.17-2.473c-0.255-0.291-0.227-0.734,0.067-0.992L105.79,39.988z"/>
		</g>
		<g id="char_4_">
			<path fill="#CBC8B8" d="M65.485,12.62c0.262-1.137,0.709-2.005,1.848-1.741l23.565,5.435c1.14,0.264,1.161,1.239,0.899,2.376
				c0,0-3.957,17.161-5.278,22.883l-26.313-6.07C61.526,29.781,65.485,12.62,65.485,12.62z"/>
			<path fill="#BCBAAF" d="M86.757,56.217c-0.156,0.684-1.209,1.032-2.346,0.77l-28.827-6.648c-1.139-0.262-1.934-1.037-1.774-1.72
				c0,0,7.78-9.183,8.573-12.615l22.709,5.237C84.3,44.674,86.757,56.217,86.757,56.217z"/>
			<path fill="#5E5951" d="M88.667,21.823c0.088-0.38,0.463-0.618,0.843-0.53l3.204,0.739c0.379,0.087,0.616,0.467,0.527,0.845
				L88.914,41.64c-0.089,0.381-0.467,0.616-0.845,0.529l-3.203-0.739c-0.381-0.088-0.614-0.465-0.526-0.846L88.667,21.823z"/>
			<path fill="#5E5951" d="M62.582,15.806c0.089-0.378,0.465-0.617,0.844-0.53l3.205,0.739c0.379,0.087,0.614,0.466,0.526,0.845
				l-4.328,18.763c-0.088,0.381-0.466,0.617-0.843,0.53l-3.204-0.739c-0.38-0.088-0.615-0.465-0.526-0.845L62.582,15.806z"/>
		</g>
		<g id="char_3_">
			<path fill="#CBC8B8" d="M17.387,26.897c-0.174-1.153-0.077-2.125,1.077-2.298l23.912-3.624c1.156-0.175,1.535,0.725,1.711,1.879
				c0,0,2.638,17.41,3.517,23.215l-26.699,4.044C20.025,44.31,17.387,26.897,17.387,26.897z"/>
			<path fill="#BCBAAF" d="M53.216,59.602c0.105,0.692-0.745,1.404-1.897,1.579l-29.252,4.431c-1.155,0.174-2.178-0.254-2.282-0.947
				c0,0,3.852-11.4,3.328-14.883l23.041-3.491C46.681,49.773,53.216,59.602,53.216,59.602z"/>
			<path fill="#5E5951" d="M42.33,26.919c-0.058-0.386,0.202-0.744,0.589-0.802l3.251-0.492c0.385-0.058,0.745,0.207,0.802,0.589
				l2.884,19.037c0.059,0.386-0.206,0.744-0.591,0.803l-3.25,0.492c-0.387,0.06-0.743-0.205-0.802-0.592L42.33,26.919z"/>
			<path fill="#5E5951" d="M15.863,30.929c-0.059-0.386,0.204-0.745,0.589-0.803l3.25-0.495c0.385-0.056,0.745,0.209,0.802,0.592
				l2.884,19.038c0.057,0.387-0.206,0.744-0.59,0.803l-3.254,0.492c-0.384,0.059-0.743-0.205-0.8-0.592L15.863,30.929z"/>
		</g>
	</g>
	<path fill="#A7D6D1" d="M143.75,84.05c0,0-3.321-61.289-54.988-77.789C48.095-5.406,0.75,19.05,0.75,19.05l11.179,21.377
		c0,0,40.025-23.215,68.833-13.833C115.288,38.045,118.75,84.05,118.75,84.05H143.75z"/>
	<g id="desktop_6_">
		<g id="desktop_5_">
			<g id="monitor_6_">
				<path d="M124.196,40.379c0.192-0.118,0.445-0.055,0.562,0.137l5.323,8.767c0.12,0.191,0.058,0.442-0.136,0.561l-1.405,0.851
					c-0.192,0.119-0.444,0.056-0.562-0.136l-5.324-8.768c-0.116-0.193-0.055-0.443,0.139-0.561L124.196,40.379z"/>
				<path fill="#666666" d="M118.744,26.999c0.486-0.307,2.154,1.082,2.713,1.971l17.757,28.179c0.557,0.891,1.104,3.191,0.62,3.496
					l-1.762,1.104c-0.487,0.306-1.563-0.104-2.119-0.992l-19.178-30.601c-0.558-0.889-0.278-1.75,0.207-2.052L118.744,26.999z"/>
			</g>
			<g id="keyboard_5_">
				<path fill="#808080" d="M123.889,66.946c-0.677,0.422-1.813,0.646-2.113,0.172l-16.851-26.889
					c-0.299-0.478,0.325-1.518,1.004-1.945l6.136-3.845c0.678-0.426,1.309-0.169,1.607,0.307l16.853,26.887
					c0.298,0.478,0.177,1.041-0.501,1.466L123.889,66.946L123.889,66.946z"/>
				<path fill="#999999" d="M124.371,66.643c-0.632,0.396-1.674,0.667-1.973,0.188l-16.896-26.959
					c-0.3-0.476,0.276-1.491,0.906-1.888l5.729-3.586c0.631-0.396,1.235-0.123,1.534,0.354l16.896,26.96
					c0.302,0.479,0.163,0.946-0.469,1.342L124.371,66.643z"/>
				<g id="key_5_">
					<g id="line1_6_">
						<path fill="#E6E6E6" d="M128.127,61.529c-0.199,0.123-0.466,0.064-0.59-0.135l-1.84-2.936
							c-0.126-0.201-0.064-0.464,0.137-0.59l0.771-0.482c0.198-0.125,0.463-0.066,0.59,0.135l1.84,2.935
							c0.123,0.199,0.063,0.464-0.135,0.59L128.127,61.529z"/>
						<path fill="#E6E6E6" d="M116.241,42.568c-0.197,0.123-0.464,0.063-0.588-0.137l-0.486-0.773
							c-0.125-0.202-0.065-0.465,0.136-0.59l0.772-0.484c0.2-0.126,0.465-0.066,0.589,0.135l0.487,0.774
							c0.125,0.198,0.065,0.462-0.138,0.586L116.241,42.568z"/>
						<path fill="#E6E6E6" d="M117.389,44.396c-0.198,0.127-0.466,0.064-0.588-0.137l-0.486-0.771
							c-0.125-0.2-0.064-0.463,0.136-0.59l0.771-0.484c0.2-0.125,0.466-0.064,0.593,0.135l0.483,0.773
							c0.123,0.199,0.063,0.463-0.136,0.588L117.389,44.396z"/>
						<path fill="#E6E6E6" d="M118.536,46.226c-0.199,0.125-0.463,0.065-0.591-0.134l-0.482-0.774
							c-0.126-0.2-0.066-0.465,0.134-0.59l0.773-0.483c0.199-0.125,0.463-0.066,0.589,0.135l0.485,0.773
							c0.127,0.2,0.064,0.463-0.135,0.588L118.536,46.226z"/>
						<path fill="#E6E6E6" d="M119.785,48.222c-0.198,0.124-0.463,0.066-0.589-0.134l-0.482-0.774
							c-0.129-0.2-0.067-0.464,0.133-0.59l0.772-0.485c0.2-0.125,0.465-0.063,0.591,0.137l0.483,0.774
							c0.125,0.2,0.065,0.461-0.135,0.589L119.785,48.222z"/>
						<path fill="#E6E6E6" d="M120.913,50.018c-0.201,0.123-0.465,0.064-0.592-0.134l-0.484-0.774
							c-0.124-0.199-0.064-0.463,0.137-0.59l0.772-0.483c0.201-0.124,0.465-0.067,0.589,0.134l0.483,0.774
							c0.126,0.2,0.066,0.462-0.135,0.589L120.913,50.018z"/>
						<path fill="#E6E6E6" d="M122.101,51.916c-0.198,0.125-0.464,0.065-0.59-0.135l-0.483-0.775
							c-0.126-0.199-0.065-0.463,0.135-0.588l0.773-0.485c0.199-0.125,0.463-0.067,0.589,0.138l0.483,0.771
							c0.125,0.201,0.064,0.463-0.133,0.588L122.101,51.916z"/>
						<path fill="#E6E6E6" d="M123.257,53.762c-0.196,0.125-0.463,0.063-0.59-0.138l-0.486-0.771c-0.12-0.2-0.062-0.464,0.138-0.591
							l0.773-0.484c0.201-0.125,0.464-0.064,0.591,0.135l0.482,0.773c0.125,0.2,0.065,0.466-0.133,0.589L123.257,53.762z"/>
						<path fill="#E6E6E6" d="M124.477,55.709c-0.198,0.124-0.464,0.064-0.589-0.135l-0.484-0.775
							c-0.124-0.198-0.065-0.465,0.138-0.59l0.77-0.484c0.203-0.125,0.466-0.061,0.592,0.137l0.482,0.771
							c0.126,0.2,0.067,0.464-0.134,0.59L124.477,55.709z"/>
						<path fill="#E6E6E6" d="M125.624,57.535c-0.198,0.125-0.463,0.066-0.59-0.135l-0.481-0.772
							c-0.128-0.2-0.068-0.464,0.133-0.589l0.775-0.485c0.198-0.124,0.462-0.065,0.588,0.136l0.484,0.771
							c0.126,0.203,0.064,0.465-0.136,0.591L125.624,57.535z"/>
						<path fill="#E6E6E6" d="M115.094,40.739c-0.2,0.124-0.464,0.064-0.589-0.137l-1.841-2.932
							c-0.124-0.203-0.063-0.466,0.139-0.593l0.772-0.484c0.197-0.124,0.464-0.065,0.588,0.137l1.84,2.934
							c0.124,0.2,0.065,0.463-0.135,0.59L115.094,40.739z"/>
					</g>
					<g id="line2_5_">
						<path fill="#E6E6E6" d="M112.681,41.323c-0.196,0.124-0.463,0.063-0.588-0.137l-0.485-0.772
							c-0.124-0.198-0.065-0.464,0.136-0.591l0.772-0.484c0.2-0.123,0.463-0.065,0.591,0.136l0.482,0.774
							c0.127,0.199,0.067,0.463-0.133,0.589L112.681,41.323z"/>
						<path fill="#E6E6E6" d="M113.829,43.152c-0.197,0.125-0.464,0.064-0.589-0.135l-0.484-0.772
							c-0.128-0.2-0.065-0.465,0.133-0.588l0.774-0.485c0.199-0.126,0.463-0.066,0.59,0.135l0.484,0.773
							c0.127,0.201,0.064,0.464-0.136,0.59L113.829,43.152z"/>
						<path fill="#E6E6E6" d="M114.912,44.883c-0.198,0.125-0.465,0.064-0.588-0.137l-0.483-0.773
							c-0.128-0.199-0.068-0.464,0.134-0.588l0.771-0.484c0.2-0.126,0.466-0.064,0.589,0.135l0.486,0.773
							c0.124,0.199,0.063,0.464-0.136,0.59L114.912,44.883z"/>
						<path fill="#E6E6E6" d="M116.155,46.861c-0.198,0.125-0.467,0.063-0.591-0.135l-0.482-0.774
							c-0.125-0.199-0.065-0.464,0.133-0.589l0.774-0.484c0.198-0.123,0.464-0.063,0.591,0.134l0.481,0.776
							c0.127,0.199,0.066,0.461-0.136,0.588L116.155,46.861z"/>
						<path fill="#E6E6E6" d="M117.269,48.641c-0.197,0.125-0.463,0.065-0.589-0.137l-0.484-0.773
							c-0.124-0.199-0.064-0.463,0.136-0.588l0.773-0.484c0.199-0.123,0.463-0.066,0.589,0.135l0.485,0.774
							c0.126,0.2,0.064,0.464-0.136,0.588L117.269,48.641z"/>
						<path fill="#E6E6E6" d="M118.541,50.671c-0.199,0.126-0.462,0.064-0.589-0.134l-0.485-0.775
							c-0.124-0.199-0.063-0.464,0.137-0.59l0.772-0.483c0.198-0.128,0.464-0.065,0.589,0.134l0.485,0.773
							c0.124,0.201,0.064,0.465-0.137,0.59L118.541,50.671z"/>
						<path fill="#E6E6E6" d="M119.668,52.469c-0.2,0.122-0.465,0.063-0.588-0.137l-0.487-0.774
							c-0.125-0.198-0.064-0.464,0.136-0.589l0.773-0.484c0.197-0.126,0.466-0.066,0.59,0.135l0.484,0.774
							c0.124,0.198,0.063,0.462-0.135,0.589L119.668,52.469z"/>
						<path fill="#E6E6E6" d="M120.813,54.295c-0.198,0.125-0.463,0.068-0.589-0.135l-0.486-0.773
							c-0.123-0.199-0.063-0.465,0.138-0.589l0.771-0.485c0.198-0.125,0.464-0.066,0.59,0.135l0.486,0.773
							c0.123,0.201,0.064,0.465-0.138,0.59L120.813,54.295z"/>
						<path fill="#E6E6E6" d="M122.065,56.293c-0.2,0.123-0.465,0.064-0.59-0.137l-0.483-0.772c-0.126-0.2-0.065-0.464,0.135-0.589
							l0.775-0.484c0.198-0.127,0.464-0.063,0.587,0.135l0.484,0.771c0.127,0.201,0.065,0.466-0.135,0.592L122.065,56.293z"/>
						<path fill="#E6E6E6" d="M123.21,58.123c-0.197,0.125-0.461,0.064-0.587-0.135l-0.484-0.773c-0.125-0.2-0.063-0.465,0.135-0.59
							l0.772-0.483c0.199-0.125,0.465-0.067,0.59,0.136l0.484,0.77c0.126,0.201,0.064,0.465-0.136,0.593L123.21,58.123z"/>
						<path fill="#E6E6E6" d="M124.464,60.119c-0.199,0.125-0.466,0.064-0.589-0.135l-0.485-0.775
							c-0.127-0.197-0.064-0.461,0.135-0.586l0.772-0.485c0.2-0.124,0.463-0.065,0.589,0.134l0.484,0.775
							c0.126,0.2,0.065,0.464-0.135,0.588L124.464,60.119z"/>
						<path fill="#E6E6E6" d="M125.609,61.947c-0.198,0.125-0.461,0.065-0.589-0.133l-0.483-0.774
							c-0.126-0.202-0.064-0.464,0.136-0.589l0.771-0.483c0.202-0.126,0.466-0.067,0.591,0.135l0.486,0.773
							c0.124,0.198,0.063,0.464-0.136,0.588L125.609,61.947z"/>
					</g>
					<g id="line3_6_">
						<path fill="#E6E6E6" d="M124.245,63.964c-0.201,0.124-0.466,0.063-0.591-0.136l-1.841-2.935
							c-0.124-0.2-0.063-0.463,0.136-0.589l0.772-0.484c0.202-0.126,0.464-0.066,0.589,0.135l1.84,2.936
							c0.124,0.197,0.064,0.463-0.134,0.588L124.245,63.964z"/>
						<path fill="#E6E6E6" d="M112.379,45.035c-0.199,0.123-0.464,0.063-0.591-0.138l-0.481-0.774
							c-0.125-0.198-0.065-0.463,0.133-0.588l0.773-0.484c0.199-0.125,0.464-0.066,0.591,0.136l0.482,0.774
							c0.126,0.199,0.066,0.462-0.135,0.588L112.379,45.035z"/>
						<path fill="#E6E6E6" d="M113.515,46.847c-0.197,0.125-0.463,0.066-0.59-0.134l-0.483-0.773
							c-0.126-0.2-0.067-0.465,0.135-0.592l0.772-0.483c0.198-0.126,0.464-0.063,0.589,0.137l0.485,0.774
							c0.124,0.197,0.064,0.463-0.135,0.588L113.515,46.847z"/>
						<path fill="#E6E6E6" d="M114.662,48.679c-0.199,0.124-0.465,0.063-0.591-0.138l-0.483-0.773
							c-0.124-0.198-0.064-0.464,0.135-0.589l0.774-0.483c0.198-0.126,0.463-0.066,0.586,0.135l0.487,0.772
							c0.124,0.2,0.063,0.465-0.138,0.591L114.662,48.679z"/>
						<path fill="#E6E6E6" d="M115.849,50.572c-0.196,0.126-0.464,0.066-0.589-0.135l-0.484-0.773
							c-0.124-0.199-0.063-0.465,0.137-0.589l0.771-0.485c0.199-0.126,0.467-0.063,0.59,0.137l0.486,0.772
							c0.125,0.198,0.063,0.464-0.135,0.589L115.849,50.572z"/>
						<path fill="#E6E6E6" d="M117.007,52.42c-0.199,0.124-0.463,0.064-0.589-0.137l-0.484-0.771
							c-0.126-0.201-0.064-0.465,0.135-0.59l0.772-0.484c0.201-0.125,0.465-0.066,0.591,0.137l0.485,0.771
							c0.124,0.199,0.063,0.465-0.137,0.591L117.007,52.42z"/>
						<path fill="#E6E6E6" d="M118.228,54.367c-0.198,0.125-0.466,0.063-0.589-0.137l-0.485-0.772
							c-0.124-0.2-0.064-0.466,0.136-0.591l0.772-0.484c0.201-0.124,0.465-0.063,0.59,0.137l0.484,0.774
							c0.123,0.197,0.065,0.462-0.137,0.588L118.228,54.367z"/>
						<path fill="#E6E6E6" d="M119.384,56.212c-0.197,0.126-0.464,0.064-0.591-0.136l-0.483-0.774
							c-0.125-0.199-0.065-0.462,0.135-0.587l0.774-0.486c0.2-0.125,0.462-0.066,0.589,0.135l0.483,0.775
							c0.126,0.196,0.064,0.465-0.134,0.588L119.384,56.212z"/>
						<path fill="#E6E6E6" d="M120.593,58.144c-0.197,0.124-0.463,0.063-0.589-0.138l-0.483-0.771
							c-0.122-0.199-0.065-0.463,0.136-0.59l0.772-0.486c0.199-0.125,0.464-0.063,0.588,0.139l0.486,0.771
							c0.124,0.201,0.064,0.465-0.137,0.59L120.593,58.144z"/>
						<path fill="#E6E6E6" d="M121.74,59.971c-0.2,0.125-0.465,0.065-0.589-0.135l-0.485-0.772
							c-0.125-0.202-0.065-0.465,0.137-0.591l0.771-0.484c0.2-0.125,0.465-0.066,0.589,0.137l0.484,0.771
							c0.126,0.202,0.063,0.465-0.135,0.59L121.74,59.971z"/>
						<path fill="#E6E6E6" d="M111.211,43.17c-0.197,0.126-0.463,0.066-0.591-0.133l-1.837-2.935
							c-0.126-0.201-0.067-0.464,0.134-0.591l0.774-0.483c0.197-0.125,0.463-0.066,0.59,0.136l1.838,2.931
							c0.126,0.201,0.064,0.465-0.135,0.591L111.211,43.17z"/>
					</g>
					<g id="line4_5_">
						<path fill="#E6E6E6" d="M108.912,43.803c-0.203,0.127-0.467,0.064-0.592-0.135l-0.484-0.773
							c-0.126-0.2-0.063-0.465,0.137-0.59l0.771-0.483c0.199-0.126,0.465-0.065,0.59,0.136l0.483,0.771
							c0.127,0.201,0.066,0.466-0.134,0.591L108.912,43.803z"/>
						<path fill="#E6E6E6" d="M110.057,45.63c-0.202,0.128-0.467,0.068-0.591-0.133l-0.483-0.773
							c-0.127-0.2-0.065-0.462,0.136-0.589l0.771-0.486c0.202-0.123,0.465-0.064,0.59,0.138l0.486,0.772
							c0.124,0.198,0.064,0.465-0.138,0.59L110.057,45.63z"/>
						<path fill="#E6E6E6" d="M111.191,47.446c-0.199,0.126-0.465,0.063-0.588-0.137l-0.485-0.771
							c-0.126-0.202-0.067-0.466,0.136-0.594l0.771-0.483c0.198-0.123,0.464-0.064,0.591,0.137l0.483,0.773
							c0.124,0.199,0.066,0.465-0.134,0.59L111.191,47.446z"/>
						<path fill="#E6E6E6" d="M119.325,60.422c-0.2,0.125-0.464,0.063-0.59-0.135l-0.483-0.772
							c-0.124-0.202-0.067-0.466,0.136-0.591l0.77-0.484c0.201-0.125,0.465-0.066,0.59,0.135l0.484,0.771
							c0.126,0.201,0.066,0.464-0.136,0.591L119.325,60.422z"/>
						<path fill="#E6E6E6" d="M120.575,62.416c-0.199,0.126-0.464,0.066-0.589-0.135l-0.485-0.771
							c-0.123-0.201-0.063-0.463,0.138-0.59l0.772-0.484c0.199-0.123,0.461-0.065,0.588,0.135l0.484,0.773
							c0.125,0.201,0.064,0.463-0.137,0.59L120.575,62.416z"/>
						<path fill="#E6E6E6" d="M121.723,64.246c-0.2,0.127-0.465,0.065-0.59-0.135l-0.484-0.772
							c-0.123-0.202-0.064-0.464,0.137-0.591l0.771-0.483c0.199-0.126,0.464-0.065,0.587,0.136l0.486,0.771
							c0.126,0.2,0.065,0.465-0.136,0.592L121.723,64.246z"/>
						<path fill="#E6E6E6" d="M118.231,58.467c-0.23,0.143-0.563,0.12-0.689-0.08l-6.242-9.963c-0.127-0.199,0.031-0.461,0.26-0.604
							l0.62-0.388c0.231-0.145,0.492-0.145,0.617,0.055l6.245,9.962c0.123,0.199,0.039,0.486-0.19,0.632L118.231,58.467
							L118.231,58.467z"/>
					</g>
				</g>
			</g>
		</g>
		<g id="desktop_4_">
			<g id="monitor_4_">
				<path d="M77.12,6.346c0.057-0.221,0.28-0.352,0.498-0.295l9.94,2.543c0.218,0.053,0.35,0.276,0.293,0.497l-0.407,1.591
					c-0.058,0.22-0.28,0.352-0.498,0.295l-9.938-2.542c-0.218-0.056-0.35-0.279-0.293-0.497L77.12,6.346z"/>
				<path fill="#666666" d="M63.866,0.596C64,0.039,66.163-0.136,67.186,0.107l32.399,7.724c1.02,0.243,3.02,1.507,2.887,2.066
					l-0.486,2.022c-0.133,0.556-1.188,1.016-2.209,0.771L64.668,4.231c-1.02-0.244-1.421-1.057-1.286-1.612L63.866,0.596z"/>
			</g>
			<g id="keyboard_4_">
				<path fill="#808080" d="M95.484,25.548c-0.187,0.776-0.846,1.733-1.39,1.603l-30.85-7.433c-0.551-0.132-0.831-1.313-0.644-2.09
					l1.693-7.039c0.188-0.78,0.82-1.039,1.366-0.908l30.85,7.432c0.547,0.132,0.855,0.619,0.668,1.395L95.484,25.548L95.484,25.548z
					"/>
				<path fill="#999999" d="M95.616,24.995c-0.175,0.725-0.73,1.647-1.277,1.513l-30.935-7.45c-0.547-0.132-0.846-1.258-0.671-1.984
					l1.586-6.57c0.172-0.725,0.798-0.953,1.344-0.822l30.933,7.451c0.551,0.133,0.776,0.565,0.605,1.289L95.616,24.995z"/>
				<g id="key_4_">
					<g id="line1_5_">
						<path fill="#E6E6E6" d="M94.725,18.713c-0.057,0.229-0.289,0.371-0.518,0.315l-3.368-0.81
							c-0.23-0.056-0.369-0.287-0.314-0.519l0.214-0.884c0.057-0.228,0.286-0.373,0.516-0.315l3.368,0.81
							c0.228,0.056,0.369,0.288,0.315,0.518L94.725,18.713z"/>
						<path fill="#E6E6E6" d="M72.965,13.474c-0.052,0.227-0.285,0.37-0.514,0.313l-0.888-0.213c-0.23-0.056-0.37-0.287-0.314-0.517
							l0.213-0.886c0.056-0.23,0.284-0.371,0.516-0.315l0.888,0.213c0.227,0.052,0.37,0.285,0.313,0.516L72.965,13.474z"/>
						<path fill="#E6E6E6" d="M75.067,13.979c-0.056,0.229-0.289,0.369-0.517,0.314l-0.889-0.213
							c-0.229-0.055-0.37-0.286-0.315-0.517l0.213-0.885c0.058-0.228,0.287-0.371,0.518-0.315l0.887,0.213
							c0.229,0.055,0.371,0.288,0.315,0.517L75.067,13.979z"/>
						<path fill="#E6E6E6" d="M77.165,14.483c-0.056,0.229-0.285,0.372-0.515,0.318l-0.888-0.216
							c-0.229-0.055-0.372-0.286-0.318-0.517l0.217-0.885c0.055-0.228,0.284-0.37,0.516-0.315l0.887,0.213
							c0.229,0.055,0.369,0.287,0.315,0.517L77.165,14.483z"/>
						<path fill="#E6E6E6" d="M79.453,15.035c-0.055,0.228-0.283,0.371-0.516,0.317l-0.885-0.215
							c-0.229-0.054-0.373-0.285-0.317-0.514l0.214-0.887c0.054-0.231,0.288-0.371,0.518-0.315l0.887,0.215
							c0.229,0.053,0.369,0.285,0.314,0.514L79.453,15.035z"/>
						<path fill="#E6E6E6" d="M81.515,15.53c-0.054,0.23-0.284,0.373-0.514,0.318l-0.889-0.213
							c-0.229-0.055-0.371-0.288-0.314-0.519l0.214-0.886c0.055-0.229,0.285-0.371,0.514-0.313l0.89,0.214
							c0.229,0.057,0.368,0.285,0.313,0.516L81.515,15.53z"/>
						<path fill="#E6E6E6" d="M83.691,16.056c-0.053,0.229-0.284,0.371-0.515,0.315l-0.887-0.215
							c-0.229-0.053-0.371-0.286-0.313-0.514l0.211-0.887c0.055-0.229,0.286-0.371,0.518-0.314l0.886,0.212
							c0.229,0.058,0.37,0.288,0.315,0.515L83.691,16.056z"/>
						<path fill="#E6E6E6" d="M85.813,16.566c-0.057,0.228-0.288,0.37-0.52,0.316l-0.887-0.213
							c-0.228-0.057-0.369-0.288-0.314-0.517l0.214-0.886c0.056-0.23,0.285-0.372,0.517-0.316l0.886,0.214
							c0.229,0.055,0.371,0.288,0.314,0.515L85.813,16.566z"/>
						<path fill="#E6E6E6" d="M88.043,17.106c-0.055,0.228-0.286,0.371-0.516,0.315l-0.887-0.214
							c-0.228-0.055-0.371-0.289-0.314-0.517l0.214-0.886c0.053-0.23,0.288-0.371,0.516-0.317l0.885,0.214
							c0.23,0.056,0.373,0.287,0.317,0.517L88.043,17.106z"/>
						<path fill="#E6E6E6" d="M90.141,17.609c-0.054,0.229-0.283,0.371-0.516,0.316L88.74,17.71
							c-0.23-0.054-0.373-0.283-0.316-0.514l0.216-0.888c0.055-0.226,0.285-0.37,0.514-0.313l0.885,0.211
							c0.233,0.056,0.372,0.287,0.317,0.516L90.141,17.609z"/>
						<path fill="#E6E6E6" d="M70.866,12.969c-0.055,0.227-0.284,0.371-0.516,0.315l-3.365-0.812
							c-0.232-0.057-0.374-0.287-0.317-0.518l0.214-0.885c0.056-0.228,0.286-0.371,0.516-0.313l3.366,0.811
							c0.229,0.055,0.373,0.284,0.316,0.515L70.866,12.969z"/>
					</g>
					<g id="line2_4_">
						<path fill="#E6E6E6" d="M69.552,15.074c-0.055,0.226-0.285,0.37-0.516,0.314l-0.888-0.211
							c-0.227-0.057-0.369-0.29-0.315-0.519l0.213-0.884c0.058-0.229,0.288-0.37,0.52-0.316l0.886,0.214
							c0.228,0.054,0.37,0.286,0.315,0.516L69.552,15.074z"/>
						<path fill="#E6E6E6" d="M71.651,15.578c-0.053,0.228-0.285,0.37-0.515,0.315l-0.887-0.212
							c-0.229-0.053-0.37-0.288-0.315-0.515l0.213-0.886c0.056-0.231,0.287-0.372,0.517-0.315l0.888,0.211
							c0.23,0.056,0.371,0.288,0.314,0.518L71.651,15.578z"/>
						<path fill="#E6E6E6" d="M73.636,16.057c-0.055,0.228-0.286,0.371-0.517,0.314l-0.885-0.215
							c-0.23-0.054-0.373-0.285-0.317-0.514l0.216-0.885c0.056-0.23,0.284-0.371,0.516-0.317l0.886,0.212
							c0.229,0.057,0.372,0.289,0.315,0.519L73.636,16.057z"/>
						<path fill="#E6E6E6" d="M75.908,16.601c-0.054,0.229-0.29,0.371-0.516,0.317l-0.887-0.215
							c-0.229-0.054-0.371-0.286-0.316-0.515l0.215-0.885c0.055-0.229,0.285-0.371,0.515-0.317l0.89,0.216
							c0.228,0.054,0.366,0.286,0.313,0.517L75.908,16.601z"/>
						<path fill="#E6E6E6" d="M77.949,17.096c-0.054,0.227-0.286,0.371-0.516,0.314l-0.888-0.214
							c-0.229-0.053-0.371-0.286-0.315-0.515l0.215-0.887c0.055-0.227,0.284-0.37,0.515-0.314l0.889,0.215
							c0.229,0.053,0.369,0.286,0.314,0.514L77.949,17.096z"/>
						<path fill="#E6E6E6" d="M80.278,17.655c-0.055,0.232-0.285,0.371-0.515,0.318l-0.889-0.215
							c-0.228-0.055-0.367-0.288-0.315-0.518l0.215-0.884c0.054-0.229,0.287-0.371,0.515-0.314l0.888,0.213
							c0.229,0.056,0.371,0.286,0.315,0.516L80.278,17.655z"/>
						<path fill="#E6E6E6" d="M82.34,18.153c-0.057,0.228-0.287,0.37-0.517,0.315l-0.888-0.214c-0.229-0.055-0.37-0.286-0.316-0.517
							l0.216-0.885c0.052-0.229,0.285-0.373,0.516-0.317l0.887,0.217c0.229,0.053,0.37,0.284,0.314,0.514L82.34,18.153z"/>
						<path fill="#E6E6E6" d="M84.437,18.659c-0.054,0.226-0.283,0.371-0.517,0.314l-0.888-0.213
							c-0.227-0.056-0.37-0.288-0.313-0.516l0.213-0.886c0.056-0.229,0.285-0.371,0.515-0.318l0.889,0.214
							c0.229,0.057,0.37,0.288,0.313,0.518L84.437,18.659z"/>
						<path fill="#E6E6E6" d="M86.729,19.208c-0.056,0.23-0.286,0.372-0.516,0.316l-0.888-0.214
							c-0.228-0.055-0.37-0.287-0.315-0.515l0.215-0.888c0.054-0.23,0.287-0.369,0.516-0.315l0.885,0.214
							c0.232,0.055,0.373,0.286,0.317,0.516L86.729,19.208z"/>
						<path fill="#E6E6E6" d="M88.827,19.717c-0.053,0.228-0.285,0.369-0.516,0.315l-0.885-0.214
							c-0.23-0.056-0.371-0.286-0.317-0.516l0.216-0.887c0.054-0.228,0.284-0.372,0.516-0.315l0.885,0.211
							c0.229,0.056,0.371,0.288,0.316,0.519L88.827,19.717z"/>
						<path fill="#E6E6E6" d="M91.118,20.269c-0.054,0.227-0.287,0.37-0.514,0.314l-0.888-0.214
							c-0.229-0.053-0.371-0.286-0.315-0.515l0.214-0.885c0.056-0.23,0.284-0.373,0.515-0.317l0.889,0.215
							c0.228,0.054,0.37,0.287,0.313,0.514L91.118,20.269z"/>
						<path fill="#E6E6E6" d="M93.219,20.772c-0.056,0.229-0.286,0.371-0.516,0.317l-0.885-0.215
							c-0.231-0.055-0.373-0.286-0.318-0.515l0.214-0.886c0.057-0.229,0.286-0.373,0.518-0.314l0.887,0.211
							c0.228,0.054,0.369,0.289,0.313,0.517L93.219,20.772z"/>
					</g>
					<g id="line3_5_">
						<path fill="#E6E6E6" d="M93.652,23.169c-0.056,0.229-0.29,0.371-0.518,0.314l-3.369-0.812
							c-0.229-0.054-0.368-0.287-0.313-0.514l0.215-0.886c0.054-0.231,0.284-0.373,0.513-0.315l3.368,0.811
							c0.227,0.054,0.37,0.288,0.316,0.515L93.652,23.169z"/>
						<path fill="#E6E6E6" d="M71.931,17.938c-0.055,0.228-0.286,0.371-0.517,0.315l-0.885-0.215
							c-0.229-0.054-0.372-0.285-0.316-0.514l0.213-0.885c0.056-0.23,0.285-0.373,0.518-0.315l0.887,0.213
							c0.228,0.055,0.37,0.288,0.313,0.517L71.931,17.938z"/>
						<path fill="#E6E6E6" d="M74.011,18.439c-0.053,0.228-0.284,0.372-0.515,0.316L72.61,18.54
							c-0.23-0.056-0.373-0.286-0.317-0.516l0.215-0.885c0.055-0.229,0.287-0.37,0.517-0.314l0.888,0.214
							c0.227,0.054,0.369,0.286,0.313,0.515L74.011,18.439z"/>
						<path fill="#E6E6E6" d="M76.112,18.943c-0.056,0.23-0.288,0.372-0.518,0.316l-0.888-0.213
							c-0.228-0.055-0.37-0.288-0.313-0.516l0.213-0.887c0.055-0.229,0.287-0.37,0.517-0.313l0.885,0.212
							c0.229,0.055,0.372,0.288,0.315,0.518L76.112,18.943z"/>
						<path fill="#E6E6E6" d="M78.285,19.469c-0.055,0.227-0.287,0.37-0.516,0.315l-0.887-0.213
							c-0.229-0.056-0.372-0.288-0.315-0.516l0.212-0.886c0.056-0.229,0.288-0.372,0.518-0.314l0.886,0.213
							c0.23,0.053,0.369,0.287,0.315,0.515L78.285,19.469z"/>
						<path fill="#E6E6E6" d="M80.403,19.98c-0.054,0.228-0.283,0.37-0.515,0.313l-0.886-0.212
							c-0.229-0.055-0.372-0.286-0.317-0.515l0.214-0.886c0.057-0.231,0.287-0.373,0.518-0.314l0.886,0.212
							c0.229,0.054,0.372,0.286,0.316,0.517L80.403,19.98z"/>
						<path fill="#E6E6E6" d="M82.641,20.519c-0.055,0.228-0.289,0.368-0.519,0.314l-0.886-0.212
							c-0.229-0.056-0.372-0.288-0.316-0.519l0.213-0.884c0.057-0.229,0.288-0.37,0.519-0.316l0.885,0.216
							c0.229,0.053,0.372,0.284,0.316,0.515L82.641,20.519z"/>
						<path fill="#E6E6E6" d="M84.755,21.028c-0.054,0.229-0.285,0.371-0.517,0.314l-0.888-0.214
							c-0.227-0.055-0.369-0.286-0.313-0.516l0.215-0.885c0.053-0.229,0.285-0.371,0.515-0.315l0.887,0.215
							c0.228,0.054,0.372,0.287,0.315,0.515L84.755,21.028z"/>
						<path fill="#E6E6E6" d="M86.971,21.562c-0.054,0.229-0.286,0.369-0.518,0.313l-0.885-0.212
							c-0.228-0.057-0.371-0.286-0.315-0.517l0.214-0.885c0.054-0.229,0.288-0.37,0.516-0.313l0.887,0.213
							c0.229,0.055,0.372,0.286,0.314,0.516L86.971,21.562z"/>
						<path fill="#E6E6E6" d="M89.07,22.065c-0.057,0.23-0.286,0.371-0.518,0.314l-0.885-0.212c-0.23-0.056-0.372-0.286-0.317-0.516
							l0.214-0.888c0.058-0.229,0.285-0.371,0.518-0.313l0.884,0.213c0.232,0.056,0.373,0.287,0.317,0.517L89.07,22.065z"/>
						<path fill="#E6E6E6" d="M69.792,17.422c-0.053,0.228-0.283,0.371-0.516,0.317l-3.365-0.813
							c-0.229-0.054-0.373-0.285-0.316-0.517l0.214-0.884c0.055-0.23,0.284-0.374,0.517-0.317l3.363,0.81
							c0.231,0.056,0.371,0.287,0.316,0.518L69.792,17.422z"/>
					</g>
					<g id="line4_4_">
						<path fill="#E6E6E6" d="M68.59,19.483c-0.055,0.232-0.288,0.372-0.516,0.316l-0.886-0.213
							c-0.229-0.054-0.372-0.288-0.314-0.517l0.211-0.885c0.054-0.229,0.287-0.37,0.518-0.314l0.885,0.212
							c0.23,0.056,0.373,0.286,0.316,0.515L68.59,19.483z"/>
						<path fill="#E6E6E6" d="M70.688,19.988c-0.055,0.232-0.285,0.375-0.517,0.319l-0.885-0.215
							c-0.229-0.054-0.37-0.284-0.315-0.518l0.213-0.884c0.058-0.228,0.286-0.372,0.517-0.314l0.887,0.212
							c0.228,0.055,0.369,0.285,0.314,0.517L70.688,19.988z"/>
						<path fill="#E6E6E6" d="M72.77,20.491c-0.056,0.23-0.288,0.372-0.517,0.315l-0.886-0.214
							c-0.229-0.055-0.373-0.285-0.316-0.517l0.213-0.884c0.055-0.229,0.286-0.371,0.518-0.314l0.887,0.214
							c0.226,0.054,0.372,0.286,0.316,0.514L72.77,20.491z"/>
						<path fill="#E6E6E6" d="M87.658,24.08c-0.056,0.229-0.286,0.369-0.518,0.314l-0.886-0.212
							c-0.229-0.057-0.372-0.287-0.317-0.519l0.215-0.884c0.056-0.228,0.284-0.372,0.516-0.315l0.885,0.214
							c0.23,0.054,0.372,0.285,0.317,0.516L87.658,24.08z"/>
						<path fill="#E6E6E6" d="M89.945,24.629c-0.053,0.229-0.283,0.371-0.516,0.315l-0.885-0.213
							c-0.229-0.056-0.371-0.285-0.314-0.517l0.213-0.884c0.056-0.229,0.286-0.371,0.516-0.313l0.886,0.21
							c0.229,0.056,0.371,0.288,0.315,0.518L89.945,24.629z"/>
						<path fill="#E6E6E6" d="M92.047,25.134c-0.055,0.232-0.287,0.372-0.518,0.316l-0.886-0.213
							c-0.23-0.056-0.369-0.288-0.314-0.518l0.213-0.885c0.055-0.229,0.285-0.371,0.514-0.313l0.888,0.213
							c0.229,0.054,0.37,0.285,0.315,0.517L92.047,25.134z"/>
						<path fill="#E6E6E6" d="M85.508,23.443c-0.062,0.266-0.316,0.482-0.547,0.427L73.53,21.116
							c-0.228-0.055-0.3-0.353-0.236-0.615l0.171-0.711c0.065-0.264,0.253-0.45,0.48-0.393l11.43,2.752
							c0.229,0.055,0.369,0.318,0.307,0.583L85.508,23.443L85.508,23.443z"/>
					</g>
				</g>
			</g>
		</g>
		<g id="desktop_3_">
			<g id="monitor_3_">
				<path d="M21.802,14.051c-0.053-0.22,0.085-0.44,0.305-0.49l9.984-2.355c0.22-0.053,0.438,0.083,0.492,0.304l0.375,1.601
					c0.052,0.219-0.088,0.439-0.305,0.492l-9.982,2.352c-0.222,0.051-0.44-0.084-0.489-0.305L21.802,14.051z"/>
				<path fill="#666666" d="M7.393,15.1c-0.14-0.555,1.694-1.714,2.714-1.971l32.288-8.175c1.017-0.257,3.375-0.064,3.514,0.491
					l0.507,2.016c0.139,0.557-0.582,1.452-1.601,1.708L9.788,17.949c-1.019,0.257-1.75-0.276-1.889-0.833L7.393,15.1z"/>
			</g>
			<g id="keyboard_3_">
				<path fill="#808080" d="M46.976,22.555c0.193,0.773,0.053,1.927-0.49,2.062l-30.78,7.715c-0.546,0.138-1.345-0.778-1.539-1.556
					l-1.761-7.021c-0.195-0.779,0.245-1.301,0.79-1.438l30.778-7.714c0.547-0.138,1.049,0.151,1.241,0.926L46.976,22.555
					L46.976,22.555z"/>
				<path fill="#999999" d="M46.836,22.003c0.18,0.724,0.116,1.798-0.431,1.933l-30.864,7.737c-0.544,0.138-1.333-0.721-1.514-1.445
					l-1.641-6.557c-0.183-0.723,0.267-1.213,0.812-1.349l30.862-7.736c0.55-0.138,0.949,0.139,1.133,0.863L46.836,22.003z"/>
				<g id="key_3_">
					<g id="line1_4_">
						<path fill="#E6E6E6" d="M43.134,16.85c0.056,0.229-0.084,0.462-0.313,0.519l-3.36,0.844c-0.231,0.058-0.459-0.083-0.52-0.312
							l-0.221-0.883c-0.056-0.228,0.081-0.462,0.31-0.519l3.362-0.844c0.227-0.057,0.46,0.083,0.52,0.31L43.134,16.85z"/>
						<path fill="#E6E6E6" d="M21.424,22.293c0.06,0.228-0.082,0.461-0.307,0.518l-0.887,0.223c-0.229,0.057-0.462-0.083-0.52-0.312
							l-0.221-0.884c-0.057-0.229,0.08-0.46,0.31-0.52l0.886-0.223c0.225-0.059,0.46,0.083,0.515,0.312L21.424,22.293z"/>
						<path fill="#E6E6E6" d="M23.521,21.767c0.057,0.229-0.084,0.461-0.311,0.519l-0.887,0.223c-0.229,0.057-0.461-0.082-0.52-0.31
							l-0.222-0.884c-0.057-0.228,0.081-0.461,0.312-0.52l0.884-0.222c0.228-0.058,0.462,0.083,0.52,0.312L23.521,21.767z"/>
						<path fill="#E6E6E6" d="M25.613,21.241c0.058,0.23-0.08,0.462-0.309,0.521l-0.886,0.221c-0.229,0.059-0.462-0.082-0.522-0.311
							l-0.219-0.885c-0.059-0.227,0.08-0.46,0.311-0.519l0.885-0.222c0.229-0.06,0.461,0.082,0.518,0.31L25.613,21.241z"/>
						<path fill="#E6E6E6" d="M27.899,20.67c0.056,0.227-0.081,0.459-0.311,0.52l-0.884,0.222c-0.229,0.058-0.464-0.083-0.521-0.311
							l-0.222-0.885c-0.06-0.229,0.082-0.461,0.311-0.519l0.886-0.221c0.229-0.059,0.46,0.081,0.518,0.309L27.899,20.67z"/>
						<path fill="#E6E6E6" d="M29.954,20.154c0.059,0.23-0.081,0.462-0.309,0.521l-0.887,0.222
							c-0.229,0.057-0.462-0.083-0.521-0.313l-0.22-0.883c-0.059-0.229,0.079-0.461,0.31-0.518l0.886-0.222
							c0.229-0.058,0.458,0.082,0.518,0.311L29.954,20.154z"/>
						<path fill="#E6E6E6" d="M32.128,19.609c0.059,0.229-0.081,0.461-0.311,0.52l-0.886,0.222c-0.229,0.058-0.461-0.083-0.518-0.31
							l-0.224-0.884c-0.058-0.229,0.082-0.462,0.313-0.52l0.883-0.225c0.231-0.054,0.464,0.085,0.52,0.311L32.128,19.609z"/>
						<path fill="#E6E6E6" d="M34.24,19.079c0.059,0.227-0.083,0.46-0.313,0.521l-0.885,0.222c-0.227,0.056-0.459-0.085-0.517-0.312
							l-0.222-0.885c-0.058-0.229,0.08-0.461,0.31-0.52l0.885-0.222c0.228-0.057,0.463,0.083,0.519,0.31L34.24,19.079z"/>
						<path fill="#E6E6E6" d="M36.47,18.524c0.057,0.228-0.082,0.46-0.311,0.517l-0.887,0.222c-0.227,0.058-0.462-0.083-0.519-0.312
							l-0.222-0.884c-0.062-0.229,0.085-0.461,0.311-0.521l0.884-0.221c0.229-0.059,0.463,0.081,0.521,0.311L36.47,18.524z"/>
						<path fill="#E6E6E6" d="M38.561,17.995c0.06,0.228-0.079,0.462-0.309,0.521l-0.886,0.221c-0.229,0.058-0.461-0.081-0.52-0.31
							l-0.221-0.887c-0.056-0.227,0.082-0.46,0.313-0.517l0.88-0.224c0.232-0.057,0.463,0.083,0.52,0.311L38.561,17.995z"/>
						<path fill="#E6E6E6" d="M19.331,22.819c0.057,0.228-0.08,0.461-0.31,0.52l-3.359,0.841c-0.231,0.057-0.464-0.082-0.521-0.312
							l-0.22-0.885c-0.059-0.229,0.08-0.46,0.311-0.518l3.359-0.842c0.227-0.058,0.46,0.079,0.518,0.309L19.331,22.819z"/>
					</g>
					<g id="line2_3_">
						<path fill="#E6E6E6" d="M19.142,25.294c0.057,0.227-0.082,0.461-0.311,0.519l-0.885,0.223
							c-0.228,0.058-0.46-0.083-0.519-0.312l-0.222-0.883c-0.056-0.229,0.083-0.46,0.311-0.521l0.886-0.22
							c0.227-0.059,0.46,0.082,0.518,0.31L19.142,25.294z"/>
						<path fill="#E6E6E6" d="M21.234,24.768c0.059,0.228-0.081,0.46-0.309,0.519l-0.884,0.224c-0.229,0.059-0.461-0.084-0.519-0.31
							l-0.222-0.884c-0.058-0.23,0.082-0.462,0.309-0.52l0.886-0.224c0.23-0.057,0.462,0.083,0.518,0.313L21.234,24.768z"/>
						<path fill="#E6E6E6" d="M23.216,24.271c0.06,0.229-0.081,0.462-0.312,0.52l-0.884,0.221c-0.228,0.061-0.462-0.081-0.52-0.308
							l-0.22-0.886c-0.058-0.229,0.083-0.46,0.31-0.52l0.886-0.222c0.227-0.057,0.463,0.083,0.52,0.313L23.216,24.271z"/>
						<path fill="#E6E6E6" d="M25.482,23.702c0.06,0.229-0.084,0.462-0.311,0.519l-0.885,0.221c-0.227,0.059-0.462-0.082-0.52-0.31
							l-0.221-0.884c-0.057-0.228,0.081-0.461,0.31-0.52l0.886-0.221c0.229-0.058,0.461,0.083,0.52,0.312L25.482,23.702z"/>
						<path fill="#E6E6E6" d="M27.521,23.192c0.058,0.227-0.081,0.462-0.311,0.52l-0.888,0.221c-0.227,0.06-0.46-0.082-0.518-0.31
							l-0.221-0.885c-0.058-0.228,0.08-0.461,0.31-0.518l0.887-0.222c0.228-0.06,0.461,0.081,0.518,0.31L27.521,23.192z"/>
						<path fill="#E6E6E6" d="M29.843,22.61c0.06,0.228-0.081,0.459-0.309,0.519l-0.886,0.223c-0.229,0.057-0.46-0.084-0.52-0.312
							l-0.221-0.884c-0.061-0.229,0.081-0.462,0.308-0.52l0.887-0.222c0.228-0.057,0.461,0.083,0.519,0.312L29.843,22.61z"/>
						<path fill="#E6E6E6" d="M31.9,22.095c0.056,0.228-0.083,0.461-0.311,0.52l-0.886,0.223c-0.229,0.058-0.46-0.083-0.521-0.311
							l-0.22-0.885c-0.06-0.229,0.08-0.463,0.31-0.52l0.888-0.219c0.226-0.06,0.46,0.081,0.518,0.31L31.9,22.095z"/>
						<path fill="#E6E6E6" d="M33.992,21.571c0.059,0.227-0.079,0.46-0.31,0.52l-0.888,0.223c-0.226,0.056-0.459-0.083-0.517-0.313
							l-0.222-0.883c-0.058-0.229,0.08-0.464,0.311-0.521l0.886-0.222c0.229-0.057,0.462,0.083,0.52,0.312L33.992,21.571z"/>
						<path fill="#E6E6E6" d="M36.28,20.995c0.057,0.23-0.083,0.462-0.312,0.52l-0.886,0.222c-0.227,0.058-0.46-0.083-0.518-0.311
							l-0.224-0.885c-0.058-0.229,0.084-0.459,0.313-0.519l0.881-0.22c0.232-0.062,0.464,0.08,0.522,0.31L36.28,20.995z"/>
						<path fill="#E6E6E6" d="M38.373,20.474c0.058,0.227-0.082,0.458-0.311,0.519l-0.885,0.222
							c-0.229,0.058-0.461-0.083-0.521-0.31l-0.221-0.887c-0.058-0.227,0.08-0.459,0.313-0.519l0.882-0.222
							c0.229-0.058,0.462,0.083,0.52,0.313L38.373,20.474z"/>
						<path fill="#E6E6E6" d="M40.658,19.898c0.06,0.229-0.081,0.464-0.31,0.52l-0.884,0.223c-0.229,0.059-0.461-0.083-0.52-0.311
							l-0.222-0.886c-0.058-0.228,0.082-0.461,0.309-0.518l0.888-0.222c0.227-0.058,0.462,0.083,0.519,0.309L40.658,19.898z"/>
						<path fill="#E6E6E6" d="M42.753,19.373c0.057,0.229-0.081,0.462-0.31,0.52l-0.886,0.22c-0.23,0.058-0.462-0.082-0.519-0.308
							l-0.223-0.885c-0.057-0.229,0.082-0.463,0.312-0.52l0.884-0.224c0.228-0.057,0.461,0.084,0.519,0.312L42.753,19.373z"/>
					</g>
					<g id="line3_4_">
						<path fill="#E6E6E6" d="M44.25,21.297c0.055,0.228-0.084,0.462-0.313,0.519l-3.359,0.843c-0.229,0.058-0.46-0.084-0.518-0.31
							l-0.222-0.886c-0.059-0.229,0.08-0.461,0.311-0.518l3.359-0.842c0.226-0.058,0.461,0.083,0.521,0.309L44.25,21.297z"/>
						<path fill="#E6E6E6" d="M22.577,26.729c0.058,0.227-0.083,0.46-0.312,0.518l-0.884,0.22c-0.228,0.06-0.461-0.08-0.518-0.308
							l-0.222-0.883c-0.059-0.231,0.078-0.464,0.311-0.52l0.884-0.224c0.227-0.056,0.462,0.083,0.519,0.313L22.577,26.729z"/>
						<path fill="#E6E6E6" d="M24.652,26.209c0.061,0.227-0.079,0.461-0.309,0.518l-0.886,0.223
							c-0.229,0.057-0.462-0.082-0.521-0.312l-0.221-0.883c-0.058-0.229,0.083-0.461,0.313-0.519l0.885-0.223
							c0.228-0.056,0.46,0.083,0.518,0.31L24.652,26.209z"/>
						<path fill="#E6E6E6" d="M26.748,25.683c0.059,0.229-0.082,0.462-0.311,0.52l-0.887,0.223
							c-0.227,0.056-0.462-0.083-0.518-0.311l-0.221-0.887c-0.059-0.229,0.082-0.461,0.311-0.518l0.884-0.223
							c0.229-0.058,0.464,0.084,0.52,0.313L26.748,25.683z"/>
						<path fill="#E6E6E6" d="M28.918,25.141c0.058,0.225-0.082,0.459-0.31,0.517l-0.886,0.223c-0.228,0.056-0.462-0.083-0.52-0.312
							l-0.224-0.884c-0.056-0.229,0.085-0.463,0.314-0.519l0.883-0.224c0.229-0.057,0.462,0.085,0.518,0.31L28.918,25.141z"/>
						<path fill="#E6E6E6" d="M31.03,24.611c0.06,0.228-0.081,0.459-0.309,0.518l-0.885,0.222c-0.227,0.059-0.46-0.082-0.519-0.309
							l-0.222-0.885c-0.058-0.231,0.081-0.462,0.312-0.52l0.885-0.223c0.228-0.059,0.462,0.083,0.52,0.311L31.03,24.611z"/>
						<path fill="#E6E6E6" d="M33.262,24.051c0.058,0.228-0.085,0.46-0.313,0.52l-0.885,0.222c-0.229,0.058-0.461-0.082-0.52-0.312
							l-0.222-0.883c-0.057-0.23,0.084-0.462,0.312-0.521l0.886-0.22c0.229-0.059,0.46,0.081,0.52,0.311L33.262,24.051z"/>
						<path fill="#E6E6E6" d="M35.373,23.522c0.06,0.228-0.081,0.461-0.313,0.519l-0.886,0.223c-0.227,0.057-0.46-0.083-0.518-0.312
							l-0.222-0.885c-0.057-0.228,0.082-0.461,0.311-0.517l0.886-0.222c0.228-0.058,0.463,0.083,0.521,0.309L35.373,23.522z"/>
						<path fill="#E6E6E6" d="M37.584,22.968c0.06,0.227-0.082,0.461-0.313,0.518l-0.882,0.223
							c-0.229,0.056-0.462-0.081-0.521-0.313l-0.222-0.883c-0.058-0.229,0.086-0.463,0.313-0.518l0.884-0.223
							c0.229-0.058,0.463,0.082,0.518,0.31L37.584,22.968z"/>
						<path fill="#E6E6E6" d="M39.677,22.442c0.058,0.229-0.079,0.46-0.309,0.519l-0.886,0.222c-0.229,0.059-0.462-0.082-0.52-0.309
							l-0.222-0.885c-0.059-0.231,0.08-0.461,0.312-0.518l0.885-0.222c0.229-0.06,0.46,0.083,0.52,0.31L39.677,22.442z"/>
						<path fill="#E6E6E6" d="M20.444,27.264c0.059,0.227-0.08,0.46-0.309,0.521l-3.36,0.84c-0.227,0.06-0.461-0.08-0.52-0.309
							l-0.222-0.883c-0.059-0.23,0.08-0.464,0.312-0.521l3.356-0.842c0.229-0.059,0.462,0.083,0.521,0.311L20.444,27.264z"/>
					</g>
					<g id="line4_3_">
						<path fill="#E6E6E6" d="M20.334,29.647c0.061,0.232-0.082,0.463-0.31,0.52l-0.884,0.222c-0.229,0.06-0.462-0.082-0.519-0.31
							l-0.224-0.883c-0.059-0.23,0.082-0.462,0.311-0.521l0.884-0.223c0.229-0.058,0.463,0.082,0.521,0.31L20.334,29.647z"/>
						<path fill="#E6E6E6" d="M22.428,29.122c0.061,0.231-0.08,0.463-0.311,0.521l-0.883,0.221c-0.229,0.059-0.46-0.082-0.521-0.312
							l-0.221-0.883c-0.057-0.23,0.082-0.461,0.311-0.52l0.884-0.223c0.228-0.058,0.46,0.083,0.519,0.312L22.428,29.122z"/>
						<path fill="#E6E6E6" d="M24.504,28.603c0.057,0.229-0.082,0.462-0.313,0.518l-0.884,0.223
							c-0.229,0.058-0.462-0.082-0.521-0.312l-0.222-0.883c-0.056-0.228,0.082-0.461,0.312-0.519l0.887-0.223
							c0.225-0.057,0.463,0.082,0.52,0.309L24.504,28.603z"/>
						<path fill="#E6E6E6" d="M39.361,24.879c0.055,0.229-0.084,0.46-0.314,0.52l-0.883,0.223c-0.229,0.056-0.463-0.081-0.521-0.312
							l-0.221-0.883c-0.058-0.229,0.08-0.46,0.309-0.519l0.884-0.221c0.229-0.059,0.463,0.081,0.522,0.31L39.361,24.879z"/>
						<path fill="#E6E6E6" d="M41.644,24.307c0.058,0.229-0.08,0.459-0.311,0.519l-0.885,0.222c-0.228,0.058-0.459-0.08-0.52-0.312
							l-0.222-0.882c-0.058-0.23,0.081-0.461,0.31-0.518l0.885-0.224c0.229-0.058,0.462,0.083,0.521,0.313L41.644,24.307z"/>
						<path fill="#E6E6E6" d="M43.738,23.78c0.058,0.231-0.082,0.462-0.31,0.52l-0.886,0.222c-0.23,0.058-0.461-0.082-0.521-0.311
							l-0.221-0.883c-0.057-0.229,0.082-0.462,0.311-0.518l0.886-0.223c0.228-0.06,0.46,0.082,0.518,0.311L43.738,23.78z"/>
						<path fill="#E6E6E6" d="M37.159,25.314c0.067,0.264-0.059,0.574-0.289,0.631l-11.403,2.859
							c-0.229,0.058-0.43-0.173-0.494-0.436l-0.178-0.708c-0.066-0.265,0.015-0.514,0.244-0.571l11.403-2.858
							c0.229-0.058,0.475,0.112,0.54,0.375L37.159,25.314L37.159,25.314z"/>
					</g>
				</g>
			</g>
		</g>
	</g>
</g>
</svg>
