<svg id="图层_1" data-name="图层 1" xmlns="http://www.w3.org/2000/svg" viewBox="0 0 212.3 322.21"><defs><style>.cls-1{fill:#231815;}</style></defs><title>5</title><path class="cls-1" d="M3140.83,471.59l18.33-176.92h177.14v51h-125l-8.73,73.3a76,76,0,0,1,21.16-10.8,88.53,88.53,0,0,1,27.49-4.47q45.81-.65,71,27.71t25.2,79q0,45.81-27.6,76.13t-79.52,30.32q-43.85,0-75-24T3135.16,527l0.44-1.09,61.3-3.05q0,21.16,12,33t31.41,11.89q22.25,0,32.83-15.79t10.58-41.26q0-27.44-11.34-44t-33.6-16.55q-18.32,0-28,6.76a36.89,36.89,0,0,0-13.85,18.32Z" transform="translate(-3135.12 -294.67)"/></svg>