<svg id="图层_1" data-name="图层 1" xmlns="http://www.w3.org/2000/svg" viewBox="0 0 216.62 326.79"><defs><style>.cls-1{fill:#231815;}</style></defs><title>8</title><path class="cls-1" d="M3084.22,1302.19q0,23.78-12.54,42.1t-34.58,28.58q25.3,10.69,39.92,30.54t14.62,45.38q0,44.07-29.89,67.74t-78.1,23.67q-48.65,0-78.64-23.67t-30-67.74q0-25.74,14.51-45.48t40-30.65q-22.25-10.25-34.69-28.47t-12.43-42q0-42.32,27.71-65.55t73.08-23.23q45.16,0,73.08,23.23T3084.22,1302.19Zm-56.28,142.12q0-21.33-12.43-34.17t-32.29-12.84q-20.07,0-32.18,12.84t-12.11,34.17q0,21.77,12.22,34.28t32.5,12.51q19.85,0,32.07-12.62T3027.94,1444.32Zm-7.2-139.29q0-19.19-10.14-30.87t-27.38-11.67q-17.46,0-27.27,11.45t-9.82,31.09q0,19.85,9.93,31.52t27.6,11.67q17.23,0,27.16-11.67T3020.74,1305Z" transform="translate(-2875.02 -1213.41)"/></svg>