<svg id="图层_1" data-name="图层 1" xmlns="http://www.w3.org/2000/svg" viewBox="0 0 250.02 326.79"><defs><style>.cls-1{fill:#231815;}</style></defs><title>C</title><path class="cls-1" d="M301.41,574l0.44,1.31q0.87,51.27-31.3,81.37t-89.33,30.1q-57.38,0-93.15-36.87t-35.78-94.9V492q0-57.81,34.9-94.9T177.94,360q58.9,0,92.06,30.21t32.29,82.35l-0.44,1.31h-62q0-31.41-15.05-48.1t-46.9-16.69q-28.58,0-45.37,23.21t-16.8,59.17v63.42q0,36.4,17.67,59.61t47.77,23.21q29.88,0,44.18-16T239.68,574h61.74Z" transform="translate(-52.29 -360.04)"/></svg>