<?xml version="1.0" encoding="utf-8"?>
<!-- Generator: Adobe Illustrator 19.2.1, SVG Export Plug-In . SVG Version: 6.00 Build 0)  -->
<svg version="1.1" id="图层_1" xmlns="http://www.w3.org/2000/svg" xmlns:xlink="http://www.w3.org/1999/xlink" x="0px" y="0px"
	 viewBox="0 0 105 90" style="enable-background:new 0 0 105 90;" xml:space="preserve">
<style type="text/css">
	.st0{fill:#CBC8B8;}
	.st1{fill:#BCBAAF;}
	.st2{fill:#5E5951;}
	.st3{fill:#E2E0D6;stroke:#4D4D4D;stroke-miterlimit:10;}
	.st4{fill:#C0CED8;}
	.st5{fill:#E6E6E6;}
</style>
<g id="char">
	<path class="st0" d="M32.1,25.5c0-1.9,0.4-3.5,2.3-3.5h40.1c1.9,0,2.3,1.6,2.3,3.5c0,0,0,29.2,0,38.9H32.1
		C32.1,54.6,32.1,25.5,32.1,25.5z"/>
	<path class="st1" d="M82.6,87.9c0,1.2-1.6,2.1-3.5,2.1h-49c-1.9,0-3.5-1-3.5-2.1c0,0,9.1-17.7,9.1-23.5h38.6
		C74.4,70.2,82.6,87.9,82.6,87.9z"/>
	<path class="st2" d="M72.9,31.7c0-0.6,0.5-1.2,1.2-1.2h5.4c0.6,0,1.2,0.5,1.2,1.2v31.9c0,0.7-0.5,1.2-1.2,1.2h-5.4
		c-0.6,0-1.2-0.5-1.2-1.2V31.7z"/>
	<path class="st2" d="M28.6,31.7c0-0.6,0.5-1.2,1.2-1.2h5.4c0.6,0,1.2,0.5,1.2,1.2v31.9c0,0.7-0.5,1.2-1.2,1.2h-5.4
		c-0.6,0-1.2-0.5-1.2-1.2V31.7z"/>
</g>
<rect x="0.7" y="0.6" class="st3" width="104" height="57.5"/>
<g id="keyboard">
	<path class="st4" d="M74.7,39.8c0,1-0.5,2.4-1.3,2.4H32.1c-0.7,0-1.5-1.4-1.5-2.4v-9.4c0-1,0.7-1.6,1.5-1.6h41.3
		c0.7,0,1.3,0.5,1.3,1.6L74.7,39.8L74.7,39.8z"/>
	<path class="st5" d="M74.7,39.1c0,1-0.4,2.3-1.2,2.3H32.1c-0.7,0-1.5-1.3-1.5-2.3v-8.8c0-1,0.7-1.4,1.5-1.4h41.4
		c0.7,0,1.2,0.5,1.2,1.4C74.7,30.3,74.7,39.1,74.7,39.1z"/>
	<g id="key">
		<g id="line1_2_">
			<path d="M71.6,31.4c0,0.3-0.2,0.6-0.6,0.6h-4.5c-0.3,0-0.6-0.2-0.6-0.6v-1.2c0-0.3,0.2-0.6,0.6-0.6h4.5c0.3,0,0.6,0.2,0.6,0.6
				V31.4z"/>
			<path d="M42.5,31.4c0,0.3-0.2,0.6-0.6,0.6h-1.2c-0.3,0-0.6-0.2-0.6-0.6v-1.2c0-0.3,0.2-0.6,0.6-0.6h1.2c0.3,0,0.6,0.2,0.6,0.6
				V31.4z"/>
			<path d="M45.3,31.4c0,0.3-0.2,0.6-0.6,0.6h-1.2c-0.3,0-0.6-0.2-0.6-0.6v-1.2c0-0.3,0.2-0.6,0.6-0.6h1.2c0.3,0,0.6,0.2,0.6,0.6
				V31.4z"/>
			<path d="M48.1,31.4c0,0.3-0.2,0.6-0.6,0.6h-1.2c-0.3,0-0.6-0.2-0.6-0.6v-1.2c0-0.3,0.2-0.6,0.6-0.6h1.2c0.3,0,0.6,0.2,0.6,0.6
				V31.4z"/>
			<path d="M51.2,31.4c0,0.3-0.2,0.6-0.6,0.6h-1.2c-0.3,0-0.6-0.2-0.6-0.6v-1.2c0-0.3,0.2-0.6,0.6-0.6h1.2c0.3,0,0.6,0.2,0.6,0.6
				V31.4z"/>
			<path d="M53.9,31.4c0,0.3-0.2,0.6-0.6,0.6h-1.2c-0.3,0-0.6-0.2-0.6-0.6v-1.2c0-0.3,0.2-0.6,0.6-0.6h1.2c0.3,0,0.6,0.2,0.6,0.6
				V31.4L53.9,31.4z"/>
			<path d="M56.9,31.4c0,0.3-0.2,0.6-0.6,0.6h-1.2c-0.3,0-0.6-0.2-0.6-0.6v-1.2c0-0.3,0.2-0.6,0.6-0.6h1.2c0.3,0,0.6,0.2,0.6,0.6
				V31.4z"/>
			<path d="M59.7,31.4c0,0.3-0.3,0.6-0.6,0.6h-1.2c-0.3,0-0.6-0.2-0.6-0.6v-1.2c0-0.3,0.2-0.6,0.6-0.6h1.2c0.3,0,0.6,0.2,0.6,0.6
				V31.4z"/>
			<path d="M62.7,31.4c0,0.3-0.2,0.6-0.6,0.6h-1.2c-0.3,0-0.6-0.2-0.6-0.6v-1.2c0-0.3,0.2-0.6,0.6-0.6h1.2c0.3,0,0.6,0.2,0.6,0.6
				L62.7,31.4L62.7,31.4z"/>
			<path d="M65.5,31.4c0,0.3-0.2,0.6-0.6,0.6h-1.2c-0.3,0-0.6-0.2-0.6-0.6v-1.2c0-0.3,0.2-0.6,0.6-0.6h1.2c0.3,0,0.6,0.2,0.6,0.6
				V31.4L65.5,31.4z"/>
			<path d="M39.7,31.4c0,0.3-0.2,0.6-0.6,0.6h-4.5c-0.3,0-0.6-0.2-0.6-0.6v-1.2c0-0.3,0.2-0.6,0.6-0.6h4.5c0.3,0,0.6,0.2,0.6,0.6
				L39.7,31.4L39.7,31.4z"/>
		</g>
		<g id="line2">
			<path d="M38.7,34.5c0,0.3-0.2,0.6-0.6,0.6h-1.2c-0.3,0-0.6-0.2-0.6-0.6v-1.2c0-0.3,0.2-0.6,0.6-0.6h1.2c0.3,0,0.6,0.3,0.6,0.6
				V34.5z"/>
			<path d="M41.5,34.5c0,0.3-0.2,0.6-0.6,0.6h-1.2c-0.3,0-0.6-0.2-0.6-0.6v-1.2c0-0.3,0.2-0.6,0.6-0.6h1.2c0.3,0,0.6,0.3,0.6,0.6
				V34.5z"/>
			<path d="M44.1,34.5c0,0.3-0.2,0.6-0.6,0.6h-1.2c-0.3,0-0.6-0.2-0.6-0.6v-1.2c0-0.3,0.2-0.6,0.6-0.6h1.2c0.3,0,0.6,0.3,0.6,0.6
				V34.5z"/>
			<path d="M47.2,34.5c0,0.3-0.2,0.6-0.6,0.6h-1.2c-0.3,0-0.6-0.2-0.6-0.6v-1.2c0-0.3,0.2-0.6,0.6-0.6h1.2c0.3,0,0.6,0.3,0.6,0.6
				V34.5z"/>
			<path d="M49.9,34.5c0,0.3-0.2,0.6-0.6,0.6h-1.2c-0.3,0-0.6-0.2-0.6-0.6v-1.2c0-0.3,0.2-0.6,0.6-0.6h1.2c0.3,0,0.6,0.3,0.6,0.6
				V34.5z"/>
			<path d="M53,34.5c0,0.3-0.3,0.6-0.6,0.6h-1.2c-0.3,0-0.6-0.2-0.6-0.6v-1.2c0-0.3,0.2-0.6,0.6-0.6h1.2c0.3,0,0.6,0.3,0.6,0.6V34.5
				z"/>
			<path d="M55.8,34.5c0,0.3-0.2,0.6-0.6,0.6H54c-0.3,0-0.6-0.2-0.6-0.6v-1.2c0-0.3,0.2-0.6,0.6-0.6h1.2c0.3,0,0.6,0.3,0.6,0.6V34.5
				z"/>
			<path d="M58.6,34.5c0,0.3-0.2,0.6-0.6,0.6h-1.2c-0.3,0-0.6-0.2-0.6-0.6v-1.2c0-0.3,0.2-0.6,0.6-0.6H58c0.3,0,0.6,0.3,0.6,0.6
				V34.5z"/>
			<path d="M61.7,34.5c0,0.3-0.2,0.6-0.6,0.6h-1.2c-0.3,0-0.6-0.2-0.6-0.6v-1.2c0-0.3,0.2-0.6,0.6-0.6h1.2c0.3,0,0.6,0.3,0.6,0.6
				V34.5L61.7,34.5z"/>
			<path d="M64.5,34.5c0,0.3-0.2,0.6-0.6,0.6h-1.2c-0.3,0-0.6-0.2-0.6-0.6v-1.2c0-0.3,0.2-0.6,0.6-0.6h1.2c0.3,0,0.6,0.3,0.6,0.6
				V34.5z"/>
			<path d="M67.5,34.5c0,0.3-0.2,0.6-0.6,0.6h-1.2c-0.3,0-0.6-0.2-0.6-0.6v-1.2c0-0.3,0.2-0.6,0.6-0.6H67c0.3,0,0.6,0.3,0.6,0.6
				V34.5z"/>
			<path d="M70.3,34.5c0,0.3-0.2,0.6-0.6,0.6h-1.2c-0.3,0-0.6-0.2-0.6-0.6v-1.2c0-0.3,0.2-0.6,0.6-0.6h1.2c0.3,0,0.6,0.3,0.6,0.6
				C70.3,33.3,70.3,34.5,70.3,34.5z"/>
		</g>
		<g id="line3_2_">
			<path d="M71.6,37.4c0,0.3-0.2,0.6-0.6,0.6h-4.5c-0.3,0-0.6-0.2-0.6-0.6v-1.2c0-0.3,0.2-0.6,0.6-0.6h4.5c0.3,0,0.6,0.2,0.6,0.6
				V37.4z"/>
			<path d="M42.5,37.4c0,0.3-0.2,0.6-0.6,0.6h-1.2c-0.3,0-0.6-0.2-0.6-0.6v-1.2c0-0.3,0.2-0.6,0.6-0.6H42c0.3,0,0.6,0.2,0.6,0.6
				V37.4z"/>
			<path d="M45.3,37.4c0,0.3-0.2,0.6-0.6,0.6h-1.2c-0.3,0-0.6-0.2-0.6-0.6v-1.2c0-0.3,0.2-0.6,0.6-0.6h1.2c0.3,0,0.6,0.2,0.6,0.6
				V37.4z"/>
			<path d="M48.1,37.4c0,0.3-0.2,0.6-0.6,0.6h-1.2c-0.3,0-0.6-0.2-0.6-0.6v-1.2c0-0.3,0.2-0.6,0.6-0.6h1.2c0.3,0,0.6,0.2,0.6,0.6
				V37.4z"/>
			<path d="M51.1,37.4c0,0.3-0.2,0.6-0.6,0.6h-1.2c-0.3,0-0.6-0.2-0.6-0.6v-1.2c0-0.3,0.2-0.6,0.6-0.6h1.2c0.3,0,0.6,0.2,0.6,0.6
				V37.4z"/>
			<path d="M53.9,37.4c0,0.3-0.2,0.6-0.6,0.6h-1.2c-0.3,0-0.6-0.2-0.6-0.6v-1.2c0-0.3,0.2-0.6,0.6-0.6h1.2c0.3,0,0.6,0.2,0.6,0.6
				V37.4z"/>
			<path d="M56.9,37.4c0,0.3-0.3,0.6-0.6,0.6h-1.2c-0.3,0-0.6-0.2-0.6-0.6v-1.2c0-0.3,0.3-0.6,0.6-0.6h1.2c0.3,0,0.6,0.2,0.6,0.6
				V37.4z"/>
			<path d="M59.7,37.4c0,0.3-0.3,0.6-0.6,0.6H58c-0.3,0-0.6-0.2-0.6-0.6v-1.2c0-0.3,0.3-0.6,0.6-0.6h1.2c0.3,0,0.6,0.2,0.6,0.6V37.4
				z"/>
			<path d="M62.7,37.4c0,0.3-0.2,0.6-0.6,0.6h-1.2c-0.3,0-0.6-0.2-0.6-0.6v-1.2c0-0.3,0.2-0.6,0.6-0.6h1.2c0.3,0,0.6,0.2,0.6,0.6
				L62.7,37.4L62.7,37.4z"/>
			<path d="M65.5,37.4c0,0.3-0.2,0.6-0.6,0.6h-1.2c-0.3,0-0.6-0.2-0.6-0.6v-1.2c0-0.3,0.2-0.6,0.6-0.6h1.2c0.3,0,0.6,0.2,0.6,0.6
				V37.4L65.5,37.4z"/>
			<path d="M39.7,37.4c0,0.3-0.2,0.6-0.6,0.6h-4.5c-0.3,0-0.6-0.2-0.6-0.6v-1.2c0-0.3,0.2-0.6,0.6-0.6h4.5c0.3,0,0.6,0.2,0.6,0.6
				L39.7,37.4L39.7,37.4z"/>
		</g>
		<g id="line4">
			<path d="M38.8,40.3c0,0.3-0.2,0.6-0.6,0.6h-1.2c-0.3,0-0.6-0.2-0.6-0.6v-1.2c0-0.3,0.2-0.6,0.6-0.6h1.2c0.3,0,0.6,0.2,0.6,0.6
				V40.3z"/>
			<path d="M41.6,40.3c0,0.3-0.2,0.6-0.6,0.6h-1.2c-0.3,0-0.6-0.2-0.6-0.6v-1.2c0-0.3,0.2-0.6,0.6-0.6H41c0.3,0,0.6,0.2,0.6,0.6
				V40.3z"/>
			<path d="M44.4,40.3c0,0.3-0.3,0.6-0.6,0.6h-1.2c-0.3,0-0.6-0.2-0.6-0.6v-1.2c0-0.3,0.2-0.6,0.6-0.6h1.2c0.3,0,0.6,0.2,0.6,0.6
				V40.3z"/>
			<path d="M64.3,40.3c0,0.3-0.2,0.6-0.6,0.6h-1.2c-0.3,0-0.6-0.2-0.6-0.6v-1.2c0-0.3,0.2-0.6,0.6-0.6h1.2c0.3,0,0.6,0.2,0.6,0.6
				L64.3,40.3L64.3,40.3z"/>
			<path d="M67.4,40.3c0,0.3-0.2,0.6-0.6,0.6h-1.2c-0.3,0-0.6-0.2-0.6-0.6v-1.2c0-0.3,0.2-0.6,0.6-0.6h1.2c0.3,0,0.6,0.2,0.6,0.6
				V40.3z"/>
			<path d="M70.2,40.3c0,0.3-0.2,0.6-0.6,0.6h-1.2c-0.3,0-0.6-0.2-0.6-0.6v-1.2c0-0.3,0.2-0.6,0.6-0.6h1.2c0.3,0,0.6,0.2,0.6,0.6
				V40.3z"/>
			<path d="M61.4,40.2c0,0.4-0.3,0.7-0.6,0.7H45.5c-0.3,0-0.5-0.4-0.5-0.7v-1c0-0.4,0.2-0.6,0.5-0.6h15.3c0.3,0,0.6,0.3,0.6,0.6
				L61.4,40.2L61.4,40.2z"/>
		</g>
	</g>
</g>
<g id="monitor">
	<path d="M60.4,18.6c0,0.3-0.2,0.5-0.5,0.5H46.3c-0.3,0-0.5-0.2-0.5-0.5v-2.1c0-0.3,0.2-0.5,0.5-0.5h13.6c0.3,0,0.5,0.2,0.5,0.5
		L60.4,18.6L60.4,18.6z"/>
	<path class="st4" d="M85,19.7c0,0.3-0.2,0.8-0.6,0.8H21c-0.4,0-1-0.5-1-0.8v-1.9c0-0.3,0.5-0.2,1-0.2h63.4c0.4,0,0.6-0.1,0.6,0.2
		V19.7L85,19.7z"/>
</g>
</svg>
