<?xml version="1.0" encoding="utf-8"?>
<!-- Generator: Adobe Illustrator 21.0.2, SVG Export Plug-In . SVG Version: 6.00 Build 0)  -->
<svg version="1.1" id="图层_1" xmlns="http://www.w3.org/2000/svg" xmlns:xlink="http://www.w3.org/1999/xlink" x="0px" y="0px"
	 viewBox="0 0 90 90" style="enable-background:new 0 0 90 90;" xml:space="preserve">
<style type="text/css">
	.st0{fill:#0F3259;}
	.st1{font-family:'Roboto-Regular';}
	.st2{font-size:8px;}
	.st3{fill:none;stroke:#00325F;stroke-width:0.75;stroke-linecap:round;stroke-miterlimit:10;}
	.st4{fill:none;stroke:#00325F;stroke-linecap:round;stroke-miterlimit:10;}
	.st5{fill:#00325F;}
	.st6{fill:none;stroke:#FFFFFF;stroke-width:0.75;stroke-linecap:round;stroke-miterlimit:10;}
</style>
<text transform="matrix(1 0 0 1 8.1389 77.1576)" class="st0 st1 st2">Counselling Services</text>
<g>
	<path class="st3" d="M25.2,19.6c0-4.5,6.8-4.9,6.8,0c0,1.4-0.4,3.6-2.8,5c-1.1,0.6-1,0.8-1.1,2.3"/>
	<line class="st3" x1="28.2" y1="28.5" x2="28.2" y2="29.8"/>
</g>
<path class="st4" d="M35.6,33.7H21.7c-1.9,0-6.9,1.5-6.9,1.5s0-6.5,0-8.4v-6.9c0-3.8,3.1-6.9,6.9-6.9h13.8c3.8,0,6.9,3.1,6.9,6.9
	v6.9C42.5,30.6,39.4,33.7,35.6,33.7z"/>
<path class="st5" d="M66.6,58.9H52.7c-3.8,0-6.9-3.1-6.9-6.9V45c0-3.8,3.1-6.9,6.9-6.9h13.8c3.8,0,6.9,3.1,6.9,6.9V52
	c0,1.7,0,9.8,0,9.8S68.7,58.9,66.6,58.9z"/>
<g>
	<line class="st6" x1="59.5" y1="52.5" x2="59.5" y2="53.8"/>
	<line class="st6" x1="59.5" y1="42" x2="59.5" y2="50.3"/>
</g>
</svg>
