<?xml version="1.0" encoding="utf-8"?>
<!-- Generator: Adobe Illustrator 19.2.1, SVG Export Plug-In . SVG Version: 6.00 Build 0)  -->
<svg version="1.1" id="图层_1" xmlns="http://www.w3.org/2000/svg" xmlns:xlink="http://www.w3.org/1999/xlink" x="0px" y="0px"
	 viewBox="0 0 90 90" style="enable-background:new 0 0 90 90;" xml:space="preserve">
<style type="text/css">
	.st0{display:none;fill:#00325F;}
	.st1{display:none;fill:#FFFFFA;}
	.st2{fill:#0F3259;}
	.st3{fill:#888888;}
	.st4{enable-background:new    ;}
</style>
<path class="st0" d="M90,80.1c0,5.4-4.1,9.9-9.1,9.9H9.1c-5,0-9.1-4.4-9.1-9.9V9.9C0,4.4,4.1,0,9.1,0h71.8c5,0,9.1,4.4,9.1,9.9V80.1
	z"/>
<g>
	<polygon class="st1" points="76.2,19.4 76.2,45.4 44.1,66 14.2,45.4 14.2,19.4 44.2,4 	"/>
	<polygon class="st2" points="44.2,34 13,18.5 44.2,4 77,18.5 	"/>
	<polygon class="st3" points="77,47.1 44.2,62.7 44.2,35 77,19.4 	"/>
	<polygon class="st2" points="13,47.1 44.2,62.7 44.2,35 13,19.4 	"/>
</g>
<g class="st4">
	<path class="st2" d="M28.3,77.1v-5.7h4.1v0.7H29v1.8h3.2v0.7H29v1.9h3.5v0.7L28.3,77.1L28.3,77.1z"/>
	<path class="st2" d="M33.1,77.1l1.5-2.2l-1.4-2H34l0.6,1c0.1,0.2,0.2,0.3,0.3,0.5c0.1-0.2,0.2-0.3,0.3-0.5l0.7-1h0.8l-1.4,2
		l1.5,2.2h-0.9L35,75.8l0-0.3l-1.1,1.6H33.1z"/>
	<path class="st2" d="M37.5,77.1v-5.7h0.7v2.1c0.3-0.4,0.7-0.6,1.2-0.6c0.3,0,0.6,0.1,0.8,0.2s0.4,0.3,0.5,0.5s0.1,0.5,0.1,0.9v2.6
		h-0.7v-2.6c0-0.4-0.1-0.6-0.2-0.8s-0.4-0.2-0.6-0.2c-0.2,0-0.4,0.1-0.6,0.2s-0.3,0.3-0.4,0.4s-0.1,0.4-0.1,0.8v2.3h-0.7V77.1z"/>
	<path class="st2" d="M42,72.2v-0.8h0.7v0.8H42z M42,77.1V73h0.7v4.1H42z"/>
	<path class="st2" d="M44.4,77.1h-0.7v-5.7h0.7v2c0.3-0.4,0.7-0.6,1.1-0.6c0.3,0,0.5,0.1,0.7,0.2s0.4,0.2,0.6,0.4
		c0.1,0.2,0.3,0.4,0.3,0.7c0.1,0.3,0.1,0.5,0.1,0.8c0,0.7-0.2,1.3-0.5,1.6s-0.8,0.6-1.3,0.6s-0.9-0.2-1.2-0.6v0.6H44.4z M44.4,75
		c0,0.5,0.1,0.9,0.2,1.1c0.2,0.4,0.5,0.5,0.9,0.5c0.3,0,0.6-0.1,0.8-0.4s0.3-0.7,0.3-1.2s-0.1-0.9-0.3-1.2s-0.5-0.4-0.8-0.4
		s-0.6,0.1-0.8,0.4S44.4,74.5,44.4,75z"/>
	<path class="st2" d="M48.2,72.2v-0.8h0.7v0.8H48.2z M48.2,77.1V73h0.7v4.1H48.2z"/>
	<path class="st2" d="M51.5,76.5l0.1,0.6c-0.2,0-0.4,0.1-0.5,0.1c-0.3,0-0.5,0-0.6-0.1s-0.2-0.2-0.3-0.3c-0.1-0.1-0.1-0.4-0.1-0.8
		v-2.4h-0.5V73h0.5v-1l0.7-0.4V73h0.7v0.5h-0.7V76c0,0.2,0,0.3,0,0.4s0.1,0.1,0.1,0.1c0.1,0,0.1,0.1,0.2,0.1
		C51.3,76.5,51.4,76.5,51.5,76.5z"/>
	<path class="st2" d="M52.2,72.2v-0.8h0.7v0.8H52.2z M52.2,77.1V73h0.7v4.1H52.2z"/>
	<path class="st2" d="M53.7,75.1c0-0.8,0.2-1.3,0.6-1.7c0.4-0.3,0.8-0.5,1.3-0.5c0.6,0,1,0.2,1.4,0.6s0.5,0.9,0.5,1.5
		c0,0.5-0.1,1-0.2,1.3S57,76.8,56.7,77s-0.6,0.3-1,0.3c-0.6,0-1-0.2-1.4-0.6C53.9,76.3,53.7,75.8,53.7,75.1z M54.4,75.1
		c0,0.5,0.1,0.9,0.3,1.2c0.2,0.3,0.5,0.4,0.9,0.4c0.3,0,0.6-0.1,0.9-0.4c0.2-0.3,0.3-0.7,0.3-1.2s-0.1-0.9-0.3-1.2
		c-0.2-0.3-0.5-0.4-0.9-0.4s-0.6,0.1-0.9,0.4C54.5,74.1,54.4,74.5,54.4,75.1z"/>
	<path class="st2" d="M58.4,77.1V73H59v0.6c0.3-0.5,0.7-0.7,1.3-0.7c0.3,0,0.5,0,0.7,0.1s0.4,0.2,0.5,0.4c0.1,0.1,0.2,0.3,0.2,0.5
		c0,0.1,0,0.4,0,0.7v2.6H61v-2.5c0-0.3,0-0.5-0.1-0.6s-0.2-0.3-0.3-0.3c-0.1-0.1-0.3-0.1-0.5-0.1c-0.3,0-0.6,0.1-0.8,0.3
		c-0.2,0.2-0.3,0.6-0.3,1.1v2.3h-0.6V77.1z"/>
</g>
</svg>
