<?xml version="1.0" encoding="utf-8"?>
<!-- Generator: Adobe Illustrator 19.2.1, SVG Export Plug-In . SVG Version: 6.00 Build 0)  -->
<svg version="1.1" id="图层_1" xmlns="http://www.w3.org/2000/svg" xmlns:xlink="http://www.w3.org/1999/xlink" x="0px" y="0px"
	 viewBox="0 0 90 90" style="enable-background:new 0 0 90 90;" xml:space="preserve">
<style type="text/css">
	.st0{display:none;fill:#00325F;}
	.st1{fill:#AFAE9F;}
	.st2{fill:#0F3259;}
	.st3{enable-background:new    ;}
</style>
<path class="st0" d="M90,80.1c0,5.4-4.1,9.9-9.1,9.9H9.1c-5,0-9.1-4.4-9.1-9.9V9.9C0,4.4,4.1,0,9.1,0h71.8c5,0,9.1,4.4,9.1,9.9V80.1
	z"/>
<g id="icon">
	<path class="st1" d="M21.5,49.5h-6.7c-0.7,0-1.2-0.6-1.2-1.3V21.6c0-0.7,0.5-1.3,1.2-1.3h6.7V49.5z"/>
	<polygon class="st2" points="51.9,61.7 21.5,49.6 21.5,20.4 51.9,8.3 	"/>
	<g id="X">
		<path class="st2" d="M62.7,43.5c-0.5,0.5-1.3,0.6-1.7,0.2l-2.2-2.2c-0.4-0.4-0.3-1.2,0.2-1.8l13.3-13.3c0.5-0.5,1.3-0.6,1.7-0.2
			l2.2,2.2c0.4,0.4,0.3,1.2-0.2,1.8L62.7,43.5z"/>
		<path class="st2" d="M76,39.8c0.5,0.5,0.6,1.3,0.2,1.7L74,43.7c-0.4,0.4-1.2,0.3-1.7-0.2L59,30.2c-0.5-0.5-0.6-1.3-0.2-1.8
			l2.2-2.2c0.4-0.4,1.2-0.3,1.7,0.2L76,39.8z"/>
	</g>
</g>
<g class="st3">
	<path class="st2" d="M24,75.3l0.7-0.1c0,0.3,0.1,0.5,0.2,0.7s0.3,0.3,0.6,0.4s0.6,0.2,0.9,0.2s0.5,0,0.8-0.1s0.4-0.2,0.5-0.4
		s0.2-0.3,0.2-0.5s-0.1-0.3-0.2-0.5s-0.3-0.2-0.5-0.3c-0.2-0.1-0.5-0.2-1-0.3s-0.9-0.2-1.1-0.4c-0.3-0.1-0.5-0.3-0.6-0.5
		s-0.2-0.5-0.2-0.7c0-0.3,0.1-0.6,0.2-0.8s0.4-0.4,0.7-0.6s0.7-0.2,1.1-0.2s0.8,0.1,1.1,0.2s0.6,0.3,0.7,0.6s0.3,0.6,0.3,0.9
		L27.7,73c0-0.4-0.2-0.6-0.4-0.8s-0.6-0.3-1-0.3c-0.5,0-0.8,0.1-1,0.3S25,72.6,25,72.8c0,0.2,0.1,0.4,0.2,0.5s0.5,0.3,1.1,0.4
		s1,0.3,1.3,0.4c0.3,0.2,0.6,0.3,0.7,0.6s0.2,0.5,0.2,0.8s-0.1,0.6-0.3,0.9s-0.4,0.5-0.8,0.6s-0.7,0.2-1.1,0.2c-0.5,0-1-0.1-1.3-0.2
		s-0.6-0.4-0.8-0.7S24,75.7,24,75.3z"/>
	<path class="st2" d="M29.5,72.2v-0.8h0.7v0.8H29.5z M29.5,77.1V73h0.7v4.1H29.5z"/>
	<path class="st2" d="M31.3,77.1v-5.7H32v5.7H31.3z"/>
	<path class="st2" d="M35.9,75.8l0.7,0.1c-0.1,0.4-0.3,0.8-0.6,1s-0.7,0.4-1.2,0.4c-0.6,0-1.1-0.2-1.4-0.6s-0.5-0.9-0.5-1.6
		s0.2-1.2,0.5-1.6s0.8-0.6,1.4-0.6c0.6,0,1,0.2,1.4,0.6s0.5,0.9,0.5,1.6c0,0,0,0.1,0,0.2h-3.1c0,0.5,0.2,0.8,0.4,1s0.5,0.4,0.9,0.4
		c0.3,0,0.5-0.1,0.7-0.2S35.8,76.1,35.9,75.8z M33.6,74.7h2.3c0-0.3-0.1-0.6-0.3-0.8c-0.2-0.3-0.5-0.4-0.9-0.4
		c-0.3,0-0.6,0.1-0.8,0.3S33.6,74.3,33.6,74.7z"/>
	<path class="st2" d="M37.5,77.1V73h0.6v0.6c0.3-0.5,0.7-0.7,1.3-0.7c0.3,0,0.5,0,0.7,0.1s0.4,0.2,0.5,0.4s0.2,0.3,0.2,0.5
		c0,0.1,0,0.4,0,0.7v2.6h-0.7v-2.5c0-0.3,0-0.5-0.1-0.6s-0.2-0.3-0.3-0.3s-0.3-0.1-0.5-0.1c-0.3,0-0.6,0.1-0.8,0.3s-0.3,0.6-0.3,1.1
		v2.3h-0.6V77.1z"/>
	<path class="st2" d="M43.5,76.5l0.1,0.6c-0.2,0-0.4,0.1-0.5,0.1c-0.3,0-0.5,0-0.6-0.1s-0.2-0.2-0.3-0.3s-0.1-0.4-0.1-0.8v-2.4h-0.5
		V73h0.5v-1l0.7-0.4V73h0.7v0.5h-0.7V76c0,0.2,0,0.3,0,0.4s0.1,0.1,0.1,0.1s0.1,0.1,0.2,0.1C43.3,76.5,43.4,76.5,43.5,76.5z"/>
	<path class="st2" d="M46.2,75.3l0.7-0.1c0,0.3,0.1,0.5,0.2,0.7c0.1,0.2,0.3,0.3,0.6,0.4s0.6,0.2,0.9,0.2c0.3,0,0.5,0,0.8-0.1
		c0.2-0.1,0.4-0.2,0.5-0.4c0.1-0.1,0.2-0.3,0.2-0.5S50,75.2,49.9,75c-0.1-0.1-0.3-0.2-0.5-0.3c-0.2-0.1-0.5-0.2-1-0.3
		c-0.5-0.1-0.9-0.2-1.1-0.4c-0.3-0.1-0.5-0.3-0.6-0.5s-0.2-0.5-0.2-0.7c0-0.3,0.1-0.6,0.2-0.8s0.4-0.4,0.7-0.6
		c0.3-0.1,0.7-0.2,1.1-0.2c0.4,0,0.8,0.1,1.1,0.2s0.6,0.3,0.7,0.6c0.2,0.3,0.3,0.6,0.3,0.9L49.9,73c0-0.4-0.2-0.6-0.4-0.8
		c-0.2-0.2-0.6-0.3-1-0.3c-0.5,0-0.8,0.1-1,0.3c-0.2,0.2-0.3,0.4-0.3,0.6s0.1,0.4,0.2,0.5c0.1,0.1,0.5,0.3,1.1,0.4s1,0.3,1.3,0.4
		c0.3,0.2,0.6,0.3,0.7,0.6c0.2,0.2,0.2,0.5,0.2,0.8s-0.1,0.6-0.3,0.9S50,76.9,49.6,77c-0.3,0.1-0.7,0.2-1.1,0.2
		c-0.5,0-1-0.1-1.3-0.2c-0.3-0.2-0.6-0.4-0.8-0.7S46.3,75.7,46.2,75.3z"/>
	<path class="st2" d="M53.3,76.5l0.1,0.6c-0.2,0-0.4,0.1-0.5,0.1c-0.3,0-0.5,0-0.6-0.1S52,76.9,52,76.7c-0.1-0.1-0.1-0.4-0.1-0.8
		v-2.4h-0.5V73h0.5v-1l0.7-0.4V73h0.7v0.5h-0.7V76c0,0.2,0,0.3,0,0.4s0.1,0.1,0.1,0.1c0.1,0,0.1,0.1,0.2,0.1
		C53.1,76.5,53.2,76.5,53.3,76.5z"/>
	<path class="st2" d="M56.7,77.1v-0.6c-0.3,0.5-0.8,0.7-1.3,0.7c-0.2,0-0.5,0-0.7-0.1s-0.4-0.2-0.5-0.4c-0.1-0.1-0.2-0.3-0.2-0.5
		c0-0.1,0-0.4,0-0.7V73h0.7v2.3c0,0.4,0,0.6,0,0.7c0,0.2,0.1,0.3,0.3,0.4c0.1,0.1,0.3,0.2,0.5,0.2s0.4-0.1,0.6-0.2
		c0.2-0.1,0.3-0.3,0.4-0.4c0.1-0.2,0.1-0.5,0.1-0.8V73h0.7v4.1H56.7z"/>
	<path class="st2" d="M61.1,77.1v-0.5c-0.3,0.4-0.6,0.6-1.2,0.6c-0.3,0-0.6-0.1-0.9-0.3s-0.5-0.4-0.6-0.8s-0.2-0.7-0.2-1.1
		s0.1-0.8,0.2-1.1c0.1-0.3,0.3-0.6,0.6-0.8c0.3-0.2,0.6-0.3,0.9-0.3c0.3,0,0.5,0.1,0.7,0.2s0.4,0.2,0.5,0.4v-2.1h0.7V77h-0.7V77.1z
		 M58.9,75.1c0,0.5,0.1,0.9,0.3,1.2c0.2,0.3,0.5,0.4,0.8,0.4s0.6-0.1,0.8-0.4s0.3-0.6,0.3-1.2s-0.1-1-0.3-1.3s-0.5-0.4-0.8-0.4
		s-0.6,0.1-0.8,0.4S58.9,74.5,58.9,75.1z"/>
	<path class="st2" d="M62.8,78.7L62.7,78c0.2,0,0.3,0.1,0.4,0.1c0.2,0,0.3,0,0.4-0.1s0.2-0.1,0.2-0.2s0.1-0.2,0.2-0.5
		c0,0,0-0.1,0.1-0.2L62.5,73h0.8l0.9,2.4c0.1,0.3,0.2,0.6,0.3,1c0.1-0.3,0.2-0.6,0.3-0.9l0.9-2.4h0.7l-1.6,4.2
		c-0.2,0.5-0.3,0.8-0.4,0.9c-0.1,0.2-0.3,0.4-0.4,0.5c-0.2,0.1-0.4,0.2-0.6,0.2C63.2,78.8,63,78.8,62.8,78.7z"/>
</g>
<path class="st2" d="M51.9,61.7c0,0.6-0.4,1-1,1L21.5,49.5V20.4L50.9,7.3c0.6,0,1,0.4,1,1V61.7z"/>
</svg>
