<?xml version="1.0" encoding="utf-8"?>
<!-- Generator: Adobe Illustrator 19.2.1, SVG Export Plug-In . SVG Version: 6.00 Build 0)  -->
<svg version="1.1" id="图层_1" xmlns="http://www.w3.org/2000/svg" xmlns:xlink="http://www.w3.org/1999/xlink" x="0px" y="0px"
	 viewBox="0 0 90 90" style="enable-background:new 0 0 90 90;" xml:space="preserve">
<style type="text/css">
	.st0{fill:#0F3259;}
	.st1{fill:#00325F;}
</style>
<g id="icon">
	<g id="arrow_4_">
		<path class="st0" d="M31.3,24.5c0,0.2-0.2,0.2-0.2,0.2h-0.8c-0.2,0-0.2-0.2-0.2-0.2v-3.7c0-0.2,0.2-0.2,0.2-0.2h0.8
			c0.2,0,0.2,0.2,0.2,0.2V24.5L31.3,24.5z"/>
		<path class="st0" d="M27.4,20l2.9-5c0.2-0.3,0.6-0.3,0.8,0l2.9,5c0.2,0.3-0.1,0.7-0.4,0.7h-5.7C27.4,20.7,27.3,20.3,27.4,20z"/>
	</g>
	<g id="arrow_2_">
		<path class="st0" d="M21.7,20c0,0.2-0.2,0.3-0.3,0.3h-1c-0.2,0-0.3-0.2-0.3-0.3v-4.6c0-0.2,0.2-0.3,0.3-0.3h1
			c0.2,0,0.3,0.2,0.3,0.3V20L21.7,20z"/>
		<path class="st0" d="M24.2,19.6l-2.9,5c-0.2,0.3-0.6,0.3-0.8,0l-2.9-5c-0.2-0.3,0.1-0.7,0.4-0.7h5.7
			C24.2,18.9,24.3,19.3,24.2,19.6z"/>
	</g>
	<g id="people_1_">
		<circle class="st1" cx="31.8" cy="35.3" r="3.5"/>
		<path class="st1" d="M27.6,39.8c0.3-0.5,8-0.6,8.4,0c0.4,0.5-3.4,12.8-4.2,12.8C31.2,52.6,27.4,40.2,27.6,39.8z"/>
	</g>
	<g id="people_3_">
		<circle class="st1" cx="22.1" cy="35.2" r="3.5"/>
		<path class="st1" d="M23.6,46.2c-0.1-0.2-2.9-0.3-3,0c-0.1,0.3,1.2,6.4,1.5,6.4C22.3,52.6,23.6,46.4,23.6,46.2z"/>
		<path class="st1" d="M27.7,48.2c-0.4,0.3-10.6,0.4-11.1,0c-0.5-0.3,4.6-8.7,5.6-8.7C23,39.5,28,47.9,27.7,48.2z"/>
	</g>
</g>
<g>
	<path class="st0" d="M9.4,57.3V14.4h5.7v37.9h21.2v5.1H9.4z"/>
	<path class="st0" d="M42.3,20.5v-6.1h5.3v6.1H42.3z M42.3,57.3V26.2h5.3v31.1H42.3z"/>
	<path class="st0" d="M56.9,57.3v-27h-4.7v-4.1h4.7v-3.3c0-2.1,0.2-3.6,0.6-4.7c0.5-1.4,1.4-2.5,2.7-3.3s3.1-1.3,5.4-1.3
		c1.5,0,3.1,0.2,4.9,0.5l-0.8,4.6c-1.1-0.2-2.1-0.3-3.1-0.3c-1.6,0-2.7,0.3-3.4,1c-0.7,0.7-1,2-1,3.8v2.9h6.1v4.1h-6.1v27H56.9z"/>
	<path class="st0" d="M83.8,52.6l0.8,4.7c-1.5,0.3-2.8,0.5-4,0.5c-1.9,0-3.4-0.3-4.5-0.9c-1.1-0.6-1.8-1.4-2.2-2.4
		c-0.4-1-0.6-3.1-0.6-6.2V30.3h-3.9v-4.1h3.9v-7.7l5.2-3.2v10.9h5.3v4.1h-5.3v18.2c0,1.5,0.1,2.5,0.3,2.9c0.2,0.4,0.5,0.8,0.9,1
		c0.4,0.3,1,0.4,1.8,0.4C82.1,52.8,82.9,52.8,83.8,52.6z"/>
</g>
<g>
	<path class="st0" d="M37.9,77.8v-8.6H39v7.6h4.2v1H37.9z"/>
	<path class="st0" d="M44.5,70.4v-1.2h1.1v1.2H44.5z M44.5,77.8v-6.2h1.1v6.2H44.5z"/>
	<path class="st0" d="M47.4,77.8v-5.4h-0.9v-0.8h0.9v-0.7c0-0.4,0-0.7,0.1-0.9c0.1-0.3,0.3-0.5,0.5-0.7s0.6-0.3,1.1-0.3
		c0.3,0,0.6,0,1,0.1l-0.2,0.9c-0.2,0-0.4-0.1-0.6-0.1c-0.3,0-0.5,0.1-0.7,0.2s-0.2,0.4-0.2,0.8v0.6h1.2v0.8h-1.2v5.4H47.4z"/>
	<path class="st0" d="M52.8,76.9l0.2,0.9c-0.3,0.1-0.6,0.1-0.8,0.1c-0.4,0-0.7-0.1-0.9-0.2s-0.4-0.3-0.4-0.5s-0.1-0.6-0.1-1.2v-3.6
		h-0.8v-0.8h0.8V70l1-0.6v2.2h1.1v0.8h-1.1V76c0,0.3,0,0.5,0.1,0.6s0.1,0.2,0.2,0.2s0.2,0.1,0.4,0.1C52.4,76.9,52.6,76.9,52.8,76.9z
		"/>
</g>
</svg>
