<svg id="图层_1" data-name="图层 1" xmlns="http://www.w3.org/2000/svg" viewBox="0 0 281.41 373.47"><defs><style>.cls-1{fill:#231815;}</style></defs><title>Q</title><path class="cls-1" d="M358.5,3382.25a148.56,148.56,0,0,1-9.38,53.4,125.17,125.17,0,0,1-26.83,42.7l52.57,51.28-41.67,33.89L276,3508.11a158.65,158.65,0,0,1-24.43,6.44,146.78,146.78,0,0,1-26.18,2.29q-58.69,0-95.33-38.18T93.44,3382v-57.16q0-58.25,36.54-96.53T225.21,3190q59.12,0,96.2,38.33T358.5,3325v57.22Zm-63.7-57.66q0-37.16-18.54-61t-51-23.83q-32.51,0-50.39,23.72t-17.89,61.09v57.7q0,37.81,18.11,61.64t50.39,23.82q32.72,0,51-23.82t18.32-61.64v-57.7Z" transform="translate(-93.44 -3190.05)"/></svg>