<?xml version="1.0" encoding="utf-8"?>
<!-- Generator: Adobe Illustrator 19.2.1, SVG Export Plug-In . SVG Version: 6.00 Build 0)  -->
<svg version="1.1" id="图层_1" xmlns="http://www.w3.org/2000/svg" xmlns:xlink="http://www.w3.org/1999/xlink" x="0px" y="0px"
	 viewBox="0 0 500 350" style="enable-background:new 0 0 500 350;" xml:space="preserve">
<style type="text/css">
	.st0{fill:#CBC8B8;}
	.st1{fill:#BCBAAF;}
	.st2{fill:#5E5951;}
	.st3{fill:#E3DACF;}
	.st4{fill:#666666;}
	.st5{fill:#808080;}
	.st6{fill:#999999;}
	.st7{fill:#E6E6E6;}
</style>
<g id="anothertable">
	<g id="chair">
		<g id="char_5_">
			<path class="st0" d="M80.8,164.2c-1.1-0.9-1.8-1.9-1-3l18.7-23.8c0.9-1.1,2-0.7,3.1,0.3c0,0,17.3,13.6,23.1,18.2l-20.9,26.5
				C98.1,177.9,80.8,164.2,80.8,164.2z"/>
			<path class="st1" d="M141.5,163.5c0.7,0.6,0.5,1.9-0.3,3.1l-22.9,29c-0.9,1.1-2.3,1.7-2.8,1.1c0,0-6.3-13.7-9.7-16.4l18-22.8
				C127.1,160.1,141.5,163.5,141.5,163.5z"/>
			<path class="st2" d="M103.6,143c-0.4-0.4-0.5-0.8-0.1-1.2l2.5-3.3c0.4-0.4,0.8-0.5,1.2-0.1l18.9,14.9c0.4,0.4,0.5,0.8,0.1,1.2
				l-2.5,3.3c-0.4,0.4-0.8,0.5-1.2,0.1L103.6,143z"/>
			<path class="st2" d="M82.9,169.2c-0.4-0.4-0.5-0.8-0.1-1.2l2.5-3.3c0.4-0.4,0.8-0.5,1.2-0.1l18.9,15c0.4,0.4,0.5,0.8,0.1,1.2
				l-2.5,3.3c-0.4,0.4-0.8,0.5-1.2,0.1L82.9,169.2z"/>
		</g>
		<g id="char_1_">
			<path class="st0" d="M210.1,269.4c-0.5,1.3-1.2,2.4-2.5,1.9l-28.6-9.7c-1.3-0.5-1.3-1.7-0.7-3c0,0,7.1-20.8,9.4-27.8l32,10.9
				C217.3,248.5,210.1,269.4,210.1,269.4z"/>
			<path class="st1" d="M189.3,212.5c0.3-0.8,1.7-1.1,3-0.7l35,12c1.3,0.5,2.3,1.6,2,2.3c0,0-10.9,10.5-12.2,14.6l-27.5-9.4
				C190.8,227.2,189.3,212.5,189.3,212.5z"/>
			<path class="st2" d="M182.5,255c-0.2,0.5-0.6,0.7-1.1,0.5l-4-1.3c-0.5-0.2-0.7-0.6-0.5-1.1l7.8-22.8c0.2-0.5,0.6-0.7,1.1-0.5
				l4,1.3c0.5,0.2,0.7,0.6,0.5,1.1L182.5,255z"/>
			<path class="st2" d="M214.2,265.8c-0.2,0.5-0.6,0.7-1.1,0.5l-4-1.3c-0.5-0.2-0.7-0.6-0.5-1.1l7.9-22.8c0.2-0.5,0.6-0.7,1.1-0.5
				l4,1.3c0.5,0.2,0.7,0.6,0.5,1.1L214.2,265.8z"/>
		</g>
		<g id="char_4_">
			<path class="st0" d="M141.5,101.6c-0.4-1.5-0.5-2.7,1-3.3l30.5-9.2c1.5-0.4,2.2,0.7,2.5,2.2c0,0,6.8,22.3,8.9,29.6l-34.1,10.3
				C148.2,123.9,141.5,101.6,141.5,101.6z"/>
			<path class="st1" d="M194.4,137.5c0.3,0.9-0.7,2-2.2,2.5l-37.4,11.3c-1.5,0.4-2.9,0-3.2-0.9c0,0,3-15.6,1.5-20.1l29.5-8.9
				C184,125.9,194.4,137.5,194.4,137.5z"/>
			<path class="st2" d="M174,96.9c-0.2-0.5,0.1-1,0.6-1.1l4.1-1.2c0.5-0.2,1,0.1,1.1,0.6l7.4,24.3c0.2,0.5-0.1,1-0.6,1.1l-4.1,1.2
				c-0.5,0.2-1-0.1-1.1-0.6L174,96.9z"/>
			<path class="st2" d="M140.3,107.1c-0.2-0.5,0.1-1,0.6-1.1l4.1-1.2c0.5-0.2,1,0.1,1.1,0.6l7.4,24.3c0.2,0.5-0.1,1-0.6,1.1
				l-4.1,1.2c-0.5,0.2-1-0.1-1.1-0.6L140.3,107.1z"/>
		</g>
		<g id="char_3_">
			<path class="st0" d="M313.3,90.5c0.4-1.4,1.1-2.5,2.5-2.2l29.9,8.7c1.5,0.4,1.4,1.7,0.9,3.1c0,0-6.4,21.8-8.5,29l-33.4-9.7
				C306.9,112.3,313.3,90.5,313.3,90.5z"/>
			<path class="st1" d="M337.5,148c-0.2,0.9-1.6,1.2-3,0.8L298,138.2c-1.4-0.4-2.4-1.5-2.2-2.4c0,0,10.7-11.3,11.9-15.5l28.8,8.4
				C335.1,133,337.5,148,337.5,148z"/>
			<path class="st2" d="M342.4,104c0.1-0.5,0.6-0.8,1.1-0.6l4.1,1.2c0.5,0.1,0.8,0.6,0.6,1.1l-6.9,23.8c-0.1,0.5-0.6,0.8-1.1,0.6
				l-4.1-1.2c-0.5-0.1-0.8-0.6-0.6-1.1L342.4,104z"/>
			<path class="st2" d="M309.3,94.4c0.1-0.5,0.6-0.8,1.1-0.6l4.1,1.2c0.5,0.1,0.8,0.6,0.6,1.1l-6.9,23.8c-0.1,0.5-0.6,0.8-1.1,0.6
				l-4.1-1.1c-0.5-0.1-0.8-0.6-0.6-1.1L309.3,94.4z"/>
		</g>
	</g>
	<path class="st3" d="M255.5,70C149.5,70,70,115.2,70,179c0,49.5,80.2,94.9,180,107.4V350C112.9,350,0,264.7,0,179
		C0,85.4,112.9,0,250,0c145.7,0,251,79.6,250,137.9h-70C430,137.9,378,70,255.5,70z"/>
	<g id="desktop_6_">
		<g id="desktop_5_">
			<g id="monitor_6_">
				<path d="M135.5,60.9c-0.1-0.3,0-0.6,0.3-0.7l14.2-5.3c0.3-0.1,0.6,0,0.7,0.3l0.9,2.3c0.1,0.3,0,0.6-0.3,0.7l-14.2,5.3
					c-0.3,0.1-0.6,0-0.7-0.3L135.5,60.9z"/>
				<path class="st4" d="M114.4,65.2c-0.4-0.8,2.1-2.7,3.7-3.4l46-18.1c1.4-0.5,4.9-0.8,5.3,0.1l1.2,2.9c0.4,0.8-0.6,2.2-2,2.8
					l-49.9,19.5c-1.4,0.5-2.6-0.1-3-0.9L114.4,65.2z"/>
			</g>
			<g id="keyboard_5_">
				<path class="st5" d="M174.1,68.7c0.4,1.1,0.4,2.8-0.3,3.1L130,89c-0.8,0.4-2.1-0.9-2.6-2l-3.9-10c-0.4-1.1,0.1-1.9,0.9-2.3
					l43.8-17.2c0.8-0.4,1.6,0,1.9,1.1L174.1,68.7L174.1,68.7z"/>
				<path class="st6" d="M173.8,67.8c0.4,1,0.5,2.6-0.3,3l-44,17.2c-0.8,0.4-2.1-0.8-2.5-1.9l-3.6-9.3c-0.4-1,0.2-1.9,1-2.1l44-17.2
					c0.8-0.4,1.4,0,1.7,1L173.8,67.8z"/>
				<g id="key_5_">
					<g id="line1_6_">
						<path class="st7" d="M167.3,61c0.1,0.3,0,0.6-0.3,0.7l-4.8,1.8c-0.3,0.1-0.6,0-0.7-0.3l-0.5-1.2c-0.1-0.3,0-0.6,0.3-0.7
							l4.8-1.8c0.3-0.1,0.6,0,0.7,0.3L167.3,61z"/>
						<path class="st7" d="M136.4,73.1c0.1,0.3,0,0.6-0.3,0.7l-1.2,0.5c-0.3,0.1-0.6,0-0.7-0.3l-0.5-1.2c-0.1-0.3,0-0.6,0.3-0.7
							l1.2-0.5c0.3-0.1,0.6,0,0.7,0.3L136.4,73.1z"/>
						<path class="st7" d="M139.4,71.9c0.1,0.3,0,0.6-0.3,0.7l-1.2,0.5c-0.3,0.1-0.6,0-0.7-0.3l-0.5-1.2c-0.1-0.3,0-0.6,0.3-0.7
							l1.2-0.5c0.3-0.1,0.6,0,0.7,0.3L139.4,71.9z"/>
						<path class="st7" d="M142.4,70.6c0.1,0.3,0,0.6-0.3,0.7l-1.2,0.5c-0.3,0.1-0.6,0-0.7-0.3l-0.5-1.2c-0.1-0.3,0-0.6,0.3-0.7
							l1.2-0.5c0.3-0.1,0.6,0,0.7,0.3L142.4,70.6z"/>
						<path class="st7" d="M145.7,69.4c0.1,0.3,0,0.6-0.3,0.7l-1.2,0.5c-0.3,0.1-0.6,0-0.7-0.3l-0.5-1.2c-0.1-0.3,0-0.6,0.3-0.7
							l1.2-0.5c0.3-0.1,0.6,0,0.7,0.3L145.7,69.4z"/>
						<path class="st7" d="M148.6,68.3c0.1,0.3,0,0.6-0.3,0.7l-1.2,0.5c-0.3,0.1-0.6,0-0.7-0.3l-0.5-1.2c-0.1-0.3,0-0.6,0.3-0.7
							l1.2-0.5c0.3-0.1,0.6,0,0.7,0.3L148.6,68.3z"/>
						<path class="st7" d="M151.6,67.1c0.1,0.3,0,0.6-0.3,0.7l-1.2,0.5c-0.3,0.1-0.6,0-0.7-0.3l-0.5-1.2c-0.1-0.3,0-0.6,0.3-0.7
							l1.2-0.5c0.3-0.1,0.6,0,0.7,0.3L151.6,67.1z"/>
						<path class="st7" d="M154.7,65.9c0.1,0.3,0,0.6-0.3,0.7l-1.2,0.5c-0.3,0.1-0.6,0-0.7-0.3l-0.5-1.2c-0.1-0.3,0-0.6,0.3-0.7
							l1.2-0.5c0.3-0.1,0.6,0,0.7,0.3L154.7,65.9z"/>
						<path class="st7" d="M157.9,64.6c0.1,0.3,0,0.6-0.3,0.7l-1.2,0.5c-0.3,0.1-0.6,0-0.7-0.3l-0.5-1.2c-0.1-0.3,0-0.6,0.3-0.7
							l1.2-0.5c0.3-0.1,0.6,0,0.7,0.3L157.9,64.6z"/>
						<path class="st7" d="M160.8,63.5c0.1,0.3,0,0.6-0.3,0.7l-1.2,0.5c-0.3,0.1-0.6,0-0.7-0.3l-0.5-1.2c-0.1-0.3,0-0.6,0.3-0.7
							l1.2-0.5c0.3-0.1,0.6,0,0.7,0.3L160.8,63.5z"/>
						<path class="st7" d="M133.5,74.1c0.1,0.3,0,0.6-0.3,0.7l-4.8,1.8c-0.3,0.1-0.6,0-0.7-0.3l-0.5-1.2c-0.1-0.3,0-0.6,0.3-0.7
							l4.8-1.8c0.3-0.1,0.6,0,0.7,0.3L133.5,74.1z"/>
					</g>
					<g id="line2_5_">
						<path class="st7" d="M133.7,77.9c0.1,0.3,0,0.6-0.3,0.7l-1.2,0.5c-0.3,0.1-0.6,0-0.7-0.3l-0.5-1.2c-0.1-0.3,0-0.6,0.3-0.7
							l1.2-0.5c0.3-0.1,0.6,0,0.7,0.3L133.7,77.9z"/>
						<path class="st7" d="M136.6,76.8c0.1,0.3,0,0.6-0.3,0.7l-1.2,0.5c-0.3,0.1-0.6,0-0.7-0.3l-0.5-1.2c-0.1-0.3,0-0.6,0.3-0.7
							l1.2-0.5c0.3-0.1,0.6,0,0.7,0.3L136.6,76.8z"/>
						<path class="st7" d="M139.5,75.6c0.1,0.3,0,0.6-0.3,0.7l-1.2,0.5c-0.3,0.1-0.6,0-0.7-0.3l-0.5-1.2c-0.1-0.3,0-0.6,0.3-0.7
							l1.2-0.5c0.3-0.1,0.6,0,0.7,0.3L139.5,75.6z"/>
						<path class="st7" d="M142.6,74.3c0.1,0.3,0,0.6-0.3,0.7l-1.2,0.5c-0.3,0.1-0.6,0-0.7-0.3l-0.5-1.2c-0.1-0.3,0-0.6,0.3-0.7
							l1.2-0.5c0.3-0.1,0.6,0,0.7,0.3L142.6,74.3z"/>
						<path class="st7" d="M145.6,73.3c0.1,0.3,0,0.6-0.3,0.7l-1.2,0.5c-0.3,0.1-0.6,0-0.7-0.3l-0.5-1.2c-0.1-0.3,0-0.6,0.3-0.7
							l1.2-0.5c0.3-0.1,0.6,0,0.7,0.3L145.6,73.3z"/>
						<path class="st7" d="M148.9,71.9c0.1,0.3,0,0.6-0.3,0.7l-1.2,0.5c-0.3,0.1-0.6,0-0.7-0.3l-0.5-1.2c-0.1-0.3,0-0.6,0.3-0.7
							l1.2-0.5c0.3-0.1,0.6,0,0.7,0.3L148.9,71.9z"/>
						<path class="st7" d="M151.8,70.8c0.1,0.3,0,0.6-0.3,0.7l-1.2,0.5c-0.3,0.1-0.6,0-0.7-0.3l-0.5-1.2c-0.1-0.3,0-0.6,0.3-0.7
							l1.2-0.5c0.3-0.1,0.6,0,0.7,0.3L151.8,70.8z"/>
						<path class="st7" d="M154.9,69.6c0.1,0.3,0,0.6-0.3,0.7l-1.2,0.5c-0.3,0.1-0.6,0-0.7-0.3l-0.5-1.2c-0.1-0.3,0-0.6,0.3-0.7
							l1.2-0.5c0.3-0.1,0.6,0,0.7,0.3L154.9,69.6z"/>
						<path class="st7" d="M158.1,68.4c0.1,0.3,0,0.6-0.3,0.7l-1.2,0.5c-0.3,0.1-0.6,0-0.7-0.3l-0.6-1.3c-0.1-0.3,0-0.6,0.3-0.7
							l1.2-0.5c0.3-0.1,0.6,0,0.7,0.3L158.1,68.4z"/>
						<path class="st7" d="M161,67.2c0.1,0.3,0,0.6-0.3,0.7l-1.2,0.5c-0.3,0.1-0.6,0-0.7-0.3l-0.5-1.2c-0.1-0.3,0-0.6,0.3-0.7
							l1.2-0.5c0.3-0.1,0.6,0,0.7,0.3L161,67.2z"/>
						<path class="st7" d="M164.4,65.8c0.1,0.3,0,0.6-0.3,0.7l-1.2,0.5c-0.3,0.1-0.6,0-0.7-0.3l-0.5-1.2c-0.1-0.3,0-0.6,0.3-0.7
							l1.2-0.5c0.3-0.1,0.6,0,0.7,0.3L164.4,65.8z"/>
						<path class="st7" d="M167.3,64.8c0.1,0.3,0,0.6-0.3,0.7l-1.2,0.5c-0.3,0.1-0.6,0-0.7-0.3l-0.5-1.2c-0.1-0.3,0-0.6,0.3-0.7
							l1.2-0.5c0.3-0.1,0.6,0,0.7,0.3L167.3,64.8z"/>
					</g>
					<g id="line3_6_">
						<path class="st7" d="M169.8,67.3c0.1,0.3,0,0.6-0.3,0.7l-4.8,1.8c-0.3,0.1-0.6,0-0.7-0.3l-0.5-1.2c-0.1-0.3,0-0.6,0.3-0.7
							l4.8-1.8c0.3-0.1,0.6,0,0.7,0.3L169.8,67.3z"/>
						<path class="st7" d="M139,79.4c0.1,0.3,0,0.6-0.3,0.7l-1.2,0.5c-0.3,0.1-0.6,0-0.7-0.3l-0.5-1.2c-0.1-0.3,0-0.6,0.3-0.7
							l1.2-0.5c0.3-0.1,0.6,0,0.7,0.3L139,79.4z"/>
						<path class="st7" d="M141.9,78.3c0.1,0.3,0,0.6-0.3,0.7l-1.2,0.5c-0.3,0.1-0.6,0-0.7-0.3l-0.5-1.2c-0.1-0.3,0-0.6,0.3-0.7
							l1.2-0.5c0.3-0.1,0.6,0,0.7,0.3L141.9,78.3z"/>
						<path class="st7" d="M144.9,77c0.1,0.3,0,0.6-0.3,0.7l-1.2,0.5c-0.3,0.1-0.6,0-0.7-0.3l-0.5-1.2c-0.1-0.3,0-0.6,0.3-0.7
							l1.2-0.5c0.3-0.1,0.6,0,0.7,0.3L144.9,77z"/>
						<path class="st7" d="M148,75.8c0.1,0.3,0,0.6-0.3,0.7l-1.2,0.5c-0.3,0.1-0.6,0-0.7-0.3l-0.5-1.2c-0.1-0.3,0-0.6,0.3-0.7
							l1.2-0.5c0.3-0.1,0.6,0,0.7,0.3L148,75.8z"/>
						<path class="st7" d="M151,74.7c0.1,0.3,0,0.6-0.3,0.7l-1.2,0.5c-0.3,0.1-0.6,0-0.7-0.3l-0.5-1.2c-0.1-0.3,0-0.6,0.3-0.7
							l1.2-0.5c0.3-0.1,0.6,0,0.7,0.3L151,74.7z"/>
						<path class="st7" d="M154.2,73.4c0.1,0.3,0,0.6-0.3,0.7l-1.2,0.5c-0.3,0.1-0.6,0-0.7-0.3l-0.5-1.2c-0.1-0.3,0-0.6,0.3-0.7
							l1.2-0.5c0.3-0.1,0.6,0,0.7,0.3L154.2,73.4z"/>
						<path class="st7" d="M157.1,72.2c0.1,0.3,0,0.6-0.3,0.7l-1.2,0.5c-0.3,0.1-0.6,0-0.7-0.3l-0.5-1.2c-0.1-0.3,0-0.6,0.3-0.7
							l1.2-0.5c0.3-0.1,0.6,0,0.7,0.3L157.1,72.2z"/>
						<path class="st7" d="M160.3,71c0.1,0.3,0,0.6-0.3,0.7l-1.2,0.5c-0.3,0.1-0.6,0-0.7-0.3l-0.5-1.2c-0.1-0.3,0-0.6,0.3-0.7
							l1.2-0.5c0.3-0.1,0.6,0,0.7,0.3L160.3,71z"/>
						<path class="st7" d="M163.3,69.8c0.1,0.3,0,0.6-0.3,0.7l-1.2,0.5c-0.3,0.1-0.6,0-0.7-0.3l-0.5-1.2c-0.1-0.3,0-0.6,0.3-0.7
							l1.2-0.5c0.3-0.1,0.6,0,0.7,0.3L163.3,69.8z"/>
						<path class="st7" d="M135.9,80.6c0.1,0.3,0,0.6-0.3,0.7l-4.8,1.8c-0.3,0.1-0.6,0-0.7-0.3l-0.5-1.2c-0.1-0.3,0-0.6,0.3-0.7
							l4.8-1.8c0.3-0.1,0.6,0,0.7,0.3L135.9,80.6z"/>
					</g>
					<g id="line4_5_">
						<path class="st7" d="M136.2,84c0.1,0.3,0,0.6-0.3,0.7l-1.2,0.5c-0.3,0.1-0.6,0-0.7-0.3l-0.5-1.2c-0.1-0.3,0-0.6,0.3-0.7
							l1.2-0.5c0.3-0.1,0.6,0,0.7,0.3L136.2,84z"/>
						<path class="st7" d="M139.3,82.9c0.1,0.3,0,0.6-0.3,0.7l-1.2,0.5c-0.3,0.1-0.6,0-0.7-0.3l-0.5-1.2c-0.1-0.3,0-0.6,0.3-0.7
							l1.2-0.5c0.3-0.1,0.6,0,0.7,0.3L139.3,82.9z"/>
						<path class="st7" d="M142.2,81.8c0.1,0.3,0,0.6-0.3,0.7l-1.2,0.5c-0.3,0.1-0.6,0-0.8-0.4l-0.5-1.2c-0.1-0.3,0-0.6,0.3-0.7
							l1.2-0.5c0.3-0.1,0.6,0,0.7,0.3L142.2,81.8z"/>
						<path class="st7" d="M163.3,73.5c0.1,0.3,0,0.6-0.3,0.7l-1.2,0.5c-0.3,0.1-0.6,0-0.7-0.3l-0.5-1.2c-0.1-0.3,0-0.6,0.3-0.7
							l1.2-0.5c0.3-0.1,0.6,0,0.7,0.3L163.3,73.5z"/>
						<path class="st7" d="M166.6,72.3c0.1,0.3,0,0.6-0.3,0.7l-1.2,0.5c-0.3,0.1-0.6,0-0.7-0.3l-0.5-1.2c-0.1-0.3,0-0.6,0.3-0.7
							l1.2-0.5c0.3-0.1,0.6,0,0.7,0.3L166.6,72.3z"/>
						<path class="st7" d="M169.6,71c0.1,0.3,0,0.6-0.3,0.7l-1.2,0.5c-0.3,0.1-0.6,0-0.7-0.3l-0.5-1.2c-0.1-0.3,0-0.6,0.3-0.7
							l1.2-0.5c0.3-0.1,0.6,0,0.7,0.3L169.6,71z"/>
						<path class="st7" d="M160.2,74.5c0.1,0.4,0,0.8-0.3,1l-16.3,6.4c-0.3,0.1-0.6-0.1-0.8-0.6l-0.4-1c-0.1-0.4-0.1-0.7,0.3-0.9
							l16.3-6.4c0.3-0.1,0.7,0,0.8,0.5L160.2,74.5L160.2,74.5z"/>
					</g>
				</g>
			</g>
		</g>
		<g id="desktop_1_">
			<g id="monitor_1_">
				<path d="M195,305.5c-0.1,0.4-0.3,0.5-0.7,0.5l-14.9-3c-0.4-0.1-0.5-0.3-0.5-0.7l0.5-2.4c0.1-0.4,0.3-0.5,0.7-0.5l14.9,3
					c0.4,0.1,0.5,0.3,0.5,0.7L195,305.5z"/>
				<path class="st4" d="M215.1,313c-0.1,0.9-3.3,1.2-4.9,0.9l-48.6-9c-1.5-0.3-4.6-1.9-4.4-2.9l0.5-3.1c0.1-0.9,1.7-1.6,3.2-1.3
					l52.6,9.9c1.5,0.3,2.2,1.5,2.1,2.3L215.1,313z"/>
			</g>
			<g id="keyboard_1_">
				<path class="st5" d="M166.4,278.4c0.2-1.1,1.2-2.6,1.9-2.5l46.3,8.7c0.9,0.1,1.3,1.9,1.1,3.1l-2,10.6c-0.2,1.1-1.1,1.6-2,1.4
					l-46.3-8.7c-0.9-0.1-1.4-0.9-1.1-1.9L166.4,278.4L166.4,278.4z"/>
				<path class="st6" d="M166.2,279.3c0.2-1.1,1-2.5,1.8-2.4l46.4,8.7c0.9,0.1,1.3,1.8,1.1,2.9l-1.9,9.8c-0.2,1.1-1.1,1.5-2,1.3
					l-46.4-8.7c-0.9-0.1-1.2-0.7-0.9-1.8L166.2,279.3z"/>
				<g id="key_1_">
					<g id="line1_1_">
						<path class="st7" d="M168.1,288.5c0.1-0.4,0.3-0.5,0.7-0.5l5.1,1c0.4,0.1,0.5,0.3,0.5,0.7l-0.2,1.3c-0.1,0.4-0.3,0.5-0.7,0.5
							l-5.1-1c-0.4-0.1-0.5-0.3-0.5-0.7L168.1,288.5z"/>
						<path class="st7" d="M200.7,294.6c0.1-0.4,0.3-0.5,0.7-0.5l1.3,0.2c0.4,0.1,0.5,0.3,0.5,0.7l-0.2,1.3
							c-0.1,0.4-0.3,0.5-0.7,0.5l-1.3-0.2c-0.4-0.1-0.5-0.3-0.5-0.7L200.7,294.6z"/>
						<path class="st7" d="M197.5,294c0.1-0.4,0.3-0.5,0.7-0.5l1.3,0.2c0.4,0.1,0.5,0.3,0.5,0.7l-0.2,1.3c-0.1,0.4-0.3,0.5-0.7,0.5
							l-1.3-0.2c-0.4-0.1-0.5-0.3-0.5-0.7L197.5,294z"/>
						<path class="st7" d="M194.3,293.5c0.1-0.4,0.3-0.5,0.7-0.5l1.3,0.2c0.4,0.1,0.5,0.3,0.5,0.7l-0.2,1.3
							c-0.1,0.4-0.3,0.5-0.7,0.5l-1.3-0.2c-0.4-0.1-0.5-0.3-0.5-0.7L194.3,293.5z"/>
						<path class="st7" d="M190.9,292.8c0.1-0.4,0.3-0.5,0.7-0.5l1.3,0.2c0.4,0.1,0.5,0.3,0.5,0.7l-0.2,1.3
							c-0.1,0.4-0.3,0.5-0.7,0.5l-1.3-0.2c-0.4-0.1-0.5-0.3-0.5-0.7L190.9,292.8z"/>
						<path class="st7" d="M187.8,292.2c0.1-0.4,0.3-0.5,0.7-0.5l1.3,0.2c0.4,0.1,0.5,0.3,0.5,0.7L190,294c-0.1,0.4-0.3,0.5-0.7,0.5
							l-1.3-0.2c-0.4-0.1-0.5-0.3-0.5-0.7L187.8,292.2z"/>
						<path class="st7" d="M184.6,291.7c0.1-0.4,0.3-0.5,0.7-0.5l1.3,0.2c0.4,0.1,0.5,0.3,0.5,0.7l-0.2,1.3
							c-0.1,0.4-0.3,0.5-0.7,0.5l-1.3-0.2c-0.4-0.1-0.5-0.3-0.5-0.7L184.6,291.7z"/>
						<path class="st7" d="M181.4,291c0.1-0.4,0.3-0.5,0.7-0.5l1.3,0.2c0.4,0.1,0.5,0.3,0.5,0.7l-0.2,1.3c-0.1,0.4-0.3,0.5-0.7,0.5
							l-1.3-0.2c-0.4-0.1-0.5-0.3-0.5-0.7L181.4,291z"/>
						<path class="st7" d="M178,290.4c0.1-0.4,0.3-0.5,0.7-0.5l1.3,0.2c0.4,0.1,0.5,0.3,0.5,0.7l-0.2,1.3c-0.1,0.4-0.3,0.5-0.7,0.5
							l-1.3-0.2c-0.4-0.1-0.5-0.3-0.5-0.7L178,290.4z"/>
						<path class="st7" d="M174.9,289.8c0.1-0.4,0.3-0.5,0.7-0.5l1.3,0.2c0.4,0.1,0.5,0.3,0.5,0.7l-0.2,1.3
							c-0.1,0.4-0.3,0.5-0.7,0.5l-1.3-0.2c-0.4-0.1-0.5-0.3-0.5-0.7L174.9,289.8z"/>
						<path class="st7" d="M203.7,295.3c0.1-0.4,0.3-0.5,0.7-0.5l5.1,1c0.4,0.1,0.5,0.3,0.5,0.7l-0.2,1.3c-0.1,0.4-0.3,0.5-0.7,0.5
							l-5.1-1c-0.4-0.1-0.5-0.3-0.5-0.7L203.7,295.3z"/>
					</g>
					<g id="line2_1_">
						<path class="st7" d="M205.6,291.9c0.1-0.4,0.3-0.5,0.7-0.5l1.3,0.2c0.4,0.1,0.5,0.3,0.5,0.7l-0.2,1.3
							c-0.1,0.4-0.3,0.5-0.7,0.5l-1.3-0.2c-0.4-0.1-0.5-0.3-0.5-0.7L205.6,291.9z"/>
						<path class="st7" d="M202.5,291.4c0.1-0.4,0.3-0.5,0.7-0.5l1.3,0.2c0.4,0.1,0.5,0.3,0.5,0.7l-0.2,1.3
							c-0.1,0.4-0.3,0.5-0.7,0.5l-1.3-0.2c-0.4-0.1-0.5-0.3-0.5-0.7L202.5,291.4z"/>
						<path class="st7" d="M199.4,290.8c0.1-0.4,0.3-0.5,0.7-0.5l1.3,0.2c0.4,0.1,0.5,0.3,0.5,0.7l-0.2,1.3
							c-0.1,0.4-0.3,0.5-0.7,0.5l-1.3-0.2c-0.4-0.1-0.5-0.3-0.5-0.7L199.4,290.8z"/>
						<path class="st7" d="M196.1,290.3c0.1-0.4,0.3-0.5,0.7-0.5l1.3,0.2c0.4,0.1,0.5,0.3,0.5,0.7l-0.2,1.3
							c-0.1,0.4-0.3,0.5-0.7,0.5l-1.3-0.2c-0.4-0.1-0.5-0.3-0.5-0.7L196.1,290.3z"/>
						<path class="st7" d="M193,289.6c0.1-0.4,0.3-0.5,0.7-0.5l1.3,0.2c0.4,0.1,0.5,0.3,0.5,0.7l-0.2,1.3c-0.1,0.4-0.3,0.5-0.7,0.5
							l-1.3-0.2c-0.4-0.1-0.5-0.3-0.5-0.7L193,289.6z"/>
						<path class="st7" d="M189.5,289.1c0.1-0.4,0.3-0.5,0.7-0.5l1.3,0.2c0.4,0.1,0.5,0.3,0.5,0.7l-0.2,1.3
							c-0.1,0.4-0.3,0.5-0.7,0.5l-1.3-0.2c-0.4-0.1-0.5-0.3-0.5-0.7L189.5,289.1z"/>
						<path class="st7" d="M186.4,288.4c0.1-0.4,0.3-0.5,0.7-0.5l1.3,0.2c0.4,0.1,0.5,0.3,0.5,0.7l-0.2,1.3
							c-0.1,0.4-0.3,0.5-0.7,0.5l-1.3-0.2c-0.4-0.1-0.5-0.3-0.5-0.7L186.4,288.4z"/>
						<path class="st7" d="M183.2,287.7c0.1-0.4,0.3-0.5,0.7-0.5l1.3,0.2c0.4,0.1,0.5,0.3,0.5,0.7l-0.2,1.3
							c-0.1,0.4-0.3,0.5-0.7,0.5l-1.3-0.2c-0.4-0.1-0.5-0.3-0.5-0.7L183.2,287.7z"/>
						<path class="st7" d="M179.8,287.1c0.1-0.4,0.3-0.5,0.7-0.5l1.3,0.2c0.4,0.1,0.5,0.3,0.5,0.7L182,289c-0.1,0.4-0.3,0.5-0.7,0.5
							l-1.3-0.2c-0.4-0.1-0.5-0.3-0.5-0.7L179.8,287.1z"/>
						<path class="st7" d="M176.7,286.5c0.1-0.4,0.3-0.5,0.7-0.5l1.3,0.2c0.4,0.1,0.5,0.3,0.5,0.7l-0.2,1.3
							c-0.1,0.4-0.3,0.5-0.7,0.5l-1.3-0.2c-0.4-0.1-0.5-0.3-0.5-0.7L176.7,286.5z"/>
						<path class="st7" d="M173.2,286c0.1-0.4,0.3-0.5,0.7-0.5l1.3,0.2c0.4,0.1,0.5,0.3,0.5,0.7l-0.2,1.3c-0.1,0.4-0.3,0.5-0.7,0.5
							l-1.3-0.2c-0.4-0.1-0.5-0.3-0.5-0.7L173.2,286z"/>
						<path class="st7" d="M170.1,285.3c0.1-0.4,0.3-0.5,0.7-0.5l1.3,0.2c0.4,0.1,0.5,0.3,0.5,0.7l-0.2,1.3
							c-0.1,0.4-0.3,0.5-0.7,0.5l-1.3-0.2c-0.4-0.1-0.5-0.3-0.5-0.7L170.1,285.3z"/>
					</g>
					<g id="line3_1_">
						<path class="st7" d="M169.3,281.9c0.1-0.4,0.3-0.5,0.7-0.5l5.1,1c0.4,0.1,0.5,0.3,0.5,0.7l-0.2,1.3c-0.1,0.4-0.3,0.5-0.7,0.5
							l-5.1-1c-0.4-0.1-0.5-0.3-0.5-0.7L169.3,281.9z"/>
						<path class="st7" d="M201.8,287.9c0.1-0.4,0.3-0.5,0.7-0.5l1.3,0.2c0.4,0.1,0.5,0.3,0.5,0.7l-0.2,1.3
							c-0.1,0.4-0.3,0.5-0.7,0.5l-1.3-0.2c-0.4-0.1-0.5-0.3-0.5-0.7L201.8,287.9z"/>
						<path class="st7" d="M198.8,287.3c0.1-0.4,0.3-0.5,0.7-0.5l1.3,0.2c0.4,0.1,0.5,0.3,0.5,0.7l-0.2,1.3
							c-0.1,0.4-0.3,0.5-0.7,0.5l-1.3-0.2c-0.4-0.1-0.5-0.3-0.5-0.7L198.8,287.3z"/>
						<path class="st7" d="M195.5,286.8c0.1-0.4,0.3-0.5,0.7-0.5l1.3,0.2c0.4,0.1,0.5,0.3,0.5,0.7l-0.2,1.3
							c-0.1,0.4-0.3,0.5-0.7,0.5l-1.3-0.2c-0.4-0.1-0.5-0.3-0.5-0.7L195.5,286.8z"/>
						<path class="st7" d="M192.3,286.2c0.1-0.4,0.3-0.5,0.7-0.5l1.3,0.2c0.4,0.1,0.5,0.3,0.5,0.7l-0.2,1.3
							c-0.1,0.4-0.3,0.5-0.7,0.5l-1.3-0.2c-0.4-0.1-0.5-0.3-0.5-0.7L192.3,286.2z"/>
						<path class="st7" d="M189.2,285.5c0.1-0.4,0.3-0.5,0.7-0.5l1.3,0.2c0.4,0.1,0.5,0.3,0.5,0.7l-0.2,1.3
							c-0.1,0.4-0.3,0.5-0.7,0.5l-1.3-0.2c-0.4-0.1-0.5-0.3-0.5-0.7L189.2,285.5z"/>
						<path class="st7" d="M185.8,285c0.1-0.4,0.3-0.5,0.7-0.5l1.3,0.2c0.4,0.1,0.5,0.3,0.5,0.7l-0.2,1.3c-0.1,0.4-0.3,0.5-0.7,0.5
							l-1.3-0.2c-0.4-0.1-0.5-0.3-0.5-0.7L185.8,285z"/>
						<path class="st7" d="M182.6,284.4c0.1-0.4,0.3-0.5,0.7-0.5l1.3,0.2c0.4,0.1,0.5,0.3,0.5,0.7l-0.2,1.3
							c-0.1,0.4-0.3,0.5-0.7,0.5l-1.3-0.2c-0.4-0.1-0.5-0.3-0.5-0.7L182.6,284.4z"/>
						<path class="st7" d="M179.3,283.7c0.1-0.4,0.3-0.5,0.7-0.5l1.3,0.2c0.4,0.1,0.5,0.3,0.5,0.7l-0.2,1.3
							c-0.1,0.4-0.3,0.5-0.7,0.5l-1.3-0.2c-0.4-0.1-0.5-0.3-0.5-0.7L179.3,283.7z"/>
						<path class="st7" d="M176.2,283.1c0.1-0.4,0.3-0.5,0.7-0.5l1.3,0.2c0.4,0.1,0.5,0.3,0.5,0.7l-0.2,1.3
							c-0.1,0.4-0.3,0.5-0.7,0.5l-1.3-0.2c-0.4-0.1-0.5-0.3-0.5-0.7L176.2,283.1z"/>
						<path class="st7" d="M205.1,288.5c0.1-0.4,0.3-0.5,0.7-0.5l5.1,1c0.4,0.1,0.5,0.3,0.5,0.7l-0.2,1.3c-0.1,0.4-0.3,0.5-0.7,0.5
							l-5.1-1c-0.4-0.1-0.5-0.3-0.5-0.7L205.1,288.5z"/>
					</g>
					<g id="line4_1_">
						<path class="st7" d="M206.7,285.5c0.1-0.4,0.3-0.5,0.7-0.5l1.3,0.2c0.4,0.1,0.5,0.3,0.5,0.7l-0.2,1.3
							c-0.1,0.4-0.3,0.5-0.7,0.5l-1.3-0.2c-0.4-0.1-0.5-0.3-0.5-0.7L206.7,285.5z"/>
						<path class="st7" d="M203.5,284.8c0.1-0.4,0.3-0.5,0.7-0.5l1.3,0.2c0.4,0.1,0.5,0.3,0.5,0.7l-0.2,1.3
							c-0.1,0.4-0.3,0.5-0.7,0.5l-1.3-0.2c-0.4-0.1-0.5-0.3-0.5-0.7L203.5,284.8z"/>
						<path class="st7" d="M200.4,284.2c0.1-0.4,0.3-0.5,0.7-0.5l1.3,0.2c0.4,0.1,0.5,0.3,0.5,0.8l-0.2,1.3
							c-0.1,0.4-0.3,0.5-0.7,0.5l-1.3-0.2c-0.4-0.1-0.5-0.3-0.5-0.7L200.4,284.2z"/>
						<path class="st7" d="M178.1,280c0.1-0.4,0.3-0.5,0.7-0.5l1.3,0.2c0.4,0.1,0.5,0.3,0.5,0.7l-0.2,1.3c-0.1,0.4-0.3,0.5-0.7,0.5
							l-1.3-0.2c-0.4-0.1-0.5-0.3-0.5-0.7L178.1,280z"/>
						<path class="st7" d="M174.7,279.3c0.1-0.4,0.3-0.5,0.7-0.5l1.3,0.2c0.4,0.1,0.5,0.3,0.5,0.7l-0.2,1.3
							c-0.1,0.4-0.3,0.5-0.7,0.5l-1.3-0.2c-0.4-0.1-0.5-0.3-0.5-0.7L174.7,279.3z"/>
						<path class="st7" d="M171.4,278.8c0.1-0.4,0.3-0.5,0.7-0.5l1.3,0.2c0.4,0.1,0.5,0.3,0.5,0.7l-0.2,1.3
							c-0.1,0.4-0.3,0.5-0.7,0.5l-1.3-0.2c-0.4-0.1-0.5-0.3-0.5-0.7L171.4,278.8z"/>
						<path class="st7" d="M181.3,280.8c0.1-0.4,0.4-0.7,0.8-0.7l17.2,3.2c0.4,0.1,0.4,0.4,0.4,0.9l-0.2,1.1
							c-0.1,0.4-0.3,0.7-0.7,0.6l-17.2-3.2c-0.4-0.1-0.6-0.4-0.5-0.8L181.3,280.8L181.3,280.8z"/>
					</g>
				</g>
			</g>
		</g>
	</g>
</g>
</svg>
