<?xml version="1.0" encoding="utf-8"?>
<!-- Generator: Adobe Illustrator 19.2.1, SVG Export Plug-In . SVG Version: 6.00 Build 0)  -->
<svg version="1.1" id="图层_1" xmlns="http://www.w3.org/2000/svg" xmlns:xlink="http://www.w3.org/1999/xlink" x="0px" y="0px"
	 viewBox="0 0 50 50" style="enable-background:new 0 0 50 50;" xml:space="preserve">
<style type="text/css">
	.st0{fill:#474747;}
	.st1{fill:#333333;}
</style>
<g>
	<path class="st0" d="M2,14.6C2,1.9,12.3-0.2,24.9-0.2c12.7,0,22.9,2.1,22.9,14.8c0,12.6-10.3,30.1-22.9,30.1S2.1,27.3,2,14.6z"/>
	<path class="st1" d="M0.5,13.3C1.8,6.6,4.4,1,8.3,1c2.7,0,4.4,2.2,4.4,4.2c0,7.3-3.8,24.1,0,30.6c1.9,3.4,22.3,3.9,24.4,0
		c3-5.4-0.3-22.2-0.3-30.4c0-2.7,1.1-4.3,4.5-4.2c4.7,0,7.1,5.4,8,12.1c0.9,6.9,0.8,17,0.1,22.9c-0.8,6.7-5.6,11.7-12.2,13.1
		c-6.2,1.2-18.3,1.4-24.4,0C6.2,47.7,1.1,42.8,0.6,36C0.1,30.1-0.5,18.7,0.5,13.3z"/>
</g>
</svg>
