<svg id="图层_1" data-name="图层 1" xmlns="http://www.w3.org/2000/svg" viewBox="0 0 219.71 326.79"><defs><style>.cls-1{fill:#231815;}</style></defs><title>3</title><path class="cls-1" d="M2456.51,432.64h35.78q22.68,0,33.59-11.89t10.91-33q0-19.19-10.91-30.76t-31.63-11.56q-17.89,0-30.1,10.47t-12.22,27.49H2390.2l-0.44-1.31q-1.31-37.3,28.58-61.52t74.17-24.21q49.3,0,78.64,23.56T2600.49,387q0,20.73-13.09,39.38t-36,29.12q26.39,9.38,40.25,28.8t13.85,45.16q0,43.63-31.74,68.61t-81.26,25q-44.29,0-76-23.45t-30.65-66.21l0.44-1.31H2448q0,18.23,13.09,30.06T2494.25,574q22,0,34.79-12.19t12.76-33.08q0-25-12.54-36.67t-37-11.64h-35.78V432.64Z" transform="translate(-2385.8 -296.29)"/></svg>