<?xml version="1.0" encoding="utf-8"?>
<!-- Generator: Adobe Illustrator 16.0.0, SVG Export Plug-In . SVG Version: 6.00 Build 0)  -->
<!DOCTYPE svg PUBLIC "-//W3C//DTD SVG 1.1//EN" "http://www.w3.org/Graphics/SVG/1.1/DTD/svg11.dtd">
<svg version="1.1" id="图层_1" xmlns="http://www.w3.org/2000/svg" xmlns:xlink="http://www.w3.org/1999/xlink" x="0px" y="0px"
	 width="90px" height="90px" viewBox="0 0 90 90" enable-background="new 0 0 90 90" xml:space="preserve">
<path fill="#00325F" d="M90,80.139C90,85.585,85.919,90,80.887,90H9.114C4.081,90,0,85.586,0,80.139V9.863C0,4.416,4.081,0,9.114,0
	h71.773C85.919,0,90,4.416,90,9.863V80.139z"/>
<circle fill="#FFFFFF" cx="32.671" cy="21.249" r="8.647"/>
<path fill="none" stroke="#FFFFFA" stroke-width="2" stroke-linecap="round" stroke-miterlimit="10" d="M21.989,37.2
	c-5.926,6.254-6.769,17.594-0.225,23.646c7.364,6.813,19.402,4.975,23.591-3.517"/>
<path fill="#FFFFFF" d="M55.376,63.738c-1.383,0.179-5.449-10.584-7.976-11.12c-6.091-1.289-9.19,7.559-15.659,0.639
	c-4.532-4.841-3.401-17.848-3.119-18.988c0.469-1.888,5.263-2.002,5.855-0.434c0.449,1.192-3.604,11.475,1.031,15.944
	c4.639,4.475,7.48-3.975,13.051-0.672C51.643,50.938,56.659,63.57,55.376,63.738z"/>
<text transform="matrix(1 0 0 1 50.1641 17.6064)" fill="#FFFFFA" font-family="'Roboto-Light'" font-size="14.7364">WC</text>
<text transform="matrix(1 0 0 1 14.9883 77.1338)" fill="#FFFFFA" font-family="'ArialMT'" font-size="8">Accessible Toilet</text>
</svg>
