<svg id="图层_1" data-name="图层 1" xmlns="http://www.w3.org/2000/svg" viewBox="0 0 237.78 317.63"><defs><style>.cls-1{fill:#231815;}</style></defs><title>B</title><path class="cls-1" d="M465.07,311.94V-5.68H572.4q56.06,0,87.48,21.81t31.41,65.23q0,22-11.67,39.38T645.7,146.81q28.58,6.11,42.87,26.18t14.29,46.47q0,45.6-30.1,69t-85.3,23.45H465.07Zm63.7-184.55h45.81q25.52,0,39.27-10.47t13.74-30.54q0-22-13.85-32.5T572.4,43.4H528.77v84Zm0,44.07v91.4h58.68q25.3,0,38.61-11t13.31-32.54q0-23.28-11.34-35.58t-35.78-12.3H528.77Z" transform="translate(-465.07 5.68)"/></svg>