<?xml version="1.0" encoding="utf-8"?>
<!-- Generator: Adobe Illustrator 19.2.1, SVG Export Plug-In . SVG Version: 6.00 Build 0)  -->
<svg version="1.1" id="图层_1" xmlns="http://www.w3.org/2000/svg" xmlns:xlink="http://www.w3.org/1999/xlink" x="0px" y="0px"
	 viewBox="0 0 1200 384" style="enable-background:new 0 0 1200 384;" xml:space="preserve">
<style type="text/css">
	.st0{fill:#FBFAF9;}
	.st1{fill:#959593;}
	.st2{fill:#23CAB7;}
	.st3{fill:#E5DCD1;}
	.st4{fill:#47B2A3;}
	.st5{fill:#CBC8B8;}
	.st6{fill:#B1B0A1;}
</style>
<rect class="st0" width="500" height="260"/>
<g>
	<rect y="19.2" class="st1" width="1200.1" height="2"/>
	<rect y="36.9" class="st1" width="1200.1" height="2"/>
	<rect y="57.6" class="st1" width="1200.1" height="2"/>
	<rect y="75.3" class="st1" width="1200.1" height="2"/>
	<rect y="94.5" class="st1" width="1200.1" height="2"/>
	<rect y="112.2" class="st1" width="1200.1" height="2"/>
	<rect y="132.9" class="st1" width="1200.1" height="2"/>
	<rect y="150.6" class="st1" width="1200.1" height="2"/>
	<rect y="169.8" class="st1" width="1200.1" height="2"/>
	<rect y="187.6" class="st1" width="1200.1" height="2"/>
	<rect y="208.2" class="st1" width="1200.1" height="2"/>
	<rect y="226" class="st1" width="1200.1" height="2"/>
	<rect y="245.2" class="st1" width="1200.1" height="2"/>
	<rect y="262.9" class="st1" width="1200.1" height="2"/>
	<rect y="283.6" class="st1" width="1200.1" height="2"/>
	<rect y="301.3" class="st1" width="1200.1" height="2"/>
	<rect y="320.5" class="st1" width="1200.1" height="2"/>
	<rect y="338.2" class="st1" width="1200.1" height="2"/>
	<rect y="358.9" class="st1" width="1200.1" height="2"/>
</g>
<g>
	<rect x="338.4" class="st1" width="2" height="384"/>
	<rect x="309.6" class="st1" width="2" height="384"/>
	<rect x="276" class="st1" width="1" height="384"/>
	<rect x="247.2" class="st1" width="2" height="384"/>
	<rect x="216" class="st1" width="2" height="384"/>
	<rect x="187.2" class="st1" width="2" height="384"/>
	<rect x="153.6" class="st1" width="2" height="384"/>
	<rect x="124.8" class="st1" width="2" height="384"/>
	<rect x="93.6" class="st1" width="2" height="384"/>
	<rect x="64.8" class="st1" width="2" height="384"/>
	<rect x="31.2" class="st1" width="2" height="384"/>
	<rect x="676.9" class="st1" width="2" height="384"/>
	<rect x="648.1" class="st1" width="2" height="384"/>
	<rect x="614.5" class="st1" width="2" height="384"/>
	<rect x="585.6" class="st1" width="2" height="384"/>
	<rect x="554.4" class="st1" width="2" height="384"/>
	<rect x="525.6" class="st1" width="2" height="384"/>
	<rect x="492" class="st1" width="2" height="384"/>
	<rect x="463.2" class="st1" width="2" height="384"/>
	<rect x="432" class="st1" width="2" height="384"/>
	<rect x="403.2" class="st1" width="2" height="384"/>
	<rect x="369.6" class="st1" width="2" height="384"/>
	<rect x="772.9" class="st1" width="2" height="384"/>
	<rect x="744.1" class="st1" width="2" height="384"/>
	<rect x="710.5" class="st1" width="2" height="384"/>
	<rect x="1017.7" class="st1" width="2" height="384"/>
	<rect x="988.9" class="st1" width="2" height="384"/>
	<rect x="955.3" class="st1" width="2" height="384"/>
	<rect x="926.5" class="st1" width="2" height="384"/>
	<rect x="895.3" class="st1" width="2" height="384"/>
	<rect x="866.5" class="st1" width="2" height="384"/>
	<rect x="832.9" class="st1" width="2" height="384"/>
	<rect x="804.1" class="st1" width="2" height="384"/>
	<rect x="1111.3" class="st1" width="2" height="384"/>
	<rect x="1082.5" class="st1" width="2" height="384"/>
	<rect x="1048.9" class="st1" width="2" height="384"/>
	<rect x="1173.7" class="st1" width="2" height="384"/>
	<rect x="1140.1" class="st1" width="2" height="384"/>
</g>
<rect x="708.8" y="19.1" class="st1" width="489.9" height="28.3"/>
<g>
	<g id="leaf">
		<path class="st2" d="M900.1,20.7c5.5,9.1,3.8,14.6-0.9,17.4c-4.7,2.8-10.7,1.7-16.2-7.2c-5.5-9.1-1.3-21.5-1.3-21.5
			S894.6,11.8,900.1,20.7z"/>
		<polygon class="st3" points="901,37.7 896.9,40 885.6,16.2 		"/>
		<polygon class="st3" points="892.5,28.3 893.3,30.1 885.2,25.6 		"/>
		<polygon class="st3" points="895.8,33.6 896.5,35.3 888.5,30.9 		"/>
		<polygon class="st3" points="896.5,33.1 897.4,34.8 898.3,24.3 		"/>
		<polygon class="st3" points="893,29.7 893.9,31.2 895.7,22.3 		"/>
	</g>
	<g id="leaf_1_">
		<path class="st2" d="M925.5,26.4c-2.8,10.2-8,12.9-13.3,11.3s-8.6-6.6-5.8-16.6c2.8-10,14.8-15.7,14.8-15.7S928.3,16.3,925.5,26.4
			z"/>
		<polygon class="st3" points="913.9,38.8 909.5,37.5 918.9,12.9 		"/>
		<polygon class="st3" points="915,26.2 914,27.9 911.9,19 		"/>
		<polygon class="st3" points="913.3,32.2 912.5,33.8 910.1,25 		"/>
		<polygon class="st3" points="914,32.3 913.6,34.2 921.7,27.6 		"/>
		<polygon class="st3" points="914.2,27.5 913.7,29.2 921.4,24.3 		"/>
	</g>
	<g id="leaf_2_">
		<path class="st2" d="M941.2,29.5c-2.8,10.2-8,12.9-13.3,11.3s-8.6-6.6-5.8-16.6s14.8-15.7,14.8-15.7S944,19.5,941.2,29.5z"/>
		<polygon class="st3" points="929.6,41.9 925.2,40.7 934.6,16 		"/>
		<polygon class="st3" points="930.7,29.4 929.8,31.1 927.6,22.1 		"/>
		<polygon class="st3" points="929,35.3 928.2,36.9 925.8,28.1 		"/>
		<polygon class="st3" points="929.8,35.5 929.3,37.4 937.4,30.8 		"/>
		<polygon class="st3" points="929.9,30.6 929.4,32.3 937.1,27.5 		"/>
	</g>
	<g id="leaf_3_">
		<path class="st2" d="M970.3,25.4c2.8,10.2-0.3,15.1-5.5,16.6c-5.3,1.4-10.8-1.1-13.7-11.3c-2.8-10,4.6-21,4.6-21
			S967.4,15.4,970.3,25.4z"/>
		<polygon class="st3" points="966.8,41.9 962.3,43.2 957.7,17.3 		"/>
		<polygon class="st3" points="961.2,30.6 961.3,32.7 954.7,26.2 		"/>
		<polygon class="st3" points="962.9,36.7 963,38.5 956.4,32.2 		"/>
		<polygon class="st3" points="963.7,36.4 964.1,38.3 967.8,28.4 		"/>
		<polygon class="st3" points="961.2,32.2 961.8,33.9 965.7,25.7 		"/>
	</g>
	<g id="leaf_4_">
		<path class="st2" d="M1009.5,23.9c2.8,10.2-0.3,15.1-5.5,16.6c-5.3,1.4-10.8-1.1-13.7-11.3c-2.8-10,4.6-21,4.6-21
			S1006.7,13.8,1009.5,23.9z"/>
		<polygon class="st3" points="1006.1,40.3 1001.5,41.6 997,15.7 		"/>
		<polygon class="st3" points="1000.4,29 1000.6,31.1 994,24.6 		"/>
		<polygon class="st3" points="1002.1,35.2 1002.3,36.9 995.7,30.6 		"/>
		<polygon class="st3" points="1002.9,34.8 1003.4,36.7 1007,26.8 		"/>
		<polygon class="st3" points="1000.4,30.6 1001,32.3 1005,24.2 		"/>
	</g>
	<g id="leaf_5_">
		<path class="st2" d="M1029.6,29.2c-5.2,9.3-10.8,10.5-15.7,7.9c-4.9-2.7-6.9-8.3-1.7-17.6c5.2-9.3,18.1-11.8,18.1-11.8
			S1034.6,19.9,1029.6,29.2z"/>
		<polygon class="st3" points="1015.5,38.5 1011.4,36.1 1026.5,14.4 		"/>
		<polygon class="st3" points="1019.4,26.4 1018.2,27.9 1018,18.7 		"/>
		<polygon class="st3" points="1016.3,31.9 1015.2,33.3 1015,24.2 		"/>
		<polygon class="st3" points="1017.1,32.2 1016.1,33.9 1025.5,29.5 		"/>
		<polygon class="st3" points="1018.3,27.6 1017.5,29.2 1026.2,26.2 		"/>
	</g>
	<g id="leaf_11_">
		<path class="st2" d="M1054,17.6c5.5,9.1,3.8,14.6-0.9,17.4c-4.7,2.8-10.7,1.7-16.2-7.2c-5.5-9.1-1.3-21.5-1.3-21.5
			S1048.5,8.6,1054,17.6z"/>
		<polygon class="st3" points="1054.9,34.5 1050.8,36.9 1039.5,13 		"/>
		<polygon class="st3" points="1046.4,25.1 1047.2,27 1039,22.4 		"/>
		<polygon class="st3" points="1049.7,30.5 1050.3,32.2 1042.3,27.8 		"/>
		<polygon class="st3" points="1050.3,30 1051.3,31.7 1052.2,21.2 		"/>
		<polygon class="st3" points="1046.9,26.5 1047.8,28.1 1049.6,19.1 		"/>
	</g>
	<g id="leaf_10_">
		<path class="st2" d="M1079.4,23.2c-2.8,10.2-8,12.9-13.3,11.3c-5.3-1.6-8.6-6.6-5.8-16.6c2.8-10,14.8-15.7,14.8-15.7
			S1082.2,13.2,1079.4,23.2z"/>
		<polygon class="st3" points="1067.8,35.6 1063.4,34.4 1072.8,9.7 		"/>
		<polygon class="st3" points="1068.9,23.1 1067.9,24.8 1065.7,15.8 		"/>
		<polygon class="st3" points="1067.1,29 1066.4,30.6 1064,21.8 		"/>
		<polygon class="st3" points="1067.9,29.2 1067.5,31.1 1075.6,24.5 		"/>
		<polygon class="st3" points="1068.1,24.3 1067.6,26.1 1075.3,21.2 		"/>
	</g>
	<g id="leaf_9_">
		<path class="st2" d="M1095.1,26.4c-2.8,10.2-8,12.9-13.3,11.3s-8.6-6.6-5.8-16.6c2.8-10,14.8-15.7,14.8-15.7
			S1097.9,16.3,1095.1,26.4z"/>
		<polygon class="st3" points="1083.5,38.8 1079.1,37.5 1088.5,12.9 		"/>
		<polygon class="st3" points="1084.6,26.2 1083.6,27.9 1081.4,19 		"/>
		<polygon class="st3" points="1082.9,32.2 1082.1,33.8 1079.7,25 		"/>
		<polygon class="st3" points="1083.6,32.3 1083.2,34.2 1091.3,27.6 		"/>
		<polygon class="st3" points="1083.8,27.5 1083.3,29.2 1091,24.3 		"/>
	</g>
	<g id="leaf_8_">
		<path class="st2" d="M1124.1,22.3c2.8,10.2-0.3,15.1-5.5,16.6c-5.3,1.4-10.8-1.1-13.7-11.3c-2.8-10,4.6-21,4.6-21
			S1121.3,12.2,1124.1,22.3z"/>
		<polygon class="st3" points="1120.7,38.8 1116.1,40 1111.6,14.1 		"/>
		<polygon class="st3" points="1115,27.5 1115.2,29.5 1108.6,23.1 		"/>
		<polygon class="st3" points="1116.8,33.6 1116.9,35.3 1110.3,29 		"/>
		<polygon class="st3" points="1117.6,33.3 1118,35.2 1121.6,25.3 		"/>
		<polygon class="st3" points="1115,29 1115.7,30.8 1119.6,22.6 		"/>
	</g>
	<g id="leaf_7_">
		<path class="st2" d="M1163.4,20.7c2.8,10.2-0.3,15.1-5.5,16.6c-5.3,1.4-10.8-1.1-13.7-11.3c-2.8-10,4.6-21,4.6-21
			S1160.6,10.7,1163.4,20.7z"/>
		<polygon class="st3" points="1160,37.2 1155.4,38.5 1150.8,12.6 		"/>
		<polygon class="st3" points="1154.3,25.9 1154.5,27.9 1147.9,21.5 		"/>
		<polygon class="st3" points="1156,32 1156.2,33.8 1149.6,27.5 		"/>
		<polygon class="st3" points="1156.8,31.7 1157.3,33.6 1160.9,23.7 		"/>
		<polygon class="st3" points="1154.3,27.5 1154.9,29.2 1158.9,21 		"/>
	</g>
	<g id="leaf_6_">
		<path class="st2" d="M1183.5,26.1c-5.2,9.3-10.8,10.5-15.7,7.9c-4.9-2.7-6.9-8.3-1.7-17.6c5.2-9.3,18.1-11.8,18.1-11.8
			S1188.5,16.8,1183.5,26.1z"/>
		<polygon class="st3" points="1169.4,35.3 1165.3,33 1180.4,11.3 		"/>
		<polygon class="st3" points="1173.3,23.2 1172,24.8 1171.9,15.5 		"/>
		<polygon class="st3" points="1170.2,28.7 1169.1,30.1 1168.9,21 		"/>
		<polygon class="st3" points="1170.9,29 1170,30.8 1179.4,26.4 		"/>
		<polygon class="st3" points="1172.2,24.5 1171.4,26.1 1180.1,23.1 		"/>
	</g>
	<g id="leaf_22_">
		<path class="st2" d="M744.9,31.1c-2.8,10.2-8,12.9-13.3,11.3s-8.6-6.6-5.8-16.6S740.5,10,740.5,10S747.8,21,744.9,31.1z"/>
		<polygon class="st3" points="733.3,43.5 728.9,42.2 738.3,17.6 		"/>
		<polygon class="st3" points="734.4,30.9 733.5,32.7 731.3,23.7 		"/>
		<polygon class="st3" points="732.7,36.9 731.9,38.5 729.5,29.7 		"/>
		<polygon class="st3" points="733.5,37 733,38.9 741.2,32.3 		"/>
		<polygon class="st3" points="733.6,32.2 733.2,33.9 740.8,29 		"/>
	</g>
	<g id="leaf_21_">
		<path class="st2" d="M760.6,34.2c-2.8,10.2-8,12.9-13.3,11.3c-5.3-1.6-8.6-6.6-5.8-16.6s14.8-15.7,14.8-15.7
			S763.5,24.2,760.6,34.2z"/>
		<polygon class="st3" points="749,46.6 744.6,45.4 754,20.7 		"/>
		<polygon class="st3" points="750.1,34.1 749.2,35.8 747,26.8 		"/>
		<polygon class="st3" points="748.4,40 747.6,41.6 745.2,32.8 		"/>
		<polygon class="st3" points="749.2,40.2 748.7,42.1 756.9,35.5 		"/>
		<polygon class="st3" points="749.3,35.3 748.9,37 756.6,32.2 		"/>
	</g>
	<g id="leaf_20_">
		<path class="st2" d="M789.7,30.1c2.8,10.2-0.3,15.1-5.5,16.6c-5.3,1.4-10.8-1.1-13.7-11.3s4.4-21,4.4-21S786.9,20.1,789.7,30.1z"
			/>
		<polygon class="st3" points="786.2,46.6 781.7,47.9 777.1,22 		"/>
		<polygon class="st3" points="780.6,35.3 780.7,37.4 774.1,30.9 		"/>
		<polygon class="st3" points="782.3,41.4 782.5,43.2 775.9,36.9 		"/>
		<polygon class="st3" points="783.1,41.1 783.6,43 787.2,33.1 		"/>
		<polygon class="st3" points="780.6,36.9 781.2,38.6 785.1,30.5 		"/>
	</g>
	<g id="leaf_19_">
		<path class="st2" d="M828.9,28.6c2.8,10.2-0.3,15.1-5.5,16.6c-5.3,1.4-10.8-1.1-13.7-11.3c-2.8-10,4.6-21,4.6-21
			S826.1,18.5,828.9,28.6z"/>
		<polygon class="st3" points="825.5,45.1 820.9,46.3 816.4,20.4 		"/>
		<polygon class="st3" points="819.8,33.8 820,35.8 813.4,29.4 		"/>
		<polygon class="st3" points="821.6,39.9 821.7,41.6 815.1,35.3 		"/>
		<polygon class="st3" points="822.3,39.6 822.8,41.4 826.4,31.6 		"/>
		<polygon class="st3" points="819.8,35.3 820.5,37 824.4,28.9 		"/>
	</g>
	<g id="leaf_18_">
		<path class="st2" d="M849,33.9c-5.2,9.3-10.8,10.5-15.7,7.9c-4.9-2.7-6.9-8.3-1.7-17.6c5.2-9.3,18.1-11.8,18.1-11.8
			S854.1,24.6,849,33.9z"/>
		<polygon class="st3" points="834.9,43.2 830.8,40.8 845.9,19.1 		"/>
		<polygon class="st3" points="838.8,31.1 837.6,32.7 837.4,23.4 		"/>
		<polygon class="st3" points="835.7,36.6 834.6,38 834.4,28.9 		"/>
		<polygon class="st3" points="836.5,36.9 835.5,38.6 845,34.2 		"/>
		<polygon class="st3" points="837.7,32.3 836.9,33.9 845.6,30.9 		"/>
	</g>
	<g id="leaf_17_">
		<path class="st2" d="M873.4,22.3c5.5,9.1,3.8,14.6-0.9,17.4c-4.7,2.8-10.7,1.7-16.2-7.2C850.8,23.4,855,11,855,11
			S867.9,13.3,873.4,22.3z"/>
		<polygon class="st3" points="874.3,39.2 870.2,41.6 858.9,17.7 		"/>
		<polygon class="st3" points="865.8,29.8 866.6,31.7 858.5,27.2 		"/>
		<polygon class="st3" points="869.1,35.2 869.8,36.9 861.8,32.5 		"/>
		<polygon class="st3" points="869.8,34.7 870.7,36.4 871.7,25.9 		"/>
		<polygon class="st3" points="866.3,31.2 867.3,32.8 869,23.9 		"/>
	</g>
	<g id="leaf_16_">
		<path class="st2" d="M898.8,27.9c-2.8,10.2-8,12.9-13.3,11.3s-8.6-6.6-5.8-16.6s14.8-15.7,14.8-15.7S901.6,17.9,898.8,27.9z"/>
		<polygon class="st3" points="887.2,40.3 882.8,39.1 892.2,14.4 		"/>
		<polygon class="st3" points="888.3,27.8 887.4,29.5 885.2,20.6 		"/>
		<polygon class="st3" points="886.6,33.8 885.8,35.3 883.4,26.5 		"/>
		<polygon class="st3" points="887.4,33.9 886.9,35.8 895,29.2 		"/>
		<polygon class="st3" points="887.5,29 887,30.8 894.7,25.9 		"/>
	</g>
	<g id="leaf_15_">
		<path class="st2" d="M914.5,31.1c-2.8,10.2-8,12.9-13.3,11.3s-8.6-6.6-5.8-16.6S910.1,10,910.1,10S917.3,21,914.5,31.1z"/>
		<polygon class="st3" points="902.9,43.5 898.5,42.2 907.9,17.6 		"/>
		<polygon class="st3" points="904,30.9 903.1,32.7 900.9,23.7 		"/>
		<polygon class="st3" points="902.3,36.9 901.5,38.5 899.1,29.7 		"/>
		<polygon class="st3" points="903.1,37 902.6,38.9 910.8,32.3 		"/>
		<polygon class="st3" points="903.2,32.2 902.7,33.9 910.4,29 		"/>
	</g>
	<g id="leaf_14_">
		<path class="st2" d="M943.6,27c2.8,10.2-0.3,15.1-5.5,16.6c-5.3,1.4-10.8-1.1-13.7-11.3c-2.8-10,4.6-21,4.6-21
			S940.7,16.9,943.6,27z"/>
		<polygon class="st3" points="940.1,43.5 935.6,44.7 931,18.8 		"/>
		<polygon class="st3" points="934.5,32.2 934.6,34.2 928,27.8 		"/>
		<polygon class="st3" points="936.2,38.3 936.3,40 929.8,33.8 		"/>
		<polygon class="st3" points="937,38 937.4,39.9 941.1,30 		"/>
		<polygon class="st3" points="934.5,33.8 935.1,35.5 939,27.3 		"/>
	</g>
	<g id="leaf_13_">
		<path class="st2" d="M982.8,25.4c2.8,10.2-0.3,15.1-5.5,16.6c-5.3,1.4-10.8-1.1-13.7-11.3c-2.8-10,4.6-21,4.6-21
			S980,15.4,982.8,25.4z"/>
		<polygon class="st3" points="979.4,41.9 974.8,43.2 970.3,17.3 		"/>
		<polygon class="st3" points="973.7,30.6 973.9,32.7 967.3,26.2 		"/>
		<polygon class="st3" points="975.4,36.7 975.6,38.5 969,32.2 		"/>
		<polygon class="st3" points="976.2,36.4 976.7,38.3 980.3,28.4 		"/>
		<polygon class="st3" points="973.7,32.2 974.3,33.9 978.3,25.7 		"/>
	</g>
	<g id="leaf_12_">
		<path class="st2" d="M1002.9,30.8c-5.2,9.3-10.8,10.5-15.7,7.9c-4.9-2.7-6.9-8.3-1.7-17.6c5.2-9.3,18.1-11.8,18.1-11.8
			S1008,21.5,1002.9,30.8z"/>
		<polygon class="st3" points="988.8,40 984.7,37.7 999.8,16 		"/>
		<polygon class="st3" points="992.7,27.9 991.5,29.5 991.3,20.2 		"/>
		<polygon class="st3" points="989.6,33.4 988.5,34.8 988.3,25.7 		"/>
		<polygon class="st3" points="990.4,33.8 989.4,35.5 998.8,31.1 		"/>
		<polygon class="st3" points="991.6,29.2 990.8,30.8 999.5,27.8 		"/>
	</g>
</g>
<rect x="229.6" y="19.1" class="st1" width="489.9" height="28.3"/>
<g>
	<g id="leaf_66_">
		<path class="st2" d="M420.8,20.7c5.5,9.1,3.8,14.6-0.9,17.4c-4.7,2.8-10.7,1.7-16.2-7.2c-5.5-9.1-1.3-21.5-1.3-21.5
			S415.3,11.8,420.8,20.7z"/>
		<polygon class="st3" points="421.8,37.7 417.7,40 406.4,16.2 		"/>
		<polygon class="st3" points="413.3,28.3 414.1,30.1 405.9,25.6 		"/>
		<polygon class="st3" points="416.6,33.6 417.2,35.3 409.2,30.9 		"/>
		<polygon class="st3" points="417.2,33.1 418.1,34.8 419.1,24.3 		"/>
		<polygon class="st3" points="413.7,29.7 414.7,31.2 416.4,22.3 		"/>
	</g>
	<g id="leaf_65_">
		<path class="st2" d="M446.3,26.4c-2.8,10.2-8,12.9-13.3,11.3c-5.3-1.6-8.6-6.6-5.8-16.6c2.8-10,14.8-15.7,14.8-15.7
			S449.1,16.3,446.3,26.4z"/>
		<polygon class="st3" points="434.6,38.8 430.2,37.5 439.7,12.9 		"/>
		<polygon class="st3" points="435.7,26.2 434.8,27.9 432.6,19 		"/>
		<polygon class="st3" points="434,32.2 433.2,33.8 430.9,25 		"/>
		<polygon class="st3" points="434.8,32.3 434.3,34.2 442.5,27.6 		"/>
		<polygon class="st3" points="434.9,27.5 434.5,29.2 442.2,24.3 		"/>
	</g>
	<g id="leaf_64_">
		<path class="st2" d="M462,29.5c-2.8,10.2-8,12.9-13.3,11.3c-5.3-1.6-8.6-6.6-5.8-16.6c2.8-10,14.8-15.7,14.8-15.7
			S464.8,19.5,462,29.5z"/>
		<polygon class="st3" points="450.3,41.9 445.9,40.7 455.4,16 		"/>
		<polygon class="st3" points="451.4,29.4 450.5,31.1 448.3,22.1 		"/>
		<polygon class="st3" points="449.7,35.3 448.9,36.9 446.6,28.1 		"/>
		<polygon class="st3" points="450.5,35.5 450,37.4 458.2,30.8 		"/>
		<polygon class="st3" points="450.7,30.6 450.2,32.3 457.9,27.5 		"/>
	</g>
	<g id="leaf_63_">
		<path class="st2" d="M491,25.4c2.8,10.2-0.3,15.1-5.5,16.6c-5.3,1.4-10.8-1.1-13.7-11.3c-2.8-10,4.6-21,4.6-21
			S488.2,15.4,491,25.4z"/>
		<polygon class="st3" points="487.6,41.9 483,43.2 478.4,17.3 		"/>
		<polygon class="st3" points="481.9,30.6 482.1,32.7 475.5,26.2 		"/>
		<polygon class="st3" points="483.6,36.7 483.8,38.5 477.2,32.2 		"/>
		<polygon class="st3" points="484.4,36.4 484.9,38.3 488.5,28.4 		"/>
		<polygon class="st3" points="481.9,32.2 482.5,33.9 486.5,25.7 		"/>
	</g>
	<g id="leaf_62_">
		<path class="st2" d="M530.3,23.9c2.8,10.2-0.3,15.1-5.5,16.6c-5.3,1.4-10.8-1.1-13.7-11.3c-2.8-10,4.6-21,4.6-21
			S527.4,13.8,530.3,23.9z"/>
		<polygon class="st3" points="526.8,40.3 522.3,41.6 517.7,15.7 		"/>
		<polygon class="st3" points="521.2,29 521.3,31.1 514.7,24.6 		"/>
		<polygon class="st3" points="522.9,35.2 523,36.9 516.4,30.6 		"/>
		<polygon class="st3" points="523.7,34.8 524.1,36.7 527.8,26.8 		"/>
		<polygon class="st3" points="521.2,30.6 521.8,32.3 525.7,24.2 		"/>
	</g>
	<g id="leaf_61_">
		<path class="st2" d="M550.4,29.2c-5.2,9.3-10.8,10.5-15.7,7.9s-6.9-8.3-1.7-17.6S551,7.7,551,7.7S555.4,19.9,550.4,29.2z"/>
		<polygon class="st3" points="536.2,38.5 532.1,36.1 547.2,14.4 		"/>
		<polygon class="st3" points="540.2,26.4 538.9,27.9 538.7,18.7 		"/>
		<polygon class="st3" points="537,31.9 535.9,33.3 535.8,24.2 		"/>
		<polygon class="st3" points="537.8,32.2 536.9,33.9 546.3,29.5 		"/>
		<polygon class="st3" points="539.1,27.6 538.3,29.2 546.9,26.2 		"/>
	</g>
	<g id="leaf_60_">
		<path class="st2" d="M574.7,17.6c5.5,9.1,3.8,14.6-0.9,17.4c-4.7,2.8-10.7,1.7-16.2-7.2c-5.5-9.1-1.3-21.5-1.3-21.5
			S569.2,8.6,574.7,17.6z"/>
		<polygon class="st3" points="575.6,34.5 571.6,36.9 560.3,13 		"/>
		<polygon class="st3" points="567.2,25.1 567.9,27 559.8,22.4 		"/>
		<polygon class="st3" points="570.5,30.5 571.1,32.2 563.1,27.8 		"/>
		<polygon class="st3" points="571.1,30 572,31.7 573,21.2 		"/>
		<polygon class="st3" points="567.6,26.5 568.6,28.1 570.3,19.1 		"/>
	</g>
	<g id="leaf_59_">
		<path class="st2" d="M600.1,23.2c-2.8,10.2-8,12.9-13.3,11.3c-5.3-1.6-8.6-6.6-5.8-16.6s14.8-15.7,14.8-15.7S603,13.2,600.1,23.2z
			"/>
		<polygon class="st3" points="588.5,35.6 584.1,34.4 593.5,9.7 		"/>
		<polygon class="st3" points="589.6,23.1 588.7,24.8 586.5,15.8 		"/>
		<polygon class="st3" points="587.9,29 587.1,30.6 584.8,21.8 		"/>
		<polygon class="st3" points="588.7,29.2 588.2,31.1 596.4,24.5 		"/>
		<polygon class="st3" points="588.8,24.3 588.4,26.1 596.1,21.2 		"/>
	</g>
	<g id="leaf_58_">
		<path class="st2" d="M615.8,26.4c-2.8,10.2-8,12.9-13.3,11.3c-5.3-1.6-8.6-6.6-5.8-16.6c2.8-10,14.8-15.7,14.8-15.7
			S618.7,16.3,615.8,26.4z"/>
		<polygon class="st3" points="604.2,38.8 599.8,37.5 609.2,12.9 		"/>
		<polygon class="st3" points="605.3,26.2 604.4,27.9 602.2,19 		"/>
		<polygon class="st3" points="603.6,32.2 602.8,33.8 600.5,25 		"/>
		<polygon class="st3" points="604.4,32.3 603.9,34.2 612.1,27.6 		"/>
		<polygon class="st3" points="604.5,27.5 604.1,29.2 611.8,24.3 		"/>
	</g>
	<g id="leaf_57_">
		<path class="st2" d="M644.9,22.3c2.8,10.2-0.3,15.1-5.5,16.6c-5.3,1.4-10.8-1.1-13.7-11.3c-2.8-10,4.6-21,4.6-21
			S642.1,12.2,644.9,22.3z"/>
		<polygon class="st3" points="641.4,38.8 636.9,40 632.3,14.1 		"/>
		<polygon class="st3" points="635.8,27.5 635.9,29.5 629.3,23.1 		"/>
		<polygon class="st3" points="637.5,33.6 637.7,35.3 631.1,29 		"/>
		<polygon class="st3" points="638.3,33.3 638.8,35.2 642.4,25.3 		"/>
		<polygon class="st3" points="635.8,29 636.4,30.8 640.3,22.6 		"/>
	</g>
	<g id="leaf_56_">
		<path class="st2" d="M684.1,20.7c2.8,10.2-0.3,15.1-5.5,16.6c-5.3,1.4-10.8-1.1-13.7-11.3c-2.8-10,4.6-21,4.6-21
			S681.3,10.7,684.1,20.7z"/>
		<polygon class="st3" points="680.7,37.2 676.1,38.5 671.6,12.6 		"/>
		<polygon class="st3" points="675,25.9 675.2,27.9 668.6,21.5 		"/>
		<polygon class="st3" points="676.8,32 676.9,33.8 670.3,27.5 		"/>
		<polygon class="st3" points="677.6,31.7 678,33.6 681.6,23.7 		"/>
		<polygon class="st3" points="675,27.5 675.7,29.2 679.6,21 		"/>
	</g>
	<g id="leaf_55_">
		<path class="st2" d="M704.2,26.1c-5.2,9.3-10.8,10.5-15.7,7.9s-6.9-8.3-1.7-17.6s18.1-11.8,18.1-11.8S709.3,16.8,704.2,26.1z"/>
		<polygon class="st3" points="690.1,35.3 686,33 701.1,11.3 		"/>
		<polygon class="st3" points="694,23.2 692.8,24.8 692.6,15.5 		"/>
		<polygon class="st3" points="690.9,28.7 689.8,30.1 689.6,21 		"/>
		<polygon class="st3" points="691.7,29 690.7,30.8 700.2,26.4 		"/>
		<polygon class="st3" points="692.9,24.5 692.2,26.1 700.8,23.1 		"/>
	</g>
	<g id="leaf_54_">
		<path class="st2" d="M265.7,31.1c-2.8,10.2-8,12.9-13.3,11.3c-5.3-1.6-8.6-6.6-5.8-16.6S261.3,10,261.3,10S268.5,21,265.7,31.1z"
			/>
		<polygon class="st3" points="254.1,43.5 249.7,42.2 259.1,17.6 		"/>
		<polygon class="st3" points="255.2,30.9 254.2,32.7 252,23.7 		"/>
		<polygon class="st3" points="253.4,36.9 252.6,38.5 250.3,29.7 		"/>
		<polygon class="st3" points="254.2,37 253.7,38.9 261.9,32.3 		"/>
		<polygon class="st3" points="254.4,32.2 253.9,33.9 261.6,29 		"/>
	</g>
	<g id="leaf_53_">
		<path class="st2" d="M281.4,34.2c-2.8,10.2-8,12.9-13.3,11.3c-5.3-1.6-8.6-6.6-5.8-16.6S277,13.2,277,13.2S284.2,24.2,281.4,34.2z
			"/>
		<polygon class="st3" points="269.8,46.6 265.4,45.4 274.8,20.7 		"/>
		<polygon class="st3" points="270.9,34.1 269.9,35.8 267.7,26.8 		"/>
		<polygon class="st3" points="269.1,40 268.3,41.6 266,32.8 		"/>
		<polygon class="st3" points="269.9,40.2 269.4,42.1 277.6,35.5 		"/>
		<polygon class="st3" points="270.1,35.3 269.6,37 277.3,32.2 		"/>
	</g>
	<g id="leaf_52_">
		<path class="st2" d="M310.4,30.1c2.8,10.2-0.3,15.1-5.5,16.6c-5.3,1.4-10.8-1.1-13.7-11.3s4.4-21,4.4-21S307.6,20.1,310.4,30.1z"
			/>
		<polygon class="st3" points="307,46.6 302.4,47.9 297.9,22 		"/>
		<polygon class="st3" points="301.3,35.3 301.5,37.4 294.9,30.9 		"/>
		<polygon class="st3" points="303,41.4 303.2,43.2 296.6,36.9 		"/>
		<polygon class="st3" points="303.8,41.1 304.3,43 307.9,33.1 		"/>
		<polygon class="st3" points="301.3,36.9 301.9,38.6 305.9,30.5 		"/>
	</g>
	<g id="leaf_51_">
		<path class="st2" d="M349.7,28.6c2.8,10.2-0.3,15.1-5.5,16.6c-5.3,1.4-10.8-1.1-13.7-11.3c-2.8-10,4.6-21,4.6-21
			S346.9,18.5,349.7,28.6z"/>
		<polygon class="st3" points="346.2,45.1 341.7,46.3 337.1,20.4 		"/>
		<polygon class="st3" points="340.6,33.8 340.7,35.8 334.1,29.4 		"/>
		<polygon class="st3" points="342.3,39.9 342.5,41.6 335.9,35.3 		"/>
		<polygon class="st3" points="343.1,39.6 343.6,41.4 347.2,31.6 		"/>
		<polygon class="st3" points="340.6,35.3 341.2,37 345.1,28.9 		"/>
	</g>
	<g id="leaf_50_">
		<path class="st2" d="M369.8,33.9c-5.2,9.3-10.8,10.5-15.7,7.9s-6.9-8.3-1.7-17.6s18.1-11.8,18.1-11.8S374.8,24.6,369.8,33.9z"/>
		<polygon class="st3" points="355.7,43.2 351.6,40.8 366.6,19.1 		"/>
		<polygon class="st3" points="359.6,31.1 358.3,32.7 358.2,23.4 		"/>
		<polygon class="st3" points="356.4,36.6 355.3,38 355.2,28.9 		"/>
		<polygon class="st3" points="357.2,36.9 356.3,38.6 365.7,34.2 		"/>
		<polygon class="st3" points="358.5,32.3 357.7,33.9 366.3,30.9 		"/>
	</g>
	<g id="leaf_49_">
		<path class="st2" d="M394.1,22.3c5.5,9.1,3.8,14.6-0.9,17.4c-4.7,2.8-10.7,1.7-16.2-7.2c-5.5-9.1-1.3-21.5-1.3-21.5
			S388.6,13.3,394.1,22.3z"/>
		<polygon class="st3" points="395.1,39.2 391,41.6 379.7,17.7 		"/>
		<polygon class="st3" points="386.6,29.8 387.4,31.7 379.2,27.2 		"/>
		<polygon class="st3" points="389.9,35.2 390.5,36.9 382.5,32.5 		"/>
		<polygon class="st3" points="390.5,34.7 391.5,36.4 392.4,25.9 		"/>
		<polygon class="st3" points="387.1,31.2 388,32.8 389.7,23.9 		"/>
	</g>
	<g id="leaf_48_">
		<path class="st2" d="M419.6,27.9c-2.8,10.2-8,12.9-13.3,11.3c-5.3-1.6-8.6-6.6-5.8-16.6c2.8-10,14.8-15.7,14.8-15.7
			S422.4,17.9,419.6,27.9z"/>
		<polygon class="st3" points="407.9,40.3 403.5,39.1 413,14.4 		"/>
		<polygon class="st3" points="409,27.8 408.1,29.5 405.9,20.6 		"/>
		<polygon class="st3" points="407.3,33.8 406.5,35.3 404.2,26.5 		"/>
		<polygon class="st3" points="408.1,33.9 407.6,35.8 415.8,29.2 		"/>
		<polygon class="st3" points="408.3,29 407.8,30.8 415.5,25.9 		"/>
	</g>
	<g id="leaf_47_">
		<path class="st2" d="M435.3,31.1c-2.8,10.2-8,12.9-13.3,11.3c-5.3-1.6-8.6-6.6-5.8-16.6S430.9,10,430.9,10S438.1,21,435.3,31.1z"
			/>
		<polygon class="st3" points="423.6,43.5 419.2,42.2 428.7,17.6 		"/>
		<polygon class="st3" points="424.7,30.9 423.8,32.7 421.6,23.7 		"/>
		<polygon class="st3" points="423,36.9 422.2,38.5 419.9,29.7 		"/>
		<polygon class="st3" points="423.8,37 423.3,38.9 431.5,32.3 		"/>
		<polygon class="st3" points="424,32.2 423.5,33.9 431.2,29 		"/>
	</g>
	<g id="leaf_46_">
		<path class="st2" d="M464.3,27c2.8,10.2-0.3,15.1-5.5,16.6c-5.3,1.4-10.8-1.1-13.7-11.3c-2.8-10,4.6-21,4.6-21
			S461.5,16.9,464.3,27z"/>
		<polygon class="st3" points="460.9,43.5 456.3,44.7 451.8,18.8 		"/>
		<polygon class="st3" points="455.2,32.2 455.4,34.2 448.8,27.8 		"/>
		<polygon class="st3" points="456.9,38.3 457.1,40 450.5,33.8 		"/>
		<polygon class="st3" points="457.7,38 458.2,39.9 461.8,30 		"/>
		<polygon class="st3" points="455.2,33.8 455.8,35.5 459.8,27.3 		"/>
	</g>
	<g id="leaf_45_">
		<path class="st2" d="M503.6,25.4c2.8,10.2-0.3,15.1-5.5,16.6c-5.3,1.4-10.8-1.1-13.7-11.3c-2.8-10,4.6-21,4.6-21
			S500.7,15.4,503.6,25.4z"/>
		<polygon class="st3" points="500.1,41.9 495.6,43.2 491,17.3 		"/>
		<polygon class="st3" points="494.5,30.6 494.6,32.7 488,26.2 		"/>
		<polygon class="st3" points="496.2,36.7 496.3,38.5 489.8,32.2 		"/>
		<polygon class="st3" points="497,36.4 497.4,38.3 501.1,28.4 		"/>
		<polygon class="st3" points="494.5,32.2 495.1,33.9 499,25.7 		"/>
	</g>
	<g id="leaf_36_">
		<path class="st2" d="M523.7,30.8c-5.2,9.3-10.8,10.5-15.7,7.9c-4.9-2.7-6.9-8.3-1.7-17.6c5.2-9.3,18.1-11.8,18.1-11.8
			S528.7,21.5,523.7,30.8z"/>
		<polygon class="st3" points="509.5,40 505.5,37.7 520.5,16 		"/>
		<polygon class="st3" points="513.5,27.9 512.2,29.5 512,20.2 		"/>
		<polygon class="st3" points="510.3,33.4 509.2,34.8 509.1,25.7 		"/>
		<polygon class="st3" points="511.1,33.8 510.2,35.5 519.6,31.1 		"/>
		<polygon class="st3" points="512.4,29.2 511.6,30.8 520.2,27.8 		"/>
	</g>
</g>
<g>
	<rect x="0.1" y="156.7" class="st4" width="218.7" height="227.2"/>
	<path class="st5" d="M218.8,243.8v140.1c0,0-93.9-18.7-155-80.7C-0.9,237.4,0.1,156.7,0.1,156.7h138c0,0,0.6,22.5,28.7,55.2
		C192.3,241.6,218.8,243.8,218.8,243.8z"/>
	<g id="leaf_41_">
		<path class="st2" d="M209.3,211.9c3.8,13.8-0.4,20.4-7.4,22.5c-7.2,1.9-14.7-1.5-18.5-15.3c-3.8-13.8,5.9-28.5,5.9-28.5
			S205.5,198.3,209.3,211.9z"/>
		<polygon class="st3" points="204.6,234.2 198.5,235.9 192.3,200.9 		"/>
		<polygon class="st3" points="197,218.9 197.2,221.7 188.3,213 		"/>
		<polygon class="st3" points="199.3,227.2 199.5,229.5 190.6,221 		"/>
		<polygon class="st3" points="200.4,226.8 201,229.3 205.9,216 		"/>
		<polygon class="st3" points="197,221 197.8,223.4 203.1,212.3 		"/>
	</g>
	<g id="leaf_40_">
		<path class="st2" d="M190.8,214.7c-13.2,5.3-20.4,1.9-23.1-4.9c-2.8-6.8-0.2-14.7,13.2-20c13.2-5.3,29.1,2.8,29.1,2.8
			S204,209.4,190.8,214.7z"/>
		<polygon class="st3" points="168.1,212.3 165.8,206.4 199.9,196.4 		"/>
		<polygon class="st3" points="182.5,203 179.8,203.6 187.6,193.9 		"/>
		<polygon class="st3" points="174.7,206.2 172.1,206.8 179.6,197.1 		"/>
		<polygon class="st3" points="175.1,207.2 172.5,208.3 186.4,211.5 		"/>
		<polygon class="st3" points="180.4,203.4 178.1,204.5 189.7,208.5 		"/>
	</g>
	<g id="leaf_39_">
		<path class="st2" d="M226.3,223.2c-1.9,14.2-8.5,18.7-15.7,17.6c-7.4-1.1-12.7-7.2-10.8-21.2c1.9-14,16.8-23.8,16.8-23.8
			S228.2,208.9,226.3,223.2z"/>
		<polygon class="st3" points="213.1,241.6 206.7,240.8 215,206 		"/>
		<polygon class="st3" points="212,224.7 211.2,227.2 206.5,215.5 		"/>
		<polygon class="st3" points="211,232.9 210.1,235.3 205.5,224 		"/>
		<polygon class="st3" points="212,232.9 211.6,235.7 221.4,225.3 		"/>
		<polygon class="st3" points="211.4,226.6 211,228.9 220.5,221 		"/>
	</g>
	<g id="leaf_38_">
		<path class="st2" d="M237.5,241.9c-11.7,8.3-19.3,6.8-23.8,0.6c-4.2-5.9-3.6-14.2,8.1-22.5c11.7-8.3,28.9-4.2,28.9-4.2
			S249,233.6,237.5,241.9z"/>
		<polygon class="st3" points="215,245 211.2,239.7 242.2,221.9 		"/>
		<polygon class="st3" points="226.7,232.5 224.4,233.8 229.5,222.3 		"/>
		<polygon class="st3" points="219.7,237.6 217.6,238.7 222.4,227.2 		"/>
		<polygon class="st3" points="220.5,238.5 218.4,239.9 232.4,239.9 		"/>
		<polygon class="st3" points="224.8,233.4 222.7,234.8 235,236.1 		"/>
	</g>
	<g id="leaf_37_">
		<path class="st2" d="M208.2,202.6c-3.8,13.8-10.8,17.4-18,15.3c-7.2-2.1-11.7-8.9-7.9-22.5c3.8-13.8,20-21.2,20-21.2
			S212,189,208.2,202.6z"/>
		<polygon class="st3" points="192.5,219.3 186.6,217.6 199.3,184.3 		"/>
		<polygon class="st3" points="194,202.4 192.7,204.7 189.7,192.6 		"/>
		<polygon class="st3" points="191.7,210.4 190.6,212.6 187.4,200.7 		"/>
		<polygon class="st3" points="192.7,210.6 192.1,213.2 203.1,204.3 		"/>
		<polygon class="st3" points="192.9,204.1 192.3,206.4 202.7,199.8 		"/>
	</g>
	<g id="leaf_35_">
		<path class="st2" d="M162.6,171.6c3.8,13.8-0.4,20.4-7.4,22.5c-7.2,1.9-14.7-1.5-18.5-15.3s5.9-28.5,5.9-28.5
			S158.7,158,162.6,171.6z"/>
		<polygon class="st3" points="157.9,193.9 151.7,195.6 145.6,160.5 		"/>
		<polygon class="st3" points="150.3,178.6 150.5,181.3 141.5,172.6 		"/>
		<polygon class="st3" points="152.6,186.9 152.8,189.2 143.9,180.7 		"/>
		<polygon class="st3" points="153.7,186.4 154.3,189 159.2,175.6 		"/>
		<polygon class="st3" points="150.3,180.7 151.1,183 156.4,172 		"/>
	</g>
	<g id="leaf_34_">
		<path class="st2" d="M189.7,178.8c-7,12.5-14.7,14.2-21.2,10.6c-6.6-3.6-9.3-11.3-2.3-23.8c7-12.5,24.4-15.9,24.4-15.9
			S196.5,166.3,189.7,178.8z"/>
		<polygon class="st3" points="170.6,191.3 165.1,188.1 185.5,158.8 		"/>
		<polygon class="st3" points="175.9,175 174.2,177.1 174,164.6 		"/>
		<polygon class="st3" points="171.7,182.4 170.2,184.3 170,172 		"/>
		<polygon class="st3" points="172.8,182.8 171.5,185.2 184.2,179.2 		"/>
		<polygon class="st3" points="174.5,176.7 173.4,178.8 185.1,174.8 		"/>
	</g>
	<g id="leaf_33_">
		<path class="st2" d="M21.8,266.3c-3,13.8-8.5,17.4-14,15.3c-5.5-2.1-9.1-8.9-6.2-22.5c3-13.8,15.5-21.2,15.5-21.2
			S24.8,252.7,21.8,266.3z"/>
		<polygon class="st3" points="9.5,283.1 4.8,281.4 14.8,248 		"/>
		<polygon class="st3" points="10.5,266.1 9.7,268.4 7.3,256.3 		"/>
		<polygon class="st3" points="8.8,274.1 8,276.3 5.4,264.4 		"/>
		<polygon class="st3" points="9.7,274.3 9.3,276.9 17.8,268 		"/>
		<polygon class="st3" points="9.9,267.8 9.5,270.1 17.5,263.5 		"/>
	</g>
	<g id="leaf_32_">
		<path class="st2" d="M25.6,336.3c-3,13.8-8.5,17.4-14,15.3c-5.5-1.9-9.1-8.9-6.2-22.5c3-13.8,15.5-21.2,15.5-21.2
			S28.6,322.8,25.6,336.3z"/>
		<polygon class="st3" points="13.5,353.1 8.6,351.4 18.8,318.1 		"/>
		<polygon class="st3" points="14.6,336.1 13.5,338.5 11.2,326.4 		"/>
		<polygon class="st3" points="12.7,344.2 11.8,346.3 9.3,334.4 		"/>
		<polygon class="st3" points="13.5,344.4 13.1,347 21.6,338 		"/>
		<polygon class="st3" points="13.7,337.8 13.3,340.2 21.4,333.6 		"/>
	</g>
	<g id="leaf_31_">
		<path class="st2" d="M86.1,358.4c3,13.8-0.2,20.4-5.9,22.5c-5.5,1.9-11.5-1.5-14.4-15.3c-3-13.8,4.7-28.5,4.7-28.5
			S83.2,344.8,86.1,358.4z"/>
		<polygon class="st3" points="82.5,380.7 77.6,382.4 72.7,347.4 		"/>
		<polygon class="st3" points="76.6,365.4 76.8,368.2 69.8,359.5 		"/>
		<polygon class="st3" points="78.3,373.7 78.5,376.1 71.5,367.6 		"/>
		<polygon class="st3" points="79.1,373.3 79.8,375.8 83.4,362.5 		"/>
		<polygon class="st3" points="76.6,367.6 77.2,369.9 81.2,358.9 		"/>
	</g>
	<g id="leaf_30_">
		<path class="st2" d="M127.7,356.3c3,13.8-0.2,20.4-5.9,22.5c-5.5,1.9-11.5-1.5-14.4-15.3c-3-13.8,4.7-28.5,4.7-28.5
			S124.8,342.7,127.7,356.3z"/>
		<polygon class="st3" points="123.9,378.6 119.3,380.3 114.4,345.3 		"/>
		<polygon class="st3" points="118,363.3 118.2,366.1 111.2,357.4 		"/>
		<polygon class="st3" points="119.9,371.6 119.9,373.9 113.1,365.4 		"/>
		<polygon class="st3" points="120.7,371.2 121.2,373.7 125,360.3 		"/>
		<polygon class="st3" points="118.2,365.4 118.6,367.8 122.9,356.7 		"/>
	</g>
	<g id="leaf_29_">
		<path class="st2" d="M153.2,372c-5.5,12.5-11.5,14.2-16.6,10.6c-5.1-3.6-7.2-11.3-1.9-23.8c5.5-12.5,19.1-15.9,19.1-15.9
			S158.5,359.5,153.2,372z"/>
		<polygon class="st3" points="138.1,384.6 133.9,381.4 149.8,352.1 		"/>
		<polygon class="st3" points="142.4,368.2 141.1,370.3 140.9,357.8 		"/>
		<polygon class="st3" points="139.2,375.6 137.9,377.5 137.7,365.2 		"/>
		<polygon class="st3" points="139.8,376.1 139,378.4 149,372.4 		"/>
		<polygon class="st3" points="141.3,369.9 140.3,372 149.4,368 		"/>
	</g>
	<g id="leaf_28_">
		<path class="st2" d="M64.3,358.4c5.7,12.3,4,19.7-1.1,23.6c-4.9,3.8-11.3,2.3-17-9.8c-5.7-12.3-1.5-29.1-1.5-29.1
			S58.5,346.3,64.3,358.4z"/>
		<polygon class="st3" points="65.3,381.4 61.1,384.6 49,352.3 		"/>
		<polygon class="st3" points="56.4,368.6 57,371.2 48.5,365 		"/>
		<polygon class="st3" points="59.8,375.8 60.4,378.2 51.9,372.2 		"/>
		<polygon class="st3" points="60.4,375.2 61.5,377.5 62.3,363.3 		"/>
		<polygon class="st3" points="56.8,370.5 57.9,372.7 59.6,360.6 		"/>
	</g>
	<g id="leaf_27_">
		<path class="st2" d="M35.6,360.6c3.4,13.6,0,19.3-5.7,20c-5.9,0.6-12.1-3.8-15.5-17.4c-3.4-13.6,4.5-25.9,4.5-25.9
			S32.2,347,35.6,360.6z"/>
		<polygon class="st3" points="32.2,380.9 27.1,381.6 21.4,347.2 		"/>
		<polygon class="st3" points="25.4,365.2 25.8,367.8 18.2,358 		"/>
		<polygon class="st3" points="27.5,373.3 27.7,375.6 20.3,366.1 		"/>
		<polygon class="st3" points="28.4,373.1 29,375.6 32.8,363.7 		"/>
		<polygon class="st3" points="25.6,367.1 26.2,369.5 30.5,359.9 		"/>
	</g>
	<g id="leaf_26_">
		<path class="st2" d="M52.4,356.9c3.4,13.6,0,19.3-5.7,20c-5.9,0.6-12.1-3.8-15.5-17.4c-3.4-13.6,4.5-25.9,4.5-25.9
			S49,343.4,52.4,356.9z"/>
		<polygon class="st3" points="49,377.3 43.9,378 38.1,343.6 		"/>
		<polygon class="st3" points="42.4,361.6 42.6,364.2 35,354.4 		"/>
		<polygon class="st3" points="44.3,369.7 44.5,372 37.1,362.5 		"/>
		<polygon class="st3" points="45.1,369.5 45.8,372 49.6,360.3 		"/>
		<polygon class="st3" points="42.4,363.5 43,365.9 47.3,356.3 		"/>
	</g>
	<g id="leaf_25_">
		<path class="st2" d="M78.3,348.2c-3.6,13.6-9.6,18-15.5,17.2s-9.3-6.6-5.7-20.2s17.2-23.1,17.2-23.1S81.9,334.7,78.3,348.2z"/>
		<polygon class="st3" points="84.2,359.9 80.6,363.7 60.6,334.2 		"/>
		<polygon class="st3" points="72.1,348.9 73.4,351.2 63.2,346.5 		"/>
		<polygon class="st3" points="77.2,355.5 78.5,357.6 68.5,353.1 		"/>
		<polygon class="st3" points="77.8,354.8 79.5,356.7 77,343.1 		"/>
		<polygon class="st3" points="73,350.8 74.7,352.7 73.4,340.8 		"/>
	</g>
	<g id="leaf_24_">
		<path class="st2" d="M106.3,358.2c8.7,11,8.9,18.5,4.7,22.7c-4,4.2-10.8,3.6-19.7-7.2c-8.7-11-8.5-27.6-8.5-27.6
			S97.4,347.2,106.3,358.2z"/>
		<polygon class="st3" points="112.7,379.7 109.3,383.5 89.3,354 		"/>
		<polygon class="st3" points="100.6,368.8 102.1,371 91.9,366.3 		"/>
		<polygon class="st3" points="105.9,375.2 107.1,377.3 97,372.9 		"/>
		<polygon class="st3" points="106.3,374.6 108,376.7 105.4,362.9 		"/>
		<polygon class="st3" points="101.6,370.5 103.1,372.4 102.1,360.6 		"/>
	</g>
	<g id="leaf_23_">
		<path class="st2" d="M22.2,306.4c0.6,13.6-4,17.8-10.2,17c-6.2-1.1-11.5-7-12.1-20.6c-0.6-13.6,10-22.7,10-22.7
			S21.6,292.8,22.2,306.4z"/>
		<polygon class="st3" points="14.4,324.2 9,323.4 10.3,289.8 		"/>
		<polygon class="st3" points="11,307.7 10.5,310.2 5,299 		"/>
		<polygon class="st3" points="11.2,316 11,318.1 5.2,307.3 		"/>
		<polygon class="st3" points="12.2,316 12.2,318.5 18.6,308.5 		"/>
		<polygon class="st3" points="10.5,309.6 10.7,311.9 17.1,304.3 		"/>
	</g>
	<g id="leaf_44_">
		<path class="st2" d="M33,301.7c-1.9,14-7.4,19.1-13.4,19.1s-10.2-5.3-8.1-19.3c1.9-14,14.4-25.1,14.4-25.1S35,287.7,33,301.7z"/>
		<polygon class="st3" points="21.8,321.3 16.7,321.1 24.3,286.4 		"/>
		<polygon class="st3" points="21.6,304.9 20.7,307.3 17.3,296.6 		"/>
		<polygon class="st3" points="20.3,313.2 19.7,315.5 16.1,305.1 		"/>
		<polygon class="st3" points="21.1,313 20.9,315.5 29,304.5 		"/>
		<polygon class="st3" points="20.9,306.8 20.5,309.2 28.4,300.3 		"/>
	</g>
	<g id="leaf_43_">
		<path class="st2" d="M54.1,309.6c-1.9,14-7.4,19.1-13.4,19.1c-5.9,0-10.2-5.3-8.1-19.3c1.9-14.2,14.2-25.3,14.2-25.3
			S56,295.6,54.1,309.6z"/>
		<polygon class="st3" points="42.8,329.1 37.7,328.9 45.4,294.3 		"/>
		<polygon class="st3" points="42.6,312.8 41.7,315.1 38.3,304.5 		"/>
		<polygon class="st3" points="41.3,321.1 40.7,323.4 37.1,312.8 		"/>
		<polygon class="st3" points="42.2,320.8 41.7,323.4 50,312.4 		"/>
		<polygon class="st3" points="42,314.7 41.5,317 49.4,308.1 		"/>
	</g>
	<g id="leaf_42_">
		<path class="st2" d="M71.3,323.6c-9.6,9.8-15.7,9.3-19.3,4.2c-3.4-5.1-2.8-13.2,6.6-22.9s23.4-8.3,23.4-8.3S80.8,313.8,71.3,323.6
			z"/>
		<polygon class="st3" points="53,330 50,325.7 75.3,303.6 		"/>
		<polygon class="st3" points="62.6,316.4 60.6,317.9 64.9,306 		"/>
		<polygon class="st3" points="57,322.1 55.1,323.4 59.2,311.9 		"/>
		<polygon class="st3" points="57.5,322.8 55.8,324.7 67.2,322.5 		"/>
		<polygon class="st3" points="61.1,317.5 59.4,319.1 69.4,318.5 		"/>
	</g>
</g>
<path class="st6" d="M1201.3,384h-448c0,0,61.5-73.9,77.2-91.9c20-23,86.1-25.3,112.6-57.2c18.3-21.8,117.9-11.2,145.6-26.9
	c42-23.8,112.6-38.1,112.6-38.1V384z"/>
<path class="st5" d="M1201.3,384h-448c0,0,11-125.3,99.2-119.1c131.6,9.4,161.1,11.2,271.3-31.6c45-17.5,77.2-19.1,77.2-19.1V384
	H1201.3z"/>
</svg>
