<?xml version="1.0" encoding="utf-8"?>
<!-- Generator: Adobe Illustrator 16.0.0, SVG Export Plug-In . SVG Version: 6.00 Build 0)  -->
<!DOCTYPE svg PUBLIC "-//W3C//DTD SVG 1.1//EN" "http://www.w3.org/Graphics/SVG/1.1/DTD/svg11.dtd">
<svg version="1.1" id="图层_1" xmlns="http://www.w3.org/2000/svg" xmlns:xlink="http://www.w3.org/1999/xlink" x="0px" y="0px"
	 width="500px" height="260px" viewBox="0 0 500 260" enable-background="new 0 0 500 260" xml:space="preserve">
<g>
	<rect y="13" fill="#FBFAF9" width="500" height="2"/>
	<rect y="25" fill="#FBFAF9" width="500" height="2"/>
	<rect y="39" fill="#FBFAF9" width="500" height="2"/>
	<rect y="51" fill="#FBFAF9" width="500" height="2"/>
	<rect y="64" fill="#FBFAF9" width="500" height="2"/>
	<rect y="76" fill="#FBFAF9" width="500" height="2"/>
	<rect y="90" fill="#FBFAF9" width="500" height="2"/>
	<rect y="102" fill="#FBFAF9" width="500" height="2"/>
	<rect y="115" fill="#FBFAF9" width="500" height="2"/>
	<rect y="127" fill="#FBFAF9" width="500" height="2"/>
	<rect y="141" fill="#FBFAF9" width="500" height="2"/>
	<rect y="153" fill="#FBFAF9" width="500" height="2"/>
	<rect y="166" fill="#FBFAF9" width="500" height="2"/>
	<rect y="178" fill="#FBFAF9" width="500" height="2"/>
	<rect y="192" fill="#FBFAF9" width="500" height="2"/>
	<rect y="204" fill="#FBFAF9" width="500" height="2"/>
	<rect y="217" fill="#FBFAF9" width="500" height="2"/>
	<rect y="229" fill="#FBFAF9" width="500" height="2"/>
	<rect y="243" fill="#FBFAF9" width="500" height="2"/>
</g>
<g>
	<rect x="141" fill="#FBFAF9" width="2" height="260"/>
	<rect x="129" fill="#FBFAF9" width="2" height="260"/>
	<rect x="115" fill="#FBFAF9" width="2" height="260"/>
	<rect x="103" fill="#FBFAF9" width="2" height="260"/>
	<rect x="90" fill="#FBFAF9" width="2" height="260"/>
	<rect x="78" fill="#FBFAF9" width="2" height="260"/>
	<rect x="64" fill="#FBFAF9" width="2" height="260"/>
	<rect x="52" fill="#FBFAF9" width="2" height="260"/>
	<rect x="39" fill="#FBFAF9" width="2" height="260"/>
	<rect x="27" fill="#FBFAF9" width="2" height="260"/>
	<rect x="13" fill="#FBFAF9" width="2" height="260"/>
	<rect x="282" fill="#FBFAF9" width="2" height="260"/>
	<rect x="270" fill="#FBFAF9" width="2" height="260"/>
	<rect x="256" fill="#FBFAF9" width="2" height="260"/>
	<rect x="244" fill="#FBFAF9" width="2" height="260"/>
	<rect x="231" fill="#FBFAF9" width="2" height="260"/>
	<rect x="219" fill="#FBFAF9" width="2" height="260"/>
	<rect x="205" fill="#FBFAF9" width="2" height="260"/>
	<rect x="193" fill="#FBFAF9" width="2" height="260"/>
	<rect x="180" fill="#FBFAF9" width="2" height="260"/>
	<rect x="168" fill="#FBFAF9" width="2" height="260"/>
	<rect x="154" fill="#FBFAF9" width="2" height="260"/>
	<rect x="322" fill="#FBFAF9" width="2" height="260"/>
	<rect x="310" fill="#FBFAF9" width="2" height="260"/>
	<rect x="296" fill="#FBFAF9" width="2" height="260"/>
	<rect x="424" fill="#FBFAF9" width="2" height="260"/>
	<rect x="412" fill="#FBFAF9" width="2" height="260"/>
	<rect x="398" fill="#FBFAF9" width="2" height="260"/>
	<rect x="386" fill="#FBFAF9" width="2" height="260"/>
	<rect x="373" fill="#FBFAF9" width="2" height="260"/>
	<rect x="361" fill="#FBFAF9" width="2" height="260"/>
	<rect x="347" fill="#FBFAF9" width="2" height="260"/>
	<rect x="335" fill="#FBFAF9" width="2" height="260"/>
	<rect x="463" fill="#FBFAF9" width="2" height="260"/>
	<rect x="451" fill="#FBFAF9" width="2" height="260"/>
	<rect x="437" fill="#FBFAF9" width="2" height="260"/>
	<rect x="489" fill="#FBFAF9" width="2" height="260"/>
	<rect x="475" fill="#FBFAF9" width="2" height="260"/>
</g>
<rect x="152" y="13" fill="#959593" width="312" height="18"/>
<g>
	<g id="leaf">
		<path fill="#23CAB7" d="M273.781,14.047c3.463,5.76,2.406,9.346-0.592,11.148s-6.803,1.137-10.264-4.623
			c-3.462-5.759-0.84-13.69-0.84-13.69S270.32,8.288,273.781,14.047z"/>
		<polygon fill="#E5DCD1" points="274.391,24.765 271.818,26.311 264.609,11.101 		"/>
		<polygon fill="#E5DCD1" points="269.019,18.796 269.456,19.953 264.311,17.114 		"/>
		<polygon fill="#E5DCD1" points="271.079,22.224 271.474,23.31 266.371,20.542 		"/>
		<polygon fill="#E5DCD1" points="271.499,21.896 272.149,22.978 272.666,16.33 		"/>
		<polygon fill="#E5DCD1" points="269.316,19.699 269.937,20.702 270.998,14.99 		"/>
	</g>
	<g id="leaf_1_">
		<path fill="#23CAB7" d="M289.998,17.642c-1.793,6.476-5.121,8.18-8.492,7.247s-5.508-4.151-3.715-10.627
			c1.793-6.476,9.351-10.035,9.351-10.035S291.791,11.166,289.998,17.642z"/>
		<polygon fill="#E5DCD1" points="282.645,25.463 279.753,24.662 285.818,8.962 		"/>
		<polygon fill="#E5DCD1" points="283.274,17.457 282.736,18.571 281.252,12.885 		"/>
		<polygon fill="#E5DCD1" points="282.207,21.312 281.691,22.345 280.186,16.74 		"/>
		<polygon fill="#E5DCD1" points="282.734,21.391 282.397,22.607 287.574,18.404 		"/>
		<polygon fill="#E5DCD1" points="282.824,18.295 282.523,19.436 287.396,16.272 		"/>
	</g>
	<g id="leaf_2_">
		<path fill="#23CAB7" d="M299.998,19.642c-1.793,6.476-5.121,8.18-8.492,7.247s-5.508-4.151-3.715-10.627
			c1.793-6.476,9.351-10.035,9.351-10.035S301.791,13.166,299.998,19.642z"/>
		<polygon fill="#E5DCD1" points="292.645,27.463 289.753,26.662 295.818,10.962 		"/>
		<polygon fill="#E5DCD1" points="293.274,19.457 292.736,20.571 291.252,14.885 		"/>
		<polygon fill="#E5DCD1" points="292.207,23.312 291.691,24.345 290.186,18.74 		"/>
		<polygon fill="#E5DCD1" points="292.734,23.391 292.397,24.607 297.574,20.404 		"/>
		<polygon fill="#E5DCD1" points="292.824,20.295 292.523,21.436 297.396,18.272 		"/>
	</g>
	<g id="leaf_3_">
		<path fill="#23CAB7" d="M318.549,17.027c1.809,6.472-0.162,9.649-3.531,10.59c-3.368,0.941-6.86-0.71-8.668-7.182
			c-1.809-6.472,2.826-13.422,2.826-13.422S316.74,10.555,318.549,17.027z"/>
		<polygon fill="#E5DCD1" points="316.289,27.522 313.4,28.329 310.488,11.751 		"/>
		<polygon fill="#E5DCD1" points="312.695,20.34 312.811,21.572 308.604,17.469 		"/>
		<polygon fill="#E5DCD1" points="313.771,24.193 313.863,25.344 309.68,21.321 		"/>
		<polygon fill="#E5DCD1" points="314.264,23.988 314.604,25.204 316.866,18.931 		"/>
		<polygon fill="#E5DCD1" points="312.742,21.29 313.074,22.422 315.614,17.197 		"/>
	</g>
	<g id="leaf_4_">
		<path fill="#23CAB7" d="M343.549,16.027c1.809,6.472-0.162,9.649-3.531,10.59c-3.368,0.941-6.86-0.71-8.668-7.182
			c-1.809-6.472,2.826-13.422,2.826-13.422S341.74,9.555,343.549,16.027z"/>
		<polygon fill="#E5DCD1" points="341.289,26.522 338.4,27.329 335.488,10.751 		"/>
		<polygon fill="#E5DCD1" points="337.695,19.34 337.811,20.572 333.604,16.469 		"/>
		<polygon fill="#E5DCD1" points="338.771,23.193 338.863,24.344 334.68,20.321 		"/>
		<polygon fill="#E5DCD1" points="339.264,22.988 339.604,24.204 341.866,17.931 		"/>
		<polygon fill="#E5DCD1" points="337.742,20.29 338.074,21.422 340.614,16.197 		"/>
	</g>
	<g id="leaf_5_">
		<path fill="#23CAB7" d="M356.273,19.414c-3.271,5.869-6.908,6.739-9.963,5.036s-4.373-5.334-1.102-11.204
			c3.271-5.87,11.457-7.543,11.457-7.543S359.545,13.544,356.273,19.414z"/>
		<polygon fill="#E5DCD1" points="347.28,25.277 344.66,23.816 354.262,9.992 		"/>
		<polygon fill="#E5DCD1" points="349.783,17.646 348.998,18.602 348.898,12.726 		"/>
		<polygon fill="#E5DCD1" points="347.836,21.14 347.092,22.022 346.951,16.22 		"/>
		<polygon fill="#E5DCD1" points="348.33,21.341 347.715,22.444 353.738,19.582 		"/>
		<polygon fill="#E5DCD1" points="349.148,18.354 348.587,19.392 354.069,17.469 		"/>
	</g>
	<g id="leaf_11_">
		<path fill="#23CAB7" d="M371.781,12.047c3.463,5.76,2.406,9.346-0.592,11.148s-6.803,1.137-10.264-4.623
			c-3.462-5.759-0.84-13.69-0.84-13.69S368.32,6.288,371.781,12.047z"/>
		<polygon fill="#E5DCD1" points="372.391,22.765 369.818,24.311 362.609,9.101 		"/>
		<polygon fill="#E5DCD1" points="367.019,16.796 367.456,17.953 362.311,15.114 		"/>
		<polygon fill="#E5DCD1" points="369.079,20.224 369.474,21.31 364.371,18.542 		"/>
		<polygon fill="#E5DCD1" points="369.499,19.896 370.149,20.978 370.666,14.33 		"/>
		<polygon fill="#E5DCD1" points="367.316,17.699 367.937,18.702 368.998,12.99 		"/>
	</g>
	<g id="leaf_10_">
		<path fill="#23CAB7" d="M387.998,15.642c-1.793,6.476-5.121,8.18-8.492,7.247s-5.508-4.151-3.715-10.627
			c1.793-6.476,9.351-10.035,9.351-10.035S389.791,9.166,387.998,15.642z"/>
		<polygon fill="#E5DCD1" points="380.645,23.463 377.753,22.662 383.818,6.962 		"/>
		<polygon fill="#E5DCD1" points="381.274,15.457 380.736,16.571 379.252,10.885 		"/>
		<polygon fill="#E5DCD1" points="380.207,19.312 379.691,20.345 378.186,14.74 		"/>
		<polygon fill="#E5DCD1" points="380.734,19.391 380.397,20.607 385.574,16.404 		"/>
		<polygon fill="#E5DCD1" points="380.824,16.295 380.523,17.436 385.396,14.272 		"/>
	</g>
	<g id="leaf_9_">
		<path fill="#23CAB7" d="M397.998,17.642c-1.793,6.476-5.121,8.18-8.492,7.247s-5.508-4.151-3.715-10.627
			c1.793-6.476,9.351-10.035,9.351-10.035S399.791,11.166,397.998,17.642z"/>
		<polygon fill="#E5DCD1" points="390.645,25.463 387.753,24.662 393.818,8.962 		"/>
		<polygon fill="#E5DCD1" points="391.274,17.457 390.736,18.571 389.252,12.885 		"/>
		<polygon fill="#E5DCD1" points="390.207,21.312 389.691,22.345 388.186,16.74 		"/>
		<polygon fill="#E5DCD1" points="390.734,21.391 390.397,22.607 395.574,18.404 		"/>
		<polygon fill="#E5DCD1" points="390.824,18.295 390.523,19.436 395.396,16.272 		"/>
	</g>
	<g id="leaf_8_">
		<path fill="#23CAB7" d="M416.549,15.027c1.809,6.472-0.162,9.649-3.531,10.59c-3.368,0.941-6.86-0.71-8.668-7.182
			c-1.809-6.472,2.826-13.422,2.826-13.422S414.74,8.555,416.549,15.027z"/>
		<polygon fill="#E5DCD1" points="414.289,25.522 411.4,26.329 408.488,9.751 		"/>
		<polygon fill="#E5DCD1" points="410.695,18.34 410.811,19.572 406.604,15.469 		"/>
		<polygon fill="#E5DCD1" points="411.771,22.193 411.863,23.344 407.68,19.321 		"/>
		<polygon fill="#E5DCD1" points="412.264,21.988 412.604,23.204 414.866,16.931 		"/>
		<polygon fill="#E5DCD1" points="410.742,19.29 411.074,20.422 413.614,15.197 		"/>
	</g>
	<g id="leaf_7_">
		<path fill="#23CAB7" d="M441.549,14.027c1.809,6.472-0.162,9.649-3.531,10.59c-3.368,0.941-6.86-0.71-8.668-7.182
			c-1.809-6.472,2.826-13.422,2.826-13.422S439.74,7.555,441.549,14.027z"/>
		<polygon fill="#E5DCD1" points="439.289,24.522 436.4,25.329 433.488,8.751 		"/>
		<polygon fill="#E5DCD1" points="435.695,17.34 435.811,18.572 431.604,14.469 		"/>
		<polygon fill="#E5DCD1" points="436.771,21.193 436.863,22.344 432.68,18.321 		"/>
		<polygon fill="#E5DCD1" points="437.264,20.988 437.604,22.204 439.866,15.931 		"/>
		<polygon fill="#E5DCD1" points="435.742,18.29 436.074,19.422 438.614,14.197 		"/>
	</g>
	<g id="leaf_6_">
		<path fill="#23CAB7" d="M454.273,17.414c-3.271,5.869-6.908,6.739-9.963,5.036s-4.373-5.334-1.102-11.204
			c3.271-5.87,11.457-7.543,11.457-7.543S457.545,11.544,454.273,17.414z"/>
		<polygon fill="#E5DCD1" points="445.28,23.277 442.66,21.816 452.262,7.992 		"/>
		<polygon fill="#E5DCD1" points="447.783,15.646 446.998,16.602 446.898,10.726 		"/>
		<polygon fill="#E5DCD1" points="445.836,19.14 445.092,20.022 444.951,14.22 		"/>
		<polygon fill="#E5DCD1" points="446.33,19.341 445.715,20.444 451.738,17.582 		"/>
		<polygon fill="#E5DCD1" points="447.148,16.354 446.587,17.392 452.069,15.469 		"/>
	</g>
	<g id="leaf_22_">
		<path fill="#23CAB7" d="M174.998,20.642c-1.793,6.476-5.121,8.18-8.492,7.247s-5.508-4.151-3.715-10.627
			c1.793-6.476,9.351-10.035,9.351-10.035S176.791,14.166,174.998,20.642z"/>
		<polygon fill="#E5DCD1" points="167.645,28.463 164.753,27.662 170.818,11.962 		"/>
		<polygon fill="#E5DCD1" points="168.274,20.457 167.736,21.571 166.252,15.885 		"/>
		<polygon fill="#E5DCD1" points="167.207,24.312 166.691,25.345 165.186,19.74 		"/>
		<polygon fill="#E5DCD1" points="167.734,24.391 167.397,25.607 172.574,21.404 		"/>
		<polygon fill="#E5DCD1" points="167.824,21.295 167.523,22.436 172.396,19.272 		"/>
	</g>
	<g id="leaf_21_">
		<path fill="#23CAB7" d="M184.998,22.642c-1.793,6.476-5.121,8.18-8.492,7.247s-5.508-4.151-3.715-10.627
			c1.793-6.476,9.351-10.035,9.351-10.035S186.791,16.166,184.998,22.642z"/>
		<polygon fill="#E5DCD1" points="177.645,30.463 174.753,29.662 180.818,13.962 		"/>
		<polygon fill="#E5DCD1" points="178.274,22.457 177.736,23.571 176.252,17.885 		"/>
		<polygon fill="#E5DCD1" points="177.207,26.312 176.691,27.345 175.186,21.74 		"/>
		<polygon fill="#E5DCD1" points="177.734,26.391 177.397,27.607 182.574,23.404 		"/>
		<polygon fill="#E5DCD1" points="177.824,23.295 177.523,24.436 182.396,21.272 		"/>
	</g>
	<g id="leaf_20_">
		<path fill="#23CAB7" d="M203.549,20.027c1.809,6.472-0.162,9.649-3.531,10.59c-3.368,0.941-6.86-0.71-8.668-7.182
			c-1.809-6.472,2.826-13.422,2.826-13.422S201.74,13.555,203.549,20.027z"/>
		<polygon fill="#E5DCD1" points="201.289,30.522 198.4,31.329 195.488,14.751 		"/>
		<polygon fill="#E5DCD1" points="197.695,23.34 197.811,24.572 193.604,20.469 		"/>
		<polygon fill="#E5DCD1" points="198.771,27.193 198.863,28.344 194.68,24.321 		"/>
		<polygon fill="#E5DCD1" points="199.264,26.988 199.604,28.204 201.866,21.931 		"/>
		<polygon fill="#E5DCD1" points="197.742,24.29 198.074,25.422 200.614,20.197 		"/>
	</g>
	<g id="leaf_19_">
		<path fill="#23CAB7" d="M228.549,19.027c1.809,6.472-0.162,9.649-3.531,10.59c-3.368,0.941-6.86-0.71-8.668-7.182
			c-1.809-6.472,2.826-13.422,2.826-13.422S226.74,12.555,228.549,19.027z"/>
		<polygon fill="#E5DCD1" points="226.289,29.522 223.4,30.329 220.488,13.751 		"/>
		<polygon fill="#E5DCD1" points="222.695,22.34 222.811,23.572 218.604,19.469 		"/>
		<polygon fill="#E5DCD1" points="223.771,26.193 223.863,27.344 219.68,23.321 		"/>
		<polygon fill="#E5DCD1" points="224.264,25.988 224.604,27.204 226.866,20.931 		"/>
		<polygon fill="#E5DCD1" points="222.742,23.29 223.074,24.422 225.614,19.197 		"/>
	</g>
	<g id="leaf_18_">
		<path fill="#23CAB7" d="M241.273,22.414c-3.271,5.869-6.908,6.739-9.963,5.036s-4.373-5.334-1.102-11.204
			c3.271-5.87,11.457-7.543,11.457-7.543S244.545,16.544,241.273,22.414z"/>
		<polygon fill="#E5DCD1" points="232.28,28.277 229.66,26.816 239.262,12.992 		"/>
		<polygon fill="#E5DCD1" points="234.783,20.646 233.998,21.602 233.898,15.726 		"/>
		<polygon fill="#E5DCD1" points="232.836,24.14 232.092,25.022 231.951,19.22 		"/>
		<polygon fill="#E5DCD1" points="233.33,24.341 232.715,25.444 238.738,22.582 		"/>
		<polygon fill="#E5DCD1" points="234.148,21.354 233.587,22.392 239.069,20.469 		"/>
	</g>
	<g id="leaf_17_">
		<path fill="#23CAB7" d="M256.781,15.047c3.463,5.76,2.406,9.346-0.592,11.148s-6.803,1.137-10.264-4.623
			c-3.462-5.759-0.84-13.69-0.84-13.69S253.32,9.288,256.781,15.047z"/>
		<polygon fill="#E5DCD1" points="257.391,25.765 254.818,27.311 247.609,12.101 		"/>
		<polygon fill="#E5DCD1" points="252.019,19.796 252.456,20.953 247.311,18.114 		"/>
		<polygon fill="#E5DCD1" points="254.079,23.224 254.474,24.31 249.371,21.542 		"/>
		<polygon fill="#E5DCD1" points="254.499,22.896 255.149,23.978 255.666,17.33 		"/>
		<polygon fill="#E5DCD1" points="252.316,20.699 252.937,21.702 253.998,15.99 		"/>
	</g>
	<g id="leaf_16_">
		<path fill="#23CAB7" d="M272.998,18.642c-1.793,6.476-5.121,8.18-8.492,7.247s-5.508-4.151-3.715-10.627
			c1.793-6.476,9.351-10.035,9.351-10.035S274.791,12.166,272.998,18.642z"/>
		<polygon fill="#E5DCD1" points="265.645,26.463 262.753,25.662 268.818,9.962 		"/>
		<polygon fill="#E5DCD1" points="266.274,18.457 265.736,19.571 264.252,13.885 		"/>
		<polygon fill="#E5DCD1" points="265.207,22.312 264.691,23.345 263.186,17.74 		"/>
		<polygon fill="#E5DCD1" points="265.734,22.391 265.397,23.607 270.574,19.404 		"/>
		<polygon fill="#E5DCD1" points="265.824,19.295 265.523,20.436 270.396,17.272 		"/>
	</g>
	<g id="leaf_15_">
		<path fill="#23CAB7" d="M282.998,20.642c-1.793,6.476-5.121,8.18-8.492,7.247s-5.508-4.151-3.715-10.627
			c1.793-6.476,9.351-10.035,9.351-10.035S284.791,14.166,282.998,20.642z"/>
		<polygon fill="#E5DCD1" points="275.645,28.463 272.753,27.662 278.818,11.962 		"/>
		<polygon fill="#E5DCD1" points="276.274,20.457 275.736,21.571 274.252,15.885 		"/>
		<polygon fill="#E5DCD1" points="275.207,24.312 274.691,25.345 273.186,19.74 		"/>
		<polygon fill="#E5DCD1" points="275.734,24.391 275.397,25.607 280.574,21.404 		"/>
		<polygon fill="#E5DCD1" points="275.824,21.295 275.523,22.436 280.396,19.272 		"/>
	</g>
	<g id="leaf_14_">
		<path fill="#23CAB7" d="M301.549,18.027c1.809,6.472-0.162,9.649-3.531,10.59c-3.368,0.941-6.86-0.71-8.668-7.182
			c-1.809-6.472,2.826-13.422,2.826-13.422S299.74,11.555,301.549,18.027z"/>
		<polygon fill="#E5DCD1" points="299.289,28.522 296.4,29.329 293.488,12.751 		"/>
		<polygon fill="#E5DCD1" points="295.695,21.34 295.811,22.572 291.604,18.469 		"/>
		<polygon fill="#E5DCD1" points="296.771,25.193 296.863,26.344 292.68,22.321 		"/>
		<polygon fill="#E5DCD1" points="297.264,24.988 297.604,26.204 299.866,19.931 		"/>
		<polygon fill="#E5DCD1" points="295.742,22.29 296.074,23.422 298.614,18.197 		"/>
	</g>
	<g id="leaf_13_">
		<path fill="#23CAB7" d="M326.549,17.027c1.809,6.472-0.162,9.649-3.531,10.59c-3.368,0.941-6.86-0.71-8.668-7.182
			c-1.809-6.472,2.826-13.422,2.826-13.422S324.74,10.555,326.549,17.027z"/>
		<polygon fill="#E5DCD1" points="324.289,27.522 321.4,28.329 318.488,11.751 		"/>
		<polygon fill="#E5DCD1" points="320.695,20.34 320.811,21.572 316.604,17.469 		"/>
		<polygon fill="#E5DCD1" points="321.771,24.193 321.863,25.344 317.68,21.321 		"/>
		<polygon fill="#E5DCD1" points="322.264,23.988 322.604,25.204 324.866,18.931 		"/>
		<polygon fill="#E5DCD1" points="320.742,21.29 321.074,22.422 323.614,17.197 		"/>
	</g>
	<g id="leaf_12_">
		<path fill="#23CAB7" d="M339.273,20.414c-3.271,5.869-6.908,6.739-9.963,5.036s-4.373-5.334-1.102-11.204
			c3.271-5.87,11.457-7.543,11.457-7.543S342.545,14.544,339.273,20.414z"/>
		<polygon fill="#E5DCD1" points="330.28,26.277 327.66,24.816 337.262,10.992 		"/>
		<polygon fill="#E5DCD1" points="332.783,18.646 331.998,19.602 331.898,13.726 		"/>
		<polygon fill="#E5DCD1" points="330.836,22.14 330.092,23.022 329.951,17.22 		"/>
		<polygon fill="#E5DCD1" points="331.33,22.341 330.715,23.444 336.738,20.582 		"/>
		<polygon fill="#E5DCD1" points="332.148,19.354 331.587,20.392 337.069,18.469 		"/>
	</g>
</g>
<g>
	<path fill="#CBC8B8" d="M103,194v66c0,0-44.246-8.774-73-38c-30.5-31-30-69-30-69h65c0,0,0.323,10.627,13.5,26
		C90.5,193,103,194,103,194z"/>
	<g id="leaf_41_">
		<path fill="#23CAB7" d="M98.549,179.027c1.809,6.471-0.162,9.648-3.531,10.59c-3.368,0.941-6.86-0.711-8.668-7.182
			c-1.809-6.473,2.826-13.423,2.826-13.423S96.74,172.555,98.549,179.027z"/>
		<polygon fill="#E5DCD1" points="96.289,189.521 93.4,190.329 90.488,173.752 		"/>
		<polygon fill="#E5DCD1" points="92.695,182.34 92.811,183.572 88.604,179.469 		"/>
		<polygon fill="#E5DCD1" points="93.771,186.193 93.863,187.344 89.68,183.321 		"/>
		<polygon fill="#E5DCD1" points="94.264,185.988 94.604,187.204 96.866,180.932 		"/>
		<polygon fill="#E5DCD1" points="92.742,183.29 93.074,184.422 95.614,179.197 		"/>
	</g>
	<g id="leaf_40_">
		<path fill="#23CAB7" d="M89.811,180.285c-6.227,2.525-9.606,0.925-10.92-2.316s-0.067-6.897,6.16-9.423
			c6.227-2.524,13.655,1.299,13.655,1.299S96.039,177.76,89.811,180.285z"/>
		<polygon fill="#E5DCD1" points="79.128,179.222 78.001,176.441 94.146,171.682 		"/>
		<polygon fill="#E5DCD1" points="85.86,174.842 84.649,175.095 88.252,170.453 		"/>
		<polygon fill="#E5DCD1" points="82.153,176.346 81.021,176.566 84.546,171.955 		"/>
		<polygon fill="#E5DCD1" points="82.413,176.811 81.242,177.285 87.73,178.828 		"/>
		<polygon fill="#E5DCD1" points="84.922,174.995 83.834,175.452 89.312,177.389 		"/>
	</g>
	<g id="leaf_39_">
		<path fill="#23CAB7" d="M106.514,184.259c-0.909,6.659-3.979,8.792-7.446,8.318c-3.465-0.475-6.014-3.375-5.104-10.033
			c0.91-6.658,7.923-11.197,7.923-11.197S107.424,177.602,106.514,184.259z"/>
		<polygon fill="#E5DCD1" points="100.273,192.995 97.301,192.588 101.21,176.217 		"/>
		<polygon fill="#E5DCD1" points="99.826,184.977 99.442,186.152 97.211,180.716 		"/>
		<polygon fill="#E5DCD1" points="99.284,188.94 98.912,190.033 96.669,184.679 		"/>
		<polygon fill="#E5DCD1" points="99.817,188.947 99.646,190.198 104.214,185.34 		"/>
		<polygon fill="#E5DCD1" points="99.493,185.867 99.348,187.037 103.753,183.251 		"/>
	</g>
	<g id="leaf_38_">
		<path fill="#23CAB7" d="M77.792,158.087c-5.455,3.924-9.117,3.168-11.16,0.328c-2.042-2.84-1.692-6.687,3.762-10.61
			c5.455-3.925,13.575-1.964,13.575-1.964S83.246,154.163,77.792,158.087z"/>
		<polygon fill="#E5DCD1" points="67.16,159.576 65.408,157.141 79.972,148.703 		"/>
		<polygon fill="#E5DCD1" points="72.667,153.73 71.55,154.262 73.955,148.9 		"/>
		<polygon fill="#E5DCD1" points="69.419,156.067 68.37,156.55 70.708,151.237 		"/>
		<polygon fill="#E5DCD1" points="69.782,156.458 68.757,157.195 75.425,157.163 		"/>
		<polygon fill="#E5DCD1" points="71.791,154.102 70.842,154.803 76.622,155.39 		"/>
	</g>
	<g id="leaf_37_">
		<path fill="#23CAB7" d="M97.998,174.642c-1.793,6.476-5.121,8.181-8.492,7.247s-5.508-4.151-3.715-10.627
			c1.793-6.477,9.351-10.035,9.351-10.035S99.791,168.166,97.998,174.642z"/>
		<polygon fill="#E5DCD1" points="90.645,182.463 87.753,181.662 93.818,165.962 		"/>
		<polygon fill="#E5DCD1" points="91.274,174.457 90.736,175.57 89.252,169.885 		"/>
		<polygon fill="#E5DCD1" points="90.207,178.313 89.691,179.346 88.186,173.74 		"/>
		<polygon fill="#E5DCD1" points="90.734,178.391 90.397,179.607 95.574,175.404 		"/>
		<polygon fill="#E5DCD1" points="90.824,175.295 90.523,176.436 95.396,173.272 		"/>
	</g>
	<g id="leaf_36_">
		<path fill="#23CAB7" d="M116.549,172.027c1.809,6.471-0.162,9.648-3.531,10.59c-3.368,0.941-6.86-0.711-8.668-7.182
			c-1.809-6.473,2.826-13.423,2.826-13.423S114.74,165.555,116.549,172.027z"/>
		<polygon fill="#E5DCD1" points="114.289,182.521 111.4,183.329 108.488,166.752 		"/>
		<polygon fill="#E5DCD1" points="110.695,175.34 110.811,176.572 106.604,172.469 		"/>
		<polygon fill="#E5DCD1" points="111.771,179.193 111.863,180.344 107.68,176.321 		"/>
		<polygon fill="#E5DCD1" points="112.264,178.988 112.604,180.204 114.866,173.932 		"/>
		<polygon fill="#E5DCD1" points="110.742,176.29 111.074,177.422 113.614,172.197 		"/>
	</g>
	<g id="leaf_35_">
		<path fill="#23CAB7" d="M76.549,160.027c1.809,6.471-0.162,9.648-3.531,10.59c-3.368,0.941-6.86-0.711-8.668-7.182
			c-1.809-6.473,2.826-13.423,2.826-13.423S74.74,153.555,76.549,160.027z"/>
		<polygon fill="#E5DCD1" points="74.289,170.521 71.4,171.329 68.488,154.752 		"/>
		<polygon fill="#E5DCD1" points="70.695,163.34 70.811,164.572 66.604,160.469 		"/>
		<polygon fill="#E5DCD1" points="71.771,167.193 71.863,168.344 67.68,164.321 		"/>
		<polygon fill="#E5DCD1" points="72.264,166.988 72.604,168.204 74.866,161.932 		"/>
		<polygon fill="#E5DCD1" points="70.742,164.29 71.074,165.422 73.614,160.197 		"/>
	</g>
	<g id="leaf_34_">
		<path fill="#23CAB7" d="M89.273,163.414c-3.271,5.869-6.908,6.738-9.963,5.035s-4.373-5.334-1.102-11.203
			s11.457-7.543,11.457-7.543S92.545,157.544,89.273,163.414z"/>
		<polygon fill="#E5DCD1" points="80.28,169.277 77.66,167.816 87.262,153.992 		"/>
		<polygon fill="#E5DCD1" points="82.783,161.646 81.998,162.602 81.898,156.727 		"/>
		<polygon fill="#E5DCD1" points="80.836,165.141 80.092,166.022 79.951,160.22 		"/>
		<polygon fill="#E5DCD1" points="81.33,165.341 80.715,166.443 86.738,163.582 		"/>
		<polygon fill="#E5DCD1" points="82.148,162.354 81.587,163.392 87.069,161.469 		"/>
	</g>
	<g id="leaf_33_">
		<path fill="#23CAB7" d="M10.202,204.642c-1.403,6.476-4.007,8.181-6.645,7.247c-2.638-0.934-4.31-4.151-2.907-10.627
			c1.403-6.477,7.317-10.035,7.317-10.035S11.604,198.166,10.202,204.642z"/>
		<polygon fill="#E5DCD1" points="4.448,212.463 2.185,211.662 6.931,195.962 		"/>
		<polygon fill="#E5DCD1" points="4.94,204.457 4.52,205.57 3.358,199.885 		"/>
		<polygon fill="#E5DCD1" points="4.105,208.313 3.702,209.346 2.523,203.74 		"/>
		<polygon fill="#E5DCD1" points="4.518,208.391 4.254,209.607 8.305,205.404 		"/>
		<polygon fill="#E5DCD1" points="4.588,205.295 4.353,206.436 8.166,203.272 		"/>
	</g>
	<g id="leaf_32_">
		<path fill="#23CAB7" d="M12.027,237.642c-1.403,6.476-4.007,8.181-6.646,7.247c-2.638-0.934-4.31-4.151-2.907-10.627
			c1.403-6.477,7.317-10.035,7.317-10.035S13.43,231.166,12.027,237.642z"/>
		<polygon fill="#E5DCD1" points="6.272,245.463 4.01,244.662 8.756,228.962 		"/>
		<polygon fill="#E5DCD1" points="6.766,237.457 6.344,238.57 5.183,232.885 		"/>
		<polygon fill="#E5DCD1" points="5.93,241.313 5.527,242.346 4.348,236.74 		"/>
		<polygon fill="#E5DCD1" points="6.343,241.391 6.079,242.607 10.13,238.404 		"/>
		<polygon fill="#E5DCD1" points="6.413,238.295 6.178,239.436 9.991,236.272 		"/>
	</g>
	<g id="leaf_31_">
		<path fill="#23CAB7" d="M40.542,248.027c1.416,6.471-0.126,9.648-2.763,10.59c-2.635,0.941-5.368-0.711-6.783-7.182
			c-1.415-6.473,2.211-13.423,2.211-13.423S39.127,241.555,40.542,248.027z"/>
		<polygon fill="#E5DCD1" points="38.774,258.521 36.514,259.329 34.235,242.752 		"/>
		<polygon fill="#E5DCD1" points="35.962,251.34 36.052,252.572 32.76,248.469 		"/>
		<polygon fill="#E5DCD1" points="36.804,255.193 36.876,256.344 33.603,252.321 		"/>
		<polygon fill="#E5DCD1" points="37.189,254.988 37.456,256.204 39.226,249.932 		"/>
		<polygon fill="#E5DCD1" points="35.999,252.29 36.259,253.422 38.247,248.197 		"/>
	</g>
	<g id="leaf_30_">
		<path fill="#23CAB7" d="M60.105,247.027c1.416,6.471-0.126,9.648-2.763,10.59c-2.635,0.941-5.368-0.711-6.783-7.182
			c-1.415-6.473,2.211-13.423,2.211-13.423S58.69,240.555,60.105,247.027z"/>
		<polygon fill="#E5DCD1" points="58.337,257.521 56.077,258.329 53.798,241.752 		"/>
		<polygon fill="#E5DCD1" points="55.525,250.34 55.615,251.572 52.323,247.469 		"/>
		<polygon fill="#E5DCD1" points="56.367,254.193 56.438,255.344 53.165,251.321 		"/>
		<polygon fill="#E5DCD1" points="56.752,253.988 57.018,255.204 58.789,248.932 		"/>
		<polygon fill="#E5DCD1" points="55.562,251.29 55.821,252.422 57.809,247.197 		"/>
	</g>
	<g id="leaf_29_">
		<path fill="#23CAB7" d="M72.062,254.414c-2.56,5.869-5.405,6.738-7.796,5.035c-2.39-1.703-3.422-5.334-0.862-11.203
			s8.965-7.543,8.965-7.543S74.622,248.544,72.062,254.414z"/>
		<polygon fill="#E5DCD1" points="65.025,260.277 62.975,258.816 70.488,244.992 		"/>
		<polygon fill="#E5DCD1" points="66.983,252.646 66.369,253.602 66.291,247.727 		"/>
		<polygon fill="#E5DCD1" points="65.46,256.141 64.877,257.022 64.768,251.22 		"/>
		<polygon fill="#E5DCD1" points="65.847,256.341 65.365,257.443 70.079,254.582 		"/>
		<polygon fill="#E5DCD1" points="66.487,253.354 66.047,254.392 70.337,252.469 		"/>
	</g>
	<g id="leaf_28_">
		<path fill="#23CAB7" d="M30.197,248.047c2.709,5.76,1.883,9.346-0.463,11.148c-2.346,1.801-5.323,1.137-8.031-4.623
			c-2.709-5.76-0.657-13.691-0.657-13.691S27.489,242.288,30.197,248.047z"/>
		<polygon fill="#E5DCD1" points="30.674,258.766 28.661,260.311 23.02,245.102 		"/>
		<polygon fill="#E5DCD1" points="26.47,252.796 26.813,253.953 22.786,251.113 		"/>
		<polygon fill="#E5DCD1" points="28.083,256.225 28.391,257.31 24.398,254.542 		"/>
		<polygon fill="#E5DCD1" points="28.411,255.896 28.92,256.979 29.324,250.33 		"/>
		<polygon fill="#E5DCD1" points="26.703,253.699 27.188,254.702 28.019,248.99 		"/>
	</g>
	<g id="leaf_27_">
		<path fill="#23CAB7" d="M16.747,249.003c1.615,6.426,0.038,9.109-2.741,9.442c-2.779,0.334-5.704-1.809-7.319-8.234
			c-1.615-6.428,2.107-12.239,2.107-12.239S15.132,242.578,16.747,249.003z"/>
		<polygon fill="#E5DCD1" points="15.06,258.565 12.676,258.852 9.966,242.675 		"/>
		<polygon fill="#E5DCD1" points="11.95,251.171 12.066,252.355 8.504,247.775 		"/>
		<polygon fill="#E5DCD1" points="12.911,254.997 13.008,256.102 9.466,251.602 		"/>
		<polygon fill="#E5DCD1" points="13.316,254.885 13.62,256.092 15.386,250.527 		"/>
		<polygon fill="#E5DCD1" points="12.006,252.079 12.3,253.205 14.315,248.68 		"/>
	</g>
	<g id="leaf_26_">
		<path fill="#23CAB7" d="M24.647,247.324c1.615,6.427,0.037,9.11-2.742,9.443c-2.778,0.333-5.704-1.81-7.318-8.235
			c-1.616-6.427,2.107-12.239,2.107-12.239S23.033,240.899,24.647,247.324z"/>
		<polygon fill="#E5DCD1" points="22.959,256.887 20.576,257.173 17.866,240.997 		"/>
		<polygon fill="#E5DCD1" points="19.851,249.493 19.966,250.678 16.404,246.098 		"/>
		<polygon fill="#E5DCD1" points="20.812,253.319 20.908,254.424 17.366,249.923 		"/>
		<polygon fill="#E5DCD1" points="21.216,253.206 21.52,254.414 23.286,248.85 		"/>
		<polygon fill="#E5DCD1" points="19.906,250.4 20.201,251.527 22.216,247.001 		"/>
	</g>
	<g id="leaf_25_">
		<path fill="#23CAB7" d="M36.498,238.544c4.139,5.171,4.166,8.703,2.22,10.717c-1.944,2.012-5.127,1.743-9.264-3.429
			c-4.139-5.173-3.972-13.011-3.972-13.011S32.359,233.37,36.498,238.544z"/>
		<polygon fill="#E5DCD1" points="39.568,248.732 37.9,250.46 28.505,236.612 		"/>
		<polygon fill="#E5DCD1" points="33.862,243.543 34.489,244.608 29.718,242.391 		"/>
		<polygon fill="#E5DCD1" points="36.326,246.624 36.9,247.623 32.182,245.47 		"/>
		<polygon fill="#E5DCD1" points="36.58,246.27 37.357,247.241 36.162,240.834 		"/>
		<polygon fill="#E5DCD1" points="34.316,244.379 35.051,245.278 34.515,239.714 		"/>
	</g>
	<g id="leaf_24_">
		<path fill="#23CAB7" d="M45.964,233.858c4.139,5.172,4.167,8.704,2.221,10.717c-1.945,2.013-5.127,1.744-9.265-3.428
			c-4.139-5.174-3.971-13.011-3.971-13.011S41.825,228.685,45.964,233.858z"/>
		<polygon fill="#E5DCD1" points="49.035,244.048 47.367,245.774 37.972,231.928 		"/>
		<polygon fill="#E5DCD1" points="43.329,238.858 43.956,239.924 39.186,237.706 		"/>
		<polygon fill="#E5DCD1" points="45.792,241.939 46.367,242.938 41.649,240.785 		"/>
		<polygon fill="#E5DCD1" points="46.047,241.585 46.825,242.557 45.629,236.149 		"/>
		<polygon fill="#E5DCD1" points="43.783,239.694 44.518,240.594 43.982,235.029 		"/>
	</g>
	<g id="leaf_23_">
		<path fill="#23CAB7" d="M56.391,232.478c0.309,6.396-1.856,8.437-4.754,7.97c-2.897-0.466-5.433-3.262-5.742-9.658
			c-0.309-6.396,4.689-10.736,4.689-10.736S56.081,226.081,56.391,232.478z"/>
		<polygon fill="#E5DCD1" points="52.684,240.854 50.198,240.453 50.801,224.731 		"/>
		<polygon fill="#E5DCD1" points="51.055,233.146 50.928,234.274 48.252,229.044 		"/>
		<polygon fill="#E5DCD1" points="51.239,236.953 51.108,238.002 48.436,232.85 		"/>
		<polygon fill="#E5DCD1" points="51.674,236.961 51.732,238.163 54.688,233.507 		"/>
		<polygon fill="#E5DCD1" points="50.924,234 50.99,235.125 53.982,231.499 		"/>
	</g>
	<g id="leaf_44_">
		<path fill="#23CAB7" d="M15.506,221.259c-0.939,6.557-3.496,8.993-6.296,8.952c-2.797-0.041-4.779-2.546-3.839-9.102
			c0.94-6.559,6.771-11.8,6.771-11.8S16.447,214.7,15.506,221.259z"/>
		<polygon fill="#E5DCD1" points="10.177,230.469 7.776,230.435 11.446,214.108 		"/>
		<polygon fill="#E5DCD1" points="10.057,222.757 9.709,223.943 8.062,218.947 		"/>
		<polygon fill="#E5DCD1" points="9.496,226.662 9.161,227.765 7.502,222.851 		"/>
		<polygon fill="#E5DCD1" points="9.929,226.604 9.752,227.837 13.606,222.581 		"/>
		<polygon fill="#E5DCD1" points="9.758,223.66 9.605,224.812 13.296,220.613 		"/>
	</g>
	<g id="leaf_43_">
		<path fill="#23CAB7" d="M25.401,224.956c-0.94,6.557-3.497,8.994-6.296,8.952c-2.798-0.041-4.78-2.545-3.84-9.102
			c0.941-6.559,6.771-11.798,6.771-11.798S26.341,218.397,25.401,224.956z"/>
		<polygon fill="#E5DCD1" points="20.071,234.167 17.67,234.132 21.34,217.807 		"/>
		<polygon fill="#E5DCD1" points="19.951,226.455 19.603,227.642 17.957,222.646 		"/>
		<polygon fill="#E5DCD1" points="19.39,230.36 19.055,231.463 17.397,226.549 		"/>
		<polygon fill="#E5DCD1" points="19.823,230.303 19.646,231.535 23.501,226.279 		"/>
		<polygon fill="#E5DCD1" points="19.652,227.358 19.5,228.51 23.19,224.313 		"/>
	</g>
	<g id="leaf_42_">
		<path fill="#23CAB7" d="M33.542,231.614c-4.453,4.602-7.422,4.42-9.065,1.987c-1.643-2.432-1.339-6.194,3.114-10.796
			s11.038-3.927,11.038-3.927S37.995,227.012,33.542,231.614z"/>
		<polygon fill="#E5DCD1" points="24.897,234.643 23.488,232.556 35.366,222.238 		"/>
		<polygon fill="#E5DCD1" points="29.403,228.182 28.494,228.86 30.477,223.33 		"/>
		<polygon fill="#E5DCD1" points="26.753,230.921 25.898,231.542 27.828,226.068 		"/>
		<polygon fill="#E5DCD1" points="27.045,231.243 26.208,232.107 31.626,231.077 		"/>
		<polygon fill="#E5DCD1" points="28.691,228.67 27.916,229.488 32.607,229.189 		"/>
	</g>
</g>
<path fill="#B1B0A1" d="M500,260H272c0,0,31.263-37.574,39.311-46.83c10.205-11.737,43.803-12.918,57.28-29.066
	c9.29-11.131,59.955-5.682,74.128-13.726C464.06,158.267,500,151,500,151V260z"/>
<path fill="#CBC8B8" d="M500,260H272c0,0,5.616-63.785,50.542-60.556c66.952,4.813,81.99,5.652,138.147-16.148
	c22.939-8.904,39.311-9.688,39.311-9.688V260z"/>
<rect x="197" y="45" fill="#CBC8B8" width="121" height="35"/>
<rect x="336" y="45" fill="#CBC8B8" width="121" height="35"/>
<rect x="152" y="31" fill="#CBC8B8" width="35" height="165"/>
</svg>
