<?xml version="1.0" encoding="utf-8"?>
<!-- Generator: Adobe Illustrator 19.2.1, SVG Export Plug-In . SVG Version: 6.00 Build 0)  -->
<svg version="1.1" id="图层_1" xmlns="http://www.w3.org/2000/svg" xmlns:xlink="http://www.w3.org/1999/xlink" x="0px" y="0px"
	 viewBox="0 0 500 260" style="enable-background:new 0 0 500 260;" xml:space="preserve">
<style type="text/css">
	.st0{fill:#FBFAF9;}
	.st1{fill:#959593;}
	.st2{fill:#23CAB7;}
	.st3{fill:#E5DCD1;}
	.st4{fill:#47B2A3;}
	.st5{fill:#CBC8B8;}
	.st6{fill:#B1B0A1;}
	.st7{display:none;fill:#CBC8B8;}
</style>
<rect class="st0" width="500" height="260"/>
<g>
	<rect y="13" class="st1" width="500" height="2"/>
	<rect y="25" class="st1" width="500" height="2"/>
	<rect y="39" class="st1" width="500" height="2"/>
	<rect y="51" class="st1" width="500" height="2"/>
	<rect y="64" class="st1" width="500" height="2"/>
	<rect y="76" class="st1" width="500" height="2"/>
	<rect y="90" class="st1" width="500" height="2"/>
	<rect y="102" class="st1" width="500" height="2"/>
	<rect y="115" class="st1" width="500" height="2"/>
	<rect y="127" class="st1" width="500" height="2"/>
	<rect y="141" class="st1" width="500" height="2"/>
	<rect y="153" class="st1" width="500" height="2"/>
	<rect y="166" class="st1" width="500" height="2"/>
	<rect y="178" class="st1" width="500" height="2"/>
	<rect y="192" class="st1" width="500" height="2"/>
	<rect y="204" class="st1" width="500" height="2"/>
	<rect y="217" class="st1" width="500" height="2"/>
	<rect y="229" class="st1" width="500" height="2"/>
	<rect y="243" class="st1" width="500" height="2"/>
</g>
<g>
	<rect x="141" class="st1" width="2" height="260"/>
	<rect x="129" class="st1" width="2" height="260"/>
	<rect x="115" class="st1" width="2" height="260"/>
	<rect x="103" class="st1" width="2" height="260"/>
	<rect x="90" class="st1" width="2" height="260"/>
	<rect x="78" class="st1" width="2" height="260"/>
	<rect x="64" class="st1" width="2" height="260"/>
	<rect x="52" class="st1" width="2" height="260"/>
	<rect x="39" class="st1" width="2" height="260"/>
	<rect x="27" class="st1" width="2" height="260"/>
	<rect x="13" class="st1" width="2" height="260"/>
	<rect x="282" class="st1" width="2" height="260"/>
	<rect x="270" class="st1" width="2" height="260"/>
	<rect x="256" class="st1" width="2" height="260"/>
	<rect x="244" class="st1" width="2" height="260"/>
	<rect x="231" class="st1" width="2" height="260"/>
	<rect x="219" class="st1" width="2" height="260"/>
	<rect x="205" class="st1" width="2" height="260"/>
	<rect x="193" class="st1" width="2" height="260"/>
	<rect x="180" class="st1" width="2" height="260"/>
	<rect x="168" class="st1" width="2" height="260"/>
	<rect x="154" class="st1" width="2" height="260"/>
	<rect x="322" class="st1" width="2" height="260"/>
	<rect x="310" class="st1" width="2" height="260"/>
	<rect x="296" class="st1" width="2" height="260"/>
	<rect x="424" class="st1" width="2" height="260"/>
	<rect x="412" class="st1" width="2" height="260"/>
	<rect x="398" class="st1" width="2" height="260"/>
	<rect x="386" class="st1" width="2" height="260"/>
	<rect x="373" class="st1" width="2" height="260"/>
	<rect x="361" class="st1" width="2" height="260"/>
	<rect x="347" class="st1" width="2" height="260"/>
	<rect x="335" class="st1" width="2" height="260"/>
	<rect x="463" class="st1" width="2" height="260"/>
	<rect x="451" class="st1" width="2" height="260"/>
	<rect x="437" class="st1" width="2" height="260"/>
	<rect x="489" class="st1" width="2" height="260"/>
	<rect x="475" class="st1" width="2" height="260"/>
</g>
<rect x="152" y="13" class="st1" width="312" height="18"/>
<g>
	<g id="leaf">
		<path class="st2" d="M273.8,14c3.5,5.8,2.4,9.3-0.6,11.1s-6.8,1.1-10.3-4.6c-3.5-5.8-0.8-13.7-0.8-13.7S270.3,8.3,273.8,14z"/>
		<polygon class="st3" points="274.4,24.8 271.8,26.3 264.6,11.1 		"/>
		<polygon class="st3" points="269,18.8 269.5,20 264.3,17.1 		"/>
		<polygon class="st3" points="271.1,22.2 271.5,23.3 266.4,20.5 		"/>
		<polygon class="st3" points="271.5,21.9 272.1,23 272.7,16.3 		"/>
		<polygon class="st3" points="269.3,19.7 269.9,20.7 271,15 		"/>
	</g>
	<g id="leaf_1_">
		<path class="st2" d="M290,17.6c-1.8,6.5-5.1,8.2-8.5,7.2s-5.5-4.2-3.7-10.6s9.4-10,9.4-10S291.8,11.2,290,17.6z"/>
		<polygon class="st3" points="282.6,25.5 279.8,24.7 285.8,9 		"/>
		<polygon class="st3" points="283.3,17.5 282.7,18.6 281.3,12.9 		"/>
		<polygon class="st3" points="282.2,21.3 281.7,22.3 280.2,16.7 		"/>
		<polygon class="st3" points="282.7,21.4 282.4,22.6 287.6,18.4 		"/>
		<polygon class="st3" points="282.8,18.3 282.5,19.4 287.4,16.3 		"/>
	</g>
	<g id="leaf_2_">
		<path class="st2" d="M300,19.6c-1.8,6.5-5.1,8.2-8.5,7.2s-5.5-4.2-3.7-10.6s9.4-10,9.4-10S301.8,13.2,300,19.6z"/>
		<polygon class="st3" points="292.6,27.5 289.8,26.7 295.8,11 		"/>
		<polygon class="st3" points="293.3,19.5 292.7,20.6 291.3,14.9 		"/>
		<polygon class="st3" points="292.2,23.3 291.7,24.3 290.2,18.7 		"/>
		<polygon class="st3" points="292.7,23.4 292.4,24.6 297.6,20.4 		"/>
		<polygon class="st3" points="292.8,20.3 292.5,21.4 297.4,18.3 		"/>
	</g>
	<g id="leaf_3_">
		<path class="st2" d="M318.5,17c1.8,6.5-0.2,9.6-3.5,10.6c-3.4,0.9-6.9-0.7-8.7-7.2C304.5,14,309.2,7,309.2,7S316.7,10.6,318.5,17z
			"/>
		<polygon class="st3" points="316.3,27.5 313.4,28.3 310.5,11.8 		"/>
		<polygon class="st3" points="312.7,20.3 312.8,21.6 308.6,17.5 		"/>
		<polygon class="st3" points="313.8,24.2 313.9,25.3 309.7,21.3 		"/>
		<polygon class="st3" points="314.3,24 314.6,25.2 316.9,18.9 		"/>
		<polygon class="st3" points="312.7,21.3 313.1,22.4 315.6,17.2 		"/>
	</g>
	<g id="leaf_4_">
		<path class="st2" d="M343.5,16c1.8,6.5-0.2,9.6-3.5,10.6c-3.4,0.9-6.9-0.7-8.7-7.2C329.5,13,334.2,6,334.2,6S341.7,9.6,343.5,16z"
			/>
		<polygon class="st3" points="341.3,26.5 338.4,27.3 335.5,10.8 		"/>
		<polygon class="st3" points="337.7,19.3 337.8,20.6 333.6,16.5 		"/>
		<polygon class="st3" points="338.8,23.2 338.9,24.3 334.7,20.3 		"/>
		<polygon class="st3" points="339.3,23 339.6,24.2 341.9,17.9 		"/>
		<polygon class="st3" points="337.7,20.3 338.1,21.4 340.6,16.2 		"/>
	</g>
	<g id="leaf_5_">
		<path class="st2" d="M356.3,19.4c-3.3,5.9-6.9,6.7-10,5s-4.4-5.3-1.1-11.2s11.5-7.5,11.5-7.5S359.5,13.5,356.3,19.4z"/>
		<polygon class="st3" points="347.3,25.3 344.7,23.8 354.3,10 		"/>
		<polygon class="st3" points="349.8,17.6 349,18.6 348.9,12.7 		"/>
		<polygon class="st3" points="347.8,21.1 347.1,22 347,16.2 		"/>
		<polygon class="st3" points="348.3,21.3 347.7,22.4 353.7,19.6 		"/>
		<polygon class="st3" points="349.1,18.4 348.6,19.4 354.1,17.5 		"/>
	</g>
	<g id="leaf_11_">
		<path class="st2" d="M371.8,12c3.5,5.8,2.4,9.3-0.6,11.1s-6.8,1.1-10.3-4.6c-3.5-5.8-0.8-13.7-0.8-13.7S368.3,6.3,371.8,12z"/>
		<polygon class="st3" points="372.4,22.8 369.8,24.3 362.6,9.1 		"/>
		<polygon class="st3" points="367,16.8 367.5,18 362.3,15.1 		"/>
		<polygon class="st3" points="369.1,20.2 369.5,21.3 364.4,18.5 		"/>
		<polygon class="st3" points="369.5,19.9 370.1,21 370.7,14.3 		"/>
		<polygon class="st3" points="367.3,17.7 367.9,18.7 369,13 		"/>
	</g>
	<g id="leaf_10_">
		<path class="st2" d="M388,15.6c-1.8,6.5-5.1,8.2-8.5,7.2s-5.5-4.2-3.7-10.6s9.4-10,9.4-10S389.8,9.2,388,15.6z"/>
		<polygon class="st3" points="380.6,23.5 377.8,22.7 383.8,7 		"/>
		<polygon class="st3" points="381.3,15.5 380.7,16.6 379.3,10.9 		"/>
		<polygon class="st3" points="380.2,19.3 379.7,20.3 378.2,14.7 		"/>
		<polygon class="st3" points="380.7,19.4 380.4,20.6 385.6,16.4 		"/>
		<polygon class="st3" points="380.8,16.3 380.5,17.4 385.4,14.3 		"/>
	</g>
	<g id="leaf_9_">
		<path class="st2" d="M398,17.6c-1.8,6.5-5.1,8.2-8.5,7.2s-5.5-4.2-3.7-10.6s9.4-10,9.4-10S399.8,11.2,398,17.6z"/>
		<polygon class="st3" points="390.6,25.5 387.8,24.7 393.8,9 		"/>
		<polygon class="st3" points="391.3,17.5 390.7,18.6 389.3,12.9 		"/>
		<polygon class="st3" points="390.2,21.3 389.7,22.3 388.2,16.7 		"/>
		<polygon class="st3" points="390.7,21.4 390.4,22.6 395.6,18.4 		"/>
		<polygon class="st3" points="390.8,18.3 390.5,19.4 395.4,16.3 		"/>
	</g>
	<g id="leaf_8_">
		<path class="st2" d="M416.5,15c1.8,6.5-0.2,9.6-3.5,10.6c-3.4,0.9-6.9-0.7-8.7-7.2C402.5,12,407.2,5,407.2,5S414.7,8.6,416.5,15z"
			/>
		<polygon class="st3" points="414.3,25.5 411.4,26.3 408.5,9.8 		"/>
		<polygon class="st3" points="410.7,18.3 410.8,19.6 406.6,15.5 		"/>
		<polygon class="st3" points="411.8,22.2 411.9,23.3 407.7,19.3 		"/>
		<polygon class="st3" points="412.3,22 412.6,23.2 414.9,16.9 		"/>
		<polygon class="st3" points="410.7,19.3 411.1,20.4 413.6,15.2 		"/>
	</g>
	<g id="leaf_7_">
		<path class="st2" d="M441.5,14c1.8,6.5-0.2,9.6-3.5,10.6c-3.4,0.9-6.9-0.7-8.7-7.2C427.5,11,432.2,4,432.2,4S439.7,7.6,441.5,14z"
			/>
		<polygon class="st3" points="439.3,24.5 436.4,25.3 433.5,8.8 		"/>
		<polygon class="st3" points="435.7,17.3 435.8,18.6 431.6,14.5 		"/>
		<polygon class="st3" points="436.8,21.2 436.9,22.3 432.7,18.3 		"/>
		<polygon class="st3" points="437.3,21 437.6,22.2 439.9,15.9 		"/>
		<polygon class="st3" points="435.7,18.3 436.1,19.4 438.6,14.2 		"/>
	</g>
	<g id="leaf_6_">
		<path class="st2" d="M454.3,17.4c-3.3,5.9-6.9,6.7-10,5s-4.4-5.3-1.1-11.2s11.5-7.5,11.5-7.5S457.5,11.5,454.3,17.4z"/>
		<polygon class="st3" points="445.3,23.3 442.7,21.8 452.3,8 		"/>
		<polygon class="st3" points="447.8,15.6 447,16.6 446.9,10.7 		"/>
		<polygon class="st3" points="445.8,19.1 445.1,20 445,14.2 		"/>
		<polygon class="st3" points="446.3,19.3 445.7,20.4 451.7,17.6 		"/>
		<polygon class="st3" points="447.1,16.4 446.6,17.4 452.1,15.5 		"/>
	</g>
	<g id="leaf_22_">
		<path class="st2" d="M175,20.6c-1.8,6.5-5.1,8.2-8.5,7.2s-5.5-4.2-3.7-10.6s9.4-10,9.4-10S176.8,14.2,175,20.6z"/>
		<polygon class="st3" points="167.6,28.5 164.8,27.7 170.8,12 		"/>
		<polygon class="st3" points="168.3,20.5 167.7,21.6 166.3,15.9 		"/>
		<polygon class="st3" points="167.2,24.3 166.7,25.3 165.2,19.7 		"/>
		<polygon class="st3" points="167.7,24.4 167.4,25.6 172.6,21.4 		"/>
		<polygon class="st3" points="167.8,21.3 167.5,22.4 172.4,19.3 		"/>
	</g>
	<g id="leaf_21_">
		<path class="st2" d="M185,22.6c-1.8,6.5-5.1,8.2-8.5,7.2s-5.5-4.2-3.7-10.6s9.4-10,9.4-10S186.8,16.2,185,22.6z"/>
		<polygon class="st3" points="177.6,30.5 174.8,29.7 180.8,14 		"/>
		<polygon class="st3" points="178.3,22.5 177.7,23.6 176.3,17.9 		"/>
		<polygon class="st3" points="177.2,26.3 176.7,27.3 175.2,21.7 		"/>
		<polygon class="st3" points="177.7,26.4 177.4,27.6 182.6,23.4 		"/>
		<polygon class="st3" points="177.8,23.3 177.5,24.4 182.4,21.3 		"/>
	</g>
	<g id="leaf_20_">
		<path class="st2" d="M203.5,20c1.8,6.5-0.2,9.6-3.5,10.6c-3.4,0.9-6.9-0.7-8.7-7.2c-1.8-6.5,2.8-13.4,2.8-13.4
			S201.7,13.6,203.5,20z"/>
		<polygon class="st3" points="201.3,30.5 198.4,31.3 195.5,14.8 		"/>
		<polygon class="st3" points="197.7,23.3 197.8,24.6 193.6,20.5 		"/>
		<polygon class="st3" points="198.8,27.2 198.9,28.3 194.7,24.3 		"/>
		<polygon class="st3" points="199.3,27 199.6,28.2 201.9,21.9 		"/>
		<polygon class="st3" points="197.7,24.3 198.1,25.4 200.6,20.2 		"/>
	</g>
	<g id="leaf_19_">
		<path class="st2" d="M228.5,19c1.8,6.5-0.2,9.6-3.5,10.6c-3.4,0.9-6.9-0.7-8.7-7.2C214.5,16,219.2,9,219.2,9S226.7,12.6,228.5,19z
			"/>
		<polygon class="st3" points="226.3,29.5 223.4,30.3 220.5,13.8 		"/>
		<polygon class="st3" points="222.7,22.3 222.8,23.6 218.6,19.5 		"/>
		<polygon class="st3" points="223.8,26.2 223.9,27.3 219.7,23.3 		"/>
		<polygon class="st3" points="224.3,26 224.6,27.2 226.9,20.9 		"/>
		<polygon class="st3" points="222.7,23.3 223.1,24.4 225.6,19.2 		"/>
	</g>
	<g id="leaf_18_">
		<path class="st2" d="M241.3,22.4c-3.3,5.9-6.9,6.7-10,5s-4.4-5.3-1.1-11.2s11.5-7.5,11.5-7.5S244.5,16.5,241.3,22.4z"/>
		<polygon class="st3" points="232.3,28.3 229.7,26.8 239.3,13 		"/>
		<polygon class="st3" points="234.8,20.6 234,21.6 233.9,15.7 		"/>
		<polygon class="st3" points="232.8,24.1 232.1,25 232,19.2 		"/>
		<polygon class="st3" points="233.3,24.3 232.7,25.4 238.7,22.6 		"/>
		<polygon class="st3" points="234.1,21.4 233.6,22.4 239.1,20.5 		"/>
	</g>
	<g id="leaf_17_">
		<path class="st2" d="M256.8,15c3.5,5.8,2.4,9.3-0.6,11.1s-6.8,1.1-10.3-4.6c-3.5-5.8-0.8-13.7-0.8-13.7S253.3,9.3,256.8,15z"/>
		<polygon class="st3" points="257.4,25.8 254.8,27.3 247.6,12.1 		"/>
		<polygon class="st3" points="252,19.8 252.5,21 247.3,18.1 		"/>
		<polygon class="st3" points="254.1,23.2 254.5,24.3 249.4,21.5 		"/>
		<polygon class="st3" points="254.5,22.9 255.1,24 255.7,17.3 		"/>
		<polygon class="st3" points="252.3,20.7 252.9,21.7 254,16 		"/>
	</g>
	<g id="leaf_16_">
		<path class="st2" d="M273,18.6c-1.8,6.5-5.1,8.2-8.5,7.2s-5.5-4.2-3.7-10.6s9.4-10,9.4-10S274.8,12.2,273,18.6z"/>
		<polygon class="st3" points="265.6,26.5 262.8,25.7 268.8,10 		"/>
		<polygon class="st3" points="266.3,18.5 265.7,19.6 264.3,13.9 		"/>
		<polygon class="st3" points="265.2,22.3 264.7,23.3 263.2,17.7 		"/>
		<polygon class="st3" points="265.7,22.4 265.4,23.6 270.6,19.4 		"/>
		<polygon class="st3" points="265.8,19.3 265.5,20.4 270.4,17.3 		"/>
	</g>
	<g id="leaf_15_">
		<path class="st2" d="M283,20.6c-1.8,6.5-5.1,8.2-8.5,7.2s-5.5-4.2-3.7-10.6s9.4-10,9.4-10S284.8,14.2,283,20.6z"/>
		<polygon class="st3" points="275.6,28.5 272.8,27.7 278.8,12 		"/>
		<polygon class="st3" points="276.3,20.5 275.7,21.6 274.3,15.9 		"/>
		<polygon class="st3" points="275.2,24.3 274.7,25.3 273.2,19.7 		"/>
		<polygon class="st3" points="275.7,24.4 275.4,25.6 280.6,21.4 		"/>
		<polygon class="st3" points="275.8,21.3 275.5,22.4 280.4,19.3 		"/>
	</g>
	<g id="leaf_14_">
		<path class="st2" d="M301.5,18c1.8,6.5-0.2,9.6-3.5,10.6c-3.4,0.9-6.9-0.7-8.7-7.2C287.5,15,292.2,8,292.2,8S299.7,11.6,301.5,18z
			"/>
		<polygon class="st3" points="299.3,28.5 296.4,29.3 293.5,12.8 		"/>
		<polygon class="st3" points="295.7,21.3 295.8,22.6 291.6,18.5 		"/>
		<polygon class="st3" points="296.8,25.2 296.9,26.3 292.7,22.3 		"/>
		<polygon class="st3" points="297.3,25 297.6,26.2 299.9,19.9 		"/>
		<polygon class="st3" points="295.7,22.3 296.1,23.4 298.6,18.2 		"/>
	</g>
	<g id="leaf_13_">
		<path class="st2" d="M326.5,17c1.8,6.5-0.2,9.6-3.5,10.6c-3.4,0.9-6.9-0.7-8.7-7.2C312.5,14,317.2,7,317.2,7S324.7,10.6,326.5,17z
			"/>
		<polygon class="st3" points="324.3,27.5 321.4,28.3 318.5,11.8 		"/>
		<polygon class="st3" points="320.7,20.3 320.8,21.6 316.6,17.5 		"/>
		<polygon class="st3" points="321.8,24.2 321.9,25.3 317.7,21.3 		"/>
		<polygon class="st3" points="322.3,24 322.6,25.2 324.9,18.9 		"/>
		<polygon class="st3" points="320.7,21.3 321.1,22.4 323.6,17.2 		"/>
	</g>
	<g id="leaf_12_">
		<path class="st2" d="M339.3,20.4c-3.3,5.9-6.9,6.7-10,5s-4.4-5.3-1.1-11.2s11.5-7.5,11.5-7.5S342.5,14.5,339.3,20.4z"/>
		<polygon class="st3" points="330.3,26.3 327.7,24.8 337.3,11 		"/>
		<polygon class="st3" points="332.8,18.6 332,19.6 331.9,13.7 		"/>
		<polygon class="st3" points="330.8,22.1 330.1,23 330,17.2 		"/>
		<polygon class="st3" points="331.3,22.3 330.7,23.4 336.7,20.6 		"/>
		<polygon class="st3" points="332.1,19.4 331.6,20.4 337.1,18.5 		"/>
	</g>
</g>
<g>
	<rect y="153" class="st4" width="103" height="107"/>
	<path class="st5" d="M103,194v66c0,0-44.2-8.8-73-38c-30.5-31-30-69-30-69h65c0,0,0.3,10.6,13.5,26C90.5,193,103,194,103,194z"/>
	<g id="leaf_41_">
		<path class="st2" d="M98.5,179c1.8,6.5-0.2,9.6-3.5,10.6c-3.4,0.9-6.9-0.7-8.7-7.2c-1.8-6.5,2.8-13.4,2.8-13.4
			S96.7,172.6,98.5,179z"/>
		<polygon class="st3" points="96.3,189.5 93.4,190.3 90.5,173.8 		"/>
		<polygon class="st3" points="92.7,182.3 92.8,183.6 88.6,179.5 		"/>
		<polygon class="st3" points="93.8,186.2 93.9,187.3 89.7,183.3 		"/>
		<polygon class="st3" points="94.3,186 94.6,187.2 96.9,180.9 		"/>
		<polygon class="st3" points="92.7,183.3 93.1,184.4 95.6,179.2 		"/>
	</g>
	<g id="leaf_40_">
		<path class="st2" d="M89.8,180.3c-6.2,2.5-9.6,0.9-10.9-2.3s-0.1-6.9,6.2-9.4c6.2-2.5,13.7,1.3,13.7,1.3S96,177.8,89.8,180.3z"/>
		<polygon class="st3" points="79.1,179.2 78,176.4 94.1,171.7 		"/>
		<polygon class="st3" points="85.9,174.8 84.6,175.1 88.3,170.5 		"/>
		<polygon class="st3" points="82.2,176.3 81,176.6 84.5,172 		"/>
		<polygon class="st3" points="82.4,176.8 81.2,177.3 87.7,178.8 		"/>
		<polygon class="st3" points="84.9,175 83.8,175.5 89.3,177.4 		"/>
	</g>
	<g id="leaf_39_">
		<path class="st2" d="M106.5,184.3c-0.9,6.7-4,8.8-7.4,8.3c-3.5-0.5-6-3.4-5.1-10s7.9-11.2,7.9-11.2S107.4,177.6,106.5,184.3z"/>
		<polygon class="st3" points="100.3,193 97.3,192.6 101.2,176.2 		"/>
		<polygon class="st3" points="99.8,185 99.4,186.2 97.2,180.7 		"/>
		<polygon class="st3" points="99.3,188.9 98.9,190 96.7,184.7 		"/>
		<polygon class="st3" points="99.8,188.9 99.6,190.2 104.2,185.3 		"/>
		<polygon class="st3" points="99.5,185.9 99.3,187 103.8,183.3 		"/>
	</g>
	<g id="leaf_38_">
		<path class="st2" d="M111.8,193.1c-5.5,3.9-9.1,3.2-11.2,0.3c-2-2.8-1.7-6.7,3.8-10.6c5.5-3.9,13.6-2,13.6-2
			S117.2,189.2,111.8,193.1z"/>
		<polygon class="st3" points="101.2,194.6 99.4,192.1 114,183.7 		"/>
		<polygon class="st3" points="106.7,188.7 105.6,189.3 108,183.9 		"/>
		<polygon class="st3" points="103.4,191.1 102.4,191.6 104.7,186.2 		"/>
		<polygon class="st3" points="103.8,191.5 102.8,192.2 109.4,192.2 		"/>
		<polygon class="st3" points="105.8,189.1 104.8,189.8 110.6,190.4 		"/>
	</g>
	<g id="leaf_37_">
		<path class="st2" d="M98,174.6c-1.8,6.5-5.1,8.2-8.5,7.2s-5.5-4.2-3.7-10.6c1.8-6.5,9.4-10,9.4-10S99.8,168.2,98,174.6z"/>
		<polygon class="st3" points="90.6,182.5 87.8,181.7 93.8,166 		"/>
		<polygon class="st3" points="91.3,174.5 90.7,175.6 89.3,169.9 		"/>
		<polygon class="st3" points="90.2,178.3 89.7,179.3 88.2,173.7 		"/>
		<polygon class="st3" points="90.7,178.4 90.4,179.6 95.6,175.4 		"/>
		<polygon class="st3" points="90.8,175.3 90.5,176.4 95.4,173.3 		"/>
	</g>
	<g id="leaf_35_">
		<path class="st2" d="M76.5,160c1.8,6.5-0.2,9.6-3.5,10.6c-3.4,0.9-6.9-0.7-8.7-7.2c-1.8-6.5,2.8-13.4,2.8-13.4
			S74.7,153.6,76.5,160z"/>
		<polygon class="st3" points="74.3,170.5 71.4,171.3 68.5,154.8 		"/>
		<polygon class="st3" points="70.7,163.3 70.8,164.6 66.6,160.5 		"/>
		<polygon class="st3" points="71.8,167.2 71.9,168.3 67.7,164.3 		"/>
		<polygon class="st3" points="72.3,167 72.6,168.2 74.9,161.9 		"/>
		<polygon class="st3" points="70.7,164.3 71.1,165.4 73.6,160.2 		"/>
	</g>
	<g id="leaf_34_">
		<path class="st2" d="M89.3,163.4c-3.3,5.9-6.9,6.7-10,5s-4.4-5.3-1.1-11.2s11.5-7.5,11.5-7.5S92.5,157.5,89.3,163.4z"/>
		<polygon class="st3" points="80.3,169.3 77.7,167.8 87.3,154 		"/>
		<polygon class="st3" points="82.8,161.6 82,162.6 81.9,156.7 		"/>
		<polygon class="st3" points="80.8,165.1 80.1,166 80,160.2 		"/>
		<polygon class="st3" points="81.3,165.3 80.7,166.4 86.7,163.6 		"/>
		<polygon class="st3" points="82.1,162.4 81.6,163.4 87.1,161.5 		"/>
	</g>
	<g id="leaf_33_">
		<path class="st2" d="M10.2,204.6c-1.4,6.5-4,8.2-6.6,7.2s-4.3-4.2-2.9-10.6c1.4-6.5,7.3-10,7.3-10S11.6,198.2,10.2,204.6z"/>
		<polygon class="st3" points="4.4,212.5 2.2,211.7 6.9,196 		"/>
		<polygon class="st3" points="4.9,204.5 4.5,205.6 3.4,199.9 		"/>
		<polygon class="st3" points="4.1,208.3 3.7,209.3 2.5,203.7 		"/>
		<polygon class="st3" points="4.5,208.4 4.3,209.6 8.3,205.4 		"/>
		<polygon class="st3" points="4.6,205.3 4.4,206.4 8.2,203.3 		"/>
	</g>
	<g id="leaf_32_">
		<path class="st2" d="M12,237.6c-1.4,6.5-4,8.2-6.6,7.2c-2.6-0.9-4.3-4.2-2.9-10.6c1.4-6.5,7.3-10,7.3-10S13.4,231.2,12,237.6z"/>
		<polygon class="st3" points="6.3,245.5 4,244.7 8.8,229 		"/>
		<polygon class="st3" points="6.8,237.5 6.3,238.6 5.2,232.9 		"/>
		<polygon class="st3" points="5.9,241.3 5.5,242.3 4.3,236.7 		"/>
		<polygon class="st3" points="6.3,241.4 6.1,242.6 10.1,238.4 		"/>
		<polygon class="st3" points="6.4,238.3 6.2,239.4 10,236.3 		"/>
	</g>
	<g id="leaf_31_">
		<path class="st2" d="M40.5,248c1.4,6.5-0.1,9.6-2.8,10.6c-2.6,0.9-5.4-0.7-6.8-7.2c-1.4-6.5,2.2-13.4,2.2-13.4
			S39.1,241.6,40.5,248z"/>
		<polygon class="st3" points="38.8,258.5 36.5,259.3 34.2,242.8 		"/>
		<polygon class="st3" points="36,251.3 36.1,252.6 32.8,248.5 		"/>
		<polygon class="st3" points="36.8,255.2 36.9,256.3 33.6,252.3 		"/>
		<polygon class="st3" points="37.2,255 37.5,256.2 39.2,249.9 		"/>
		<polygon class="st3" points="36,252.3 36.3,253.4 38.2,248.2 		"/>
	</g>
	<g id="leaf_30_">
		<path class="st2" d="M60.1,247c1.4,6.5-0.1,9.6-2.8,10.6c-2.6,0.9-5.4-0.7-6.8-7.2c-1.4-6.5,2.2-13.4,2.2-13.4
			S58.7,240.6,60.1,247z"/>
		<polygon class="st3" points="58.3,257.5 56.1,258.3 53.8,241.8 		"/>
		<polygon class="st3" points="55.5,250.3 55.6,251.6 52.3,247.5 		"/>
		<polygon class="st3" points="56.4,254.2 56.4,255.3 53.2,251.3 		"/>
		<polygon class="st3" points="56.8,254 57,255.2 58.8,248.9 		"/>
		<polygon class="st3" points="55.6,251.3 55.8,252.4 57.8,247.2 		"/>
	</g>
	<g id="leaf_29_">
		<path class="st2" d="M72.1,254.4c-2.6,5.9-5.4,6.7-7.8,5c-2.4-1.7-3.4-5.3-0.9-11.2c2.6-5.9,9-7.5,9-7.5S74.6,248.5,72.1,254.4z"
			/>
		<polygon class="st3" points="65,260.3 63,258.8 70.5,245 		"/>
		<polygon class="st3" points="67,252.6 66.4,253.6 66.3,247.7 		"/>
		<polygon class="st3" points="65.5,256.1 64.9,257 64.8,251.2 		"/>
		<polygon class="st3" points="65.8,256.3 65.4,257.4 70.1,254.6 		"/>
		<polygon class="st3" points="66.5,253.4 66,254.4 70.3,252.5 		"/>
	</g>
	<g id="leaf_28_">
		<path class="st2" d="M30.2,248c2.7,5.8,1.9,9.3-0.5,11.1c-2.3,1.8-5.3,1.1-8-4.6c-2.7-5.8-0.7-13.7-0.7-13.7S27.5,242.3,30.2,248z
			"/>
		<polygon class="st3" points="30.7,258.8 28.7,260.3 23,245.1 		"/>
		<polygon class="st3" points="26.5,252.8 26.8,254 22.8,251.1 		"/>
		<polygon class="st3" points="28.1,256.2 28.4,257.3 24.4,254.5 		"/>
		<polygon class="st3" points="28.4,255.9 28.9,257 29.3,250.3 		"/>
		<polygon class="st3" points="26.7,253.7 27.2,254.7 28,249 		"/>
	</g>
	<g id="leaf_27_">
		<path class="st2" d="M16.7,249c1.6,6.4,0,9.1-2.7,9.4c-2.8,0.3-5.7-1.8-7.3-8.2C5.1,243.8,8.8,238,8.8,238S15.1,242.6,16.7,249z"
			/>
		<polygon class="st3" points="15.1,258.6 12.7,258.9 10,242.7 		"/>
		<polygon class="st3" points="11.9,251.2 12.1,252.4 8.5,247.8 		"/>
		<polygon class="st3" points="12.9,255 13,256.1 9.5,251.6 		"/>
		<polygon class="st3" points="13.3,254.9 13.6,256.1 15.4,250.5 		"/>
		<polygon class="st3" points="12,252.1 12.3,253.2 14.3,248.7 		"/>
	</g>
	<g id="leaf_26_">
		<path class="st2" d="M24.6,247.3c1.6,6.4,0,9.1-2.7,9.4c-2.8,0.3-5.7-1.8-7.3-8.2c-1.6-6.4,2.1-12.2,2.1-12.2S23,240.9,24.6,247.3
			z"/>
		<polygon class="st3" points="23,256.9 20.6,257.2 17.9,241 		"/>
		<polygon class="st3" points="19.9,249.5 20,250.7 16.4,246.1 		"/>
		<polygon class="st3" points="20.8,253.3 20.9,254.4 17.4,249.9 		"/>
		<polygon class="st3" points="21.2,253.2 21.5,254.4 23.3,248.9 		"/>
		<polygon class="st3" points="19.9,250.4 20.2,251.5 22.2,247 		"/>
	</g>
	<g id="leaf_25_">
		<path class="st2" d="M36.8,243.2c-1.7,6.4-4.5,8.5-7.3,8.1c-2.8-0.4-4.4-3.1-2.7-9.5c1.7-6.4,8.1-10.9,8.1-10.9
			S38.5,236.8,36.8,243.2z"/>
		<polygon class="st3" points="39.6,248.7 37.9,250.5 28.5,236.6 		"/>
		<polygon class="st3" points="33.9,243.5 34.5,244.6 29.7,242.4 		"/>
		<polygon class="st3" points="36.3,246.6 36.9,247.6 32.2,245.5 		"/>
		<polygon class="st3" points="36.6,246.3 37.4,247.2 36.2,240.8 		"/>
		<polygon class="st3" points="34.3,244.4 35.1,245.3 34.5,239.7 		"/>
	</g>
	<g id="leaf_24_">
		<path class="st2" d="M50,247.9c4.1,5.2,4.2,8.7,2.2,10.7c-1.9,2-5.1,1.7-9.3-3.4c-4.1-5.2-4-13-4-13S45.8,242.7,50,247.9z"/>
		<polygon class="st3" points="53,258 51.4,259.8 42,245.9 		"/>
		<polygon class="st3" points="47.3,252.9 48,253.9 43.2,251.7 		"/>
		<polygon class="st3" points="49.8,255.9 50.4,256.9 45.6,254.8 		"/>
		<polygon class="st3" points="50,255.6 50.8,256.6 49.6,250.1 		"/>
		<polygon class="st3" points="47.8,253.7 48.5,254.6 48,249 		"/>
	</g>
	<g id="leaf_23_">
		<path class="st2" d="M10.4,223.5c0.3,6.4-1.9,8.4-4.8,8c-2.9-0.5-5.4-3.3-5.7-9.7c-0.3-6.4,4.7-10.7,4.7-10.7
			S10.1,217.1,10.4,223.5z"/>
		<polygon class="st3" points="6.7,231.9 4.2,231.5 4.8,215.7 		"/>
		<polygon class="st3" points="5.1,224.1 4.9,225.3 2.3,220 		"/>
		<polygon class="st3" points="5.2,228 5.1,229 2.4,223.9 		"/>
		<polygon class="st3" points="5.7,228 5.7,229.2 8.7,224.5 		"/>
		<polygon class="st3" points="4.9,225 5,226.1 8,222.5 		"/>
	</g>
	<g id="leaf_44_">
		<path class="st2" d="M15.5,221.3c-0.9,6.6-3.5,9-6.3,9c-2.8,0-4.8-2.5-3.8-9.1c0.9-6.6,6.8-11.8,6.8-11.8S16.4,214.7,15.5,221.3z"
			/>
		<polygon class="st3" points="10.2,230.5 7.8,230.4 11.4,214.1 		"/>
		<polygon class="st3" points="10.1,222.8 9.7,223.9 8.1,218.9 		"/>
		<polygon class="st3" points="9.5,226.7 9.2,227.8 7.5,222.9 		"/>
		<polygon class="st3" points="9.9,226.6 9.8,227.8 13.6,222.6 		"/>
		<polygon class="st3" points="9.8,223.7 9.6,224.8 13.3,220.6 		"/>
	</g>
	<g id="leaf_43_">
		<path class="st2" d="M25.4,225c-0.9,6.6-3.5,9-6.3,9c-2.8,0-4.8-2.5-3.8-9.1C16.2,218.2,22,213,22,213S26.3,218.4,25.4,225z"/>
		<polygon class="st3" points="20.1,234.2 17.7,234.1 21.3,217.8 		"/>
		<polygon class="st3" points="20,226.5 19.6,227.6 18,222.6 		"/>
		<polygon class="st3" points="19.4,230.4 19.1,231.5 17.4,226.5 		"/>
		<polygon class="st3" points="19.8,230.3 19.6,231.5 23.5,226.3 		"/>
		<polygon class="st3" points="19.7,227.4 19.5,228.5 23.2,224.3 		"/>
	</g>
	<g id="leaf_42_">
		<path class="st2" d="M33.5,231.6c-4.5,4.6-7.4,4.4-9.1,2c-1.6-2.4-1.3-6.2,3.1-10.8s11-3.9,11-3.9S38,227,33.5,231.6z"/>
		<polygon class="st3" points="24.9,234.6 23.5,232.6 35.4,222.2 		"/>
		<polygon class="st3" points="29.4,228.2 28.5,228.9 30.5,223.3 		"/>
		<polygon class="st3" points="26.8,230.9 25.9,231.5 27.8,226.1 		"/>
		<polygon class="st3" points="27,231.2 26.2,232.1 31.6,231.1 		"/>
		<polygon class="st3" points="28.7,228.7 27.9,229.5 32.6,229.2 		"/>
	</g>
</g>
<path class="st6" d="M500,260H272c0,0,31.3-37.6,39.3-46.8c10.2-11.7,43.8-12.9,57.3-29.1c9.3-11.1,60-5.7,74.1-13.7
	C464.1,158.3,500,151,500,151V260z"/>
<path class="st5" d="M500,260H272c0,0,5.6-63.8,50.5-60.6c67,4.8,82,5.7,138.1-16.1c22.9-8.9,39.3-9.7,39.3-9.7V260z"/>
<rect x="197" y="45" class="st7" width="121" height="35"/>
<rect x="336" y="45" class="st7" width="121" height="35"/>
<rect x="152" y="31" class="st7" width="35" height="165"/>
</svg>
