<?xml version="1.0" encoding="utf-8"?>
<!-- Generator: Adobe Illustrator 19.2.1, SVG Export Plug-In . SVG Version: 6.00 Build 0)  -->
<svg version="1.1" id="图层_1" xmlns="http://www.w3.org/2000/svg" xmlns:xlink="http://www.w3.org/1999/xlink" x="0px" y="0px"
	 viewBox="0 0 56 68.1" style="enable-background:new 0 0 56 68.1;" xml:space="preserve">
<style type="text/css">
	.st0{fill:#CBC8B8;}
	.st1{fill:#BCBAAF;}
	.st2{fill:#5E5951;}
</style>
<g id="char">
	<path class="st0" d="M5.5,3.5C5.5,1.6,5.9,0,7.8,0h40.1c1.9,0,2.3,1.6,2.3,3.5c0,0,0,29.2,0,38.9H5.5C5.5,32.7,5.5,3.5,5.5,3.5z"/>
	<path class="st1" d="M56,65.9c0,1.2-1.6,2.1-3.5,2.1h-49c-1.9,0-3.5-1-3.5-2.1c0,0,9.1-17.7,9.1-23.5h38.6
		C47.8,48.2,56,65.9,56,65.9z"/>
	<path class="st2" d="M46.3,9.7c0-0.6,0.5-1.2,1.2-1.2h5.4c0.6,0,1.2,0.5,1.2,1.2v31.9c0,0.7-0.5,1.2-1.2,1.2h-5.4
		c-0.6,0-1.2-0.5-1.2-1.2V9.7z"/>
	<path class="st2" d="M2,9.7c0-0.6,0.5-1.2,1.2-1.2h5.4c0.6,0,1.2,0.5,1.2,1.2v31.9c0,0.7-0.5,1.2-1.2,1.2H3.1
		c-0.6,0-1.2-0.5-1.2-1.2V9.7z"/>
</g>
</svg>
