<?xml version="1.0" encoding="utf-8"?>
<!-- Generator: Adobe Illustrator 19.2.1, SVG Export Plug-In . SVG Version: 6.00 Build 0)  -->
<svg version="1.1" id="图层_1" xmlns="http://www.w3.org/2000/svg" xmlns:xlink="http://www.w3.org/1999/xlink" x="0px" y="0px"
	 viewBox="0 0 120 120" style="enable-background:new 0 0 120 120;" xml:space="preserve">
<style type="text/css">
	.st0{fill:#474747;}
	.st1{fill:#333333;}
	.st2{fill:#E2E0D6;stroke:#4D4D4D;stroke-miterlimit:10;}
	.st3{fill:#F2F2F2;}
	.st4{fill:#FFFFFA;}
	.st5{fill:#B28338;}
	.st6{fill:#E1D4B0;}
	.st7{fill:#C69C6D;}
	.st8{fill:#E2C1A1;}
	.st9{fill:#FC56A1;}
	.st10{fill:#F9C0D8;}
	.st11{fill:none;stroke:#3FA9F5;stroke-width:0.25;stroke-linecap:round;stroke-miterlimit:10;}
	.st12{fill:none;stroke:#CCCCCC;stroke-width:0.25;stroke-linecap:round;stroke-miterlimit:10;}
	.st13{fill:none;stroke:#CFAD49;stroke-width:0.25;stroke-linecap:round;stroke-miterlimit:10;}
	.st14{fill:none;stroke:#FF1D25;stroke-width:0.25;stroke-linecap:round;stroke-miterlimit:10;}
	.st15{fill:none;stroke:#CBC8B8;stroke-width:0.25;stroke-linecap:round;stroke-miterlimit:10;}
	.st16{fill:#895313;}
	.st17{fill:#8E6523;}
</style>
<g>
	<path class="st0" d="M14.5,72.9c6.2-10.8,16-7.5,26.7-1.3c10.8,6.2,18.4,13,12.2,23.8c-6.2,10.7-23.5,20.5-34.2,14.3
		S8.3,83.7,14.5,72.9z"/>
	<path class="st1" d="M13.9,71c4.3-5,9.3-8.5,12.6-6.6c2.3,1.3,2.7,4,1.7,5.7c-3.6,6.2-15.1,18.6-15,26c0,3.8,17,14.2,20.7,12
		c5.2-3.1,10.7-19,14.7-26c1.3-2.3,3-3.1,5.9-1.4c4,2.3,3.4,8.1,0.9,14.2c-2.6,6.3-7.7,14.8-11.2,19.5c-4,5.3-10.5,7.2-16.8,5.1
		c-5.9-2-16.2-7.8-20.7-12c-4.9-4.5-6.8-11.1-3.9-17.1C5.3,85.1,10.4,75.1,13.9,71z"/>
</g>
<g>
	<path class="st0" d="M68.9,95.7c-6.3-10.7,1.3-17.7,12-24c10.7-6.3,20.5-9.7,26.8,1c6.3,10.7,6.4,30.6-4.4,37
		C92.7,116,75.3,106.4,68.9,95.7z"/>
	<path class="st1" d="M67,95.2C64.7,89,64.1,82.9,67.4,81c2.3-1.3,4.9-0.4,5.9,1.3c3.7,6.2,8.9,22.4,15.4,26
		c3.3,1.8,20.8-7.9,20.7-12.2c-0.1-6.1-11.4-18.7-15.5-25.6c-1.4-2.3-1.3-4.1,1.6-5.9c3.9-2.3,8.7,1,12.8,6.2
		c4.2,5.3,9.1,14,11.5,19.4c2.7,6.1,1.1,12.8-3.8,17.2c-4.7,4.2-14.8,10.3-20.7,12.2c-6.3,2-13.1,0.5-16.9-5
		C75,109.7,68.8,100.3,67,95.2z"/>
</g>
<rect x="0.5" y="0.5" class="st2" width="119" height="60.8"/>
<g id="coffee">
	<path class="st3" d="M88.2,35.4c0,0.3-0.2,0.5-0.5,0.5h-3.2c-0.3,0-0.5-0.2-0.5-0.5v-0.6c0-0.3,0.2-0.5,0.5-0.5h3.2
		c0.3,0,0.5,0.2,0.5,0.5V35.4z"/>
	<circle class="st3" cx="77.9" cy="34.9" r="6.7"/>
	<circle class="st4" cx="77.9" cy="34.9" r="6.3"/>
	<circle class="st5" cx="77.7" cy="34.9" r="5.9"/>
	<path class="st6" d="M80.7,34.1c0,1.6-2.9,3.5-2.9,3.5s-3-1.9-3-3.4c0-1,0.7-1.4,1.4-1.4c0.7,0,1.6,1.2,1.6,1.2s0.7-1.2,1.4-1.2
		C79.9,32.8,80.7,33.2,80.7,34.1z"/>
</g>
<g id="donut">
	<circle class="st3" cx="44.2" cy="36.6" r="13.5"/>
	<g id="do">
		<path class="st7" d="M45.7,37.9c0,3-2.5,5.5-5.5,5.5s-5.5-2.5-5.5-5.5c0-3,2.5-5.5,5.5-5.5S45.7,34.9,45.7,37.9z M40.2,33.8
			c-2.3,0-4.2,1.9-4.2,4.2s1.9,4.2,4.2,4.2c2.3,0,4.2-1.9,4.2-4.2C44.3,35.6,42.5,33.8,40.2,33.8z"/>
		<path class="st8" d="M45.8,37.7c0,3-2.4,5.4-5.4,5.4c-3,0-5.4-2.4-5.4-5.4c0-3,2.4-5.4,5.4-5.4C43.4,32.3,45.8,34.8,45.8,37.7z
			 M40.4,33.7c-2.3,0-4.1,1.8-4.1,4.1c0,2.3,1.8,4.1,4.1,4.1c2.3,0,4.1-1.8,4.1-4.1C44.4,35.5,42.6,33.7,40.4,33.7z"/>
		<path class="st9" d="M45.1,37.8c0,2.6-2.1,4.7-4.7,4.7c-2.6,0-4.7-2.1-4.7-4.7c0-2.6,2.1-4.7,4.7-4.7C43,33.1,45.1,35.2,45.1,37.8
			z M40.4,35c-1.5,0-2.8,1.3-2.8,2.8s1.3,2.8,2.8,2.8c1.5,0,2.8-1.3,2.8-2.8C43.2,36.2,42,35,40.4,35z"/>
		<path class="st10" d="M45.1,37.7c0,2.5-2,4.6-4.6,4.6s-4.6-2-4.6-4.6c0-2.5,2-4.6,4.6-4.6S45.1,35.2,45.1,37.7z M40.5,34.9
			c-1.5,0-2.8,1.3-2.8,2.8c0,1.5,1.3,2.8,2.8,2.8c1.5,0,2.8-1.3,2.8-2.8C43.3,36.1,42.1,34.9,40.5,34.9z"/>
		<g>
			<line class="st11" x1="39.3" y1="33.7" x2="39.6" y2="33.9"/>
			<line class="st12" x1="39.9" y1="33.9" x2="40.3" y2="33.8"/>
			<line class="st13" x1="37.5" y1="34.6" x2="38" y2="34.9"/>
			<line class="st14" x1="37" y1="36" x2="37.6" y2="36"/>
			<line class="st13" x1="37" y1="39.5" x2="37.5" y2="39.8"/>
			<line class="st13" x1="43.9" y1="39.5" x2="44.1" y2="39"/>
			<line class="st13" x1="43.8" y1="37.8" x2="44.3" y2="38.1"/>
			<line class="st14" x1="41.3" y1="41.5" x2="41.9" y2="41.6"/>
			<line class="st11" x1="38.8" y1="41" x2="39.4" y2="41.1"/>
			<line class="st15" x1="39" y1="41.4" x2="39.6" y2="41.2"/>
			<line class="st11" x1="36.7" y1="37.9" x2="37.3" y2="38"/>
			<line class="st13" x1="37.1" y1="37.6" x2="37.3" y2="37.1"/>
			<line class="st14" x1="44" y1="36.5" x2="44.6" y2="36.6"/>
			<line class="st14" x1="42.7" y1="40.2" x2="43.1" y2="40.2"/>
			<line class="st11" x1="43.1" y1="35.8" x2="43.5" y2="35.9"/>
			<line class="st13" x1="42.1" y1="34.4" x2="42.7" y2="34.5"/>
			<line class="st14" x1="41.4" y1="34.2" x2="41.7" y2="34.7"/>
		</g>
	</g>
	<g id="do_1_">
		<path class="st7" d="M53.1,41.3c0,3-2.5,5.5-5.5,5.5c-3,0-5.5-2.5-5.5-5.5s2.5-5.5,5.5-5.5C50.7,35.8,53.1,38.2,53.1,41.3z
			 M47.6,37.1c-2.3,0-4.2,1.9-4.2,4.2s1.9,4.2,4.2,4.2c2.3,0,4.2-1.9,4.2-4.2S49.9,37.1,47.6,37.1z"/>
		<path class="st8" d="M53.2,41.1c0,3-2.4,5.4-5.4,5.4s-5.4-2.4-5.4-5.4c0-3,2.4-5.4,5.4-5.4S53.2,38.1,53.2,41.1z M47.8,37
			c-2.3,0-4.1,1.8-4.1,4.1s1.8,4.1,4.1,4.1s4.1-1.8,4.1-4.1S50.1,37,47.8,37z"/>
		<path class="st9" d="M52.6,41.1c0,2.6-2.1,4.7-4.7,4.7c-2.6,0-4.7-2.1-4.7-4.7c0-2.6,2.1-4.7,4.7-4.7
			C50.5,36.4,52.6,38.5,52.6,41.1z M47.9,38.3c-1.5,0-2.8,1.3-2.8,2.8c0,1.5,1.3,2.8,2.8,2.8c1.5,0,2.8-1.3,2.8-2.8
			C50.7,39.6,49.4,38.3,47.9,38.3z"/>
		<path class="st10" d="M52.6,41c0,2.5-2,4.6-4.6,4.6c-2.5,0-4.6-2-4.6-4.6s2-4.6,4.6-4.6C50.5,36.4,52.6,38.5,52.6,41z M48,38.2
			c-1.5,0-2.8,1.3-2.8,2.8c0,1.5,1.3,2.8,2.8,2.8c1.5,0,2.8-1.3,2.8-2.8C50.8,39.5,49.5,38.2,48,38.2z"/>
		<g>
			<line class="st11" x1="46.8" y1="37" x2="47.1" y2="37.2"/>
			<line class="st12" x1="47.4" y1="37.2" x2="47.7" y2="37.1"/>
			<line class="st13" x1="45" y1="37.9" x2="45.5" y2="38.3"/>
			<line class="st14" x1="44.5" y1="39.3" x2="45.1" y2="39.4"/>
			<line class="st13" x1="44.4" y1="42.8" x2="44.9" y2="43.1"/>
			<line class="st13" x1="51.4" y1="42.8" x2="51.6" y2="42.3"/>
			<line class="st13" x1="51.2" y1="41.2" x2="51.7" y2="41.5"/>
			<line class="st14" x1="48.8" y1="44.8" x2="49.4" y2="44.9"/>
			<line class="st11" x1="46.3" y1="44.4" x2="46.9" y2="44.5"/>
			<line class="st15" x1="46.5" y1="44.7" x2="47" y2="44.5"/>
			<line class="st11" x1="44.2" y1="41.2" x2="44.8" y2="41.3"/>
			<line class="st13" x1="44.6" y1="40.9" x2="44.8" y2="40.5"/>
			<line class="st14" x1="51.5" y1="39.8" x2="52" y2="39.9"/>
			<line class="st14" x1="50.2" y1="43.5" x2="50.6" y2="43.5"/>
			<line class="st11" x1="50.6" y1="39.1" x2="51" y2="39.2"/>
			<line class="st13" x1="49.6" y1="37.7" x2="50.2" y2="37.8"/>
			<line class="st14" x1="48.9" y1="37.5" x2="49.2" y2="38"/>
		</g>
	</g>
	<g id="do_2_">
		<path class="st7" d="M52.7,31.5c0,3-2.5,5.5-5.5,5.5s-5.5-2.5-5.5-5.5c0-3,2.5-5.5,5.5-5.5C50.3,26,52.7,28.5,52.7,31.5z
			 M47.2,27.4c-2.3,0-4.2,1.9-4.2,4.2c0,2.3,1.9,4.2,4.2,4.2c2.3,0,4.2-1.9,4.2-4.2C51.4,29.2,49.5,27.4,47.2,27.4z"/>
		<path class="st8" d="M52.8,31.3c0,3-2.4,5.4-5.4,5.4c-3,0-5.4-2.4-5.4-5.4s2.4-5.4,5.4-5.4C50.4,25.9,52.8,28.3,52.8,31.3z
			 M47.4,27.2c-2.3,0-4.1,1.8-4.1,4.1s1.8,4.1,4.1,4.1c2.3,0,4.1-1.8,4.1-4.1S49.7,27.2,47.4,27.2z"/>
		<path class="st16" d="M52.2,31.3c0,2.6-2.1,4.7-4.7,4.7c-2.6,0-4.7-2.1-4.7-4.7s2.1-4.7,4.7-4.7C50.1,26.7,52.2,28.8,52.2,31.3z
			 M47.5,28.5c-1.5,0-2.8,1.3-2.8,2.8c0,1.5,1.3,2.8,2.8,2.8c1.5,0,2.8-1.3,2.8-2.8C50.3,29.8,49,28.5,47.5,28.5z"/>
		<path class="st17" d="M52.2,31.2c0,2.5-2,4.6-4.6,4.6s-4.6-2-4.6-4.6c0-2.5,2-4.6,4.6-4.6S52.2,28.7,52.2,31.2z M47.6,28.4
			c-1.5,0-2.8,1.3-2.8,2.8c0,1.5,1.3,2.8,2.8,2.8s2.8-1.3,2.8-2.8C50.4,29.7,49.1,28.4,47.6,28.4z"/>
		<g>
			<line class="st11" x1="46.4" y1="27.3" x2="46.7" y2="27.5"/>
			<line class="st12" x1="47" y1="27.4" x2="47.3" y2="27.3"/>
			<line class="st13" x1="44.6" y1="28.2" x2="45" y2="28.5"/>
			<line class="st14" x1="44.1" y1="29.6" x2="44.7" y2="29.6"/>
			<line class="st13" x1="44" y1="33" x2="44.5" y2="33.3"/>
			<line class="st13" x1="51" y1="33.1" x2="51.2" y2="32.5"/>
			<line class="st13" x1="50.8" y1="31.4" x2="51.3" y2="31.7"/>
			<line class="st14" x1="48.4" y1="35" x2="48.9" y2="35.1"/>
			<line class="st11" x1="45.9" y1="34.6" x2="46.4" y2="34.7"/>
			<line class="st15" x1="46.1" y1="35" x2="46.6" y2="34.8"/>
			<line class="st11" x1="43.8" y1="31.5" x2="44.4" y2="31.6"/>
			<line class="st13" x1="44.2" y1="31.2" x2="44.4" y2="30.7"/>
			<line class="st14" x1="51.1" y1="30" x2="51.6" y2="30.1"/>
			<line class="st14" x1="49.8" y1="33.7" x2="50.2" y2="33.8"/>
			<line class="st11" x1="50.2" y1="29.4" x2="50.6" y2="29.4"/>
			<line class="st13" x1="49.2" y1="28" x2="49.7" y2="28.1"/>
			<line class="st14" x1="48.5" y1="27.8" x2="48.7" y2="28.3"/>
		</g>
	</g>
</g>
</svg>
