<?xml version="1.0" encoding="utf-8"?>
<!-- Generator: Adobe Illustrator 16.0.0, SVG Export Plug-In . SVG Version: 6.00 Build 0)  -->
<!DOCTYPE svg PUBLIC "-//W3C//DTD SVG 1.1//EN" "http://www.w3.org/Graphics/SVG/1.1/DTD/svg11.dtd">
<svg version="1.1" id="图层_1" xmlns="http://www.w3.org/2000/svg" xmlns:xlink="http://www.w3.org/1999/xlink" x="0px" y="0px"
	 width="120px" height="101.229px" viewBox="178.667 150.719 120 101.229" enable-background="new 178.667 150.719 120 101.229"
	 xml:space="preserve">
<g>
	<path fill="#474747" d="M208.916,219.258c4.199-7.271,10.797-5.087,18.067-0.888c7.271,4.199,12.458,8.824,8.259,16.094
		c-4.2,7.27-15.866,13.861-23.136,9.662C204.836,239.927,204.716,226.528,208.916,219.258z"/>
	<path fill="#333333" d="M208.522,217.965c2.934-3.373,6.271-5.724,8.493-4.44c1.539,0.889,1.859,2.713,1.181,3.877
		c-2.455,4.211-10.191,12.591-10.169,17.604c0.011,2.538,11.483,9.579,14.018,8.097c3.529-2.064,7.226-12.882,9.91-17.551
		c0.895-1.557,2.009-2.114,3.982-0.974c2.677,1.547,2.323,5.448,0.62,9.582c-1.744,4.235-5.21,9.983-7.602,13.162
		c-2.689,3.57-7.111,4.881-11.354,3.473c-4.018-1.333-10.946-5.258-14.018-8.097c-3.283-3.034-4.601-7.54-2.664-11.57
		C202.677,227.47,206.146,220.698,208.522,217.965z"/>
</g>
<g>
	<path fill="#474747" d="M249.1,234.409c-4.271-7.228,0.869-11.904,8.097-16.176c7.228-4.271,13.804-6.521,18.075,0.707
		c4.271,7.229,4.286,20.628-2.941,24.899S253.372,241.634,249.1,234.409z"/>
	<path fill="#333333" d="M247.781,234.118c-1.497-4.213-1.907-8.273,0.302-9.579c1.529-0.903,3.274-0.287,3.957,0.875
		c2.462,4.205,5.966,15.059,10.344,17.502c2.216,1.237,13.983-5.3,13.936-8.236c-0.066-4.088-7.675-12.619-10.425-17.25
		c-0.916-1.545-0.854-2.788,1.107-3.947c2.66-1.573,5.888,0.651,8.651,4.163c2.834,3.599,6.141,9.441,7.734,13.085
		c1.791,4.097,0.762,8.592-2.549,11.597c-3.134,2.846-9.953,6.953-13.936,8.237c-4.255,1.37-8.828,0.305-11.388-3.359
		C253.192,243.875,248.994,237.528,247.781,234.118z"/>
</g>
<rect x="181.667" y="153.205" fill="#E2E0D6" stroke="#4D4D4D" stroke-width="2" stroke-miterlimit="10" width="113.86" height="58.215"/>
<g id="coffee">
	<path fill="#F2F2F2" d="M267.875,186.58c0,0.259-0.21,0.47-0.47,0.47h-3.248c-0.261,0-0.471-0.21-0.471-0.47v-0.611
		c0-0.26,0.21-0.471,0.471-0.471h3.248c0.26,0,0.47,0.21,0.47,0.471V186.58z"/>
	<circle fill="#F2F2F2" cx="257.524" cy="186.157" r="6.66"/>
	<circle fill="#FFFFFA" cx="257.524" cy="186.157" r="6.268"/>
	<circle fill="#B28338" cx="257.37" cy="186.157" r="5.876"/>
	<path fill="#E1D4B0" d="M260.345,185.334c0,1.572-2.899,3.486-2.899,3.486s-2.958-1.875-2.958-3.447
		c0-1.018,0.717-1.366,1.392-1.366c0.691,0,1.566,1.208,1.566,1.208s0.706-1.208,1.449-1.205
		C259.595,184.015,260.345,184.41,260.345,185.334z"/>
</g>
<g id="donut">
	<circle fill="#F2F2F2" cx="229.983" cy="187.867" r="10.086"/>
	<g id="do">
		<path fill="#C69C6D" d="M231.083,188.888c0,2.271-1.842,4.111-4.112,4.111s-4.112-1.841-4.112-4.111
			c0-2.271,1.841-4.112,4.112-4.112S231.083,186.617,231.083,188.888z M226.97,185.784c-1.714,0-3.103,1.39-3.103,3.104
			c0,1.714,1.389,3.103,3.103,3.103c1.713,0,3.103-1.389,3.103-3.103C230.073,187.174,228.684,185.784,226.97,185.784z"/>
		<path fill="#E2C1A1" d="M231.159,188.732c0,2.229-1.806,4.035-4.034,4.035s-4.034-1.806-4.034-4.035
			c0-2.228,1.806-4.034,4.034-4.034S231.159,186.505,231.159,188.732z M227.125,185.688c-1.682,0-3.044,1.363-3.044,3.044
			c0,1.682,1.363,3.045,3.044,3.045c1.682,0,3.045-1.364,3.045-3.045C230.17,187.051,228.807,185.688,227.125,185.688z"/>
		<path fill="#FC56A1" d="M230.655,188.771c0,1.928-1.563,3.491-3.491,3.491c-1.928,0-3.492-1.563-3.492-3.491
			s1.563-3.491,3.492-3.491C229.092,185.28,230.655,186.843,230.655,188.771z M227.165,186.677c-1.157,0-2.095,0.938-2.095,2.095
			c0,1.157,0.938,2.094,2.095,2.094c1.156,0,2.094-0.938,2.094-2.094C229.259,187.614,228.321,186.677,227.165,186.677z"/>
		<path fill="#F9C0D8" d="M230.655,188.694c0,1.885-1.528,3.413-3.414,3.413s-3.414-1.528-3.414-3.413
			c0-1.886,1.528-3.414,3.414-3.414S230.655,186.808,230.655,188.694z M227.242,186.599c-1.157,0-2.095,0.938-2.095,2.095
			c0,1.156,0.938,2.095,2.095,2.095c1.157,0,2.095-0.938,2.095-2.095C229.336,187.537,228.398,186.599,227.242,186.599z"/>
		<g>
			
				<line fill="none" stroke="#3FA9F5" stroke-width="0.25" stroke-linecap="round" stroke-miterlimit="10" x1="226.334" y1="185.732" x2="226.569" y2="185.877"/>
			
				<line fill="none" stroke="#CCCCCC" stroke-width="0.25" stroke-linecap="round" stroke-miterlimit="10" x1="226.785" y1="185.843" x2="227.05" y2="185.767"/>
			
				<line fill="none" stroke="#CFAD49" stroke-width="0.25" stroke-linecap="round" stroke-miterlimit="10" x1="224.979" y1="186.411" x2="225.346" y2="186.636"/>
			
				<line fill="none" stroke="#FF1D25" stroke-width="0.25" stroke-linecap="round" stroke-miterlimit="10" x1="224.637" y1="187.439" x2="225.067" y2="187.47"/>
			
				<line fill="none" stroke="#CFAD49" stroke-width="0.25" stroke-linecap="round" stroke-miterlimit="10" x1="224.584" y1="190.039" x2="224.951" y2="190.265"/>
			
				<line fill="none" stroke="#CFAD49" stroke-width="0.25" stroke-linecap="round" stroke-miterlimit="10" x1="229.789" y1="190.062" x2="229.908" y2="189.648"/>
			
				<line fill="none" stroke="#CFAD49" stroke-width="0.25" stroke-linecap="round" stroke-miterlimit="10" x1="229.665" y1="188.811" x2="230.032" y2="189.037"/>
			
				<line fill="none" stroke="#FF1D25" stroke-width="0.25" stroke-linecap="round" stroke-miterlimit="10" x1="227.83" y1="191.512" x2="228.254" y2="191.584"/>
			
				<line fill="none" stroke="#3FA9F5" stroke-width="0.25" stroke-linecap="round" stroke-miterlimit="10" x1="225.964" y1="191.199" x2="226.382" y2="191.271"/>
			
				<line fill="none" stroke="#CBC8B8" stroke-width="0.25" stroke-linecap="round" stroke-miterlimit="10" x1="226.13" y1="191.464" x2="226.526" y2="191.316"/>
			
				<line fill="none" stroke="#3FA9F5" stroke-width="0.25" stroke-linecap="round" stroke-miterlimit="10" x1="224.413" y1="188.872" x2="224.83" y2="188.943"/>
			
				<line fill="none" stroke="#CFAD49" stroke-width="0.25" stroke-linecap="round" stroke-miterlimit="10" x1="224.682" y1="188.631" x2="224.85" y2="188.295"/>
			
				<line fill="none" stroke="#FF1D25" stroke-width="0.25" stroke-linecap="round" stroke-miterlimit="10" x1="229.843" y1="187.786" x2="230.261" y2="187.857"/>
			
				<line fill="none" stroke="#FF1D25" stroke-width="0.25" stroke-linecap="round" stroke-miterlimit="10" x1="228.861" y1="190.542" x2="229.163" y2="190.594"/>
			
				<line fill="none" stroke="#3FA9F5" stroke-width="0.25" stroke-linecap="round" stroke-miterlimit="10" x1="229.171" y1="187.283" x2="229.473" y2="187.335"/>
			
				<line fill="none" stroke="#CFAD49" stroke-width="0.25" stroke-linecap="round" stroke-miterlimit="10" x1="228.422" y1="186.26" x2="228.85" y2="186.308"/>
			
				<line fill="none" stroke="#FF1D25" stroke-width="0.25" stroke-linecap="round" stroke-miterlimit="10" x1="227.926" y1="186.087" x2="228.104" y2="186.481"/>
		</g>
	</g>
	<g id="do_1_">
		<path fill="#C69C6D" d="M236.667,191.371c0,2.271-1.841,4.112-4.111,4.112c-2.271,0-4.112-1.841-4.112-4.112
			c0-2.271,1.841-4.112,4.112-4.112C234.826,187.259,236.667,189.1,236.667,191.371z M232.556,188.268
			c-1.713,0-3.104,1.389-3.104,3.103s1.39,3.103,3.104,3.103s3.103-1.389,3.103-3.103S234.27,188.268,232.556,188.268z"/>
		<path fill="#E2C1A1" d="M236.745,191.215c0,2.228-1.806,4.034-4.034,4.034c-2.228,0-4.034-1.806-4.034-4.034
			c0-2.227,1.806-4.034,4.034-4.034C234.939,187.181,236.745,188.988,236.745,191.215z M232.711,188.17
			c-1.682,0-3.045,1.363-3.045,3.044s1.363,3.045,3.045,3.045s3.045-1.364,3.045-3.045S234.393,188.17,232.711,188.17z"/>
		<path fill="#FC56A1" d="M236.241,191.254c0,1.928-1.563,3.491-3.491,3.491c-1.928,0-3.491-1.563-3.491-3.491
			s1.563-3.491,3.491-3.491C234.678,187.763,236.241,189.326,236.241,191.254z M232.75,189.159c-1.157,0-2.095,0.938-2.095,2.095
			c0,1.156,0.938,2.094,2.095,2.094c1.156,0,2.095-0.938,2.095-2.094C234.845,190.097,233.906,189.159,232.75,189.159z"/>
		<path fill="#F9C0D8" d="M236.241,191.176c0,1.885-1.528,3.413-3.415,3.413c-1.884,0-3.413-1.528-3.413-3.413
			c0-1.885,1.528-3.414,3.413-3.414C234.713,187.763,236.241,189.292,236.241,191.176z M232.827,189.082
			c-1.156,0-2.094,0.937-2.094,2.094s0.938,2.095,2.094,2.095c1.157,0,2.095-0.938,2.095-2.095S233.983,189.082,232.827,189.082z"/>
		<g>
			
				<line fill="none" stroke="#3FA9F5" stroke-width="0.25" stroke-linecap="round" stroke-miterlimit="10" x1="231.92" y1="188.215" x2="232.155" y2="188.36"/>
			
				<line fill="none" stroke="#CCCCCC" stroke-width="0.25" stroke-linecap="round" stroke-miterlimit="10" x1="232.37" y1="188.325" x2="232.636" y2="188.25"/>
			
				<line fill="none" stroke="#CFAD49" stroke-width="0.25" stroke-linecap="round" stroke-miterlimit="10" x1="230.565" y1="188.893" x2="230.932" y2="189.119"/>
			
				<line fill="none" stroke="#FF1D25" stroke-width="0.25" stroke-linecap="round" stroke-miterlimit="10" x1="230.223" y1="189.922" x2="230.653" y2="189.952"/>
			
				<line fill="none" stroke="#CFAD49" stroke-width="0.25" stroke-linecap="round" stroke-miterlimit="10" x1="230.17" y1="192.521" x2="230.537" y2="192.748"/>
			
				<line fill="none" stroke="#CFAD49" stroke-width="0.25" stroke-linecap="round" stroke-miterlimit="10" x1="235.374" y1="192.545" x2="235.493" y2="192.13"/>
			
				<line fill="none" stroke="#CFAD49" stroke-width="0.25" stroke-linecap="round" stroke-miterlimit="10" x1="235.25" y1="191.294" x2="235.617" y2="191.52"/>
			
				<line fill="none" stroke="#FF1D25" stroke-width="0.25" stroke-linecap="round" stroke-miterlimit="10" x1="233.416" y1="193.994" x2="233.841" y2="194.067"/>
			
				<line fill="none" stroke="#3FA9F5" stroke-width="0.25" stroke-linecap="round" stroke-miterlimit="10" x1="231.55" y1="193.682" x2="231.968" y2="193.754"/>
			
				<line fill="none" stroke="#CBC8B8" stroke-width="0.25" stroke-linecap="round" stroke-miterlimit="10" x1="231.716" y1="193.946" x2="232.113" y2="193.799"/>
			
				<line fill="none" stroke="#3FA9F5" stroke-width="0.25" stroke-linecap="round" stroke-miterlimit="10" x1="229.999" y1="191.354" x2="230.416" y2="191.425"/>
			
				<line fill="none" stroke="#CFAD49" stroke-width="0.25" stroke-linecap="round" stroke-miterlimit="10" x1="230.268" y1="191.114" x2="230.436" y2="190.778"/>
			
				<line fill="none" stroke="#FF1D25" stroke-width="0.25" stroke-linecap="round" stroke-miterlimit="10" x1="235.43" y1="190.268" x2="235.847" y2="190.339"/>
			
				<line fill="none" stroke="#FF1D25" stroke-width="0.25" stroke-linecap="round" stroke-miterlimit="10" x1="234.446" y1="193.024" x2="234.749" y2="193.076"/>
			
				<line fill="none" stroke="#3FA9F5" stroke-width="0.25" stroke-linecap="round" stroke-miterlimit="10" x1="234.757" y1="189.766" x2="235.058" y2="189.817"/>
			
				<line fill="none" stroke="#CFAD49" stroke-width="0.25" stroke-linecap="round" stroke-miterlimit="10" x1="234.007" y1="188.743" x2="234.436" y2="188.791"/>
			
				<line fill="none" stroke="#FF1D25" stroke-width="0.25" stroke-linecap="round" stroke-miterlimit="10" x1="233.512" y1="188.57" x2="233.688" y2="188.963"/>
		</g>
	</g>
	<g id="do_2_">
		<path fill="#C69C6D" d="M236.357,184.078c0,2.271-1.841,4.112-4.112,4.112s-4.112-1.842-4.112-4.112
			c0-2.271,1.841-4.112,4.112-4.112C234.516,179.966,236.357,181.807,236.357,184.078z M232.246,180.975
			c-1.714,0-3.104,1.39-3.104,3.103c0,1.714,1.39,3.104,3.104,3.104c1.713,0,3.103-1.39,3.103-3.104
			C235.349,182.364,233.959,180.975,232.246,180.975z"/>
		<path fill="#E2C1A1" d="M236.436,183.923c0,2.228-1.807,4.034-4.034,4.034c-2.228,0-4.035-1.806-4.035-4.034
			s1.807-4.034,4.035-4.034C234.629,179.889,236.436,181.695,236.436,183.923z M232.401,180.878c-1.682,0-3.045,1.363-3.045,3.045
			s1.363,3.045,3.045,3.045c1.681,0,3.044-1.363,3.044-3.045S234.082,180.878,232.401,180.878z"/>
		<path fill="#895313" d="M235.931,183.961c0,1.928-1.563,3.491-3.491,3.491s-3.491-1.563-3.491-3.491s1.563-3.491,3.491-3.491
			S235.931,182.034,235.931,183.961z M232.439,181.867c-1.156,0-2.095,0.938-2.095,2.095s0.938,2.095,2.095,2.095
			s2.096-0.938,2.096-2.095S233.596,181.867,232.439,181.867z"/>
		<path fill="#8E6523" d="M235.931,183.884c0,1.885-1.528,3.414-3.414,3.414s-3.414-1.528-3.414-3.414
			c0-1.885,1.528-3.414,3.414-3.414S235.931,181.999,235.931,183.884z M232.517,181.79c-1.157,0-2.095,0.937-2.095,2.094
			c0,1.157,0.938,2.095,2.095,2.095c1.157,0,2.094-0.938,2.094-2.095C234.611,182.727,233.674,181.79,232.517,181.79z"/>
		<g>
			
				<line fill="none" stroke="#3FA9F5" stroke-width="0.25" stroke-linecap="round" stroke-miterlimit="10" x1="231.609" y1="180.923" x2="231.845" y2="181.067"/>
			
				<line fill="none" stroke="#CCCCCC" stroke-width="0.25" stroke-linecap="round" stroke-miterlimit="10" x1="232.061" y1="181.033" x2="232.325" y2="180.957"/>
			
				<line fill="none" stroke="#CFAD49" stroke-width="0.25" stroke-linecap="round" stroke-miterlimit="10" x1="230.255" y1="181.601" x2="230.622" y2="181.827"/>
			
				<line fill="none" stroke="#FF1D25" stroke-width="0.25" stroke-linecap="round" stroke-miterlimit="10" x1="229.913" y1="182.63" x2="230.342" y2="182.66"/>
			
				<line fill="none" stroke="#CFAD49" stroke-width="0.25" stroke-linecap="round" stroke-miterlimit="10" x1="229.859" y1="185.229" x2="230.227" y2="185.455"/>
			
				<line fill="none" stroke="#CFAD49" stroke-width="0.25" stroke-linecap="round" stroke-miterlimit="10" x1="235.064" y1="185.252" x2="235.184" y2="184.838"/>
			
				<line fill="none" stroke="#CFAD49" stroke-width="0.25" stroke-linecap="round" stroke-miterlimit="10" x1="234.94" y1="184.001" x2="235.308" y2="184.227"/>
			
				<line fill="none" stroke="#FF1D25" stroke-width="0.25" stroke-linecap="round" stroke-miterlimit="10" x1="233.105" y1="186.702" x2="233.53" y2="186.775"/>
			
				<line fill="none" stroke="#3FA9F5" stroke-width="0.25" stroke-linecap="round" stroke-miterlimit="10" x1="231.24" y1="186.389" x2="231.657" y2="186.46"/>
			
				<line fill="none" stroke="#CBC8B8" stroke-width="0.25" stroke-linecap="round" stroke-miterlimit="10" x1="231.405" y1="186.654" x2="231.801" y2="186.505"/>
			
				<line fill="none" stroke="#3FA9F5" stroke-width="0.25" stroke-linecap="round" stroke-miterlimit="10" x1="229.688" y1="184.062" x2="230.105" y2="184.133"/>
			
				<line fill="none" stroke="#CFAD49" stroke-width="0.25" stroke-linecap="round" stroke-miterlimit="10" x1="229.958" y1="183.822" x2="230.125" y2="183.485"/>
			
				<line fill="none" stroke="#FF1D25" stroke-width="0.25" stroke-linecap="round" stroke-miterlimit="10" x1="235.118" y1="182.976" x2="235.536" y2="183.047"/>
			
				<line fill="none" stroke="#FF1D25" stroke-width="0.25" stroke-linecap="round" stroke-miterlimit="10" x1="234.137" y1="185.732" x2="234.438" y2="185.784"/>
			
				<line fill="none" stroke="#3FA9F5" stroke-width="0.25" stroke-linecap="round" stroke-miterlimit="10" x1="234.446" y1="182.473" x2="234.748" y2="182.525"/>
			
				<line fill="none" stroke="#CFAD49" stroke-width="0.25" stroke-linecap="round" stroke-miterlimit="10" x1="233.697" y1="181.45" x2="234.126" y2="181.498"/>
			
				<line fill="none" stroke="#FF1D25" stroke-width="0.25" stroke-linecap="round" stroke-miterlimit="10" x1="233.202" y1="181.278" x2="233.379" y2="181.67"/>
		</g>
	</g>
</g>
</svg>
