<?xml version="1.0" encoding="utf-8"?>
<!-- Generator: Adobe Illustrator 16.0.0, SVG Export Plug-In . SVG Version: 6.00 Build 0)  -->
<!DOCTYPE svg PUBLIC "-//W3C//DTD SVG 1.1//EN" "http://www.w3.org/Graphics/SVG/1.1/DTD/svg11.dtd">
<svg version="1.1" id="图层_1" xmlns="http://www.w3.org/2000/svg" xmlns:xlink="http://www.w3.org/1999/xlink" x="0px" y="0px"
	 width="500px" height="376px" viewBox="0 0 500 376" enable-background="new 0 0 500 376" xml:space="preserve">
<g id="char">
	<path fill="#CBC8B8" d="M197,207c0-4.971,1.029-9,6-9h103c4.971,0,6,4.029,6,9c0,0,0,75,0,100H197C197,282,197,207,197,207z"/>
	<path fill="#BCBAAF" d="M327,367.554c0,2.987-4.029,5.446-9,5.446H192c-4.971,0-9-2.46-9-5.446c0,0,23.5-45.554,23.5-60.554h99.25
		C305.75,322,327,367.554,327,367.554z"/>
	<path fill="#5E5951" d="M302,223c0-1.656,1.343-3,3-3h14c1.657,0,3,1.344,3,3v82c0,1.656-1.343,3-3,3h-14c-1.657,0-3-1.344-3-3V223
		z"/>
	<path fill="#5E5951" d="M188,223c0-1.656,1.343-3,3-3h14c1.657,0,3,1.344,3,3v82c0,1.656-1.343,3-3,3h-14c-1.657,0-3-1.344-3-3V223
		z"/>
</g>
<rect x="4" y="4" fill="#E2E0D6" stroke="#4D4D4D" stroke-width="2" stroke-miterlimit="10" width="493" height="245"/>
<g id="keyboard">
	<path fill="#C0CED8" d="M375,170.139c0,5.889-3.057,13.861-7.192,13.861H134.204c-4.135,0-8.204-7.973-8.204-13.861v-53.311
		c0-5.888,4.069-8.828,8.204-8.828h233.604c4.136,0,7.192,2.94,7.192,8.828V170.139z"/>
	<path fill="#E6E6E6" d="M375,165.946c0,5.495-2.394,13.054-6.54,13.054H134.225c-4.146,0-8.225-7.56-8.225-13.054v-49.757
		c0-5.494,4.079-8.188,8.225-8.188H368.46c4.146,0,6.54,2.694,6.54,8.188V165.946z"/>
	<g id="key">
		<g id="line1_2_">
			<path d="M357.779,122.527c0,1.737-1.411,3.147-3.15,3.147h-25.5c-1.738,0-3.149-1.41-3.149-3.147v-6.715
				c0-1.738,1.411-3.147,3.149-3.147h25.5c1.739,0,3.15,1.409,3.15,3.147V122.527z"/>
			<path d="M193.026,122.527c0,1.737-1.411,3.147-3.147,3.147h-6.715c-1.739,0-3.15-1.41-3.15-3.147v-6.715
				c0-1.738,1.411-3.147,3.15-3.147h6.715c1.736,0,3.147,1.409,3.147,3.147V122.527z"/>
			<path d="M208.924,122.527c0,1.737-1.412,3.147-3.147,3.147h-6.715c-1.739,0-3.15-1.41-3.15-3.147v-6.715
				c0-1.738,1.412-3.147,3.15-3.147h6.715c1.736,0,3.147,1.409,3.147,3.147V122.527z"/>
			<path d="M224.821,122.527c0,1.737-1.412,3.147-3.15,3.147h-6.715c-1.736,0-3.147-1.41-3.147-3.147v-6.715
				c0-1.738,1.411-3.147,3.147-3.147h6.715c1.738,0,3.15,1.409,3.15,3.147V122.527z"/>
			<path d="M242.163,122.527c0,1.737-1.411,3.147-3.15,3.147h-6.715c-1.736,0-3.147-1.41-3.147-3.147v-6.715
				c0-1.738,1.411-3.147,3.147-3.147h6.715c1.739,0,3.15,1.409,3.15,3.147V122.527z"/>
			<path d="M257.767,122.527c0,1.737-1.413,3.147-3.151,3.147h-6.711c-1.737,0-3.15-1.41-3.15-3.147v-6.715
				c0-1.738,1.413-3.147,3.15-3.147h6.711c1.738,0,3.151,1.409,3.151,3.147V122.527z"/>
			<path d="M274.251,122.527c0,1.737-1.411,3.147-3.15,3.147h-6.715c-1.736,0-3.147-1.41-3.147-3.147v-6.715
				c0-1.738,1.411-3.147,3.147-3.147h6.715c1.739,0,3.15,1.409,3.15,3.147V122.527z"/>
			<path d="M290.286,122.527c0,1.737-1.411,3.147-3.15,3.147h-6.712c-1.737,0-3.15-1.41-3.15-3.147v-6.715
				c0-1.738,1.413-3.147,3.15-3.147h6.712c1.739,0,3.15,1.409,3.15,3.147V122.527z"/>
			<path d="M307.197,122.527c0,1.737-1.408,3.147-3.147,3.147h-6.716c-1.738,0-3.146-1.41-3.146-3.147v-6.715
				c0-1.738,1.408-3.147,3.146-3.147h6.716c1.739,0,3.147,1.409,3.147,3.147V122.527z"/>
			<path d="M323.095,122.527c0,1.737-1.408,3.147-3.147,3.147h-6.715c-1.739,0-3.147-1.41-3.147-3.147v-6.715
				c0-1.738,1.408-3.147,3.147-3.147h6.715c1.739,0,3.147,1.409,3.147,3.147V122.527z"/>
			<path d="M177.129,122.527c0,1.737-1.411,3.147-3.148,3.147h-25.5c-1.739,0-3.148-1.41-3.148-3.147v-6.715
				c0-1.738,1.409-3.147,3.148-3.147h25.5c1.738,0,3.148,1.409,3.148,3.147V122.527z"/>
		</g>
		<g id="line2">
			<path d="M171.348,139.87c0,1.737-1.409,3.147-3.147,3.147h-6.711c-1.739,0-3.148-1.41-3.148-3.147v-6.715
				c0-1.737,1.409-3.147,3.148-3.147h6.711c1.738,0,3.147,1.41,3.147,3.147V139.87z"/>
			<path d="M187.246,139.87c0,1.737-1.411,3.147-3.147,3.147h-6.715c-1.739,0-3.148-1.41-3.148-3.147v-6.715
				c0-1.737,1.409-3.147,3.148-3.147h6.715c1.736,0,3.147,1.41,3.147,3.147V139.87z"/>
			<path d="M202.273,139.87c0,1.737-1.411,3.147-3.147,3.147h-6.715c-1.739,0-3.15-1.41-3.15-3.147v-6.715
				c0-1.737,1.411-3.147,3.15-3.147h6.715c1.736,0,3.147,1.41,3.147,3.147V139.87z"/>
			<path d="M219.478,139.87c0,1.737-1.412,3.147-3.147,3.147h-6.715c-1.739,0-3.15-1.41-3.15-3.147v-6.715
				c0-1.737,1.412-3.147,3.15-3.147h6.715c1.736,0,3.147,1.41,3.147,3.147V139.87z"/>
			<path d="M234.937,139.87c0,1.737-1.411,3.147-3.15,3.147h-6.715c-1.736,0-3.147-1.41-3.147-3.147v-6.715
				c0-1.737,1.411-3.147,3.147-3.147h6.715c1.739,0,3.15,1.41,3.15,3.147V139.87z"/>
			<path d="M252.572,139.87c0,1.737-1.41,3.147-3.149,3.147h-6.715c-1.736,0-3.147-1.41-3.147-3.147v-6.715
				c0-1.737,1.411-3.147,3.147-3.147h6.715c1.739,0,3.149,1.41,3.149,3.147V139.87z"/>
			<path d="M268.177,139.87c0,1.737-1.411,3.147-3.15,3.147h-6.715c-1.736,0-3.147-1.41-3.147-3.147v-6.715
				c0-1.737,1.411-3.147,3.147-3.147h6.715c1.739,0,3.15,1.41,3.15,3.147V139.87z"/>
			<path d="M284.073,139.87c0,1.737-1.408,3.147-3.149,3.147h-6.716c-1.735,0-3.146-1.41-3.146-3.147v-6.715
				c0-1.737,1.411-3.147,3.146-3.147h6.716c1.741,0,3.149,1.41,3.149,3.147V139.87z"/>
			<path d="M301.416,139.87c0,1.737-1.411,3.147-3.15,3.147h-6.712c-1.739,0-3.15-1.41-3.15-3.147v-6.715
				c0-1.737,1.411-3.147,3.15-3.147h6.712c1.739,0,3.15,1.41,3.15,3.147V139.87z"/>
			<path d="M317.313,139.87c0,1.737-1.408,3.147-3.146,3.147h-6.716c-1.735,0-3.145-1.41-3.145-3.147v-6.715
				c0-1.737,1.409-3.147,3.145-3.147h6.716c1.738,0,3.146,1.41,3.146,3.147V139.87z"/>
			<path d="M334.656,139.87c0,1.737-1.408,3.147-3.147,3.147h-6.715c-1.739,0-3.147-1.41-3.147-3.147v-6.715
				c0-1.737,1.408-3.147,3.147-3.147h6.715c1.739,0,3.147,1.41,3.147,3.147V139.87z"/>
			<path d="M350.553,139.87c0,1.737-1.408,3.147-3.146,3.147h-6.716c-1.738,0-3.146-1.41-3.146-3.147v-6.715
				c0-1.737,1.408-3.147,3.146-3.147h6.716c1.738,0,3.146,1.41,3.146,3.147V139.87z"/>
		</g>
		<g id="line3_2_">
			<path d="M357.779,156.269c0,1.739-1.411,3.149-3.15,3.149h-25.5c-1.738,0-3.149-1.41-3.149-3.149v-6.71
				c0-1.739,1.411-3.147,3.149-3.147h25.5c1.739,0,3.15,1.409,3.15,3.147V156.269z"/>
			<path d="M193.314,156.269c0,1.739-1.411,3.149-3.147,3.149h-6.715c-1.739,0-3.15-1.41-3.15-3.149v-6.71
				c0-1.739,1.411-3.147,3.15-3.147h6.715c1.736,0,3.147,1.409,3.147,3.147V156.269z"/>
			<path d="M209.067,156.269c0,1.739-1.411,3.149-3.147,3.149h-6.715c-1.739,0-3.15-1.41-3.15-3.149v-6.71
				c0-1.739,1.411-3.147,3.15-3.147h6.715c1.736,0,3.147,1.409,3.147,3.147V156.269z"/>
			<path d="M224.965,156.269c0,1.739-1.412,3.149-3.15,3.149H215.1c-1.736,0-3.147-1.41-3.147-3.149v-6.71
				c0-1.739,1.412-3.147,3.147-3.147h6.715c1.739,0,3.15,1.409,3.15,3.147V156.269z"/>
			<path d="M241.443,156.269c0,1.739-1.412,3.149-3.15,3.149h-6.715c-1.736,0-3.147-1.41-3.147-3.149v-6.71
				c0-1.739,1.412-3.147,3.147-3.147h6.715c1.739,0,3.15,1.409,3.15,3.147V156.269z"/>
			<path d="M257.479,156.269c0,1.739-1.412,3.149-3.151,3.149h-6.711c-1.737,0-3.15-1.41-3.15-3.149v-6.71
				c0-1.739,1.413-3.147,3.15-3.147h6.711c1.739,0,3.151,1.409,3.151,3.147V156.269z"/>
			<path d="M274.395,156.269c0,1.739-1.411,3.149-3.149,3.149h-6.716c-1.735,0-3.146-1.41-3.146-3.149v-6.71
				c0-1.739,1.411-3.147,3.146-3.147h6.716c1.738,0,3.149,1.409,3.149,3.147V156.269z"/>
			<path d="M290.431,156.269c0,1.739-1.412,3.149-3.15,3.149h-6.712c-1.737,0-3.15-1.41-3.15-3.149v-6.71
				c0-1.739,1.413-3.147,3.15-3.147h6.712c1.738,0,3.15,1.409,3.15,3.147V156.269z"/>
			<path d="M307.197,156.269c0,1.739-1.408,3.149-3.147,3.149h-6.716c-1.738,0-3.146-1.41-3.146-3.149v-6.71
				c0-1.739,1.408-3.147,3.146-3.147h6.716c1.739,0,3.147,1.409,3.147,3.147V156.269z"/>
			<path d="M323.095,156.269c0,1.739-1.408,3.149-3.147,3.149h-6.715c-1.739,0-3.147-1.41-3.147-3.149v-6.71
				c0-1.739,1.408-3.147,3.147-3.147h6.715c1.739,0,3.147,1.409,3.147,3.147V156.269z"/>
			<path d="M177.129,156.269c0,1.739-1.411,3.149-3.148,3.149h-25.5c-1.739,0-3.148-1.41-3.148-3.149v-6.71
				c0-1.739,1.409-3.147,3.148-3.147h25.5c1.738,0,3.148,1.409,3.148,3.147V156.269z"/>
		</g>
		<g id="line4">
			<path d="M172.071,173.108c0,1.739-1.409,3.147-3.147,3.147h-6.711c-1.739,0-3.148-1.408-3.148-3.147v-6.712
				c0-1.739,1.409-3.147,3.148-3.147h6.711c1.738,0,3.147,1.409,3.147,3.147V173.108z"/>
			<path d="M187.965,173.108c0,1.739-1.411,3.147-3.147,3.147h-6.715c-1.735,0-3.144-1.408-3.144-3.147v-6.712
				c0-1.739,1.409-3.147,3.144-3.147h6.715c1.736,0,3.147,1.409,3.147,3.147V173.108z"/>
			<path d="M203.713,173.108c0,1.739-1.411,3.147-3.147,3.147h-6.715c-1.739,0-3.15-1.408-3.15-3.147v-6.712
				c0-1.739,1.411-3.147,3.15-3.147h6.715c1.736,0,3.147,1.409,3.147,3.147V173.108z"/>
			<path d="M316.45,173.108c0,1.739-1.408,3.147-3.147,3.147h-6.715c-1.736,0-3.145-1.408-3.145-3.147v-6.712
				c0-1.739,1.408-3.147,3.145-3.147h6.715c1.739,0,3.147,1.409,3.147,3.147V173.108z"/>
			<path d="M333.792,173.108c0,1.739-1.408,3.147-3.146,3.147h-6.716c-1.738,0-3.146-1.408-3.146-3.147v-6.712
				c0-1.739,1.408-3.147,3.146-3.147h6.716c1.738,0,3.146,1.409,3.146,3.147V173.108z"/>
			<path d="M349.689,173.108c0,1.739-1.408,3.147-3.147,3.147h-6.715c-1.738,0-3.147-1.408-3.147-3.147v-6.712
				c0-1.739,1.409-3.147,3.147-3.147h6.715c1.739,0,3.147,1.409,3.147,3.147V173.108z"/>
			<path d="M299.971,172.273c0,1.987-1.442,3.983-3.181,3.983h-86.548c-1.739,0-2.763-1.996-2.763-3.983v-5.393
				c0-1.987,1.024-3.631,2.763-3.631h86.548c1.738,0,3.181,1.644,3.181,3.631V172.273L299.971,172.273z"/>
		</g>
	</g>
</g>
<g id="monitor">
	<path d="M299,74.643c0,1.854-1.503,3.357-3.356,3.357h-84.287c-1.854,0-3.356-1.503-3.356-3.357V61.357
		c0-1.854,1.503-3.357,3.356-3.357h84.287c1.854,0,3.356,1.503,3.356,3.357V74.643z"/>
	<path fill="#C0CED8" d="M452,81.214c0,1.855-1.215,4.786-3.968,4.786H54.146C51.393,86,48,83.07,48,81.214v-11.75
		C48,67.609,51.393,68,54.146,68h393.887c2.753,0,3.968-0.391,3.968,1.464V81.214z"/>
</g>
</svg>
