<?xml version="1.0" encoding="utf-8"?>
<!-- Generator: Adobe Illustrator 16.0.0, SVG Export Plug-In . SVG Version: 6.00 Build 0)  -->
<!DOCTYPE svg PUBLIC "-//W3C//DTD SVG 1.1//EN" "http://www.w3.org/Graphics/SVG/1.1/DTD/svg11.dtd">
<svg version="1.1" id="图层_1" xmlns="http://www.w3.org/2000/svg" xmlns:xlink="http://www.w3.org/1999/xlink" x="0px" y="0px"
	 width="120px" height="100px" viewBox="190 156.45 120 100" enable-background="new 190 156.45 120 100" xml:space="preserve">
<g id="char">
	<path fill="#CBC8B8" d="M238.042,207.498c0-1.167,0.242-2.113,1.408-2.113h24.185c1.17,0,1.41,0.946,1.41,2.113
		c0,0,0,17.61,0,23.48h-27.003C238.042,225.108,238.042,207.498,238.042,207.498z"/>
	<path fill="#BCBAAF" d="M268.569,245.197c0,0.702-0.948,1.278-2.114,1.278h-29.586c-1.168,0-2.114-0.576-2.114-1.278
		c0,0,5.519-10.695,5.519-14.219h23.306C263.579,234.502,268.569,245.197,268.569,245.197z"/>
	<path fill="#5E5951" d="M262.698,211.254c0-0.389,0.314-0.705,0.704-0.705h3.287c0.39,0,0.705,0.316,0.705,0.705v19.255
		c0,0.389-0.315,0.704-0.705,0.704h-3.287c-0.39,0-0.704-0.315-0.704-0.704V211.254z"/>
	<path fill="#5E5951" d="M235.929,211.254c0-0.389,0.316-0.705,0.705-0.705h3.288c0.389,0,0.704,0.316,0.704,0.705v19.255
		c0,0.389-0.315,0.704-0.704,0.704h-3.288c-0.389,0-0.705-0.315-0.705-0.704V211.254z"/>
</g>
<rect x="192.724" y="159.831" fill="#E2E0D6" stroke="#4D4D4D" stroke-width="2" stroke-miterlimit="10" width="115.762" height="57.528"/>
<g id="keyboard">
	<path fill="#C0CED8" d="M279.838,198.842c0,1.383-0.716,3.254-1.688,3.254h-54.853c-0.972,0-1.927-1.871-1.927-3.254v-12.518
		c0-1.382,0.955-2.073,1.927-2.073h54.853c0.972,0,1.688,0.691,1.688,2.073V198.842L279.838,198.842z"/>
	<path fill="#E6E6E6" d="M279.838,197.855c0,1.292-0.56,3.066-1.535,3.066h-55c-0.974,0-1.932-1.774-1.932-3.066v-11.682
		c0-1.29,0.958-1.923,1.932-1.923h55c0.976,0,1.535,0.633,1.535,1.923V197.855z"/>
	<g id="key">
		<g id="line1_2_">
			<path d="M275.795,187.662c0,0.409-0.331,0.74-0.738,0.74h-5.989c-0.408,0-0.738-0.332-0.738-0.74v-1.576
				c0-0.407,0.33-0.739,0.738-0.739h5.989c0.407,0,0.738,0.332,0.738,0.739V187.662z"/>
			<path d="M237.109,187.662c0,0.409-0.332,0.74-0.738,0.74h-1.578c-0.408,0-0.739-0.332-0.739-0.74v-1.576
				c0-0.407,0.331-0.739,0.739-0.739h1.578c0.407,0,0.738,0.332,0.738,0.739V187.662z"/>
			<path d="M240.843,187.662c0,0.409-0.332,0.74-0.74,0.74h-1.576c-0.409,0-0.74-0.332-0.74-0.74v-1.576
				c0-0.407,0.332-0.739,0.74-0.739h1.576c0.408,0,0.74,0.332,0.74,0.739V187.662z"/>
			<path d="M244.575,187.662c0,0.409-0.331,0.74-0.739,0.74h-1.577c-0.408,0-0.74-0.332-0.74-0.74v-1.576
				c0-0.407,0.332-0.739,0.74-0.739h1.577c0.408,0,0.739,0.332,0.739,0.739V187.662z"/>
			<path d="M248.646,187.662c0,0.409-0.33,0.74-0.739,0.74h-1.577c-0.408,0-0.74-0.332-0.74-0.74v-1.576
				c0-0.407,0.332-0.739,0.74-0.739h1.577c0.409,0,0.739,0.332,0.739,0.739V187.662z"/>
			<path d="M252.311,187.662c0,0.409-0.33,0.74-0.739,0.74h-1.577c-0.407,0-0.738-0.332-0.738-0.74v-1.576
				c0-0.407,0.332-0.739,0.738-0.739h1.577c0.409,0,0.739,0.332,0.739,0.739V187.662z"/>
			<path d="M256.182,187.662c0,0.409-0.331,0.74-0.739,0.74h-1.575c-0.409,0-0.74-0.332-0.74-0.74v-1.576
				c0-0.407,0.331-0.739,0.74-0.739h1.575c0.408,0,0.739,0.332,0.739,0.739V187.662z"/>
			<path d="M259.947,187.662c0,0.409-0.333,0.74-0.739,0.74h-1.577c-0.407,0-0.738-0.332-0.738-0.74v-1.576
				c0-0.407,0.331-0.739,0.738-0.739h1.577c0.406,0,0.739,0.332,0.739,0.739V187.662z"/>
			<path d="M263.918,187.662c0,0.409-0.33,0.74-0.739,0.74h-1.578c-0.406,0-0.737-0.332-0.737-0.74v-1.576
				c0-0.407,0.331-0.739,0.737-0.739h1.578c0.409,0,0.739,0.332,0.739,0.739V187.662z"/>
			<path d="M267.65,187.662c0,0.409-0.329,0.74-0.737,0.74h-1.577c-0.409,0-0.74-0.332-0.74-0.74v-1.576
				c0-0.407,0.331-0.739,0.74-0.739h1.577c0.408,0,0.737,0.332,0.737,0.739V187.662z"/>
			<path d="M233.376,187.662c0,0.409-0.331,0.74-0.739,0.74h-5.987c-0.409,0-0.74-0.332-0.74-0.74v-1.576
				c0-0.407,0.331-0.739,0.74-0.739h5.987c0.409,0,0.739,0.332,0.739,0.739V187.662z"/>
		</g>
		<g id="line2">
			<path d="M232.019,191.735c0,0.405-0.331,0.738-0.739,0.738h-1.576c-0.408,0-0.739-0.333-0.739-0.738v-1.577
				c0-0.407,0.331-0.74,0.739-0.74h1.576c0.408,0,0.739,0.333,0.739,0.74V191.735z"/>
			<path d="M235.752,191.735c0,0.405-0.332,0.738-0.738,0.738h-1.578c-0.409,0-0.739-0.333-0.739-0.738v-1.577
				c0-0.407,0.33-0.74,0.739-0.74h1.578c0.407,0,0.738,0.333,0.738,0.74V191.735z"/>
			<path d="M239.281,191.735c0,0.405-0.332,0.738-0.74,0.738h-1.576c-0.409,0-0.739-0.333-0.739-0.738v-1.577
				c0-0.407,0.331-0.74,0.739-0.74h1.576c0.408,0,0.74,0.333,0.74,0.74V191.735z"/>
			<path d="M243.319,191.735c0,0.405-0.332,0.738-0.737,0.738h-1.578c-0.407,0-0.739-0.333-0.739-0.738v-1.577
				c0-0.407,0.332-0.74,0.739-0.74h1.578c0.408,0,0.737,0.333,0.737,0.74V191.735z"/>
			<path d="M246.95,191.735c0,0.405-0.332,0.738-0.739,0.738h-1.578c-0.407,0-0.738-0.333-0.738-0.738v-1.577
				c0-0.407,0.331-0.74,0.738-0.74h1.578c0.408,0,0.739,0.333,0.739,0.74V191.735z"/>
			<path d="M251.093,191.735c0,0.405-0.333,0.738-0.74,0.738h-1.577c-0.409,0-0.74-0.333-0.74-0.738v-1.577
				c0-0.407,0.332-0.74,0.74-0.74h1.577c0.407,0,0.74,0.333,0.74,0.74V191.735z"/>
			<path d="M254.755,191.735c0,0.405-0.331,0.738-0.738,0.738h-1.577c-0.408,0-0.74-0.333-0.74-0.738v-1.577
				c0-0.407,0.332-0.74,0.74-0.74h1.577c0.407,0,0.738,0.333,0.738,0.74V191.735z"/>
			<path d="M258.487,191.735c0,0.405-0.329,0.738-0.738,0.738h-1.578c-0.405,0-0.738-0.333-0.738-0.738v-1.577
				c0-0.407,0.333-0.74,0.738-0.74h1.578c0.409,0,0.738,0.333,0.738,0.74V191.735z"/>
			<path d="M262.56,191.735c0,0.405-0.331,0.738-0.739,0.738h-1.576c-0.407,0-0.739-0.333-0.739-0.738v-1.577
				c0-0.407,0.332-0.74,0.739-0.74h1.576c0.408,0,0.739,0.333,0.739,0.74V191.735z"/>
			<path d="M266.294,191.735c0,0.405-0.332,0.738-0.739,0.738h-1.575c-0.41,0-0.74-0.333-0.74-0.738v-1.577
				c0-0.407,0.33-0.74,0.74-0.74h1.575c0.407,0,0.739,0.333,0.739,0.74V191.735z"/>
			<path d="M270.365,191.735c0,0.405-0.329,0.738-0.738,0.738h-1.576c-0.409,0-0.739-0.333-0.739-0.738v-1.577
				c0-0.407,0.33-0.74,0.739-0.74h1.576c0.409,0,0.738,0.333,0.738,0.74V191.735z"/>
			<path d="M274.098,191.735c0,0.405-0.33,0.738-0.737,0.738h-1.577c-0.41,0-0.739-0.333-0.739-0.738v-1.577
				c0-0.407,0.329-0.74,0.739-0.74h1.577c0.407,0,0.737,0.333,0.737,0.74V191.735z"/>
		</g>
		<g id="line3_2_">
			<path d="M275.795,195.587c0,0.407-0.331,0.737-0.738,0.737h-5.989c-0.408,0-0.738-0.33-0.738-0.737v-1.577
				c0-0.409,0.33-0.739,0.738-0.739h5.989c0.407,0,0.738,0.332,0.738,0.739V195.587z"/>
			<path d="M237.177,195.587c0,0.407-0.332,0.737-0.739,0.737h-1.576c-0.409,0-0.741-0.33-0.741-0.737v-1.577
				c0-0.409,0.332-0.739,0.741-0.739h1.576c0.408,0,0.739,0.332,0.739,0.739V195.587z"/>
			<path d="M240.876,195.587c0,0.407-0.332,0.737-0.739,0.737h-1.576c-0.409,0-0.74-0.33-0.74-0.737v-1.577
				c0-0.409,0.332-0.739,0.74-0.739h1.576c0.407,0,0.739,0.332,0.739,0.739V195.587z"/>
			<path d="M244.609,195.587c0,0.407-0.331,0.737-0.739,0.737h-1.577c-0.408,0-0.739-0.33-0.739-0.737v-1.577
				c0-0.409,0.332-0.739,0.739-0.739h1.577c0.408,0,0.739,0.332,0.739,0.739V195.587z"/>
			<path d="M248.477,195.587c0,0.407-0.33,0.737-0.738,0.737h-1.577c-0.409,0-0.74-0.33-0.74-0.737v-1.577
				c0-0.409,0.332-0.739,0.74-0.739h1.577c0.408,0,0.738,0.332,0.738,0.739V195.587z"/>
			<path d="M252.244,195.587c0,0.407-0.331,0.737-0.739,0.737h-1.576c-0.409,0-0.74-0.33-0.74-0.737v-1.577
				c0-0.409,0.331-0.739,0.74-0.739h1.576c0.408,0,0.739,0.332,0.739,0.739V195.587z"/>
			<path d="M256.217,195.587c0,0.407-0.333,0.737-0.74,0.737h-1.577c-0.407,0-0.74-0.33-0.74-0.737v-1.577
				c0-0.409,0.333-0.739,0.74-0.739h1.577c0.407,0,0.74,0.332,0.74,0.739V195.587z"/>
			<path d="M259.982,195.587c0,0.407-0.333,0.737-0.74,0.737h-1.578c-0.405,0-0.738-0.33-0.738-0.737v-1.577
				c0-0.409,0.333-0.739,0.738-0.739h1.578c0.407,0,0.74,0.332,0.74,0.739V195.587z"/>
			<path d="M263.918,195.587c0,0.407-0.33,0.737-0.739,0.737h-1.578c-0.406,0-0.737-0.33-0.737-0.737v-1.577
				c0-0.409,0.331-0.739,0.737-0.739h1.578c0.409,0,0.739,0.332,0.739,0.739V195.587z"/>
			<path d="M267.65,195.587c0,0.407-0.329,0.737-0.737,0.737h-1.577c-0.409,0-0.74-0.33-0.74-0.737v-1.577
				c0-0.409,0.331-0.739,0.74-0.739h1.577c0.408,0,0.737,0.332,0.737,0.739V195.587z"/>
			<path d="M233.376,195.587c0,0.407-0.331,0.737-0.739,0.737h-5.987c-0.409,0-0.74-0.33-0.74-0.737v-1.577
				c0-0.409,0.331-0.739,0.74-0.739h5.987c0.409,0,0.739,0.332,0.739,0.739V195.587z"/>
		</g>
		<g id="line4">
			<path d="M232.189,199.538c0,0.41-0.331,0.74-0.74,0.74h-1.576c-0.408,0-0.739-0.33-0.739-0.74v-1.574
				c0-0.41,0.332-0.74,0.739-0.74h1.576c0.409,0,0.74,0.33,0.74,0.74V199.538z"/>
			<path d="M235.921,199.538c0,0.41-0.332,0.74-0.739,0.74h-1.577c-0.407,0-0.738-0.33-0.738-0.74v-1.574
				c0-0.41,0.331-0.74,0.738-0.74h1.577c0.407,0,0.739,0.33,0.739,0.74V199.538z"/>
			<path d="M239.619,199.538c0,0.41-0.333,0.74-0.74,0.74h-1.577c-0.408,0-0.739-0.33-0.739-0.74v-1.574
				c0-0.41,0.331-0.74,0.739-0.74h1.577c0.407,0,0.74,0.33,0.74,0.74V199.538z"/>
			<path d="M266.092,199.538c0,0.41-0.331,0.74-0.741,0.74h-1.575c-0.408,0-0.739-0.33-0.739-0.74v-1.574
				c0-0.41,0.331-0.74,0.739-0.74h1.575c0.41,0,0.741,0.33,0.741,0.74V199.538z"/>
			<path d="M270.163,199.538c0,0.41-0.33,0.74-0.74,0.74h-1.576c-0.407,0-0.738-0.33-0.738-0.74v-1.574
				c0-0.41,0.331-0.74,0.738-0.74h1.576c0.41,0,0.74,0.33,0.74,0.74V199.538z"/>
			<path d="M273.895,199.538c0,0.41-0.33,0.74-0.738,0.74h-1.576c-0.41,0-0.739-0.33-0.739-0.74v-1.574
				c0-0.41,0.329-0.74,0.739-0.74h1.576c0.408,0,0.738,0.33,0.738,0.74V199.538z"/>
			<path d="M262.222,199.344c0,0.467-0.339,0.935-0.747,0.935h-20.323c-0.408,0-0.648-0.468-0.648-0.935v-1.266
				c0-0.468,0.24-0.854,0.648-0.854h20.323c0.408,0,0.747,0.387,0.747,0.854V199.344L262.222,199.344z"/>
		</g>
	</g>
</g>
<g id="monitor">
	<path d="M261.993,176.419c0,0.436-0.352,0.789-0.787,0.789h-19.793c-0.434,0-0.787-0.353-0.787-0.789V173.3
		c0-0.436,0.353-0.788,0.787-0.788h19.793c0.436,0,0.787,0.352,0.787,0.788V176.419z"/>
	<path fill="#C0CED8" d="M297.92,177.962c0,0.436-0.286,1.124-0.931,1.124h-92.49c-0.646,0-1.443-0.688-1.443-1.124v-2.76
		c0-0.435,0.797-0.343,1.443-0.343h92.49c0.645,0,0.931-0.092,0.931,0.343V177.962L297.92,177.962z"/>
</g>
</svg>
