<?xml version="1.0" encoding="utf-8"?>
<!-- Generator: Adobe Illustrator 16.0.0, SVG Export Plug-In . SVG Version: 6.00 Build 0)  -->
<!DOCTYPE svg PUBLIC "-//W3C//DTD SVG 1.1//EN" "http://www.w3.org/Graphics/SVG/1.1/DTD/svg11.dtd">
<svg version="1.1" id="图层_1" xmlns="http://www.w3.org/2000/svg" xmlns:xlink="http://www.w3.org/1999/xlink" x="0px" y="0px"
	 width="50px" height="117.875px" viewBox="0 0 50 117.875" enable-background="new 0 0 50 117.875" xml:space="preserve">
<g>
	<g>
		<g>
			<path id="SVGID_1_" fill="#E5DCD1" d="M49,97.025c0,10.813-8.52,19.836-19.336,19.836h-8.828C10.02,116.861,1,107.841,1,97.025
				V20.334C1,9.518,10.02,1,20.836,1h8.828C40.48,1,49,9.518,49,20.334V97.025z"/>
		</g>
		<g>
			<g>
				<defs>
					<path id="SVGID_3_" d="M49,97.025c0,10.813-8.52,19.836-19.336,19.836h-8.828C10.02,116.861,1,107.841,1,97.025V20.334
						C1,9.518,10.02,1,20.836,1h8.828C40.48,1,49,9.518,49,20.334V97.025z"/>
				</defs>
				<clipPath id="SVGID_4_">
					<use xlink:href="#SVGID_3_"  overflow="visible"/>
				</clipPath>
				<rect x="1.64" y="55.188" clip-path="url(#SVGID_4_)" fill="#D1B274" width="47.863" height="7.289"/>
			</g>
		</g>
		<g>
			<g>
				<defs>
					<path id="SVGID_5_" d="M49,97.025c0,10.813-8.52,19.836-19.336,19.836h-8.828C10.02,116.861,1,107.841,1,97.025V20.334
						C1,9.518,10.02,1,20.836,1h8.828C40.48,1,49,9.518,49,20.334V97.025z"/>
				</defs>
				<clipPath id="SVGID_6_">
					<use xlink:href="#SVGID_5_"  overflow="visible"/>
				</clipPath>
				<rect x="1.64" y="38.313" clip-path="url(#SVGID_6_)" fill="#D1B274" width="47.863" height="7.288"/>
			</g>
		</g>
		<g>
			<g>
				<defs>
					<path id="SVGID_7_" d="M49,97.025c0,10.813-8.52,19.836-19.336,19.836h-8.828C10.02,116.861,1,107.841,1,97.025V20.334
						C1,9.518,10.02,1,20.836,1h8.828C40.48,1,49,9.518,49,20.334V97.025z"/>
				</defs>
				<clipPath id="SVGID_8_">
					<use xlink:href="#SVGID_7_"  overflow="visible"/>
				</clipPath>
				<rect x="1.64" y="20.313" clip-path="url(#SVGID_8_)" fill="#D1B274" width="47.863" height="7.288"/>
			</g>
		</g>
		<g>
			<path id="SVGID_2_" fill="none" stroke="#4D4D4D" stroke-width="2" stroke-miterlimit="10" d="M49,97.025
				c0,10.813-8.52,19.836-19.336,19.836h-8.828C10.02,116.861,1,107.841,1,97.025V20.334C1,9.518,10.02,1,20.836,1h8.828
				C40.48,1,49,9.518,49,20.334V97.025z"/>
		</g>
	</g>
</g>
<rect x="10.801" y="74.641" fill="#736357" width="28.901" height="33.928"/>
<text transform="matrix(1 0 0 1 18.6914 103.585)" fill="#32F4D2" font-family="'ArialMT'" font-size="13.0336">IN</text>
<text transform="matrix(1 0 0 1 19.7002 89.6563)" fill="#32F4D2" font-family="'HiraginoSansGB-W3-GBpc-EUC-H'" font-size="11.2406">↑</text>
</svg>
