<?xml version="1.0" encoding="utf-8"?>
<!-- Generator: Adobe Illustrator 16.0.0, SVG Export Plug-In . SVG Version: 6.00 Build 0)  -->
<!DOCTYPE svg PUBLIC "-//W3C//DTD SVG 1.1//EN" "http://www.w3.org/Graphics/SVG/1.1/DTD/svg11.dtd">
<svg version="1.1" id="图层_1" xmlns="http://www.w3.org/2000/svg" xmlns:xlink="http://www.w3.org/1999/xlink" x="0px" y="0px"
	 width="50px" height="117.88px" viewBox="0 0 50 117.88" enable-background="new 0 0 50 117.88" xml:space="preserve">
<g>
	<g>
		<path fill="#666666" d="M50,98c0,11.046-8.954,20-20,20H20c-11.046,0-20-8.954-20-20V20C0,8.954,8.954,0,20,0h10
			c11.046,0,20,8.954,20,20V98z"/>
		<path fill="#E5DCD1" d="M49,97.339C49,108.197,40.404,117,29.8,117h-9.6C9.596,117,1,108.197,1,97.339V20.661
			C1,9.802,9.596,1,20.2,1h9.6C40.404,1,49,9.802,49,20.661V97.339z"/>
		<g>
			<defs>
				<path id="SVGID_1_" d="M49,97.339C49,108.197,40.404,117,29.8,117h-9.6C9.596,117,1,108.197,1,97.339V20.661
					C1,9.802,9.596,1,20.2,1h9.6C40.404,1,49,9.802,49,20.661V97.339z"/>
			</defs>
			<clipPath id="SVGID_2_">
				<use xlink:href="#SVGID_1_"  overflow="visible"/>
			</clipPath>
			<g clip-path="url(#SVGID_2_)">
				<g>
					<g>
						<defs>
							<path id="SVGID_3_" d="M49,97.147c0,10.813-8.727,19.836-19.806,19.836h-9.043c-11.079,0-20.318-9.021-20.318-19.836V20.452
								c0-10.816,9.239-19.334,20.318-19.334h9.043C40.273,1.118,49,9.636,49,20.452V97.147z"/>
						</defs>
						<clipPath id="SVGID_4_">
							<use xlink:href="#SVGID_3_"  overflow="visible"/>
						</clipPath>
						<rect x="0.489" y="55.306" clip-path="url(#SVGID_4_)" fill="#D1B274" width="49.026" height="7.293"/>
					</g>
				</g>
				<g>
					<g>
						<defs>
							<path id="SVGID_5_" d="M49,97.147c0,10.813-8.727,19.836-19.806,19.836h-9.043c-11.079,0-20.318-9.021-20.318-19.836V20.452
								c0-10.816,9.239-19.334,20.318-19.334h9.043C40.273,1.118,49,9.636,49,20.452V97.147z"/>
						</defs>
						<clipPath id="SVGID_6_">
							<use xlink:href="#SVGID_5_"  overflow="visible"/>
						</clipPath>
						<rect x="0.489" y="38.431" clip-path="url(#SVGID_6_)" fill="#D1B274" width="49.026" height="7.288"/>
					</g>
				</g>
				<g>
					<defs>
						<path id="SVGID_7_" d="M49,97.147c0,10.813-8.727,19.836-19.806,19.836h-9.043c-11.079,0-20.318-9.021-20.318-19.836V20.452
							c0-10.816,9.239-19.334,20.318-19.334h9.043C40.273,1.118,49,9.636,49,20.452V97.147z"/>
					</defs>
					<clipPath id="SVGID_8_">
						<use xlink:href="#SVGID_7_"  overflow="visible"/>
					</clipPath>
					<rect x="0.489" y="20.431" clip-path="url(#SVGID_8_)" fill="#D1B274" width="49.026" height="7.288"/>
				</g>
			</g>
		</g>
	</g>
</g>
<rect x="11.551" y="73.391" fill="#736357" width="28.901" height="33.928"/>
<text transform="matrix(1 0 0 1 19.4414 102.335)" fill="#32F4D2" font-family="'ArialMT'" font-size="13.0336">IN</text>
<text transform="matrix(1 0 0 1 20.4502 88.4063)" fill="#32F4D2" font-family="'HiraginoSansGB-W3-GBpc-EUC-H'" font-size="11.2406">↑</text>
</svg>
