<?xml version="1.0" encoding="utf-8"?>
<!-- Generator: Adobe Illustrator 16.0.0, SVG Export Plug-In . SVG Version: 6.00 Build 0)  -->
<!DOCTYPE svg PUBLIC "-//W3C//DTD SVG 1.1//EN" "http://www.w3.org/Graphics/SVG/1.1/DTD/svg11.dtd">
<svg version="1.1" id="图层_1" xmlns="http://www.w3.org/2000/svg" xmlns:xlink="http://www.w3.org/1999/xlink" x="0px" y="0px"
	 width="90px" height="90px" viewBox="0 0 90 90" enable-background="new 0 0 90 90" xml:space="preserve">
<path fill="#00325F" d="M90,80.139C90,85.585,85.919,90,80.887,90H9.114C4.081,90,0,85.586,0,80.139V9.863C0,4.416,4.081,0,9.114,0
	h71.773C85.919,0,90,4.416,90,9.863V80.139z"/>
<g>
	<polygon display="none" fill="#FFFFFA" points="76.248,19.359 76.248,45.436 44.123,66 14.248,45.436 14.248,19.359 44.248,4 	"/>
	<polygon fill="#FFFFFA" points="44.248,34 14,19 44.248,4 76,19 	"/>
	<polygon fill="#CED4D8" points="77,47.073 44.167,62.713 44.167,35 77,19.359 	"/>
	<polygon fill="#FFFFFA" points="13,47.073 44.167,62.713 44.167,35 13,19.359 	"/>
</g>
<text transform="matrix(1 0 0 1 27.6563 77.1328)" fill="#FFFFFA" font-family="'ArialMT'" font-size="8">Exhibition</text>
</svg>
