<?xml version="1.0" encoding="utf-8"?>
<!-- Generator: Adobe Illustrator 16.0.0, SVG Export Plug-In . SVG Version: 6.00 Build 0)  -->
<!DOCTYPE svg PUBLIC "-//W3C//DTD SVG 1.1//EN" "http://www.w3.org/Graphics/SVG/1.1/DTD/svg11.dtd">
<svg version="1.1" id="图层_1" xmlns="http://www.w3.org/2000/svg" xmlns:xlink="http://www.w3.org/1999/xlink" x="0px" y="0px"
	 width="90px" height="90px" viewBox="0 0 90 90" enable-background="new 0 0 90 90" xml:space="preserve">
<path fill="#00325F" d="M90,80.955C90,85.698,86.738,90,82.348,90H8.525C4.134,90,0,85.698,0,80.955V8.587C0,3.844,4.134,0,8.525,0
	h73.823C86.738,0,90,3.844,90,8.587V80.955z"/>
<circle fill="#FFFFFF" cx="45" cy="15.166" r="10.166"/>
<path fill="#FFFFFF" d="M49.313,46.598c-0.312-0.622-8.214-0.804-8.62,0C40.349,47.278,44.223,65,45.003,65
	C45.681,64.999,49.597,47.156,49.313,46.598z"/>
<path fill="#FFFFFF" d="M61.095,52.481c-1.168,0.849-30.651,1.1-32.164,0c-1.283-0.933,13.172-25.193,16.083-25.193
	C47.542,27.289,62.148,51.716,61.095,52.481z"/>
<text transform="matrix(1 0 0 1 17.0078 77.3379)" fill="#FFFFFA" font-family="'Roboto-Light'" font-size="8">Women’s Room</text>
</svg>
