<svg id="图层_1" data-name="图层 1" xmlns="http://www.w3.org/2000/svg" viewBox="0 0 251.96 326.79"><defs><style>.cls-1{fill:#231815;}</style></defs><title>G</title><path class="cls-1" d="M328.32,1437.36q-14.18,18.76-44.18,33.38t-75.81,14.62q-58.25,0-95.11-36.21t-36.87-94V1288.8q0-57.59,35.45-93.91t91.3-36.32q58,0,88.9,28.25t31.52,74.28l-0.44,1.31h-60q-1.75-25.3-16.14-40t-42.1-14.72q-29.24,0-47.12,22.56t-17.89,58.08V1355q0,36.18,18.54,58.74t50,22.55q22.25,0,35.78-4.57t20.51-11.31v-58.73H208.33V1317.6h120v119.76Z" transform="translate(-76.35 -1158.56)"/></svg>