<?xml version="1.0" encoding="utf-8"?>
<!-- Generator: Adobe Illustrator 16.0.0, SVG Export Plug-In . SVG Version: 6.00 Build 0)  -->
<!DOCTYPE svg PUBLIC "-//W3C//DTD SVG 1.1//EN" "http://www.w3.org/Graphics/SVG/1.1/DTD/svg11.dtd">
<svg version="1.1" id="图层_1" xmlns="http://www.w3.org/2000/svg" xmlns:xlink="http://www.w3.org/1999/xlink" x="0px" y="0px"
	 width="140px" height="149.131px" viewBox="0 0 140 149.131" enable-background="new 0 0 140 149.131" xml:space="preserve">
<g>
	<ellipse fill="#EDE1AE" cx="122.049" cy="35.269" rx="17.076" ry="21.313"/>
	<path fill="#EDE1AE" d="M100.813,80.312c2.539-11.488,12.063-19.164,21.271-17.131c9.203,2.03,14.609,12.996,12.076,24.487
		c-2.537,11.494-12.061,19.166-21.268,17.136C103.686,102.769,98.277,91.806,100.813,80.312z"/>
	
		<ellipse transform="matrix(-0.9168 0.3993 -0.3993 -0.9168 230.1227 196.152)" fill="#EDE1AE" cx="94.63" cy="122.046" rx="21.311" ry="17.072"/>
	<path fill="#6D6D6D" d="M56.331,145.646c-16.375-1.771-41.36-24.355-44.404-42.375C3.546,53.688,3.312,11.417,3.312,11.417
		l26.63-0.504c0,0-3.957,35.313,2.538,72.313c3.206,18.271,36.028,40.59,36.028,40.59L56.331,145.646z"/>
	<path fill="#B1B0A1" d="M105.807,141.582c-7.104,4.821-19.789,7.612-37.297,7.612c-21.06,0-48.209-11.159-58.359-40.596
		C0.043,79.289,0,12.179,0,12.179h6.142c0,0,0.513,67.668,9.336,93.121c6.597,19.032,22.583,39.329,53.03,39.329
		c20.045,0,36.03-6.604,36.03-6.604L105.807,141.582z"/>
	<path fill="#E2E0D6" d="M68.509,123.817c-16.491,0-28.879-20.358-35.17-33.702c-7.265-15.398-5.395-77.937-5.395-77.937h80.906
		c0,0,0.455,66.807-5.393,77.937C96.266,103.804,84.277,123.817,68.509,123.817z"/>
	<rect fill="#B1B0A1" width="140.063" height="12.179"/>
</g>
<g id="keyboard">
	<path fill="#C0CED8" d="M100.434,37.886c0,1.489-0.771,3.504-1.813,3.504H39.537c-1.047,0-2.075-2.015-2.075-3.504V24.407
		c0-1.49,1.028-2.232,2.075-2.232h59.081c1.047,0,1.815,0.742,1.815,2.232V37.886L100.434,37.886z"/>
	<path fill="#E6E6E6" d="M100.434,36.826c0,1.391-0.604,3.299-1.648,3.299h-59.24c-1.048,0-2.08-1.908-2.08-3.299V24.242
		c0-1.388,1.032-2.068,2.08-2.068h59.238c1.053,0,1.65,0.683,1.65,2.068V36.826L100.434,36.826z"/>
	<g id="key">
		<g id="line1_2_">
			<path d="M96.08,25.847c0,0.44-0.357,0.797-0.795,0.797h-6.447c-0.439,0-0.795-0.354-0.795-0.797v-1.695
				c0-0.438,0.355-0.797,0.795-0.797h6.447c0.438,0,0.795,0.358,0.795,0.797V25.847z"/>
			<path d="M54.414,25.847c0,0.44-0.357,0.797-0.795,0.797h-1.7c-0.438,0-0.793-0.354-0.793-0.797v-1.695
				c0-0.438,0.354-0.797,0.793-0.797h1.7c0.438,0,0.795,0.358,0.795,0.797V25.847z"/>
			<path d="M58.434,25.847c0,0.44-0.354,0.797-0.793,0.797h-1.699c-0.438,0-0.795-0.354-0.795-0.797v-1.695
				c0-0.438,0.356-0.797,0.795-0.797h1.699c0.438,0,0.793,0.358,0.793,0.797V25.847z"/>
			<path d="M62.454,25.847c0,0.44-0.356,0.797-0.796,0.797H59.96c-0.437,0-0.795-0.354-0.795-0.797v-1.695
				c0-0.438,0.358-0.797,0.795-0.797h1.698c0.439,0,0.796,0.358,0.796,0.797V25.847L62.454,25.847z"/>
			<path d="M66.837,25.847c0,0.44-0.354,0.797-0.795,0.797h-1.699c-0.438,0-0.797-0.354-0.797-0.797v-1.695
				c0-0.438,0.356-0.797,0.797-0.797h1.699c0.438,0,0.795,0.358,0.795,0.797V25.847z"/>
			<path d="M70.785,25.847c0,0.44-0.355,0.797-0.793,0.797h-1.699c-0.439,0-0.795-0.354-0.795-0.797v-1.695
				c0-0.438,0.359-0.797,0.795-0.797h1.699c0.438,0,0.793,0.358,0.793,0.797V25.847L70.785,25.847z"/>
			<path d="M74.955,25.847c0,0.44-0.355,0.797-0.795,0.797h-1.695c-0.439,0-0.795-0.354-0.795-0.797v-1.695
				c0-0.438,0.355-0.797,0.795-0.797h1.695c0.439,0,0.795,0.358,0.795,0.797V25.847z"/>
			<path d="M79.01,25.847c0,0.44-0.359,0.797-0.795,0.797h-1.697c-0.436,0-0.793-0.354-0.793-0.797v-1.695
				c0-0.438,0.357-0.797,0.793-0.797h1.697c0.436,0,0.795,0.358,0.795,0.797V25.847z"/>
			<path d="M83.289,25.847c0,0.44-0.355,0.797-0.793,0.797h-1.699c-0.438,0-0.795-0.354-0.795-0.797v-1.695
				c0-0.438,0.357-0.797,0.795-0.797h1.697c0.439,0,0.795,0.358,0.795,0.797V25.847L83.289,25.847z"/>
			<path d="M87.307,25.847c0,0.44-0.354,0.797-0.793,0.797h-1.697c-0.438,0-0.797-0.354-0.797-0.797v-1.695
				c0-0.438,0.355-0.797,0.797-0.797h1.697c0.438,0,0.793,0.358,0.793,0.797V25.847L87.307,25.847z"/>
			<path d="M50.393,25.847c0,0.44-0.354,0.797-0.795,0.797H43.15c-0.44,0-0.796-0.354-0.796-0.797v-1.695
				c0-0.438,0.356-0.797,0.796-0.797h6.448c0.439,0,0.795,0.358,0.795,0.797V25.847L50.393,25.847z"/>
		</g>
		<g id="line2">
			<path d="M48.932,30.233c0,0.437-0.357,0.793-0.798,0.793h-1.696c-0.438,0-0.795-0.358-0.795-0.793v-1.696
				c0-0.438,0.355-0.797,0.795-0.797h1.696c0.439,0,0.798,0.358,0.798,0.797V30.233z"/>
			<path d="M52.951,30.233c0,0.437-0.357,0.793-0.793,0.793h-1.7c-0.438,0-0.795-0.358-0.795-0.793v-1.696
				c0-0.438,0.354-0.797,0.795-0.797h1.7c0.438,0,0.793,0.358,0.793,0.797V30.233L52.951,30.233z"/>
			<path d="M56.752,30.233c0,0.437-0.357,0.793-0.797,0.793h-1.697c-0.438,0-0.793-0.358-0.793-0.793v-1.696
				c0-0.438,0.355-0.797,0.793-0.797h1.697c0.439,0,0.797,0.358,0.797,0.797V30.233z"/>
			<path d="M61.102,30.233c0,0.437-0.357,0.793-0.793,0.793H58.61c-0.437,0-0.793-0.358-0.793-0.793v-1.696
				c0-0.438,0.356-0.797,0.793-0.797h1.699c0.439,0,0.793,0.358,0.793,0.797V30.233z"/>
			<path d="M65.012,30.233c0,0.437-0.357,0.793-0.795,0.793h-1.699c-0.437,0-0.793-0.358-0.793-0.793v-1.696
				c0-0.438,0.356-0.797,0.793-0.797h1.699c0.439,0,0.795,0.358,0.795,0.797V30.233z"/>
			<path d="M69.477,30.233c0,0.437-0.358,0.793-0.797,0.793h-1.7c-0.438,0-0.797-0.358-0.797-0.793v-1.696
				c0-0.438,0.356-0.797,0.797-0.797h1.699c0.438,0,0.797,0.358,0.797,0.797L69.477,30.233L69.477,30.233z"/>
			<path d="M73.42,30.233c0,0.437-0.355,0.793-0.793,0.793h-1.699c-0.436,0-0.791-0.358-0.791-0.793v-1.696
				c0-0.438,0.355-0.797,0.791-0.797h1.699c0.438,0,0.793,0.358,0.793,0.797V30.233z"/>
			<path d="M77.438,30.233c0,0.437-0.354,0.793-0.793,0.793H74.95c-0.438,0-0.798-0.358-0.798-0.793v-1.696
				c0-0.438,0.359-0.797,0.798-0.797h1.694c0.438,0,0.793,0.358,0.793,0.797V30.233L77.438,30.233z"/>
			<path d="M81.824,30.233c0,0.437-0.357,0.793-0.797,0.793h-1.693c-0.438,0-0.797-0.358-0.797-0.793v-1.696
				c0-0.438,0.359-0.797,0.797-0.797h1.693c0.438,0,0.797,0.358,0.797,0.797V30.233L81.824,30.233z"/>
			<path d="M85.846,30.233c0,0.437-0.357,0.793-0.795,0.793h-1.693c-0.438,0-0.797-0.358-0.797-0.793v-1.696
				c0-0.438,0.355-0.797,0.797-0.797h1.693c0.438,0,0.795,0.358,0.795,0.797V30.233z"/>
			<path d="M90.23,30.233c0,0.437-0.354,0.793-0.793,0.793H87.74c-0.438,0-0.791-0.358-0.791-0.793v-1.696
				c0-0.438,0.354-0.797,0.791-0.797h1.697c0.438,0,0.793,0.358,0.793,0.797V30.233L90.23,30.233z"/>
			<path d="M94.25,30.233c0,0.437-0.355,0.793-0.793,0.793H91.76c-0.441,0-0.795-0.358-0.795-0.793v-1.696
				c0-0.438,0.354-0.797,0.795-0.797h1.697c0.438,0,0.793,0.358,0.793,0.797V30.233z"/>
		</g>
		<g id="line3_2_">
			<path d="M96.08,34.382c0,0.438-0.357,0.795-0.795,0.795h-6.447c-0.439,0-0.795-0.354-0.795-0.795v-1.699
				c0-0.438,0.355-0.793,0.795-0.793h6.447c0.438,0,0.795,0.356,0.795,0.793V34.382z"/>
			<path d="M54.484,34.382c0,0.438-0.354,0.795-0.793,0.795h-1.698c-0.438,0-0.796-0.354-0.796-0.795v-1.699
				c0-0.438,0.357-0.793,0.796-0.793h1.698c0.438,0,0.793,0.356,0.793,0.793V34.382z"/>
			<path d="M58.471,34.382c0,0.438-0.357,0.795-0.795,0.795h-1.697c-0.438,0-0.797-0.354-0.797-0.795v-1.699
				c0-0.438,0.357-0.793,0.797-0.793h1.697c0.438,0,0.795,0.356,0.795,0.793V34.382z"/>
			<path d="M62.491,34.382c0,0.438-0.357,0.795-0.796,0.795h-1.698c-0.438,0-0.793-0.354-0.793-0.795v-1.699
				c0-0.438,0.356-0.793,0.793-0.793h1.698c0.438,0,0.796,0.356,0.796,0.793V34.382z"/>
			<path d="M66.654,34.382c0,0.438-0.355,0.795-0.795,0.795h-1.696c-0.44,0-0.797-0.354-0.797-0.795v-1.699
				c0-0.438,0.358-0.793,0.797-0.793h1.696c0.438,0,0.795,0.356,0.795,0.793V34.382z"/>
			<path d="M70.717,34.382c0,0.438-0.357,0.795-0.794,0.795h-1.7c-0.439,0-0.797-0.354-0.797-0.795v-1.699
				c0-0.438,0.355-0.793,0.797-0.793h1.7c0.437,0,0.794,0.356,0.794,0.793V34.382z"/>
			<path d="M74.994,34.382c0,0.438-0.359,0.795-0.797,0.795h-1.695c-0.438,0-0.797-0.354-0.797-0.795v-1.699
				c0-0.438,0.359-0.793,0.797-0.793h1.695c0.438,0,0.797,0.356,0.797,0.793V34.382z"/>
			<path d="M79.049,34.382c0,0.438-0.361,0.795-0.795,0.795h-1.701c-0.436,0-0.795-0.354-0.795-0.795v-1.699
				c0-0.438,0.359-0.793,0.795-0.793h1.701c0.434,0,0.795,0.356,0.795,0.793V34.382z"/>
			<path d="M83.289,34.382c0,0.438-0.355,0.795-0.793,0.795h-1.699c-0.438,0-0.795-0.354-0.795-0.795v-1.699
				c0-0.438,0.357-0.793,0.795-0.793h1.697c0.439,0,0.795,0.356,0.795,0.793V34.382L83.289,34.382z"/>
			<path d="M87.307,34.382c0,0.438-0.354,0.795-0.793,0.795h-1.697c-0.438,0-0.797-0.354-0.797-0.795v-1.699
				c0-0.438,0.355-0.793,0.797-0.793h1.697c0.438,0,0.793,0.356,0.793,0.793V34.382L87.307,34.382z"/>
			<path d="M50.393,34.382c0,0.438-0.354,0.795-0.795,0.795H43.15c-0.44,0-0.796-0.354-0.796-0.795v-1.699
				c0-0.438,0.356-0.793,0.796-0.793h6.448c0.439,0,0.795,0.356,0.795,0.793V34.382L50.393,34.382z"/>
		</g>
		<g id="line4">
			<path d="M49.115,38.636c0,0.44-0.358,0.797-0.797,0.797h-1.697c-0.439,0-0.796-0.354-0.796-0.797V36.94
				c0-0.438,0.356-0.793,0.796-0.793h1.697c0.438,0,0.797,0.354,0.797,0.793V38.636z"/>
			<path d="M53.133,38.636c0,0.44-0.357,0.797-0.794,0.797h-1.698c-0.438,0-0.793-0.354-0.793-0.797V36.94
				c0-0.438,0.355-0.793,0.793-0.793h1.698c0.437,0,0.794,0.354,0.794,0.793V38.636z"/>
			<path d="M57.116,38.636c0,0.44-0.358,0.797-0.798,0.797H54.62c-0.437,0-0.795-0.354-0.795-0.797V36.94
				c0-0.438,0.358-0.793,0.795-0.793h1.698c0.438,0,0.797,0.354,0.797,0.793L57.116,38.636L57.116,38.636z"/>
			<path d="M85.631,38.636c0,0.44-0.355,0.797-0.799,0.797h-1.699c-0.436,0-0.791-0.354-0.791-0.797V36.94
				c0-0.438,0.355-0.793,0.791-0.793h1.697c0.441,0,0.797,0.354,0.797,0.793L85.631,38.636L85.631,38.636z"/>
			<path d="M90.014,38.636c0,0.44-0.354,0.797-0.795,0.797h-1.695c-0.438,0-0.793-0.354-0.793-0.797V36.94
				c0-0.438,0.355-0.793,0.793-0.793h1.695c0.439,0,0.795,0.354,0.795,0.793V38.636z"/>
			<path d="M94.031,38.636c0,0.44-0.355,0.797-0.791,0.797h-1.699c-0.439,0-0.793-0.354-0.793-0.797V36.94
				c0-0.438,0.354-0.793,0.793-0.793h1.699c0.436,0,0.791,0.354,0.791,0.793V38.636z"/>
			<path d="M81.461,38.427c0,0.504-0.365,1.01-0.807,1.01H58.768c-0.438,0-0.697-0.506-0.697-1.01v-1.363
				c0-0.508,0.26-0.92,0.697-0.92h21.886c0.438,0,0.81,0.42,0.81,0.92L81.461,38.427L81.461,38.427z"/>
		</g>
	</g>
</g>
<g id="monitor">
	<path fill="#333333" d="M122.633,15.435c0,0.475-0.309,1.211-1.004,1.211H22.015c-0.696,0-1.552-0.742-1.552-1.211v-2.974
		c0-0.471,0.858-0.373,1.552-0.373h99.614c0.695,0,1.004-0.098,1.004,0.373V15.435L122.633,15.435z"/>
</g>
</svg>
