<?xml version="1.0" encoding="utf-8"?>
<!-- Generator: Adobe Illustrator 16.0.0, SVG Export Plug-In . SVG Version: 6.00 Build 0)  -->
<!DOCTYPE svg PUBLIC "-//W3C//DTD SVG 1.1//EN" "http://www.w3.org/Graphics/SVG/1.1/DTD/svg11.dtd">
<svg version="1.1" id="图层_1" xmlns="http://www.w3.org/2000/svg" xmlns:xlink="http://www.w3.org/1999/xlink" x="0px" y="0px"
	 width="90px" height="90px" viewBox="0 0 90 90" enable-background="new 0 0 90 90" xml:space="preserve">
<path fill="#00325F" d="M90,80.955C90,85.698,86.738,90,82.348,90H8.525C4.134,90,0,85.698,0,80.955V8.587C0,3.844,4.134,0,8.525,0
	h73.823C86.738,0,90,3.844,90,8.587V80.955z"/>
<g>
	<circle fill="#FFFFFA" cx="45" cy="35" r="30"/>
	<path fill="none" stroke="#00325F" stroke-width="3" stroke-linecap="round" stroke-miterlimit="10" d="M34.8,25.1
		c0-15,22.756-16.199,22.756,0c0,4.801-1.243,11.913-9.365,16.718c-3.604,2.134-3.461,2.83-3.628,7.72"/>
	
		<line fill="none" stroke="#00325F" stroke-width="3" stroke-linecap="round" stroke-miterlimit="10" x1="44.7" y1="54.801" x2="44.7" y2="59"/>
</g>
<text transform="matrix(1 0 0 1 27.3164 77.3379)" fill="#FFFFFA" font-family="'Roboto-Light'" font-size="8">Help Desk</text>
</svg>
