<?xml version="1.0" encoding="utf-8"?>
<!-- Generator: Adobe Illustrator 16.0.0, SVG Export Plug-In . SVG Version: 6.00 Build 0)  -->
<!DOCTYPE svg PUBLIC "-//W3C//DTD SVG 1.1//EN" "http://www.w3.org/Graphics/SVG/1.1/DTD/svg11.dtd">
<svg version="1.1" id="图层_1" xmlns="http://www.w3.org/2000/svg" xmlns:xlink="http://www.w3.org/1999/xlink" x="0px" y="0px"
	 width="90px" height="90px" viewBox="0 0 90 90" enable-background="new 0 0 90 90" xml:space="preserve">
<path fill="#00325F" d="M90,80.955C90,85.698,86.738,90,82.348,90H8.525C4.134,90,0,85.698,0,80.955V8.587C0,3.844,4.134,0,8.525,0
	h73.823C86.738,0,90,3.844,90,8.587V80.955z"/>
<circle fill="#FFFFFF" cx="45" cy="15.165" r="10.165"/>
<path fill="#FFFFFF" d="M30.525,28.208c1.05-1.24,27.565-1.606,28.926,0C60.605,29.571,47.604,65,44.988,65
	C42.715,65,29.579,29.326,30.525,28.208z"/>
<text transform="matrix(1 0 0 1 3.4531 266.3379)" fill="#FFFFFA" font-family="'Roboto-Light'" font-size="8">Music Listening Service</text>
<text transform="matrix(1 0 0 1 22.5488 77.3379)" fill="#FFFFFA" font-family="'ArialMT'" font-size="8">Men’s Room</text>
</svg>
