<?xml version="1.0" encoding="utf-8"?>
<!-- Generator: Adobe Illustrator 16.0.0, SVG Export Plug-In . SVG Version: 6.00 Build 0)  -->
<!DOCTYPE svg PUBLIC "-//W3C//DTD SVG 1.1//EN" "http://www.w3.org/Graphics/SVG/1.1/DTD/svg11.dtd">
<svg version="1.1" id="图层_1" xmlns="http://www.w3.org/2000/svg" xmlns:xlink="http://www.w3.org/1999/xlink" x="0px" y="0px"
	 width="90px" height="90px" viewBox="0 0 90 90" enable-background="new 0 0 90 90" xml:space="preserve">
<path fill="#00325F" d="M90,80.955C90,85.698,86.738,90,82.348,90H8.525C4.134,90,0,85.698,0,80.955V8.587C0,3.844,4.134,0,8.525,0
	h73.823C86.738,0,90,3.844,90,8.587V80.955z"/>
<g>
	<rect x="15" y="5" fill="#FFFFFF" width="60" height="60"/>
	<g>
		<circle fill="#00325F" cx="34.054" cy="21.809" r="6.454"/>
		<path fill="none" stroke="#00325F" stroke-width="2" stroke-linecap="round" stroke-miterlimit="10" d="M26.081,33.713
			c-4.423,4.669-5.052,13.133-0.167,17.651c5.497,5.084,14.482,3.713,17.607-2.625"/>
		<path fill="#00325F" d="M50.999,53.523c-1.032,0.134-4.065-7.899-5.953-8.299c-4.546-0.964-6.857,5.641-11.686,0.477
			c-3.382-3.615-2.539-13.323-2.328-14.174c0.35-1.409,3.927-1.496,4.37-0.324c0.336,0.891-2.689,8.563,0.771,11.9
			c3.462,3.342,5.583-2.966,9.74-0.5C48.213,43.971,51.958,53.397,50.999,53.523z"/>
	</g>
	<g id="notebook_1_">
		<path fill="#00325F" d="M68.429,45.603c0,0.18,0.009,0.253-0.174,0.253H53.801c-0.182,0-0.596-0.401-0.596-0.584v-0.743
			c0,0,0.414,0,0.596,0h14.454c0.183,0,0.174,0.233,0.174,0.414V45.603L68.429,45.603z"/>
		<path fill="#FFFFFF" d="M67.988,44.968c0,0.348,0.286,0.443,0.104,0.443H53.784c-0.183,0-0.138-0.096-0.138-0.443v-0.318
			c0-0.35,0.138-1.004,0.319-1.004h13.961c0.181,0,0.061,0.654,0.061,1.004L67.988,44.968L67.988,44.968z"/>
		<path fill="#00325F" d="M69.079,44.496c0,0.303-0.243,0.545-0.545,0.545H53.732c-0.299,0-0.542-0.242-0.542-0.545V25.059
			c0-0.301,0.243-0.543,0.542-0.543h14.802c0.302,0,0.545,0.243,0.545,0.543V44.496L69.079,44.496z"/>
	</g>
</g>
<text transform="matrix(1 0 0 1 8.5391 77.3379)" fill="#FFFFFA" font-family="'ArialMT'" font-size="8">Disable Study Room</text>
</svg>
