<?xml version="1.0" encoding="utf-8"?>
<!-- Generator: Adobe Illustrator 19.2.1, SVG Export Plug-In . SVG Version: 6.00 Build 0)  -->
<svg version="1.1" id="图层_1" xmlns="http://www.w3.org/2000/svg" xmlns:xlink="http://www.w3.org/1999/xlink" x="0px" y="0px"
	 viewBox="0 0 90 90" style="enable-background:new 0 0 90 90;" xml:space="preserve">
<style type="text/css">
	.st0{fill:#00325F;}
	.st1{fill:#FFFFFF;}
	.st2{fill:#FFFFFA;stroke:#00325F;stroke-miterlimit:10;}
	.st3{fill:none;stroke:#FFFFFA;stroke-width:2;stroke-linecap:round;stroke-miterlimit:10;}
	.st4{enable-background:new    ;}
	.st5{fill:#FFFFFA;}
</style>
<path class="st0" d="M90,80.1c0,5.4-4.1,9.9-9.1,9.9H9.1c-5,0-9.1-4.4-9.1-9.9V9.9C0,4.4,4.1,0,9.1,0h71.8c5,0,9.1,4.4,9.1,9.9V80.1
	z"/>
<g id="icon">
	<ellipse class="st1" cx="45" cy="61.3" rx="29.6" ry="3.7"/>
	<path class="st2" d="M50.3,60.6H39.7C20.8,60.6,20,30.5,20,30.5c0-1.8-0.1-3.2,1.1-3.2h47.8c1.2,0,1.1,1.4,1.1,3.2
		C70,30.5,68.1,60.6,50.3,60.6z"/>
	<path class="st3" d="M33.2,5.2c4.1,4.3-2,7.3-2,10.4c0,2.2,1.5,5.2,5.2,6.5"/>
	<path class="st3" d="M44.4,5c4.1,4.3-2,7.3-2,10.4c0,2.2,1.5,5.2,5.2,6.5"/>
	<path class="st3" d="M55.6,5c4.1,4.3-2,7.3-2,10.4c0,2.2,1.5,5.2,5.2,6.5"/>
</g>
<g class="st4">
	<path class="st5" d="M41.3,75.1l0.8,0.2c-0.2,0.6-0.4,1.1-0.9,1.4s-0.9,0.5-1.5,0.5c-0.6,0-1.1-0.1-1.5-0.4s-0.7-0.6-0.9-1.1
		s-0.3-1-0.3-1.5c0-0.6,0.1-1.1,0.3-1.6s0.6-0.8,1-1s0.9-0.3,1.4-0.3c0.6,0,1.1,0.1,1.4,0.4s0.7,0.7,0.8,1.2l-0.7,0.2
		c-0.1-0.4-0.3-0.7-0.6-0.9S40,72,39.6,72c-0.4,0-0.8,0.1-1.1,0.3s-0.5,0.5-0.6,0.8s-0.2,0.7-0.2,1.1c0,0.5,0.1,0.9,0.2,1.3
		s0.4,0.6,0.7,0.8s0.6,0.3,1,0.3c0.4,0,0.8-0.1,1.1-0.4S41.1,75.6,41.3,75.1z"/>
	<path class="st5" d="M45.6,76.6c-0.3,0.2-0.5,0.4-0.8,0.5s-0.5,0.1-0.8,0.1c-0.5,0-0.8-0.1-1.1-0.3s-0.4-0.5-0.4-0.9
		c0-0.2,0-0.4,0.1-0.6s0.2-0.3,0.4-0.4s0.3-0.2,0.5-0.2c0.1,0,0.3-0.1,0.6-0.1c0.6-0.1,1-0.1,1.3-0.2c0-0.1,0-0.2,0-0.2
		c0-0.3-0.1-0.5-0.2-0.6c-0.2-0.2-0.4-0.2-0.8-0.2c-0.3,0-0.6,0.1-0.7,0.2s-0.3,0.3-0.3,0.6l-0.7-0.1c0.1-0.3,0.2-0.5,0.3-0.7
		s0.4-0.3,0.6-0.4s0.6-0.1,0.9-0.1c0.4,0,0.6,0,0.9,0.1s0.4,0.2,0.5,0.3c0.1,0.1,0.2,0.3,0.2,0.5c0,0.1,0,0.3,0,0.6v0.9
		c0,0.7,0,1.1,0,1.2c0,0.2,0.1,0.3,0.2,0.5h-0.7C45.6,77,45.6,76.8,45.6,76.6z M45.5,75.1c-0.3,0.1-0.6,0.2-1.1,0.3
		c-0.3,0-0.5,0.1-0.6,0.1s-0.2,0.1-0.3,0.2s-0.1,0.2-0.1,0.3c0,0.2,0.1,0.3,0.2,0.5s0.3,0.2,0.6,0.2c0.3,0,0.5-0.1,0.7-0.2
		s0.4-0.3,0.5-0.5c0.1-0.2,0.1-0.4,0.1-0.7V75.1z"/>
	<path class="st5" d="M47.5,77.1v-3.6h-0.6V73h0.6v-0.4c0-0.3,0-0.5,0.1-0.6c0.1-0.2,0.2-0.3,0.4-0.4c0.2-0.1,0.4-0.2,0.7-0.2
		c0.2,0,0.4,0,0.7,0.1L49.2,72c-0.1,0-0.3,0-0.4,0c-0.2,0-0.4,0-0.5,0.1c-0.1,0.1-0.1,0.3-0.1,0.5V73H49v0.5h-0.8v3.6H47.5z"/>
	<path class="st5" d="M52.4,75.8l0.7,0.1c-0.1,0.4-0.3,0.8-0.6,1c-0.3,0.2-0.7,0.4-1.2,0.4c-0.6,0-1.1-0.2-1.4-0.6s-0.5-0.9-0.5-1.6
		c0-0.7,0.2-1.2,0.5-1.6s0.8-0.6,1.4-0.6c0.6,0,1,0.2,1.4,0.6s0.5,0.9,0.5,1.6c0,0,0,0.1,0,0.2H50c0,0.5,0.2,0.8,0.4,1
		c0.2,0.2,0.5,0.4,0.9,0.4c0.3,0,0.5-0.1,0.7-0.2C52.1,76.3,52.3,76.1,52.4,75.8z M50.1,74.7h2.3c0-0.3-0.1-0.6-0.3-0.8
		c-0.2-0.3-0.5-0.4-0.9-0.4c-0.3,0-0.6,0.1-0.8,0.3C50.2,74,50.1,74.3,50.1,74.7z"/>
</g>
</svg>
