<?xml version="1.0" encoding="utf-8"?>
<!-- Generator: Adobe Illustrator 16.0.0, SVG Export Plug-In . SVG Version: 6.00 Build 0)  -->
<!DOCTYPE svg PUBLIC "-//W3C//DTD SVG 1.1//EN" "http://www.w3.org/Graphics/SVG/1.1/DTD/svg11.dtd">
<svg version="1.1" id="图层_1" xmlns="http://www.w3.org/2000/svg" xmlns:xlink="http://www.w3.org/1999/xlink" x="0px" y="0px"
	 width="90px" height="90px" viewBox="0 0 90 90" enable-background="new 0 0 90 90" xml:space="preserve">
<path fill="#00325F" d="M90,80.139C90,85.585,85.919,90,80.887,90H9.114C4.081,90,0,85.586,0,80.139V9.863C0,4.416,4.081,0,9.114,0
	h71.773C85.919,0,90,4.416,90,9.863V80.139z"/>
<g>
	<rect x="15.167" y="5.833" fill="#FFFFFF" width="60" height="60"/>
	<circle fill="#00325F" cx="41.388" cy="17.93" r="8.409"/>
	<path fill="none" stroke="#00325F" stroke-width="2" stroke-linecap="round" stroke-miterlimit="10" d="M30.999,33.441
		c-5.763,6.083-6.582,17.112-0.218,22.999c7.162,6.623,18.869,4.838,22.941-3.42"/>
	<path fill="#00325F" d="M63.466,59.252c-1.344,0.176-5.296-10.293-7.756-10.813c-5.923-1.256-8.935,7.351-15.226,0.621
		c-4.407-4.71-3.308-17.359-3.033-18.469c0.456-1.836,5.118-1.949,5.694-0.422c0.438,1.16-3.504,11.157,1.003,15.505
		c4.511,4.354,7.274-3.865,12.692-0.652C59.837,46.805,64.716,59.089,63.466,59.252z"/>
</g>
<text transform="matrix(1 0 0 1 23.6602 77.3379)" fill="#FFFFFA" font-family="'ArialMT'" font-size="8">Platform Lift</text>
</svg>
