<?xml version="1.0" encoding="utf-8"?>
<!-- Generator: Adobe Illustrator 19.2.1, SVG Export Plug-In . SVG Version: 6.00 Build 0)  -->
<svg version="1.1" id="图层_1" xmlns="http://www.w3.org/2000/svg" xmlns:xlink="http://www.w3.org/1999/xlink" x="0px" y="0px"
	 viewBox="0 0 90 90" style="enable-background:new 0 0 90 90;" xml:space="preserve">
<style type="text/css">
	.st0{fill:#00325F;}
	.st1{fill:#FFFFFA;}
	.st2{enable-background:new    ;}
</style>
<path class="st0" d="M90,81c0,4.7-3.3,9-7.7,9H8.5C4.1,90,0,85.7,0,81V8.6C0,3.8,4.1,0,8.5,0h73.8C86.7,0,90,3.8,90,8.6V81z"/>
<g>
	<ellipse class="st1" cx="57" cy="19.9" rx="9.3" ry="9.6"/>
	<polygon class="st0" points="62,21.6 56.9,23.3 52,21.6 52,8 62,8 	"/>
	<path class="st1" d="M61,57.9c0,1.7-1.5,3.1-3.7,3.1H57c-2.1,0-4-1.4-4-3.1V29.1c0-1.7,1.9-3.1,4-3.1h0.4c2.1,0,3.7,1.4,3.7,3.1
		V57.9z"/>
	<circle class="st1" cx="57" cy="59" r="6"/>
</g>
<g>
	<ellipse class="st1" cx="32" cy="19.9" rx="9.3" ry="9.6"/>
	<path class="st1" d="M36,56c0,1.6-1.2,3-3.3,3h-0.4c-2.1,0-4.3-1.4-4.3-3v-27c0-1.6,2.2-2.9,4.3-2.9h0.4c2.1,0,3.3,1.3,3.3,2.9V56z
		"/>
	<polygon class="st0" points="32,24.6 27.6,22 27.5,17 32,14.4 36.5,17 36.4,22 	"/>
	<circle class="st1" cx="32" cy="59" r="5.5"/>
</g>
<g class="st2">
	<path class="st1" d="M21.6,75.6L21.6,75.6c0,0.6-0.2,1-0.6,1.4s-0.8,0.5-1.4,0.5c-0.6,0-1.1-0.2-1.5-0.7s-0.6-1-0.6-1.8V74
		c0-0.7,0.2-1.3,0.6-1.8s0.9-0.7,1.5-0.7c0.6,0,1.1,0.2,1.4,0.5s0.6,0.8,0.6,1.4l0,0h-0.4c-0.1-0.5-0.2-0.8-0.5-1.1S20,72,19.5,72
		c-0.5,0-0.9,0.2-1.2,0.6c-0.3,0.4-0.5,0.9-0.5,1.5V75c0,0.6,0.2,1.1,0.5,1.5c0.3,0.4,0.7,0.6,1.2,0.6c0.5,0,0.9-0.1,1.1-0.4
		s0.4-0.6,0.5-1.1H21.6z"/>
	<path class="st1" d="M22.4,75.2c0-0.6,0.2-1.1,0.5-1.5s0.8-0.6,1.4-0.6c0.6,0,1,0.2,1.4,0.6s0.5,0.9,0.5,1.5v0.1
		c0,0.6-0.2,1.1-0.5,1.5s-0.8,0.6-1.4,0.6c-0.6,0-1-0.2-1.4-0.6s-0.5-0.9-0.5-1.5V75.2z M22.9,75.3c0,0.5,0.1,0.9,0.4,1.2
		s0.6,0.5,1,0.5c0.4,0,0.8-0.2,1-0.5s0.4-0.7,0.4-1.2v-0.1c0-0.5-0.1-0.9-0.4-1.2c-0.3-0.3-0.6-0.5-1-0.5s-0.8,0.2-1,0.5
		c-0.2,0.3-0.4,0.7-0.4,1.2V75.3z"/>
	<path class="st1" d="M27.5,73.1l0,0.7c0.1-0.2,0.3-0.4,0.5-0.6s0.5-0.2,0.8-0.2c0.3,0,0.6,0.1,0.8,0.2s0.4,0.4,0.5,0.7
		c0.1-0.3,0.3-0.5,0.5-0.7s0.5-0.3,0.9-0.3c0.5,0,0.8,0.1,1,0.4s0.4,0.8,0.4,1.4v2.5h-0.5v-2.5c0-0.5-0.1-0.9-0.3-1.1
		c-0.2-0.2-0.4-0.3-0.8-0.3c-0.4,0-0.6,0.1-0.8,0.3c-0.2,0.2-0.3,0.5-0.4,0.9c0,0,0,0,0,0.1c0,0,0,0.1,0,0.1v2.5h-0.5v-2.5
		c0-0.5-0.1-0.9-0.3-1.1c-0.2-0.2-0.4-0.3-0.8-0.3c-0.3,0-0.6,0.1-0.8,0.3c-0.2,0.2-0.3,0.4-0.4,0.7v3h-0.5v-4.2H27.5z"/>
	<path class="st1" d="M37.6,75.3c0,0.6-0.1,1.1-0.4,1.5s-0.7,0.6-1.2,0.6c-0.3,0-0.6-0.1-0.8-0.2s-0.4-0.3-0.5-0.5V79h-0.5v-5.9h0.4
		l0.1,0.7c0.1-0.2,0.3-0.4,0.5-0.5S35.7,73,36,73c0.5,0,0.9,0.2,1.2,0.6S37.6,74.6,37.6,75.3L37.6,75.3z M37.1,75.3
		c0-0.5-0.1-1-0.3-1.3s-0.5-0.5-0.9-0.5c-0.3,0-0.6,0.1-0.8,0.2c-0.2,0.2-0.3,0.3-0.4,0.6v2c0.1,0.2,0.3,0.4,0.5,0.5
		s0.5,0.2,0.8,0.2c0.4,0,0.7-0.2,0.9-0.5C37,76.3,37.1,75.8,37.1,75.3L37.1,75.3z"/>
	<path class="st1" d="M41.4,76.6c-0.1,0.2-0.3,0.4-0.5,0.6s-0.5,0.2-0.8,0.2c-0.4,0-0.8-0.2-1-0.5s-0.4-0.8-0.4-1.4v-2.4h0.5v2.5
		c0,0.5,0.1,0.9,0.3,1.1c0.2,0.2,0.4,0.3,0.7,0.3c0.4,0,0.6-0.1,0.8-0.2c0.2-0.2,0.4-0.4,0.4-0.7v-3h0.5v4.2h-0.4L41.4,76.6z"/>
	<path class="st1" d="M43.8,72v1.1h0.9v0.4h-0.9v2.8c0,0.3,0.1,0.5,0.2,0.6s0.2,0.2,0.4,0.2c0.1,0,0.1,0,0.2,0s0.2,0,0.2,0l0.1,0.3
		c-0.1,0-0.2,0.1-0.3,0.1s-0.2,0-0.3,0c-0.3,0-0.5-0.1-0.7-0.3s-0.2-0.5-0.2-0.9v-2.8h-0.7v-0.4h0.7V72H43.8z"/>
	<path class="st1" d="M47.3,77.4c-0.5,0-1-0.2-1.3-0.6c-0.4-0.4-0.5-0.9-0.5-1.5v-0.2c0-0.6,0.2-1.1,0.5-1.5s0.8-0.6,1.3-0.6
		c0.5,0,0.9,0.2,1.2,0.5s0.4,0.8,0.4,1.3v0.4h-3v0.1c0,0.5,0.1,0.9,0.4,1.2c0.3,0.3,0.6,0.5,1,0.5c0.3,0,0.5,0,0.7-0.1
		c0.2-0.1,0.4-0.2,0.5-0.3l0.2,0.3c-0.2,0.2-0.4,0.3-0.6,0.4C48,77.4,47.7,77.4,47.3,77.4z M47.3,73.4c-0.3,0-0.6,0.1-0.9,0.4
		s-0.4,0.6-0.4,1l0,0h2.5v-0.1c0-0.4-0.1-0.7-0.3-0.9C47.9,73.6,47.6,73.4,47.3,73.4z"/>
	<path class="st1" d="M51.8,73.5l-0.3,0c-0.3,0-0.5,0.1-0.7,0.2c-0.2,0.2-0.3,0.4-0.4,0.7v2.9h-0.5v-4.2h0.4l0.1,0.7v0
		c0.1-0.3,0.3-0.5,0.5-0.6c0.2-0.1,0.5-0.2,0.7-0.2c0.1,0,0.1,0,0.2,0c0.1,0,0.1,0,0.1,0L51.8,73.5z"/>
	<path class="st1" d="M58.6,75.6L58.6,75.6c0,0.6-0.2,1-0.6,1.4c-0.4,0.3-0.8,0.5-1.4,0.5c-0.6,0-1.1-0.2-1.5-0.7
		c-0.4-0.5-0.6-1-0.6-1.8V74c0-0.7,0.2-1.3,0.6-1.8c0.4-0.5,0.9-0.7,1.5-0.7c0.6,0,1.1,0.2,1.4,0.5c0.4,0.3,0.6,0.8,0.6,1.4l0,0
		h-0.4c-0.1-0.5-0.2-0.8-0.5-1.1S57,72,56.6,72c-0.5,0-0.9,0.2-1.2,0.6c-0.3,0.4-0.5,0.9-0.5,1.5V75c0,0.6,0.2,1.1,0.5,1.5
		c0.3,0.4,0.7,0.6,1.2,0.6c0.5,0,0.9-0.1,1.1-0.4c0.3-0.2,0.4-0.6,0.5-1.1H58.6z"/>
	<path class="st1" d="M60.2,77.3h-0.5v-6.1h0.5V77.3z"/>
	<path class="st1" d="M62,71.9h-0.5v-0.7H62V71.9z M62,77.3h-0.5v-4.2H62V77.3z"/>
	<path class="st1" d="M63.7,73.1l0,0.7c0.1-0.3,0.3-0.5,0.5-0.6s0.5-0.2,0.8-0.2c0.5,0,0.8,0.1,1,0.4c0.2,0.3,0.4,0.7,0.4,1.3v2.6
		h-0.5v-2.6c0-0.5-0.1-0.8-0.3-1c-0.2-0.2-0.4-0.3-0.8-0.3c-0.3,0-0.6,0.1-0.8,0.3c-0.2,0.2-0.4,0.4-0.4,0.7v3h-0.5v-4.2H63.7z"/>
	<path class="st1" d="M68.3,71.9h-0.5v-0.7h0.5V71.9z M68.3,77.3h-0.5v-4.2h0.5V77.3z"/>
	<path class="st1" d="M71.1,77c0.3,0,0.6-0.1,0.8-0.3c0.2-0.2,0.4-0.4,0.4-0.7h0.4l0,0c0,0.4-0.1,0.7-0.5,1
		c-0.3,0.3-0.7,0.4-1.1,0.4c-0.6,0-1-0.2-1.3-0.6c-0.3-0.4-0.5-0.9-0.5-1.5v-0.2c0-0.6,0.2-1.1,0.5-1.5c0.3-0.4,0.8-0.6,1.3-0.6
		c0.5,0,0.8,0.1,1.2,0.4s0.5,0.6,0.4,1.1l0,0h-0.4c0-0.3-0.1-0.6-0.3-0.8c-0.2-0.2-0.5-0.3-0.8-0.3c-0.5,0-0.8,0.2-1,0.5
		c-0.2,0.3-0.3,0.7-0.3,1.2v0.2c0,0.5,0.1,0.9,0.3,1.2C70.3,76.9,70.7,77,71.1,77z"/>
</g>
</svg>
