<?xml version="1.0" encoding="utf-8"?>
<!-- Generator: Adobe Illustrator 19.2.1, SVG Export Plug-In . SVG Version: 6.00 Build 0)  -->
<svg version="1.1" id="图层_1" xmlns="http://www.w3.org/2000/svg" xmlns:xlink="http://www.w3.org/1999/xlink" x="0px" y="0px"
	 viewBox="0 0 90 90" style="enable-background:new 0 0 90 90;" xml:space="preserve">
<style type="text/css">
	.st0{fill:#00325F;}
	.st1{fill:#FFFFFF;}
	.st2{fill:none;stroke:#00325F;stroke-width:2;stroke-linecap:round;stroke-miterlimit:10;}
	.st3{enable-background:new    ;}
	.st4{fill:#FFFFFA;}
</style>
<path class="st0" d="M90,80.1c0,5.4-4.1,9.9-9.1,9.9H9.1c-5,0-9.1-4.4-9.1-9.9V9.9C0,4.4,4.1,0,9.1,0h71.8c5,0,9.1,4.4,9.1,9.9V80.1
	z"/>
<g>
	<rect x="15.2" y="5.8" class="st1" width="60" height="60"/>
	<circle class="st0" cx="41.4" cy="17.9" r="8.4"/>
	<path class="st2" d="M31,33.4c-5.8,6.1-6.6,17.1-0.2,23c7.2,6.6,18.9,4.8,22.9-3.4"/>
	<path class="st0" d="M63.5,59.3c-1.3,0.2-5.3-10.3-7.8-10.8c-5.9-1.3-8.9,7.4-15.2,0.6c-4.4-4.7-3.3-17.4-3-18.5
		c0.5-1.8,5.1-1.9,5.7-0.4c0.4,1.2-3.5,11.2,1,15.5c4.5,4.4,7.3-3.9,12.7-0.7C59.8,46.8,64.7,59.1,63.5,59.3z"/>
</g>
<g class="st3">
	<path class="st4" d="M24.3,77.3v-5.7h2.2c0.4,0,0.7,0,0.9,0.1c0.3,0,0.5,0.1,0.7,0.3s0.3,0.3,0.5,0.6s0.2,0.5,0.2,0.8
		c0,0.5-0.2,0.9-0.5,1.2S27.3,75,26.5,75H25v2.3H24.3z M25,74.3h1.5c0.5,0,0.8-0.1,1-0.3s0.3-0.4,0.3-0.8c0-0.2-0.1-0.4-0.2-0.6
		s-0.3-0.3-0.5-0.3c-0.1,0-0.4-0.1-0.7-0.1H25V74.3z"/>
	<path class="st4" d="M29.5,77.3v-5.7h0.7v5.7H29.5z"/>
	<path class="st4" d="M34,76.8c-0.3,0.2-0.5,0.4-0.8,0.5s-0.5,0.1-0.8,0.1c-0.5,0-0.8-0.1-1.1-0.3s-0.4-0.5-0.4-0.9
		c0-0.2,0-0.4,0.1-0.6s0.2-0.3,0.4-0.4s0.3-0.2,0.5-0.2c0.1,0,0.3-0.1,0.6-0.1c0.6-0.1,1-0.1,1.3-0.2c0-0.1,0-0.2,0-0.2
		c0-0.3-0.1-0.5-0.2-0.6c-0.2-0.2-0.4-0.2-0.8-0.2c-0.3,0-0.6,0.1-0.7,0.2s-0.3,0.3-0.3,0.6l-0.7-0.1c0.1-0.3,0.2-0.5,0.3-0.7
		s0.4-0.3,0.6-0.4s0.6-0.1,0.9-0.1c0.4,0,0.6,0,0.9,0.1s0.4,0.2,0.5,0.3s0.2,0.3,0.2,0.5c0,0.1,0,0.3,0,0.6v0.9c0,0.7,0,1.1,0,1.2
		s0.1,0.3,0.2,0.5h-0.7C34.1,77.2,34,77,34,76.8z M33.9,75.3c-0.3,0.1-0.6,0.2-1.1,0.3c-0.3,0-0.5,0.1-0.6,0.1s-0.2,0.1-0.3,0.2
		s-0.1,0.2-0.1,0.3c0,0.2,0.1,0.3,0.2,0.5s0.3,0.2,0.6,0.2c0.3,0,0.5-0.1,0.7-0.2s0.4-0.3,0.5-0.5c0.1-0.2,0.1-0.4,0.1-0.7V75.3z"/>
	<path class="st4" d="M37.3,76.7l0.1,0.6c-0.2,0-0.4,0.1-0.5,0.1c-0.3,0-0.5,0-0.6-0.1S36,77.1,36,77s-0.1-0.4-0.1-0.8v-2.4h-0.5
		v-0.5h0.5v-1l0.7-0.4v1.4h0.7v0.5h-0.7v2.4c0,0.2,0,0.3,0,0.4s0.1,0.1,0.1,0.1s0.1,0.1,0.2,0.1C37.1,76.7,37.2,76.7,37.3,76.7z"/>
	<path class="st4" d="M38.1,77.3v-3.6h-0.6v-0.5h0.6v-0.4c0-0.3,0-0.5,0.1-0.6c0.1-0.2,0.2-0.3,0.4-0.4s0.4-0.2,0.7-0.2
		c0.2,0,0.4,0,0.7,0.1l-0.1,0.6c-0.1,0-0.3,0-0.4,0c-0.2,0-0.4,0-0.5,0.1s-0.1,0.3-0.1,0.5v0.4h0.8v0.5h-0.8v3.6H38.1z"/>
	<path class="st4" d="M39.9,75.3c0-0.8,0.2-1.3,0.6-1.7c0.4-0.3,0.8-0.5,1.3-0.5c0.6,0,1,0.2,1.4,0.6s0.5,0.9,0.5,1.5
		c0,0.5-0.1,1-0.2,1.3s-0.4,0.5-0.7,0.7s-0.6,0.3-1,0.3c-0.6,0-1.1-0.2-1.4-0.6S39.9,76,39.9,75.3z M40.7,75.3
		c0,0.5,0.1,0.9,0.3,1.2s0.5,0.4,0.9,0.4c0.3,0,0.6-0.1,0.9-0.4s0.3-0.7,0.3-1.2c0-0.5-0.1-0.9-0.3-1.2s-0.5-0.4-0.9-0.4
		c-0.4,0-0.6,0.1-0.9,0.4S40.7,74.7,40.7,75.3z"/>
	<path class="st4" d="M44.6,77.3v-4.1h0.6v0.6c0.2-0.3,0.3-0.5,0.4-0.6s0.3-0.1,0.5-0.1c0.2,0,0.5,0.1,0.7,0.2L46.6,74
		c-0.2-0.1-0.3-0.2-0.5-0.2c-0.2,0-0.3,0-0.4,0.1s-0.2,0.2-0.3,0.4c-0.1,0.3-0.1,0.5-0.1,0.8v2.2H44.6z"/>
	<path class="st4" d="M47.3,77.3v-4.1h0.6v0.6c0.1-0.2,0.3-0.4,0.5-0.5c0.2-0.1,0.5-0.2,0.7-0.2c0.3,0,0.6,0.1,0.8,0.2
		c0.2,0.1,0.3,0.3,0.4,0.5c0.3-0.5,0.8-0.7,1.3-0.7c0.4,0,0.7,0.1,0.9,0.3c0.2,0.2,0.3,0.6,0.3,1.1v2.8h-0.7v-2.6
		c0-0.3,0-0.5-0.1-0.6c0-0.1-0.1-0.2-0.2-0.3c-0.1-0.1-0.3-0.1-0.4-0.1c-0.3,0-0.5,0.1-0.7,0.3c-0.2,0.2-0.3,0.5-0.3,0.9v2.4h-0.7
		v-2.7c0-0.3-0.1-0.5-0.2-0.7c-0.1-0.2-0.3-0.2-0.6-0.2c-0.2,0-0.4,0.1-0.5,0.2s-0.3,0.3-0.4,0.5C48,74.5,48,74.8,48,75.2v2.2H47.3z
		"/>
	<path class="st4" d="M56.3,77.3v-5.7H57v5.1h2.8v0.7H56.3z"/>
	<path class="st4" d="M60.6,72.4v-0.8h0.7v0.8H60.6z M60.6,77.3v-4.1h0.7v4.1H60.6z"/>
	<path class="st4" d="M62.6,77.3v-3.6H62v-0.5h0.6v-0.4c0-0.3,0-0.5,0.1-0.6c0.1-0.2,0.2-0.3,0.4-0.4c0.2-0.1,0.4-0.2,0.7-0.2
		c0.2,0,0.4,0,0.7,0.1l-0.1,0.6c-0.1,0-0.3,0-0.4,0c-0.2,0-0.4,0-0.5,0.1c-0.1,0.1-0.1,0.3-0.1,0.5v0.4h0.8v0.5h-0.8v3.6H62.6z"/>
	<path class="st4" d="M66.2,76.7l0.1,0.6c-0.2,0-0.4,0.1-0.5,0.1c-0.3,0-0.5,0-0.6-0.1s-0.2-0.2-0.3-0.3c-0.1-0.1-0.1-0.4-0.1-0.8
		v-2.4h-0.5v-0.5h0.5v-1l0.7-0.4v1.4h0.7v0.5h-0.7v2.4c0,0.2,0,0.3,0,0.4c0,0.1,0.1,0.1,0.1,0.1c0.1,0,0.1,0.1,0.2,0.1
		C65.9,76.7,66.1,76.7,66.2,76.7z"/>
</g>
</svg>
