<svg id="图层_1" data-name="图层 1" xmlns="http://www.w3.org/2000/svg" viewBox="0 0 90 90"><defs><style>.cls-1{fill:#00325f;}.cls-2{fill:#fffffa;}.cls-3{isolation:isolate;}.cls-4{fill:#f7651c;}.cls-5{fill:#0081e2;}</style></defs><title>uCreate</title><path class="cls-1" d="M90,80.14C90,85.58,85.92,90,80.89,90H9.11C4.08,90,0,85.59,0,80.14V9.86C0,4.42,4.08,0,9.11,0H80.89C85.92,0,90,4.42,90,9.86V80.14Z"/><rect class="cls-2" x="10" y="32" width="70" height="26"/><g class="cls-3"><g class="cls-3"><path class="cls-4" d="M22.92,49.29V48.06a3.05,3.05,0,0,1-2.65,1.41,3.39,3.39,0,0,1-1.38-.28,2.27,2.27,0,0,1-1-.71,2.66,2.66,0,0,1-.44-1,7.17,7.17,0,0,1-.09-1.32V40.95h1.41v4.63a8.24,8.24,0,0,0,.09,1.49,1.48,1.48,0,0,0,.57.88,1.75,1.75,0,0,0,1.07.32,2.33,2.33,0,0,0,1.19-.33A1.81,1.81,0,0,0,22.54,47a4.45,4.45,0,0,0,.23-1.63V40.95h1.41v8.34H22.92Z"/></g><g class="cls-3"><path class="cls-5" d="M34.79,45.25l1.52,0.38a5.13,5.13,0,0,1-1.72,2.86,4.75,4.75,0,0,1-3,1,5.47,5.47,0,0,1-3-.76,4.73,4.73,0,0,1-1.77-2.19,7.83,7.83,0,0,1-.61-3.09,6.78,6.78,0,0,1,.69-3.14,4.71,4.71,0,0,1,2-2,5.72,5.72,0,0,1,2.79-.69,4.72,4.72,0,0,1,2.91.88,4.57,4.57,0,0,1,1.64,2.47l-1.5.35a3.56,3.56,0,0,0-1.16-1.83,3.09,3.09,0,0,0-1.92-.57,3.72,3.72,0,0,0-2.22.64,3.36,3.36,0,0,0-1.25,1.71,6.86,6.86,0,0,0-.36,2.21A7,7,0,0,0,28.14,46a3.19,3.19,0,0,0,1.33,1.64,3.73,3.73,0,0,0,2,.54,3.28,3.28,0,0,0,2.17-.74A3.77,3.77,0,0,0,34.79,45.25Z"/><path class="cls-5" d="M38,49.29V40.95h1.27v1.26a3.45,3.45,0,0,1,.9-1.17,1.57,1.57,0,0,1,.91-0.28,2.76,2.76,0,0,1,1.45.46L42,42.53a2,2,0,0,0-1-.31,1.34,1.34,0,0,0-.83.28,1.51,1.51,0,0,0-.53.77,5.51,5.51,0,0,0-.24,1.65v4.37H38Z"/><path class="cls-5" d="M49.08,46.6l1.46,0.18a3.56,3.56,0,0,1-1.28,2A4.34,4.34,0,0,1,44,48.35a4.4,4.4,0,0,1-1.07-3.16A4.61,4.61,0,0,1,44,41.92a3.67,3.67,0,0,1,2.81-1.16,3.56,3.56,0,0,1,2.73,1.14,4.52,4.52,0,0,1,1.06,3.2c0,0.08,0,.21,0,0.38H44.36a3.2,3.2,0,0,0,.78,2.1,2.31,2.31,0,0,0,1.74.73,2.16,2.16,0,0,0,1.33-.41A2.72,2.72,0,0,0,49.08,46.6Zm-4.64-2.29h4.66a2.82,2.82,0,0,0-.53-1.58,2.16,2.16,0,0,0-1.75-.82,2.25,2.25,0,0,0-1.64.65A2.58,2.58,0,0,0,44.43,44.32Z"/><path class="cls-5" d="M57.75,48.26a5.28,5.28,0,0,1-1.51.94,4.38,4.38,0,0,1-1.56.27,3,3,0,0,1-2.11-.67,2.21,2.21,0,0,1-.74-1.71A2.28,2.28,0,0,1,52.11,46a2.32,2.32,0,0,1,.73-0.81,3.44,3.44,0,0,1,1-.46,10.17,10.17,0,0,1,1.26-.21A12.87,12.87,0,0,0,57.63,44c0-.19,0-0.32,0-0.37a1.56,1.56,0,0,0-.4-1.22,2.36,2.36,0,0,0-1.61-.48,2.5,2.5,0,0,0-1.47.35,2.14,2.14,0,0,0-.7,1.24l-1.38-.19a3.43,3.43,0,0,1,.62-1.43,2.71,2.71,0,0,1,1.25-.84,5.57,5.57,0,0,1,1.89-.29,5,5,0,0,1,1.74.25,2.28,2.28,0,0,1,1,.63,2.21,2.21,0,0,1,.44,1,7.86,7.86,0,0,1,.07,1.3v1.88a20.19,20.19,0,0,0,.09,2.49,3.16,3.16,0,0,0,.36,1H58A3,3,0,0,1,57.75,48.26ZM57.63,45.1a10.32,10.32,0,0,1-2.31.53,5.36,5.36,0,0,0-1.23.28,1.23,1.23,0,0,0-.56.46A1.25,1.25,0,0,0,53.77,48a1.84,1.84,0,0,0,1.25.38A2.91,2.91,0,0,0,56.47,48a2.2,2.2,0,0,0,.93-1,3.4,3.4,0,0,0,.23-1.41V45.1Z"/><path class="cls-5" d="M64.34,48l0.2,1.25a5.24,5.24,0,0,1-1.07.13,2.42,2.42,0,0,1-1.19-.24,1.36,1.36,0,0,1-.6-0.64,5.06,5.06,0,0,1-.17-1.67V42h-1v-1.1h1V38.88L62.92,38v2.91h1.42V42H62.92v4.88a2.45,2.45,0,0,0,.08.78,0.59,0.59,0,0,0,.24.27,0.94,0.94,0,0,0,.48.1A4.55,4.55,0,0,0,64.34,48Z"/><path class="cls-5" d="M71.43,46.6l1.46,0.18a3.56,3.56,0,0,1-1.28,2,4.33,4.33,0,0,1-5.29-.42,4.4,4.4,0,0,1-1.07-3.16,4.61,4.61,0,0,1,1.08-3.27,3.67,3.67,0,0,1,2.81-1.16,3.57,3.57,0,0,1,2.73,1.14,4.53,4.53,0,0,1,1.06,3.2c0,0.08,0,.21,0,0.38H66.71a3.2,3.2,0,0,0,.78,2.1,2.31,2.31,0,0,0,1.74.73,2.16,2.16,0,0,0,1.33-.41A2.71,2.71,0,0,0,71.43,46.6Zm-4.64-2.29h4.66a2.82,2.82,0,0,0-.53-1.58,2.17,2.17,0,0,0-1.75-.82,2.25,2.25,0,0,0-1.64.65A2.58,2.58,0,0,0,66.79,44.32Z"/></g></g></svg>