<?xml version="1.0" encoding="utf-8"?>
<!-- Generator: Adobe Illustrator 21.0.2, SVG Export Plug-In . SVG Version: 6.00 Build 0)  -->
<svg version="1.1" id="图层_1" xmlns="http://www.w3.org/2000/svg" xmlns:xlink="http://www.w3.org/1999/xlink" x="0px" y="0px"
	 viewBox="0 0 90 90" style="enable-background:new 0 0 90 90;" xml:space="preserve">
<style type="text/css">
	.st0{fill:#0F3259;}
	.st1{font-family:'Roboto-Regular';}
	.st2{font-size:8px;}
	.st3{fill:none;stroke:#00325F;stroke-width:0.75;stroke-linecap:round;stroke-miterlimit:10;}
	.st4{fill:none;stroke:#00325F;stroke-linecap:round;stroke-miterlimit:10;}
	.st5{fill:#00325F;}
	.st6{fill:none;stroke:#FFFFFF;stroke-width:0.75;stroke-linecap:round;stroke-miterlimit:10;}
</style>
<g>
	<circle class="st0" cx="32.7" cy="21.2" r="8.6"/>
	<path class="st0" d="M44,60c-5.5,8.9-16.6,9.9-23.4,5.4c-2.9-1.9-5.2-4.8-6.2-7.8C9.5,44.4,20.8,37,24.6,36.2
		c0.3-0.1,0.5-0.1,0.7,0.1c0.6,0.5,0.9,1.5,0.9,2c0,0.3,0,0.4-0.2,0.5c-6.1,1.6-10.8,7.8-9.9,14.6c0.3,2.4,1.3,5.5,4.1,8
		c7.8,7,18,3.5,21.5-3.7c0.1-0.2,0.5-0.2,0.8,0s1.3,1,1.5,1.3C44.3,59.3,44.3,59.5,44,60z"/>
	<path class="st0" d="M51.1,67.1c-1.5,0-2.1-9.5-2.1-9.5c0-1.4-0.1-1.6-1.5-1.6H31.7c-1.3,0-3.5-0.9-3.7-2.7V34c0.8-2.8,6.1-2.3,7,0
		v12c0.1,0.4-0.5,2.8,1.1,3H50c2.3,0,3,1.1,3,3C53,52,52.6,67.1,51.1,67.1z"/>
</g>
<text transform="matrix(1 0 0 1 12.7931 77.1576)" class="st0 st1 st2">Disability Services</text>
<g>
	<path class="st3" d="M56.7,16.3c0-3.3,4.9-3.5,4.9,0c0,1-0.3,2.6-2,3.6c-0.8,0.5-0.8,0.6-0.8,1.7"/>
	<line class="st3" x1="58.8" y1="22.7" x2="58.8" y2="23.6"/>
</g>
<path class="st4" d="M64.2,26.5h-10c-1.4,0-5,1.1-5,1.1s0-4.7,0-6.1v-5c0-2.7,2.2-5,5-5h10c2.8,0,5,2.2,5,5v5
	C69.2,24.2,66.9,26.5,64.2,26.5z"/>
<path class="st5" d="M73.6,44.6h-10c-2.8,0-5-2.2-5-5v-5c0-2.8,2.2-5,5-5h10c2.8,0,5,2.2,5,5v5c0,1.2,0,7.1,0,7.1
	S75.1,44.6,73.6,44.6z"/>
<g>
	<line class="st6" x1="68.5" y1="40" x2="68.5" y2="41"/>
	<line class="st6" x1="68.5" y1="32.5" x2="68.5" y2="38.5"/>
</g>
</svg>
