<?xml version="1.0" encoding="utf-8"?>
<!-- Generator: Adobe Illustrator 19.2.1, SVG Export Plug-In . SVG Version: 6.00 Build 0)  -->
<svg version="1.1" id="图层_1" xmlns="http://www.w3.org/2000/svg" xmlns:xlink="http://www.w3.org/1999/xlink" x="0px" y="0px"
	 viewBox="0 0 90 90" style="enable-background:new 0 0 90 90;" xml:space="preserve">
<style type="text/css">
	.st0{display:none;fill:#00325F;}
	.st1{fill:#334B82;}
	.st2{fill:#0F3259;}
	.st3{fill:#E0DED4;}
	.st4{fill:#959593;}
	.st5{enable-background:new    ;}
</style>
<path class="st0" d="M90,81c0,4.7-3.3,9-7.7,9H8.5C4.1,90,0,85.7,0,81V8.6C0,3.8,4.1,0,8.5,0h73.8C86.7,0,90,3.8,90,8.6V81z"/>
<g id="printer">
	<path class="st1" d="M75,58H15V25.7c0-2.7,2.4-4.7,4.5-4.7h51.8c2.1,0,3.7,2,3.7,4.7V58z"/>
	<path class="st2" d="M75,58H15V29.4c0-2.4,2.4-3.4,4.5-3.4h51.8c2.1,0,3.7,1,3.7,3.4V58z"/>
	<polygon class="st3" points="66,65 24,65 31,43 59,43 	"/>
	<g>
		<rect x="31" y="6" class="st3" width="28" height="18"/>
		<rect x="34" y="11" class="st4" width="21" height="1"/>
		<rect x="34" y="15" class="st4" width="21" height="1"/>
		<rect x="34" y="19" class="st4" width="21" height="1"/>
	</g>
</g>
<g class="st5">
	<path class="st2" d="M16.7,77.1v-5.7h2.2c0.4,0,0.7,0,0.9,0.1c0.3,0,0.5,0.1,0.7,0.3s0.3,0.3,0.5,0.6s0.2,0.5,0.2,0.8
		c0,0.5-0.2,0.9-0.5,1.2s-0.9,0.5-1.7,0.5h-1.5v2.3h-0.8V77.1z M17.5,74.1H19c0.5,0,0.8-0.1,1-0.3s0.3-0.4,0.3-0.8
		c0-0.2-0.1-0.4-0.2-0.6s-0.3-0.3-0.5-0.3c-0.1,0-0.4-0.1-0.7-0.1h-1.5v2.1H17.5z"/>
	<path class="st2" d="M22,77.1V73h0.6v0.6c0.2-0.3,0.3-0.5,0.4-0.6s0.3-0.1,0.5-0.1s0.5,0.1,0.7,0.2L24,73.8
		c-0.2-0.1-0.3-0.2-0.5-0.2s-0.3,0-0.4,0.1s-0.2,0.2-0.3,0.4c-0.1,0.3-0.1,0.5-0.1,0.8v2.2C22.7,77.1,22,77.1,22,77.1z"/>
	<path class="st2" d="M24.6,72.2v-0.8h0.7v0.8H24.6z M24.6,77.1V73h0.7v4.1H24.6z"/>
	<path class="st2" d="M26.4,77.1V73H27v0.6c0.3-0.5,0.7-0.7,1.3-0.7c0.3,0,0.5,0,0.7,0.1s0.4,0.2,0.5,0.4s0.2,0.3,0.2,0.5
		c0,0.1,0,0.4,0,0.7v2.6H29v-2.5c0-0.3,0-0.5-0.1-0.6s-0.2-0.3-0.3-0.3s-0.3-0.1-0.5-0.1c-0.3,0-0.6,0.1-0.8,0.3S27,74.6,27,75.1
		v2.3h-0.6V77.1z"/>
	<path class="st2" d="M32.4,76.5l0.1,0.6c-0.2,0-0.4,0.1-0.5,0.1c-0.3,0-0.5,0-0.6-0.1s-0.2-0.2-0.3-0.3S31,76.3,31,75.9v-2.4h-0.5
		V73H31v-1l0.7-0.4V73h0.7v0.5h-0.7V76c0,0.2,0,0.3,0,0.4s0.1,0.1,0.1,0.1s0.1,0.1,0.2,0.1C32.2,76.5,32.3,76.5,32.4,76.5z"/>
	<path class="st2" d="M39.5,75.1l0.8,0.2c-0.2,0.6-0.4,1.1-0.9,1.4s-0.9,0.5-1.5,0.5s-1.1-0.1-1.5-0.4s-0.7-0.6-0.9-1.1
		s-0.3-1-0.3-1.5c0-0.6,0.1-1.1,0.3-1.6s0.6-0.8,1-1s0.9-0.3,1.4-0.3c0.6,0,1.1,0.1,1.4,0.4s0.7,0.7,0.8,1.2l-0.7,0.2
		c-0.1-0.4-0.3-0.7-0.6-0.9s-0.6-0.3-1-0.3S37,72,36.7,72.2s-0.5,0.5-0.6,0.8s-0.2,0.7-0.2,1.1c0,0.5,0.1,0.9,0.2,1.3
		s0.4,0.6,0.7,0.8s0.6,0.3,1,0.3s0.8-0.1,1.1-0.4S39.4,75.6,39.5,75.1z"/>
	<path class="st2" d="M40.8,75.1c0-0.8,0.2-1.3,0.6-1.7c0.4-0.3,0.8-0.5,1.3-0.5c0.6,0,1,0.2,1.4,0.6s0.5,0.9,0.5,1.5
		c0,0.5-0.1,1-0.2,1.3S44,76.8,43.7,77s-0.6,0.3-1,0.3c-0.6,0-1.1-0.2-1.4-0.6S40.8,75.8,40.8,75.1z M41.5,75.1
		c0,0.5,0.1,0.9,0.3,1.2s0.5,0.4,0.9,0.4c0.3,0,0.6-0.1,0.9-0.4S44,75.6,44,75c0-0.5-0.1-0.9-0.3-1.2s-0.5-0.4-0.9-0.4
		s-0.6,0.1-0.9,0.4S41.5,74.5,41.5,75.1z"/>
	<path class="st2" d="M45.5,78.7V73h0.6v0.5c0.2-0.2,0.3-0.4,0.5-0.5s0.4-0.2,0.7-0.2c0.4,0,0.7,0.1,0.9,0.3
		c0.3,0.2,0.5,0.4,0.6,0.8c0.1,0.3,0.2,0.7,0.2,1.1s-0.1,0.8-0.2,1.1s-0.4,0.6-0.7,0.8c-0.3,0.2-0.6,0.3-0.9,0.3
		c-0.2,0-0.4,0-0.6-0.1c-0.2-0.1-0.3-0.2-0.5-0.4v2L45.5,78.7L45.5,78.7z M46.2,75.1c0,0.5,0.1,0.9,0.3,1.2c0.2,0.3,0.5,0.4,0.8,0.4
		s0.6-0.1,0.8-0.4s0.3-0.7,0.3-1.2s-0.1-0.9-0.3-1.2c-0.2-0.3-0.5-0.4-0.8-0.4s-0.6,0.1-0.8,0.4S46.2,74.5,46.2,75.1z"/>
	<path class="st2" d="M49.9,78.7L49.8,78c0.2,0,0.3,0.1,0.4,0.1c0.2,0,0.3,0,0.4-0.1s0.2-0.1,0.2-0.2s0.1-0.2,0.2-0.5
		c0,0,0-0.1,0.1-0.2L49.6,73h0.8l0.9,2.4c0.1,0.3,0.2,0.6,0.3,1c0.1-0.3,0.2-0.6,0.3-0.9l0.9-2.4h0.7l-1.6,4.2
		c-0.2,0.5-0.3,0.8-0.4,0.9c-0.1,0.2-0.3,0.4-0.4,0.5c-0.2,0.1-0.4,0.2-0.6,0.2C50.3,78.8,50.1,78.8,49.9,78.7z"/>
	<path class="st2" d="M56,75.3l0.7-0.1c0,0.3,0.1,0.5,0.2,0.7c0.1,0.2,0.3,0.3,0.6,0.4s0.6,0.2,0.9,0.2c0.3,0,0.5,0,0.8-0.1
		c0.2-0.1,0.4-0.2,0.5-0.4c0.1-0.1,0.2-0.3,0.2-0.5s-0.1-0.3-0.2-0.5c-0.1-0.1-0.3-0.2-0.5-0.3c-0.2-0.1-0.5-0.2-1-0.3
		c-0.5-0.1-0.9-0.2-1.1-0.4c-0.3-0.1-0.5-0.3-0.6-0.5s-0.2-0.5-0.2-0.7c0-0.3,0.1-0.6,0.2-0.8s0.4-0.4,0.7-0.6
		c0.3-0.1,0.7-0.2,1.1-0.2c0.4,0,0.8,0.1,1.1,0.2s0.6,0.3,0.7,0.6c0.2,0.3,0.3,0.6,0.3,0.9L59.7,73c0-0.4-0.2-0.6-0.4-0.8
		c-0.2-0.2-0.6-0.3-1-0.3c-0.5,0-0.8,0.1-1,0.3c-0.2,0.2-0.3,0.4-0.3,0.6s0.1,0.4,0.2,0.5c0.1,0.1,0.5,0.3,1.1,0.4s1,0.3,1.3,0.4
		c0.3,0.2,0.6,0.3,0.7,0.6c0.2,0.2,0.2,0.5,0.2,0.8s-0.1,0.6-0.3,0.9s-0.4,0.5-0.8,0.6c-0.3,0.1-0.7,0.2-1.1,0.2
		c-0.5,0-1-0.1-1.3-0.2c-0.3-0.2-0.6-0.4-0.8-0.7S56,75.7,56,75.3z"/>
	<path class="st2" d="M64.2,75.6l0.7,0.1c-0.1,0.5-0.3,0.8-0.6,1.1c-0.3,0.3-0.7,0.4-1.1,0.4c-0.6,0-1-0.2-1.4-0.6
		c-0.3-0.4-0.5-0.9-0.5-1.6c0-0.4,0.1-0.8,0.2-1.2s0.4-0.6,0.7-0.8c0.3-0.2,0.6-0.3,1-0.3c0.5,0,0.8,0.1,1.1,0.3
		c0.3,0.2,0.5,0.6,0.6,1l-0.7,0.1c-0.1-0.3-0.2-0.5-0.3-0.6c-0.2-0.1-0.4-0.2-0.6-0.2c-0.4,0-0.6,0.1-0.9,0.4
		c-0.2,0.3-0.3,0.7-0.3,1.2c0,0.6,0.1,1,0.3,1.2c0.2,0.3,0.5,0.4,0.8,0.4s0.5-0.1,0.7-0.3C64.1,76.2,64.2,76,64.2,75.6z"/>
	<path class="st2" d="M68.2,76.6c-0.3,0.2-0.5,0.4-0.8,0.5c-0.2,0.1-0.5,0.1-0.8,0.1c-0.5,0-0.8-0.1-1.1-0.3
		c-0.2-0.2-0.4-0.5-0.4-0.9c0-0.2,0-0.4,0.1-0.6s0.2-0.3,0.4-0.4c0.2-0.1,0.3-0.2,0.5-0.2c0.1,0,0.3-0.1,0.6-0.1
		c0.6-0.1,1-0.1,1.3-0.2c0-0.1,0-0.2,0-0.2c0-0.3-0.1-0.5-0.2-0.6c-0.2-0.2-0.4-0.2-0.8-0.2c-0.3,0-0.6,0.1-0.7,0.2
		C66.1,73.8,66,74,66,74.3l-0.7-0.1c0.1-0.3,0.2-0.5,0.3-0.7c0.1-0.2,0.4-0.3,0.6-0.4c0.3-0.1,0.6-0.1,0.9-0.1c0.4,0,0.6,0,0.9,0.1
		c0.2,0.1,0.4,0.2,0.5,0.3c0.1,0.1,0.2,0.3,0.2,0.5c0,0.1,0,0.3,0,0.6v0.9c0,0.7,0,1.1,0,1.2c0,0.2,0.1,0.3,0.2,0.5h-0.7
		C68.3,77,68.3,76.8,68.2,76.6z M68.2,75.1c-0.3,0.1-0.6,0.2-1.1,0.3c-0.3,0-0.5,0.1-0.6,0.1c-0.1,0.1-0.2,0.1-0.3,0.2
		C66.1,75.8,66,75.9,66,76c0,0.2,0.1,0.3,0.2,0.5c0.1,0.1,0.3,0.2,0.6,0.2c0.3,0,0.5-0.1,0.7-0.2s0.4-0.3,0.5-0.5s0.1-0.4,0.1-0.7
		v-0.2H68.2z"/>
	<path class="st2" d="M70,77.1V73h0.6v0.6c0.3-0.5,0.7-0.7,1.3-0.7c0.3,0,0.5,0,0.7,0.1s0.4,0.2,0.5,0.4c0.1,0.1,0.2,0.3,0.2,0.5
		c0,0.1,0,0.4,0,0.7v2.6h-0.7v-2.5c0-0.3,0-0.5-0.1-0.6s-0.2-0.3-0.3-0.3c-0.1-0.1-0.3-0.1-0.5-0.1c-0.3,0-0.6,0.1-0.8,0.3
		c-0.2,0.2-0.3,0.6-0.3,1.1v2.3H70V77.1z"/>
</g>
</svg>
