<?xml version="1.0" encoding="utf-8"?>
<!-- Generator: Adobe Illustrator 19.2.1, SVG Export Plug-In . SVG Version: 6.00 Build 0)  -->
<svg version="1.1" id="图层_1" xmlns="http://www.w3.org/2000/svg" xmlns:xlink="http://www.w3.org/1999/xlink" x="0px" y="0px"
	 viewBox="0 0 90 90" style="enable-background:new 0 0 90 90;" xml:space="preserve">
<style type="text/css">
	.st0{fill:#00325F;}
	.st1{fill:#FFFFFA;}
	.st2{display:none;fill:#00325F;}
	.st3{fill:#BE3E43;}
	.st4{enable-background:new    ;}
</style>
<path class="st0" d="M90,81c0,4.7-3.3,9-7.7,9H8.5C4.1,90,0,85.7,0,81V8.6C0,3.8,4.1,0,8.5,0h73.8C86.7,0,90,3.8,90,8.6V81z"/>
<rect x="15" y="5" class="st1" width="60" height="60"/>
<rect x="43" y="7" class="st2" width="3" height="57"/>
<g id="fire">
	<path class="st3" d="M52.1,48.3c0.7,5.4-5.3,8.8-9.8,8.8c-4.9,0-15.4-3.5-11.5-15.4C35.6,27.1,39.1,23,39.1,23s1.2,8.2,6.3,14.8
		C48.5,41.7,51.5,43.8,52.1,48.3z"/>
	<path class="st3" d="M59.3,40.7c3.8,11.5-8.6,16.3-8.6,16.3s10.7-6.6,0.3-17c-2.5-2.6-8.2-11.4-8.2-16.8c0-7.2,1.2-11.1,1.2-11.1
		s0.2,9.2,4.7,16C52.6,34.1,56.9,33.6,59.3,40.7z"/>
</g>
<g class="st4">
	<path class="st1" d="M32.3,77.1v-5.7h3.9v0.7h-3.1v1.8h2.7v0.7h-2.7v2.6H32.3z"/>
	<path class="st1" d="M37.1,72.2v-0.8h0.7v0.8H37.1z M37.1,77.1V73h0.7v4.1H37.1z"/>
	<path class="st1" d="M38.8,77.1V73h0.6v0.6c0.2-0.3,0.3-0.5,0.4-0.6s0.3-0.1,0.5-0.1c0.2,0,0.5,0.1,0.7,0.2l-0.2,0.7
		c-0.2-0.1-0.3-0.2-0.5-0.2c-0.2,0-0.3,0-0.4,0.1s-0.2,0.2-0.3,0.4c-0.1,0.3-0.1,0.5-0.1,0.8v2.2H38.8z"/>
	<path class="st1" d="M44.4,75.8l0.7,0.1c-0.1,0.4-0.3,0.8-0.6,1s-0.7,0.4-1.2,0.4c-0.6,0-1.1-0.2-1.4-0.6s-0.5-0.9-0.5-1.6
		c0-0.7,0.2-1.2,0.5-1.6s0.8-0.6,1.4-0.6c0.6,0,1,0.2,1.4,0.6s0.5,0.9,0.5,1.6c0,0,0,0.1,0,0.2H42c0,0.5,0.2,0.8,0.4,1
		s0.5,0.4,0.9,0.4c0.3,0,0.5-0.1,0.7-0.2S44.3,76.1,44.4,75.8z M42.1,74.7h2.3c0-0.3-0.1-0.6-0.3-0.8c-0.2-0.3-0.5-0.4-0.9-0.4
		c-0.3,0-0.6,0.1-0.8,0.3S42.1,74.3,42.1,74.7z"/>
	<path class="st1" d="M48.3,77.1v-5.7H49v5.1h2.8v0.7H48.3z"/>
	<path class="st1" d="M52.6,72.2v-0.8h0.7v0.8H52.6z M52.6,77.1V73h0.7v4.1H52.6z"/>
	<path class="st1" d="M54.6,77.1v-3.6H54V73h0.6v-0.4c0-0.3,0-0.5,0.1-0.6c0.1-0.2,0.2-0.3,0.4-0.4c0.2-0.1,0.4-0.2,0.7-0.2
		c0.2,0,0.4,0,0.7,0.1L56.3,72c-0.1,0-0.3,0-0.4,0c-0.2,0-0.4,0-0.5,0.1c-0.1,0.1-0.1,0.3-0.1,0.5V73h0.8v0.5h-0.8v3.6H54.6z"/>
	<path class="st1" d="M58.2,76.5l0.1,0.6c-0.2,0-0.4,0.1-0.5,0.1c-0.3,0-0.5,0-0.6-0.1s-0.2-0.2-0.3-0.3c-0.1-0.1-0.1-0.4-0.1-0.8
		v-2.4h-0.5V73h0.5v-1l0.7-0.4V73h0.7v0.5h-0.7V76c0,0.2,0,0.3,0,0.4c0,0.1,0.1,0.1,0.1,0.1c0.1,0,0.1,0.1,0.2,0.1
		C57.9,76.5,58,76.5,58.2,76.5z"/>
</g>
</svg>
