<?xml version="1.0" encoding="utf-8"?>
<!-- Generator: Adobe Illustrator 19.2.1, SVG Export Plug-In . SVG Version: 6.00 Build 0)  -->
<svg version="1.1" id="图层_1" xmlns="http://www.w3.org/2000/svg" xmlns:xlink="http://www.w3.org/1999/xlink" x="0px" y="0px"
	 viewBox="0 0 90 90" style="enable-background:new 0 0 90 90;" xml:space="preserve">
<style type="text/css">
	.st0{fill:#00325F;}
	.st1{fill:#FFFFFF;}
	.st2{fill:#9FCDFF;stroke:#9FCDFF;stroke-linecap:round;stroke-miterlimit:10;}
	.st3{clip-path:url(#SVGID_2_);fill:#9FCDFF;}
</style>
<path class="st0" d="M90,81c0,4.7-3.3,9-7.7,9H8.5C4.1,90,0,85.7,0,81V8.6C0,3.8,4.1,0,8.5,0h73.8C86.7,0,90,3.8,90,8.6V81z"/>
<g>
	<path class="st1" d="M22.7,75.9L22.7,75.9L22.7,75.9l1-3.7h0.7l1,3.7l0,0l0,0l0.8-3.6H27l-1.2,5h-0.8l-1-3.6h0l-1,3.6h-0.8l-1.2-5
		h0.8L22.7,75.9z"/>
	<path class="st1" d="M29.7,77.2c0-0.1-0.1-0.2-0.1-0.3c0-0.1,0-0.2,0-0.3c-0.1,0.2-0.3,0.3-0.4,0.4c-0.2,0.1-0.4,0.2-0.6,0.2
		c-0.4,0-0.7-0.1-0.9-0.3c-0.2-0.2-0.3-0.5-0.3-0.8c0-0.4,0.1-0.6,0.4-0.8S28.5,75,29,75h0.6v-0.3c0-0.2-0.1-0.3-0.2-0.5
		s-0.3-0.2-0.5-0.2c-0.2,0-0.3,0-0.5,0.1c-0.1,0.1-0.2,0.2-0.2,0.4h-0.8l0,0c0-0.3,0.1-0.6,0.4-0.8c0.3-0.2,0.6-0.3,1.1-0.3
		c0.4,0,0.8,0.1,1,0.3s0.4,0.5,0.4,0.9v1.6c0,0.2,0,0.3,0,0.4c0,0.1,0.1,0.3,0.1,0.4H29.7z M28.7,76.6c0.2,0,0.4-0.1,0.6-0.2
		c0.2-0.1,0.3-0.2,0.3-0.4v-0.5H29c-0.2,0-0.4,0.1-0.6,0.2c-0.1,0.1-0.2,0.3-0.2,0.4c0,0.1,0,0.3,0.1,0.3
		C28.4,76.6,28.5,76.6,28.7,76.6z"/>
	<path class="st1" d="M32.3,72.6v0.9H33v0.6h-0.7v2c0,0.2,0,0.3,0.1,0.3c0.1,0.1,0.2,0.1,0.3,0.1c0,0,0.1,0,0.1,0s0.1,0,0.1,0
		l0.1,0.6c-0.1,0-0.2,0.1-0.3,0.1s-0.2,0-0.3,0c-0.3,0-0.5-0.1-0.7-0.3s-0.3-0.5-0.3-0.8v-2H31v-0.6h0.6v-0.9H32.3z"/>
	<path class="st1" d="M35.3,77.3c-0.5,0-0.9-0.2-1.3-0.5c-0.3-0.3-0.5-0.8-0.5-1.3v-0.1c0-0.5,0.2-1,0.5-1.3
		c0.3-0.4,0.7-0.5,1.2-0.5c0.5,0,0.9,0.2,1.1,0.5s0.4,0.7,0.4,1.2v0.5h-2.3l0,0c0,0.3,0.1,0.5,0.3,0.7s0.4,0.3,0.7,0.3
		c0.2,0,0.4,0,0.6-0.1s0.3-0.1,0.5-0.2l0.3,0.5c-0.1,0.1-0.3,0.2-0.6,0.3C35.9,77.2,35.6,77.3,35.3,77.3z M35.2,74.1
		c-0.2,0-0.4,0.1-0.5,0.2c-0.1,0.2-0.2,0.4-0.2,0.6l0,0H36v-0.1c0-0.2-0.1-0.4-0.2-0.6S35.5,74.1,35.2,74.1z"/>
	<path class="st1" d="M39.3,74.3l-0.4,0c-0.2,0-0.3,0-0.4,0.1s-0.2,0.2-0.3,0.3v2.6h-0.8v-3.7h0.8l0.1,0.5c0.1-0.2,0.2-0.3,0.4-0.4
		c0.1-0.1,0.3-0.2,0.5-0.2c0,0,0.1,0,0.1,0c0,0,0.1,0,0.1,0L39.3,74.3z"/>
	<path class="st1" d="M44.7,75.1h-2.2v2.1h-0.8v-5h3.4v0.7h-2.5v1.5h2.2V75.1z"/>
	<path class="st1" d="M45.4,75.3c0-0.5,0.2-1,0.5-1.4c0.3-0.4,0.7-0.5,1.2-0.5c0.5,0,0.9,0.2,1.2,0.5c0.3,0.4,0.5,0.8,0.5,1.4v0.1
		c0,0.6-0.2,1-0.5,1.4c-0.3,0.3-0.7,0.5-1.2,0.5c-0.5,0-0.9-0.2-1.2-0.5C45.6,76.4,45.4,75.9,45.4,75.3L45.4,75.3z M46.2,75.4
		c0,0.4,0.1,0.7,0.2,0.9c0.1,0.2,0.4,0.3,0.7,0.3c0.3,0,0.5-0.1,0.6-0.3c0.1-0.2,0.2-0.5,0.2-0.9v-0.1c0-0.4-0.1-0.6-0.2-0.9
		c-0.1-0.2-0.4-0.3-0.7-0.3c-0.3,0-0.5,0.1-0.6,0.3C46.3,74.7,46.2,75,46.2,75.4L46.2,75.4z"/>
	<path class="st1" d="M51.8,76.7c-0.1,0.2-0.3,0.3-0.4,0.5c-0.2,0.1-0.4,0.2-0.6,0.2c-0.4,0-0.7-0.1-0.9-0.4
		c-0.2-0.3-0.3-0.6-0.3-1.2v-2.2h0.8v2.2c0,0.3,0.1,0.6,0.2,0.7c0.1,0.1,0.3,0.2,0.5,0.2c0.2,0,0.4,0,0.5-0.1
		c0.1-0.1,0.2-0.2,0.3-0.3v-2.7h0.8v3.7h-0.7L51.8,76.7z"/>
	<path class="st1" d="M54.2,73.5l0,0.5c0.1-0.2,0.3-0.3,0.5-0.4c0.2-0.1,0.4-0.2,0.6-0.2c0.4,0,0.7,0.1,0.9,0.4
		c0.2,0.2,0.3,0.6,0.3,1.1v2.3h-0.8v-2.3c0-0.3-0.1-0.5-0.2-0.6s-0.3-0.2-0.5-0.2c-0.2,0-0.3,0-0.4,0.1c-0.1,0.1-0.2,0.2-0.3,0.3
		v2.7h-0.8v-3.7H54.2z"/>
	<path class="st1" d="M58.5,72.6v0.9h0.7v0.6h-0.7v2c0,0.2,0,0.3,0.1,0.3c0.1,0.1,0.2,0.1,0.3,0.1c0,0,0.1,0,0.1,0c0,0,0.1,0,0.1,0
		l0.1,0.6c-0.1,0-0.2,0.1-0.3,0.1c-0.1,0-0.2,0-0.3,0c-0.3,0-0.5-0.1-0.7-0.3s-0.3-0.5-0.3-0.8v-2h-0.6v-0.6h0.6v-0.9H58.5z"/>
	<path class="st1" d="M62.1,77.2c0-0.1-0.1-0.2-0.1-0.3s0-0.2,0-0.3c-0.1,0.2-0.3,0.3-0.4,0.4s-0.4,0.2-0.6,0.2
		c-0.4,0-0.7-0.1-0.9-0.3s-0.3-0.5-0.3-0.8c0-0.4,0.1-0.6,0.4-0.8s0.7-0.3,1.2-0.3H62v-0.3c0-0.2-0.1-0.3-0.2-0.5s-0.3-0.2-0.5-0.2
		c-0.2,0-0.3,0-0.5,0.1c-0.1,0.1-0.2,0.2-0.2,0.4h-0.8l0,0c0-0.3,0.1-0.6,0.4-0.8c0.3-0.2,0.6-0.3,1.1-0.3c0.4,0,0.8,0.1,1,0.3
		c0.3,0.2,0.4,0.5,0.4,0.9v1.6c0,0.2,0,0.3,0,0.4c0,0.1,0.1,0.3,0.1,0.4H62.1z M61.1,76.6c0.2,0,0.4-0.1,0.6-0.2
		c0.2-0.1,0.3-0.2,0.3-0.4v-0.5h-0.7c-0.2,0-0.4,0.1-0.6,0.2c-0.1,0.1-0.2,0.3-0.2,0.4c0,0.1,0,0.3,0.1,0.3
		C60.8,76.6,60.9,76.6,61.1,76.6z"/>
	<path class="st1" d="M64.6,72.6h-0.8v-0.7h0.8V72.6z M64.6,77.2h-0.8v-3.7h0.8V77.2z"/>
	<path class="st1" d="M66.3,73.5l0,0.5c0.1-0.2,0.3-0.3,0.5-0.4c0.2-0.1,0.4-0.2,0.6-0.2c0.4,0,0.7,0.1,0.9,0.4
		c0.2,0.2,0.3,0.6,0.3,1.1v2.3h-0.8v-2.3c0-0.3-0.1-0.5-0.2-0.6s-0.3-0.2-0.5-0.2c-0.2,0-0.3,0-0.4,0.1c-0.1,0.1-0.2,0.2-0.3,0.3
		v2.7h-0.8v-3.7H66.3z"/>
</g>
<g>
	<path class="st2" d="M30,27.5H60c1.8,0,3.3,1.1,3,2.3l-7.2,38.3H34.1l-7.2-38.3C26.7,28.5,28.1,27.5,30,27.5z"/>
	<path class="st1" d="M30.4,28.2h28.5c1.8,0,3.9,1,3.7,2.2l-1.8,8c0,0-2.7-2-8.3-2c-6,0-12.7,4-15.8,4c-3.7,0-8.1-3.5-8.1-3.5
		l-1.2-6.4C27.3,29.3,28.6,28.2,30.4,28.2z"/>
</g>
<g id="drop">
	<path class="st1" d="M56.7,15.4c1.4,3.2-2.1,5.2-4.4,5.2s-5.6-1.8-4.4-5.1c1.4-3.8,4.4-9.8,4.4-9.8S55.2,11.9,56.7,15.4z"/>
	<g>
		<defs>
			<path id="SVGID_1_" d="M56.7,15.4c1.4,3.2-2.1,5.2-4.4,5.2s-5.6-1.8-4.4-5.1c1.4-3.8,4.4-9.8,4.4-9.8S55.2,11.9,56.7,15.4z"/>
		</defs>
		<use xlink:href="#SVGID_1_"  style="overflow:visible;fill:#FFFFFF;"/>
		<clipPath id="SVGID_2_">
			<use xlink:href="#SVGID_1_"  style="overflow:visible;"/>
		</clipPath>
		<path class="st3" d="M56.7,15.4c1.4,3.2-2.1,5.2-4.4,5.2s-5.6-1.8-4.4-5.1c1.4-3.8,4.4-9.8,4.4-9.8c0,0-1.9,7.6-0.7,9.1
			C52.7,16.2,56.7,15.4,56.7,15.4z"/>
	</g>
</g>
</svg>
