<?xml version="1.0" encoding="utf-8"?>
<!-- Generator: Adobe Illustrator 19.2.1, SVG Export Plug-In . SVG Version: 6.00 Build 0)  -->
<svg version="1.1" id="图层_1" xmlns="http://www.w3.org/2000/svg" xmlns:xlink="http://www.w3.org/1999/xlink" x="0px" y="0px"
	 viewBox="0 0 90 90" style="enable-background:new 0 0 90 90;" xml:space="preserve">
<style type="text/css">
	.st0{fill:#00325F;}
	.st1{fill:#FFFFFA;}
	.st2{clip-path:url(#SVGID_2_);}
	.st3{fill:#CCCCCC;}
	.st4{fill:#0F3259;}
</style>
<title>newspaper</title>
<path class="st0" d="M84.8,59.6c0,3.8-3.7,6.9-8.1,6.9H12.5c-4.5,0-8.1-3.1-8.1-6.9V10.7c0-3.8,3.7-6.9,8.1-6.9h64.2
	c4.5,0,8.1,3.1,8.1,6.9V59.6z"/>
<g id="icon">
	<g>
		<path class="st1" d="M80,60.4c0,0.6-0.4,1.6-0.9,1.6H10.9c-0.5,0-0.9-1-0.9-1.6V8.6C10,8,10.4,8,10.9,8h62.8
			c0.5,0,6.3,4.7,6.3,5.3V60.4z"/>
		<path class="st0" d="M42,35c0,0.5-0.4,1-0.9,1c0,0-0.1,0-0.1,0H16c-0.5,0-1-0.4-1-0.9c0,0,0-0.1,0-0.1V21c0-0.5,0.4-1,0.9-1
			c0,0,0.1,0,0.1,0h25c0.5,0,1,0.4,1,0.9c0,0,0,0.1,0,0.1V35z"/>
		<g>
			<rect x="15" y="43" class="st0" width="27" height="2"/>
			<rect x="15" y="48" class="st0" width="27" height="2"/>
			<rect x="15" y="53" class="st0" width="27" height="2"/>
			<rect x="15" y="58" class="st0" width="27" height="2"/>
		</g>
		<g>
			<rect x="48" y="20" class="st0" width="27" height="2"/>
			<rect x="48" y="25" class="st0" width="27" height="2"/>
			<rect x="48" y="30" class="st0" width="27" height="2"/>
			<rect x="48" y="35" class="st0" width="27" height="2"/>
		</g>
		<g>
			<rect x="48" y="43" class="st0" width="27" height="2"/>
			<path class="st0" d="M75,59c0,0.5-0.4,1-0.9,1c0,0-0.1,0-0.1,0H49c-0.5,0-1-0.4-1-0.9c0,0,0-0.1,0-0.1V49c0-0.5,0.4-1,0.9-1
				c0,0,0.1,0,0.1,0h25c0.5,0,1,0.4,1,0.9c0,0,0,0.1,0,0.1V59z"/>
		</g>
	</g>
	<rect id="title" x="15" y="11" class="st0" width="60" height="6"/>
	<g>
		<defs>
			<path id="SVGID_1_" d="M80,60.4c0,0.6-0.4,1.6-0.9,1.6H10.9c-0.5,0-0.9-1-0.9-1.6V8.6C10,8,10.4,8,10.9,8h62.8
				c0.5,0,6.3,4.7,6.3,5.3V60.4z"/>
		</defs>
		<clipPath id="SVGID_2_">
			<use xlink:href="#SVGID_1_"  style="overflow:visible;"/>
		</clipPath>
		<g class="st2">
			<polygon class="st3" points="80.8,13 74,13 74,7.5 			"/>
		</g>
	</g>
</g>
<g>
	<path class="st4" d="M12.4,77.1v-4.3H13l2.3,3.4v-3.4h0.5v4.3h-0.6l-2.3-3.4v3.4L12.4,77.1L12.4,77.1z"/>
	<path class="st4" d="M18.8,76.1l0.5,0.1c-0.1,0.3-0.2,0.6-0.5,0.7c-0.6,0.4-1.5,0.3-2-0.2c-0.3-0.3-0.4-0.7-0.4-1.2
		c0-0.4,0.1-0.9,0.4-1.2c0.3-0.3,0.6-0.4,1-0.4c0.4,0,0.7,0.1,1,0.4c0.3,0.3,0.4,0.8,0.4,1.2c0,0,0,0.1,0,0.1H17
		c0,0.3,0.1,0.6,0.3,0.8c0.2,0.2,0.4,0.3,0.6,0.3c0.2,0,0.4,0,0.5-0.2C18.6,76.5,18.7,76.3,18.8,76.1z M17.1,75.3h1.7
		c0-0.2-0.1-0.4-0.2-0.6c-0.2-0.2-0.4-0.3-0.6-0.3c-0.2,0-0.4,0.1-0.6,0.2C17.2,74.8,17.1,75,17.1,75.3z"/>
	<path class="st4" d="M20.6,77.1l-1-3.1h0.5l0.5,1.8l0.2,0.7l0.2-0.7l0.5-1.8H22l0.5,1.8l0.2,0.6l0.2-0.6l0.6-1.8h0.5l-1,3.1h-0.5
		l-0.5-1.9l-0.1-0.5l-0.6,2.4L20.6,77.1L20.6,77.1z"/>
	<path class="st4" d="M26.2,77.1v-4.3h0.6v4.3H26.2z"/>
	<path class="st4" d="M28.8,76.7l0.1,0.5c-0.1,0-0.3,0-0.4,0c-0.2,0-0.3,0-0.5-0.1c-0.1-0.1-0.2-0.1-0.2-0.2
		c-0.1-0.2-0.1-0.4-0.1-0.6v-1.8h-0.4V74h0.4v-0.8l0.5-0.3V74h0.5v0.4h-0.5v1.8c0,0.1,0,0.2,0,0.3c0,0,0.1,0.1,0.1,0.1
		c0.1,0,0.1,0,0.2,0L28.8,76.7z"/>
	<path class="st4" d="M31.5,76.1l0.5,0.1c-0.1,0.3-0.2,0.6-0.5,0.7c-0.6,0.4-1.5,0.3-2-0.2c-0.3-0.3-0.4-0.7-0.4-1.2
		c0-0.4,0.1-0.9,0.4-1.2c0.3-0.3,0.6-0.4,1-0.4c0.4,0,0.7,0.1,1,0.4c0.3,0.3,0.4,0.8,0.4,1.2c0,0,0,0.1,0,0.1h-2.2
		c0,0.3,0.1,0.6,0.3,0.8c0.2,0.2,0.4,0.3,0.6,0.3c0.2,0,0.4,0,0.5-0.2C31.3,76.5,31.4,76.3,31.5,76.1z M29.7,75.3h1.7
		c0-0.2-0.1-0.4-0.2-0.6c-0.2-0.2-0.4-0.3-0.6-0.3c-0.2,0-0.4,0.1-0.6,0.2C29.8,74.8,29.7,75,29.7,75.3z"/>
	<path class="st4" d="M32.7,77.1V74h0.5v0.4c0.1-0.2,0.2-0.3,0.4-0.4c0.2-0.1,0.4-0.1,0.6-0.1c0.2,0,0.4,0,0.6,0.1
		c0.1,0.1,0.3,0.2,0.3,0.4c0.2-0.3,0.6-0.6,1-0.5c0.3,0,0.5,0.1,0.7,0.3c0.2,0.2,0.3,0.5,0.3,0.8v2.1h-0.6v-2c0-0.2,0-0.3,0-0.5
		c0-0.1-0.1-0.2-0.2-0.2c-0.1-0.1-0.2-0.1-0.3-0.1c-0.2,0-0.4,0.1-0.5,0.2c-0.2,0.2-0.2,0.4-0.2,0.7v1.8h-0.5v-2
		c0-0.2,0-0.4-0.1-0.5c-0.1-0.1-0.2-0.2-0.4-0.2c-0.1,0-0.3,0-0.4,0.1c-0.1,0.1-0.2,0.2-0.3,0.3c-0.1,0.2-0.1,0.4-0.1,0.7v1.6
		C33.2,77.1,32.7,77.1,32.7,77.1z"/>
	<path class="st4" d="M37.5,76.2l0.5-0.1c0,0.2,0.1,0.4,0.3,0.5c0.2,0.1,0.4,0.2,0.6,0.2c0.2,0,0.4,0,0.5-0.2
		c0.1-0.1,0.2-0.2,0.2-0.3c0-0.1-0.1-0.2-0.2-0.3c-0.2-0.1-0.4-0.1-0.5-0.2c-0.3-0.1-0.5-0.1-0.8-0.3c-0.1-0.1-0.3-0.2-0.3-0.3
		c-0.1-0.1-0.1-0.3-0.1-0.4c0-0.1,0-0.3,0.1-0.4c0.1-0.1,0.2-0.2,0.3-0.3c0.1-0.1,0.2-0.1,0.3-0.2c0.2,0,0.3,0,0.5,0
		c0.2,0,0.4,0,0.6,0.1c0.2,0.1,0.3,0.2,0.4,0.3c0.1,0.1,0.2,0.3,0.2,0.5L39.4,75c0-0.1-0.1-0.3-0.2-0.4c-0.1-0.1-0.3-0.1-0.5-0.1
		c-0.2,0-0.4,0-0.5,0.1c-0.1,0.1-0.2,0.2-0.2,0.3c0,0.1,0,0.1,0.1,0.2c0.1,0.1,0.1,0.1,0.2,0.1l0.5,0.1c0.3,0.1,0.5,0.1,0.8,0.2
		c0.1,0.1,0.3,0.2,0.3,0.3C40,76,40,76.1,40,76.3c0,0.2-0.1,0.4-0.2,0.5c-0.1,0.2-0.3,0.3-0.4,0.4c-0.2,0.1-0.4,0.1-0.7,0.1
		c-0.3,0-0.7-0.1-0.9-0.3C37.6,76.8,37.5,76.5,37.5,76.2z"/>
	<path class="st4" d="M44.8,76.6c-0.2,0.2-0.4,0.3-0.6,0.4c-0.2,0.1-0.4,0.2-0.7,0.2c-0.4,0-0.7-0.2-1-0.4c-0.2-0.2-0.3-0.5-0.4-0.8
		c0-0.3,0.1-0.5,0.3-0.7c0.2-0.2,0.5-0.4,0.8-0.6c-0.2-0.2-0.3-0.3-0.4-0.5c-0.1-0.1-0.1-0.3-0.1-0.4c0-0.3,0.1-0.5,0.3-0.7
		c0.2-0.2,0.5-0.3,0.8-0.3c0.3,0,0.5,0.1,0.7,0.3c0.2,0.2,0.3,0.4,0.3,0.7c-0.1,0.5-0.4,0.8-0.8,1l0.8,1c0.1-0.2,0.2-0.4,0.2-0.6
		l0.5,0.1c-0.1,0.3-0.2,0.6-0.4,0.9c0.2,0.3,0.4,0.5,0.7,0.7l-0.3,0.4C45.2,77.1,45,76.9,44.8,76.6z M44.5,76.2l-1-1.2
		c-0.2,0.1-0.4,0.3-0.6,0.5c-0.1,0.1-0.1,0.3-0.2,0.4c0,0.2,0.1,0.4,0.2,0.5c0.1,0.2,0.4,0.3,0.6,0.3c0.2,0,0.3-0.1,0.5-0.2
		C44.2,76.5,44.3,76.4,44.5,76.2z M43.7,74.4c0.2-0.1,0.3-0.2,0.4-0.4c0.1-0.1,0.1-0.2,0.1-0.3c0-0.1,0-0.3-0.1-0.4
		c-0.1-0.1-0.2-0.1-0.3-0.1c-0.1,0-0.3,0-0.4,0.1c-0.1,0.1-0.1,0.2-0.1,0.3c0,0.1,0,0.1,0,0.2c0,0.1,0.1,0.2,0.2,0.2L43.7,74.4z"/>
	<path class="st4" d="M48.1,77.1v-4.3h0.6l2.3,3.4v-3.4h0.5v4.3h-0.6l-2.3-3.4v3.4L48.1,77.1L48.1,77.1z"/>
	<path class="st4" d="M54.5,76.1l0.5,0.1c-0.1,0.3-0.2,0.6-0.5,0.7c-0.6,0.4-1.5,0.3-2-0.2c-0.3-0.3-0.4-0.7-0.4-1.2
		c0-0.4,0.1-0.9,0.4-1.2c0.3-0.3,0.6-0.4,1-0.4c0.4,0,0.7,0.1,1,0.4c0.3,0.3,0.4,0.8,0.4,1.2c0,0,0,0.1,0,0.1h-2.2
		c0,0.3,0.1,0.6,0.3,0.8c0.2,0.2,0.4,0.3,0.7,0.3c0.2,0,0.4,0,0.5-0.2C54.3,76.5,54.4,76.3,54.5,76.1z M52.7,75.3h1.7
		c0-0.2-0.1-0.4-0.2-0.6c-0.2-0.2-0.4-0.3-0.7-0.3c-0.2,0-0.4,0.1-0.6,0.2C52.8,74.8,52.7,75,52.7,75.3z"/>
	<path class="st4" d="M56.3,77.1l-1-3.1h0.5l0.5,1.8l0.2,0.7l0.2-0.6l0.5-1.8h0.5l0.5,1.8l0.2,0.6l0.2-0.6L59,74h0.5l-1,3.1H58
		l-0.5-1.9l-0.1-0.5l-0.6,2.4H56.3z"/>
	<path class="st4" d="M59.8,76.2l0.5-0.1c0,0.2,0.1,0.4,0.3,0.5c0.2,0.1,0.4,0.2,0.6,0.2c0.2,0,0.4,0,0.5-0.2
		c0.1-0.1,0.2-0.2,0.2-0.3c0-0.1-0.1-0.2-0.2-0.3c-0.2-0.1-0.4-0.1-0.5-0.2c-0.3-0.1-0.5-0.1-0.8-0.3c-0.1-0.1-0.3-0.2-0.3-0.3
		c-0.1-0.1-0.1-0.3-0.1-0.4c0-0.1,0-0.3,0.1-0.4c0.1-0.1,0.2-0.2,0.3-0.3c0.1-0.1,0.2-0.1,0.3-0.2c0.1,0,0.3,0,0.4,0
		c0.2,0,0.4,0,0.6,0.1c0.2,0.1,0.3,0.2,0.4,0.3c0.1,0.1,0.2,0.3,0.2,0.5L61.7,75c0-0.1-0.1-0.3-0.2-0.4c-0.1-0.1-0.3-0.1-0.5-0.1
		c-0.2,0-0.4,0-0.5,0.1c-0.1,0.1-0.2,0.2-0.2,0.3c0,0.1,0,0.1,0.1,0.2c0.1,0.1,0.1,0.1,0.2,0.1l0.5,0.1c0.3,0.1,0.5,0.1,0.8,0.2
		c0.1,0.1,0.3,0.2,0.3,0.3c0.1,0.1,0.1,0.3,0.1,0.4c0,0.2-0.1,0.4-0.2,0.5c-0.1,0.2-0.3,0.3-0.4,0.4c-0.2,0.1-0.4,0.1-0.7,0.1
		c-0.3,0-0.6-0.1-0.9-0.3C60,76.8,59.8,76.5,59.8,76.2z"/>
	<path class="st4" d="M63,78.3V74h0.5v0.4c0.1-0.1,0.2-0.3,0.4-0.4c0.2-0.1,0.4-0.1,0.5,0c0.2,0,0.5,0.1,0.7,0.2
		c0.2,0.1,0.4,0.3,0.5,0.6c0.2,0.5,0.2,1.1,0,1.7c-0.1,0.2-0.3,0.4-0.5,0.5c-0.2,0.1-0.4,0.2-0.7,0.2c-0.2,0-0.3,0-0.5-0.1
		c-0.1-0.1-0.2-0.2-0.3-0.3v1.5L63,78.3L63,78.3z M63.5,75.6c0,0.3,0.1,0.6,0.2,0.9c0.1,0.2,0.4,0.3,0.6,0.3c0.2,0,0.5-0.1,0.6-0.3
		c0.2-0.3,0.3-0.6,0.3-0.9c0-0.3-0.1-0.6-0.3-0.9c-0.1-0.2-0.4-0.3-0.6-0.3c-0.2,0-0.5,0.1-0.6,0.3C63.5,75,63.5,75.3,63.5,75.6z"/>
	<path class="st4" d="M68.4,76.8c-0.2,0.1-0.4,0.3-0.6,0.3c-0.2,0.1-0.4,0.1-0.6,0.1c-0.3,0-0.6,0-0.8-0.2c-0.2-0.2-0.3-0.4-0.3-0.6
		c0-0.3,0.1-0.6,0.4-0.7c0.1-0.1,0.2-0.1,0.4-0.2l0.5-0.1c0.3,0,0.6-0.1,0.9-0.2c0-0.1,0-0.1,0-0.1c0-0.2,0-0.3-0.2-0.4
		c-0.2-0.1-0.4-0.2-0.6-0.2c-0.2,0-0.4,0-0.6,0.1c-0.1,0.1-0.2,0.3-0.3,0.5L66.3,75c0-0.2,0.1-0.4,0.2-0.5c0.1-0.2,0.3-0.3,0.5-0.4
		c0.2-0.1,0.4-0.1,0.7-0.1c0.2,0,0.4,0,0.7,0.1c0.1,0,0.3,0.1,0.4,0.2c0.1,0.1,0.1,0.2,0.2,0.4c0,0.2,0,0.3,0,0.5v0.7
		c0,0.3,0,0.6,0,0.9c0,0.1,0.1,0.3,0.1,0.4h-0.5C68.4,77,68.4,76.9,68.4,76.8z M68.4,75.6c-0.3,0.1-0.6,0.2-0.9,0.2
		c-0.2,0-0.3,0.1-0.5,0.1c-0.1,0-0.2,0.1-0.2,0.2c0,0.1-0.1,0.2-0.1,0.3c0,0.1,0.1,0.3,0.2,0.3c0.1,0.1,0.3,0.2,0.5,0.1
		c0.2,0,0.4,0,0.5-0.1c0.2-0.1,0.3-0.2,0.3-0.4c0.1-0.2,0.1-0.3,0.1-0.5C68.4,75.8,68.4,75.6,68.4,75.6z"/>
	<path class="st4" d="M69.7,78.3V74h0.5v0.4c0.1-0.1,0.2-0.3,0.4-0.4c0.2-0.1,0.3-0.1,0.5,0c0.2,0,0.5,0.1,0.7,0.2
		c0.2,0.1,0.4,0.3,0.5,0.6c0.2,0.5,0.2,1.1,0,1.7c-0.1,0.2-0.3,0.4-0.5,0.6c-0.2,0.1-0.4,0.2-0.7,0.2c-0.2,0-0.3,0-0.5-0.1
		c-0.1-0.1-0.2-0.2-0.3-0.3v1.5L69.7,78.3L69.7,78.3z M70.2,75.6c0,0.3,0.1,0.6,0.2,0.9c0.1,0.2,0.4,0.3,0.6,0.3
		c0.2,0,0.5-0.1,0.6-0.3c0.2-0.3,0.3-0.6,0.3-0.9c0-0.3-0.1-0.6-0.3-0.9c-0.1-0.2-0.4-0.3-0.6-0.3c-0.2,0-0.5,0.1-0.6,0.3
		C70.2,75,70.1,75.3,70.2,75.6z"/>
	<path class="st4" d="M75.2,76.1l0.5,0.1c-0.1,0.3-0.2,0.6-0.5,0.7c-0.6,0.4-1.5,0.3-2-0.2c-0.3-0.3-0.4-0.7-0.4-1.2
		c0-0.4,0.1-0.9,0.4-1.2c0.3-0.3,0.6-0.4,1-0.4c0.4,0,0.7,0.1,1,0.4c0.3,0.3,0.4,0.8,0.4,1.2c0,0,0,0.1,0,0.1h-2.2
		c0,0.3,0.1,0.6,0.3,0.8c0.2,0.2,0.4,0.3,0.7,0.3c0.2,0,0.4,0,0.5-0.2C75,76.5,75.1,76.3,75.2,76.1z M73.4,75.3h1.7
		c0-0.2-0.1-0.4-0.2-0.6c-0.2-0.2-0.4-0.3-0.7-0.3c-0.2,0-0.4,0.1-0.6,0.2C73.5,74.8,73.4,75,73.4,75.3L73.4,75.3z"/>
	<path class="st4" d="M76.3,77.1V74h0.5v0.5c0.1-0.2,0.2-0.3,0.3-0.4c0.1,0,0.2-0.1,0.3,0c0.2,0,0.4,0.1,0.5,0.2l-0.2,0.5
		c-0.1-0.1-0.3-0.1-0.4-0.1c-0.1,0-0.2,0-0.3,0.1c-0.1,0.1-0.2,0.2-0.2,0.3c-0.1,0.2-0.1,0.4-0.1,0.6v1.6L76.3,77.1L76.3,77.1z"/>
</g>
</svg>
