<?xml version="1.0" encoding="utf-8"?>
<!-- Generator: Adobe Illustrator 16.0.0, SVG Export Plug-In . SVG Version: 6.00 Build 0)  -->
<!DOCTYPE svg PUBLIC "-//W3C//DTD SVG 1.1//EN" "http://www.w3.org/Graphics/SVG/1.1/DTD/svg11.dtd">
<svg version="1.1" id="图层_1" xmlns="http://www.w3.org/2000/svg" xmlns:xlink="http://www.w3.org/1999/xlink" x="0px" y="0px"
	 width="90px" height="90px" viewBox="0 0 90 90" enable-background="new 0 0 90 90" xml:space="preserve">
<path fill="#00325F" d="M90,80.139C90,85.585,85.919,90,80.887,90H9.114C4.081,90,0,85.586,0,80.139V9.863C0,4.417,4.081,0,9.114,0
	h71.773C85.919,0,90,4.416,90,9.863V80.139z"/>
<g id="icon">
	<g id="arrow_4_">
		<path fill="#FFFFFA" d="M52.096,19.96c0,0.188-0.152,0.339-0.338,0.339H50.74c-0.187,0-0.339-0.151-0.339-0.339v-4.744
			c0-0.188,0.152-0.339,0.339-0.339h1.018c0.188,0,0.338,0.151,0.338,0.339V19.96L52.096,19.96z"/>
		<path fill="#FFFFFA" d="M47.089,14.258l3.668-6.351c0.22-0.379,0.766-0.379,0.983,0l3.667,6.353
			c0.219,0.378-0.054,0.852-0.49,0.852h-7.338C47.144,15.11,46.87,14.637,47.089,14.258z"/>
	</g>
	<g id="arrow_2_">
		<path fill="#FFFFFA" d="M39.811,14.333c0,0.233-0.188,0.422-0.423,0.422h-1.271c-0.234,0-0.424-0.189-0.424-0.422V8.402
			c0-0.234,0.189-0.424,0.424-0.424h1.271c0.234,0,0.423,0.19,0.423,0.424L39.811,14.333L39.811,14.333z"/>
		<path fill="#FFFFFA" d="M42.911,13.741l-3.667,6.352c-0.219,0.379-0.765,0.379-0.983,0l-3.668-6.352
			c-0.218-0.378,0.054-0.852,0.492-0.852h7.334C42.857,12.889,43.131,13.363,42.911,13.741z"/>
	</g>
	<rect x="20.625" y="23.717" fill="#FFFFFA" width="48.75" height="38.855"/>
	<g id="people">
		<circle fill="#00325F" cx="30" cy="36.307" r="5.403"/>
		<path fill="#00325F" d="M23.522,43.239c0.47-0.66,12.337-0.854,12.945,0c0.518,0.725-5.301,19.554-6.473,19.554
			C28.977,62.793,23.098,43.833,23.522,43.239z"/>
	</g>
	<g id="people_1_">
		<circle fill="#00325F" cx="60.001" cy="36.307" r="5.403"/>
		<path fill="#00325F" d="M53.521,43.239c0.47-0.66,12.338-0.854,12.945,0c0.518,0.725-5.302,19.554-6.473,19.554
			C58.979,62.793,53.098,43.833,53.521,43.239z"/>
	</g>
	<g id="people_3_">
		<circle fill="#00325F" cx="45" cy="36.217" r="5.418"/>
		<path fill="#00325F" d="M47.299,52.969c-0.167-0.332-4.378-0.429-4.594,0c-0.185,0.361,1.881,9.809,2.296,9.809
			C45.363,62.773,47.449,53.268,47.299,52.969z"/>
		<path fill="#00325F" d="M53.578,56.104c-0.622,0.453-16.337,0.586-17.143,0c-0.683-0.496,7.021-13.427,8.572-13.427
			C46.354,42.678,54.141,55.695,53.578,56.104z"/>
	</g>
</g>
<text transform="matrix(1 0 0 1 39.6641 77.3379)" fill="#FFFFFA" font-family="'ArialMT'" font-size="8">Lift</text>
</svg>
