<?xml version="1.0" encoding="utf-8"?>
<!-- Generator: Adobe Illustrator 19.2.1, SVG Export Plug-In . SVG Version: 6.00 Build 0)  -->
<svg version="1.1" id="图层_1" xmlns="http://www.w3.org/2000/svg" xmlns:xlink="http://www.w3.org/1999/xlink" x="0px" y="0px"
	 viewBox="0 0 90 90" style="enable-background:new 0 0 90 90;" xml:space="preserve">
<style type="text/css">
	.st0{fill:#00325F;}
	.st1{fill:#FFFFFA;}
	.st2{enable-background:new    ;}
</style>
<path class="st0" d="M90,81c0,4.7-3.3,9-7.7,9H8.5C4.1,90,0,85.7,0,81V8.6C0,3.8,4.1,0,8.5,0h73.8C86.7,0,90,3.8,90,8.6V81z"/>
<g>
	<ellipse class="st1" cx="57" cy="19.9" rx="9.3" ry="9.6"/>
	<polygon class="st0" points="62,21.6 56.9,23.3 52,21.6 52,8 62,8 	"/>
	<path class="st1" d="M61,57.9c0,1.7-1.5,3.1-3.7,3.1H57c-2.1,0-4-1.4-4-3.1V29.1c0-1.7,1.9-3.1,4-3.1h0.4c2.1,0,3.7,1.4,3.7,3.1
		V57.9z"/>
	<circle class="st1" cx="57" cy="59" r="6"/>
</g>
<g>
	<ellipse class="st1" cx="32" cy="19.9" rx="9.3" ry="9.6"/>
	<path class="st1" d="M36,56c0,1.6-1.2,3-3.3,3h-0.4c-2.1,0-4.3-1.4-4.3-3v-27c0-1.6,2.2-2.9,4.3-2.9h0.4c2.1,0,3.3,1.3,3.3,2.9V56z
		"/>
	<polygon class="st0" points="32,24.6 27.6,22 27.5,17 32,14.4 36.5,17 36.4,22 	"/>
	<circle class="st1" cx="32" cy="59" r="5.5"/>
</g>
<g class="st2">
	<path class="st1" d="M22.5,77.1v-5.7h0.8v5.1H26v0.7H22.5z"/>
	<path class="st1" d="M29.6,76.6c-0.3,0.2-0.5,0.4-0.8,0.5s-0.5,0.1-0.8,0.1c-0.5,0-0.8-0.1-1.1-0.3s-0.4-0.5-0.4-0.9
		c0-0.2,0-0.4,0.1-0.6s0.2-0.3,0.4-0.4s0.3-0.2,0.5-0.2c0.1,0,0.3-0.1,0.6-0.1c0.6-0.1,1-0.1,1.3-0.2c0-0.1,0-0.2,0-0.2
		c0-0.3-0.1-0.5-0.2-0.6c-0.2-0.2-0.4-0.2-0.8-0.2c-0.3,0-0.6,0.1-0.7,0.2s-0.3,0.3-0.3,0.6l-0.7-0.1c0.1-0.3,0.2-0.5,0.3-0.7
		s0.4-0.3,0.6-0.4s0.6-0.1,0.9-0.1c0.4,0,0.6,0,0.9,0.1s0.4,0.2,0.5,0.3s0.2,0.3,0.2,0.5c0,0.1,0,0.3,0,0.6v0.9c0,0.7,0,1.1,0,1.2
		s0.1,0.3,0.2,0.5h-0.7C29.6,77,29.6,76.8,29.6,76.6z M29.5,75.1c-0.3,0.1-0.6,0.2-1.1,0.3c-0.3,0-0.5,0.1-0.6,0.1s-0.2,0.1-0.3,0.2
		s-0.1,0.2-0.1,0.3c0,0.2,0.1,0.3,0.2,0.5s0.3,0.2,0.6,0.2c0.3,0,0.5-0.1,0.7-0.2s0.4-0.3,0.5-0.5c0.1-0.2,0.1-0.4,0.1-0.7V75.1z"/>
	<path class="st1" d="M31.3,78.7V73h0.6v0.5c0.2-0.2,0.3-0.4,0.5-0.5s0.4-0.2,0.7-0.2c0.4,0,0.7,0.1,0.9,0.3s0.5,0.4,0.6,0.8
		s0.2,0.7,0.2,1.1c0,0.4-0.1,0.8-0.2,1.1S34.3,76.8,34,77s-0.6,0.3-0.9,0.3c-0.2,0-0.4,0-0.6-0.1s-0.3-0.2-0.5-0.4v2H31.3z
		 M31.9,75.1c0,0.5,0.1,0.9,0.3,1.2s0.5,0.4,0.8,0.4c0.3,0,0.6-0.1,0.8-0.4s0.3-0.7,0.3-1.2c0-0.5-0.1-0.9-0.3-1.2s-0.5-0.4-0.8-0.4
		c-0.3,0-0.6,0.1-0.8,0.4S31.9,74.5,31.9,75.1z"/>
	<path class="st1" d="M37.3,76.5l0.1,0.6c-0.2,0-0.4,0.1-0.5,0.1c-0.3,0-0.5,0-0.6-0.1S36,76.9,36,76.7s-0.1-0.4-0.1-0.8v-2.4h-0.5
		V73h0.5v-1l0.7-0.4V73h0.7v0.5h-0.7V76c0,0.2,0,0.3,0,0.4s0.1,0.1,0.1,0.1s0.1,0.1,0.2,0.1C37.1,76.5,37.2,76.5,37.3,76.5z"/>
	<path class="st1" d="M37.7,75.1c0-0.8,0.2-1.3,0.6-1.7c0.4-0.3,0.8-0.5,1.3-0.5c0.6,0,1,0.2,1.4,0.6s0.5,0.9,0.5,1.5
		c0,0.5-0.1,1-0.2,1.3S41,76.8,40.7,77s-0.6,0.3-1,0.3c-0.6,0-1.1-0.2-1.4-0.6S37.7,75.8,37.7,75.1z M38.4,75.1
		c0,0.5,0.1,0.9,0.3,1.2s0.5,0.4,0.9,0.4c0.3,0,0.6-0.1,0.9-0.4s0.3-0.7,0.3-1.2c0-0.5-0.1-0.9-0.3-1.2s-0.5-0.4-0.9-0.4
		c-0.4,0-0.6,0.1-0.9,0.4S38.4,74.5,38.4,75.1z"/>
	<path class="st1" d="M42.4,78.7V73h0.6v0.5c0.2-0.2,0.3-0.4,0.5-0.5s0.4-0.2,0.7-0.2c0.4,0,0.7,0.1,0.9,0.3s0.5,0.4,0.6,0.8
		S46,74.6,46,75c0,0.4-0.1,0.8-0.2,1.1s-0.4,0.6-0.7,0.8s-0.6,0.3-0.9,0.3c-0.2,0-0.4,0-0.6-0.1s-0.3-0.2-0.5-0.4v2H42.4z
		 M43.1,75.1c0,0.5,0.1,0.9,0.3,1.2s0.5,0.4,0.8,0.4c0.3,0,0.6-0.1,0.8-0.4s0.3-0.7,0.3-1.2c0-0.5-0.1-0.9-0.3-1.2s-0.5-0.4-0.8-0.4
		c-0.3,0-0.6,0.1-0.8,0.4S43.1,74.5,43.1,75.1z"/>
	<path class="st1" d="M53.3,75.1l0.8,0.2c-0.2,0.6-0.4,1.1-0.9,1.4s-0.9,0.5-1.5,0.5c-0.6,0-1.1-0.1-1.5-0.4s-0.7-0.6-0.9-1.1
		s-0.3-1-0.3-1.5c0-0.6,0.1-1.1,0.3-1.6s0.6-0.8,1-1s0.9-0.3,1.4-0.3c0.6,0,1.1,0.1,1.4,0.4s0.7,0.7,0.8,1.2l-0.7,0.2
		c-0.1-0.4-0.3-0.7-0.6-0.9S52,72,51.7,72c-0.4,0-0.8,0.1-1.1,0.3s-0.5,0.5-0.6,0.8s-0.2,0.7-0.2,1.1c0,0.5,0.1,0.9,0.2,1.3
		s0.4,0.6,0.7,0.8s0.6,0.3,1,0.3c0.4,0,0.8-0.1,1.1-0.4S53.2,75.6,53.3,75.1z"/>
	<path class="st1" d="M54.9,77.1v-5.7h0.7v5.7H54.9z"/>
	<path class="st1" d="M56.7,72.2v-0.8h0.7v0.8H56.7z M56.7,77.1V73h0.7v4.1H56.7z"/>
	<path class="st1" d="M58.4,77.1V73h0.6v0.6c0.3-0.5,0.7-0.7,1.3-0.7c0.3,0,0.5,0,0.7,0.1s0.4,0.2,0.5,0.4s0.2,0.3,0.2,0.5
		c0,0.1,0,0.4,0,0.7v2.6h-0.7v-2.5c0-0.3,0-0.5-0.1-0.6s-0.2-0.3-0.3-0.3s-0.3-0.1-0.5-0.1c-0.3,0-0.6,0.1-0.8,0.3s-0.3,0.6-0.3,1.1
		v2.3H58.4z"/>
	<path class="st1" d="M62.9,72.2v-0.8h0.7v0.8H62.9z M62.9,77.1V73h0.7v4.1H62.9z"/>
	<path class="st1" d="M67.4,75.6l0.7,0.1c-0.1,0.5-0.3,0.8-0.6,1.1s-0.7,0.4-1.1,0.4c-0.6,0-1-0.2-1.4-0.6s-0.5-0.9-0.5-1.6
		c0-0.4,0.1-0.8,0.2-1.2s0.4-0.6,0.7-0.8s0.6-0.3,1-0.3c0.5,0,0.8,0.1,1.1,0.3s0.5,0.6,0.6,1l-0.7,0.1c-0.1-0.3-0.2-0.5-0.3-0.6
		s-0.4-0.2-0.6-0.2c-0.4,0-0.6,0.1-0.9,0.4s-0.3,0.7-0.3,1.2c0,0.6,0.1,1,0.3,1.2s0.5,0.4,0.8,0.4c0.3,0,0.5-0.1,0.7-0.3
		S67.3,76,67.4,75.6z"/>
</g>
</svg>
