<svg id="图层_1" data-name="图层 1" xmlns="http://www.w3.org/2000/svg" viewBox="0 0 30.79 38.03"><defs><style>.cls-1{fill:#0f3259;}.cls-2{fill:#fffffa;}</style></defs><title>Icon - Computer Clinic</title><path class="cls-1" d="M31.61,46.88l2.83-.83V40.5A5.37,5.37,0,0,1,36.83,45,5.17,5.17,0,1,1,26.5,45a5.37,5.37,0,0,1,2.39-4.5v5.55S31.57,46.88,31.61,46.88Z" transform="translate(-9.75 -39.66)"/><path class="cls-1" d="M33.89,66.11a1.86,1.86,0,0,1-2.06,1.72H31.67a2.07,2.07,0,0,1-2.22-1.72v-16a2.07,2.07,0,0,1,2.22-1.72h0.22a1.9,1.9,0,0,1,2.06,1.72v16H33.89Z" transform="translate(-9.75 -39.66)"/><circle class="cls-1" cx="21.91" cy="27.06" r="3.33"/><ellipse class="cls-1" cx="8.03" cy="5.33" rx="5.17" ry="5.33"/><path class="cls-1" d="M20,65.05a1.68,1.68,0,0,1-1.83,1.67H17.94c-1.17,0-2.39-.78-2.39-1.67v-15c0-.89,1.22-1.61,2.39-1.61h0.22A1.64,1.64,0,0,1,20,50.05v15Z" transform="translate(-9.75 -39.66)"/><polygon class="cls-2" points="8.03 7.94 5.58 6.5 5.53 3.72 8.03 2.28 10.53 3.72 10.47 6.5 8.03 7.94"/><circle class="cls-1" cx="8.03" cy="27.06" r="3.06"/><path class="cls-1" d="M12.06,75.8h0a1.1,1.1,0,0,1-.34.75,1.13,1.13,0,0,1-.8.27,1.06,1.06,0,0,1-.85-0.38,1.47,1.47,0,0,1-.32-1V75a1.48,1.48,0,0,1,.32-1,1.06,1.06,0,0,1,.85-0.38,1.15,1.15,0,0,1,.8.27,1.1,1.1,0,0,1,.34.75H11.82a1,1,0,0,0-.27-0.6,0.86,0.86,0,0,0-.62-0.21,0.8,0.8,0,0,0-.67.32,1.3,1.3,0,0,0-.25.82v0.52a1.31,1.31,0,0,0,.25.83,0.81,0.81,0,0,0,.67.32,0.88,0.88,0,0,0,.62-0.2,1,1,0,0,0,.27-0.61h0.24Z" transform="translate(-9.75 -39.66)"/><path class="cls-1" d="M12.52,75.58a1.26,1.26,0,0,1,.29-0.85,1,1,0,0,1,1.51,0,1.26,1.26,0,0,1,.29.85v0.07a1.27,1.27,0,0,1-.28.85,1,1,0,0,1-1.51,0,1.26,1.26,0,0,1-.29-0.85V75.58Zm0.26,0.07a1.12,1.12,0,0,0,.21.69,0.73,0.73,0,0,0,1.15,0,1.12,1.12,0,0,0,.21-0.69V75.58a1.11,1.11,0,0,0-.21-0.68,0.73,0.73,0,0,0-1.15,0,1.12,1.12,0,0,0-.21.68v0.07Z" transform="translate(-9.75 -39.66)"/><path class="cls-1" d="M15.36,74.44l0,0.39a0.83,0.83,0,0,1,.3-0.32,0.86,0.86,0,0,1,.45-0.11,0.75,0.75,0,0,1,.45.13,0.72,0.72,0,0,1,.26.4,0.9,0.9,0,0,1,.3-0.39,0.8,0.8,0,0,1,.48-0.14,0.71,0.71,0,0,1,.58.25,1.21,1.21,0,0,1,.2.77v1.37H18.15V75.41A1,1,0,0,0,18,74.8a0.53,0.53,0,0,0-.43-0.18,0.58,0.58,0,0,0-.47.19,0.89,0.89,0,0,0-.2.49v0s0,0,0,0v1.41H16.64V75.41a1,1,0,0,0-.16-0.61,0.53,0.53,0,0,0-.43-0.18,0.65,0.65,0,0,0-.44.14,0.75,0.75,0,0,0-.23.38v1.66H15.13V74.44h0.23Z" transform="translate(-9.75 -39.66)"/><path class="cls-1" d="M21,75.68a1.35,1.35,0,0,1-.24.84,0.78,0.78,0,0,1-.66.31,1,1,0,0,1-.43-0.09,0.79,0.79,0,0,1-.3-0.27v1.22H19.09V74.44h0.22l0,0.37a0.82,0.82,0,0,1,.3-0.3,0.86,0.86,0,0,1,.44-0.11,0.77,0.77,0,0,1,.66.34,1.53,1.53,0,0,1,.24.9v0Zm-0.26,0a1.35,1.35,0,0,0-.18-0.73A0.58,0.58,0,0,0,20,74.62a0.68,0.68,0,0,0-.43.13,0.77,0.77,0,0,0-.25.33V76.2a0.72,0.72,0,0,0,.26.3,0.75,0.75,0,0,0,.42.11,0.59,0.59,0,0,0,.52-0.26,1.18,1.18,0,0,0,.18-0.68v0Z" transform="translate(-9.75 -39.66)"/><path class="cls-1" d="M23.11,76.41a0.81,0.81,0,0,1-.3.32,0.87,0.87,0,0,1-.45.11,0.72,0.72,0,0,1-.58-0.25,1.2,1.2,0,0,1-.21-0.78V74.44h0.26v1.37a1,1,0,0,0,.15.62,0.5,0.5,0,0,0,.42.19,0.77,0.77,0,0,0,.47-0.13,0.69,0.69,0,0,0,.25-0.37V74.44h0.26v2.35H23.13Z" transform="translate(-9.75 -39.66)"/><path class="cls-1" d="M24.45,73.83v0.6H25v0.21H24.45v1.53a0.5,0.5,0,0,0,.08.33,0.28,0.28,0,0,0,.22.1h0.12l0.14,0,0,0.19-0.16,0-0.19,0a0.49,0.49,0,0,1-.39-0.16,0.73,0.73,0,0,1-.14-0.5V74.65H23.78V74.44h0.41v-0.6h0.26Z" transform="translate(-9.75 -39.66)"/><path class="cls-1" d="M26.41,76.84a1,1,0,0,1-.73-0.33,1.19,1.19,0,0,1-.29-0.83V75.56a1.23,1.23,0,0,1,.29-0.84,0.9,0.9,0,0,1,.7-0.33,0.87,0.87,0,0,1,.68.27,1,1,0,0,1,.25.73v0.22H25.64v0.06a1,1,0,0,0,.21.66,0.67,0.67,0,0,0,.55.27,1.14,1.14,0,0,0,.42-0.07,0.82,0.82,0,0,0,.29-0.19l0.11,0.18a0.94,0.94,0,0,1-.34.22A1.27,1.27,0,0,1,26.41,76.84Zm0-2.22a0.62,0.62,0,0,0-.48.22,0.94,0.94,0,0,0-.23.55H27V75.33a0.75,0.75,0,0,0-.18-0.51A0.62,0.62,0,0,0,26.37,74.62Z" transform="translate(-9.75 -39.66)"/><path class="cls-1" d="M28.9,74.66H28.71a0.59,0.59,0,0,0-.4.14,0.77,0.77,0,0,0-.22.38v1.62H27.82V74.44H28l0,0.39v0a0.85,0.85,0,0,1,.27-0.34,0.69,0.69,0,0,1,.41-0.12h0.1l0.08,0Z" transform="translate(-9.75 -39.66)"/><path class="cls-1" d="M32.67,75.8h0a1.1,1.1,0,0,1-.34.75,1.13,1.13,0,0,1-.8.27,1.06,1.06,0,0,1-.85-0.38,1.47,1.47,0,0,1-.32-1V75a1.48,1.48,0,0,1,.32-1,1.06,1.06,0,0,1,.85-0.38,1.15,1.15,0,0,1,.8.27,1.1,1.1,0,0,1,.34.75H32.42a1,1,0,0,0-.27-0.6,0.86,0.86,0,0,0-.62-0.21,0.8,0.8,0,0,0-.67.32,1.3,1.3,0,0,0-.25.82v0.52a1.31,1.31,0,0,0,.25.83,0.81,0.81,0,0,0,.67.32,0.88,0.88,0,0,0,.62-0.2,1,1,0,0,0,.27-0.61h0.24Z" transform="translate(-9.75 -39.66)"/><path class="cls-1" d="M33.56,76.79H33.3V73.4h0.26v3.39Z" transform="translate(-9.75 -39.66)"/><path class="cls-1" d="M34.57,73.76H34.31V73.4h0.26v0.37Zm0,3H34.31V74.44h0.26v2.35Z" transform="translate(-9.75 -39.66)"/><path class="cls-1" d="M35.52,74.44l0,0.41a0.84,0.84,0,0,1,.31-0.34,0.85,0.85,0,0,1,.46-0.12,0.72,0.72,0,0,1,.58.23,1.1,1.1,0,0,1,.2.73v1.43H36.83V75.36a0.86,0.86,0,0,0-.15-0.57,0.55,0.55,0,0,0-.43-0.17,0.67,0.67,0,0,0-.45.14,0.81,0.81,0,0,0-.25.38v1.64H35.29V74.44h0.23Z" transform="translate(-9.75 -39.66)"/><path class="cls-1" d="M38.06,73.76H37.8V73.4h0.26v0.37Zm0,3H37.8V74.44h0.26v2.35Z" transform="translate(-9.75 -39.66)"/><path class="cls-1" d="M39.66,76.61a0.75,0.75,0,0,0,.46-0.15,0.48,0.48,0,0,0,.2-0.41h0.23a0.64,0.64,0,0,1-.26.55,1,1,0,0,1-.63.22,0.9,0.9,0,0,1-.74-0.33,1.31,1.31,0,0,1-.26-0.85V75.57a1.31,1.31,0,0,1,.26-0.84,0.89,0.89,0,0,1,.74-0.33,0.94,0.94,0,0,1,.65.23,0.74,0.74,0,0,1,.25.6H40.31a0.57,0.57,0,0,0-.19-0.45,0.68,0.68,0,0,0-.47-0.17,0.63,0.63,0,0,0-.56.27,1.2,1.2,0,0,0-.18.68v0.09a1.21,1.21,0,0,0,.18.69A0.63,0.63,0,0,0,39.66,76.61Z" transform="translate(-9.75 -39.66)"/></svg>