<?xml version="1.0" encoding="utf-8"?>
<!-- Generator: Adobe Illustrator 19.2.1, SVG Export Plug-In . SVG Version: 6.00 Build 0)  -->
<svg version="1.1" id="图层_1" xmlns="http://www.w3.org/2000/svg" xmlns:xlink="http://www.w3.org/1999/xlink" x="0px" y="0px"
	 viewBox="0 0 90 90" style="enable-background:new 0 0 90 90;" xml:space="preserve">
<style type="text/css">
	.st0{fill:#00325F;}
	.st1{fill:#FFFFFF;}
	.st2{font-family:'Roboto-Medium';}
	.st3{font-size:7px;}
	.st4{fill:#9FCDFF;stroke:#9FCDFF;stroke-linecap:round;stroke-miterlimit:10;}
	.st5{clip-path:url(#SVGID_2_);fill:#9FCDFF;}
</style>
<path class="st0" d="M90,81c0,4.7-3.3,9-7.7,9H8.5C4.1,90,0,85.7,0,81V8.6C0,3.8,4.1,0,8.5,0h73.8C86.7,0,90,3.8,90,8.6V81z"/>
<text transform="matrix(1 0 0 1 20.874 77.2005)" class="st1 st2 st3">Water Fountain</text>
<g>
	<path class="st4" d="M32,27.5h26c1.6,0,2.8,0.9,2.6,2l-6.2,33.1H35.6l-6.2-33.1C29.2,28.4,30.4,27.5,32,27.5z"/>
	<path class="st1" d="M32.3,28.1H57c1.5,0,3.4,0.9,3.2,1.9l-1.5,6.9c0,0-2.3-1.8-7.1-1.8c-5.2,0-10.9,3.4-13.6,3.4c-3.2,0-7-3-7-3
		l-1-5.6C29.7,29,30.8,28.1,32.3,28.1z"/>
</g>
<g id="drop">
	<path class="st1" d="M55.1,16.7c1.1,2.7-1.8,4.2-3.6,4.2c-1.9,0-4.6-1.5-3.6-4.2c1.2-3.1,3.6-8,3.6-8S53.8,13.8,55.1,16.7z"/>
	<g>
		<defs>
			<path id="SVGID_1_" d="M55.1,16.7c1.1,2.7-1.8,4.2-3.6,4.2c-1.9,0-4.6-1.5-3.6-4.2c1.2-3.1,3.6-8,3.6-8S53.8,13.8,55.1,16.7z"/>
		</defs>
		<clipPath id="SVGID_2_">
			<use xlink:href="#SVGID_1_"  style="overflow:visible;"/>
		</clipPath>
		<path class="st5" d="M55.1,16.7c1.1,2.7-1.8,4.2-3.6,4.2c-1.9,0-4.6-1.5-3.6-4.2c1.2-3.1,3.6-8,3.6-8c0,0-1.5,6.3-0.6,7.5
			C51.8,17.3,55.1,16.7,55.1,16.7z"/>
	</g>
</g>
</svg>
