<?xml version="1.0" encoding="utf-8"?>
<!-- Generator: Adobe Illustrator 19.2.1, SVG Export Plug-In . SVG Version: 6.00 Build 0)  -->
<svg version="1.1" id="图层_1" xmlns="http://www.w3.org/2000/svg" xmlns:xlink="http://www.w3.org/1999/xlink" x="0px" y="0px"
	 viewBox="0 0 90 90" style="enable-background:new 0 0 90 90;" xml:space="preserve">
<style type="text/css">
	.st0{fill:#00325F;}
	.st1{fill:#FFFFFA;}
	.st2{enable-background:new    ;}
</style>
<path class="st0" d="M90,81c0,4.7-3.3,9-7.7,9H8.5C4.1,90,0,85.7,0,81V8.6C0,3.8,4.1,0,8.5,0h73.8C86.7,0,90,3.8,90,8.6V81z"/>
<g id="icon">
	<path class="st1" d="M69,54.5c0,3-2.5,5.5-5.5,5.5h-37c-3,0-5.5-2.5-5.5-5.5v-24c0-3,2.5-5.5,5.5-5.5h37c3,0,5.5,2.5,5.5,5.5V54.5z
		"/>
	<path class="st1" d="M62.4,25.3c0,8.6-7.8,15.5-17.4,15.5s-17.4-7-17.4-15.5S35.4,9.8,45,9.8S62.4,16.7,62.4,25.3z M45,13.1
		c-7.6,0-13.7,5.5-13.7,12.2S37.4,37.5,45,37.5c7.6,0,13.7-5.5,13.7-12.2S52.6,13.1,45,13.1z"/>
	<circle class="st0" cx="45" cy="37.9" r="4.6"/>
	<polygon class="st0" points="50.7,49 39.3,49 41.6,40 48.4,40 	"/>
</g>
<g class="st2">
	<path class="st1" d="M33.5,77.1v-5.7h0.8v5.1h2.8v0.7H33.5z"/>
	<path class="st1" d="M37.7,75.1c0-0.8,0.2-1.3,0.6-1.7c0.4-0.3,0.8-0.5,1.3-0.5c0.6,0,1,0.2,1.4,0.6s0.5,0.9,0.5,1.5
		c0,0.5-0.1,1-0.2,1.3s-0.4,0.5-0.7,0.7s-0.6,0.3-1,0.3c-0.6,0-1.1-0.2-1.4-0.6S37.7,75.8,37.7,75.1z M38.4,75.1
		c0,0.5,0.1,0.9,0.3,1.2s0.5,0.4,0.9,0.4c0.3,0,0.6-0.1,0.9-0.4s0.3-0.7,0.3-1.2c0-0.5-0.1-0.9-0.3-1.2s-0.5-0.4-0.9-0.4
		c-0.4,0-0.6,0.1-0.9,0.4S38.4,74.5,38.4,75.1z"/>
	<path class="st1" d="M45.1,75.6l0.7,0.1c-0.1,0.5-0.3,0.8-0.6,1.1s-0.7,0.4-1.1,0.4c-0.6,0-1-0.2-1.4-0.6s-0.5-0.9-0.5-1.6
		c0-0.4,0.1-0.8,0.2-1.2s0.4-0.6,0.7-0.8s0.6-0.3,1-0.3c0.5,0,0.8,0.1,1.1,0.3s0.5,0.6,0.6,1L45,74.3c-0.1-0.3-0.2-0.5-0.3-0.6
		s-0.4-0.2-0.6-0.2c-0.4,0-0.6,0.1-0.9,0.4s-0.3,0.7-0.3,1.2c0,0.6,0.1,1,0.3,1.2s0.5,0.4,0.8,0.4c0.3,0,0.5-0.1,0.7-0.3
		S45,76,45.1,75.6z"/>
	<path class="st1" d="M46.4,77.1v-5.7h0.7v3.3l1.7-1.7h0.9l-1.6,1.5l1.7,2.6h-0.9L47.6,75l-0.5,0.5v1.6H46.4z"/>
	<path class="st1" d="M53.2,75.8l0.7,0.1c-0.1,0.4-0.3,0.8-0.6,1c-0.3,0.2-0.7,0.4-1.2,0.4c-0.6,0-1.1-0.2-1.4-0.6s-0.5-0.9-0.5-1.6
		c0-0.7,0.2-1.2,0.5-1.6s0.8-0.6,1.4-0.6c0.6,0,1,0.2,1.4,0.6s0.5,0.9,0.5,1.6c0,0,0,0.1,0,0.2h-3.1c0,0.5,0.2,0.8,0.4,1
		c0.2,0.2,0.5,0.4,0.9,0.4c0.3,0,0.5-0.1,0.7-0.2C53,76.3,53.1,76.1,53.2,75.8z M50.9,74.7h2.3c0-0.3-0.1-0.6-0.3-0.8
		c-0.2-0.3-0.5-0.4-0.9-0.4c-0.3,0-0.6,0.1-0.8,0.3C51,74,50.9,74.3,50.9,74.7z"/>
	<path class="st1" d="M54.8,77.1V73h0.6v0.6c0.2-0.3,0.3-0.5,0.4-0.6s0.3-0.1,0.5-0.1c0.2,0,0.5,0.1,0.7,0.2l-0.2,0.7
		c-0.2-0.1-0.3-0.2-0.5-0.2c-0.2,0-0.3,0-0.4,0.1c-0.1,0.1-0.2,0.2-0.3,0.4c-0.1,0.3-0.1,0.5-0.1,0.8v2.2H54.8z"/>
</g>
</svg>
