<?xml version="1.0" encoding="utf-8"?>
<!-- Generator: Adobe Illustrator 19.2.1, SVG Export Plug-In . SVG Version: 6.00 Build 0)  -->
<svg version="1.1" id="图层_1" xmlns="http://www.w3.org/2000/svg" xmlns:xlink="http://www.w3.org/1999/xlink" x="0px" y="0px"
	 viewBox="0 0 90 90" style="enable-background:new 0 0 90 90;" xml:space="preserve">
<style type="text/css">
	.st0{fill:#00325F;}
	.st1{fill:none;stroke:#FFFFFA;stroke-width:2;stroke-linecap:round;stroke-miterlimit:10;}
	.st2{fill:#FFFFFA;}
	.st3{fill:none;stroke:#00325F;stroke-width:2;stroke-linecap:round;stroke-miterlimit:10;}
	.st4{enable-background:new    ;}
</style>
<path class="st0" d="M90,81c0,4.7-3.3,9-7.7,9H8.5C4.1,90,0,85.7,0,81V8.6C0,3.8,4.1,0,8.5,0h73.8C86.7,0,90,3.8,90,8.6V81z"/>
<g id="icon">
	<g id="legs">
		<line class="st1" x1="37.8" y1="46.3" x2="28.3" y2="65"/>
		<line class="st1" x1="44.1" y1="46" x2="44.1" y2="65"/>
		<line class="st1" x1="51.5" y1="46" x2="60.7" y2="65"/>
	</g>
	<path class="st2" d="M74.1,44.8c0,2.3-1.5,4.5-4.2,4.5H21.6c-2.7,0-5.7-2.2-5.7-4.5V16.7c0-2.3,3-3.7,5.7-3.7h48.2
		c2.7,0,4.2,1.5,4.2,3.7C74.1,16.7,74.1,44.8,74.1,44.8z"/>
	<line class="st3" x1="23" y1="20.4" x2="38.6" y2="20.4"/>
	<line class="st3" x1="23" y1="27.1" x2="38.6" y2="27.1"/>
	<line class="st3" x1="23" y1="34.5" x2="38.6" y2="34.5"/>
	<line class="st3" x1="23" y1="41.9" x2="38.6" y2="41.9"/>
	<path class="st3" d="M67,41.9c0,0.4-0.4,0.7-0.8,0.7H46.4c-0.5,0-0.8-0.3-0.8-0.7V20.4c0-0.4,0.4-0.7,0.8-0.7h19.7
		c0.5,0,0.8,0.3,0.8,0.7L67,41.9L67,41.9z"/>
</g>
<g class="st4">
	<path class="st2" d="M21.1,77.3v-5.7h1.1l1.4,4.1c0.1,0.4,0.2,0.7,0.3,0.8c0.1-0.2,0.2-0.5,0.3-0.9l1.4-4h1v5.7h-0.7v-4.8l-1.7,4.8
		h-0.7l-1.7-4.9v4.9H21.1z"/>
	<path class="st2" d="M30.6,76l0.7,0.1c-0.1,0.4-0.3,0.8-0.6,1s-0.7,0.4-1.2,0.4c-0.6,0-1.1-0.2-1.4-0.6s-0.5-0.9-0.5-1.6
		c0-0.7,0.2-1.2,0.5-1.6s0.8-0.6,1.4-0.6c0.6,0,1,0.2,1.4,0.6s0.5,0.9,0.5,1.6c0,0,0,0.1,0,0.2h-3.1c0,0.5,0.2,0.8,0.4,1
		s0.5,0.4,0.9,0.4c0.3,0,0.5-0.1,0.7-0.2S30.5,76.3,30.6,76z M28.3,74.9h2.3c0-0.3-0.1-0.6-0.3-0.8c-0.2-0.3-0.5-0.4-0.9-0.4
		c-0.3,0-0.6,0.1-0.8,0.3S28.3,74.5,28.3,74.9z"/>
	<path class="st2" d="M35,76l0.7,0.1c-0.1,0.4-0.3,0.8-0.6,1s-0.7,0.4-1.2,0.4c-0.6,0-1.1-0.2-1.4-0.6s-0.5-0.9-0.5-1.6
		c0-0.7,0.2-1.2,0.5-1.6s0.8-0.6,1.4-0.6c0.6,0,1,0.2,1.4,0.6s0.5,0.9,0.5,1.6c0,0,0,0.1,0,0.2h-3.1c0,0.5,0.2,0.8,0.4,1
		s0.5,0.4,0.9,0.4c0.3,0,0.5-0.1,0.7-0.2S34.9,76.3,35,76z M32.7,74.9H35c0-0.3-0.1-0.6-0.3-0.8c-0.2-0.3-0.5-0.4-0.9-0.4
		c-0.3,0-0.6,0.1-0.8,0.3S32.7,74.5,32.7,74.9z"/>
	<path class="st2" d="M38.2,76.7l0.1,0.6c-0.2,0-0.4,0.1-0.5,0.1c-0.3,0-0.5,0-0.6-0.1s-0.2-0.2-0.3-0.3s-0.1-0.4-0.1-0.8v-2.4h-0.5
		v-0.5h0.5v-1l0.7-0.4v1.4h0.7v0.5h-0.7v2.4c0,0.2,0,0.3,0,0.4s0.1,0.1,0.1,0.1s0.1,0.1,0.2,0.1C37.9,76.7,38,76.7,38.2,76.7z"/>
	<path class="st2" d="M38.9,72.4v-0.8h0.7v0.8H38.9z M38.9,77.3v-4.1h0.7v4.1H38.9z"/>
	<path class="st2" d="M40.6,77.3v-4.1h0.6v0.6c0.3-0.5,0.7-0.7,1.3-0.7c0.3,0,0.5,0,0.7,0.1s0.4,0.2,0.5,0.4s0.2,0.3,0.2,0.5
		c0,0.1,0,0.4,0,0.7v2.6h-0.7v-2.5c0-0.3,0-0.5-0.1-0.6s-0.2-0.3-0.3-0.3s-0.3-0.1-0.5-0.1c-0.3,0-0.6,0.1-0.8,0.3s-0.3,0.6-0.3,1.1
		v2.3H40.6z"/>
	<path class="st2" d="M45,77.7l0.7,0.1c0,0.2,0.1,0.4,0.2,0.5c0.2,0.1,0.4,0.2,0.7,0.2c0.3,0,0.6-0.1,0.8-0.2
		c0.2-0.1,0.3-0.3,0.4-0.5c0-0.1,0.1-0.4,0.1-0.9c-0.3,0.4-0.7,0.5-1.1,0.5c-0.6,0-1-0.2-1.3-0.6s-0.5-0.9-0.5-1.5
		c0-0.4,0.1-0.8,0.2-1.1s0.4-0.6,0.6-0.8s0.6-0.3,1-0.3c0.5,0,0.9,0.2,1.2,0.6v-0.5h0.6v3.6c0,0.6-0.1,1.1-0.2,1.4
		c-0.1,0.3-0.3,0.5-0.6,0.6S47,79,46.6,79c-0.5,0-0.9-0.1-1.2-0.3S44.9,78.1,45,77.7z M45.5,75.2c0,0.5,0.1,0.9,0.3,1.2
		c0.2,0.3,0.5,0.4,0.8,0.4c0.3,0,0.6-0.1,0.8-0.4s0.3-0.6,0.3-1.2c0-0.5-0.1-0.9-0.3-1.1c-0.2-0.3-0.5-0.4-0.8-0.4
		c-0.3,0-0.6,0.1-0.8,0.4S45.5,74.7,45.5,75.2z"/>
	<path class="st2" d="M51.6,75.5l0.7-0.1c0,0.3,0.1,0.5,0.2,0.7c0.1,0.2,0.3,0.3,0.6,0.4c0.3,0.1,0.6,0.2,0.9,0.2
		c0.3,0,0.5,0,0.8-0.1c0.2-0.1,0.4-0.2,0.5-0.4c0.1-0.1,0.2-0.3,0.2-0.5c0-0.2-0.1-0.3-0.2-0.5c-0.1-0.1-0.3-0.2-0.5-0.3
		c-0.2-0.1-0.5-0.2-1-0.3c-0.5-0.1-0.9-0.2-1.1-0.4c-0.3-0.1-0.5-0.3-0.6-0.5c-0.1-0.2-0.2-0.5-0.2-0.7c0-0.3,0.1-0.6,0.2-0.8
		s0.4-0.4,0.7-0.6c0.3-0.1,0.7-0.2,1.1-0.2c0.4,0,0.8,0.1,1.1,0.2s0.6,0.3,0.7,0.6c0.2,0.3,0.3,0.6,0.3,0.9l-0.7,0.1
		c0-0.4-0.2-0.6-0.4-0.8c-0.2-0.2-0.6-0.3-1-0.3c-0.5,0-0.8,0.1-1,0.3c-0.2,0.2-0.3,0.4-0.3,0.6c0,0.2,0.1,0.4,0.2,0.5
		c0.1,0.1,0.5,0.3,1.1,0.4c0.6,0.1,1,0.3,1.3,0.4c0.3,0.2,0.6,0.3,0.7,0.6c0.2,0.2,0.2,0.5,0.2,0.8c0,0.3-0.1,0.6-0.3,0.9
		c-0.2,0.3-0.4,0.5-0.8,0.6c-0.3,0.1-0.7,0.2-1.1,0.2c-0.5,0-1-0.1-1.3-0.2c-0.4-0.2-0.6-0.4-0.8-0.7S51.6,75.9,51.6,75.5z"/>
	<path class="st2" d="M59.8,77.3v-0.6c-0.3,0.5-0.8,0.7-1.3,0.7c-0.2,0-0.5,0-0.7-0.1c-0.2-0.1-0.4-0.2-0.5-0.4
		c-0.1-0.1-0.2-0.3-0.2-0.5c0-0.1,0-0.4,0-0.7v-2.6h0.7v2.3c0,0.4,0,0.6,0,0.7c0,0.2,0.1,0.3,0.3,0.4c0.1,0.1,0.3,0.2,0.5,0.2
		s0.4-0.1,0.6-0.2c0.2-0.1,0.3-0.3,0.4-0.4c0.1-0.2,0.1-0.5,0.1-0.8v-2.2h0.7v4.1H59.8z"/>
	<path class="st2" d="M61.5,72.4v-0.8h0.7v0.8H61.5z M61.5,77.3v-4.1h0.7v4.1H61.5z"/>
	<path class="st2" d="M64.8,76.7l0.1,0.6c-0.2,0-0.4,0.1-0.5,0.1c-0.3,0-0.5,0-0.6-0.1s-0.2-0.2-0.3-0.3c-0.1-0.1-0.1-0.4-0.1-0.8
		v-2.4h-0.5v-0.5h0.5v-1l0.7-0.4v1.4h0.7v0.5h-0.7v2.4c0,0.2,0,0.3,0,0.4c0,0.1,0.1,0.1,0.1,0.1c0.1,0,0.1,0.1,0.2,0.1
		C64.6,76.7,64.7,76.7,64.8,76.7z"/>
	<path class="st2" d="M68.4,76l0.7,0.1c-0.1,0.4-0.3,0.8-0.6,1c-0.3,0.2-0.7,0.4-1.2,0.4c-0.6,0-1.1-0.2-1.4-0.6s-0.5-0.9-0.5-1.6
		c0-0.7,0.2-1.2,0.5-1.6s0.8-0.6,1.4-0.6c0.6,0,1,0.2,1.4,0.6s0.5,0.9,0.5,1.6c0,0,0,0.1,0,0.2H66c0,0.5,0.2,0.8,0.4,1
		c0.2,0.2,0.5,0.4,0.9,0.4c0.3,0,0.5-0.1,0.7-0.2C68.1,76.5,68.3,76.3,68.4,76z M66.1,74.9h2.3c0-0.3-0.1-0.6-0.3-0.8
		c-0.2-0.3-0.5-0.4-0.9-0.4c-0.3,0-0.6,0.1-0.8,0.3C66.2,74.2,66.1,74.5,66.1,74.9z"/>
</g>
</svg>
