<?xml version="1.0" encoding="utf-8"?>
<!-- Generator: Adobe Illustrator 19.2.1, SVG Export Plug-In . SVG Version: 6.00 Build 0)  -->
<svg version="1.1" id="图层_1" xmlns="http://www.w3.org/2000/svg" xmlns:xlink="http://www.w3.org/1999/xlink" x="0px" y="0px"
	 viewBox="0 0 90 90" style="enable-background:new 0 0 90 90;" xml:space="preserve">
<style type="text/css">
	.st0{fill:#00325F;}
	.st1{fill:#FFFFFA;}
	.st2{enable-background:new    ;}
</style>
<path class="st0" d="M90,81c0,4.7-3.3,9-7.7,9H8.5C4.1,90,0,85.7,0,81V8.6C0,3.8,4.1,0,8.5,0h73.8C86.7,0,90,3.8,90,8.6V81z"/>
<g>
	<g>
		<path class="st1" d="M68.3,33.4c0,0.8-0.7,1.5-1.5,1.5H55.7c-0.8,0-1.5-0.7-1.5-1.5l0,0c0-0.8,0.7-1.5,1.5-1.5h11.2
			C67.7,31.9,68.3,32.6,68.3,33.4L68.3,33.4z"/>
		<path class="st1" d="M66.9,27.4l9.2,5.3c0.6,0.3,0.6,1.1,0,1.4l-9.2,5.3c-0.5,0.3-1.2-0.1-1.2-0.7V28.1
			C65.7,27.4,66.4,27,66.9,27.4z"/>
	</g>
	<path class="st1" d="M63.9,53.8c0,2.2-1.6,3.9-3.5,3.9H27c-2,0-3.5-1.8-3.5-3.9V8.9C23.4,6.8,25,5,27,5h33.4c2,0,3.5,1.8,3.5,3.9
		L63.9,53.8L63.9,53.8z M61.5,11c0-2-1.4-3.6-3.2-3.6H28.5c-1.8,0-3.2,1.6-3.2,3.6v40.8c0,2,1.4,3.6,3.2,3.6h29.8
		c1.8,0,3.2-1.6,3.2-3.6L61.5,11L61.5,11z"/>
	<path class="st1" d="M53.1,61.1c0,2.2-1.2,3.9-2.6,3.9L26,57.8c-1.9-0.6-2.6-1.8-2.6-3.9V8.9c0-2.2,2.1-4.1,3.4-3.9l23.7,7.3
		c1.4,0.8,2.6,1.8,2.6,3.9V61.1z"/>
</g>
<g class="st2">
	<path class="st1" d="M39,77.1v-5.7h4.1v0.7h-3.4v1.8h3.2v0.7h-3.2v1.9h3.5v0.7H39z"/>
	<path class="st1" d="M43.7,77.1l1.5-2.2l-1.4-2h0.9l0.6,1c0.1,0.2,0.2,0.3,0.3,0.5c0.1-0.2,0.2-0.3,0.3-0.5l0.7-1h0.8l-1.4,2
		l1.5,2.2h-0.9l-0.9-1.3l-0.2-0.3l-1.1,1.6H43.7z"/>
	<path class="st1" d="M48.2,72.2v-0.8h0.7v0.8H48.2z M48.2,77.1V73h0.7v4.1H48.2z"/>
	<path class="st1" d="M51.5,76.5l0.1,0.6c-0.2,0-0.4,0.1-0.5,0.1c-0.3,0-0.5,0-0.6-0.1s-0.2-0.2-0.3-0.3c-0.1-0.1-0.1-0.4-0.1-0.8
		v-2.4h-0.5V73h0.5v-1l0.7-0.4V73h0.7v0.5h-0.7V76c0,0.2,0,0.3,0,0.4c0,0.1,0.1,0.1,0.1,0.1c0.1,0,0.1,0.1,0.2,0.1
		C51.3,76.5,51.4,76.5,51.5,76.5z"/>
</g>
</svg>
