<?xml version="1.0" encoding="utf-8"?>
<!-- Generator: Adobe Illustrator 16.0.0, SVG Export Plug-In . SVG Version: 6.00 Build 0)  -->
<!DOCTYPE svg PUBLIC "-//W3C//DTD SVG 1.1//EN" "http://www.w3.org/Graphics/SVG/1.1/DTD/svg11.dtd">
<svg version="1.1" id="图层_1" xmlns="http://www.w3.org/2000/svg" xmlns:xlink="http://www.w3.org/1999/xlink" x="0px" y="0px"
	 width="90px" height="90px" viewBox="0 0 90 90" enable-background="new 0 0 90 90" xml:space="preserve">
<path fill="#00325F" d="M90,80.955C90,85.698,86.738,90,82.348,90H8.525C4.134,90,0,85.698,0,80.955V8.587C0,3.844,4.134,0,8.525,0
	h73.823C86.738,0,90,3.844,90,8.587V80.955z"/>
<g id="return">
	<path fill="#FFFFFF" d="M74.834,44.818c0,2.81-2.279,5.09-5.091,5.09H20.256c-2.812,0-5.09-2.28-5.09-5.09V10.09
		c0-2.811,2.278-5.09,5.09-5.09h49.487c2.812,0,5.09,2.279,5.09,5.09L74.834,44.818L74.834,44.818z"/>
	<path fill="#00325F" d="M69.41,32.254c0,1.408-1.986,2.736-4.294,2.736H24.371c-2.308,0-3.781-1.329-3.781-2.736V14.673
		c0-1.408,1.473-2.736,3.781-2.736h40.745c2.307,0,4.295,1.328,4.295,2.736L69.41,32.254L69.41,32.254z"/>
	
		<line fill="none" stroke="#FFFFFA" stroke-width="2" stroke-linecap="round" stroke-miterlimit="10" x1="28.727" y1="31.261" x2="61.273" y2="31.261"/>
	
		<line fill="none" stroke="#00325F" stroke-width="2" stroke-linecap="round" stroke-miterlimit="10" x1="23.641" y1="40.076" x2="66.357" y2="40.076"/>
	<path fill="#FFFFFF" stroke="#00325F" stroke-width="2" stroke-miterlimit="10" d="M67.457,60.505c0,0-0.9,2.789,0,4.313
		c0.238,0.406-44.016,0-44.016,0c-1.016-0.721-1.059-3.308-0.678-4.342l6.771-20.065h31.149L67.457,60.505z"/>
	
		<line fill="none" stroke="#00325F" stroke-width="2" stroke-linecap="round" stroke-miterlimit="10" x1="23.102" y1="61.273" x2="66.835" y2="61.213"/>
</g>
<text transform="matrix(1 0 0 1 27.4355 77.1338)" fill="#FFFFFA" font-family="'ArialMT'" font-size="8">Self Issue</text>
</svg>
