<?xml version="1.0" encoding="utf-8"?>
<!-- Generator: Adobe Illustrator 19.2.1, SVG Export Plug-In . SVG Version: 6.00 Build 0)  -->
<svg version="1.1" id="图层_1" xmlns="http://www.w3.org/2000/svg" xmlns:xlink="http://www.w3.org/1999/xlink" x="0px" y="0px"
	 viewBox="0 0 90 90" style="enable-background:new 0 0 90 90;" xml:space="preserve">
<style type="text/css">
	.st0{fill:#00325F;}
	.st1{fill:#FFFFFA;}
	.st2{enable-background:new    ;}
</style>
<path class="st0" d="M90,80.1c0,5.4-4.1,9.9-9.1,9.9H9.1c-5,0-9.1-4.4-9.1-9.9V9.9C0,4.4,4.1,0,9.1,0h71.8c5,0,9.1,4.4,9.1,9.9V80.1
	z"/>
<g id="icon">
	<g id="arrow_4_">
		<path class="st1" d="M52.1,20c0,0.2-0.2,0.3-0.3,0.3h-1c-0.2,0-0.3-0.2-0.3-0.3v-4.7c0-0.2,0.2-0.3,0.3-0.3h1
			c0.2,0,0.3,0.2,0.3,0.3L52.1,20L52.1,20z"/>
		<path class="st1" d="M47.1,14.3l3.7-6.4c0.2-0.4,0.8-0.4,1,0l3.7,6.4c0.2,0.4-0.1,0.9-0.5,0.9h-7.3C47.1,15.1,46.9,14.6,47.1,14.3
			z"/>
	</g>
	<g id="arrow_2_">
		<path class="st1" d="M39.8,14.3c0,0.2-0.2,0.4-0.4,0.4h-1.3c-0.2,0-0.4-0.2-0.4-0.4V8.4c0-0.2,0.2-0.4,0.4-0.4h1.3
			c0.2,0,0.4,0.2,0.4,0.4V14.3L39.8,14.3z"/>
		<path class="st1" d="M42.9,13.7l-3.7,6.4c-0.2,0.4-0.8,0.4-1,0l-3.7-6.4c-0.2-0.4,0.1-0.9,0.5-0.9h7.3
			C42.9,12.9,43.1,13.4,42.9,13.7z"/>
	</g>
	<rect x="20.6" y="23.7" class="st1" width="48.8" height="38.9"/>
	<g id="people">
		<circle class="st0" cx="30" cy="36.3" r="5.4"/>
		<path class="st0" d="M23.5,43.2c0.5-0.7,12.3-0.9,12.9,0C37,44,31.2,62.8,30,62.8C29,62.8,23.1,43.8,23.5,43.2z"/>
	</g>
	<g id="people_1_">
		<circle class="st0" cx="60" cy="36.3" r="5.4"/>
		<path class="st0" d="M53.5,43.2c0.5-0.7,12.3-0.9,12.9,0C67,44,61.2,62.8,60,62.8C59,62.8,53.1,43.8,53.5,43.2z"/>
	</g>
	<g id="people_3_">
		<circle class="st0" cx="45" cy="36.2" r="5.4"/>
		<path class="st0" d="M47.3,53c-0.2-0.3-4.4-0.4-4.6,0c-0.2,0.4,1.9,9.8,2.3,9.8C45.4,62.8,47.4,53.3,47.3,53z"/>
		<path class="st0" d="M53.6,56.1c-0.6,0.5-16.3,0.6-17.1,0c-0.7-0.5,7-13.4,8.6-13.4C46.4,42.7,54.1,55.7,53.6,56.1z"/>
	</g>
</g>
<g class="st2">
	<path class="st1" d="M40.3,77.3v-5.7H41v5.1h2.8v0.7H40.3z"/>
	<path class="st1" d="M44.6,72.4v-0.8h0.7v0.8H44.6z M44.6,77.3v-4.1h0.7v4.1H44.6z"/>
	<path class="st1" d="M46.6,77.3v-3.6H46v-0.5h0.6v-0.4c0-0.3,0-0.5,0.1-0.6c0.1-0.2,0.2-0.3,0.4-0.4c0.2-0.1,0.4-0.2,0.7-0.2
		c0.2,0,0.4,0,0.7,0.1l-0.1,0.6c-0.1,0-0.3,0-0.4,0c-0.2,0-0.4,0-0.5,0.1c-0.1,0.1-0.1,0.3-0.1,0.5v0.4h0.8v0.5h-0.8v3.6H46.6z"/>
	<path class="st1" d="M50.2,76.7l0.1,0.6c-0.2,0-0.4,0.1-0.5,0.1c-0.3,0-0.5,0-0.6-0.1s-0.2-0.2-0.3-0.3c-0.1-0.1-0.1-0.4-0.1-0.8
		v-2.4h-0.5v-0.5h0.5v-1l0.7-0.4v1.4h0.7v0.5h-0.7v2.4c0,0.2,0,0.3,0,0.4c0,0.1,0.1,0.1,0.1,0.1c0.1,0,0.1,0.1,0.2,0.1
		C49.9,76.7,50,76.7,50.2,76.7z"/>
</g>
</svg>
