<?xml version="1.0" encoding="utf-8"?>
<!-- Generator: Adobe Illustrator 16.0.0, SVG Export Plug-In . SVG Version: 6.00 Build 0)  -->
<!DOCTYPE svg PUBLIC "-//W3C//DTD SVG 1.1//EN" "http://www.w3.org/Graphics/SVG/1.1/DTD/svg11.dtd">
<svg version="1.1" id="图层_1" xmlns="http://www.w3.org/2000/svg" xmlns:xlink="http://www.w3.org/1999/xlink" x="0px" y="0px"
	 width="90px" height="90px" viewBox="0 0 90 90" enable-background="new 0 0 90 90" xml:space="preserve">
<path fill="#00325F" d="M90,80.955C90,85.698,86.738,90,82.348,90H8.525C4.134,90,0,85.698,0,80.955V8.587C0,3.844,4.134,0,8.525,0
	h73.823C86.738,0,90,3.844,90,8.587V80.955z"/>
<path fill="#FFFFFA" d="M79.081,13.497H64.73v14.437c-0.111,0.826,0,0.826-1.121,0.923H46.794v14.207
	c-0.088,0.339-0.337,1.056-1.071,1.153H28.856v13.982c-0.076,0.903-0.076,1.057-0.972,1.376H10.919c0,0-1.794-0.129-1.794-1.536
	c0-1.279,1.794-1.537,1.794-1.537h14.35V42.066c0.149-0.641,0.403-0.922,1.413-0.922h16.525V27.014
	c0.112-0.691,0.516-1.23,1.412-1.23h16.525V11.397c0.446-0.895,0.446-0.588,1.25-0.972h16.688c0,0,1.794,0.384,1.794,1.536
	C80.875,13.368,79.081,13.497,79.081,13.497z"/>
<text transform="matrix(1 0 0 1 34.7754 77.1338)" fill="#FFFFFA" font-family="'ArialMT'" font-size="8">Stairs</text>
</svg>
