<?xml version="1.0" encoding="utf-8"?>
<!-- Generator: Adobe Illustrator 19.2.1, SVG Export Plug-In . SVG Version: 6.00 Build 0)  -->
<svg version="1.1" id="图层_1" xmlns="http://www.w3.org/2000/svg" xmlns:xlink="http://www.w3.org/1999/xlink" x="0px" y="0px"
	 viewBox="0 0 90 90" style="enable-background:new 0 0 90 90;" xml:space="preserve">
<style type="text/css">
	.st0{display:none;fill:#00325F;}
	.st1{fill:#0F3259;}
	.st2{enable-background:new    ;}
</style>
<path class="st0" d="M90,80.1c0,5.4-4.1,9.9-9.1,9.9H9.1c-5,0-9.1-4.4-9.1-9.9V9.9C0,4.4,4.1,0,9.1,0h71.8c5,0,9.1,4.4,9.1,9.9V80.1
	z"/>
<g>
	<circle class="st1" cx="32.7" cy="21.2" r="8.6"/>
	<path class="st1" d="M44,60c-5.5,8.9-16.6,9.9-23.4,5.4c-2.9-1.9-5.2-4.8-6.2-7.8C9.5,44.4,20.8,37,24.6,36.2
		c0.3-0.1,0.5-0.1,0.7,0.1c0.6,0.5,0.9,1.5,0.9,2c0,0.3,0,0.4-0.2,0.5c-6.1,1.6-10.8,7.8-9.9,14.6c0.3,2.4,1.3,5.5,4.1,8
		c7.8,7,18,3.5,21.5-3.7c0.1-0.2,0.5-0.2,0.8,0c0.3,0.2,1.3,1,1.5,1.3C44.3,59.3,44.3,59.5,44,60z"/>
	<path class="st1" d="M51.1,67.1c-1.5,0-2.1-9.5-2.1-9.5c0-1.4-0.1-1.6-1.5-1.6H31.7c-1.3,0-3.5-0.9-3.7-2.7V34c0.8-2.8,6.1-2.3,7,0
		v12c0.1,0.4-0.5,2.8,1.1,3H50c2.3,0,3,1.1,3,3C53,52,52.6,67.1,51.1,67.1z"/>
</g>
<g class="st2">
	<path class="st1" d="M50.5,23l0.4,2.1l0,0l0.5-2.1l2.8-9.6h1l2.8,9.6l0.5,2.1l0,0L59,23l2.6-9.6h1.2l-3.5,13.5h-1l-3.1-10.3
		l-0.4-1.4l0,0l-0.4,1.4l-3.1,10.3h-1l-3.3-13.5h1.2L50.5,23z"/>
	<path class="st1" d="M74.4,22.6L74.4,22.6c-0.1,1.4-0.6,2.4-1.4,3.2c-0.9,0.8-1.9,1.2-3.3,1.2c-1.5,0-2.7-0.5-3.6-1.7
		c-0.9-1.2-1.4-2.4-1.4-4.2v-2.2c0-1.7,0.5-3.1,1.4-4.2c0.9-1.2,1.9-1.4,3.5-1.4c1.4,0,2.6,0.4,3.3,1.2c0.9,0.8,1.3,1.8,1.4,3.2l0,0
		h-1c-0.1-1.2-0.5-1.9-1.2-2.6c-0.6-0.6-1.5-0.9-2.6-0.9c-1.2,0-2.2,0.5-2.8,1.4c-0.8,0.9-1,2.1-1,3.5v2.2c0,1.4,0.4,2.6,1,3.5
		c0.8,0.9,1.7,1.4,2.8,1.4c1.2,0,2.1-0.3,2.6-0.9c0.6-0.5,1-1.4,1.2-2.6C73.2,22.6,74.4,22.6,74.4,22.6z"/>
</g>
<g class="st2">
	<path class="st1" d="M15,77.1l2.2-5.7H18l2.3,5.7h-0.9l-0.7-1.7h-2.4l-0.6,1.7H15z M16.6,74.8h1.9L18,73.2
		c-0.2-0.5-0.3-0.9-0.4-1.2c-0.1,0.4-0.2,0.7-0.3,1.1L16.6,74.8z"/>
	<path class="st1" d="M23.6,75.6l0.7,0.1c-0.1,0.5-0.3,0.8-0.6,1.1s-0.7,0.4-1.1,0.4c-0.6,0-1-0.2-1.4-0.6s-0.5-0.9-0.5-1.6
		c0-0.4,0.1-0.8,0.2-1.2s0.4-0.6,0.7-0.8s0.6-0.3,1-0.3c0.5,0,0.8,0.1,1.1,0.3s0.5,0.6,0.6,1l-0.7,0.1c-0.1-0.3-0.2-0.5-0.3-0.6
		s-0.4-0.2-0.6-0.2c-0.4,0-0.6,0.1-0.9,0.4s-0.3,0.7-0.3,1.2c0,0.6,0.1,1,0.3,1.2s0.5,0.4,0.8,0.4s0.5-0.1,0.7-0.3
		S23.5,76,23.6,75.6z"/>
	<path class="st1" d="M27.6,75.6l0.7,0.1c-0.1,0.5-0.3,0.8-0.6,1.1s-0.7,0.4-1.1,0.4c-0.6,0-1-0.2-1.4-0.6s-0.5-0.9-0.5-1.6
		c0-0.4,0.1-0.8,0.2-1.2s0.4-0.6,0.7-0.8s0.6-0.3,1-0.3c0.5,0,0.8,0.1,1.1,0.3s0.5,0.6,0.6,1l-0.7,0.1c-0.1-0.3-0.2-0.5-0.3-0.6
		s-0.4-0.2-0.6-0.2c-0.4,0-0.6,0.1-0.9,0.4s-0.3,0.7-0.3,1.2c0,0.6,0.1,1,0.3,1.2s0.5,0.4,0.8,0.4s0.5-0.1,0.7-0.3
		S27.5,76,27.6,75.6z"/>
	<path class="st1" d="M31.7,75.8l0.7,0.1c-0.1,0.4-0.3,0.8-0.6,1s-0.7,0.4-1.2,0.4c-0.6,0-1.1-0.2-1.4-0.6s-0.5-0.9-0.5-1.6
		s0.2-1.2,0.5-1.6s0.8-0.6,1.4-0.6s1,0.2,1.4,0.6c0.4,0.4,0.5,0.9,0.5,1.6c0,0,0,0.1,0,0.2h-3.1c0,0.5,0.2,0.8,0.4,1
		s0.5,0.4,0.9,0.4c0.3,0,0.5-0.1,0.7-0.2S31.6,76.1,31.7,75.8z M29.4,74.7h2.3c0-0.3-0.1-0.6-0.3-0.8c-0.2-0.3-0.5-0.4-0.9-0.4
		c-0.3,0-0.6,0.1-0.8,0.3S29.4,74.3,29.4,74.7z"/>
	<path class="st1" d="M33,75.9l0.7-0.1c0,0.3,0.1,0.5,0.3,0.6s0.4,0.2,0.7,0.2s0.6-0.1,0.7-0.2s0.2-0.3,0.2-0.5s-0.1-0.3-0.2-0.4
		c-0.1-0.1-0.3-0.1-0.7-0.2c-0.5-0.1-0.9-0.2-1.1-0.3s-0.4-0.2-0.5-0.4s-0.2-0.4-0.2-0.6s0-0.4,0.1-0.5s0.2-0.3,0.3-0.4
		s0.3-0.1,0.4-0.2s0.4-0.1,0.6-0.1c0.3,0,0.6,0,0.9,0.1s0.4,0.2,0.5,0.4s0.2,0.4,0.2,0.6L35.2,74c0-0.2-0.1-0.4-0.3-0.5
		s-0.4-0.2-0.6-0.2c-0.3,0-0.6,0.1-0.7,0.2s-0.2,0.2-0.2,0.4c0,0.1,0,0.2,0.1,0.2c0.1,0.1,0.1,0.1,0.3,0.2c0.1,0,0.3,0.1,0.6,0.2
		c0.5,0.1,0.8,0.2,1,0.3s0.4,0.2,0.5,0.4s0.2,0.4,0.2,0.6s-0.1,0.5-0.2,0.7s-0.3,0.4-0.6,0.5s-0.5,0.2-0.9,0.2
		c-0.5,0-0.9-0.1-1.2-0.3S33.1,76.3,33,75.9z"/>
	<path class="st1" d="M37,75.9l0.7-0.1c0,0.3,0.1,0.5,0.3,0.6s0.4,0.2,0.7,0.2s0.6-0.1,0.7-0.2s0.2-0.3,0.2-0.5s-0.1-0.3-0.2-0.4
		c-0.1-0.1-0.3-0.1-0.7-0.2c-0.5-0.1-0.9-0.2-1.1-0.3s-0.4-0.2-0.5-0.4s-0.2-0.4-0.2-0.6s0-0.4,0.1-0.5s0.2-0.3,0.3-0.4
		s0.3-0.1,0.4-0.2s0.4-0.1,0.6-0.1c0.3,0,0.6,0,0.9,0.1s0.4,0.2,0.5,0.4s0.2,0.4,0.2,0.6L39.2,74c0-0.2-0.1-0.4-0.3-0.5
		s-0.4-0.2-0.6-0.2c-0.3,0-0.6,0.1-0.7,0.2s-0.2,0.2-0.2,0.4c0,0.1,0,0.2,0.1,0.2c0.1,0.1,0.1,0.1,0.3,0.2c0.1,0,0.3,0.1,0.6,0.2
		c0.5,0.1,0.8,0.2,1,0.3s0.4,0.2,0.5,0.4s0.2,0.4,0.2,0.6s-0.1,0.5-0.2,0.7s-0.3,0.4-0.6,0.5s-0.5,0.2-0.9,0.2
		c-0.5,0-0.9-0.1-1.2-0.3S37.1,76.3,37,75.9z"/>
	<path class="st1" d="M41.3,72.2v-0.8H42v0.8H41.3z M41.3,77.1V73H42v4.1H41.3z"/>
	<path class="st1" d="M43.7,77.1H43v-5.7h0.7v2c0.3-0.4,0.7-0.6,1.1-0.6c0.3,0,0.5,0.1,0.7,0.2s0.4,0.2,0.6,0.4
		c0.1,0.2,0.3,0.4,0.3,0.7c0.1,0.3,0.1,0.5,0.1,0.8c0,0.7-0.2,1.3-0.5,1.6s-0.8,0.6-1.3,0.6s-0.9-0.2-1.2-0.6v0.6H43.7z M43.7,75
		c0,0.5,0.1,0.9,0.2,1.1c0.2,0.4,0.5,0.5,0.9,0.5c0.3,0,0.6-0.1,0.8-0.4s0.3-0.7,0.3-1.2s-0.1-0.9-0.3-1.2s-0.5-0.4-0.8-0.4
		s-0.6,0.1-0.8,0.4S43.7,74.5,43.7,75z"/>
	<path class="st1" d="M47.5,77.1v-5.7h0.7v5.7H47.5z"/>
	<path class="st1" d="M52.1,75.8l0.7,0.1c-0.1,0.4-0.3,0.8-0.6,1s-0.7,0.4-1.2,0.4c-0.6,0-1.1-0.2-1.4-0.6s-0.5-0.9-0.5-1.6
		s0.2-1.2,0.5-1.6s0.8-0.6,1.4-0.6c0.6,0,1,0.2,1.4,0.6s0.5,0.9,0.5,1.6c0,0,0,0.1,0,0.2h-3.1c0,0.5,0.2,0.8,0.4,1s0.5,0.4,0.9,0.4
		c0.3,0,0.5-0.1,0.7-0.2C51.9,76.3,52,76.1,52.1,75.8z M49.8,74.7h2.3c0-0.3-0.1-0.6-0.3-0.8c-0.2-0.3-0.5-0.4-0.9-0.4
		c-0.3,0-0.6,0.1-0.8,0.3C50,74,49.9,74.3,49.8,74.7z"/>
	<path class="st1" d="M57.4,77.1V72h-1.9v-0.7H60V72h-1.9v5.1H57.4z"/>
	<path class="st1" d="M59.6,75.1c0-0.8,0.2-1.3,0.6-1.7c0.4-0.3,0.8-0.5,1.3-0.5c0.6,0,1,0.2,1.4,0.6s0.5,0.9,0.5,1.5
		c0,0.5-0.1,1-0.2,1.3s-0.4,0.5-0.7,0.7s-0.6,0.3-1,0.3c-0.6,0-1-0.2-1.4-0.6C59.8,76.3,59.6,75.8,59.6,75.1z M60.3,75.1
		c0,0.5,0.1,0.9,0.3,1.2c0.2,0.3,0.5,0.4,0.9,0.4c0.3,0,0.6-0.1,0.9-0.4c0.2-0.3,0.3-0.7,0.3-1.2s-0.1-0.9-0.3-1.2
		c-0.2-0.3-0.5-0.4-0.9-0.4s-0.6,0.1-0.9,0.4C60.4,74.1,60.3,74.5,60.3,75.1z"/>
	<path class="st1" d="M64.3,72.2v-0.8H65v0.8H64.3z M64.3,77.1V73H65v4.1H64.3z"/>
	<path class="st1" d="M66,77.1v-5.7h0.7v5.7H66z"/>
	<path class="st1" d="M70.7,75.8l0.7,0.1c-0.1,0.4-0.3,0.8-0.6,1c-0.3,0.2-0.7,0.4-1.2,0.4c-0.6,0-1.1-0.2-1.4-0.6s-0.5-0.9-0.5-1.6
		s0.2-1.2,0.5-1.6s0.8-0.6,1.4-0.6s1,0.2,1.4,0.6s0.5,0.9,0.5,1.6c0,0,0,0.1,0,0.2h-3.1c0,0.5,0.2,0.8,0.4,1
		c0.2,0.2,0.5,0.4,0.9,0.4c0.3,0,0.5-0.1,0.7-0.2C70.4,76.3,70.6,76.1,70.7,75.8z M68.4,74.7h2.3c0-0.3-0.1-0.6-0.3-0.8
		c-0.2-0.3-0.5-0.4-0.9-0.4c-0.3,0-0.6,0.1-0.8,0.3C68.5,74,68.4,74.3,68.4,74.7z"/>
	<path class="st1" d="M73.8,76.5l0.1,0.6c-0.2,0-0.4,0.1-0.5,0.1c-0.3,0-0.5,0-0.6-0.1s-0.2-0.2-0.3-0.3c-0.1-0.1-0.1-0.4-0.1-0.8
		v-2.4h-0.5V73h0.5v-1l0.7-0.4V73h0.7v0.5h-0.7V76c0,0.2,0,0.3,0,0.4s0.1,0.1,0.1,0.1c0.1,0,0.1,0.1,0.2,0.1
		C73.6,76.5,73.7,76.5,73.8,76.5z"/>
</g>
</svg>
