<?xml version="1.0" encoding="utf-8"?>
<!-- Generator: Adobe Illustrator 19.2.1, SVG Export Plug-In . SVG Version: 6.00 Build 0)  -->
<svg version="1.1" id="图层_1" xmlns="http://www.w3.org/2000/svg" xmlns:xlink="http://www.w3.org/1999/xlink" x="0px" y="0px"
	 viewBox="0 0 90 90" style="enable-background:new 0 0 90 90;" xml:space="preserve">
<style type="text/css">
	.st0{fill:#0F3259;}
	.st1{fill:#00325F;}
	.st2{fill:#FFFFFF;}
	.st3{enable-background:new    ;}
</style>
<g>
	<g>
		<circle class="st0" cx="30.7" cy="15.7" r="8.6"/>
		<path class="st0" d="M42,54.5c-5.5,8.9-16.6,9.9-23.4,5.4c-2.9-1.9-5.2-4.8-6.2-7.8c-4.8-13.3,6.5-20.6,10.3-21.4
			c0.3-0.1,0.5-0.1,0.7,0.1c0.6,0.5,0.9,1.5,0.9,2c0,0.3,0,0.4-0.2,0.5c-6.1,1.6-10.8,7.8-9.9,14.6c0.3,2.4,1.3,5.5,4.1,8
			c7.8,7,18,3.5,21.5-3.7c0.1-0.2,0.5-0.2,0.8,0c0.3,0.2,1.3,1,1.5,1.3C42.3,53.8,42.3,53.9,42,54.5z"/>
		<path class="st0" d="M49.2,61.5c-1.5,0-2.1-9.5-2.1-9.5c0-1.4-0.1-1.6-1.5-1.6H29.7c-1.3,0-3.5-0.9-3.7-2.7V28.5
			c0.8-2.8,6.1-2.3,7,0v12c0.1,0.4-0.5,2.8,1.1,3H48c2.3,0,3,1.1,3,3C51,46.5,50.6,61.5,49.2,61.5z"/>
	</g>
	<g id="notebook_1_">
		<path class="st1" d="M73.4,47.1c0,0.2,0,0.3-0.2,0.3H56.8c-0.2,0-0.7-0.5-0.7-0.7v-0.8c0,0,0.5,0,0.7,0h16.5
			c0.2,0,0.2,0.2,0.2,0.5v0.7H73.4z"/>
		<path class="st2" d="M72.9,46.4c0,0.3,0.3,0.5,0.1,0.5H56.8c-0.2,0-0.1-0.1-0.1-0.5V46c0-0.3,0.1-1.1,0.3-1.1h15.9
			c0.2,0,0.1,0.8,0.1,1.1L72.9,46.4L72.9,46.4z"/>
		<path class="st1" d="M74.2,45.8c0,0.3-0.2,0.6-0.6,0.6h-17c-0.3,0-0.6-0.2-0.6-0.6V23.7c0-0.3,0.2-0.6,0.6-0.6h16.9
			c0.3,0,0.6,0.2,0.6,0.6L74.2,45.8L74.2,45.8z"/>
	</g>
</g>
<g class="st3">
	<path class="st0" d="M9.2,77.3v-5.7h2c0.4,0,0.8,0,1,0.1c0.3,0.1,0.6,0.2,0.8,0.4c0.3,0.3,0.5,0.6,0.7,1s0.2,0.9,0.2,1.4
		c0,0.4-0.1,0.8-0.2,1.2s-0.2,0.6-0.4,0.8S13,76.8,12.8,77s-0.4,0.2-0.7,0.3s-0.6,0.1-0.9,0.1L9.2,77.3L9.2,77.3z M9.9,76.7h1.2
		c0.4,0,0.7,0,0.9-0.1s0.4-0.2,0.5-0.3c0.2-0.2,0.3-0.4,0.4-0.7s0.2-0.7,0.2-1.1c0-0.6-0.1-1.1-0.3-1.4s-0.4-0.5-0.7-0.6
		c-0.2-0.1-0.5-0.1-1-0.1H9.9V76.7z"/>
	<path class="st0" d="M14.8,72.4v-0.8h0.7v0.8H14.8z M14.8,77.3v-4.1h0.7v4.1H14.8z"/>
	<path class="st0" d="M16.3,76.1L17,76c0,0.3,0.1,0.5,0.3,0.6s0.4,0.2,0.7,0.2c0.3,0,0.6-0.1,0.7-0.2s0.2-0.3,0.2-0.5
		s-0.1-0.3-0.2-0.4s-0.3-0.1-0.7-0.2c-0.5-0.1-0.9-0.2-1.1-0.3s-0.4-0.2-0.5-0.4s-0.2-0.4-0.2-0.6s0-0.4,0.1-0.5s0.2-0.3,0.3-0.4
		c0.1-0.1,0.3-0.1,0.4-0.2s0.4-0.1,0.6-0.1c0.3,0,0.6,0,0.9,0.1s0.4,0.2,0.5,0.4s0.2,0.4,0.2,0.6l-0.7,0.1c0-0.2-0.1-0.4-0.3-0.5
		s-0.4-0.2-0.6-0.2c-0.3,0-0.6,0.1-0.7,0.2s-0.2,0.2-0.2,0.4c0,0.1,0,0.2,0.1,0.2c0.1,0.1,0.1,0.1,0.3,0.2c0.1,0,0.3,0.1,0.6,0.2
		c0.5,0.1,0.8,0.2,1,0.3s0.4,0.2,0.5,0.4s0.2,0.4,0.2,0.6s-0.1,0.5-0.2,0.7s-0.3,0.4-0.6,0.5s-0.5,0.2-0.9,0.2
		c-0.5,0-0.9-0.1-1.2-0.3S16.4,76.5,16.3,76.1z"/>
	<path class="st0" d="M23.3,76.8c-0.3,0.2-0.5,0.4-0.8,0.5s-0.5,0.1-0.8,0.1c-0.5,0-0.8-0.1-1.1-0.3s-0.4-0.5-0.4-0.9
		c0-0.2,0-0.4,0.1-0.6s0.2-0.3,0.4-0.4S21,75,21.2,75c0.1,0,0.3-0.1,0.6-0.1c0.6-0.1,1-0.1,1.3-0.2c0-0.1,0-0.2,0-0.2
		c0-0.3-0.1-0.5-0.2-0.6c-0.2-0.2-0.4-0.2-0.8-0.2c-0.3,0-0.6,0.1-0.7,0.2s-0.3,0.3-0.3,0.6l-0.7-0.1c0.1-0.3,0.2-0.5,0.3-0.7
		s0.4-0.3,0.6-0.4s0.6-0.1,0.9-0.1c0.4,0,0.6,0,0.9,0.1s0.4,0.2,0.5,0.3s0.2,0.3,0.2,0.5c0,0.1,0,0.3,0,0.6v0.9c0,0.7,0,1.1,0,1.2
		s0.1,0.3,0.2,0.5h-0.7C23.4,77.2,23.3,77,23.3,76.8z M23.3,75.3c-0.3,0.1-0.6,0.2-1.1,0.3c-0.3,0-0.5,0.1-0.6,0.1s-0.2,0.1-0.3,0.2
		s-0.1,0.2-0.1,0.3c0,0.2,0.1,0.3,0.2,0.5s0.3,0.2,0.6,0.2c0.3,0,0.5-0.1,0.7-0.2s0.4-0.3,0.5-0.5s0.1-0.4,0.1-0.7
		C23.3,75.5,23.3,75.3,23.3,75.3z"/>
	<path class="st0" d="M25.7,77.3H25v-5.7h0.7v2c0.3-0.4,0.7-0.6,1.1-0.6c0.3,0,0.5,0.1,0.7,0.2s0.4,0.2,0.6,0.4s0.3,0.4,0.3,0.7
		s0.1,0.5,0.1,0.8c0,0.7-0.2,1.3-0.5,1.6s-0.8,0.6-1.3,0.6s-0.9-0.2-1.2-0.6v0.6H25.7z M25.7,75.2c0,0.5,0.1,0.9,0.2,1.1
		c0.2,0.4,0.5,0.5,0.9,0.5c0.3,0,0.6-0.1,0.8-0.4s0.3-0.7,0.3-1.2s-0.1-0.9-0.3-1.2s-0.5-0.4-0.8-0.4S26.2,73.7,26,74
		S25.7,74.7,25.7,75.2z"/>
	<path class="st0" d="M29.5,77.3v-5.7h0.7v5.7H29.5z"/>
	<path class="st0" d="M34.1,76l0.7,0.1c-0.1,0.4-0.3,0.8-0.6,1s-0.7,0.4-1.2,0.4c-0.6,0-1.1-0.2-1.4-0.6s-0.5-0.9-0.5-1.6
		s0.2-1.2,0.5-1.6s0.8-0.6,1.4-0.6s1,0.2,1.4,0.6s0.5,0.9,0.5,1.6c0,0,0,0.1,0,0.2h-3.1c0,0.5,0.2,0.8,0.4,1s0.5,0.4,0.9,0.4
		c0.3,0,0.5-0.1,0.7-0.2S34,76.3,34.1,76z M31.8,74.9h2.3c0-0.3-0.1-0.6-0.3-0.8c-0.2-0.3-0.5-0.4-0.9-0.4c-0.3,0-0.6,0.1-0.8,0.3
		S31.9,74.5,31.8,74.9z"/>
	<path class="st0" d="M37.8,75.5l0.7-0.1c0,0.3,0.1,0.5,0.2,0.7s0.3,0.3,0.6,0.4s0.6,0.2,0.9,0.2c0.3,0,0.5,0,0.8-0.1
		s0.4-0.2,0.5-0.4s0.2-0.3,0.2-0.5s-0.1-0.3-0.2-0.5S41.2,75.1,41,75s-0.5-0.2-1-0.3s-0.9-0.2-1.1-0.4c-0.3-0.1-0.5-0.3-0.6-0.5
		S38,73.4,38,73.1s0.1-0.6,0.2-0.8s0.4-0.4,0.7-0.6s0.7-0.2,1.1-0.2c0.4,0,0.8,0.1,1.1,0.2s0.6,0.3,0.7,0.6s0.3,0.6,0.3,0.9
		l-0.7,0.1c0-0.4-0.2-0.6-0.4-0.8s-0.6-0.3-1-0.3c-0.5,0-0.8,0.1-1,0.3s-0.3,0.4-0.3,0.6s0.1,0.4,0.2,0.5c0.1,0.1,0.5,0.3,1.1,0.4
		s1,0.3,1.3,0.4c0.3,0.2,0.6,0.3,0.7,0.6s0.2,0.5,0.2,0.8s-0.1,0.6-0.3,0.9s-0.4,0.5-0.8,0.6s-0.7,0.2-1.1,0.2c-0.5,0-1-0.1-1.3-0.2
		s-0.6-0.4-0.8-0.7S37.8,75.9,37.8,75.5z"/>
	<path class="st0" d="M44.8,76.7l0.1,0.6c-0.2,0-0.4,0.1-0.5,0.1c-0.3,0-0.5,0-0.6-0.1s-0.2-0.2-0.3-0.3s-0.1-0.4-0.1-0.8v-2.4h-0.5
		v-0.5h0.5v-1l0.7-0.4v1.4h0.7v0.5h-0.7v2.4c0,0.2,0,0.3,0,0.4s0.1,0.1,0.1,0.1s0.1,0.1,0.2,0.1C44.6,76.7,44.7,76.7,44.8,76.7z"/>
	<path class="st0" d="M48.2,77.3v-0.6c-0.3,0.5-0.8,0.7-1.3,0.7c-0.2,0-0.5,0-0.7-0.1s-0.4-0.2-0.5-0.4s-0.2-0.3-0.2-0.5
		c0-0.1,0-0.4,0-0.7v-2.6h0.7v2.3c0,0.4,0,0.6,0,0.7c0,0.2,0.1,0.3,0.3,0.4c0.1,0.1,0.3,0.2,0.5,0.2s0.4-0.1,0.6-0.2
		c0.2-0.1,0.3-0.3,0.4-0.4c0.1-0.2,0.1-0.5,0.1-0.8v-2.2h0.7v4.1L48.2,77.3L48.2,77.3z"/>
	<path class="st0" d="M52.7,77.3v-0.5c-0.3,0.4-0.6,0.6-1.2,0.6c-0.3,0-0.6-0.1-0.9-0.3s-0.5-0.4-0.6-0.8s-0.2-0.7-0.2-1.1
		s0.1-0.8,0.2-1.1c0.1-0.3,0.3-0.6,0.6-0.8c0.3-0.2,0.6-0.3,0.9-0.3c0.3,0,0.5,0.1,0.7,0.2s0.4,0.2,0.5,0.4v-2.1h0.7v5.7h-0.7V77.3z
		 M50.4,75.3c0,0.5,0.1,0.9,0.3,1.2c0.2,0.3,0.5,0.4,0.8,0.4s0.6-0.1,0.8-0.4s0.3-0.6,0.3-1.2s-0.1-1-0.3-1.3s-0.5-0.4-0.8-0.4
		s-0.6,0.1-0.8,0.4C50.6,74.3,50.4,74.7,50.4,75.3z"/>
	<path class="st0" d="M54.4,78.9l-0.1-0.7c0.2,0,0.3,0.1,0.4,0.1c0.2,0,0.3,0,0.4-0.1s0.2-0.1,0.2-0.2s0.1-0.2,0.2-0.5
		c0,0,0-0.1,0.1-0.2L54,73.2h0.8l0.9,2.4c0.1,0.3,0.2,0.6,0.3,1c0.1-0.3,0.2-0.6,0.3-0.9l0.9-2.4h0.7l-1.6,4.2
		c-0.2,0.5-0.3,0.8-0.4,0.9c-0.1,0.2-0.3,0.4-0.4,0.5C55.3,79,55.1,79,54.8,79C54.7,79,54.6,79,54.4,78.9z"/>
	<path class="st0" d="M60.8,77.3v-5.7h2.5c0.5,0,0.9,0.1,1.2,0.2s0.5,0.3,0.6,0.5c0.2,0.3,0.2,0.5,0.2,0.9s-0.1,0.7-0.4,1
		s-0.7,0.5-1.2,0.5c0.2,0.1,0.4,0.2,0.5,0.3c0.2,0.2,0.4,0.5,0.6,0.8l1,1.6h-1L64,76.2c-0.2-0.3-0.4-0.6-0.5-0.8
		c-0.1-0.2-0.3-0.3-0.4-0.4s-0.2-0.1-0.3-0.2c-0.1,0-0.2,0-0.4,0h-0.9v2.5C61.5,77.3,60.8,77.3,60.8,77.3z M61.5,74.1h1.6
		c0.3,0,0.6,0,0.8-0.1s0.3-0.2,0.4-0.3s0.2-0.3,0.2-0.5c0-0.3-0.1-0.5-0.3-0.7c-0.2-0.2-0.5-0.3-0.9-0.3h-1.8L61.5,74.1L61.5,74.1z"
		/>
	<path class="st0" d="M66.2,75.3c0-0.8,0.2-1.3,0.6-1.7c0.4-0.3,0.8-0.5,1.3-0.5c0.6,0,1,0.2,1.4,0.6s0.5,0.9,0.5,1.5
		c0,0.5-0.1,1-0.2,1.3s-0.4,0.5-0.7,0.7c-0.3,0.2-0.6,0.3-1,0.3c-0.6,0-1-0.2-1.4-0.6C66.3,76.5,66.2,76,66.2,75.3z M66.9,75.3
		c0,0.5,0.1,0.9,0.3,1.2c0.2,0.3,0.5,0.4,0.9,0.4c0.3,0,0.6-0.1,0.9-0.4c0.2-0.3,0.3-0.7,0.3-1.2s-0.1-0.9-0.3-1.2
		c-0.2-0.3-0.5-0.4-0.9-0.4s-0.6,0.1-0.9,0.4C67,74.3,66.9,74.7,66.9,75.3z"/>
	<path class="st0" d="M70.6,75.3c0-0.8,0.2-1.3,0.6-1.7c0.4-0.3,0.8-0.5,1.3-0.5c0.6,0,1,0.2,1.4,0.6s0.5,0.9,0.5,1.5
		c0,0.5-0.1,1-0.2,1.3s-0.4,0.5-0.7,0.7c-0.3,0.2-0.6,0.3-1,0.3c-0.6,0-1-0.2-1.4-0.6C70.8,76.5,70.6,76,70.6,75.3z M71.3,75.3
		c0,0.5,0.1,0.9,0.3,1.2c0.2,0.3,0.5,0.4,0.9,0.4c0.3,0,0.6-0.1,0.9-0.4c0.2-0.3,0.3-0.7,0.3-1.2s-0.1-0.9-0.3-1.2
		c-0.2-0.3-0.5-0.4-0.9-0.4s-0.6,0.1-0.9,0.4C71.5,74.3,71.3,74.7,71.3,75.3z"/>
	<path class="st0" d="M75.3,77.3v-4.1H76v0.6c0.1-0.2,0.3-0.4,0.5-0.5s0.5-0.2,0.7-0.2c0.3,0,0.6,0.1,0.8,0.2
		c0.2,0.1,0.3,0.3,0.4,0.5c0.3-0.5,0.8-0.7,1.3-0.7c0.4,0,0.7,0.1,0.9,0.3c0.2,0.2,0.3,0.6,0.3,1.1v2.8h-0.7v-2.6
		c0-0.3,0-0.5-0.1-0.6c0-0.1-0.1-0.2-0.2-0.3c-0.1-0.1-0.3-0.1-0.4-0.1c-0.3,0-0.5,0.1-0.7,0.3c-0.2,0.2-0.3,0.5-0.3,0.9v2.4h-0.7
		v-2.7c0-0.3-0.1-0.5-0.2-0.7s-0.3-0.2-0.6-0.2c-0.2,0-0.4,0.1-0.5,0.2s-0.3,0.3-0.4,0.5S76,74.9,76,75.3v2.2h-0.7V77.3z"/>
</g>
</svg>
