<?xml version="1.0" encoding="utf-8"?>
<!-- Generator: Adobe Illustrator 16.0.0, SVG Export Plug-In . SVG Version: 6.00 Build 0)  -->
<!DOCTYPE svg PUBLIC "-//W3C//DTD SVG 1.1//EN" "http://www.w3.org/Graphics/SVG/1.1/DTD/svg11.dtd">
<svg version="1.1" id="图层_1" xmlns="http://www.w3.org/2000/svg" xmlns:xlink="http://www.w3.org/1999/xlink" x="0px" y="0px"
	 width="480.01px" height="131.43px" viewBox="-100.005 -27.382 480.01 131.43"
	 enable-background="new -100.005 -27.382 480.01 131.43" xml:space="preserve">
<g id="char">
	<path fill="#CBC8B8" d="M176.949,86.402c-0.452,1.954-1.219,3.44-3.168,2.987l-40.396-9.327c-1.955-0.45-1.992-2.119-1.54-4.074
		c0,0,6.79-29.411,9.053-39.219l45.104,10.412C183.739,56.99,176.949,86.402,176.949,86.402z"/>
	<path fill="#BCBAAF" d="M140.496,11.66c0.269-1.171,2.074-1.768,4.023-1.32l49.418,11.408c1.95,0.451,3.313,1.778,3.038,2.951
		c0,0-13.341,15.737-14.698,21.618l-38.93-8.986C144.706,31.45,140.496,11.66,140.496,11.66z"/>
	<path fill="#5E5951" d="M137.212,70.616c-0.15,0.654-0.795,1.058-1.448,0.91l-5.491-1.266c-0.651-0.154-1.057-0.804-0.908-1.449
		l7.425-32.166c0.153-0.651,0.799-1.056,1.451-0.905l5.49,1.267c0.653,0.15,1.055,0.797,0.904,1.452L137.212,70.616z"/>
	<path fill="#5E5951" d="M181.923,80.946c-0.149,0.646-0.795,1.052-1.448,0.904l-5.491-1.266c-0.647-0.15-1.055-0.804-0.903-1.449
		l7.424-32.165c0.151-0.653,0.799-1.057,1.448-0.905l5.495,1.267c0.646,0.149,1.051,0.796,0.9,1.448L181.923,80.946z"/>
</g>
<g id="char_1_">
	<path fill="#CBC8B8" d="M267.847,71.367c0.353,1.968,0.23,3.64-1.741,3.988l-40.814,7.289c-1.973,0.352-2.666-1.174-3.018-3.141
		c0,0-5.31-29.723-7.076-39.63l45.571-8.138C262.539,41.646,267.847,71.367,267.847,71.367z"/>
	<path fill="#BCBAAF" d="M204.971,16.942c-0.215-1.184,1.212-2.442,3.179-2.793l49.925-8.916c1.971-0.353,3.749,0.334,3.956,1.519
		c0,0-6.087,19.712-5.028,25.658l-39.328,7.025C216.612,33.488,204.971,16.942,204.971,16.942z"/>
	<path fill="#5E5951" d="M225.104,72.456c0.115,0.659-0.316,1.285-0.973,1.402l-5.549,0.991c-0.656,0.115-1.285-0.323-1.4-0.978
		l-5.803-32.494c-0.115-0.66,0.323-1.286,0.976-1.403l5.547-0.987c0.659-0.121,1.282,0.319,1.397,0.978L225.104,72.456z"/>
	<path fill="#5E5951" d="M270.28,64.388c0.114,0.656-0.317,1.286-0.974,1.401l-5.552,0.991c-0.656,0.117-1.282-0.321-1.396-0.976
		l-5.802-32.497c-0.117-0.66,0.321-1.286,0.971-1.403l5.55-0.99c0.657-0.116,1.282,0.319,1.397,0.979L270.28,64.388z"/>
</g>
<g id="char_2_">
	<path fill="#CBC8B8" d="M347.446,28.537c1.188,1.608,1.824,3.158,0.211,4.346l-33.318,24.67c-1.613,1.193-2.908,0.136-4.101-1.474
		c0,0-17.963-24.261-23.953-32.35l37.208-27.544C329.483,4.273,347.446,28.537,347.446,28.537z"/>
	<path fill="#BCBAAF" d="M266.931,7.731c-0.717-0.965,0.003-2.727,1.608-3.916l40.762-30.177c1.608-1.191,3.505-1.362,4.218-0.396
		c0,0,3.309,20.362,6.897,25.217l-32.108,23.772C284.717,17.379,266.931,7.731,266.931,7.731z"/>
	<path fill="#5E5951" d="M309.641,48.513c0.396,0.539,0.29,1.289-0.249,1.688l-4.532,3.352c-0.537,0.396-1.296,0.284-1.686-0.25
		l-19.641-26.527c-0.398-0.538-0.285-1.294,0.249-1.69l4.532-3.353c0.535-0.4,1.289-0.285,1.686,0.253L309.641,48.513z"/>
	<path fill="#5E5951" d="M346.522,21.207c0.398,0.537,0.287,1.291-0.248,1.688l-4.53,3.356c-0.536,0.394-1.296,0.281-1.688-0.254
		l-19.644-26.53c-0.396-0.538-0.285-1.292,0.251-1.688l4.533-3.354c0.536-0.398,1.292-0.285,1.688,0.253L346.522,21.207z"/>
</g>
<path fill="#A7D6D1" d="M379.994-18.184c0,0-0.067,105.933-129.999,119.963C148.193,112.774,74.852,67.53,74.852,67.53h-174.857
	V24.673H74.852c9.559,7.169,96.76,48.311,170.841,37.918c87.255-12.248,91.443-80.776,91.443-80.776H379.994z"/>
<g id="desktop">
	<g id="monitor_5_">
		<path d="M159.391,90.72c-0.08,0.379-0.458,0.616-0.832,0.536l-17.178-3.757c-0.382-0.08-0.616-0.455-0.537-0.832l0.607-2.75
			c0.08-0.381,0.455-0.616,0.83-0.536l17.18,3.76c0.379,0.081,0.615,0.456,0.534,0.832L159.391,90.72z"/>
		<path fill="#666666" d="M182.447,99.773c-0.194,0.966-3.891,1.395-5.655,1.036L120.819,89.53
			c-1.764-0.362-5.266-2.402-5.071-3.365l0.713-3.492c0.196-0.966,1.975-1.816,3.737-1.458l60.658,12.383
			c1.765,0.358,2.499,1.725,2.304,2.684L182.447,99.773z"/>
	</g>
	<g id="keyboard">
		<path fill="#808080" d="M126.779,58.926c0.274-1.34,1.343-3.017,2.285-2.826l53.301,10.878c0.945,0.194,1.5,2.2,1.227,3.546
			l-2.48,12.161c-0.271,1.346-1.338,1.824-2.284,1.634l-53.296-10.875c-0.947-0.194-1.503-1.011-1.229-2.354L126.779,58.926
			L126.779,58.926z"/>
		<path fill="#999999" d="M126.586,59.883c0.257-1.252,1.152-2.866,2.098-2.672l53.443,10.903c0.944,0.191,1.525,2.108,1.271,3.358
			l-2.321,11.351c-0.253,1.251-1.31,1.68-2.252,1.486l-53.443-10.904c-0.95-0.193-1.366-0.92-1.111-2.17L126.586,59.883z"/>
		<g id="key">
			<g id="line1_2_">
				<path fill="#E6E6E6" d="M128.492,70.591c0.082-0.392,0.469-0.653,0.865-0.572l5.818,1.185c0.398,0.084,0.651,0.468,0.571,0.867
					l-0.313,1.53c-0.082,0.392-0.466,0.653-0.864,0.572l-5.82-1.185c-0.393-0.084-0.649-0.471-0.571-0.867L128.492,70.591z"/>
				<path fill="#E6E6E6" d="M166.082,78.257c0.079-0.394,0.471-0.65,0.862-0.569L168.481,78c0.398,0.084,0.653,0.468,0.571,0.867
					l-0.313,1.53c-0.08,0.398-0.466,0.656-0.864,0.572l-1.536-0.311c-0.392-0.081-0.653-0.466-0.566-0.864L166.082,78.257z"/>
				<path fill="#E6E6E6" d="M162.455,77.521c0.076-0.396,0.47-0.656,0.863-0.569l1.535,0.309c0.394,0.083,0.651,0.469,0.572,0.867
					l-0.313,1.531c-0.08,0.394-0.467,0.653-0.867,0.576l-1.53-0.316c-0.396-0.084-0.653-0.467-0.571-0.864L162.455,77.521z"/>
				<path fill="#E6E6E6" d="M158.828,76.781c0.081-0.395,0.464-0.652,0.864-0.575l1.532,0.317c0.396,0.081,0.654,0.466,0.574,0.864
					l-0.315,1.533c-0.08,0.394-0.465,0.653-0.863,0.569l-1.537-0.312c-0.396-0.08-0.649-0.465-0.571-0.863L158.828,76.781z"/>
				<path fill="#E6E6E6" d="M154.874,75.97c0.081-0.394,0.466-0.653,0.86-0.572l1.535,0.316c0.397,0.08,0.655,0.467,0.574,0.863
					l-0.314,1.533c-0.08,0.396-0.467,0.653-0.867,0.573l-1.531-0.318c-0.397-0.08-0.65-0.464-0.571-0.86L154.874,75.97z"/>
				<path fill="#E6E6E6" d="M151.312,75.246c0.084-0.396,0.469-0.652,0.864-0.575l1.533,0.316c0.396,0.08,0.651,0.467,0.571,0.867
					l-0.313,1.529c-0.084,0.396-0.467,0.656-0.86,0.573l-1.537-0.315c-0.395-0.083-0.651-0.465-0.572-0.863L151.312,75.246z"/>
				<path fill="#E6E6E6" d="M147.55,74.477c0.079-0.394,0.468-0.653,0.864-0.573l1.535,0.316c0.394,0.081,0.649,0.468,0.569,0.864
					l-0.312,1.533c-0.079,0.396-0.466,0.656-0.865,0.569l-1.532-0.312c-0.396-0.083-0.654-0.469-0.572-0.86L147.55,74.477z"/>
				<path fill="#E6E6E6" d="M143.893,73.731c0.076-0.392,0.467-0.649,0.867-0.569l1.531,0.308c0.394,0.088,0.651,0.473,0.571,0.871
					l-0.312,1.531c-0.084,0.397-0.469,0.653-0.867,0.576l-1.532-0.316c-0.394-0.084-0.654-0.471-0.572-0.863L143.893,73.731z"/>
				<path fill="#E6E6E6" d="M140.031,72.941c0.082-0.394,0.469-0.653,0.865-0.569l1.535,0.314c0.394,0.08,0.653,0.469,0.571,0.867
					l-0.312,1.53c-0.084,0.398-0.474,0.651-0.867,0.574l-1.532-0.316c-0.396-0.08-0.653-0.464-0.572-0.864L140.031,72.941z"/>
				<path fill="#E6E6E6" d="M136.409,72.208c0.079-0.396,0.465-0.656,0.864-0.576l1.529,0.318c0.399,0.077,0.656,0.465,0.574,0.86
					l-0.316,1.537c-0.079,0.392-0.464,0.649-0.862,0.565l-1.531-0.31c-0.401-0.084-0.653-0.471-0.572-0.867L136.409,72.208z"/>
				<path fill="#E6E6E6" d="M169.709,78.995c0.082-0.393,0.467-0.65,0.865-0.569l5.815,1.184c0.398,0.085,0.653,0.47,0.573,0.872
					l-0.313,1.533c-0.079,0.392-0.467,0.653-0.865,0.566l-5.816-1.186c-0.395-0.08-0.652-0.466-0.572-0.864L169.709,78.995z"/>
			</g>
			<g id="line2">
				<path fill="#E6E6E6" d="M171.836,75.312c0.079-0.392,0.469-0.649,0.866-0.569l1.531,0.312c0.394,0.08,0.653,0.469,0.573,0.867
					l-0.313,1.532c-0.084,0.394-0.467,0.652-0.867,0.572l-1.532-0.316c-0.396-0.077-0.656-0.464-0.572-0.864L171.836,75.312z"/>
				<path fill="#E6E6E6" d="M168.209,74.571c0.078-0.392,0.467-0.649,0.861-0.572l1.534,0.314c0.398,0.077,0.652,0.469,0.572,0.861
					l-0.313,1.536c-0.082,0.396-0.467,0.653-0.865,0.573l-1.533-0.315c-0.398-0.08-0.653-0.469-0.572-0.867L168.209,74.571z"/>
				<path fill="#E6E6E6" d="M164.78,73.872c0.078-0.396,0.47-0.653,0.865-0.569l1.53,0.314c0.398,0.081,0.656,0.466,0.572,0.86
					l-0.313,1.534c-0.081,0.395-0.471,0.654-0.862,0.572l-1.534-0.312c-0.396-0.084-0.652-0.471-0.572-0.867L164.78,73.872z"/>
				<path fill="#E6E6E6" d="M160.854,73.075c0.078-0.396,0.472-0.653,0.865-0.572l1.532,0.314c0.395,0.08,0.654,0.465,0.572,0.863
					l-0.314,1.534c-0.081,0.392-0.469,0.649-0.862,0.572l-1.535-0.318c-0.397-0.08-0.649-0.465-0.569-0.863L160.854,73.075z"/>
				<path fill="#E6E6E6" d="M157.328,72.352c0.079-0.392,0.466-0.652,0.864-0.569l1.535,0.315c0.394,0.08,0.651,0.465,0.569,0.863
					l-0.314,1.534c-0.082,0.392-0.464,0.652-0.862,0.568l-1.537-0.311c-0.396-0.081-0.651-0.469-0.571-0.864L157.328,72.352z"/>
				<path fill="#E6E6E6" d="M153.304,71.531c0.081-0.395,0.468-0.649,0.864-0.572l1.535,0.314c0.394,0.084,0.649,0.473,0.572,0.867
					l-0.316,1.532c-0.077,0.396-0.465,0.652-0.86,0.572l-1.535-0.313c-0.396-0.084-0.653-0.468-0.571-0.867L153.304,71.531z"/>
				<path fill="#E6E6E6" d="M149.741,70.805c0.084-0.392,0.469-0.652,0.864-0.569l1.537,0.312c0.395,0.081,0.652,0.469,0.572,0.867
					l-0.314,1.532c-0.077,0.394-0.469,0.656-0.864,0.572l-1.537-0.316c-0.392-0.077-0.649-0.464-0.57-0.863L149.741,70.805z"/>
				<path fill="#E6E6E6" d="M146.119,70.065c0.08-0.393,0.463-0.653,0.863-0.573l1.537,0.315c0.392,0.083,0.649,0.469,0.564,0.867
					l-0.311,1.529c-0.08,0.396-0.465,0.656-0.861,0.576l-1.535-0.314c-0.397-0.084-0.655-0.466-0.569-0.867L146.119,70.065z"/>
				<path fill="#E6E6E6" d="M142.158,69.257c0.083-0.394,0.472-0.653,0.867-0.569L144.559,69c0.395,0.081,0.651,0.468,0.57,0.864
					l-0.316,1.537c-0.076,0.395-0.467,0.649-0.863,0.568l-1.528-0.311c-0.4-0.084-0.656-0.469-0.576-0.867L142.158,69.257z"/>
				<path fill="#E6E6E6" d="M138.534,68.515c0.079-0.392,0.464-0.649,0.862-0.569l1.531,0.315c0.396,0.08,0.652,0.469,0.572,0.863
					l-0.313,1.532c-0.08,0.394-0.465,0.656-0.866,0.572l-1.527-0.31c-0.398-0.084-0.653-0.471-0.574-0.871L138.534,68.515z"/>
				<path fill="#E6E6E6" d="M134.574,67.711c0.08-0.395,0.469-0.656,0.864-0.572l1.534,0.314c0.396,0.077,0.649,0.466,0.571,0.86
					l-0.313,1.534c-0.081,0.395-0.466,0.652-0.863,0.572l-1.535-0.314c-0.397-0.081-0.653-0.469-0.571-0.864L134.574,67.711z"/>
				<path fill="#E6E6E6" d="M130.949,66.97c0.081-0.394,0.464-0.649,0.862-0.572l1.533,0.316c0.399,0.08,0.651,0.467,0.571,0.863
					l-0.313,1.53c-0.082,0.396-0.466,0.656-0.864,0.572l-1.536-0.312c-0.393-0.08-0.649-0.469-0.569-0.863L130.949,66.97z"/>
			</g>
			<g id="line3_2_">
				<path fill="#E6E6E6" d="M130.061,62.892c0.082-0.396,0.473-0.653,0.866-0.572l5.82,1.184c0.396,0.085,0.65,0.469,0.571,0.863
					l-0.313,1.535c-0.081,0.398-0.466,0.654-0.862,0.569l-5.818-1.187c-0.393-0.077-0.651-0.466-0.573-0.861L130.061,62.892z"/>
				<path fill="#E6E6E6" d="M167.588,70.546c0.08-0.394,0.469-0.65,0.867-0.569l1.531,0.316c0.394,0.08,0.653,0.467,0.574,0.86
					l-0.314,1.533c-0.08,0.396-0.466,0.656-0.867,0.572l-1.532-0.314c-0.396-0.08-0.652-0.465-0.57-0.863L167.588,70.546z"/>
				<path fill="#E6E6E6" d="M163.995,69.813c0.077-0.392,0.465-0.652,0.862-0.572l1.531,0.314c0.398,0.081,0.656,0.466,0.576,0.867
					l-0.313,1.532c-0.08,0.394-0.47,0.649-0.865,0.569l-1.537-0.313c-0.392-0.08-0.649-0.467-0.569-0.863L163.995,69.813z"/>
				<path fill="#E6E6E6" d="M160.363,69.074c0.082-0.396,0.471-0.653,0.869-0.573l1.533,0.315c0.393,0.08,0.653,0.469,0.571,0.863
					l-0.316,1.534c-0.079,0.395-0.464,0.652-0.86,0.568l-1.533-0.311c-0.396-0.081-0.653-0.469-0.571-0.867L160.363,69.074z"/>
				<path fill="#E6E6E6" d="M156.608,68.308c0.077-0.393,0.466-0.653,0.864-0.573l1.533,0.315c0.396,0.08,0.653,0.469,0.571,0.863
					l-0.31,1.532c-0.081,0.396-0.473,0.656-0.867,0.572l-1.535-0.313c-0.394-0.076-0.65-0.467-0.571-0.86L156.608,68.308z"/>
				<path fill="#E6E6E6" d="M152.949,67.561c0.08-0.396,0.465-0.653,0.863-0.572l1.534,0.314c0.395,0.08,0.651,0.469,0.572,0.864
					l-0.314,1.533c-0.084,0.395-0.468,0.652-0.867,0.569l-1.534-0.312c-0.395-0.08-0.652-0.469-0.57-0.867L152.949,67.561z"/>
				<path fill="#E6E6E6" d="M149.089,66.771c0.077-0.392,0.47-0.651,0.863-0.569l1.535,0.312c0.394,0.084,0.653,0.469,0.573,0.867
					l-0.313,1.533c-0.084,0.396-0.471,0.653-0.867,0.572l-1.533-0.317c-0.392-0.081-0.653-0.466-0.571-0.864L149.089,66.771z"/>
				<path fill="#E6E6E6" d="M145.429,66.027c0.079-0.396,0.469-0.653,0.867-0.573l1.534,0.315c0.395,0.08,0.652,0.465,0.568,0.863
					l-0.311,1.535c-0.082,0.394-0.464,0.653-0.864,0.569l-1.533-0.313c-0.394-0.081-0.653-0.471-0.573-0.864L145.429,66.027z"/>
				<path fill="#E6E6E6" d="M141.602,65.243c0.081-0.392,0.469-0.649,0.867-0.568l1.532,0.314c0.394,0.084,0.653,0.465,0.572,0.863
					l-0.313,1.535c-0.081,0.394-0.471,0.65-0.867,0.566l-1.532-0.31c-0.396-0.084-0.652-0.468-0.57-0.867L141.602,65.243z"/>
				<path fill="#E6E6E6" d="M137.978,64.504c0.082-0.392,0.468-0.653,0.866-0.569l1.531,0.312c0.397,0.083,0.655,0.469,0.571,0.867
					l-0.313,1.533c-0.08,0.396-0.466,0.653-0.866,0.569l-1.531-0.314c-0.399-0.081-0.652-0.469-0.573-0.864L137.978,64.504z"/>
				<path fill="#E6E6E6" d="M171.28,71.304c0.079-0.395,0.466-0.656,0.866-0.576l5.813,1.189c0.398,0.08,0.656,0.465,0.576,0.863
					l-0.314,1.533c-0.079,0.396-0.466,0.653-0.866,0.573l-5.813-1.186c-0.398-0.08-0.653-0.467-0.573-0.867L171.28,71.304z"/>
			</g>
			<g id="line4">
				<path fill="#E6E6E6" d="M173.216,67.698c0.082-0.398,0.472-0.655,0.865-0.573l1.532,0.315c0.398,0.08,0.654,0.469,0.572,0.867
					l-0.312,1.526c-0.08,0.398-0.467,0.656-0.865,0.572l-1.53-0.312c-0.398-0.08-0.654-0.469-0.574-0.863L173.216,67.698z"/>
				<path fill="#E6E6E6" d="M169.593,66.96c0.081-0.4,0.468-0.66,0.864-0.576l1.533,0.316c0.396,0.077,0.649,0.464,0.571,0.863
					l-0.313,1.534c-0.084,0.395-0.467,0.652-0.867,0.569l-1.531-0.312c-0.394-0.081-0.651-0.469-0.571-0.867L169.593,66.96z"/>
				<path fill="#E6E6E6" d="M165.995,66.222c0.082-0.396,0.474-0.653,0.867-0.569l1.532,0.312c0.398,0.083,0.659,0.465,0.576,0.87
					l-0.312,1.53c-0.082,0.392-0.468,0.651-0.867,0.572l-1.534-0.318c-0.393-0.08-0.656-0.465-0.572-0.863L165.995,66.222z"/>
				<path fill="#E6E6E6" d="M140.274,60.973c0.082-0.396,0.468-0.649,0.865-0.572l1.53,0.313c0.396,0.087,0.656,0.467,0.572,0.87
					l-0.311,1.526c-0.081,0.396-0.466,0.656-0.862,0.573l-1.531-0.312c-0.399-0.08-0.655-0.466-0.574-0.867L140.274,60.973z"/>
				<path fill="#E6E6E6" d="M136.319,60.168c0.081-0.396,0.466-0.653,0.864-0.569l1.531,0.308c0.396,0.087,0.653,0.469,0.571,0.871
					l-0.313,1.531c-0.08,0.394-0.464,0.649-0.862,0.569l-1.533-0.313c-0.398-0.084-0.651-0.468-0.571-0.867L136.319,60.168z"/>
				<path fill="#E6E6E6" d="M132.692,59.428c0.079-0.398,0.468-0.653,0.864-0.572l1.531,0.314c0.399,0.084,0.653,0.466,0.572,0.867
					l-0.312,1.53c-0.081,0.395-0.466,0.652-0.862,0.569l-1.534-0.312c-0.396-0.08-0.652-0.469-0.571-0.867L132.692,59.428z"/>
				<path fill="#E6E6E6" d="M143.994,61.929c0.096-0.457,0.518-0.84,0.914-0.76l19.746,4.031c0.396,0.08,0.537,0.586,0.445,1.038
					l-0.251,1.229c-0.097,0.459-0.401,0.783-0.799,0.7l-19.749-4.028c-0.392-0.084-0.649-0.527-0.56-0.981L143.994,61.929
					L143.994,61.929z"/>
			</g>
		</g>
	</g>
</g>
<g id="desktop_1_">
	<g id="monitor_1_">
		<path d="M269.199,89.866c0.061,0.385-0.204,0.743-0.586,0.801l-17.384,2.678c-0.382,0.064-0.738-0.197-0.799-0.586l-0.429-2.782
			c-0.055-0.385,0.206-0.743,0.588-0.8l17.381-2.679c0.381-0.061,0.739,0.204,0.797,0.586L269.199,89.866z"/>
		<path fill="#666666" d="M293.966,90.011c0.164,0.971-3.129,2.701-4.903,3.006l-56.282,9.623c-1.771,0.305-5.775-0.342-5.941-1.314
			l-0.594-3.516c-0.166-0.966,1.188-2.398,2.963-2.701l61.048-10.289c1.771-0.302,2.952,0.709,3.11,1.679L293.966,90.011z"/>
	</g>
	<g id="keyboard_1_">
		<path fill="#808080" d="M227.323,71.946c-0.228-1.349,0.167-3.301,1.111-3.462l53.642-9.04c0.958-0.164,2.193,1.51,2.421,2.863
			l2.065,12.237c0.229,1.356-0.596,2.189-1.54,2.351l-53.642,9.04c-0.952,0.161-1.765-0.398-1.992-1.749L227.323,71.946
			L227.323,71.946z"/>
		<path fill="#999999" d="M227.487,72.907c-0.211-1.259,0.043-3.088,0.996-3.246l53.787-9.07c0.951-0.162,2.18,1.415,2.394,2.678
			l1.919,11.427c0.216,1.258-0.616,2.038-1.563,2.198l-53.786,9.067c-0.959,0.162-1.606-0.368-1.823-1.622L227.487,72.907z"/>
		<g id="key_1_">
			<g id="line1_1_">
				<path fill="#E6E6E6" d="M233.12,82.212c-0.065-0.398,0.206-0.779,0.604-0.847l5.854-0.987c0.401-0.067,0.776,0.204,0.846,0.605
					l0.258,1.537c0.063,0.398-0.201,0.78-0.603,0.844l-5.856,0.987c-0.396,0.067-0.773-0.204-0.844-0.604L233.12,82.212z"/>
				<path fill="#E6E6E6" d="M270.953,75.829c-0.07-0.394,0.201-0.775,0.602-0.839l1.542-0.261c0.399-0.067,0.776,0.2,0.844,0.603
					l0.259,1.54c0.067,0.398-0.199,0.773-0.601,0.844l-1.542,0.26c-0.394,0.07-0.776-0.199-0.84-0.604L270.953,75.829z"/>
				<path fill="#E6E6E6" d="M267.301,76.45c-0.067-0.398,0.206-0.777,0.603-0.844l1.544-0.262c0.398-0.066,0.776,0.201,0.845,0.604
					l0.26,1.539c0.063,0.395-0.202,0.776-0.603,0.844l-1.542,0.261c-0.398,0.067-0.778-0.204-0.846-0.603L267.301,76.45z"/>
				<path fill="#E6E6E6" d="M263.652,77.066c-0.064-0.398,0.199-0.78,0.598-0.848l1.546-0.258c0.398-0.066,0.778,0.201,0.849,0.603
					l0.254,1.541c0.067,0.395-0.199,0.773-0.603,0.844l-1.54,0.261c-0.398,0.067-0.775-0.204-0.844-0.604L263.652,77.066z"/>
				<path fill="#E6E6E6" d="M259.674,77.735c-0.067-0.395,0.197-0.776,0.601-0.847l1.538-0.255c0.398-0.07,0.78,0.198,0.848,0.598
					l0.26,1.542c0.07,0.398-0.205,0.777-0.604,0.844l-1.542,0.258c-0.396,0.07-0.773-0.2-0.842-0.599L259.674,77.735z"/>
				<path fill="#E6E6E6" d="M256.091,78.342c-0.07-0.398,0.197-0.78,0.596-0.847l1.544-0.262c0.398-0.066,0.78,0.204,0.846,0.606
					l0.259,1.54c0.067,0.398-0.2,0.776-0.599,0.84l-1.547,0.262c-0.398,0.062-0.772-0.204-0.843-0.604L256.091,78.342z"/>
				<path fill="#E6E6E6" d="M252.304,78.977c-0.07-0.397,0.199-0.775,0.602-0.843l1.542-0.258c0.396-0.07,0.776,0.201,0.84,0.6
					l0.263,1.54c0.069,0.398-0.2,0.777-0.604,0.844l-1.538,0.26c-0.401,0.063-0.778-0.202-0.844-0.6L252.304,78.977z"/>
				<path fill="#E6E6E6" d="M248.617,79.601c-0.064-0.395,0.205-0.776,0.606-0.847l1.542-0.262c0.396-0.063,0.775,0.208,0.842,0.604
					l0.258,1.539c0.067,0.401-0.197,0.779-0.601,0.847l-1.542,0.258c-0.396,0.067-0.777-0.204-0.841-0.6L248.617,79.601z"/>
				<path fill="#E6E6E6" d="M244.737,80.249c-0.067-0.394,0.2-0.777,0.603-0.844l1.54-0.257c0.396-0.066,0.78,0.204,0.844,0.603
					l0.26,1.541c0.07,0.396-0.206,0.776-0.602,0.847l-1.538,0.256c-0.4,0.067-0.78-0.199-0.848-0.601L244.737,80.249z"/>
				<path fill="#E6E6E6" d="M241.091,80.866c-0.07-0.395,0.197-0.773,0.601-0.844l1.539-0.254c0.4-0.07,0.778,0.193,0.846,0.596
					l0.256,1.547c0.066,0.392-0.199,0.773-0.6,0.837l-1.537,0.261c-0.404,0.07-0.779-0.2-0.847-0.599L241.091,80.866z"/>
				<path fill="#E6E6E6" d="M274.604,75.215c-0.067-0.396,0.197-0.777,0.601-0.844l5.853-0.984c0.403-0.067,0.782,0.2,0.849,0.603
					l0.258,1.54c0.067,0.396-0.2,0.776-0.604,0.841l-5.853,0.987c-0.396,0.067-0.778-0.197-0.845-0.601L274.604,75.215z"/>
			</g>
			<g id="line2_1_">
				<path fill="#E6E6E6" d="M275.26,71.009c-0.067-0.392,0.2-0.773,0.601-0.84l1.542-0.265c0.394-0.063,0.776,0.208,0.847,0.606
					l0.257,1.536c0.063,0.398-0.203,0.777-0.608,0.848l-1.538,0.258c-0.394,0.066-0.777-0.201-0.842-0.6L275.26,71.009z"/>
				<path fill="#E6E6E6" d="M271.609,71.629c-0.07-0.396,0.201-0.777,0.6-0.844l1.54-0.262c0.397-0.07,0.777,0.204,0.844,0.6
					l0.26,1.54c0.067,0.402-0.202,0.78-0.604,0.844l-1.54,0.265c-0.398,0.067-0.778-0.204-0.844-0.604L271.609,71.629z"/>
				<path fill="#E6E6E6" d="M268.158,72.208c-0.067-0.396,0.202-0.777,0.603-0.844l1.54-0.255c0.4-0.07,0.78,0.198,0.846,0.597
					l0.256,1.54c0.066,0.398-0.199,0.776-0.6,0.847l-1.54,0.262c-0.398,0.063-0.78-0.208-0.846-0.608L268.158,72.208z"/>
				<path fill="#E6E6E6" d="M264.209,72.881c-0.069-0.398,0.207-0.78,0.601-0.847l1.542-0.258c0.396-0.067,0.778,0.2,0.846,0.601
					l0.258,1.538c0.066,0.398-0.201,0.777-0.6,0.848l-1.547,0.258c-0.396,0.066-0.771-0.204-0.841-0.606L264.209,72.881z"/>
				<path fill="#E6E6E6" d="M260.658,73.472c-0.067-0.394,0.202-0.775,0.603-0.842l1.543-0.258c0.397-0.07,0.777,0.201,0.844,0.6
					l0.258,1.543c0.067,0.396-0.199,0.773-0.599,0.841l-1.547,0.259c-0.396,0.07-0.773-0.202-0.841-0.599L260.658,73.472z"/>
				<path fill="#E6E6E6" d="M256.609,74.16c-0.07-0.402,0.201-0.777,0.598-0.848l1.546-0.258c0.395-0.066,0.773,0.204,0.847,0.604
					l0.255,1.539c0.068,0.395-0.204,0.776-0.603,0.84L257.71,76.3c-0.397,0.063-0.777-0.201-0.844-0.604L256.609,74.16z"/>
				<path fill="#E6E6E6" d="M253.023,74.761c-0.063-0.396,0.205-0.775,0.604-0.846l1.542-0.258c0.398-0.066,0.777,0.201,0.848,0.604
					l0.254,1.54c0.074,0.395-0.197,0.78-0.6,0.847l-1.543,0.253c-0.396,0.07-0.775-0.199-0.842-0.6L253.023,74.761z"/>
				<path fill="#E6E6E6" d="M249.378,75.375c-0.067-0.392,0.197-0.776,0.604-0.844l1.541-0.261c0.396-0.063,0.777,0.204,0.841,0.604
					l0.26,1.538c0.066,0.398-0.199,0.777-0.598,0.848l-1.546,0.261c-0.398,0.063-0.776-0.204-0.842-0.606L249.378,75.375z"/>
				<path fill="#E6E6E6" d="M245.394,76.052c-0.067-0.402,0.2-0.78,0.599-0.848l1.544-0.258c0.396-0.066,0.776,0.201,0.844,0.6
					l0.258,1.544c0.07,0.398-0.204,0.773-0.603,0.844l-1.537,0.256c-0.401,0.07-0.781-0.199-0.849-0.6L245.394,76.052z"/>
				<path fill="#E6E6E6" d="M241.744,76.661c-0.07-0.396,0.2-0.773,0.603-0.844l1.536-0.258c0.4-0.067,0.777,0.201,0.848,0.601
					l0.256,1.542c0.068,0.396-0.197,0.777-0.601,0.844l-1.537,0.262c-0.398,0.066-0.778-0.205-0.847-0.606L241.744,76.661z"/>
				<path fill="#E6E6E6" d="M237.76,77.332c-0.067-0.394,0.204-0.774,0.599-0.842l1.544-0.258c0.398-0.07,0.776,0.201,0.844,0.6
					l0.256,1.54c0.068,0.398-0.195,0.776-0.598,0.844l-1.545,0.26c-0.394,0.066-0.777-0.203-0.839-0.6L237.76,77.332z"/>
				<path fill="#E6E6E6" d="M234.109,77.953c-0.066-0.398,0.201-0.776,0.6-0.847l1.54-0.255c0.4-0.07,0.78,0.198,0.848,0.598
					l0.258,1.539c0.065,0.398-0.201,0.78-0.606,0.844l-1.538,0.265c-0.394,0.066-0.777-0.208-0.843-0.606L234.109,77.953z"/>
			</g>
			<g id="line3_1_">
				<path fill="#E6E6E6" d="M231.813,74.463c-0.066-0.396,0.208-0.78,0.606-0.844l5.857-0.986c0.397-0.07,0.773,0.204,0.839,0.6
					l0.258,1.54c0.07,0.4-0.197,0.78-0.598,0.842l-5.855,0.988c-0.394,0.066-0.777-0.204-0.846-0.602L231.813,74.463z"/>
				<path fill="#E6E6E6" d="M269.581,68.097c-0.067-0.396,0.202-0.777,0.603-0.844l1.54-0.255c0.396-0.07,0.778,0.197,0.846,0.598
					l0.259,1.538c0.067,0.398-0.199,0.78-0.605,0.844l-1.54,0.262c-0.396,0.066-0.777-0.204-0.843-0.606L269.581,68.097z"/>
				<path fill="#E6E6E6" d="M265.965,68.706c-0.07-0.396,0.197-0.777,0.598-0.844l1.542-0.258c0.398-0.067,0.78,0.2,0.847,0.603
					l0.256,1.536c0.067,0.398-0.204,0.777-0.604,0.844l-1.544,0.258c-0.392,0.067-0.773-0.2-0.841-0.601L265.965,68.706z"/>
				<path fill="#E6E6E6" d="M262.312,69.323c-0.066-0.4,0.204-0.78,0.604-0.847l1.542-0.26c0.396-0.067,0.776,0.204,0.841,0.603
					l0.261,1.54c0.068,0.397-0.202,0.777-0.603,0.844l-1.539,0.26c-0.396,0.067-0.779-0.204-0.845-0.604L262.312,69.323z"/>
				<path fill="#E6E6E6" d="M258.531,69.958c-0.066-0.392,0.205-0.777,0.602-0.844l1.542-0.258c0.396-0.067,0.78,0.201,0.844,0.601
					l0.261,1.539c0.067,0.398-0.204,0.78-0.605,0.844l-1.539,0.261c-0.396,0.07-0.775-0.204-0.844-0.6L258.531,69.958z"/>
				<path fill="#E6E6E6" d="M254.849,70.577c-0.068-0.395,0.197-0.773,0.6-0.84l1.54-0.262c0.398-0.066,0.778,0.201,0.847,0.6
					l0.258,1.54c0.067,0.401-0.2,0.78-0.605,0.844l-1.537,0.261c-0.398,0.067-0.78-0.2-0.847-0.604L254.849,70.577z"/>
				<path fill="#E6E6E6" d="M250.958,71.233c-0.067-0.395,0.208-0.773,0.607-0.844l1.539-0.261c0.398-0.063,0.78,0.204,0.847,0.607
					l0.26,1.535c0.065,0.398-0.204,0.776-0.604,0.847l-1.54,0.255c-0.398,0.07-0.778-0.197-0.846-0.6L250.958,71.233z"/>
				<path fill="#E6E6E6" d="M247.281,71.853c-0.068-0.395,0.201-0.776,0.604-0.844l1.543-0.258c0.396-0.066,0.775,0.201,0.841,0.604
					l0.258,1.54c0.07,0.395-0.201,0.776-0.602,0.844l-1.542,0.258c-0.395,0.066-0.779-0.204-0.844-0.602L247.281,71.853z"/>
				<path fill="#E6E6E6" d="M243.43,72.503c-0.07-0.396,0.202-0.773,0.604-0.841l1.538-0.261c0.396-0.064,0.777,0.2,0.846,0.603
					l0.258,1.54c0.07,0.395-0.204,0.776-0.604,0.84l-1.538,0.262c-0.398,0.066-0.78-0.201-0.844-0.604L243.43,72.503z"/>
				<path fill="#E6E6E6" d="M239.78,73.12c-0.065-0.4,0.2-0.775,0.604-0.842l1.536-0.262c0.402-0.066,0.78,0.201,0.848,0.6
					l0.261,1.544c0.063,0.398-0.201,0.776-0.607,0.84l-1.535,0.26c-0.403,0.067-0.78-0.202-0.848-0.603L239.78,73.12z"/>
				<path fill="#E6E6E6" d="M273.301,67.469c-0.07-0.394,0.195-0.775,0.6-0.846l5.853-0.984c0.398-0.07,0.78,0.197,0.847,0.603
					l0.258,1.537c0.068,0.4-0.197,0.78-0.603,0.847l-5.848,0.986c-0.401,0.067-0.778-0.202-0.847-0.604L273.301,67.469z"/>
			</g>
			<g id="line4_1_">
				<path fill="#E6E6E6" d="M273.81,63.412c-0.07-0.405,0.202-0.78,0.601-0.847l1.539-0.258c0.398-0.07,0.78,0.2,0.844,0.603
					l0.263,1.536c0.068,0.398-0.204,0.777-0.604,0.844l-1.538,0.262c-0.4,0.065-0.78-0.201-0.846-0.602L273.81,63.412z"/>
				<path fill="#E6E6E6" d="M270.16,64.028c-0.07-0.402,0.197-0.783,0.6-0.851l1.54-0.255c0.398-0.07,0.774,0.198,0.845,0.604
					l0.26,1.535c0.063,0.398-0.201,0.78-0.603,0.844l-1.54,0.262c-0.396,0.066-0.775-0.201-0.844-0.603L270.16,64.028z"/>
				<path fill="#E6E6E6" d="M266.541,64.634c-0.067-0.398,0.204-0.779,0.603-0.844l1.54-0.259c0.396-0.067,0.78,0.197,0.847,0.604
					l0.258,1.535c0.067,0.396-0.2,0.776-0.605,0.844l-1.54,0.259c-0.393,0.067-0.78-0.2-0.846-0.599L266.541,64.634z"/>
				<path fill="#E6E6E6" d="M240.65,68.997c-0.065-0.398,0.203-0.777,0.604-0.844l1.54-0.262c0.398-0.063,0.78,0.201,0.849,0.606
					l0.257,1.537c0.066,0.395-0.198,0.776-0.602,0.844l-1.538,0.258c-0.4,0.07-0.778-0.201-0.848-0.602L240.65,68.997z"/>
				<path fill="#E6E6E6" d="M236.675,69.67c-0.07-0.398,0.197-0.776,0.601-0.844l1.539-0.258c0.396-0.067,0.776,0.197,0.844,0.604
					l0.258,1.535c0.066,0.398-0.201,0.776-0.604,0.84l-1.536,0.265c-0.398,0.067-0.778-0.204-0.846-0.605L236.675,69.67z"/>
				<path fill="#E6E6E6" d="M233.021,70.286c-0.07-0.402,0.203-0.78,0.604-0.848l1.538-0.258c0.402-0.066,0.777,0.205,0.846,0.606
					l0.26,1.537c0.066,0.398-0.201,0.776-0.6,0.84l-1.543,0.262c-0.396,0.066-0.775-0.201-0.844-0.604L233.021,70.286z"/>
				<path fill="#E6E6E6" d="M244.469,68.552c-0.08-0.461,0.176-0.971,0.576-1.041l19.875-3.349c0.396-0.067,0.71,0.354,0.787,0.811
					l0.209,1.238c0.075,0.461-0.096,0.879-0.494,0.941l-19.875,3.352c-0.396,0.066-0.793-0.253-0.873-0.714L244.469,68.552
					L244.469,68.552z"/>
			</g>
		</g>
	</g>
</g>
<g id="desktop_2_">
	<g id="monitor_2_">
		<path d="M351.022,37.359c0.298,0.249,0.334,0.69,0.083,0.985l-11.3,13.476c-0.244,0.298-0.684,0.333-0.988,0.087l-2.156-1.815
			c-0.294-0.249-0.331-0.692-0.087-0.987l11.301-13.469c0.251-0.296,0.692-0.335,0.987-0.083L351.022,37.359z"/>
		<path fill="#666666" d="M369.738,21.14c0.764,0.619-0.569,4.092-1.707,5.491l-35.967,44.343c-1.135,1.396-4.57,3.55-5.334,2.93
			l-2.762-2.251c-0.761-0.621-0.687-2.592,0.448-3.986l39.11-47.985c1.136-1.397,2.688-1.416,3.452-0.793L369.738,21.14z"/>
	</g>
	<g id="keyboard_2_">
		<path fill="#808080" d="M307.722,51.496c-1.06-0.864-2.051-2.594-1.442-3.335l34.366-42.167c0.609-0.75,2.646-0.311,3.71,0.56
			l9.62,7.837c1.067,0.871,0.997,2.039,0.392,2.786l-34.37,42.164c-0.609,0.75-1.594,0.867-2.651,0L307.722,51.496L307.722,51.496z"
			/>
		<path fill="#999999" d="M308.479,52.11c-0.989-0.811-2.004-2.351-1.391-3.098L341.55,6.73c0.606-0.748,2.568-0.375,3.56,0.434
			l8.979,7.324c0.991,0.805,0.877,1.94,0.268,2.686l-34.463,42.28c-0.609,0.751-1.446,0.783-2.44-0.025L308.479,52.11z"/>
		<g id="key_2_">
			<g id="line1_3_">
				<path fill="#E6E6E6" d="M318.849,55.392c-0.311-0.256-0.357-0.72-0.104-1.033l3.75-4.607c0.258-0.317,0.717-0.357,1.035-0.106
					l1.208,0.987c0.312,0.256,0.362,0.72,0.107,1.031l-3.75,4.607c-0.251,0.312-0.717,0.358-1.031,0.108L318.849,55.392z"/>
				<path fill="#E6E6E6" d="M343.087,25.65c-0.314-0.252-0.361-0.716-0.107-1.026l0.988-1.216c0.258-0.313,0.723-0.359,1.034-0.104
					l1.212,0.987c0.314,0.257,0.361,0.715,0.107,1.032l-0.988,1.215c-0.251,0.313-0.716,0.358-1.027,0.102L343.087,25.65z"/>
				<path fill="#E6E6E6" d="M340.746,28.523c-0.314-0.255-0.358-0.72-0.106-1.032l0.987-1.214c0.255-0.314,0.72-0.362,1.034-0.108
					l1.213,0.986c0.311,0.255,0.361,0.718,0.106,1.035l-0.987,1.212c-0.255,0.313-0.72,0.36-1.035,0.105L340.746,28.523z"/>
				<path fill="#E6E6E6" d="M338.413,31.392c-0.318-0.257-0.365-0.717-0.111-1.032l0.991-1.212c0.251-0.316,0.717-0.36,1.035-0.108
					l1.208,0.991c0.315,0.252,0.362,0.715,0.107,1.03l-0.991,1.214c-0.251,0.315-0.713,0.358-1.027,0.104L338.413,31.392z"/>
				<path fill="#E6E6E6" d="M335.858,34.521c-0.309-0.255-0.362-0.715-0.107-1.032l0.987-1.212c0.255-0.314,0.72-0.362,1.035-0.108
					l1.212,0.988c0.314,0.255,0.358,0.718,0.104,1.031l-0.991,1.212c-0.251,0.315-0.713,0.36-1.027,0.106L335.858,34.521z"/>
				<path fill="#E6E6E6" d="M333.564,37.337c-0.318-0.256-0.361-0.717-0.11-1.032l0.991-1.213c0.254-0.314,0.72-0.36,1.038-0.105
					l1.208,0.987c0.315,0.256,0.362,0.716,0.104,1.028l-0.988,1.215c-0.254,0.314-0.713,0.358-1.031,0.104L333.564,37.337z"/>
				<path fill="#E6E6E6" d="M331.137,40.316c-0.314-0.255-0.361-0.717-0.106-1.035l0.99-1.212c0.252-0.314,0.717-0.358,1.028-0.105
					l1.216,0.986c0.314,0.254,0.361,0.72,0.104,1.034l-0.984,1.216c-0.258,0.312-0.724,0.358-1.031,0.105L331.137,40.316z"/>
				<path fill="#E6E6E6" d="M328.78,43.209c-0.315-0.251-0.358-0.717-0.107-1.034l0.987-1.213c0.255-0.311,0.72-0.354,1.031-0.104
					l1.212,0.988c0.315,0.256,0.365,0.716,0.107,1.034l-0.987,1.212c-0.251,0.312-0.72,0.358-1.028,0.107L328.78,43.209z"/>
				<path fill="#E6E6E6" d="M326.285,46.258c-0.312-0.253-0.358-0.717-0.104-1.028l0.991-1.215c0.251-0.313,0.72-0.358,1.031-0.105
					l1.212,0.987c0.318,0.251,0.358,0.72,0.107,1.034l-0.988,1.209c-0.251,0.316-0.72,0.365-1.034,0.109L326.285,46.258z"/>
				<path fill="#E6E6E6" d="M323.955,49.129c-0.314-0.251-0.365-0.717-0.107-1.033l0.991-1.212c0.251-0.316,0.717-0.361,1.031-0.109
					l1.212,0.995c0.312,0.251,0.358,0.713,0.101,1.029l-0.978,1.21c-0.261,0.316-0.724,0.358-1.034,0.105L323.955,49.129z"/>
				<path fill="#E6E6E6" d="M345.424,22.781c-0.312-0.255-0.361-0.717-0.107-1.032l3.75-4.601c0.258-0.316,0.724-0.363,1.035-0.106
					l1.208,0.989c0.318,0.254,0.362,0.715,0.107,1.03l-3.75,4.602c-0.251,0.313-0.713,0.363-1.027,0.108L345.424,22.781z"/>
			</g>
			<g id="line2_2_">
				<path fill="#E6E6E6" d="M343.147,19.187c-0.312-0.253-0.362-0.718-0.107-1.031l0.987-1.213c0.251-0.313,0.717-0.358,1.035-0.105
					l1.208,0.985c0.312,0.257,0.358,0.718,0.107,1.036l-0.991,1.212c-0.247,0.314-0.716,0.36-1.027,0.104L343.147,19.187z"/>
				<path fill="#E6E6E6" d="M340.81,22.056c-0.314-0.252-0.361-0.715-0.106-1.029l0.987-1.213c0.251-0.316,0.72-0.357,1.028-0.106
					l1.212,0.988c0.318,0.257,0.361,0.718,0.107,1.032l-0.984,1.216c-0.258,0.314-0.721,0.36-1.035,0.102L340.81,22.056z"/>
				<path fill="#E6E6E6" d="M338.597,24.771c-0.314-0.253-0.361-0.718-0.104-1.032l0.987-1.21c0.251-0.317,0.717-0.363,1.028-0.11
					l1.212,0.991c0.314,0.255,0.361,0.716,0.107,1.032l-0.984,1.213c-0.255,0.312-0.724,0.36-1.038,0.102L338.597,24.771z"/>
				<path fill="#E6E6E6" d="M336.069,27.877c-0.318-0.253-0.358-0.722-0.107-1.032l0.987-1.21c0.251-0.313,0.72-0.361,1.035-0.108
					l1.208,0.988c0.312,0.255,0.362,0.718,0.107,1.031l-0.991,1.214c-0.254,0.314-0.716,0.356-1.031,0.103L336.069,27.877z"/>
				<path fill="#E6E6E6" d="M333.792,30.667c-0.312-0.252-0.361-0.718-0.107-1.032l0.991-1.213c0.251-0.314,0.717-0.36,1.031-0.105
					l1.209,0.99c0.314,0.253,0.365,0.715,0.107,1.029l-0.991,1.214c-0.248,0.315-0.717,0.361-1.028,0.104L333.792,30.667z"/>
				<path fill="#E6E6E6" d="M331.197,33.85c-0.314-0.253-0.358-0.715-0.107-1.03l0.988-1.214c0.254-0.313,0.716-0.356,1.034-0.106
					l1.209,0.988c0.318,0.253,0.361,0.718,0.107,1.03l-0.988,1.214c-0.254,0.311-0.72,0.358-1.031,0.104L331.197,33.85z"/>
				<path fill="#E6E6E6" d="M328.9,36.667c-0.312-0.255-0.358-0.718-0.107-1.032l0.988-1.213c0.251-0.316,0.716-0.36,1.034-0.108
					l1.209,0.991c0.318,0.252,0.365,0.718,0.107,1.031l-0.995,1.212c-0.251,0.315-0.713,0.362-1.031,0.104L328.9,36.667z"/>
				<path fill="#E6E6E6" d="M326.563,39.531c-0.312-0.25-0.361-0.713-0.107-1.033l0.991-1.215c0.251-0.309,0.717-0.356,1.031-0.101
					l1.209,0.986c0.314,0.256,0.364,0.72,0.106,1.033l-0.987,1.216c-0.258,0.314-0.72,0.361-1.034,0.104L326.563,39.531z"/>
				<path fill="#E6E6E6" d="M324.012,42.67c-0.312-0.258-0.358-0.72-0.106-1.034l0.99-1.213c0.252-0.313,0.717-0.357,1.031-0.105
					l1.213,0.988c0.314,0.253,0.357,0.717,0.104,1.033l-0.984,1.207c-0.255,0.322-0.72,0.366-1.035,0.11L324.012,42.67z"/>
				<path fill="#E6E6E6" d="M321.672,45.531c-0.312-0.253-0.358-0.714-0.104-1.033l0.988-1.212c0.254-0.314,0.717-0.358,1.031-0.107
					l1.212,0.991c0.312,0.251,0.361,0.713,0.107,1.034l-0.984,1.209c-0.255,0.316-0.72,0.361-1.038,0.105L321.672,45.531z"/>
				<path fill="#E6E6E6" d="M319.124,48.667c-0.318-0.252-0.365-0.721-0.111-1.031l0.988-1.216c0.254-0.316,0.72-0.358,1.031-0.105
					l1.212,0.991c0.318,0.253,0.361,0.717,0.11,1.027l-0.991,1.216c-0.251,0.313-0.72,0.36-1.027,0.108L319.124,48.667z"/>
				<path fill="#E6E6E6" d="M316.786,51.534c-0.314-0.253-0.364-0.717-0.11-1.033l0.991-1.208c0.258-0.318,0.717-0.362,1.031-0.109
					l1.212,0.988c0.315,0.256,0.365,0.72,0.107,1.032l-0.984,1.216c-0.255,0.312-0.72,0.358-1.034,0.104L316.786,51.534z"/>
			</g>
			<g id="line3_3_">
				<path fill="#E6E6E6" d="M312.755,50.428c-0.311-0.255-0.357-0.72-0.104-1.033l3.75-4.605c0.255-0.314,0.72-0.358,1.031-0.106
					l1.212,0.99c0.315,0.255,0.365,0.714,0.104,1.031l-3.75,4.603c-0.252,0.312-0.717,0.358-1.031,0.108L312.755,50.428z"/>
				<path fill="#E6E6E6" d="M336.953,20.739c-0.312-0.252-0.358-0.717-0.101-1.031l0.987-1.21c0.251-0.313,0.717-0.363,1.028-0.108
					l1.212,0.986c0.314,0.258,0.365,0.718,0.104,1.034l-0.984,1.214c-0.251,0.31-0.72,0.36-1.034,0.103L336.953,20.739z"/>
				<path fill="#E6E6E6" d="M334.636,23.581c-0.314-0.25-0.361-0.715-0.107-1.028l0.988-1.213c0.254-0.314,0.72-0.363,1.034-0.106
					l1.209,0.987c0.314,0.255,0.361,0.718,0.104,1.032l-0.987,1.214c-0.251,0.311-0.717,0.356-1.028,0.104L334.636,23.581z"/>
				<path fill="#E6E6E6" d="M332.299,26.455c-0.314-0.255-0.361-0.72-0.107-1.034l0.988-1.214c0.254-0.311,0.72-0.36,1.031-0.104
					l1.212,0.991c0.314,0.255,0.361,0.717,0.104,1.031l-0.984,1.211c-0.251,0.314-0.723,0.361-1.034,0.104L332.299,26.455z"/>
				<path fill="#E6E6E6" d="M329.871,29.423c-0.308-0.25-0.358-0.715-0.104-1.029l0.987-1.213c0.255-0.312,0.721-0.36,1.031-0.105
					l1.216,0.984c0.312,0.257,0.358,0.724,0.101,1.034l-0.984,1.213c-0.251,0.314-0.72,0.357-1.028,0.106L329.871,29.423z"/>
				<path fill="#E6E6E6" d="M327.515,32.319c-0.315-0.252-0.358-0.715-0.104-1.029l0.984-1.212c0.251-0.313,0.717-0.36,1.031-0.108
					l1.212,0.989c0.315,0.259,0.362,0.716,0.104,1.032l-0.988,1.213c-0.251,0.314-0.72,0.36-1.031,0.105L327.515,32.319z"/>
				<path fill="#E6E6E6" d="M325.023,35.376c-0.312-0.254-0.355-0.718-0.104-1.034l0.988-1.213c0.254-0.314,0.72-0.36,1.034-0.105
					l1.209,0.985c0.314,0.258,0.358,0.721,0.107,1.036l-0.988,1.21c-0.254,0.315-0.716,0.361-1.034,0.106L325.023,35.376z"/>
				<path fill="#E6E6E6" d="M322.666,38.267c-0.314-0.251-0.361-0.717-0.104-1.031l0.991-1.215c0.251-0.311,0.716-0.358,1.027-0.102
					l1.212,0.987c0.312,0.254,0.362,0.718,0.104,1.03l-0.984,1.212c-0.255,0.314-0.721,0.361-1.035,0.109L322.666,38.267z"/>
				<path fill="#E6E6E6" d="M320.198,41.297c-0.314-0.251-0.361-0.72-0.104-1.031l0.984-1.212c0.254-0.313,0.717-0.363,1.034-0.105
					l1.212,0.982c0.315,0.255,0.355,0.726,0.104,1.033l-0.988,1.212c-0.258,0.316-0.72,0.362-1.031,0.105L320.198,41.297z"/>
				<path fill="#E6E6E6" d="M317.861,44.167c-0.312-0.255-0.361-0.714-0.107-1.031l0.988-1.213c0.254-0.316,0.72-0.361,1.034-0.106
					l1.212,0.987c0.315,0.258,0.362,0.717,0.101,1.031l-0.987,1.212c-0.251,0.318-0.717,0.358-1.031,0.109L317.861,44.167z"/>
				<path fill="#E6E6E6" d="M339.337,17.816c-0.314-0.252-0.365-0.713-0.11-1.032l3.753-4.6c0.251-0.315,0.717-0.363,1.031-0.108
					l1.212,0.986c0.315,0.255,0.365,0.718,0.104,1.034l-3.747,4.6c-0.255,0.315-0.72,0.36-1.034,0.106L339.337,17.816z"/>
			</g>
			<g id="line4_2_">
				<path fill="#E6E6E6" d="M337.043,14.43c-0.321-0.257-0.361-0.72-0.106-1.032l0.984-1.212c0.254-0.316,0.72-0.362,1.031-0.106
					l1.212,0.984c0.317,0.255,0.361,0.718,0.11,1.034l-0.988,1.212c-0.254,0.314-0.72,0.363-1.034,0.108L337.043,14.43z"/>
				<path fill="#E6E6E6" d="M334.706,17.299c-0.321-0.256-0.365-0.719-0.11-1.034l0.987-1.209c0.255-0.317,0.717-0.36,1.038-0.106
					l1.206,0.987c0.317,0.258,0.361,0.716,0.106,1.034l-0.984,1.212c-0.251,0.314-0.716,0.358-1.031,0.104L334.706,17.299z"/>
				<path fill="#E6E6E6" d="M332.386,20.141c-0.312-0.257-0.361-0.72-0.104-1.032l0.987-1.212c0.255-0.315,0.717-0.363,1.035-0.106
					l1.208,0.986c0.312,0.255,0.362,0.718,0.104,1.034l-0.988,1.213c-0.251,0.31-0.72,0.363-1.031,0.108L332.386,20.141z"/>
				<path fill="#E6E6E6" d="M315.796,40.493c-0.312-0.258-0.358-0.716-0.101-1.036l0.984-1.212c0.254-0.313,0.716-0.361,1.034-0.105
					l1.209,0.988c0.314,0.254,0.361,0.713,0.107,1.029l-0.988,1.21c-0.251,0.316-0.717,0.363-1.034,0.107L315.796,40.493z"/>
				<path fill="#E6E6E6" d="M313.247,43.619c-0.314-0.256-0.361-0.713-0.106-1.031l0.987-1.212c0.251-0.313,0.713-0.361,1.035-0.105
					l1.208,0.984c0.315,0.258,0.362,0.717,0.107,1.031l-0.984,1.212c-0.258,0.316-0.72,0.361-1.038,0.105L313.247,43.619z"/>
				<path fill="#E6E6E6" d="M310.911,46.493c-0.318-0.258-0.361-0.72-0.107-1.032l0.986-1.212c0.26-0.316,0.718-0.362,1.035-0.109
					l1.209,0.988c0.314,0.254,0.361,0.716,0.107,1.029l-0.991,1.215c-0.251,0.315-0.713,0.358-1.028,0.104L310.911,46.493z"/>
				<path fill="#E6E6E6" d="M318.374,37.638c-0.362-0.294-0.51-0.848-0.248-1.164l12.729-15.622
					c0.255-0.314,0.771-0.203,1.129,0.091l0.968,0.79c0.361,0.296,0.509,0.722,0.251,1.036l-12.737,15.62
					c-0.251,0.313-0.763,0.333-1.125,0.039L318.374,37.638L318.374,37.638z"/>
			</g>
		</g>
	</g>
</g>
<g id="note" display="none">
	<path display="inline" fill="#CFAD49" d="M289.529,2.674c-0.68-1.063-0.251-1.574,0.834-2.275l13.798-8.879
		c1.092-0.703,2.571-1.421,3.253-0.356l13.002,20.197c0.68,1.065-0.201,2.712-1.289,3.415l-13.801,8.876
		c-1.088,0.703-2.112,0.284-2.802-0.778L289.529,2.674z"/>
	<polygon display="inline" fill="#FFFFFF" points="291.676,2.08 291.676,2.08 305.989,-7.128 305.989,-7.128 317.503,10.758 
		317.503,10.758 303.19,19.969 303.19,19.969 	"/>
	<path display="inline" fill="#333333" d="M303.314,22.421c-0.771-0.255-0.973-1.899-0.292-2.341l15.05-9.686
		c0.68-0.438,1.737,0.597,1.737,1.412c-0.003,0.701-4.229,4.311-4.229,4.311c-0.11,1.042-0.251,3.577-0.834,4.14
		c-0.378,0.368-1.088,0.887-1.637,1.073c-0.771,0.259-3.249-0.665-4.123-0.974C308.982,20.353,303.873,22.607,303.314,22.421z"/>
	
		<line display="inline" fill="none" stroke="#4B4B4B" stroke-linecap="round" stroke-miterlimit="10" x1="312.195" y1="10.38" x2="305.038" y2="14.988"/>
	
		<line display="inline" fill="none" stroke="#4B4B4B" stroke-linecap="round" stroke-miterlimit="10" x1="308.745" y1="5.013" x2="301.59" y2="9.618"/>
	
		<line display="inline" fill="none" stroke="#4B4B4B" stroke-linecap="round" stroke-miterlimit="10" x1="305.288" y1="-0.354" x2="298.136" y2="4.249"/>
</g>
<g id="pencil" display="none">
	<polygon display="inline" fill="#F4ECBD" points="295.367,19.503 294.929,17.219 293.72,17.901 	"/>
	<polygon display="inline" points="295.337,19.481 295.22,18.871 294.894,19.052 	"/>
	<path display="inline" fill="#998D74" d="M289.034,8.739l0.863-0.489l5.038,8.958c0,0-0.042,0.192-0.084,0.218
		c-0.045,0.027-0.249-0.035-0.249-0.035s-0.151,0.254-0.191,0.281c-0.045,0.028-0.338,0.021-0.338,0.021L289.034,8.739
		L289.034,8.739z"/>
	<path display="inline" fill="#5E5951" d="M288.711,8.924l0.323-0.183l5.035,8.958c0,0,0.077,0.123,0.037,0.147
		c-0.038,0.024-0.169-0.077-0.169-0.077s0.012,0.161-0.028,0.185c-0.037,0.022-0.174-0.073-0.174-0.073L288.711,8.924L288.711,8.924
		z"/>
	
		<rect x="288.285" y="7.278" transform="matrix(-0.8702 0.4926 -0.4926 -0.8702 544.3672 -127.4465)" display="inline" fill="#FC9B7A" width="1.367" height="1.387"/>
</g>
<g id="NOTE">
	<polygon fill="#FFFFFF" points="58.162,59.712 58.162,59.712 41.837,59.031 41.837,59.031 43.012,30.841 43.012,30.841 
		59.345,31.525 59.345,31.525 	"/>
	<polygon fill="#FB5856" points="59.208,34.782 59.208,34.782 42.881,34.102 42.881,34.102 43.012,30.841 43.012,30.841 
		59.343,31.525 59.343,31.525 	"/>
	<polygon fill="#FFFFFF" points="56.543,61.263 56.543,61.263 40.213,60.576 40.213,60.576 41.393,32.394 41.393,32.394 
		57.724,33.076 57.724,33.076 	"/>
	<polygon fill="#FB5856" points="57.588,36.341 57.588,36.341 41.263,35.655 41.263,35.655 41.393,32.394 41.393,32.394 
		57.724,33.078 57.724,33.078 	"/>
	
		<line fill="none" stroke="#4B4B4B" stroke-linecap="round" stroke-miterlimit="10" x1="43.599" y1="46.457" x2="54.155" y2="46.9"/>
	
		<line fill="none" stroke="#4B4B4B" stroke-linecap="round" stroke-miterlimit="10" x1="43.345" y1="52.443" x2="53.901" y2="52.882"/>
</g>
<g id="NOTE_1_">
	<polygon fill="#D8C59A" points="31.772,57.82 31.772,57.82 13.816,57.902 13.816,57.902 13.715,35.459 13.715,35.459 
		31.671,35.376 31.671,35.376 	"/>
	
		<rect x="14.568" y="36.995" transform="matrix(-1 -0.0078 0.0078 -1 36.0511 81.3643)" fill="#FBFAF9" width="7.234" height="7.234"/>
	<polygon fill="#D8C59A" points="34.031,55.598 34.031,55.598 16.077,55.678 16.077,55.678 15.977,33.238 15.977,33.238 
		33.93,33.152 33.93,33.152 	"/>
	
		<rect x="18.204" y="35.192" transform="matrix(-1 -0.008 0.008 -1 41.5231 77.7854)" fill="#FBFAF9" width="5.427" height="7.236"/>
	
		<rect x="18.143" y="46.065" transform="matrix(-1 -0.0079 0.0079 -1 48.5739 94.1304)" fill="#FBFAF9" width="12.663" height="1.808"/>
	
		<rect x="18.096" y="51.5" transform="matrix(-1 -0.008 0.008 -1 48.4319 105.0009)" fill="#FBFAF9" width="12.661" height="1.807"/>
</g>
<g id="NOTE_2_">
	<polygon fill="#9B9296" points="6.589,54.509 6.589,54.509 -11.36,54.968 -11.36,54.968 -11.936,32.531 -11.936,32.531 
		6.009,32.067 6.009,32.067 	"/>
	<polygon fill="#D8BFC9" points="7.065,54.951 7.065,54.951 -10.879,55.413 -10.879,55.413 -11.459,32.977 -11.459,32.977 
		6.49,32.513 6.49,32.513 	"/>
	
		<rect x="-9.152" y="39.01" transform="matrix(-0.9995 0.0313 -0.0313 -0.9995 -3.5122 84.8059)" fill="#E5DCD1" width="13.466" height="6.732"/>
	<polygon fill="#9B9296" points="7.407,57.379 7.407,57.379 -10.539,57.837 -10.539,57.837 -11.118,35.415 -11.118,35.415 
		6.829,34.952 6.829,34.952 	"/>
	<polygon fill="#D8BFC9" points="7.923,58.005 7.923,58.005 -10.022,58.469 -10.022,58.469 -10.601,36.032 -10.601,36.032 
		7.349,35.567 7.349,35.567 	"/>
	
		<rect x="-8.295" y="42.086" transform="matrix(-0.9995 0.0312 -0.0312 -0.9995 -1.7081 90.9309)" fill="#E5DCD1" width="13.464" height="6.732"/>
</g>
</svg>
