<?xml version="1.0" encoding="utf-8"?>
<!-- Generator: Adobe Illustrator 19.2.1, SVG Export Plug-In . SVG Version: 6.00 Build 0)  -->
<svg version="1.1" id="图层_1" xmlns="http://www.w3.org/2000/svg" xmlns:xlink="http://www.w3.org/1999/xlink" x="0px" y="0px"
	 viewBox="0 0 230 139.5" style="enable-background:new 0 0 230 139.5;" xml:space="preserve">
<style type="text/css">
	.st0{fill:#CBC8B8;}
	.st1{fill:#BCBAAF;}
	.st2{fill:#5E5951;}
	.st3{fill:#A7D6D1;}
	.st4{fill:#666666;}
	.st5{fill:#808080;}
	.st6{fill:#999999;}
	.st7{fill:#E6E6E6;}
</style>
<g id="anothertable">
	<g id="chair">
		<g id="char_5_">
			<path class="st0" d="M173.1,73.8c1-0.8,2-1.3,2.8-0.4l18,20.5c0.8,1,0.3,1.9-0.8,2.7c0,0-14.9,13.1-19.9,17.5l-20.1-22.9
				C158.1,86.9,173.1,73.8,173.1,73.8z"/>
			<path class="st1" d="M163.8,127.7c-0.6,0.5-1.8,0.1-2.7-0.8l-22-25.1c-0.8-1-1.1-2.3-0.5-2.7c0,0,13.2-3.3,16.1-5.9l17.3,19.7
				C169.2,115.5,163.8,127.7,163.8,127.7z"/>
			<path class="st2" d="M188.2,97.5c0.4-0.3,0.8-0.3,1.1,0.1l2.5,2.8c0.3,0.4,0.3,0.8-0.1,1.1l-16.3,14.3c-0.4,0.3-0.8,0.3-1.1-0.1
				l-2.5-2.8c-0.3-0.4-0.3-0.8,0.1-1.1L188.2,97.5z"/>
			<path class="st2" d="M168.3,74.8c0.4-0.3,0.8-0.3,1.1,0.1l2.5,2.8c0.3,0.4,0.3,0.8-0.1,1.1l-16.4,14.3c-0.4,0.3-0.8,0.3-1.1-0.1
				l-2.5-2.8c-0.3-0.4-0.3-0.8,0.1-1.1L168.3,74.8z"/>
		</g>
		<g id="char_4_">
			<path class="st0" d="M106.1,24.1c0.4-1.6,1-2.8,2.7-2.5l33.4,7.7c1.6,0.4,1.7,1.8,1.2,3.4c0,0-5.6,24.4-7.5,32.4l-37.3-8.6
				C100.5,48.5,106.1,24.1,106.1,24.1z"/>
			<path class="st1" d="M136.3,85.9c-0.2,1-1.7,1.5-3.4,1.1L92,77.6c-1.6-0.4-2.7-1.5-2.5-2.5c0,0,11.1-13,12.1-17.9l32.3,7.4
				C132.7,69.5,136.3,85.9,136.3,85.9z"/>
			<path class="st2" d="M138.9,37.1c0.1-0.5,0.6-0.9,1.2-0.7l4.5,1.1c0.5,0.1,0.9,0.6,0.7,1.2l-6.1,26.6c-0.1,0.5-0.6,0.9-1.2,0.7
				l-4.5-1.1c-0.5-0.1-0.9-0.6-0.7-1.2L138.9,37.1z"/>
			<path class="st2" d="M102,28.6c0.1-0.5,0.6-0.9,1.2-0.7l4.5,1.1c0.5,0.1,0.9,0.6,0.7,1.2l-6.1,26.6c-0.1,0.5-0.6,0.9-1.2,0.7
				l-4.5-1.1c-0.5-0.1-0.9-0.6-0.7-1.2L102,28.6z"/>
		</g>
		<g id="char_3_">
			<path class="st0" d="M29.4,44.8c-0.3-1.7-0.1-3.2,1.6-3.5l35.8-5.4c1.8-0.3,2.3,1.1,2.5,2.8c0,0,3.9,26.1,5.2,34.8l-40,6.1
				C33.3,70.9,29.4,44.8,29.4,44.8z"/>
			<path class="st1" d="M83,93.7c0.2,1-1.1,2.1-2.8,2.3l-43.7,6.6c-1.7,0.3-3.3-0.4-3.5-1.4c0,0,5.8-17.1,5-22.2l34.5-5.2
				C73.2,79,83,93.7,83,93.7z"/>
			<path class="st2" d="M66.7,44.8c-0.1-0.6,0.3-1.1,0.8-1.2l4.9-0.7c0.6-0.1,1.1,0.3,1.2,0.8l4.3,28.5c0.1,0.6-0.3,1.1-0.8,1.2
				l-4.9,0.7c-0.6,0.1-1.1-0.3-1.2-0.8L66.7,44.8z"/>
			<path class="st2" d="M27.1,50.8c-0.1-0.6,0.3-1.1,0.8-1.2l4.9-0.7c0.6-0.1,1.1,0.3,1.2,0.8l4.3,28.5c0.1,0.6-0.3,1.1-0.8,1.2
				l-4.9,0.8c-0.6,0.1-1.1-0.3-1.2-0.8L27.1,50.8z"/>
		</g>
	</g>
	<path class="st3" d="M229.9,139.6c0,0-5.3-103.2-88.1-129.6C76.8-8.7,0,23.5,0,23.5l17.9,34.2c0,0,65-30.2,111.1-15.2
		c55.3,18.3,60.8,97,60.8,97h40.1V139.6z"/>
	<g id="desktop_6_">
		<g id="desktop_5_">
			<g id="monitor_6_">
				<path d="M198.4,65.5c0.3-0.2,0.6-0.1,0.8,0.2l7.9,13c0.2,0.3,0.1,0.6-0.2,0.8l-2.1,1.3c-0.3,0.2-0.6,0.1-0.8-0.2l-7.9-13
					c-0.2-0.3-0.1-0.6,0.2-0.8L198.4,65.5z"/>
				<path class="st4" d="M190.3,45.6c0.7-0.5,3.1,1.6,4,3l26.3,41.8c0.8,1.3,1.7,4.7,0.9,5.2l-2.6,1.7c-0.7,0.5-2.3-0.2-3.1-1.5
					l-28.4-45.4c-0.8-1.3-0.4-2.6,0.3-3.1L190.3,45.6z"/>
			</g>
			<g id="keyboard_5_">
				<path class="st5" d="M197.9,104.9c-1,0.6-2.7,0.9-3.1,0.3l-25-39.9c-0.5-0.7,0.5-2.2,1.5-2.9l9.1-5.7c1-0.6,1.9-0.3,2.4,0.5
					l25,39.9c0.5,0.7,0.3,1.6-0.7,2.1L197.9,104.9L197.9,104.9z"/>
				<path class="st6" d="M198.7,104.4c-0.9,0.6-2.5,1-3,0.3l-25.1-40c-0.5-0.7,0.4-2.2,1.4-2.8l8.5-5.3c0.9-0.6,1.9-0.2,2.3,0.6
					l25.1,40c0.5,0.7,0.3,1.4-0.7,1.9L198.7,104.4z"/>
				<g id="key_5_">
					<g id="line1_6_">
						<path class="st7" d="M204.2,96.8c-0.3,0.2-0.6,0.1-0.8-0.2l-2.7-4.4c-0.2-0.3-0.1-0.6,0.2-0.8l1.1-0.7
							c0.3-0.2,0.6-0.1,0.8,0.2l2.7,4.4c0.2,0.3,0.1,0.6-0.2,0.8L204.2,96.8z"/>
						<path class="st7" d="M186.6,68.7c-0.3,0.2-0.6,0.1-0.8-0.2l-0.7-1.1c-0.2-0.3-0.1-0.6,0.2-0.8l1.1-0.7
							c0.3-0.2,0.6-0.1,0.8,0.2l0.7,1.1c0.2,0.3,0.1,0.6-0.2,0.8L186.6,68.7z"/>
						<path class="st7" d="M188.3,71.4c-0.3,0.2-0.6,0.1-0.8-0.2l-0.7-1.1c-0.2-0.3-0.1-0.6,0.2-0.8l1.1-0.7
							c0.3-0.2,0.6-0.1,0.8,0.2l0.7,1.1c0.2,0.3,0.1,0.6-0.2,0.8L188.3,71.4z"/>
						<path class="st7" d="M190.1,74.1c-0.3,0.2-0.6,0.1-0.8-0.2l-0.7-1.1c-0.2-0.3-0.1-0.6,0.2-0.8l1.1-0.7
							c0.3-0.2,0.6-0.1,0.8,0.2l0.7,1.1c0.2,0.3,0.1,0.6-0.2,0.8L190.1,74.1z"/>
						<path class="st7" d="M191.9,77.1c-0.3,0.2-0.6,0.1-0.8-0.2l-0.7-1.1c-0.2-0.3-0.1-0.6,0.2-0.8l1.1-0.7
							c0.3-0.2,0.6-0.1,0.8,0.2l0.7,1.1c0.2,0.3,0.1,0.6-0.2,0.8L191.9,77.1z"/>
						<path class="st7" d="M193.6,79.8c-0.3,0.2-0.6,0.1-0.8-0.2l-0.7-1.1c-0.2-0.3-0.1-0.6,0.2-0.8l1.1-0.7
							c0.3-0.2,0.6-0.1,0.8,0.2l0.7,1.1c0.2,0.3,0.1,0.6-0.2,0.8L193.6,79.8z"/>
						<path class="st7" d="M195.3,82.5c-0.3,0.2-0.6,0.1-0.8-0.2l-0.7-1.1c-0.2-0.3-0.1-0.6,0.2-0.8l1.1-0.7
							c0.3-0.2,0.6-0.1,0.8,0.2l0.7,1.1c0.2,0.3,0.1,0.6-0.2,0.8L195.3,82.5z"/>
						<path class="st7" d="M197,85.3c-0.3,0.2-0.6,0.1-0.8-0.2l-0.7-1.1c-0.2-0.3-0.1-0.6,0.2-0.8l1.1-0.7c0.3-0.2,0.6-0.1,0.8,0.2
							l0.7,1.1c0.2,0.3,0.1,0.6-0.2,0.8L197,85.3z"/>
						<path class="st7" d="M198.9,88.2c-0.3,0.2-0.6,0.1-0.8-0.2l-0.7-1.1c-0.2-0.3-0.1-0.6,0.2-0.8l1.1-0.7
							c0.3-0.2,0.6-0.1,0.8,0.2l0.7,1.1c0.2,0.3,0.1,0.6-0.2,0.8L198.9,88.2z"/>
						<path class="st7" d="M200.5,90.9c-0.3,0.2-0.6,0.1-0.8-0.2l-0.7-1.1c-0.2-0.3-0.1-0.6,0.2-0.8l1.1-0.7
							c0.3-0.2,0.6-0.1,0.8,0.2l0.7,1.1c0.2,0.3,0.1,0.6-0.2,0.8L200.5,90.9z"/>
						<path class="st7" d="M185,66c-0.3,0.2-0.6,0.1-0.8-0.2l-2.7-4.4c-0.2-0.3-0.1-0.6,0.2-0.8l1.1-0.7c0.3-0.2,0.6-0.1,0.8,0.2
							l2.7,4.4c0.2,0.3,0.1,0.6-0.2,0.8L185,66z"/>
					</g>
					<g id="line2_5_">
						<path class="st7" d="M181.3,66.9c-0.3,0.2-0.6,0.1-0.8-0.2l-0.7-1.1c-0.2-0.3-0.1-0.6,0.2-0.8l1.1-0.7
							c0.3-0.2,0.6-0.1,0.8,0.2l0.7,1.1c0.2,0.3,0.1,0.6-0.2,0.8L181.3,66.9z"/>
						<path class="st7" d="M183,69.6c-0.3,0.2-0.6,0.1-0.8-0.2l-0.7-1.1c-0.2-0.3-0.1-0.6,0.2-0.8l1.1-0.7c0.3-0.2,0.6-0.1,0.8,0.2
							l0.7,1.1c0.2,0.3,0.1,0.6-0.2,0.8L183,69.6z"/>
						<path class="st7" d="M184.7,72.2c-0.3,0.2-0.6,0.1-0.8-0.2l-0.7-1.1c-0.2-0.3-0.1-0.6,0.2-0.8l1.1-0.7
							c0.3-0.2,0.6-0.1,0.8,0.2l0.7,1.1c0.2,0.3,0.1,0.6-0.2,0.8L184.7,72.2z"/>
						<path class="st7" d="M186.5,75c-0.3,0.2-0.6,0.1-0.8-0.2l-0.7-1.1c-0.2-0.3-0.1-0.6,0.2-0.8l1.1-0.7c0.3-0.2,0.6-0.1,0.8,0.2
							l0.7,1.1c0.2,0.3,0.1,0.6-0.2,0.8L186.5,75z"/>
						<path class="st7" d="M188.1,77.7c-0.3,0.2-0.6,0.1-0.8-0.2l-0.7-1.1c-0.2-0.3-0.1-0.6,0.2-0.8l1.1-0.7
							c0.3-0.2,0.6-0.1,0.8,0.2l0.7,1.1c0.2,0.3,0.1,0.6-0.2,0.8L188.1,77.7z"/>
						<path class="st7" d="M190.1,80.7c-0.3,0.2-0.6,0.1-0.8-0.2l-0.7-1.1c-0.2-0.3-0.1-0.6,0.2-0.8l1.1-0.7
							c0.3-0.2,0.6-0.1,0.8,0.2l0.7,1.1c0.2,0.3,0.1,0.6-0.2,0.8L190.1,80.7z"/>
						<path class="st7" d="M191.7,83.4c-0.3,0.2-0.6,0.1-0.8-0.2l-0.7-1.1c-0.2-0.3-0.1-0.6,0.2-0.8l1.1-0.7
							c0.3-0.2,0.6-0.1,0.8,0.2l0.7,1.1c0.2,0.3,0.1,0.6-0.2,0.8L191.7,83.4z"/>
						<path class="st7" d="M193.4,86.2c-0.3,0.2-0.6,0.1-0.8-0.2l-0.7-1.1c-0.2-0.3-0.1-0.6,0.2-0.8l1.1-0.7
							c0.3-0.2,0.6-0.1,0.8,0.2l0.7,1.1c0.2,0.3,0.1,0.6-0.2,0.8L193.4,86.2z"/>
						<path class="st7" d="M195.2,89.1c-0.3,0.2-0.6,0.1-0.8-0.2l-0.7-1.1c-0.2-0.3-0.1-0.6,0.2-0.8l1.2-0.8
							c0.3-0.2,0.6-0.1,0.8,0.2l0.7,1.1c0.2,0.3,0.1,0.6-0.2,0.8L195.2,89.1z"/>
						<path class="st7" d="M196.9,91.8c-0.3,0.2-0.6,0.1-0.8-0.2l-0.7-1.1c-0.2-0.3-0.1-0.6,0.2-0.8l1.1-0.7
							c0.3-0.2,0.6-0.1,0.8,0.2l0.7,1.1c0.2,0.3,0.1,0.6-0.2,0.8L196.9,91.8z"/>
						<path class="st7" d="M198.9,94.8c-0.3,0.2-0.6,0.1-0.8-0.2l-0.7-1.1c-0.2-0.3-0.1-0.6,0.2-0.8l1.1-0.7
							c0.3-0.2,0.6-0.1,0.8,0.2l0.7,1.1c0.2,0.3,0.1,0.6-0.2,0.8L198.9,94.8z"/>
						<path class="st7" d="M200.5,97.5c-0.3,0.2-0.6,0.1-0.8-0.2l-0.7-1.1c-0.2-0.3-0.1-0.6,0.2-0.8l1.1-0.7
							c0.3-0.2,0.6-0.1,0.8,0.2l0.7,1.1c0.2,0.3,0.1,0.6-0.2,0.8L200.5,97.5z"/>
					</g>
					<g id="line3_6_">
						<path class="st7" d="M198.5,100.4c-0.3,0.2-0.6,0.1-0.8-0.2l-2.7-4.4c-0.2-0.3-0.1-0.6,0.2-0.8l1.1-0.7
							c0.3-0.2,0.6-0.1,0.8,0.2l2.7,4.4c0.2,0.3,0.1,0.6-0.2,0.8L198.5,100.4z"/>
						<path class="st7" d="M180.9,72.4c-0.3,0.2-0.6,0.1-0.8-0.2l-0.7-1.1c-0.2-0.3-0.1-0.6,0.2-0.8l1.1-0.7
							c0.3-0.2,0.6-0.1,0.8,0.2l0.7,1.1c0.2,0.3,0.1,0.6-0.2,0.8L180.9,72.4z"/>
						<path class="st7" d="M182.5,75c-0.3,0.2-0.6,0.1-0.8-0.2l-0.7-1.1c-0.2-0.3-0.1-0.6,0.2-0.8l1.1-0.7c0.3-0.2,0.6-0.1,0.8,0.2
							l0.7,1.1c0.2,0.3,0.1,0.6-0.2,0.8L182.5,75z"/>
						<path class="st7" d="M184.3,77.8c-0.3,0.2-0.6,0.1-0.8-0.2l-0.7-1.1c-0.2-0.3-0.1-0.6,0.2-0.8l1.1-0.7
							c0.3-0.2,0.6-0.1,0.8,0.2l0.7,1.1c0.2,0.3,0.1,0.6-0.2,0.8L184.3,77.8z"/>
						<path class="st7" d="M186.1,80.6c-0.3,0.2-0.6,0.1-0.8-0.2l-0.7-1.1c-0.2-0.3-0.1-0.6,0.2-0.8l1.1-0.7
							c0.3-0.2,0.6-0.1,0.8,0.2l0.7,1.1c0.2,0.3,0.1,0.6-0.2,0.8L186.1,80.6z"/>
						<path class="st7" d="M187.7,83.3c-0.3,0.2-0.6,0.1-0.8-0.2l-0.7-1.1c-0.2-0.3-0.1-0.6,0.2-0.8l1.1-0.7
							c0.3-0.2,0.6-0.1,0.8,0.2l0.7,1.1c0.2,0.3,0.1,0.6-0.2,0.8L187.7,83.3z"/>
						<path class="st7" d="M189.6,86.2c-0.3,0.2-0.6,0.1-0.8-0.2l-0.7-1.1c-0.2-0.3-0.1-0.6,0.2-0.8l1.1-0.7
							c0.3-0.2,0.6-0.1,0.8,0.2l0.7,1.1c0.2,0.3,0.1,0.6-0.2,0.8L189.6,86.2z"/>
						<path class="st7" d="M191.3,88.9c-0.3,0.2-0.6,0.1-0.8-0.2l-0.7-1.1c-0.2-0.3-0.1-0.6,0.2-0.8l1.1-0.7
							c0.3-0.2,0.6-0.1,0.8,0.2l0.7,1.1c0.2,0.3,0.1,0.6-0.2,0.8L191.3,88.9z"/>
						<path class="st7" d="M193.1,91.8c-0.3,0.2-0.6,0.1-0.8-0.2l-0.7-1.1c-0.2-0.3-0.1-0.6,0.2-0.8l1.1-0.7
							c0.3-0.2,0.6-0.1,0.8,0.2l0.7,1.1c0.2,0.3,0.1,0.6-0.2,0.8L193.1,91.8z"/>
						<path class="st7" d="M194.8,94.5c-0.3,0.2-0.6,0.1-0.8-0.2l-0.7-1.1c-0.2-0.3-0.1-0.6,0.2-0.8l1.1-0.7
							c0.3-0.2,0.6-0.1,0.8,0.2l0.7,1.1c0.2,0.3,0.1,0.6-0.2,0.8L194.8,94.5z"/>
						<path class="st7" d="M179.1,69.6c-0.3,0.2-0.6,0.1-0.8-0.2l-2.7-4.4c-0.2-0.3-0.1-0.6,0.2-0.8l1.1-0.7
							c0.3-0.2,0.6-0.1,0.8,0.2l2.7,4.4c0.2,0.3,0.1,0.6-0.2,0.8L179.1,69.6z"/>
					</g>
					<g id="line4_5_">
						<path class="st7" d="M175.8,70.5c-0.3,0.2-0.6,0.1-0.8-0.2l-0.7-1.1c-0.2-0.3-0.1-0.6,0.2-0.8l1.1-0.7
							c0.3-0.2,0.6-0.1,0.8,0.2l0.7,1.1c0.2,0.3,0.1,0.6-0.2,0.8L175.8,70.5z"/>
						<path class="st7" d="M177.5,73.3c-0.3,0.2-0.6,0.1-0.8-0.2l-0.7-1.1c-0.2-0.3-0.1-0.6,0.2-0.8l1.1-0.7
							c0.3-0.2,0.6-0.1,0.8,0.2l0.7,1.1c0.2,0.3,0.1,0.6-0.2,0.8L177.5,73.3z"/>
						<path class="st7" d="M179.1,76c-0.3,0.2-0.6,0.1-0.8-0.2l-0.7-1.1c-0.2-0.3-0.1-0.6,0.2-0.9l1.1-0.7c0.3-0.2,0.6-0.1,0.8,0.2
							l0.7,1.1c0.2,0.3,0.1,0.6-0.2,0.8L179.1,76z"/>
						<path class="st7" d="M191.2,95.2c-0.3,0.2-0.6,0.1-0.8-0.2l-0.7-1.1c-0.2-0.3-0.1-0.6,0.2-0.8l1.1-0.7
							c0.3-0.2,0.6-0.1,0.8,0.2l0.7,1.1c0.2,0.3,0.1,0.6-0.2,0.8L191.2,95.2z"/>
						<path class="st7" d="M193,98.2c-0.3,0.2-0.6,0.1-0.8-0.2l-0.7-1.1c-0.2-0.3-0.1-0.6,0.2-0.8l1.1-0.7c0.3-0.2,0.6-0.1,0.8,0.2
							l0.7,1.1c0.2,0.3,0.1,0.6-0.2,0.8L193,98.2z"/>
						<path class="st7" d="M194.8,100.9c-0.3,0.2-0.6,0.1-0.8-0.2l-0.7-1.1c-0.2-0.3-0.1-0.6,0.2-0.8l1.1-0.7
							c0.3-0.2,0.6-0.1,0.8,0.2l0.7,1.1c0.2,0.3,0.1,0.6-0.2,0.8L194.8,100.9z"/>
						<path class="st7" d="M189.6,92.3c-0.4,0.2-0.8,0.2-1-0.1l-9.3-14.8c-0.2-0.3,0-0.6,0.4-0.9l0.9-0.6c0.4-0.2,0.7-0.2,0.9,0.1
							l9.3,14.8c0.2,0.3,0.1,0.7-0.3,0.9L189.6,92.3L189.6,92.3z"/>
					</g>
				</g>
			</g>
		</g>
		<g id="desktop_4_">
			<g id="monitor_4_">
				<path d="M124,11.3c0.1-0.4,0.4-0.5,0.7-0.5l14.4,3.7c0.3,0.1,0.5,0.4,0.5,0.7l-0.6,2.3c-0.1,0.4-0.4,0.5-0.7,0.5l-14.4-3.7
					c-0.3-0.1-0.5-0.4-0.5-0.7L124,11.3z"/>
				<path class="st4" d="M104.8,2.9c0.2-0.8,3.4-1.1,4.8-0.7l47.1,11.3c1.5,0.4,4.4,2.2,4.2,3l-0.7,2.9c-0.2,0.8-1.7,1.5-3.2,1.1
					l-51-12.3c-1.5-0.4-2.1-1.5-1.9-2.4L104.8,2.9z"/>
			</g>
			<g id="keyboard_4_">
				<path class="st5" d="M150.7,39.1c-0.3,1.1-1.3,2.5-2,2.4l-44.8-10.8c-0.8-0.2-1.2-1.9-0.9-3l2.5-10.3c0.3-1.1,1.2-1.5,2-1.4
					l44.8,10.8c0.8,0.2,1.3,0.9,1,2L150.7,39.1L150.7,39.1z"/>
				<path class="st6" d="M151,38.3c-0.3,1.1-1.1,2.4-1.8,2.2l-44.9-10.8c-0.8-0.2-1.3-1.8-1-2.9l2.3-9.5c0.3-1.1,1.2-1.4,2-1.2
					l44.9,10.8c0.8,0.2,1.1,0.8,0.9,1.9L151,38.3z"/>
				<g id="key_4_">
					<g id="line1_5_">
						<path class="st7" d="M149.6,29.2c-0.1,0.4-0.5,0.5-0.7,0.5l-4.9-1.2c-0.4-0.1-0.5-0.5-0.5-0.7l0.3-1.3
							c0.1-0.4,0.5-0.5,0.7-0.5l4.9,1.2c0.4,0.1,0.5,0.5,0.5,0.7L149.6,29.2z"/>
						<path class="st7" d="M118,21.6c-0.1,0.4-0.5,0.5-0.7,0.5l-1.3-0.3c-0.4-0.1-0.5-0.5-0.5-0.7l0.3-1.3c0.1-0.4,0.5-0.5,0.7-0.5
							l1.3,0.3c0.4,0.1,0.5,0.5,0.5,0.7L118,21.6z"/>
						<path class="st7" d="M121,22.3c-0.1,0.4-0.5,0.5-0.7,0.5l-1.3-0.3c-0.4-0.1-0.5-0.5-0.5-0.7l0.3-1.3c0.1-0.4,0.5-0.5,0.7-0.5
							l1.3,0.3c0.4,0.1,0.5,0.5,0.5,0.7L121,22.3z"/>
						<path class="st7" d="M124.1,23.1c-0.1,0.4-0.5,0.5-0.7,0.5l-1.3-0.3c-0.4-0.1-0.5-0.5-0.5-0.7l0.3-1.3
							c0.1-0.4,0.5-0.5,0.7-0.5l1.3,0.3c0.4,0.1,0.5,0.5,0.5,0.7L124.1,23.1z"/>
						<path class="st7" d="M127.4,23.9c-0.1,0.4-0.5,0.5-0.7,0.5l-1.3-0.3c-0.4-0.1-0.5-0.5-0.5-0.7l0.3-1.3
							c0.1-0.4,0.5-0.5,0.7-0.5l1.3,0.3c0.4,0.1,0.5,0.5,0.5,0.7L127.4,23.9z"/>
						<path class="st7" d="M130.4,24.6c-0.1,0.4-0.5,0.5-0.7,0.5l-1.4-0.4c-0.4-0.1-0.5-0.5-0.5-0.7l0.3-1.3
							c0.1-0.4,0.5-0.5,0.7-0.5l1.3,0.3c0.4,0.1,0.5,0.5,0.5,0.7L130.4,24.6z"/>
						<path class="st7" d="M133.6,25.3c-0.1,0.4-0.5,0.5-0.7,0.5l-1.3-0.3c-0.4-0.1-0.5-0.5-0.5-0.7l0.3-1.3
							c0.1-0.4,0.5-0.5,0.7-0.5l1.3,0.3c0.4,0.1,0.5,0.5,0.5,0.7L133.6,25.3z"/>
						<path class="st7" d="M136.7,26.1c-0.1,0.4-0.5,0.5-0.7,0.5l-1.3-0.3c-0.4-0.1-0.5-0.5-0.5-0.7l0.3-1.3
							c0.1-0.4,0.5-0.5,0.7-0.5l1.3,0.3c0.4,0.1,0.5,0.5,0.5,0.7L136.7,26.1z"/>
						<path class="st7" d="M139.9,26.9c-0.1,0.4-0.5,0.5-0.7,0.5l-1.3-0.3c-0.4-0.1-0.5-0.5-0.5-0.7l0.3-1.3
							c0.1-0.4,0.5-0.5,0.7-0.5l1.3,0.3c0.4,0.1,0.5,0.5,0.5,0.7L139.9,26.9z"/>
						<path class="st7" d="M143,27.6c-0.1,0.4-0.5,0.5-0.7,0.5l-1.3-0.3c-0.4-0.1-0.5-0.5-0.5-0.7l0.3-1.3c0.1-0.4,0.5-0.5,0.7-0.5
							l1.3,0.3c0.4,0.1,0.5,0.5,0.5,0.7L143,27.6z"/>
						<path class="st7" d="M114.9,20.9c-0.1,0.4-0.5,0.5-0.7,0.5l-4.9-1.2c-0.4-0.1-0.5-0.5-0.5-0.7l0.3-1.3
							c0.1-0.4,0.5-0.5,0.7-0.5l4.9,1.2c0.4,0.1,0.5,0.5,0.5,0.7L114.9,20.9z"/>
					</g>
					<g id="line2_4_">
						<path class="st7" d="M113,23.9c-0.1,0.4-0.5,0.5-0.7,0.5l-1.3-0.3c-0.4-0.1-0.5-0.5-0.5-0.7l0.3-1.3c0.1-0.4,0.5-0.5,0.7-0.5
							l1.3,0.3c0.4,0.1,0.5,0.5,0.5,0.7L113,23.9z"/>
						<path class="st7" d="M116.1,24.6c-0.1,0.4-0.5,0.5-0.7,0.5l-1.3-0.3c-0.4-0.1-0.5-0.5-0.5-0.7l0.3-1.3
							c0.1-0.4,0.5-0.5,0.7-0.5l1.3,0.3c0.4,0.1,0.5,0.5,0.5,0.7L116.1,24.6z"/>
						<path class="st7" d="M119,25.3c-0.1,0.4-0.5,0.5-0.7,0.5l-1.3-0.3c-0.4-0.1-0.5-0.5-0.5-0.7l0.3-1.3c0.1-0.4,0.5-0.5,0.7-0.5
							l1.3,0.3c0.4,0.1,0.5,0.5,0.5,0.7L119,25.3z"/>
						<path class="st7" d="M122.3,26.2c-0.1,0.4-0.5,0.5-0.7,0.5l-1.3-0.3c-0.4-0.1-0.5-0.5-0.5-0.7l0.3-1.3
							c0.1-0.4,0.5-0.5,0.7-0.5l1.3,0.3c0.4,0.1,0.5,0.5,0.5,0.7L122.3,26.2z"/>
						<path class="st7" d="M125.3,26.9c-0.1,0.4-0.5,0.5-0.7,0.5l-1.3-0.3c-0.4-0.1-0.5-0.5-0.5-0.7l0.3-1.3
							c0.1-0.4,0.5-0.5,0.7-0.5l1.3,0.3c0.4,0.1,0.5,0.5,0.5,0.7L125.3,26.9z"/>
						<path class="st7" d="M128.6,27.7c-0.1,0.4-0.5,0.5-0.7,0.5l-1.3-0.3c-0.4-0.1-0.5-0.5-0.5-0.7l0.3-1.3
							c0.1-0.4,0.5-0.5,0.7-0.5l1.3,0.3c0.4,0.1,0.5,0.5,0.5,0.7L128.6,27.7z"/>
						<path class="st7" d="M131.6,28.4c-0.1,0.4-0.5,0.5-0.7,0.5l-1.3-0.3c-0.4-0.1-0.5-0.5-0.5-0.7l0.3-1.3
							c0.1-0.4,0.5-0.5,0.7-0.5l1.3,0.3c0.4,0.1,0.5,0.5,0.5,0.7L131.6,28.4z"/>
						<path class="st7" d="M134.7,29.1c-0.1,0.4-0.5,0.5-0.7,0.5l-1.3-0.3c-0.4-0.1-0.5-0.5-0.5-0.7l0.3-1.3
							c0.1-0.4,0.5-0.5,0.7-0.5l1.3,0.3c0.4,0.1,0.5,0.5,0.5,0.7L134.7,29.1z"/>
						<path class="st7" d="M138,30c-0.1,0.4-0.5,0.5-0.7,0.5l-1.3-0.3c-0.4-0.1-0.5-0.5-0.5-0.7l0.3-1.3c0.1-0.4,0.5-0.5,0.7-0.5
							l1.3,0.3c0.4,0.1,0.5,0.5,0.5,0.7L138,30z"/>
						<path class="st7" d="M141.1,30.7c-0.1,0.4-0.5,0.5-0.7,0.5l-1.3-0.3c-0.4-0.1-0.5-0.5-0.5-0.7l0.3-1.3
							c0.1-0.4,0.5-0.5,0.7-0.5l1.3,0.3c0.4,0.1,0.5,0.5,0.5,0.7L141.1,30.7z"/>
						<path class="st7" d="M144.4,31.5c-0.1,0.4-0.5,0.5-0.7,0.5l-1.3-0.3c-0.4-0.1-0.5-0.5-0.5-0.7l0.3-1.3
							c0.1-0.4,0.5-0.5,0.7-0.5l1.3,0.3c0.4,0.1,0.5,0.5,0.5,0.7L144.4,31.5z"/>
						<path class="st7" d="M147.4,32.2c-0.1,0.4-0.5,0.5-0.7,0.5l-1.3-0.3c-0.4-0.1-0.5-0.5-0.5-0.7l0.3-1.3
							c0.1-0.4,0.5-0.5,0.7-0.5l1.3,0.3c0.4,0.1,0.5,0.5,0.5,0.7L147.4,32.2z"/>
					</g>
					<g id="line3_5_">
						<path class="st7" d="M148.1,35.7c-0.1,0.4-0.5,0.5-0.7,0.5l-4.9-1.2c-0.4-0.1-0.5-0.5-0.5-0.7l0.3-1.3
							c0.1-0.4,0.5-0.5,0.7-0.5l4.9,1.2c0.4,0.1,0.5,0.5,0.5,0.7L148.1,35.7z"/>
						<path class="st7" d="M116.5,28.1c-0.1,0.4-0.5,0.5-0.7,0.5l-1.3-0.3c-0.4-0.1-0.5-0.5-0.5-0.7l0.3-1.3
							c0.1-0.4,0.5-0.5,0.7-0.5l1.3,0.3c0.4,0.1,0.5,0.5,0.5,0.7L116.5,28.1z"/>
						<path class="st7" d="M119.6,28.8c-0.1,0.4-0.5,0.5-0.7,0.5l-1.3-0.3c-0.4-0.1-0.5-0.5-0.5-0.7l0.3-1.3
							c0.1-0.4,0.5-0.5,0.7-0.5l1.3,0.3c0.4,0.1,0.5,0.5,0.5,0.7L119.6,28.8z"/>
						<path class="st7" d="M122.5,29.5c-0.1,0.4-0.5,0.5-0.7,0.5l-1.3-0.3c-0.4-0.1-0.5-0.5-0.5-0.7l0.3-1.3
							c0.1-0.4,0.5-0.5,0.7-0.5l1.3,0.3c0.4,0.1,0.5,0.5,0.5,0.7L122.5,29.5z"/>
						<path class="st7" d="M125.7,30.3c-0.1,0.4-0.5,0.5-0.7,0.5l-1.3-0.3c-0.4-0.1-0.5-0.5-0.5-0.7l0.3-1.3
							c0.1-0.4,0.5-0.5,0.7-0.5l1.3,0.3c0.4,0.1,0.5,0.5,0.5,0.7L125.7,30.3z"/>
						<path class="st7" d="M128.8,31.1c-0.1,0.4-0.5,0.5-0.7,0.5l-1.3-0.3c-0.4-0.1-0.5-0.5-0.5-0.7l0.3-1.3
							c0.1-0.4,0.5-0.5,0.7-0.5l1.3,0.3c0.4,0.1,0.5,0.5,0.5,0.7L128.8,31.1z"/>
						<path class="st7" d="M132.1,31.9c-0.1,0.4-0.5,0.5-0.7,0.5l-1.3-0.3c-0.4-0.1-0.5-0.5-0.5-0.7l0.3-1.3
							c0.1-0.4,0.5-0.5,0.7-0.5l1.3,0.3c0.4,0.1,0.5,0.5,0.5,0.7L132.1,31.9z"/>
						<path class="st7" d="M135.2,32.6c-0.1,0.4-0.5,0.5-0.7,0.5l-1.3-0.3c-0.4-0.1-0.5-0.5-0.5-0.7l0.3-1.3
							c0.1-0.4,0.5-0.5,0.7-0.5l1.3,0.3c0.4,0.1,0.5,0.5,0.5,0.7L135.2,32.6z"/>
						<path class="st7" d="M138.3,33.3c-0.1,0.4-0.5,0.5-0.7,0.5l-1.3-0.3c-0.4-0.1-0.5-0.5-0.5-0.7l0.3-1.3
							c0.1-0.4,0.5-0.5,0.7-0.5l1.3,0.3c0.4,0.1,0.5,0.5,0.5,0.7L138.3,33.3z"/>
						<path class="st7" d="M141.4,34c-0.1,0.4-0.5,0.5-0.7,0.5l-1.3-0.3c-0.4-0.1-0.5-0.5-0.5-0.7l0.3-1.3c0.1-0.4,0.5-0.5,0.7-0.5
							l1.3,0.3c0.4,0.1,0.5,0.5,0.5,0.7L141.4,34z"/>
						<path class="st7" d="M113.4,27.3c-0.1,0.4-0.5,0.5-0.7,0.5l-4.9-1.2c-0.4-0.1-0.5-0.5-0.5-0.7l0.3-1.3
							c0.1-0.4,0.5-0.5,0.7-0.5l4.9,1.2c0.4,0.1,0.5,0.5,0.5,0.7L113.4,27.3z"/>
					</g>
					<g id="line4_4_">
						<path class="st7" d="M111.7,30.3c-0.1,0.4-0.5,0.5-0.7,0.5l-1.3-0.3c-0.4-0.1-0.5-0.5-0.5-0.7l0.3-1.3
							c0.1-0.4,0.5-0.5,0.7-0.5l1.3,0.3c0.4,0.1,0.5,0.5,0.5,0.7L111.7,30.3z"/>
						<path class="st7" d="M114.7,31.1c-0.1,0.4-0.5,0.5-0.7,0.5l-1.3-0.3c-0.4-0.1-0.5-0.5-0.5-0.7l0.3-1.3
							c0.1-0.4,0.5-0.5,0.7-0.5l1.3,0.3c0.4,0.1,0.5,0.5,0.5,0.7L114.7,31.1z"/>
						<path class="st7" d="M117.7,31.8c-0.1,0.4-0.5,0.5-0.7,0.5l-1.4-0.3c-0.4-0.1-0.5-0.5-0.5-0.7l0.3-1.3
							c0.1-0.4,0.5-0.5,0.7-0.5l1.3,0.3c0.4,0.1,0.5,0.5,0.5,0.7L117.7,31.8z"/>
						<path class="st7" d="M139.3,37c-0.1,0.4-0.5,0.5-0.7,0.5l-1.3-0.3c-0.4-0.1-0.5-0.5-0.5-0.7l0.3-1.3c0.1-0.4,0.5-0.5,0.7-0.5
							l1.3,0.3c0.4,0.1,0.5,0.5,0.5,0.7L139.3,37z"/>
						<path class="st7" d="M142.7,37.8c-0.1,0.4-0.5,0.5-0.7,0.5l-1.3-0.3c-0.4-0.1-0.5-0.5-0.5-0.7l0.3-1.3
							c0.1-0.4,0.5-0.5,0.7-0.5l1.3,0.3c0.4,0.1,0.5,0.5,0.5,0.7L142.7,37.8z"/>
						<path class="st7" d="M145.7,38.6c-0.1,0.4-0.5,0.5-0.7,0.5l-1.3-0.3c-0.4-0.1-0.5-0.5-0.5-0.7l0.3-1.3
							c0.1-0.4,0.5-0.5,0.7-0.5l1.4,0.2c0.4,0.1,0.5,0.5,0.5,0.7L145.7,38.6z"/>
						<path class="st7" d="M136.3,36c-0.1,0.4-0.5,0.7-0.8,0.6l-16.6-4c-0.4-0.1-0.5-0.5-0.4-0.9l0.3-1c0.1-0.4,0.4-0.6,0.7-0.5
							l16.6,4c0.4,0.1,0.5,0.5,0.5,0.8L136.3,36L136.3,36z"/>
					</g>
				</g>
			</g>
		</g>
		<g id="desktop_3_">
			<g id="monitor_3_">
				<path d="M35.4,23.1c-0.1-0.4,0.1-0.6,0.5-0.7l14.6-3.5c0.4-0.1,0.6,0.1,0.7,0.5l0.5,2.4c0.1,0.4-0.1,0.6-0.5,0.7L36.6,26
					c-0.4,0.1-0.6-0.1-0.7-0.5L35.4,23.1z"/>
				<path class="st4" d="M14.4,24.7c-0.2-0.8,2.5-2.5,3.9-2.9l47.2-12c1.5-0.4,4.9-0.1,5.1,0.7l0.7,2.9c0.2,0.8-0.8,2.1-2.4,2.5
					L17.8,28.8c-1.5,0.4-2.6-0.4-2.7-1.2L14.4,24.7z"/>
			</g>
			<g id="keyboard_3_">
				<path class="st5" d="M72.2,35.5c0.3,1.1,0.1,2.8-0.7,3l-45,11.3c-0.8,0.2-2-1.1-2.3-2.3l-2.6-10.3c-0.3-1.1,0.4-1.9,1.2-2.1
					l45-11.3c0.8-0.2,1.6,0.2,1.8,1.4L72.2,35.5L72.2,35.5z"/>
				<path class="st6" d="M72,34.7c0.3,1.1,0.2,2.6-0.6,2.8L26.2,48.9c-0.8,0.2-1.9-1.1-2.2-2.1l-2.4-9.6c-0.3-1.1,0.4-1.7,1.2-2
					L68,23.9c0.8-0.2,1.4,0.2,1.6,1.3L72,34.7z"/>
				<g id="key_3_">
					<g id="line1_4_">
						<path class="st7" d="M66.6,27.2c0.1,0.4-0.1,0.6-0.5,0.7l-4.9,1.3c-0.4,0.1-0.6-0.1-0.7-0.5l-0.4-1.3
							c-0.1-0.4,0.1-0.6,0.5-0.7l4.9-1.3c0.4-0.1,0.6,0.1,0.7,0.5L66.6,27.2z"/>
						<path class="st7" d="M34.8,35.2c0.1,0.4-0.1,0.6-0.5,0.7l-1.3,0.4c-0.4,0.1-0.6-0.1-0.7-0.5L32,34.5c-0.1-0.4,0.1-0.6,0.5-0.7
							l1.3-0.4c0.4-0.1,0.6,0.1,0.7,0.5L34.8,35.2z"/>
						<path class="st7" d="M37.9,34.5c0.1,0.4-0.1,0.6-0.5,0.7l-1.3,0.3c-0.4,0.1-0.6-0.1-0.7-0.5l-0.4-1.3
							c-0.1-0.4,0.1-0.6,0.5-0.7l1.3-0.4c0.4-0.1,0.6,0.1,0.7,0.5L37.9,34.5z"/>
						<path class="st7" d="M41,33.6c0.1,0.4-0.1,0.6-0.5,0.7l-1.3,0.4c-0.4,0.1-0.6-0.1-0.7-0.5L38.2,33c-0.1-0.4,0.1-0.6,0.5-0.7
							l1.3-0.4c0.4-0.1,0.6,0.1,0.7,0.5L41,33.6z"/>
						<path class="st7" d="M44.3,32.8c0.1,0.4-0.1,0.6-0.5,0.7l-1.3,0.4c-0.4,0.1-0.6-0.1-0.7-0.5l-0.4-1.3
							c-0.1-0.4,0.1-0.6,0.5-0.7l1.3-0.4c0.4-0.1,0.6,0.1,0.7,0.5L44.3,32.8z"/>
						<path class="st7" d="M47.3,32.1c0.1,0.4-0.1,0.6-0.5,0.7l-1.3,0.4c-0.4,0.1-0.7-0.2-0.7-0.5l-0.4-1.3
							c-0.1-0.4,0.1-0.6,0.5-0.7l1.3-0.4c0.4-0.1,0.6,0.1,0.7,0.5L47.3,32.1z"/>
						<path class="st7" d="M50.5,31.3c0.1,0.4-0.1,0.6-0.5,0.7l-1.3,0.4c-0.4,0.1-0.6-0.1-0.7-0.5l-0.4-1.3
							c-0.1-0.4,0.1-0.6,0.5-0.7l1.3-0.4c0.4-0.1,0.6,0.1,0.7,0.5L50.5,31.3z"/>
						<path class="st7" d="M53.6,30.5c0.1,0.4-0.1,0.6-0.5,0.7l-1.3,0.4c-0.4,0.1-0.6-0.1-0.7-0.5l-0.4-1.3
							c-0.1-0.4,0.1-0.6,0.5-0.7l1.3-0.4c0.4-0.1,0.6,0.1,0.7,0.5L53.6,30.5z"/>
						<path class="st7" d="M56.8,29.7c0.1,0.4-0.1,0.6-0.5,0.7l-1.3,0.4c-0.4,0.1-0.6-0.1-0.7-0.5L54,29c-0.1-0.4,0.1-0.6,0.5-0.7
							l1.3-0.4c0.4-0.1,0.6,0.1,0.7,0.5L56.8,29.7z"/>
						<path class="st7" d="M59.9,28.9c0.1,0.4-0.1,0.6-0.5,0.7L58.2,30c-0.4,0.1-0.6-0.1-0.7-0.5l-0.4-1.3c-0.1-0.4,0.1-0.6,0.5-0.7
							l1.3-0.4c0.4-0.1,0.6,0.1,0.7,0.5L59.9,28.9z"/>
						<path class="st7" d="M31.8,35.9c0.1,0.4-0.1,0.6-0.5,0.7l-4.9,1.2c-0.4,0.1-0.6-0.1-0.7-0.5l-0.4-1.3
							c-0.1-0.4,0.1-0.6,0.5-0.7l4.9-1.2c0.4-0.1,0.6,0.1,0.7,0.5L31.8,35.9z"/>
					</g>
					<g id="line2_3_">
						<path class="st7" d="M31.5,39.6c0.1,0.4-0.1,0.6-0.5,0.7l-1.3,0.4c-0.4,0.1-0.6-0.1-0.7-0.5l-0.4-1.3
							c-0.1-0.4,0.1-0.6,0.5-0.7l1.3-0.4c0.4-0.1,0.6,0.1,0.7,0.5L31.5,39.6z"/>
						<path class="st7" d="M34.5,38.8c0.1,0.4-0.1,0.6-0.5,0.7l-1.3,0.4c-0.4,0.1-0.6-0.1-0.7-0.5l-0.4-1.3
							c-0.1-0.4,0.1-0.6,0.5-0.7l1.3-0.4c0.4-0.1,0.6,0.1,0.7,0.5L34.5,38.8z"/>
						<path class="st7" d="M37.5,38.1c0.1,0.4-0.1,0.6-0.5,0.7l-1.3,0.4c-0.4,0.1-0.6-0.1-0.7-0.5l-0.4-1.3
							c-0.1-0.4,0.1-0.6,0.5-0.7l1.3-0.4c0.4-0.1,0.6,0.1,0.7,0.5L37.5,38.1z"/>
						<path class="st7" d="M40.7,37.3c0.1,0.4-0.1,0.6-0.5,0.7L39,38.4c-0.4,0.1-0.6-0.1-0.7-0.5l-0.4-1.3c-0.1-0.4,0.1-0.6,0.5-0.7
							l1.3-0.4c0.4-0.1,0.6,0.1,0.7,0.5L40.7,37.3z"/>
						<path class="st7" d="M43.8,36.5c0.1,0.4-0.1,0.6-0.5,0.7L42,37.6c-0.4,0.1-0.6-0.1-0.7-0.5l-0.4-1.3c-0.1-0.4,0.1-0.6,0.5-0.7
							l1.3-0.4c0.4-0.1,0.6,0.1,0.7,0.5L43.8,36.5z"/>
						<path class="st7" d="M47.1,35.6c0.1,0.4-0.1,0.6-0.5,0.7l-1.3,0.4c-0.4,0.1-0.6-0.1-0.7-0.5L44.3,35c-0.1-0.4,0.1-0.6,0.5-0.7
							l1.3-0.4c0.4-0.1,0.6,0.1,0.7,0.5L47.1,35.6z"/>
						<path class="st7" d="M50.2,34.9c0.1,0.4-0.1,0.6-0.5,0.7L48.4,36c-0.4,0.1-0.6-0.1-0.7-0.5l-0.4-1.3c-0.1-0.4,0.1-0.6,0.5-0.7
							l1.3-0.4c0.4-0.1,0.6,0.1,0.7,0.5L50.2,34.9z"/>
						<path class="st7" d="M53.3,34.1c0.1,0.4-0.1,0.6-0.5,0.7l-1.3,0.4c-0.4,0.1-0.6-0.1-0.7-0.5l-0.4-1.3
							c-0.1-0.4,0.1-0.6,0.5-0.7l1.3-0.4c0.4-0.1,0.6,0.1,0.7,0.5L53.3,34.1z"/>
						<path class="st7" d="M56.5,33.3c0.1,0.4-0.1,0.6-0.5,0.7l-1.3,0.4c-0.4,0.1-0.6-0.1-0.7-0.5l-0.4-1.3
							c-0.1-0.4,0.1-0.6,0.5-0.7l1.3-0.4c0.4-0.1,0.6,0.1,0.7,0.5L56.5,33.3z"/>
						<path class="st7" d="M59.6,32.5c0.1,0.4-0.1,0.6-0.5,0.7l-1.3,0.4c-0.4,0.1-0.6-0.1-0.7-0.5l-0.4-1.3
							c-0.1-0.4,0.1-0.6,0.5-0.7l1.3-0.4c0.4-0.1,0.6,0.1,0.7,0.5L59.6,32.5z"/>
						<path class="st7" d="M62.9,31.7c0.1,0.4-0.1,0.6-0.5,0.7l-1.3,0.4c-0.4,0.1-0.6-0.1-0.7-0.5l-0.4-1.3
							c-0.1-0.4,0.1-0.6,0.5-0.7l1.3-0.4c0.4-0.1,0.6,0.1,0.7,0.5L62.9,31.7z"/>
						<path class="st7" d="M66,30.9c0.1,0.4-0.1,0.6-0.5,0.7L64.3,32c-0.4,0.1-0.6-0.1-0.7-0.5l-0.4-1.3c-0.1-0.4,0.1-0.6,0.5-0.7
							l1.3-0.4c0.4-0.1,0.6,0.1,0.7,0.5L66,30.9z"/>
					</g>
					<g id="line3_4_">
						<path class="st7" d="M68.2,33.7c0.1,0.4-0.1,0.6-0.5,0.7l-4.9,1.3c-0.4,0.1-0.6-0.1-0.7-0.5L61.7,34c-0.1-0.4,0.1-0.6,0.5-0.7
							l4.9-1.2c0.4-0.1,0.6,0.1,0.7,0.5L68.2,33.7z"/>
						<path class="st7" d="M36.6,41.7c0.1,0.4-0.1,0.6-0.5,0.7l-1.3,0.4c-0.4,0.1-0.6-0.1-0.7-0.5L33.7,41c-0.1-0.4,0.1-0.6,0.5-0.7
							l1.3-0.4c0.4-0.1,0.6,0.1,0.7,0.5L36.6,41.7z"/>
						<path class="st7" d="M39.6,40.9c0.1,0.4-0.1,0.6-0.5,0.7L37.8,42c-0.4,0.1-0.6-0.1-0.7-0.5l-0.4-1.3c-0.1-0.4,0.1-0.6,0.5-0.7
							l1.3-0.4c0.4-0.1,0.6,0.1,0.7,0.5L39.6,40.9z"/>
						<path class="st7" d="M42.7,40.1c0.1,0.4-0.1,0.6-0.5,0.7l-1.3,0.4c-0.4,0.1-0.6-0.1-0.7-0.5l-0.4-1.3
							c-0.1-0.4,0.1-0.6,0.5-0.7l1.3-0.4c0.4-0.1,0.6,0.1,0.7,0.5L42.7,40.1z"/>
						<path class="st7" d="M45.8,39.4c0.1,0.4-0.1,0.6-0.5,0.7L44,40.5c-0.4,0.1-0.6-0.1-0.7-0.5l-0.4-1.3c-0.1-0.4,0.1-0.6,0.5-0.7
							l1.3-0.4c0.4-0.1,0.6,0.1,0.7,0.5L45.8,39.4z"/>
						<path class="st7" d="M48.9,38.6c0.1,0.4-0.1,0.6-0.5,0.7l-1.3,0.4c-0.4,0.1-0.6-0.1-0.7-0.5L46,37.9c-0.1-0.4,0.1-0.6,0.5-0.7
							l1.3-0.4c0.4-0.1,0.6,0.1,0.7,0.5L48.9,38.6z"/>
						<path class="st7" d="M52.2,37.7c0.1,0.4-0.1,0.6-0.5,0.7l-1.3,0.4c-0.4,0.1-0.6-0.1-0.7-0.5l-0.4-1.3
							c-0.1-0.4,0.1-0.6,0.5-0.7l1.3-0.4c0.4-0.1,0.6,0.1,0.7,0.5L52.2,37.7z"/>
						<path class="st7" d="M55.3,37c0.1,0.4-0.1,0.6-0.5,0.7l-1.3,0.4c-0.4,0.1-0.6-0.1-0.7-0.5l-0.4-1.3c-0.1-0.4,0.1-0.6,0.5-0.7
							l1.3-0.4c0.4-0.1,0.6,0.1,0.7,0.5L55.3,37z"/>
						<path class="st7" d="M58.5,36.2c0.1,0.4-0.1,0.6-0.5,0.7l-1.3,0.4c-0.4,0.1-0.6-0.1-0.7-0.5l-0.4-1.3
							c-0.1-0.4,0.1-0.6,0.5-0.7l1.3-0.4c0.4-0.1,0.6,0.1,0.7,0.5L58.5,36.2z"/>
						<path class="st7" d="M61.6,35.4c0.1,0.4-0.1,0.6-0.5,0.7l-1.3,0.4c-0.4,0.1-0.6-0.1-0.7-0.5l-0.4-1.3
							c-0.1-0.4,0.1-0.6,0.5-0.7l1.3-0.4c0.4-0.1,0.6,0.1,0.7,0.5L61.6,35.4z"/>
						<path class="st7" d="M33.4,42.5c0.1,0.4-0.1,0.6-0.5,0.7l-4.9,1.2c-0.4,0.1-0.6-0.1-0.7-0.5L27,42.7c-0.1-0.4,0.1-0.6,0.5-0.7
							l4.9-1.2c0.4-0.1,0.6,0.1,0.7,0.5L33.4,42.5z"/>
					</g>
					<g id="line4_3_">
						<path class="st7" d="M33.3,46c0.1,0.4-0.1,0.6-0.5,0.7L31.5,47c-0.4,0.1-0.6-0.1-0.7-0.5l-0.4-1.3c-0.1-0.4,0.1-0.6,0.5-0.7
							l1.3-0.4c0.4-0.1,0.6,0.1,0.7,0.5L33.3,46z"/>
						<path class="st7" d="M36.4,45.1c0.1,0.4-0.1,0.6-0.5,0.7l-1.3,0.4c-0.4,0.1-0.6-0.1-0.7-0.5l-0.4-1.3
							c-0.1-0.4,0.1-0.6,0.5-0.7l1.3-0.4c0.4-0.1,0.6,0.1,0.7,0.5L36.4,45.1z"/>
						<path class="st7" d="M39.4,44.4c0.1,0.4-0.1,0.6-0.5,0.7l-1.3,0.4c-0.4,0.1-0.6-0.1-0.7-0.5l-0.4-1.3
							c-0.1-0.4,0.1-0.6,0.5-0.7l1.3-0.4c0.4-0.1,0.6,0.1,0.7,0.5L39.4,44.4z"/>
						<path class="st7" d="M61.1,38.9c0.1,0.4-0.1,0.6-0.5,0.7L59.4,40c-0.4,0.1-0.6-0.1-0.7-0.5l-0.4-1.3c-0.1-0.4,0.1-0.6,0.5-0.7
							l1.3-0.4c0.4-0.1,0.6,0.1,0.7,0.5L61.1,38.9z"/>
						<path class="st7" d="M64.4,38.1c0.1,0.4-0.1,0.6-0.5,0.7l-1.3,0.4c-0.4,0.1-0.6-0.1-0.7-0.5l-0.4-1.3
							c-0.1-0.4,0.1-0.6,0.5-0.7l1.3-0.4c0.4-0.1,0.6,0.1,0.7,0.5L64.4,38.1z"/>
						<path class="st7" d="M67.5,37.4c0.1,0.4-0.1,0.6-0.5,0.7l-1.3,0.4c-0.4,0.1-0.6-0.1-0.7-0.5l-0.4-1.3
							c-0.1-0.4,0.1-0.6,0.5-0.7l1.3-0.4c0.4-0.1,0.6,0.1,0.7,0.5L67.5,37.4z"/>
						<path class="st7" d="M57.8,39.6c0.1,0.4-0.1,0.8-0.5,0.9l-16.7,4.2c-0.4,0.1-0.6-0.3-0.7-0.6l-0.3-1c-0.1-0.4,0-0.7,0.4-0.8
							L56.7,38c0.4-0.1,0.7,0.2,0.8,0.5L57.8,39.6L57.8,39.6z"/>
					</g>
				</g>
			</g>
		</g>
	</g>
</g>
</svg>
