<?xml version="1.0" encoding="utf-8"?>
<!-- Generator: Adobe Illustrator 19.2.1, SVG Export Plug-In . SVG Version: 6.00 Build 0)  -->
<svg version="1.1" id="图层_1" xmlns="http://www.w3.org/2000/svg" xmlns:xlink="http://www.w3.org/1999/xlink" x="0px" y="0px"
	 viewBox="0 0 230 139.5" style="enable-background:new 0 0 230 139.5;" xml:space="preserve">
<style type="text/css">
	.st0{fill:#CBC8B8;}
	.st1{fill:#BCBAAF;}
	.st2{fill:#5E5951;}
	.st3{fill:#A7D6D1;}
	.st4{fill:#666666;}
	.st5{fill:#808080;}
	.st6{fill:#999999;}
	.st7{fill:#E6E6E6;}
</style>
<g id="anothertable">
	<g id="chair">
		<g id="char_5_">
			<path class="st0" d="M175.9,62.6c1.4-1.2,2.8-1.9,4-0.5l25.6,29.1c1.2,1.4,0.4,2.7-1.1,3.9c0,0-21.2,18.6-28.3,24.8l-28.5-32.5
				C154.7,81.2,175.9,62.6,175.9,62.6z"/>
			<path class="st1" d="M162.8,139.2c-0.8,0.7-2.5,0.2-3.8-1.2l-31.3-35.6c-1.2-1.4-1.5-3.2-0.7-3.9c0,0,18.7-4.7,22.9-8.4l24.6,28
				C170.4,121.9,162.8,139.2,162.8,139.2z"/>
			<path class="st2" d="M197.4,96.3c0.5-0.4,1.2-0.4,1.6,0.1l3.5,4c0.4,0.5,0.4,1.2-0.1,1.6l-23.2,20.3c-0.5,0.4-1.2,0.4-1.6-0.1
				l-3.5-4c-0.4-0.5-0.4-1.2,0.1-1.6L197.4,96.3z"/>
			<path class="st2" d="M169.2,64c0.5-0.4,1.2-0.4,1.6,0.1l3.5,4c0.4,0.5,0.4,1.2-0.1,1.6L150.9,90c-0.5,0.4-1.2,0.4-1.6-0.1l-3.5-4
				c-0.4-0.5-0.4-1.2,0.1-1.6L169.2,64z"/>
		</g>
		<g id="char_4_">
			<path class="st0" d="M104.6,20.2c0.4-1.8,1.1-3.2,3-2.8l37.7,8.7c1.8,0.4,1.9,2,1.4,3.8c0,0-6.3,27.5-8.5,36.6l-42.1-9.7
				C98.3,47.7,104.6,20.2,104.6,20.2z"/>
			<path class="st1" d="M138.7,90c-0.2,1.1-1.9,1.7-3.8,1.2L88.7,80.6c-1.8-0.4-3.1-1.7-2.8-2.8c0,0,12.5-14.7,13.7-20.2L136,66
				C134.7,71.5,138.7,90,138.7,90z"/>
			<path class="st2" d="M141.7,34.9c0.1-0.6,0.7-1,1.4-0.8l5.1,1.2c0.6,0.1,1,0.7,0.8,1.4l-6.9,30c-0.1,0.6-0.7,1-1.4,0.8l-5.1-1.2
				c-0.6-0.1-1-0.7-0.8-1.4L141.7,34.9z"/>
			<path class="st2" d="M100,25.3c0.1-0.6,0.7-1,1.4-0.8l5.1,1.2c0.6,0.1,1,0.7,0.8,1.4l-6.9,30c-0.1,0.6-0.7,1-1.4,0.8l-5.1-1.2
				c-0.6-0.1-1-0.7-0.8-1.4L100,25.3z"/>
		</g>
		<g id="char_3_">
			<path class="st0" d="M27.6,43.1c-0.3-1.8-0.1-3.4,1.7-3.7l38.3-5.8c1.9-0.3,2.5,1.2,2.7,3c0,0,4.2,27.9,5.6,37.2l-42.8,6.5
				C31.8,71,27.6,43.1,27.6,43.1z"/>
			<path class="st1" d="M85,95.4c0.2,1.1-1.2,2.2-3,2.5l-46.8,7.1c-1.8,0.3-3.5-0.4-3.7-1.5c0,0,6.2-18.3,5.3-23.8l36.9-5.6
				C74.5,79.7,85,95.4,85,95.4z"/>
			<path class="st2" d="M67.5,43.1c-0.1-0.6,0.3-1.2,0.9-1.3l5.2-0.8c0.6-0.1,1.2,0.3,1.3,0.9l4.6,30.5c0.1,0.6-0.3,1.2-0.9,1.3
				l-5.2,0.8c-0.6,0.1-1.2-0.3-1.3-0.9L67.5,43.1z"/>
			<path class="st2" d="M25.1,49.5c-0.1-0.6,0.3-1.2,0.9-1.3l5.2-0.8c0.6-0.1,1.2,0.3,1.3,0.9l4.6,30.5c0.1,0.6-0.3,1.2-0.9,1.3
				L31,81c-0.6,0.1-1.2-0.3-1.3-0.9L25.1,49.5z"/>
		</g>
	</g>
	<path class="st3" d="M229.9,134.6c0,0-5.3-98.2-88.1-124.6C76.8-8.7,0.9,30.5,0.9,30.5l17.9,34.2c0,0,64.1-37.2,110.2-22.2
		c55.3,18.3,60.8,92,60.8,92H229.9z"/>
	<g id="desktop_6_">
		<g id="desktop_5_">
			<g id="monitor_6_">
				<path d="M198.6,64.7c0.3-0.2,0.7-0.1,0.9,0.2l8.5,14c0.2,0.3,0.1,0.7-0.2,0.9l-2.3,1.4c-0.3,0.2-0.7,0.1-0.9-0.2l-8.5-14
					c-0.2-0.3-0.1-0.7,0.2-0.9L198.6,64.7z"/>
				<path class="st4" d="M189.9,43.2c0.8-0.5,3.4,1.7,4.3,3.2l28.4,45.1c0.9,1.4,1.8,5.1,1,5.6l-2.8,1.8c-0.8,0.5-2.5-0.2-3.4-1.6
					l-30.7-49c-0.9-1.4-0.4-2.8,0.3-3.3L189.9,43.2z"/>
			</g>
			<g id="keyboard_5_">
				<path class="st5" d="M198.1,107.2c-1.1,0.7-2.9,1-3.4,0.3l-27-43.1c-0.5-0.8,0.5-2.4,1.6-3.1l9.8-6.2c1.1-0.7,2.1-0.3,2.6,0.5
					l27,43.1c0.5,0.8,0.3,1.7-0.8,2.3L198.1,107.2L198.1,107.2z"/>
				<path class="st6" d="M198.9,106.7c-1,0.6-2.7,1.1-3.2,0.3l-27.1-43.2c-0.5-0.8,0.4-2.4,1.5-3l9.2-5.7c1-0.6,2-0.2,2.5,0.6
					l27.1,43.2c0.5,0.8,0.3,1.5-0.8,2.1L198.9,106.7z"/>
				<g id="key_5_">
					<g id="line1_6_">
						<path class="st7" d="M204.9,98.5c-0.3,0.2-0.7,0.1-0.9-0.2l-2.9-4.7c-0.2-0.3-0.1-0.7,0.2-0.9l1.2-0.8
							c0.3-0.2,0.7-0.1,0.9,0.2l2.9,4.7c0.2,0.3,0.1,0.7-0.2,0.9L204.9,98.5z"/>
						<path class="st7" d="M185.9,68.2c-0.3,0.2-0.7,0.1-0.9-0.2l-0.8-1.2c-0.2-0.3-0.1-0.7,0.2-0.9l1.2-0.8
							c0.3-0.2,0.7-0.1,0.9,0.2l0.8,1.2c0.2,0.3,0.1,0.7-0.2,0.9L185.9,68.2z"/>
						<path class="st7" d="M187.7,71.1c-0.3,0.2-0.7,0.1-0.9-0.2l-0.8-1.2c-0.2-0.3-0.1-0.7,0.2-0.9l1.2-0.8
							c0.3-0.2,0.7-0.1,0.9,0.2l0.8,1.2c0.2,0.3,0.1,0.7-0.2,0.9L187.7,71.1z"/>
						<path class="st7" d="M189.6,74c-0.3,0.2-0.7,0.1-0.9-0.2l-0.8-1.2c-0.2-0.3-0.1-0.7,0.2-0.9l1.2-0.8c0.3-0.2,0.7-0.1,0.9,0.2
							l0.8,1.2c0.2,0.3,0.1,0.7-0.2,0.9L189.6,74z"/>
						<path class="st7" d="M191.6,77.2c-0.3,0.2-0.7,0.1-0.9-0.2l-0.8-1.2c-0.2-0.3-0.1-0.7,0.2-0.9l1.2-0.8
							c0.3-0.2,0.7-0.1,0.9,0.2l0.8,1.2c0.2,0.3,0.1,0.7-0.2,0.9L191.6,77.2z"/>
						<path class="st7" d="M193.4,80.1c-0.3,0.2-0.7,0.1-0.9-0.2l-0.8-1.2c-0.2-0.3-0.1-0.7,0.2-0.9l1.2-0.8
							c0.3-0.2,0.7-0.1,0.9,0.2l0.8,1.2c0.2,0.3,0.1,0.7-0.2,0.9L193.4,80.1z"/>
						<path class="st7" d="M195.3,83.1c-0.3,0.2-0.7,0.1-0.9-0.2l-0.8-1.2c-0.2-0.3-0.1-0.7,0.2-0.9L195,80c0.3-0.2,0.7-0.1,0.9,0.2
							l0.8,1.2c0.2,0.3,0.1,0.7-0.2,0.9L195.3,83.1z"/>
						<path class="st7" d="M197.1,86.1c-0.3,0.2-0.7,0.1-0.9-0.2l-0.8-1.2c-0.2-0.3-0.1-0.7,0.2-0.9l1.2-0.8
							c0.3-0.2,0.7-0.1,0.9,0.2l0.8,1.2c0.2,0.3,0.1,0.7-0.2,0.9L197.1,86.1z"/>
						<path class="st7" d="M199.1,89.2c-0.3,0.2-0.7,0.1-0.9-0.2l-0.8-1.2c-0.2-0.3-0.1-0.7,0.2-0.9l1.2-0.8
							c0.3-0.2,0.7-0.1,0.9,0.2l0.8,1.2c0.2,0.3,0.1,0.7-0.2,0.9L199.1,89.2z"/>
						<path class="st7" d="M200.9,92.1c-0.3,0.2-0.7,0.1-0.9-0.2l-0.8-1.2c-0.2-0.3-0.1-0.7,0.2-0.9l1.2-0.8
							c0.3-0.2,0.7-0.1,0.9,0.2l0.8,1.2c0.2,0.3,0.1,0.7-0.2,0.9L200.9,92.1z"/>
						<path class="st7" d="M184.1,65.2c-0.3,0.2-0.7,0.1-0.9-0.2l-2.9-4.7c-0.2-0.3-0.1-0.7,0.2-0.9l1.2-0.8
							c0.3-0.2,0.7-0.1,0.9,0.2l2.9,4.7c0.2,0.3,0.1,0.7-0.2,0.9L184.1,65.2z"/>
					</g>
					<g id="line2_5_">
						<path class="st7" d="M180.2,66.2c-0.3,0.2-0.7,0.1-0.9-0.2l-0.8-1.2c-0.2-0.3-0.1-0.7,0.2-0.9l1.2-0.8
							c0.3-0.2,0.7-0.1,0.9,0.2l0.8,1.2c0.2,0.3,0.1,0.7-0.2,0.9L180.2,66.2z"/>
						<path class="st7" d="M182,69.1c-0.3,0.2-0.7,0.1-0.9-0.2l-0.8-1.2c-0.2-0.3-0.1-0.7,0.2-0.9l1.2-0.8c0.3-0.2,0.7-0.1,0.9,0.2
							l0.8,1.2c0.2,0.3,0.1,0.7-0.2,0.9L182,69.1z"/>
						<path class="st7" d="M183.8,71.9c-0.3,0.2-0.7,0.1-0.9-0.2l-0.8-1.2c-0.2-0.3-0.1-0.7,0.2-0.9l1.2-0.8
							c0.3-0.2,0.7-0.1,0.9,0.2l0.8,1.2c0.2,0.3,0.1,0.7-0.2,0.9L183.8,71.9z"/>
						<path class="st7" d="M185.8,75c-0.3,0.2-0.7,0.1-0.9-0.2l-0.8-1.2c-0.2-0.3-0.1-0.7,0.2-0.9l1.2-0.8c0.3-0.2,0.7-0.1,0.9,0.2
							l0.8,1.2c0.2,0.3,0.1,0.7-0.2,0.9L185.8,75z"/>
						<path class="st7" d="M187.5,77.9c-0.3,0.2-0.7,0.1-0.9-0.2l-0.8-1.2c-0.2-0.3-0.1-0.7,0.2-0.9l1.2-0.8
							c0.3-0.2,0.7-0.1,0.9,0.2l0.8,1.2c0.2,0.3,0.1,0.7-0.2,0.9L187.5,77.9z"/>
						<path class="st7" d="M189.6,81.1c-0.3,0.2-0.7,0.1-0.9-0.2l-0.8-1.2c-0.2-0.3-0.1-0.7,0.2-0.9l1.2-0.8
							c0.3-0.2,0.7-0.1,0.9,0.2l0.8,1.2c0.2,0.3,0.1,0.7-0.2,0.9L189.6,81.1z"/>
						<path class="st7" d="M191.4,84c-0.3,0.2-0.7,0.1-0.9-0.2l-0.8-1.2c-0.2-0.3-0.1-0.7,0.2-0.9l1.2-0.8c0.3-0.2,0.7-0.1,0.9,0.2
							l0.8,1.2c0.2,0.3,0.1,0.7-0.2,0.9L191.4,84z"/>
						<path class="st7" d="M193.2,87c-0.3,0.2-0.7,0.1-0.9-0.2l-0.8-1.2c-0.2-0.3-0.1-0.7,0.2-0.9l1.2-0.8c0.3-0.2,0.7-0.1,0.9,0.2
							l0.8,1.2c0.2,0.3,0.1,0.7-0.2,0.9L193.2,87z"/>
						<path class="st7" d="M195.2,90.2c-0.3,0.2-0.7,0.1-0.9-0.2l-0.8-1.2c-0.2-0.3-0.1-0.7,0.2-0.9L195,87c0.3-0.2,0.7-0.1,0.9,0.2
							l0.8,1.2c0.2,0.3,0.1,0.7-0.2,0.9L195.2,90.2z"/>
						<path class="st7" d="M197,93.1c-0.3,0.2-0.7,0.1-0.9-0.2l-0.8-1.2c-0.2-0.3-0.1-0.7,0.2-0.9l1.2-0.8c0.3-0.2,0.7-0.1,0.9,0.2
							l0.8,1.2c0.2,0.3,0.1,0.7-0.2,0.9L197,93.1z"/>
						<path class="st7" d="M199.1,96.3c-0.3,0.2-0.7,0.1-0.9-0.2l-0.8-1.2c-0.2-0.3-0.1-0.7,0.2-0.9l1.2-0.8
							c0.3-0.2,0.7-0.1,0.9,0.2l0.8,1.2c0.2,0.3,0.1,0.7-0.2,0.9L199.1,96.3z"/>
						<path class="st7" d="M200.9,99.2c-0.3,0.2-0.7,0.1-0.9-0.2l-0.8-1.2c-0.2-0.3-0.1-0.7,0.2-0.9l1.2-0.8
							c0.3-0.2,0.7-0.1,0.9,0.2l0.8,1.2c0.2,0.3,0.1,0.7-0.2,0.9L200.9,99.2z"/>
					</g>
					<g id="line3_6_">
						<path class="st7" d="M198.7,102.4c-0.3,0.2-0.7,0.1-0.9-0.2l-2.9-4.7c-0.2-0.3-0.1-0.7,0.2-0.9l1.2-0.8
							c0.3-0.2,0.7-0.1,0.9,0.2l2.9,4.7c0.2,0.3,0.1,0.7-0.2,0.9L198.7,102.4z"/>
						<path class="st7" d="M179.7,72.1c-0.3,0.2-0.7,0.1-0.9-0.2l-0.8-1.2c-0.2-0.3-0.1-0.7,0.2-0.9l1.2-0.8
							c0.3-0.2,0.7-0.1,0.9,0.2l0.8,1.2c0.2,0.3,0.1,0.7-0.2,0.9L179.7,72.1z"/>
						<path class="st7" d="M181.5,75c-0.3,0.2-0.7,0.1-0.9-0.2l-0.8-1.2c-0.2-0.3-0.1-0.7,0.2-0.9l1.2-0.8c0.3-0.2,0.7-0.1,0.9,0.2
							l0.8,1.2c0.2,0.3,0.1,0.7-0.2,0.9L181.5,75z"/>
						<path class="st7" d="M183.4,78c-0.3,0.2-0.7,0.1-0.9-0.2l-0.8-1.2c-0.2-0.3-0.1-0.7,0.2-0.9l1.2-0.8c0.3-0.2,0.7-0.1,0.9,0.2
							l0.8,1.2c0.2,0.3,0.1,0.7-0.2,0.9L183.4,78z"/>
						<path class="st7" d="M185.3,81c-0.3,0.2-0.7,0.1-0.9-0.2l-0.8-1.2c-0.2-0.3-0.1-0.7,0.2-0.9l1.2-0.8c0.3-0.2,0.7-0.1,0.9,0.2
							l0.8,1.2c0.2,0.3,0.1,0.7-0.2,0.9L185.3,81z"/>
						<path class="st7" d="M187.1,83.9c-0.3,0.2-0.7,0.1-0.9-0.2l-0.8-1.2c-0.2-0.3-0.1-0.7,0.2-0.9l1.2-0.8
							c0.3-0.2,0.7-0.1,0.9,0.2l0.8,1.2c0.2,0.3,0.1,0.7-0.2,0.9L187.1,83.9z"/>
						<path class="st7" d="M189.1,87.1c-0.3,0.2-0.7,0.1-0.9-0.2l-0.8-1.2c-0.2-0.3-0.1-0.7,0.2-0.9l1.2-0.8
							c0.3-0.2,0.7-0.1,0.9,0.2l0.8,1.2c0.2,0.3,0.1,0.7-0.2,0.9L189.1,87.1z"/>
						<path class="st7" d="M190.9,90c-0.3,0.2-0.7,0.1-0.9-0.2l-0.8-1.2c-0.2-0.3-0.1-0.7,0.2-0.9l1.2-0.8c0.3-0.2,0.7-0.1,0.9,0.2
							l0.8,1.2c0.2,0.3,0.1,0.7-0.2,0.9L190.9,90z"/>
						<path class="st7" d="M192.9,93.1c-0.3,0.2-0.7,0.1-0.9-0.2l-0.8-1.2c-0.2-0.3-0.1-0.7,0.2-0.9l1.2-0.8
							c0.3-0.2,0.7-0.1,0.9,0.2l0.8,1.2c0.2,0.3,0.1,0.7-0.2,0.9L192.9,93.1z"/>
						<path class="st7" d="M194.7,96c-0.3,0.2-0.7,0.1-0.9-0.2l-0.8-1.2c-0.2-0.3-0.1-0.7,0.2-0.9l1.2-0.8c0.3-0.2,0.7-0.1,0.9,0.2
							l0.8,1.2c0.2,0.3,0.1,0.7-0.2,0.9L194.7,96z"/>
						<path class="st7" d="M177.8,69.1c-0.3,0.2-0.7,0.1-0.9-0.2l-2.9-4.7c-0.2-0.3-0.1-0.7,0.2-0.9l1.2-0.8
							c0.3-0.2,0.7-0.1,0.9,0.2l2.9,4.7c0.2,0.3,0.1,0.7-0.2,0.9L177.8,69.1z"/>
					</g>
					<g id="line4_5_">
						<path class="st7" d="M174.2,70.1c-0.3,0.2-0.7,0.1-0.9-0.2l-0.8-1.2c-0.2-0.3-0.1-0.7,0.2-0.9l1.2-0.8
							c0.3-0.2,0.7-0.1,0.9,0.2l0.8,1.2c0.2,0.3,0.1,0.7-0.2,0.9L174.2,70.1z"/>
						<path class="st7" d="M176,73.1c-0.3,0.2-0.7,0.1-0.9-0.2l-0.8-1.2c-0.2-0.3-0.1-0.7,0.2-0.9l1.2-0.8c0.3-0.2,0.7-0.1,0.9,0.2
							l0.8,1.2c0.2,0.3,0.1,0.7-0.2,0.9L176,73.1z"/>
						<path class="st7" d="M177.8,76c-0.3,0.2-0.7,0.1-0.9-0.2l-0.8-1.2c-0.2-0.3-0.1-0.7,0.2-1l1.2-0.8c0.3-0.2,0.7-0.1,0.9,0.2
							l0.8,1.2c0.2,0.3,0.1,0.7-0.2,0.9L177.8,76z"/>
						<path class="st7" d="M190.8,96.8c-0.3,0.2-0.7,0.1-0.9-0.2l-0.8-1.2c-0.2-0.3-0.1-0.7,0.2-0.9l1.2-0.8
							c0.3-0.2,0.7-0.1,0.9,0.2l0.8,1.2c0.2,0.3,0.1,0.7-0.2,0.9L190.8,96.8z"/>
						<path class="st7" d="M192.8,100c-0.3,0.2-0.7,0.1-0.9-0.2l-0.8-1.2c-0.2-0.3-0.1-0.7,0.2-0.9l1.2-0.8c0.3-0.2,0.7-0.1,0.9,0.2
							l0.8,1.2c0.2,0.3,0.1,0.7-0.2,0.9L192.8,100z"/>
						<path class="st7" d="M194.7,102.9c-0.3,0.2-0.7,0.1-0.9-0.2l-0.8-1.2c-0.2-0.3-0.1-0.7,0.2-0.9l1.2-0.8
							c0.3-0.2,0.7-0.1,0.9,0.2l0.8,1.2c0.2,0.3,0.1,0.7-0.2,0.9L194.7,102.9z"/>
						<path class="st7" d="M189.1,93.6c-0.4,0.2-0.9,0.2-1.1-0.1l-10-16c-0.2-0.3,0-0.7,0.4-1l1-0.6c0.4-0.2,0.8-0.2,1,0.1l10,16
							c0.2,0.3,0.1,0.8-0.3,1L189.1,93.6L189.1,93.6z"/>
					</g>
				</g>
			</g>
		</g>
		<g id="desktop_4_">
			<g id="monitor_4_">
				<path d="M123.2,10.2c0.1-0.4,0.4-0.6,0.8-0.5l15.9,4.1c0.3,0.1,0.6,0.4,0.5,0.8l-0.7,2.5c-0.1,0.4-0.4,0.6-0.8,0.5l-15.9-4.1
					c-0.3-0.1-0.6-0.4-0.5-0.8L123.2,10.2z"/>
				<path class="st4" d="M102,1c0.2-0.9,3.7-1.2,5.3-0.8l51.9,12.4c1.6,0.4,4.8,2.4,4.6,3.3l-0.8,3.2c-0.2,0.9-1.9,1.6-3.5,1.2
					L103.3,6.8c-1.6-0.4-2.3-1.7-2.1-2.6L102,1z"/>
			</g>
			<g id="keyboard_4_">
				<path class="st5" d="M152.6,40.9c-0.3,1.2-1.4,2.8-2.2,2.6L101,31.6c-0.9-0.2-1.3-2.1-1-3.3l2.7-11.3c0.3-1.2,1.3-1.7,2.2-1.5
					l49.4,11.9c0.9,0.2,1.4,1,1.1,2.2L152.6,40.9L152.6,40.9z"/>
				<path class="st6" d="M152.9,40c-0.3,1.2-1.2,2.6-2,2.4l-49.5-11.9c-0.9-0.2-1.4-2-1.1-3.2l2.5-10.5c0.3-1.2,1.3-1.5,2.2-1.3
					l49.5,11.9c0.9,0.2,1.2,0.9,1,2.1L152.9,40z"/>
				<g id="key_4_">
					<g id="line1_5_">
						<path class="st7" d="M151.4,30c-0.1,0.4-0.5,0.6-0.8,0.5l-5.4-1.3c-0.4-0.1-0.6-0.5-0.5-0.8l0.3-1.4c0.1-0.4,0.5-0.6,0.8-0.5
							l5.4,1.3c0.4,0.1,0.6,0.5,0.5,0.8L151.4,30z"/>
						<path class="st7" d="M116.6,21.6c-0.1,0.4-0.5,0.6-0.8,0.5l-1.4-0.3c-0.4-0.1-0.6-0.5-0.5-0.8l0.3-1.4
							c0.1-0.4,0.5-0.6,0.8-0.5l1.4,0.3c0.4,0.1,0.6,0.5,0.5,0.8L116.6,21.6z"/>
						<path class="st7" d="M119.9,22.4c-0.1,0.4-0.5,0.6-0.8,0.5l-1.4-0.3c-0.4-0.1-0.6-0.5-0.5-0.8l0.3-1.4
							c0.1-0.4,0.5-0.6,0.8-0.5l1.4,0.3c0.4,0.1,0.6,0.5,0.5,0.8L119.9,22.4z"/>
						<path class="st7" d="M123.3,23.2c-0.1,0.4-0.5,0.6-0.8,0.5l-1.4-0.3c-0.4-0.1-0.6-0.5-0.5-0.8l0.3-1.4
							c0.1-0.4,0.5-0.6,0.8-0.5l1.4,0.3c0.4,0.1,0.6,0.5,0.5,0.8L123.3,23.2z"/>
						<path class="st7" d="M127,24.1c-0.1,0.4-0.5,0.6-0.8,0.5l-1.4-0.3c-0.4-0.1-0.6-0.5-0.5-0.8l0.3-1.4c0.1-0.4,0.5-0.6,0.8-0.5
							l1.4,0.3c0.4,0.1,0.6,0.5,0.5,0.8L127,24.1z"/>
						<path class="st7" d="M130.3,24.9c-0.1,0.4-0.5,0.6-0.8,0.5L128,25c-0.4-0.1-0.6-0.5-0.5-0.8l0.3-1.4c0.1-0.4,0.5-0.6,0.8-0.5
							l1.4,0.3c0.4,0.1,0.6,0.5,0.5,0.8L130.3,24.9z"/>
						<path class="st7" d="M133.8,25.7c-0.1,0.4-0.5,0.6-0.8,0.5l-1.4-0.3c-0.4-0.1-0.6-0.5-0.5-0.8l0.3-1.4
							c0.1-0.4,0.5-0.6,0.8-0.5l1.4,0.3c0.4,0.1,0.6,0.5,0.5,0.8L133.8,25.7z"/>
						<path class="st7" d="M137.2,26.5c-0.1,0.4-0.5,0.6-0.8,0.5l-1.4-0.3c-0.4-0.1-0.6-0.5-0.5-0.8l0.3-1.4
							c0.1-0.4,0.5-0.6,0.8-0.5l1.4,0.3c0.4,0.1,0.6,0.5,0.5,0.8L137.2,26.5z"/>
						<path class="st7" d="M140.7,27.4c-0.1,0.4-0.5,0.6-0.8,0.5l-1.4-0.3c-0.4-0.1-0.6-0.5-0.5-0.8l0.3-1.4
							c0.1-0.4,0.5-0.6,0.8-0.5l1.4,0.3c0.4,0.1,0.6,0.5,0.5,0.8L140.7,27.4z"/>
						<path class="st7" d="M144.1,28.2c-0.1,0.4-0.5,0.6-0.8,0.5l-1.4-0.3c-0.4-0.1-0.6-0.5-0.5-0.8l0.3-1.4
							c0.1-0.4,0.5-0.6,0.8-0.5l1.4,0.3c0.4,0.1,0.6,0.5,0.5,0.8L144.1,28.2z"/>
						<path class="st7" d="M113.2,20.8c-0.1,0.4-0.5,0.6-0.8,0.5L107,20c-0.4-0.1-0.6-0.5-0.5-0.8l0.3-1.4c0.1-0.4,0.5-0.6,0.8-0.5
							l5.4,1.3c0.4,0.1,0.6,0.5,0.5,0.8L113.2,20.8z"/>
					</g>
					<g id="line2_4_">
						<path class="st7" d="M111.1,24.1c-0.1,0.4-0.5,0.6-0.8,0.5l-1.4-0.3c-0.4-0.1-0.6-0.5-0.5-0.8l0.3-1.4
							c0.1-0.4,0.5-0.6,0.8-0.5l1.4,0.3c0.4,0.1,0.6,0.5,0.5,0.8L111.1,24.1z"/>
						<path class="st7" d="M114.5,24.9c-0.1,0.4-0.5,0.6-0.8,0.5l-1.4-0.3c-0.4-0.1-0.6-0.5-0.5-0.8l0.3-1.4
							c0.1-0.4,0.5-0.6,0.8-0.5l1.4,0.3c0.4,0.1,0.6,0.5,0.5,0.8L114.5,24.9z"/>
						<path class="st7" d="M117.7,25.7c-0.1,0.4-0.5,0.6-0.8,0.5l-1.4-0.3c-0.4-0.1-0.6-0.5-0.5-0.8l0.3-1.4
							c0.1-0.4,0.5-0.6,0.8-0.5l1.4,0.3c0.4,0.1,0.6,0.5,0.5,0.8L117.7,25.7z"/>
						<path class="st7" d="M121.3,26.6c-0.1,0.4-0.5,0.6-0.8,0.5l-1.4-0.3c-0.4-0.1-0.6-0.5-0.5-0.8l0.3-1.4
							c0.1-0.4,0.5-0.6,0.8-0.5l1.4,0.3c0.4,0.1,0.6,0.5,0.5,0.8L121.3,26.6z"/>
						<path class="st7" d="M124.6,27.4c-0.1,0.4-0.5,0.6-0.8,0.5l-1.4-0.3c-0.4-0.1-0.6-0.5-0.5-0.8l0.3-1.4
							c0.1-0.4,0.5-0.6,0.8-0.5l1.4,0.3c0.4,0.1,0.6,0.5,0.5,0.8L124.6,27.4z"/>
						<path class="st7" d="M128.3,28.3c-0.1,0.4-0.5,0.6-0.8,0.5l-1.4-0.3c-0.4-0.1-0.6-0.5-0.5-0.8l0.3-1.4
							c0.1-0.4,0.5-0.6,0.8-0.5l1.4,0.3c0.4,0.1,0.6,0.5,0.5,0.8L128.3,28.3z"/>
						<path class="st7" d="M131.6,29.1c-0.1,0.4-0.5,0.6-0.8,0.5l-1.4-0.3c-0.4-0.1-0.6-0.5-0.5-0.8l0.3-1.4
							c0.1-0.4,0.5-0.6,0.8-0.5l1.4,0.3c0.4,0.1,0.6,0.5,0.5,0.8L131.6,29.1z"/>
						<path class="st7" d="M135,29.9c-0.1,0.4-0.5,0.6-0.8,0.5l-1.4-0.3c-0.4-0.1-0.6-0.5-0.5-0.8l0.3-1.4c0.1-0.4,0.5-0.6,0.8-0.5
							l1.4,0.3c0.4,0.1,0.6,0.5,0.5,0.8L135,29.9z"/>
						<path class="st7" d="M138.6,30.8c-0.1,0.4-0.5,0.6-0.8,0.5l-1.4-0.3c-0.4-0.1-0.6-0.5-0.5-0.8l0.3-1.4
							c0.1-0.4,0.5-0.6,0.8-0.5l1.4,0.3c0.4,0.1,0.6,0.5,0.5,0.8L138.6,30.8z"/>
						<path class="st7" d="M142,31.6c-0.1,0.4-0.5,0.6-0.8,0.5l-1.4-0.3c-0.4-0.1-0.6-0.5-0.5-0.8l0.3-1.4c0.1-0.4,0.5-0.6,0.8-0.5
							l1.4,0.3c0.4,0.1,0.6,0.5,0.5,0.8L142,31.6z"/>
						<path class="st7" d="M145.7,32.5c-0.1,0.4-0.5,0.6-0.8,0.5l-1.4-0.3c-0.4-0.1-0.6-0.5-0.5-0.8l0.3-1.4
							c0.1-0.4,0.5-0.6,0.8-0.5l1.4,0.3c0.4,0.1,0.6,0.5,0.5,0.8L145.7,32.5z"/>
						<path class="st7" d="M149,33.3c-0.1,0.4-0.5,0.6-0.8,0.5l-1.4-0.3c-0.4-0.1-0.6-0.5-0.5-0.8l0.3-1.4c0.1-0.4,0.5-0.6,0.8-0.5
							l1.4,0.3c0.4,0.1,0.6,0.5,0.5,0.8L149,33.3z"/>
					</g>
					<g id="line3_5_">
						<path class="st7" d="M149.7,37.1c-0.1,0.4-0.5,0.6-0.8,0.5l-5.4-1.3c-0.4-0.1-0.6-0.5-0.5-0.8l0.3-1.4
							c0.1-0.4,0.5-0.6,0.8-0.5l5.4,1.3c0.4,0.1,0.6,0.5,0.5,0.8L149.7,37.1z"/>
						<path class="st7" d="M114.9,28.7c-0.1,0.4-0.5,0.6-0.8,0.5l-1.4-0.3c-0.4-0.1-0.6-0.5-0.5-0.8l0.3-1.4
							c0.1-0.4,0.5-0.6,0.8-0.5l1.4,0.3c0.4,0.1,0.6,0.5,0.5,0.8L114.9,28.7z"/>
						<path class="st7" d="M118.3,29.5c-0.1,0.4-0.5,0.6-0.8,0.5l-1.4-0.3c-0.4-0.1-0.6-0.5-0.5-0.8l0.3-1.4
							c0.1-0.4,0.5-0.6,0.8-0.5l1.4,0.3c0.4,0.1,0.6,0.5,0.5,0.8L118.3,29.5z"/>
						<path class="st7" d="M121.6,30.3c-0.1,0.4-0.5,0.6-0.8,0.5l-1.4-0.3c-0.4-0.1-0.6-0.5-0.5-0.8l0.3-1.4
							c0.1-0.4,0.5-0.6,0.8-0.5l1.4,0.3c0.4,0.1,0.6,0.5,0.5,0.8L121.6,30.3z"/>
						<path class="st7" d="M125.1,31.2c-0.1,0.4-0.5,0.6-0.8,0.5l-1.4-0.3c-0.4-0.1-0.6-0.5-0.5-0.8l0.3-1.4
							c0.1-0.4,0.5-0.6,0.8-0.5l1.4,0.3c0.4,0.1,0.6,0.5,0.5,0.8L125.1,31.2z"/>
						<path class="st7" d="M128.5,32c-0.1,0.4-0.5,0.6-0.8,0.5l-1.4-0.3c-0.4-0.1-0.6-0.5-0.5-0.8l0.3-1.4c0.1-0.4,0.5-0.6,0.8-0.5
							l1.4,0.3c0.4,0.1,0.6,0.5,0.5,0.8L128.5,32z"/>
						<path class="st7" d="M132.1,32.9c-0.1,0.4-0.5,0.6-0.8,0.5l-1.4-0.3c-0.4-0.1-0.6-0.5-0.5-0.8l0.3-1.4
							c0.1-0.4,0.5-0.6,0.8-0.5l1.4,0.3c0.4,0.1,0.6,0.5,0.5,0.8L132.1,32.9z"/>
						<path class="st7" d="M135.5,33.7c-0.1,0.4-0.5,0.6-0.8,0.5l-1.4-0.3c-0.4-0.1-0.6-0.5-0.5-0.8l0.3-1.4
							c0.1-0.4,0.5-0.6,0.8-0.5l1.4,0.3c0.4,0.1,0.6,0.5,0.5,0.8L135.5,33.7z"/>
						<path class="st7" d="M139,34.5c-0.1,0.4-0.5,0.6-0.8,0.5l-1.4-0.3c-0.4-0.1-0.6-0.5-0.5-0.8l0.3-1.4c0.1-0.4,0.5-0.6,0.8-0.5
							l1.4,0.3c0.4,0.1,0.6,0.5,0.5,0.8L139,34.5z"/>
						<path class="st7" d="M142.4,35.3c-0.1,0.4-0.5,0.6-0.8,0.5l-1.4-0.3c-0.4-0.1-0.6-0.5-0.5-0.8l0.3-1.4
							c0.1-0.4,0.5-0.6,0.8-0.5l1.4,0.3c0.4,0.1,0.6,0.5,0.5,0.8L142.4,35.3z"/>
						<path class="st7" d="M111.5,27.9c-0.1,0.4-0.5,0.6-0.8,0.5l-5.4-1.3c-0.4-0.1-0.6-0.5-0.5-0.8l0.3-1.4
							c0.1-0.4,0.5-0.6,0.8-0.5l5.4,1.3c0.4,0.1,0.6,0.5,0.5,0.8L111.5,27.9z"/>
					</g>
					<g id="line4_4_">
						<path class="st7" d="M109.6,31.2c-0.1,0.4-0.5,0.6-0.8,0.5l-1.4-0.3c-0.4-0.1-0.6-0.5-0.5-0.8l0.3-1.4
							c0.1-0.4,0.5-0.6,0.8-0.5l1.4,0.3c0.4,0.1,0.6,0.5,0.5,0.8L109.6,31.2z"/>
						<path class="st7" d="M112.9,32c-0.1,0.4-0.5,0.6-0.8,0.5l-1.4-0.3c-0.4-0.1-0.6-0.5-0.5-0.8l0.3-1.4c0.1-0.4,0.5-0.6,0.8-0.5
							l1.4,0.3c0.4,0.1,0.6,0.5,0.5,0.8L112.9,32z"/>
						<path class="st7" d="M116.3,32.8c-0.1,0.4-0.5,0.6-0.8,0.5L114,33c-0.4-0.1-0.6-0.5-0.5-0.8l0.3-1.4c0.1-0.4,0.5-0.6,0.8-0.5
							l1.4,0.3c0.4,0.1,0.6,0.5,0.5,0.8L116.3,32.8z"/>
						<path class="st7" d="M140.1,38.6c-0.1,0.4-0.5,0.6-0.8,0.5l-1.4-0.3c-0.4-0.1-0.6-0.5-0.5-0.8l0.3-1.4
							c0.1-0.4,0.5-0.6,0.8-0.5l1.4,0.3c0.4,0.1,0.6,0.5,0.5,0.8L140.1,38.6z"/>
						<path class="st7" d="M143.8,39.4c-0.1,0.4-0.5,0.6-0.8,0.5l-1.4-0.3c-0.4-0.1-0.6-0.5-0.5-0.8l0.3-1.4
							c0.1-0.4,0.5-0.6,0.8-0.5l1.4,0.3c0.4,0.1,0.6,0.5,0.5,0.8L143.8,39.4z"/>
						<path class="st7" d="M147.1,40.3c-0.1,0.4-0.5,0.6-0.8,0.5l-1.4-0.3c-0.4-0.1-0.6-0.5-0.5-0.8l0.3-1.4
							c0.1-0.4,0.5-0.6,0.8-0.5L147,38c0.4,0.1,0.6,0.5,0.5,0.8L147.1,40.3z"/>
						<path class="st7" d="M136.7,37.5c-0.1,0.4-0.5,0.8-0.9,0.7l-18.3-4.4c-0.4-0.1-0.5-0.6-0.4-1l0.3-1.1c0.1-0.4,0.4-0.7,0.8-0.6
							l18.3,4.4c0.4,0.1,0.6,0.5,0.5,0.9L136.7,37.5L136.7,37.5z"/>
					</g>
				</g>
			</g>
		</g>
		<g id="desktop_3_">
			<g id="monitor_3_">
				<path d="M34.6,22.5c-0.1-0.4,0.1-0.7,0.5-0.8l16-3.8c0.4-0.1,0.7,0.1,0.8,0.5l0.6,2.6c0.1,0.4-0.1,0.7-0.5,0.8l-16,3.8
					c-0.4,0.1-0.7-0.1-0.8-0.5L34.6,22.5z"/>
				<path class="st4" d="M11.6,24.2c-0.2-0.9,2.7-2.7,4.3-3.2L67.6,7.9c1.6-0.4,5.4-0.1,5.6,0.8l0.8,3.2c0.2,0.9-0.9,2.3-2.6,2.7
					L15.4,28.7c-1.6,0.4-2.8-0.4-3-1.3L11.6,24.2z"/>
			</g>
			<g id="keyboard_3_">
				<path class="st5" d="M75,36.1c0.3,1.2,0.1,3.1-0.8,3.3L24.9,51.8c-0.9,0.2-2.2-1.2-2.5-2.5L19.6,38c-0.3-1.2,0.4-2.1,1.3-2.3
					l49.3-12.4c0.9-0.2,1.7,0.2,2,1.5L75,36.1L75,36.1z"/>
				<path class="st6" d="M74.7,35.2c0.3,1.2,0.2,2.9-0.7,3.1L24.6,50.7c-0.9,0.2-2.1-1.2-2.4-2.3l-2.6-10.5
					c-0.3-1.2,0.4-1.9,1.3-2.2l49.4-12.4c0.9-0.2,1.5,0.2,1.8,1.4L74.7,35.2z"/>
				<g id="key_3_">
					<g id="line1_4_">
						<path class="st7" d="M68.8,27c0.1,0.4-0.1,0.7-0.5,0.8l-5.4,1.4c-0.4,0.1-0.7-0.1-0.8-0.5l-0.4-1.4c-0.1-0.4,0.1-0.7,0.5-0.8
							l5.4-1.4c0.4-0.1,0.7,0.1,0.8,0.5L68.8,27z"/>
						<path class="st7" d="M34,35.7c0.1,0.4-0.1,0.7-0.5,0.8l-1.4,0.4c-0.4,0.1-0.7-0.1-0.8-0.5L30.9,35c-0.1-0.4,0.1-0.7,0.5-0.8
							l1.4-0.4c0.4-0.1,0.7,0.1,0.8,0.5L34,35.7z"/>
						<path class="st7" d="M37.4,34.9c0.1,0.4-0.1,0.7-0.5,0.8L35.5,36c-0.4,0.1-0.7-0.1-0.8-0.5l-0.4-1.4c-0.1-0.4,0.1-0.7,0.5-0.8
							l1.4-0.4c0.4-0.1,0.7,0.1,0.8,0.5L37.4,34.9z"/>
						<path class="st7" d="M40.8,34c0.1,0.4-0.1,0.7-0.5,0.8l-1.4,0.4c-0.4,0.1-0.7-0.1-0.8-0.5l-0.4-1.4c-0.1-0.4,0.1-0.7,0.5-0.8
							l1.4-0.4c0.4-0.1,0.7,0.1,0.8,0.5L40.8,34z"/>
						<path class="st7" d="M44.4,33.1c0.1,0.4-0.1,0.7-0.5,0.8l-1.4,0.4c-0.4,0.1-0.7-0.1-0.8-0.5l-0.4-1.4
							c-0.1-0.4,0.1-0.7,0.5-0.8l1.4-0.4c0.4-0.1,0.7,0.1,0.8,0.5L44.4,33.1z"/>
						<path class="st7" d="M47.7,32.3c0.1,0.4-0.1,0.7-0.5,0.8l-1.4,0.4C45.4,33.6,45,33.3,45,33l-0.4-1.4c-0.1-0.4,0.1-0.7,0.5-0.8
							l1.4-0.4c0.4-0.1,0.7,0.1,0.8,0.5L47.7,32.3z"/>
						<path class="st7" d="M51.2,31.4c0.1,0.4-0.1,0.7-0.5,0.8l-1.4,0.4c-0.4,0.1-0.7-0.1-0.8-0.5l-0.4-1.4
							c-0.1-0.4,0.1-0.7,0.5-0.8l1.4-0.4c0.4-0.1,0.7,0.1,0.8,0.5L51.2,31.4z"/>
						<path class="st7" d="M54.6,30.6c0.1,0.4-0.1,0.7-0.5,0.8l-1.4,0.4c-0.4,0.1-0.7-0.1-0.8-0.5l-0.4-1.4
							c-0.1-0.4,0.1-0.7,0.5-0.8l1.4-0.4c0.4-0.1,0.7,0.1,0.8,0.5L54.6,30.6z"/>
						<path class="st7" d="M58.1,29.7c0.1,0.4-0.1,0.7-0.5,0.8l-1.4,0.4c-0.4,0.1-0.7-0.1-0.8-0.5L55,28.9c-0.1-0.4,0.1-0.7,0.5-0.8
							l1.4-0.4c0.4-0.1,0.7,0.1,0.8,0.5L58.1,29.7z"/>
						<path class="st7" d="M61.5,28.8c0.1,0.4-0.1,0.7-0.5,0.8L59.6,30c-0.4,0.1-0.7-0.1-0.8-0.5l-0.4-1.4c-0.1-0.4,0.1-0.7,0.5-0.8
							l1.4-0.4c0.4-0.1,0.7,0.1,0.8,0.5L61.5,28.8z"/>
						<path class="st7" d="M30.7,36.5c0.1,0.4-0.1,0.7-0.5,0.8l-5.4,1.3c-0.4,0.1-0.7-0.1-0.8-0.5l-0.4-1.4
							c-0.1-0.4,0.1-0.7,0.5-0.8l5.4-1.3c0.4-0.1,0.7,0.1,0.8,0.5L30.7,36.5z"/>
					</g>
					<g id="line2_3_">
						<path class="st7" d="M30.4,40.5c0.1,0.4-0.1,0.7-0.5,0.8l-1.4,0.4c-0.4,0.1-0.7-0.1-0.8-0.5l-0.4-1.4
							c-0.1-0.4,0.1-0.7,0.5-0.8l1.4-0.4c0.4-0.1,0.7,0.1,0.8,0.5L30.4,40.5z"/>
						<path class="st7" d="M33.7,39.7c0.1,0.4-0.1,0.7-0.5,0.8l-1.4,0.4c-0.4,0.1-0.7-0.1-0.8-0.5l-0.4-1.4
							c-0.1-0.4,0.1-0.7,0.5-0.8l1.4-0.4c0.4-0.1,0.7,0.1,0.8,0.5L33.7,39.7z"/>
						<path class="st7" d="M36.9,38.9c0.1,0.4-0.1,0.7-0.5,0.8L35,40.1c-0.4,0.1-0.7-0.1-0.8-0.5l-0.4-1.4c-0.1-0.4,0.1-0.7,0.5-0.8
							l1.4-0.4c0.4-0.1,0.7,0.1,0.8,0.5L36.9,38.9z"/>
						<path class="st7" d="M40.5,38c0.1,0.4-0.1,0.7-0.5,0.8l-1.4,0.4c-0.4,0.1-0.7-0.1-0.8-0.5l-0.4-1.4c-0.1-0.4,0.1-0.7,0.5-0.8
							l1.4-0.4c0.4-0.1,0.7,0.1,0.8,0.5L40.5,38z"/>
						<path class="st7" d="M43.8,37.1c0.1,0.4-0.1,0.7-0.5,0.8l-1.4,0.4c-0.4,0.1-0.7-0.1-0.8-0.5l-0.4-1.4
							c-0.1-0.4,0.1-0.7,0.5-0.8l1.4-0.4c0.4-0.1,0.7,0.1,0.8,0.5L43.8,37.1z"/>
						<path class="st7" d="M47.5,36.2c0.1,0.4-0.1,0.7-0.5,0.8l-1.4,0.4c-0.4,0.1-0.7-0.1-0.8-0.5l-0.4-1.4
							c-0.1-0.4,0.1-0.7,0.5-0.8l1.4-0.4c0.4-0.1,0.7,0.1,0.8,0.5L47.5,36.2z"/>
						<path class="st7" d="M50.8,35.4c0.1,0.4-0.1,0.7-0.5,0.8l-1.4,0.4c-0.4,0.1-0.7-0.1-0.8-0.5l-0.4-1.4
							c-0.1-0.4,0.1-0.7,0.5-0.8l1.4-0.4c0.4-0.1,0.7,0.1,0.8,0.5L50.8,35.4z"/>
						<path class="st7" d="M54.2,34.5c0.1,0.4-0.1,0.7-0.5,0.8l-1.4,0.4c-0.4,0.1-0.7-0.1-0.8-0.5l-0.4-1.4
							c-0.1-0.4,0.1-0.7,0.5-0.8l1.4-0.4c0.4-0.1,0.7,0.1,0.8,0.5L54.2,34.5z"/>
						<path class="st7" d="M57.8,33.6c0.1,0.4-0.1,0.7-0.5,0.8l-1.4,0.4c-0.4,0.1-0.7-0.1-0.8-0.5l-0.4-1.4
							c-0.1-0.4,0.1-0.7,0.5-0.8l1.4-0.4c0.4-0.1,0.7,0.1,0.8,0.5L57.8,33.6z"/>
						<path class="st7" d="M61.2,32.8c0.1,0.4-0.1,0.7-0.5,0.8L59.3,34c-0.4,0.1-0.7-0.1-0.8-0.5l-0.4-1.4c-0.1-0.4,0.1-0.7,0.5-0.8
							l1.4-0.4c0.4-0.1,0.7,0.1,0.8,0.5L61.2,32.8z"/>
						<path class="st7" d="M64.8,31.9c0.1,0.4-0.1,0.7-0.5,0.8l-1.4,0.4c-0.4,0.1-0.7-0.1-0.8-0.5l-0.4-1.4
							c-0.1-0.4,0.1-0.7,0.5-0.8l1.4-0.4c0.4-0.1,0.7,0.1,0.8,0.5L64.8,31.9z"/>
						<path class="st7" d="M68.2,31c0.1,0.4-0.1,0.7-0.5,0.8l-1.4,0.4c-0.4,0.1-0.7-0.1-0.8-0.5l-0.4-1.4c-0.1-0.4,0.1-0.7,0.5-0.8
							l1.4-0.4c0.4-0.1,0.7,0.1,0.8,0.5L68.2,31z"/>
					</g>
					<g id="line3_4_">
						<path class="st7" d="M70.6,34.1c0.1,0.4-0.1,0.7-0.5,0.8l-5.4,1.4c-0.4,0.1-0.7-0.1-0.8-0.5l-0.4-1.4
							c-0.1-0.4,0.1-0.7,0.5-0.8l5.4-1.3c0.4-0.1,0.7,0.1,0.8,0.5L70.6,34.1z"/>
						<path class="st7" d="M35.9,42.8c0.1,0.4-0.1,0.7-0.5,0.8L34,44c-0.4,0.1-0.7-0.1-0.8-0.5l-0.4-1.4c-0.1-0.4,0.1-0.7,0.5-0.8
							l1.4-0.4c0.4-0.1,0.7,0.1,0.8,0.5L35.9,42.8z"/>
						<path class="st7" d="M39.2,42c0.1,0.4-0.1,0.7-0.5,0.8l-1.4,0.4c-0.4,0.1-0.7-0.1-0.8-0.5l-0.4-1.4c-0.1-0.4,0.1-0.7,0.5-0.8
							l1.4-0.4c0.4-0.1,0.7,0.1,0.8,0.5L39.2,42z"/>
						<path class="st7" d="M42.6,41.1c0.1,0.4-0.1,0.7-0.5,0.8l-1.4,0.4c-0.4,0.1-0.7-0.1-0.8-0.5l-0.4-1.4
							c-0.1-0.4,0.1-0.7,0.5-0.8l1.4-0.4c0.4-0.1,0.7,0.1,0.8,0.5L42.6,41.1z"/>
						<path class="st7" d="M46,40.3c0.1,0.4-0.1,0.7-0.5,0.8l-1.4,0.4c-0.4,0.1-0.7-0.1-0.8-0.5l-0.4-1.4c-0.1-0.4,0.1-0.7,0.5-0.8
							l1.4-0.4c0.4-0.1,0.7,0.1,0.8,0.5L46,40.3z"/>
						<path class="st7" d="M49.4,39.4c0.1,0.4-0.1,0.7-0.5,0.8l-1.4,0.4c-0.4,0.1-0.7-0.1-0.8-0.5l-0.4-1.4
							c-0.1-0.4,0.1-0.7,0.5-0.8l1.4-0.4c0.4-0.1,0.7,0.1,0.8,0.5L49.4,39.4z"/>
						<path class="st7" d="M53,38.5c0.1,0.4-0.1,0.7-0.5,0.8l-1.4,0.4c-0.4,0.1-0.7-0.1-0.8-0.5l-0.4-1.4c-0.1-0.4,0.1-0.7,0.5-0.8
							l1.4-0.4c0.4-0.1,0.7,0.1,0.8,0.5L53,38.5z"/>
						<path class="st7" d="M56.4,37.7c0.1,0.4-0.1,0.7-0.5,0.8l-1.4,0.4c-0.4,0.1-0.7-0.1-0.8-0.5l-0.4-1.4
							c-0.1-0.4,0.1-0.7,0.5-0.8l1.4-0.4c0.4-0.1,0.7,0.1,0.8,0.5L56.4,37.7z"/>
						<path class="st7" d="M59.9,36.8c0.1,0.4-0.1,0.7-0.5,0.8L58,38c-0.4,0.1-0.7-0.1-0.8-0.5l-0.4-1.4c-0.1-0.4,0.1-0.7,0.5-0.8
							l1.4-0.4c0.4-0.1,0.7,0.1,0.8,0.5L59.9,36.8z"/>
						<path class="st7" d="M63.3,35.9c0.1,0.4-0.1,0.7-0.5,0.8l-1.4,0.4c-0.4,0.1-0.7-0.1-0.8-0.5l-0.4-1.4
							c-0.1-0.4,0.1-0.7,0.5-0.8l1.4-0.4c0.4-0.1,0.7,0.1,0.8,0.5L63.3,35.9z"/>
						<path class="st7" d="M32.5,43.7c0.1,0.4-0.1,0.7-0.5,0.8l-5.4,1.3c-0.4,0.1-0.7-0.1-0.8-0.5l-0.4-1.4
							c-0.1-0.4,0.1-0.7,0.5-0.8l5.4-1.3c0.4-0.1,0.7,0.1,0.8,0.5L32.5,43.7z"/>
					</g>
					<g id="line4_3_">
						<path class="st7" d="M32.3,47.5c0.1,0.4-0.1,0.7-0.5,0.8l-1.4,0.4c-0.4,0.1-0.7-0.1-0.8-0.5l-0.4-1.4
							c-0.1-0.4,0.1-0.7,0.5-0.8l1.4-0.4c0.4-0.1,0.7,0.1,0.8,0.5L32.3,47.5z"/>
						<path class="st7" d="M35.7,46.6c0.1,0.4-0.1,0.7-0.5,0.8l-1.4,0.4c-0.4,0.1-0.7-0.1-0.8-0.5l-0.4-1.4
							c-0.1-0.4,0.1-0.7,0.5-0.8l1.4-0.4c0.4-0.1,0.7,0.1,0.8,0.5L35.7,46.6z"/>
						<path class="st7" d="M39,45.8c0.1,0.4-0.1,0.7-0.5,0.8L37.1,47c-0.4,0.1-0.7-0.1-0.8-0.5l-0.4-1.4c-0.1-0.4,0.1-0.7,0.5-0.8
							l1.4-0.4c0.4-0.1,0.7,0.1,0.8,0.5L39,45.8z"/>
						<path class="st7" d="M62.8,39.8c0.1,0.4-0.1,0.7-0.5,0.8L60.9,41c-0.4,0.1-0.7-0.1-0.8-0.5l-0.4-1.4c-0.1-0.4,0.1-0.7,0.5-0.8
							l1.4-0.4c0.4-0.1,0.7,0.1,0.8,0.5L62.8,39.8z"/>
						<path class="st7" d="M66.4,38.9c0.1,0.4-0.1,0.7-0.5,0.8l-1.4,0.4c-0.4,0.1-0.7-0.1-0.8-0.5l-0.4-1.4
							c-0.1-0.4,0.1-0.7,0.5-0.8l1.4-0.4c0.4-0.1,0.7,0.1,0.8,0.5L66.4,38.9z"/>
						<path class="st7" d="M69.8,38.1c0.1,0.4-0.1,0.7-0.5,0.8l-1.4,0.4c-0.4,0.1-0.7-0.1-0.8-0.5l-0.4-1.4
							c-0.1-0.4,0.1-0.7,0.5-0.8l1.4-0.4c0.4-0.1,0.7,0.1,0.8,0.5L69.8,38.1z"/>
						<path class="st7" d="M59.2,40.5c0.1,0.4-0.1,0.9-0.5,1l-18.3,4.6c-0.4,0.1-0.7-0.3-0.8-0.7l-0.3-1.1c-0.1-0.4,0-0.8,0.4-0.9
							l18.3-4.6c0.4-0.1,0.8,0.2,0.9,0.6L59.2,40.5L59.2,40.5z"/>
					</g>
				</g>
			</g>
		</g>
	</g>
</g>
</svg>
