<svg id="图层_1" data-name="图层 1" xmlns="http://www.w3.org/2000/svg" viewBox="0 0 480 121.69">
  <defs>
    <style>
      .cls-1 {
        fill: #cbc8b8;
      }

      .cls-2 {
        fill: #bcbaaf;
      }

      .cls-3 {
        fill: #5e5951;
      }

      .cls-4 {
        fill: #a7d6d1;
      }

      .cls-5 {
        fill: #666;
      }

      .cls-6 {
        fill: gray;
      }

      .cls-7 {
        fill: #999;
      }

      .cls-8 {
        fill: #e6e6e6;
      }

      .cls-9 {
        fill: #cfad49;
      }

      .cls-10 {
        fill: #fff;
      }

      .cls-11 {
        fill: #333;
      }

      .cls-12 {
        fill: none;
        stroke: #4b4b4b;
        stroke-linecap: round;
        stroke-miterlimit: 10;
      }

      .cls-13 {
        fill: #f4ecbd;
      }

      .cls-14 {
        fill: #998d74;
      }

      .cls-15 {
        fill: #fc9b7a;
      }

      .cls-16 {
        fill: #fb5856;
      }

      .cls-17 {
        fill: #d8c59a;
      }

      .cls-18 {
        fill: #fbfaf9;
      }

      .cls-19 {
        fill: #9b9296;
      }

      .cls-20 {
        fill: #d8bfc9;
      }

      .cls-21 {
        fill: #e5dcd1;
      }
    </style>
  </defs>
  <title>informationservice-large</title>
  <g id="char">
    <path class="cls-1" d="M274.58,107.19c-0.37,1.62-1,2.85-2.62,2.47l-33.43-7.72c-1.62-.37-1.65-1.75-1.27-3.37l7.49-32.45,37.32,8.62Z" transform="translate(-0.01 -8.91)"/>
    <path class="cls-2" d="M244.42,45.34c0.22-1,1.72-1.46,3.33-1.09l40.89,9.44c1.61,0.37,2.74,1.47,2.51,2.44,0,0-11,13-12.16,17.89l-32.21-7.44C247.9,61.71,244.42,45.34,244.42,45.34Z" transform="translate(-0.01 -8.91)"/>
    <path class="cls-3" d="M241.7,94.12a1,1,0,0,1-1.2.75l-4.54-1a1,1,0,0,1-.75-1.2L241.35,66a1,1,0,0,1,1.2-.75l4.54,1a1,1,0,0,1,.75,1.2Z" transform="translate(-0.01 -8.91)"/>
    <path class="cls-3" d="M278.7,102.67a1,1,0,0,1-1.2.75l-4.54-1a1,1,0,0,1-.75-1.2l6.14-26.62a1,1,0,0,1,1.2-.75l4.55,1a1,1,0,0,1,.74,1.2Z" transform="translate(-0.01 -8.91)"/>
  </g>
  <g id="char-2" data-name="char">
    <path class="cls-1" d="M363.53,94.53c0.3,1.69.2,3.12-1.49,3.42l-35,6.25c-1.69.3-2.28-1-2.59-2.69,0,0-4.55-25.47-6.06-34l39.05-7Z" transform="translate(-0.01 -8.91)"/>
    <path class="cls-2" d="M309.65,47.89c-0.18-1,1-2.09,2.72-2.39l42.78-7.64c1.69-.3,3.21.29,3.39,1.3,0,0-5.22,16.89-4.31,22l-33.7,6C319.63,62.07,309.65,47.89,309.65,47.89Z" transform="translate(-0.01 -8.91)"/>
    <path class="cls-3" d="M326.91,95.47a1,1,0,0,1-.83,1.2l-4.76.85a1,1,0,0,1-1.2-.84l-5-27.85a1,1,0,0,1,.84-1.2l4.75-.85a1,1,0,0,1,1.2.84Z" transform="translate(-0.01 -8.91)"/>
    <path class="cls-3" d="M365.62,88.55a1,1,0,0,1-.83,1.2L360,90.6a1,1,0,0,1-1.2-.84l-5-27.85a1,1,0,0,1,.83-1.2l4.76-.85a1,1,0,0,1,1.2.84Z" transform="translate(-0.01 -8.91)"/>
  </g>
  <g id="char-3" data-name="char">
    <path class="cls-1" d="M434.84,51.45c0.81,1.1,1.25,2.16.14,3L412.23,71.27c-1.1.82-2,.09-2.8-1l-16.36-22.1,25.42-18.82Z" transform="translate(-0.01 -8.91)"/>
    <path class="cls-2" d="M379.84,37.23c-0.49-.66,0-1.86,1.1-2.68l27.85-20.62c1.1-.81,2.39-0.93,2.88-0.27,0,0,2.26,13.91,4.71,17.23L394.44,47.14C392,43.83,379.84,37.23,379.84,37.23Z" transform="translate(-0.01 -8.91)"/>
    <path class="cls-3" d="M409,65.1a0.82,0.82,0,0,1-.17,1.15l-3.1,2.29a0.82,0.82,0,0,1-1.15-.17L391.18,50.25a0.83,0.83,0,0,1,.17-1.15l3.1-2.29a0.82,0.82,0,0,1,1.15.17Z" transform="translate(-0.01 -8.91)"/>
    <path class="cls-3" d="M434.21,46.44a0.82,0.82,0,0,1-.17,1.15l-3.09,2.29a0.83,0.83,0,0,1-1.15-.17L416.38,31.59a0.82,0.82,0,0,1,.17-1.15l3.1-2.29a0.82,0.82,0,0,1,1.15.17Z" transform="translate(-0.01 -8.91)"/>
  </g>
  <path class="cls-4" d="M480,8.91s-0.07,105.93-130,120c-101.8,11-175.14-34.25-175.14-34.25H0V51.77H174.86c9.56,7.17,96.76,48.31,170.84,37.92C433,77.44,437.15,8.91,437.15,8.91H480Z" transform="translate(-0.01 -8.91)"/>
  <g id="desktop">
    <g id="monitor">
      <path d="M257.13,115a0.54,0.54,0,0,1-.64.41l-13.15-2.88a0.54,0.54,0,0,1-.41-0.64l0.46-2.11a0.53,0.53,0,0,1,.64-0.41l13.15,2.88a0.53,0.53,0,0,1,.41.64Z" transform="translate(-0.01 -8.91)"/>
      <path class="cls-5" d="M274.78,121.88c-0.15.74-3,1.07-4.33,0.79L227.6,114c-1.35-.28-4-1.84-3.88-2.58l0.55-2.67c0.15-.74,1.51-1.39,2.86-1.12l46.44,9.48a1.93,1.93,0,0,1,1.76,2.05Z" transform="translate(-0.01 -8.91)"/>
    </g>
    <g id="keyboard">
      <path class="cls-6" d="M232.16,90.61c0.21-1,1-2.31,1.75-2.16l40.81,8.33c0.72,0.15,1.15,1.68.94,2.71l-1.9,9.31a1.45,1.45,0,0,1-1.75,1.25l-40.8-8.33a1.33,1.33,0,0,1-.94-1.8l1.9-9.31h0Z" transform="translate(-0.01 -8.91)"/>
      <path class="cls-7" d="M232,91.34c0.2-1,.88-2.19,1.61-2l40.92,8.35c0.72,0.15,1.17,1.61,1,2.57l-1.78,8.69A1.4,1.4,0,0,1,272,110l-40.92-8.35c-0.73-.15-1-0.7-0.85-1.66Z" transform="translate(-0.01 -8.91)"/>
      <g id="key">
        <g id="line1">
          <path class="cls-8" d="M233.47,99.54a0.56,0.56,0,0,1,.66-0.44l4.45,0.91a0.56,0.56,0,0,1,.44.66l-0.24,1.17a0.56,0.56,0,0,1-.66.44l-4.46-.91a0.57,0.57,0,0,1-.44-0.66Z" transform="translate(-0.01 -8.91)"/>
          <path class="cls-8" d="M262.25,105.41a0.56,0.56,0,0,1,.66-0.44l1.18,0.24a0.56,0.56,0,0,1,.44.66L264.29,107a0.56,0.56,0,0,1-.66.44l-1.18-.24a0.56,0.56,0,0,1-.43-0.66Z" transform="translate(-0.01 -8.91)"/>
          <path class="cls-8" d="M259.48,104.85a0.55,0.55,0,0,1,.66-0.44l1.18,0.24a0.57,0.57,0,0,1,.44.66l-0.24,1.17a0.57,0.57,0,0,1-.66.44l-1.17-.24a0.56,0.56,0,0,1-.44-0.66Z" transform="translate(-0.01 -8.91)"/>
          <path class="cls-8" d="M256.7,104.28a0.56,0.56,0,0,1,.66-0.44l1.17,0.24a0.56,0.56,0,0,1,.44.66l-0.24,1.17a0.56,0.56,0,0,1-.66.44l-1.18-.24a0.56,0.56,0,0,1-.44-0.66Z" transform="translate(-0.01 -8.91)"/>
          <path class="cls-8" d="M253.67,103.66a0.56,0.56,0,0,1,.66-0.44l1.18,0.24a0.56,0.56,0,0,1,.44.66l-0.24,1.17a0.56,0.56,0,0,1-.66.44l-1.17-.24a0.56,0.56,0,0,1-.44-0.66Z" transform="translate(-0.01 -8.91)"/>
          <path class="cls-8" d="M250.94,103.1a0.57,0.57,0,0,1,.66-0.44l1.17,0.24a0.56,0.56,0,0,1,.44.66L253,104.74a0.56,0.56,0,0,1-.66.44l-1.18-.24a0.56,0.56,0,0,1-.44-0.66Z" transform="translate(-0.01 -8.91)"/>
          <path class="cls-8" d="M248.06,102.52a0.56,0.56,0,0,1,.66-0.44l1.18,0.24a0.56,0.56,0,0,1,.44.66l-0.24,1.17a0.56,0.56,0,0,1-.66.44l-1.17-.24a0.56,0.56,0,0,1-.44-0.66Z" transform="translate(-0.01 -8.91)"/>
          <path class="cls-8" d="M245.26,101.94a0.56,0.56,0,0,1,.66-0.44l1.17,0.24a0.57,0.57,0,0,1,.44.67l-0.24,1.17a0.57,0.57,0,0,1-.66.44l-1.17-.24a0.56,0.56,0,0,1-.44-0.66Z" transform="translate(-0.01 -8.91)"/>
          <path class="cls-8" d="M242.31,101.34a0.56,0.56,0,0,1,.66-0.44l1.18,0.24a0.56,0.56,0,0,1,.44.66L244.34,103a0.57,0.57,0,0,1-.66.44l-1.17-.24a0.56,0.56,0,0,1-.44-0.66Z" transform="translate(-0.01 -8.91)"/>
          <path class="cls-8" d="M239.54,100.78a0.56,0.56,0,0,1,.66-0.44l1.17,0.24a0.56,0.56,0,0,1,.44.66l-0.24,1.18a0.56,0.56,0,0,1-.66.43l-1.17-.24a0.56,0.56,0,0,1-.44-0.66Z" transform="translate(-0.01 -8.91)"/>
          <path class="cls-8" d="M265,106a0.56,0.56,0,0,1,.66-0.44l4.45,0.91a0.57,0.57,0,0,1,.44.67l-0.24,1.17a0.56,0.56,0,0,1-.66.43l-4.45-.91a0.56,0.56,0,0,1-.44-0.66Z" transform="translate(-0.01 -8.91)"/>
        </g>
        <g id="line2">
          <path class="cls-8" d="M266.66,103.15a0.56,0.56,0,0,1,.66-0.44l1.17,0.24a0.56,0.56,0,0,1,.44.66l-0.24,1.17a0.57,0.57,0,0,1-.66.44l-1.17-.24a0.56,0.56,0,0,1-.44-0.66Z" transform="translate(-0.01 -8.91)"/>
          <path class="cls-8" d="M263.88,102.59a0.56,0.56,0,0,1,.66-0.44l1.17,0.24a0.56,0.56,0,0,1,.44.66l-0.24,1.18a0.56,0.56,0,0,1-.66.44l-1.17-.24a0.56,0.56,0,0,1-.44-0.66Z" transform="translate(-0.01 -8.91)"/>
          <path class="cls-8" d="M261.26,102.05a0.56,0.56,0,0,1,.66-0.44l1.17,0.24a0.56,0.56,0,0,1,.44.66l-0.24,1.17a0.56,0.56,0,0,1-.66.44l-1.17-.24a0.57,0.57,0,0,1-.44-0.66Z" transform="translate(-0.01 -8.91)"/>
          <path class="cls-8" d="M258.25,101.44a0.56,0.56,0,0,1,.66-0.44l1.17,0.24a0.56,0.56,0,0,1,.44.66l-0.24,1.17a0.57,0.57,0,0,1-.66.44l-1.18-.24a0.56,0.56,0,0,1-.44-0.66Z" transform="translate(-0.01 -8.91)"/>
          <path class="cls-8" d="M255.55,100.89a0.56,0.56,0,0,1,.66-0.44l1.18,0.24a0.56,0.56,0,0,1,.44.66l-0.24,1.17a0.56,0.56,0,0,1-.66.43l-1.18-.24a0.56,0.56,0,0,1-.44-0.66Z" transform="translate(-0.01 -8.91)"/>
          <path class="cls-8" d="M252.47,100.26a0.56,0.56,0,0,1,.66-0.44l1.18,0.24a0.57,0.57,0,0,1,.44.66l-0.24,1.17a0.56,0.56,0,0,1-.66.44l-1.18-.24a0.56,0.56,0,0,1-.44-0.66Z" transform="translate(-0.01 -8.91)"/>
          <path class="cls-8" d="M249.74,99.7a0.56,0.56,0,0,1,.66-0.44l1.18,0.24a0.56,0.56,0,0,1,.44.66l-0.24,1.17a0.56,0.56,0,0,1-.66.44l-1.18-.24a0.56,0.56,0,0,1-.44-0.66Z" transform="translate(-0.01 -8.91)"/>
          <path class="cls-8" d="M247,99.14a0.56,0.56,0,0,1,.66-0.44l1.18,0.24a0.56,0.56,0,0,1,.43.66L249,100.77a0.56,0.56,0,0,1-.66.44l-1.18-.24a0.56,0.56,0,0,1-.44-0.66Z" transform="translate(-0.01 -8.91)"/>
          <path class="cls-8" d="M243.94,98.52a0.56,0.56,0,0,1,.66-0.44l1.17,0.24a0.56,0.56,0,0,1,.44.66L246,100.16a0.56,0.56,0,0,1-.66.43l-1.17-.24a0.56,0.56,0,0,1-.44-0.66Z" transform="translate(-0.01 -8.91)"/>
          <path class="cls-8" d="M241.16,98a0.56,0.56,0,0,1,.66-0.44L243,97.76a0.56,0.56,0,0,1,.44.66l-0.24,1.17a0.56,0.56,0,0,1-.66.44l-1.17-.24a0.57,0.57,0,0,1-.44-0.67Z" transform="translate(-0.01 -8.91)"/>
          <path class="cls-8" d="M238.13,97.34a0.56,0.56,0,0,1,.66-0.44L240,97.14a0.56,0.56,0,0,1,.44.66L240.16,99a0.56,0.56,0,0,1-.66.44l-1.18-.24a0.56,0.56,0,0,1-.44-0.66Z" transform="translate(-0.01 -8.91)"/>
          <path class="cls-8" d="M235.36,96.77a0.56,0.56,0,0,1,.66-0.44l1.17,0.24a0.56,0.56,0,0,1,.44.66l-0.24,1.17a0.56,0.56,0,0,1-.66.44l-1.18-.24a0.56,0.56,0,0,1-.44-0.66Z" transform="translate(-0.01 -8.91)"/>
        </g>
        <g id="line3">
          <path class="cls-8" d="M234.68,93.65a0.56,0.56,0,0,1,.66-0.44l4.46,0.91a0.56,0.56,0,0,1,.44.66L240,96a0.55,0.55,0,0,1-.66.44l-4.45-.91a0.56,0.56,0,0,1-.44-0.66Z" transform="translate(-0.01 -8.91)"/>
          <path class="cls-8" d="M263.41,99.51a0.56,0.56,0,0,1,.66-0.44l1.17,0.24a0.56,0.56,0,0,1,.44.66l-0.24,1.17a0.56,0.56,0,0,1-.66.44l-1.17-.24a0.56,0.56,0,0,1-.44-0.66Z" transform="translate(-0.01 -8.91)"/>
          <path class="cls-8" d="M260.65,98.94a0.56,0.56,0,0,1,.66-0.44l1.17,0.24a0.56,0.56,0,0,1,.44.66l-0.24,1.17a0.56,0.56,0,0,1-.66.44l-1.18-.24a0.56,0.56,0,0,1-.44-0.66Z" transform="translate(-0.01 -8.91)"/>
          <path class="cls-8" d="M257.87,98.38a0.57,0.57,0,0,1,.67-0.44l1.17,0.24a0.56,0.56,0,0,1,.44.66L259.91,100a0.55,0.55,0,0,1-.66.43l-1.17-.24a0.56,0.56,0,0,1-.44-0.66Z" transform="translate(-0.01 -8.91)"/>
          <path class="cls-8" d="M255,97.79a0.56,0.56,0,0,1,.66-0.44l1.17,0.24a0.56,0.56,0,0,1,.44.66L257,99.43a0.56,0.56,0,0,1-.66.44l-1.18-.24a0.56,0.56,0,0,1-.44-0.66Z" transform="translate(-0.01 -8.91)"/>
          <path class="cls-8" d="M252.2,97.22a0.56,0.56,0,0,1,.66-0.44L254,97a0.56,0.56,0,0,1,.44.66l-0.24,1.17a0.56,0.56,0,0,1-.66.44l-1.17-.24a0.56,0.56,0,0,1-.44-0.66Z" transform="translate(-0.01 -8.91)"/>
          <path class="cls-8" d="M249.24,96.62a0.56,0.56,0,0,1,.66-0.44l1.18,0.24a0.57,0.57,0,0,1,.44.66l-0.24,1.17a0.56,0.56,0,0,1-.66.44l-1.17-.24a0.56,0.56,0,0,1-.44-0.66Z" transform="translate(-0.01 -8.91)"/>
          <path class="cls-8" d="M246.44,96a0.56,0.56,0,0,1,.66-0.44l1.17,0.24a0.56,0.56,0,0,1,.43.66l-0.24,1.18a0.56,0.56,0,0,1-.66.44l-1.17-.24a0.56,0.56,0,0,1-.44-0.66Z" transform="translate(-0.01 -8.91)"/>
          <path class="cls-8" d="M243.51,95.45a0.56,0.56,0,0,1,.66-0.43l1.17,0.24a0.56,0.56,0,0,1,.44.66l-0.24,1.18a0.56,0.56,0,0,1-.66.43l-1.17-.24a0.56,0.56,0,0,1-.44-0.66Z" transform="translate(-0.01 -8.91)"/>
          <path class="cls-8" d="M240.74,94.88a0.56,0.56,0,0,1,.66-0.44l1.17,0.24a0.56,0.56,0,0,1,.44.66l-0.24,1.17a0.56,0.56,0,0,1-.66.44l-1.17-.24a0.56,0.56,0,0,1-.44-0.66Z" transform="translate(-0.01 -8.91)"/>
          <path class="cls-8" d="M266.23,100.09a0.56,0.56,0,0,1,.66-0.44l4.45,0.91a0.56,0.56,0,0,1,.44.66l-0.24,1.17a0.56,0.56,0,0,1-.66.44l-4.45-.91a0.56,0.56,0,0,1-.44-0.66Z" transform="translate(-0.01 -8.91)"/>
        </g>
        <g id="line4">
          <path class="cls-8" d="M267.71,97.33a0.56,0.56,0,0,1,.66-0.44l1.17,0.24a0.56,0.56,0,0,1,.44.66L269.75,99a0.56,0.56,0,0,1-.66.44l-1.17-.24a0.56,0.56,0,0,1-.44-0.66Z" transform="translate(-0.01 -8.91)"/>
          <path class="cls-8" d="M264.94,96.76a0.56,0.56,0,0,1,.66-0.44l1.17,0.24a0.56,0.56,0,0,1,.44.66L267,98.4a0.56,0.56,0,0,1-.66.44l-1.17-.24a0.56,0.56,0,0,1-.44-0.66Z" transform="translate(-0.01 -8.91)"/>
          <path class="cls-8" d="M262.19,96.2a0.56,0.56,0,0,1,.66-0.44L264,96a0.56,0.56,0,0,1,.44.67l-0.24,1.17a0.57,0.57,0,0,1-.66.44L262.39,98a0.56,0.56,0,0,1-.44-0.66Z" transform="translate(-0.01 -8.91)"/>
          <path class="cls-8" d="M242.49,92.18a0.56,0.56,0,0,1,.66-0.44L244.33,92a0.56,0.56,0,0,1,.44.67l-0.24,1.17a0.56,0.56,0,0,1-.66.44L242.7,94a0.56,0.56,0,0,1-.44-0.66Z" transform="translate(-0.01 -8.91)"/>
          <path class="cls-8" d="M239.47,91.56a0.56,0.56,0,0,1,.66-0.44l1.17,0.24a0.57,0.57,0,0,1,.44.67L241.5,93.2a0.56,0.56,0,0,1-.66.44l-1.17-.24a0.56,0.56,0,0,1-.44-0.66Z" transform="translate(-0.01 -8.91)"/>
          <path class="cls-8" d="M236.69,91a0.56,0.56,0,0,1,.66-0.44l1.17,0.24a0.56,0.56,0,0,1,.44.66l-0.24,1.17a0.56,0.56,0,0,1-.66.44l-1.17-.24a0.56,0.56,0,0,1-.44-0.66Z" transform="translate(-0.01 -8.91)"/>
          <path class="cls-8" d="M245.34,92.91a0.68,0.68,0,0,1,.7-0.58l15.12,3.09a0.63,0.63,0,0,1,.34.79l-0.19.94a0.56,0.56,0,0,1-.61.54L245.58,94.6a0.63,0.63,0,0,1-.43-0.75l0.19-.94h0Z" transform="translate(-0.01 -8.91)"/>
        </g>
      </g>
    </g>
  </g>
  <g id="desktop-2" data-name="desktop">
    <g id="monitor-2" data-name="monitor">
      <path d="M367.1,114.92a0.54,0.54,0,0,1-.45.61l-13.34,2.06a0.53,0.53,0,0,1-.61-0.45L352.36,115a0.54,0.54,0,0,1,.45-0.61l13.34-2.06a0.54,0.54,0,0,1,.61.45Z" transform="translate(-0.01 -8.91)"/>
      <path class="cls-5" d="M386.11,115c0.13,0.75-2.4,2.07-3.76,2.31l-43.2,7.39c-1.36.23-4.43-.26-4.56-1l-0.46-2.7c-0.13-.74.91-1.84,2.27-2.07l46.86-7.9a1.93,1.93,0,0,1,2.39,1.29Z" transform="translate(-0.01 -8.91)"/>
    </g>
    <g id="keyboard-2" data-name="keyboard">
      <path class="cls-6" d="M334.95,101.16c-0.18-1,.13-2.53.85-2.66L377,91.56c0.74-.13,1.68,1.16,1.86,2.2l1.59,9.39a1.46,1.46,0,0,1-1.18,1.8l-41.18,6.94a1.33,1.33,0,0,1-1.53-1.34l-1.59-9.4h0Z" transform="translate(-0.01 -8.91)"/>
      <path class="cls-7" d="M335.08,101.9c-0.16-1,0-2.37.76-2.49l41.29-7c0.73-.12,1.67,1.09,1.84,2.06l1.47,8.77a1.4,1.4,0,0,1-1.2,1.69l-41.29,7c-0.74.12-1.23-.28-1.4-1.25Z" transform="translate(-0.01 -8.91)"/>
      <g id="key-2" data-name="key">
        <g id="line1-2" data-name="line1">
          <path class="cls-8" d="M339.4,109a0.57,0.57,0,0,1,.46-0.65l4.49-.76a0.57,0.57,0,0,1,.65.46l0.2,1.18a0.56,0.56,0,0,1-.46.65l-4.5.76a0.57,0.57,0,0,1-.65-0.46Z" transform="translate(-0.01 -8.91)"/>
          <path class="cls-8" d="M368.44,104.14a0.56,0.56,0,0,1,.46-0.64l1.18-.2a0.56,0.56,0,0,1,.65.46l0.2,1.18a0.56,0.56,0,0,1-.46.65l-1.18.2a0.56,0.56,0,0,1-.64-0.46Z" transform="translate(-0.01 -8.91)"/>
          <path class="cls-8" d="M365.64,104.62a0.57,0.57,0,0,1,.46-0.65l1.19-.2a0.56,0.56,0,0,1,.65.46l0.2,1.18a0.57,0.57,0,0,1-.46.65l-1.18.2a0.57,0.57,0,0,1-.65-0.46Z" transform="translate(-0.01 -8.91)"/>
          <path class="cls-8" d="M362.84,105.09a0.57,0.57,0,0,1,.46-0.65l1.19-.2a0.57,0.57,0,0,1,.65.46l0.19,1.18a0.56,0.56,0,0,1-.46.65l-1.18.2a0.56,0.56,0,0,1-.65-0.46Z" transform="translate(-0.01 -8.91)"/>
          <path class="cls-8" d="M359.78,105.6a0.57,0.57,0,0,1,.46-0.65l1.18-.2a0.56,0.56,0,0,1,.65.46l0.2,1.18a0.56,0.56,0,0,1-.46.65l-1.18.2a0.56,0.56,0,0,1-.65-0.46Z" transform="translate(-0.01 -8.91)"/>
          <path class="cls-8" d="M357,106.07a0.56,0.56,0,0,1,.46-0.65l1.19-.2a0.57,0.57,0,0,1,.65.47l0.2,1.18a0.56,0.56,0,0,1-.46.64l-1.19.2a0.57,0.57,0,0,1-.65-0.46Z" transform="translate(-0.01 -8.91)"/>
          <path class="cls-8" d="M354.13,106.56a0.56,0.56,0,0,1,.46-0.65l1.18-.2a0.56,0.56,0,0,1,.64.46l0.2,1.18a0.56,0.56,0,0,1-.46.65l-1.18.2a0.56,0.56,0,0,1-.65-0.46Z" transform="translate(-0.01 -8.91)"/>
          <path class="cls-8" d="M351.3,107a0.57,0.57,0,0,1,.47-0.65l1.18-.2a0.57,0.57,0,0,1,.65.46l0.2,1.18a0.56,0.56,0,0,1-.46.65l-1.18.2a0.56,0.56,0,0,1-.65-0.46Z" transform="translate(-0.01 -8.91)"/>
          <path class="cls-8" d="M348.32,107.53a0.56,0.56,0,0,1,.46-0.65l1.18-.2a0.56,0.56,0,0,1,.65.46l0.2,1.18a0.57,0.57,0,0,1-.46.65l-1.18.2a0.56,0.56,0,0,1-.65-0.46Z" transform="translate(-0.01 -8.91)"/>
          <path class="cls-8" d="M345.52,108a0.56,0.56,0,0,1,.46-0.65l1.18-.19a0.56,0.56,0,0,1,.65.46l0.2,1.19a0.56,0.56,0,0,1-.46.64l-1.18.2a0.56,0.56,0,0,1-.65-0.46Z" transform="translate(-0.01 -8.91)"/>
          <path class="cls-8" d="M371.24,103.67a0.56,0.56,0,0,1,.46-0.65l4.49-.76a0.56,0.56,0,0,1,.65.46l0.2,1.18a0.56,0.56,0,0,1-.46.65l-4.49.76a0.56,0.56,0,0,1-.65-0.46Z" transform="translate(-0.01 -8.91)"/>
        </g>
        <g id="line2-2" data-name="line2">
          <path class="cls-8" d="M371.75,100.44a0.56,0.56,0,0,1,.46-0.64l1.18-.2a0.57,0.57,0,0,1,.65.47l0.2,1.18a0.57,0.57,0,0,1-.47.65l-1.18.2a0.56,0.56,0,0,1-.65-0.46Z" transform="translate(-0.01 -8.91)"/>
          <path class="cls-8" d="M368.95,100.92a0.56,0.56,0,0,1,.46-0.65l1.18-.2a0.56,0.56,0,0,1,.65.46l0.2,1.18a0.56,0.56,0,0,1-.46.65l-1.18.2a0.56,0.56,0,0,1-.65-0.46Z" transform="translate(-0.01 -8.91)"/>
          <path class="cls-8" d="M366.3,101.36a0.56,0.56,0,0,1,.46-0.65l1.18-.2a0.56,0.56,0,0,1,.65.46l0.2,1.18a0.57,0.57,0,0,1-.46.65l-1.18.2a0.57,0.57,0,0,1-.65-0.47Z" transform="translate(-0.01 -8.91)"/>
          <path class="cls-8" d="M363.27,101.88a0.57,0.57,0,0,1,.46-0.65l1.18-.2a0.56,0.56,0,0,1,.65.46l0.2,1.18a0.57,0.57,0,0,1-.46.65l-1.19.2a0.56,0.56,0,0,1-.65-0.47Z" transform="translate(-0.01 -8.91)"/>
          <path class="cls-8" d="M360.54,102.33a0.56,0.56,0,0,1,.46-0.65l1.18-.2a0.56,0.56,0,0,1,.65.46l0.2,1.18a0.56,0.56,0,0,1-.46.65l-1.19.2a0.56,0.56,0,0,1-.65-0.46Z" transform="translate(-0.01 -8.91)"/>
          <path class="cls-8" d="M357.43,102.86a0.56,0.56,0,0,1,.46-0.65l1.19-.2a0.57,0.57,0,0,1,.65.46l0.2,1.18a0.56,0.56,0,0,1-.46.64l-1.18.2a0.56,0.56,0,0,1-.65-0.46Z" transform="translate(-0.01 -8.91)"/>
          <path class="cls-8" d="M354.68,103.32a0.57,0.57,0,0,1,.46-0.65l1.18-.2a0.57,0.57,0,0,1,.65.46l0.19,1.18a0.56,0.56,0,0,1-.46.65l-1.18.19a0.56,0.56,0,0,1-.65-0.46Z" transform="translate(-0.01 -8.91)"/>
          <path class="cls-8" d="M351.88,103.79a0.56,0.56,0,0,1,.46-0.65l1.18-.2a0.56,0.56,0,0,1,.65.46l0.2,1.18a0.57,0.57,0,0,1-.46.65l-1.19.2a0.56,0.56,0,0,1-.65-0.47Z" transform="translate(-0.01 -8.91)"/>
          <path class="cls-8" d="M348.82,104.31a0.56,0.56,0,0,1,.46-0.65l1.19-.2a0.56,0.56,0,0,1,.65.46l0.2,1.19a0.56,0.56,0,0,1-.46.65l-1.18.2a0.56,0.56,0,0,1-.65-0.46Z" transform="translate(-0.01 -8.91)"/>
          <path class="cls-8" d="M346,104.78a0.56,0.56,0,0,1,.46-0.65l1.18-.2a0.57,0.57,0,0,1,.65.46l0.2,1.18a0.56,0.56,0,0,1-.46.65l-1.18.2a0.57,0.57,0,0,1-.65-0.47Z" transform="translate(-0.01 -8.91)"/>
          <path class="cls-8" d="M343,105.29a0.56,0.56,0,0,1,.46-0.65l1.19-.2a0.56,0.56,0,0,1,.65.46l0.2,1.18a0.56,0.56,0,0,1-.46.65l-1.19.2a0.56,0.56,0,0,1-.64-0.46Z" transform="translate(-0.01 -8.91)"/>
          <path class="cls-8" d="M340.16,105.77a0.57,0.57,0,0,1,.46-0.65l1.18-.2a0.56,0.56,0,0,1,.65.46l0.2,1.18a0.56,0.56,0,0,1-.47.65l-1.18.2a0.57,0.57,0,0,1-.65-0.47Z" transform="translate(-0.01 -8.91)"/>
        </g>
        <g id="line3-2" data-name="line3">
          <path class="cls-8" d="M338.4,103.09a0.57,0.57,0,0,1,.47-0.65l4.5-.76a0.56,0.56,0,0,1,.64.46l0.2,1.18a0.55,0.55,0,0,1-.46.65l-4.49.76a0.57,0.57,0,0,1-.65-0.46Z" transform="translate(-0.01 -8.91)"/>
          <path class="cls-8" d="M367.39,98.21a0.56,0.56,0,0,1,.46-0.65l1.18-.2a0.56,0.56,0,0,1,.65.46l0.2,1.18a0.56,0.56,0,0,1-.46.65l-1.18.2a0.56,0.56,0,0,1-.65-0.47Z" transform="translate(-0.01 -8.91)"/>
          <path class="cls-8" d="M364.61,98.67a0.56,0.56,0,0,1,.46-0.65l1.18-.2a0.56,0.56,0,0,1,.65.46l0.2,1.18a0.56,0.56,0,0,1-.46.65l-1.19.2a0.56,0.56,0,0,1-.65-0.46Z" transform="translate(-0.01 -8.91)"/>
          <path class="cls-8" d="M361.81,99.15a0.57,0.57,0,0,1,.46-0.65l1.18-.2a0.56,0.56,0,0,1,.65.46l0.2,1.18a0.56,0.56,0,0,1-.46.65l-1.18.2a0.57,0.57,0,0,1-.65-0.46Z" transform="translate(-0.01 -8.91)"/>
          <path class="cls-8" d="M358.91,99.63a0.57,0.57,0,0,1,.46-0.65l1.18-.2a0.56,0.56,0,0,1,.65.46l0.2,1.18a0.56,0.56,0,0,1-.46.65l-1.18.2a0.56,0.56,0,0,1-.65-0.46Z" transform="translate(-0.01 -8.91)"/>
          <path class="cls-8" d="M356.08,100.11a0.56,0.56,0,0,1,.46-0.64l1.18-.2a0.57,0.57,0,0,1,.65.46l0.2,1.18a0.56,0.56,0,0,1-.46.65l-1.18.2a0.56,0.56,0,0,1-.65-0.46Z" transform="translate(-0.01 -8.91)"/>
          <path class="cls-8" d="M353.09,100.61a0.57,0.57,0,0,1,.47-0.65l1.18-.2a0.57,0.57,0,0,1,.65.47l0.2,1.18a0.57,0.57,0,0,1-.46.65l-1.18.2a0.56,0.56,0,0,1-.65-0.46Z" transform="translate(-0.01 -8.91)"/>
          <path class="cls-8" d="M350.27,101.09a0.56,0.56,0,0,1,.46-0.65l1.18-.2a0.56,0.56,0,0,1,.65.46l0.2,1.18a0.56,0.56,0,0,1-.46.65l-1.18.2a0.56,0.56,0,0,1-.65-0.46Z" transform="translate(-0.01 -8.91)"/>
          <path class="cls-8" d="M347.31,101.59a0.56,0.56,0,0,1,.46-0.65l1.18-.2a0.57,0.57,0,0,1,.65.46l0.2,1.18a0.56,0.56,0,0,1-.46.64l-1.18.2a0.56,0.56,0,0,1-.65-0.46Z" transform="translate(-0.01 -8.91)"/>
          <path class="cls-8" d="M344.51,102.06a0.56,0.56,0,0,1,.46-0.65l1.18-.2a0.56,0.56,0,0,1,.65.46l0.2,1.19a0.56,0.56,0,0,1-.47.64l-1.18.2a0.56,0.56,0,0,1-.65-0.46Z" transform="translate(-0.01 -8.91)"/>
          <path class="cls-8" d="M370.24,97.72a0.56,0.56,0,0,1,.46-0.65l4.49-.76a0.56,0.56,0,0,1,.65.46L376,98a0.56,0.56,0,0,1-.46.65l-4.49.76a0.56,0.56,0,0,1-.65-0.46Z" transform="translate(-0.01 -8.91)"/>
        </g>
        <g id="line4-2" data-name="line4">
          <path class="cls-8" d="M370.64,94.61A0.56,0.56,0,0,1,371.1,94l1.18-.2a0.56,0.56,0,0,1,.65.46l0.2,1.18a0.56,0.56,0,0,1-.46.65l-1.18.2a0.56,0.56,0,0,1-.65-0.46Z" transform="translate(-0.01 -8.91)"/>
          <path class="cls-8" d="M367.83,95.08a0.56,0.56,0,0,1,.46-0.65l1.18-.2a0.56,0.56,0,0,1,.65.46l0.2,1.18a0.56,0.56,0,0,1-.46.65l-1.18.2a0.56,0.56,0,0,1-.65-0.46Z" transform="translate(-0.01 -8.91)"/>
          <path class="cls-8" d="M365.06,95.55a0.56,0.56,0,0,1,.46-0.65l1.18-.2a0.56,0.56,0,0,1,.65.46l0.2,1.18a0.56,0.56,0,0,1-.46.65l-1.18.2a0.56,0.56,0,0,1-.65-0.46Z" transform="translate(-0.01 -8.91)"/>
          <path class="cls-8" d="M345.18,98.9a0.56,0.56,0,0,1,.46-0.65l1.18-.2a0.57,0.57,0,0,1,.65.47l0.2,1.18a0.56,0.56,0,0,1-.46.65l-1.18.2a0.56,0.56,0,0,1-.65-0.46Z" transform="translate(-0.01 -8.91)"/>
          <path class="cls-8" d="M342.13,99.41a0.56,0.56,0,0,1,.46-0.65l1.18-.2a0.56,0.56,0,0,1,.65.46l0.2,1.18a0.56,0.56,0,0,1-.46.64l-1.18.2a0.57,0.57,0,0,1-.65-0.46Z" transform="translate(-0.01 -8.91)"/>
          <path class="cls-8" d="M339.32,99.89a0.56,0.56,0,0,1,.46-0.65L341,99a0.57,0.57,0,0,1,.65.47l0.2,1.18a0.56,0.56,0,0,1-.46.64l-1.18.2a0.56,0.56,0,0,1-.65-0.46Z" transform="translate(-0.01 -8.91)"/>
          <path class="cls-8" d="M348.11,98.55a0.68,0.68,0,0,1,.44-0.8l15.26-2.57a0.63,0.63,0,0,1,.6.62l0.16,1a0.56,0.56,0,0,1-.38.72l-15.26,2.57a0.62,0.62,0,0,1-.67-0.55l-0.16-1h0Z" transform="translate(-0.01 -8.91)"/>
        </g>
      </g>
    </g>
  </g>
  <g id="desktop-3" data-name="desktop">
    <g id="monitor-3" data-name="monitor">
      <path d="M448.62,64.91a0.57,0.57,0,0,1,.07.8l-9.2,11a0.57,0.57,0,0,1-.8.07l-1.76-1.48a0.58,0.58,0,0,1-.07-0.8l9.2-11a0.57,0.57,0,0,1,.8-0.07Z" transform="translate(-0.01 -8.91)"/>
      <path class="cls-5" d="M463.86,51.7c0.62,0.5-.46,3.33-1.39,4.47l-29.28,36.1c-0.92,1.14-3.72,2.89-4.34,2.39l-2.25-1.83c-0.62-.51-0.56-2.11.36-3.25L458.8,50.52a2.05,2.05,0,0,1,2.81-.65Z" transform="translate(-0.01 -8.91)"/>
    </g>
    <g id="keyboard-3" data-name="keyboard">
      <path class="cls-6" d="M413.36,76.42c-0.86-.7-1.67-2.11-1.17-2.72l28-34.33c0.5-.61,2.15-0.25,3,0.46L451,46.21a1.55,1.55,0,0,1,.32,2.27l-28,34.33a1.41,1.41,0,0,1-2.16,0l-7.84-6.39h0Z" transform="translate(-0.01 -8.91)"/>
      <path class="cls-7" d="M414,76.92c-0.81-.66-1.63-1.91-1.13-2.52L440.91,40c0.49-.61,2.09-0.31,2.9.35l7.31,6a1.49,1.49,0,0,1,.22,2.19L423.27,82.9c-0.5.61-1.18,0.64-2,0Z" transform="translate(-0.01 -8.91)"/>
      <g id="key-3" data-name="key">
        <g id="line1-3" data-name="line1">
          <path class="cls-8" d="M422.42,79.59a0.6,0.6,0,0,1-.08-0.84L425.39,75a0.6,0.6,0,0,1,.84-0.09l1,0.8a0.6,0.6,0,0,1,.09.84l-3.05,3.75a0.6,0.6,0,0,1-.84.09Z" transform="translate(-0.01 -8.91)"/>
          <path class="cls-8" d="M442.16,55.37a0.59,0.59,0,0,1-.09-0.84l0.8-1a0.6,0.6,0,0,1,.84-0.08l1,0.8a0.6,0.6,0,0,1,.09.84l-0.8,1a0.59,0.59,0,0,1-.84.08Z" transform="translate(-0.01 -8.91)"/>
          <path class="cls-8" d="M440.25,57.71a0.6,0.6,0,0,1-.09-0.84l0.8-1a0.6,0.6,0,0,1,.84-0.09l1,0.8a0.6,0.6,0,0,1,.09.84l-0.8,1a0.6,0.6,0,0,1-.84.09Z" transform="translate(-0.01 -8.91)"/>
          <path class="cls-8" d="M438.35,60a0.6,0.6,0,0,1-.09-0.84l0.81-1a0.6,0.6,0,0,1,.84-0.09l1,0.81a0.6,0.6,0,0,1,.09.84l-0.81,1a0.59,0.59,0,0,1-.84.08Z" transform="translate(-0.01 -8.91)"/>
          <path class="cls-8" d="M436.27,62.6a0.6,0.6,0,0,1-.09-0.84l0.8-1a0.6,0.6,0,0,1,.84-0.09l1,0.8a0.6,0.6,0,0,1,.08.84l-0.81,1a0.59,0.59,0,0,1-.84.09Z" transform="translate(-0.01 -8.91)"/>
          <path class="cls-8" d="M434.4,64.89a0.6,0.6,0,0,1-.09-0.84l0.81-1A0.6,0.6,0,0,1,436,63l1,0.8a0.59,0.59,0,0,1,.08.84l-0.8,1a0.6,0.6,0,0,1-.84.08Z" transform="translate(-0.01 -8.91)"/>
          <path class="cls-8" d="M432.43,67.32a0.6,0.6,0,0,1-.09-0.84l0.81-1A0.6,0.6,0,0,1,434,65.4l1,0.8a0.6,0.6,0,0,1,.08.84l-0.8,1a0.6,0.6,0,0,1-.84.09Z" transform="translate(-0.01 -8.91)"/>
          <path class="cls-8" d="M430.51,69.67a0.6,0.6,0,0,1-.09-0.84l0.8-1a0.6,0.6,0,0,1,.84-0.08l1,0.8a0.6,0.6,0,0,1,.09.84l-0.8,1a0.6,0.6,0,0,1-.84.09Z" transform="translate(-0.01 -8.91)"/>
          <path class="cls-8" d="M428.48,72.15a0.6,0.6,0,0,1-.08-0.84l0.81-1a0.6,0.6,0,0,1,.84-0.09l1,0.8a0.6,0.6,0,0,1,.09.84l-0.8,1a0.6,0.6,0,0,1-.84.09Z" transform="translate(-0.01 -8.91)"/>
          <path class="cls-8" d="M426.58,74.49a0.6,0.6,0,0,1-.09-0.84l0.81-1a0.6,0.6,0,0,1,.84-0.09l1,0.81a0.59,0.59,0,0,1,.08.84l-0.8,1a0.6,0.6,0,0,1-.84.09Z" transform="translate(-0.01 -8.91)"/>
          <path class="cls-8" d="M444.06,53A0.6,0.6,0,0,1,444,52.2L447,48.45a0.6,0.6,0,0,1,.84-0.09l1,0.81a0.59,0.59,0,0,1,.09.84l-3.05,3.75a0.59,0.59,0,0,1-.84.09Z" transform="translate(-0.01 -8.91)"/>
        </g>
        <g id="line2-3" data-name="line2">
          <path class="cls-8" d="M442.21,50.11a0.6,0.6,0,0,1-.09-0.84l0.8-1a0.6,0.6,0,0,1,.84-0.09l1,0.8a0.61,0.61,0,0,1,.09.84l-0.81,1a0.59,0.59,0,0,1-.84.08Z" transform="translate(-0.01 -8.91)"/>
          <path class="cls-8" d="M440.3,52.45a0.59,0.59,0,0,1-.09-0.84l0.8-1a0.6,0.6,0,0,1,.84-0.09l1,0.8a0.6,0.6,0,0,1,.09.84l-0.8,1a0.6,0.6,0,0,1-.84.08Z" transform="translate(-0.01 -8.91)"/>
          <path class="cls-8" d="M438.5,54.66a0.6,0.6,0,0,1-.08-0.84l0.8-1a0.59,0.59,0,0,1,.84-0.09l1,0.81a0.6,0.6,0,0,1,.09.84l-0.8,1a0.6,0.6,0,0,1-.85.08Z" transform="translate(-0.01 -8.91)"/>
          <path class="cls-8" d="M436.44,57.19a0.6,0.6,0,0,1-.09-0.84l0.8-1a0.6,0.6,0,0,1,.84-0.09l1,0.8a0.6,0.6,0,0,1,.09.84l-0.81,1a0.6,0.6,0,0,1-.84.08Z" transform="translate(-0.01 -8.91)"/>
          <path class="cls-8" d="M434.59,59.46a0.6,0.6,0,0,1-.09-0.84l0.81-1a0.6,0.6,0,0,1,.84-0.09l1,0.81a0.59,0.59,0,0,1,.09.84l-0.81,1a0.59,0.59,0,0,1-.84.08Z" transform="translate(-0.01 -8.91)"/>
          <path class="cls-8" d="M432.48,62.05a0.6,0.6,0,0,1-.09-0.84l0.8-1a0.6,0.6,0,0,1,.84-0.09l1,0.8a0.59,0.59,0,0,1,.09.84l-0.8,1a0.6,0.6,0,0,1-.84.08Z" transform="translate(-0.01 -8.91)"/>
          <path class="cls-8" d="M430.61,64.34a0.6,0.6,0,0,1-.09-0.84l0.8-1a0.6,0.6,0,0,1,.84-0.09l1,0.81a0.59,0.59,0,0,1,.09.84l-0.81,1a0.59,0.59,0,0,1-.84.08Z" transform="translate(-0.01 -8.91)"/>
          <path class="cls-8" d="M428.7,66.68a0.6,0.6,0,0,1-.09-0.84l0.81-1a0.6,0.6,0,0,1,.84-0.08l1,0.8a0.6,0.6,0,0,1,.09.84l-0.8,1a0.6,0.6,0,0,1-.84.08Z" transform="translate(-0.01 -8.91)"/>
          <path class="cls-8" d="M426.63,69.23a0.6,0.6,0,0,1-.09-0.84l0.81-1a0.6,0.6,0,0,1,.84-0.09l1,0.8a0.6,0.6,0,0,1,.08.84l-0.8,1a0.59,0.59,0,0,1-.84.09Z" transform="translate(-0.01 -8.91)"/>
          <path class="cls-8" d="M424.72,71.56a0.6,0.6,0,0,1-.08-0.84l0.8-1a0.6,0.6,0,0,1,.84-0.09l1,0.81a0.6,0.6,0,0,1,.09.84l-0.8,1a0.6,0.6,0,0,1-.85.09Z" transform="translate(-0.01 -8.91)"/>
          <path class="cls-8" d="M422.65,74.11a0.6,0.6,0,0,1-.09-0.84l0.8-1a0.6,0.6,0,0,1,.84-0.09l1,0.81a0.59,0.59,0,0,1,.09.84l-0.81,1a0.6,0.6,0,0,1-.84.09Z" transform="translate(-0.01 -8.91)"/>
          <path class="cls-8" d="M420.74,76.45a0.6,0.6,0,0,1-.09-0.84l0.81-1a0.6,0.6,0,0,1,.84-0.09l1,0.8a0.6,0.6,0,0,1,.09.84l-0.8,1a0.6,0.6,0,0,1-.84.08Z" transform="translate(-0.01 -8.91)"/>
        </g>
        <g id="line3-3" data-name="line3">
          <path class="cls-8" d="M417.46,75.55a0.6,0.6,0,0,1-.08-0.84L420.43,71a0.6,0.6,0,0,1,.84-0.09l1,0.81a0.59,0.59,0,0,1,.08.84l-3.05,3.75a0.6,0.6,0,0,1-.84.09Z" transform="translate(-0.01 -8.91)"/>
          <path class="cls-8" d="M437.16,51.38a0.6,0.6,0,0,1-.08-0.84l0.8-1a0.59,0.59,0,0,1,.84-0.09l1,0.8a0.6,0.6,0,0,1,.08.84l-0.8,1a0.6,0.6,0,0,1-.84.08Z" transform="translate(-0.01 -8.91)"/>
          <path class="cls-8" d="M435.28,53.69a0.59,0.59,0,0,1-.09-0.84l0.8-1a0.6,0.6,0,0,1,.84-0.09l1,0.8a0.6,0.6,0,0,1,.08.84l-0.8,1a0.6,0.6,0,0,1-.84.08Z" transform="translate(-0.01 -8.91)"/>
          <path class="cls-8" d="M433.37,56a0.6,0.6,0,0,1-.09-0.84l0.8-1a0.6,0.6,0,0,1,.84-0.08l1,0.81a0.6,0.6,0,0,1,.08.84l-0.8,1a0.6,0.6,0,0,1-.84.08Z" transform="translate(-0.01 -8.91)"/>
          <path class="cls-8" d="M431.4,58.45a0.6,0.6,0,0,1-.08-0.84l0.8-1a0.6,0.6,0,0,1,.84-0.09l1,0.8a0.6,0.6,0,0,1,.08.84l-0.8,1a0.6,0.6,0,0,1-.84.09Z" transform="translate(-0.01 -8.91)"/>
          <path class="cls-8" d="M429.48,60.8a0.59,0.59,0,0,1-.08-0.84l0.8-1a0.6,0.6,0,0,1,.84-0.09l1,0.81a0.59,0.59,0,0,1,.08.84l-0.8,1a0.6,0.6,0,0,1-.84.09Z" transform="translate(-0.01 -8.91)"/>
          <path class="cls-8" d="M427.45,63.29a0.6,0.6,0,0,1-.08-0.84l0.8-1a0.6,0.6,0,0,1,.84-0.09l1,0.8a0.61,0.61,0,0,1,.09.84l-0.8,1a0.6,0.6,0,0,1-.84.09Z" transform="translate(-0.01 -8.91)"/>
          <path class="cls-8" d="M425.53,65.65a0.59,0.59,0,0,1-.08-0.84l0.81-1a0.59,0.59,0,0,1,.84-0.08l1,0.8a0.6,0.6,0,0,1,.08.84l-0.8,1a0.6,0.6,0,0,1-.84.09Z" transform="translate(-0.01 -8.91)"/>
          <path class="cls-8" d="M423.52,68.11a0.6,0.6,0,0,1-.08-0.84l0.8-1a0.6,0.6,0,0,1,.84-0.09l1,0.8a0.6,0.6,0,0,1,.08.84l-0.8,1a0.59,0.59,0,0,1-.84.09Z" transform="translate(-0.01 -8.91)"/>
          <path class="cls-8" d="M421.62,70.45a0.6,0.6,0,0,1-.09-0.84l0.8-1a0.6,0.6,0,0,1,.84-0.09l1,0.8a0.59,0.59,0,0,1,.08.84l-0.8,1a0.6,0.6,0,0,1-.84.09Z" transform="translate(-0.01 -8.91)"/>
          <path class="cls-8" d="M439.1,49a0.6,0.6,0,0,1-.09-0.84l3.06-3.75a0.6,0.6,0,0,1,.84-0.09l1,0.8A0.59,0.59,0,0,1,444,46l-3.05,3.75a0.6,0.6,0,0,1-.84.09Z" transform="translate(-0.01 -8.91)"/>
        </g>
        <g id="line4-3" data-name="line4">
          <path class="cls-8" d="M437.24,46.24a0.59,0.59,0,0,1-.09-0.84l0.8-1a0.59,0.59,0,0,1,.84-0.09l1,0.8a0.6,0.6,0,0,1,.09.84l-0.8,1a0.6,0.6,0,0,1-.84.09Z" transform="translate(-0.01 -8.91)"/>
          <path class="cls-8" d="M435.33,48.58a0.6,0.6,0,0,1-.09-0.84l0.8-1a0.6,0.6,0,0,1,.85-0.09l1,0.8a0.6,0.6,0,0,1,.09.84l-0.8,1a0.6,0.6,0,0,1-.84.08Z" transform="translate(-0.01 -8.91)"/>
          <path class="cls-8" d="M433.45,50.89a0.6,0.6,0,0,1-.08-0.84l0.8-1A0.6,0.6,0,0,1,435,49l1,0.8a0.6,0.6,0,0,1,.08.84l-0.8,1a0.6,0.6,0,0,1-.84.09Z" transform="translate(-0.01 -8.91)"/>
          <path class="cls-8" d="M419.94,67.46a0.6,0.6,0,0,1-.08-0.84l0.8-1a0.6,0.6,0,0,1,.84-0.09l1,0.8a0.6,0.6,0,0,1,.09.84l-0.8,1a0.6,0.6,0,0,1-.84.09Z" transform="translate(-0.01 -8.91)"/>
          <path class="cls-8" d="M417.86,70a0.6,0.6,0,0,1-.09-0.84l0.8-1a0.6,0.6,0,0,1,.84-0.09l1,0.8a0.6,0.6,0,0,1,.09.84l-0.8,1a0.6,0.6,0,0,1-.85.09Z" transform="translate(-0.01 -8.91)"/>
          <path class="cls-8" d="M416,72.34a0.6,0.6,0,0,1-.09-0.84l0.8-1a0.6,0.6,0,0,1,.84-0.09l1,0.8a0.6,0.6,0,0,1,.09.84l-0.81,1a0.59,0.59,0,0,1-.84.08Z" transform="translate(-0.01 -8.91)"/>
          <path class="cls-8" d="M422,65.13a0.72,0.72,0,0,1-.2-0.95L432.2,51.47a0.67,0.67,0,0,1,.92.07l0.79,0.64a0.6,0.6,0,0,1,.2.84L423.74,65.75a0.66,0.66,0,0,1-.92,0L422,65.13h0Z" transform="translate(-0.01 -8.91)"/>
        </g>
      </g>
    </g>
  </g>
  <g id="note">
    <path class="cls-9" d="M61.3,63.13c0-1.15.54-1.34,1.72-1.38l14.93-.44c1.18,0,2.67.1,2.7,1.25l0.65,21.85c0,1.15-1.43,2-2.61,2.06l-14.93.44A1.73,1.73,0,0,1,61.94,85Z" transform="translate(-0.01 -8.91)"/>
    <polygon class="cls-10" points="63.24 54.77 63.24 54.77 78.72 54.31 78.72 54.31 79.3 73.66 79.3 73.66 63.82 74.12 63.82 74.12 63.24 54.77"/>
    <path class="cls-11" d="M62.77,85a1.4,1.4,0,0,1,.87-2l16.28-.48c0.74,0,1.07,1.28.69,1.92s-5.32,1.37-5.32,1.37c-0.58.76-1.88,2.67-2.59,2.84a4.77,4.77,0,0,1-1.78.07c-0.72-.16-2.22-2-2.76-2.7C68.16,86,63.12,85.4,62.77,85Z" transform="translate(-0.01 -8.91)"/>
    <line class="cls-12" x1="75.34" y1="70.87" x2="67.6" y2="71.1"/>
    <line class="cls-12" x1="75.17" y1="65.07" x2="67.43" y2="65.3"/>
    <line class="cls-12" x1="75" y1="59.26" x2="67.26" y2="59.49"/>
  </g>
  <g id="pencil">
    <polygon class="cls-13" points="56.47 72.91 57.27 70.87 55.89 70.83 56.47 72.91"/>
    <polygon points="56.46 72.88 56.67 72.33 56.3 72.32 56.46 72.88"/>
    <path class="cls-14" d="M56.61,70.13l1,0-0.31,9.61a0.6,0.6,0,0,1-.18.13,0.63,0.63,0,0,1-.2-0.15,2.2,2.2,0,0,1-.31.13,1.55,1.55,0,0,1-.3-0.15l0.3-9.61h0Z" transform="translate(-0.01 -8.91)"/>
    <path class="cls-3" d="M56.23,70.12h0.37L56.3,79.74s0,0.14,0,.14a0.29,0.29,0,0,1-.11-0.14,0.31,0.31,0,0,1-.12.13,0.33,0.33,0,0,1-.11-0.14l0.32-9.61h0Z" transform="translate(-0.01 -8.91)"/>
    <polygon class="cls-15" points="57.62 61.24 56.25 61.2 56.29 59.91 57.66 59.94 57.62 61.24"/>
  </g>
  <g id="NOTE-2" data-name="NOTE">
    <polygon class="cls-10" points="158.11 77.8 158.11 77.8 141.9 77.13 141.9 77.13 143.06 49.13 143.06 49.13 159.28 49.81 159.28 49.81 158.11 77.8"/>
    <polygon class="cls-16" points="159.15 53.05 159.15 53.05 142.93 52.37 142.93 52.37 143.06 49.13 143.06 49.13 159.28 49.81 159.28 49.81 159.15 53.05"/>
    <polygon class="cls-10" points="156.5 79.34 156.5 79.34 140.28 78.66 140.28 78.66 141.46 50.67 141.46 50.67 157.67 51.35 157.67 51.35 156.5 79.34"/>
    <polygon class="cls-16" points="157.54 54.59 157.54 54.59 141.33 53.91 141.33 53.91 141.46 50.67 141.46 50.67 157.67 51.35 157.67 51.35 157.54 54.59"/>
    <line class="cls-12" x1="143.65" y1="64.64" x2="154.13" y2="65.08"/>
    <line class="cls-12" x1="143.39" y1="70.58" x2="153.88" y2="71.02"/>
  </g>
  <g id="NOTE-3" data-name="NOTE">
    <polygon class="cls-17" points="130.88 74.6 130.88 74.6 114.97 74.68 114.97 74.68 114.88 54.79 114.88 54.79 130.79 54.72 130.79 54.72 130.88 74.6"/>
    <rect class="cls-18" x="115.64" y="65.06" width="6.41" height="6.41" transform="translate(49.65 177.66) rotate(-89.55)"/>
    <polygon class="cls-17" points="132.88 72.64 132.88 72.64 116.97 72.71 116.97 72.71 116.88 52.82 116.88 52.82 132.79 52.75 132.79 52.75 132.88 72.64"/>
    <rect class="cls-18" x="118.06" y="64.26" width="6.41" height="4.81" transform="translate(53.62 178.49) rotate(-89.54)"/>
    <rect class="cls-18" x="123.61" y="68.29" width="1.6" height="11.22" transform="translate(49.53 188.81) rotate(-89.55)"/>
    <rect class="cls-18" x="123.57" y="73.1" width="1.6" height="11.22" transform="matrix(0.01, -1, 1, 0.01, 44.66, 193.54)"/>
  </g>
  <g id="NOTE-4" data-name="NOTE">
    <polygon class="cls-19" points="106.22 72.29 106.22 72.29 89.05 72.73 89.05 72.73 88.5 51.27 88.5 51.27 105.67 50.82 105.67 50.82 106.22 72.29"/>
    <polygon class="cls-20" points="106.68 72.72 106.68 72.72 89.51 73.16 89.51 73.16 88.95 51.69 88.95 51.69 106.13 51.25 106.13 51.25 106.68 72.72"/>
    <rect class="cls-21" x="91.17" y="66.37" width="12.88" height="6.44" transform="translate(-2.14 -5.82) rotate(-1.79)"/>
    <polygon class="cls-19" points="107 75.04 107 75.04 89.83 75.48 89.83 75.48 89.28 54.03 89.28 54.03 106.45 53.58 106.45 53.58 107 75.04"/>
    <polygon class="cls-20" points="107.5 75.64 107.5 75.64 90.33 76.08 90.33 76.08 89.78 54.62 89.78 54.62 106.95 54.17 106.95 54.17 107.5 75.64"/>
    <rect class="cls-21" x="91.99" y="69.32" width="12.88" height="6.44" transform="translate(-2.22 -5.8) rotate(-1.79)"/>
  </g>
</svg>
