<?xml version="1.0" encoding="utf-8"?>
<!-- Generator: Adobe Illustrator 19.2.1, SVG Export Plug-In . SVG Version: 6.00 Build 0)  -->
<svg version="1.1" id="图层_1" xmlns="http://www.w3.org/2000/svg" xmlns:xlink="http://www.w3.org/1999/xlink" x="0px" y="0px"
	 viewBox="0 0 1200 433.8" style="enable-background:new 0 0 1200 433.8;" xml:space="preserve">
<style type="text/css">
	.st0{fill:#CBC8B8;}
	.st1{fill:#BCBAAF;}
	.st2{fill:#5E5951;}
	.st3{fill:#A7D6D1;}
	.st4{fill:#666666;}
	.st5{fill:#808080;}
	.st6{fill:#999999;}
	.st7{fill:#E6E6E6;}
	.st8{fill:#CFAD49;}
	.st9{fill:#FFFFFF;}
	.st10{fill:#333333;}
	.st11{fill:none;stroke:#4B4B4B;stroke-linecap:round;stroke-miterlimit:10;}
	.st12{fill:#F4ECBD;}
	.st13{fill:#998D74;}
	.st14{fill:#FC9B7A;}
	.st15{fill:#FB5856;}
	.st16{fill:#D8C59A;}
	.st17{fill:#FBFAF9;}
	.st18{fill:#9B9296;}
	.st19{fill:#D8BFC9;}
	.st20{fill:#E5DCD1;}
</style>
<title>informationservice-large</title>
<g id="char">
	<path class="st0" d="M521.2,296.4c-0.4,1.6-1,2.8-2.6,2.5l-33.4-7.7c-1.6-0.4-1.6-1.8-1.3-3.4l7.5-32.5l37.3,8.6L521.2,296.4z"/>
	<path class="st1" d="M491.1,234.5c0.2-1,1.7-1.5,3.3-1.1l40.9,9.4c1.6,0.4,2.7,1.5,2.5,2.4c0,0-11,13-12.2,17.9l-32.2-7.4
		C494.5,250.9,491.1,234.5,491.1,234.5z"/>
	<path class="st2" d="M488.3,283.3c-0.1,0.5-0.7,0.9-1.2,0.8l0,0l-4.5-1c-0.5-0.1-0.9-0.7-0.8-1.2l0,0l6.1-26.7
		c0.1-0.5,0.7-0.9,1.2-0.8l0,0l4.5,1c0.5,0.1,0.9,0.7,0.8,1.2l0,0L488.3,283.3z"/>
	<path class="st2" d="M525.3,291.8c-0.1,0.5-0.7,0.9-1.2,0.8l0,0l-4.5-1c-0.5-0.1-0.9-0.7-0.8-1.2l0,0l6.1-26.6
		c0.1-0.5,0.7-0.9,1.2-0.8l0,0l4.5,1c0.5,0.1,0.9,0.7,0.7,1.2L525.3,291.8z"/>
</g>
<g id="char-2">
	<path class="st0" d="M638.9,324.4c0,1.5-0.3,2.8-1.9,2.8h-32.1c-1.5,0-1.9-1.2-1.9-2.8c0,0,0-23.3,0-31.2l35.8-0.1L638.9,324.4z"/>
	<path class="st1" d="M598.4,274.5c0-0.9,1.2-1.7,2.8-1.7l39.2-0.1c1.5,0,2.8,0.8,2.8,1.7c0,0-7.3,14.2-7.3,18.9H605
		C605,288.7,598.4,274.5,598.4,274.5z"/>
	<path class="st2" d="M606.2,319.5c0,0.5-0.4,0.9-0.9,0.9c0,0,0,0-0.1,0h-4.4c-0.5,0-0.9-0.4-0.9-0.9c0,0,0,0,0-0.1l-0.1-25.5
		c0-0.5,0.4-0.9,0.9-0.9c0,0,0,0,0.1,0h4.4c0.5,0,0.9,0.4,0.9,0.9c0,0,0,0,0,0.1L606.2,319.5z"/>
	<path class="st2" d="M641.7,319.4c0,0.5-0.4,0.9-0.9,0.9c0,0,0,0-0.1,0h-4.4c-0.5,0-0.9-0.4-0.9-0.9c0,0,0,0,0-0.1l-0.1-25.5
		c0-0.5,0.4-0.9,0.9-0.9c0,0,0,0,0.1,0h4.4c0.5,0,0.9,0.4,0.9,0.9c0,0,0,0,0,0.1L641.7,319.4z"/>
</g>
<g id="char-2_1_">
	<path class="st0" d="M779.2,329.4c-0.1,1.5-0.4,2.8-1.9,2.8l-32.1-0.8c-1.5-0.1-1.8-1.2-1.8-2.9c0,0,0.6-23.3,0.7-31.2l35.7,0.8
		L779.2,329.4z"/>
	<path class="st1" d="M739.9,278.6c0.1-0.9,1.2-1.7,2.8-1.6l39.2,0.9c1.5,0.1,2.8,0.8,2.7,1.7c0,0-7.7,14-7.7,18.7l-30.9-0.7
		C746.2,292.9,739.9,278.6,739.9,278.6z"/>
	<path class="st2" d="M746.6,323.7c0,0.5-0.4,0.9-0.9,1c0,0,0,0-0.1,0l-4.4-0.1c-0.5,0-0.9-0.4-1-0.9c0,0,0,0,0-0.1l0.6-25.5
		c0-0.5,0.4-0.9,0.9-1c0,0,0,0,0.1,0l4.4,0.1c0.5,0,0.9,0.4,1,0.9c0,0,0,0,0,0.1L746.6,323.7z"/>
	<path class="st2" d="M782.1,324.6c0,0.5-0.4,0.9-0.9,1c0,0,0,0-0.1,0l-4.3-0.2c-0.5,0-0.9-0.4-1-0.9c0,0,0,0,0-0.1l0.6-25.5
		c0-0.5,0.4-0.9,0.9-1c0,0,0,0,0.1,0l4.4,0.1c0.5,0,0.9,0.4,1,0.9c0,0,0,0,0,0.1L782.1,324.6z"/>
</g>
<g id="char-3">
	<path class="st0" d="M1083,172.4c1.1,0.8,2,1.6,1.1,2.8l-15.7,23.5c-0.8,1.1-1.8,0.8-3,0l-22.9-15.2l17.5-26.3L1083,172.4z"/>
	<path class="st1" d="M1026.4,177.6c-0.7-0.5-0.6-1.8,0.1-2.9l19.3-28.8c0.8-1.1,2-1.7,2.6-1.3c0,0,6.9,12.3,10.3,14.6l-15.1,22.8
		C1040,179.7,1026.4,177.6,1026.4,177.6z"/>
	<path class="st2" d="M1063.3,194c0.4,0.3,0.5,0.8,0.2,1.1l0,0l-2.1,3.2c-0.3,0.4-0.8,0.5-1.1,0.2l0,0l-18.7-12.5
		c-0.4-0.3-0.5-0.8-0.2-1.2l2.1-3.2c0.3-0.4,0.8-0.5,1.1-0.2l0,0L1063.3,194z"/>
	<path class="st2" d="M1080.6,167.9c0.4,0.3,0.5,0.8,0.2,1.1l0,0l-2.1,3.2c-0.3,0.4-0.8,0.5-1.1,0.2l-18.7-12.5
		c-0.4-0.3-0.5-0.8-0.2-1.1l0,0l2.1-3.2c0.3-0.4,0.8-0.5,1.1-0.2l0,0L1080.6,167.9z"/>
</g>
<g id="char-3_1_">
	<path class="st0" d="M1028.1,260.7c0.6,1.2,1,2.4-0.3,3l-25.1,13.2c-1.2,0.6-2-0.2-2.6-1.4l-12.9-24.3l27.9-14.8L1028.1,260.7z"/>
	<path class="st1" d="M975.9,238.4c-0.4-0.8,0.3-1.9,1.5-2.5l30.7-16.2c1.2-0.6,2.5-0.5,2.9,0.1c0,0,0.2,14.1,2.1,17.7L989,250.3
		C986.8,246.7,975.9,238.4,975.9,238.4z"/>
	<path class="st2" d="M1000.5,270.3c0.2,0.4,0.1,0.9-0.4,1.1l0,0l-3.4,1.8c-0.4,0.2-0.9,0.1-1.1-0.4l0,0l-10.5-19.9
		c-0.2-0.4-0.1-0.9,0.4-1.2l3.4-1.8c0.4-0.2,0.9-0.1,1.1,0.4l0,0L1000.5,270.3z"/>
	<path class="st2" d="M1028.2,255.6c0.2,0.4,0.1,0.9-0.4,1.1l0,0l-3.4,1.8c-0.4,0.2-0.9,0.1-1.1-0.4l-10.5-19.9
		c-0.2-0.4-0.1-0.9,0.4-1.1l0,0l3.4-1.8c0.4-0.2,0.9-0.1,1.1,0.4l0,0L1028.2,255.6z"/>
</g>
<g id="char-3_2_">
	<path class="st0" d="M921.7,315.4c0.2,1.3,0.2,2.5-1.3,2.7l-27.9,4.7c-1.3,0.2-1.8-0.8-2-2.2l-4.7-27.1l31.1-5.3L921.7,315.4z"/>
	<path class="st1" d="M879,277.8c-0.1-0.9,0.9-1.7,2.2-1.9l34.2-5.8c1.3-0.2,2.5,0.3,2.7,1c0,0-4.2,13.4-3.6,17.5l-26.9,4.7
		C886.8,289.2,879,277.8,879,277.8z"/>
	<path class="st2" d="M892.4,315.8c0.1,0.5-0.2,0.9-0.7,0.9l0,0l-3.8,0.7c-0.5,0.1-0.9-0.2-0.9-0.7l0,0l-3.8-22.2
		c-0.1-0.5,0.2-0.9,0.7-1l3.8-0.7c0.5-0.1,0.9,0.2,0.9,0.7l0,0L892.4,315.8z"/>
	<path class="st2" d="M923.3,310.5c0.1,0.5-0.2,0.9-0.7,0.9l0,0l-3.8,0.7c-0.5,0.1-0.9-0.2-0.9-0.7l-3.8-22.2
		c-0.1-0.5,0.2-0.9,0.7-0.9l0,0l3.8-0.7c0.5-0.1,0.9,0.2,0.9,0.7l0,0L923.3,310.5z"/>
</g>
<path class="st3" d="M1200.8,1c0,0,15.1,266.5-181.8,368.7c-94.4,49-266.5,79.6-397.5,55.9C512,405.8,418,348,418,348L12.3,403.1
	L0,322l414-56.9c4.7,3.6,98.6,66.1,210.2,83.8c114.6,18.1,249.2-4,334.8-35.8c175-65.2,158.8-312,158.8-312h83V1z"/>
<g id="desktop">
	<g id="monitor">
		<path d="M495.7,346.1c-0.1,0.3-0.4,0.5-0.6,0.3l-12.8-4.1c-0.3-0.1-0.5-0.4-0.3-0.6l0.7-2c0.1-0.3,0.3-0.5,0.6-0.3l0,0l12.8,4.1
			c0.3,0.1,0.5,0.3,0.3,0.6l0,0L495.7,346.1z"/>
		<path class="st4" d="M512.8,354.6c-0.2,0.7-3.1,0.8-4.4,0.4l-41.9-12.5c-1.4-0.4-3.8-2.2-3.7-2.9l0.8-2.6c0.2-0.7,1.6-1.3,3-0.8
			l45.4,13.6c1,0.2,1.7,1.2,1.6,2.3L512.8,354.6z"/>
	</g>
	<g id="keyboard">
		<path class="st5" d="M473.1,319.6c0.3-1,1.2-2.2,2-2l39.9,11.9c0.7,0.3,0.9,1.8,0.7,2.8l-2.7,9.1c-0.2,0.8-0.9,1.3-1.7,1.2h-0.1
			l-39.9-11.9c-0.7-0.3-1.1-1-0.9-1.7c0-0.1,0-0.1,0.1-0.2L473.1,319.6L473.1,319.6L473.1,319.6z"/>
		<path class="st6" d="M472.9,320.4c0.3-1,1.1-2.1,1.8-1.8l40,11.9c0.7,0.3,1.1,1.7,0.8,2.7l-2.6,8.5c-0.3,0.8-1,1.1-1.8,0.9H511
			l-40-11.9c-0.7-0.3-0.9-0.8-0.7-1.8L472.9,320.4z"/>
		<g id="key">
			<g id="line1">
				<path class="st7" d="M473.6,328.7c0.1-0.3,0.4-0.5,0.7-0.3l0,0l4.3,1.3c0.3,0.1,0.5,0.4,0.3,0.7l0,0l-0.3,1.2
					c-0.1,0.3-0.4,0.5-0.7,0.3l0,0l-4.4-1.3c-0.3-0.1-0.5-0.4-0.3-0.7L473.6,328.7z"/>
				<path class="st7" d="M501.8,337c0.1-0.3,0.4-0.5,0.7-0.3l0,0l1.2,0.3c0.3,0.1,0.5,0.4,0.3,0.7l0,0l-0.3,1.1
					c-0.1,0.3-0.4,0.5-0.7,0.3l0,0l-1.2-0.3c-0.3-0.1-0.5-0.4-0.3-0.7L501.8,337z"/>
				<path class="st7" d="M499,336.3c0.1-0.3,0.3-0.5,0.6-0.3l0,0l1.2,0.3c0.3,0.1,0.5,0.4,0.3,0.7l-0.3,1.2
					c-0.1,0.3-0.4,0.5-0.7,0.3l-1.2-0.3c-0.3-0.1-0.5-0.4-0.3-0.7l0,0L499,336.3z"/>
				<path class="st7" d="M496.3,335.4c0.1-0.3,0.4-0.5,0.7-0.3l0,0l1.2,0.3c0.3,0.1,0.5,0.4,0.3,0.7l0,0l-0.3,1.2
					c-0.1,0.3-0.4,0.5-0.7,0.3l0,0l-1.2-0.3c-0.3-0.1-0.5-0.4-0.3-0.7l0,0L496.3,335.4z"/>
				<path class="st7" d="M493.4,334.6c0.1-0.3,0.4-0.5,0.7-0.3l0,0l1.2,0.3c0.3,0.1,0.5,0.4,0.3,0.7l0,0l-0.3,1.2
					c-0.1,0.3-0.4,0.5-0.7,0.3l0,0l-1.2-0.3c-0.3-0.1-0.5-0.4-0.3-0.7l0,0L493.4,334.6z"/>
				<path class="st7" d="M490.6,333.7c0.1-0.3,0.4-0.5,0.7-0.3l1.2,0.3c0.3,0.1,0.5,0.4,0.3,0.7l0,0l-0.3,1.2
					c-0.1,0.3-0.4,0.5-0.7,0.3l0,0l-1.2-0.3c-0.3-0.1-0.5-0.4-0.3-0.7l0,0L490.6,333.7z"/>
				<path class="st7" d="M487.9,333c0.1-0.3,0.4-0.5,0.7-0.3l0,0l1.2,0.3c0.3,0.1,0.5,0.4,0.3,0.7l0,0l-0.3,1.2
					c-0.1,0.3-0.4,0.5-0.7,0.3l0,0l-1.2-0.3c-0.3-0.1-0.5-0.4-0.3-0.7l0,0L487.9,333z"/>
				<path class="st7" d="M485.2,332.1c0.1-0.3,0.4-0.5,0.7-0.3l0,0l1.2,0.3c0.3,0.1,0.5,0.4,0.3,0.7l-0.3,1.2
					c-0.1,0.3-0.4,0.5-0.7,0.3l-1.2-0.3c-0.3-0.1-0.5-0.4-0.3-0.7l0,0L485.2,332.1z"/>
				<path class="st7" d="M482.2,331.2c0.1-0.3,0.4-0.5,0.7-0.3l0,0l1.2,0.3c0.3,0.1,0.5,0.4,0.3,0.7l0,0l-0.4,1.2
					c-0.1,0.3-0.4,0.5-0.7,0.3l-1.2-0.3c-0.3-0.1-0.5-0.4-0.3-0.7l0,0L482.2,331.2z"/>
				<path class="st7" d="M479.5,330.4c0.1-0.3,0.4-0.5,0.7-0.3l0,0l1.2,0.3c0.3,0.1,0.5,0.4,0.3,0.7l0,0l-0.3,1.2
					c-0.1,0.3-0.4,0.5-0.7,0.3l-1.2-0.3c-0.3-0.1-0.5-0.4-0.3-0.7l0,0L479.5,330.4z"/>
				<path class="st7" d="M504.4,337.9c0.1-0.3,0.4-0.5,0.7-0.3l0,0l4.4,1.3c0.3,0.1,0.5,0.4,0.3,0.7l-0.3,1.2
					c-0.1,0.3-0.4,0.5-0.7,0.3l-4.4-1.3c-0.3-0.1-0.5-0.4-0.3-0.7l0,0L504.4,337.9z"/>
			</g>
			<g id="line2">
				<path class="st7" d="M506.4,335.2c0.1-0.3,0.4-0.5,0.7-0.3l0,0l1.2,0.3c0.3,0.1,0.5,0.4,0.3,0.7l0,0l-0.3,1.2
					c-0.1,0.3-0.4,0.5-0.7,0.3l-1.2-0.3c-0.3-0.1-0.5-0.4-0.3-0.7l0,0L506.4,335.2z"/>
				<path class="st7" d="M503.6,334.4c0.1-0.3,0.4-0.5,0.7-0.3l0,0l1.2,0.3c0.3,0.1,0.5,0.4,0.3,0.7l0,0l-0.3,1.2
					c-0.1,0.3-0.4,0.5-0.7,0.3l0,0l-1.2-0.3c-0.3-0.1-0.5-0.4-0.3-0.7l0,0L503.6,334.4z"/>
				<path class="st7" d="M501.1,333.6c0.1-0.3,0.4-0.5,0.7-0.3l0,0l1.2,0.3c0.3,0.1,0.5,0.4,0.3,0.7l0,0l-0.3,1.2
					c-0.1,0.3-0.4,0.5-0.7,0.3l0,0l-1.2-0.3c-0.3-0.1-0.5-0.4-0.3-0.7L501.1,333.6z"/>
				<path class="st7" d="M498.1,332.8c0.1-0.3,0.4-0.5,0.7-0.3l0,0l1.2,0.3c0.3,0.1,0.5,0.4,0.3,0.7l0,0l-0.3,1.2
					c-0.1,0.3-0.4,0.5-0.7,0.3l-1.2-0.3c-0.3-0.1-0.5-0.4-0.3-0.7l0,0L498.1,332.8z"/>
				<path class="st7" d="M495.5,331.9c0.1-0.3,0.4-0.5,0.7-0.3l0,0l1.2,0.3c0.3,0.1,0.5,0.4,0.3,0.7l0,0l-0.3,1.2
					c-0.1,0.3-0.4,0.5-0.7,0.3l-1.2-0.3c-0.3-0.1-0.5-0.4-0.3-0.7l0,0L495.5,331.9z"/>
				<path class="st7" d="M492.5,331.1c0.1-0.3,0.4-0.5,0.7-0.3l0,0l1.2,0.3c0.3,0.1,0.5,0.4,0.3,0.7l-0.3,1.2
					c-0.1,0.3-0.4,0.5-0.7,0.3l0,0l-1.2-0.3c-0.3-0.1-0.5-0.4-0.3-0.7l0,0L492.5,331.1z"/>
				<path class="st7" d="M489.7,330.2c0.1-0.3,0.4-0.5,0.7-0.3l0,0l1.2,0.3c0.3,0.1,0.5,0.4,0.3,0.7l0,0l-0.3,1.2
					c-0.1,0.3-0.4,0.5-0.7,0.3l0,0l-1.2-0.3c-0.3-0.1-0.5-0.4-0.3-0.7l0,0L489.7,330.2z"/>
				<path class="st7" d="M487.1,329.5c0.1-0.3,0.4-0.5,0.7-0.3l0,0l1.2,0.3c0.3,0.1,0.5,0.4,0.3,0.7l-0.4,1.2
					c-0.1,0.3-0.4,0.5-0.7,0.3l0,0l-1.2-0.3c-0.3-0.1-0.5-0.4-0.3-0.7l0,0L487.1,329.5z"/>
				<path class="st7" d="M484.1,328.6c0.1-0.3,0.4-0.5,0.7-0.3l0,0l1.2,0.3c0.3,0.1,0.5,0.4,0.3,0.7l0,0l-0.3,1.2
					c-0.1,0.3-0.4,0.5-0.7,0.3l-1.2-0.3c-0.3-0.1-0.5-0.4-0.3-0.7l0,0L484.1,328.6z"/>
				<path class="st7" d="M481.4,327.8c0.1-0.3,0.4-0.5,0.7-0.3l0,0l1.2,0.3c0.3,0.1,0.5,0.4,0.3,0.7l0,0l-0.3,1.2
					c-0.1,0.3-0.4,0.5-0.7,0.3l0,0l-1.2-0.3c-0.3-0.1-0.5-0.4-0.3-0.7L481.4,327.8z"/>
				<path class="st7" d="M478.4,326.9c0.1-0.3,0.4-0.5,0.7-0.3l0,0l1.2,0.3c0.3,0.1,0.5,0.4,0.3,0.7l0,0l-0.4,1.2
					c-0.1,0.3-0.4,0.5-0.7,0.3l0,0l-1.2-0.3c-0.3-0.1-0.5-0.4-0.3-0.7l0,0L478.4,326.9z"/>
				<path class="st7" d="M475.8,326c0.1-0.3,0.4-0.5,0.7-0.3l0,0l1.2,0.3c0.3,0.1,0.5,0.4,0.3,0.7l0,0l-0.3,1.2
					c-0.1,0.3-0.4,0.5-0.7,0.3l0,0l-1.2-0.3c-0.3-0.1-0.5-0.4-0.3-0.7l0,0L475.8,326z"/>
			</g>
			<g id="line3">
				<path class="st7" d="M475.3,322.9c0.1-0.3,0.4-0.5,0.7-0.3l0,0l4.4,1.3c0.3,0.1,0.5,0.4,0.3,0.7l0,0l-0.3,1.2
					c-0.1,0.3-0.3,0.5-0.6,0.3l0,0l-4.3-1.3c-0.3-0.1-0.5-0.4-0.3-0.7l0,0L475.3,322.9z"/>
				<path class="st7" d="M503.4,331.2c0.1-0.3,0.4-0.5,0.7-0.3l0,0l1.2,0.3c0.3,0.1,0.5,0.4,0.3,0.7l0,0l-0.3,1.2
					c-0.1,0.3-0.4,0.5-0.7,0.3l0,0l-1.2-0.3c-0.3-0.1-0.5-0.4-0.3-0.7l0,0L503.4,331.2z"/>
				<path class="st7" d="M500.8,330.5c0.1-0.3,0.4-0.5,0.7-0.3l0,0l1.2,0.3c0.3,0.1,0.5,0.4,0.3,0.7l0,0l-0.3,1.2
					c-0.1,0.3-0.4,0.5-0.7,0.3l0,0l-1.2-0.3c-0.3-0.1-0.5-0.4-0.3-0.7l0,0L500.8,330.5z"/>
				<path class="st7" d="M498,329.6c0.1-0.3,0.4-0.5,0.7-0.3l1.2,0.3c0.3,0.1,0.5,0.4,0.3,0.7l0,0l-0.3,1.2
					c-0.1,0.3-0.3,0.5-0.6,0.3l0,0l-1.2-0.3c-0.3-0.1-0.5-0.4-0.3-0.7l0,0L498,329.6z"/>
				<path class="st7" d="M495.2,328.8c0.1-0.3,0.4-0.5,0.7-0.3l0,0l1.2,0.3c0.3,0.1,0.5,0.4,0.3,0.7l0,0l-0.4,1.2
					c-0.1,0.3-0.4,0.5-0.7,0.3l0,0l-1.2-0.3c-0.3-0.1-0.5-0.4-0.3-0.7l0,0L495.2,328.8z"/>
				<path class="st7" d="M492.4,328c0.1-0.3,0.4-0.5,0.7-0.3l0,0l1.1,0.3c0.3,0.1,0.5,0.4,0.3,0.7l0,0l-0.3,1.2
					c-0.1,0.3-0.4,0.5-0.7,0.3l0,0l-1.2-0.3c-0.3-0.1-0.5-0.4-0.3-0.7l0,0L492.4,328z"/>
				<path class="st7" d="M489.5,327.2c0.1-0.3,0.4-0.5,0.7-0.3l0,0l1.2,0.3c0.3,0.1,0.5,0.4,0.3,0.7l-0.3,1.2
					c-0.1,0.3-0.4,0.5-0.7,0.3l0,0l-1.2-0.3c-0.3-0.1-0.5-0.4-0.3-0.7l0,0L489.5,327.2z"/>
				<path class="st7" d="M486.8,326.2c0.1-0.3,0.4-0.5,0.7-0.3l0,0l1.2,0.3c0.3,0.1,0.5,0.4,0.3,0.7l-0.3,1.2
					c-0.1,0.3-0.4,0.5-0.7,0.3l0,0l-1.2-0.3c-0.3-0.1-0.5-0.4-0.3-0.7l0,0L486.8,326.2z"/>
				<path class="st7" d="M483.9,325.5c0.1-0.3,0.4-0.5,0.7-0.3l1.2,0.3c0.3,0.1,0.5,0.4,0.3,0.7l0,0l-0.3,1.2
					c-0.1,0.3-0.4,0.5-0.7,0.3l-1.2-0.3c-0.3-0.1-0.5-0.4-0.3-0.7l0,0L483.9,325.5z"/>
				<path class="st7" d="M481.2,324.6c0.1-0.3,0.4-0.5,0.7-0.3l0,0l1.2,0.3c0.3,0.1,0.5,0.4,0.3,0.7l0,0l-0.3,1.2
					c-0.1,0.3-0.4,0.5-0.7,0.3l0,0l-1.2-0.3c-0.3-0.1-0.5-0.4-0.3-0.7l0,0L481.2,324.6z"/>
				<path class="st7" d="M506.1,332.1c0.1-0.3,0.4-0.5,0.7-0.3l0,0l4.4,1.3c0.3,0.1,0.5,0.4,0.3,0.7l0,0l-0.3,1.2
					c-0.1,0.3-0.4,0.5-0.7,0.3l0,0l-4.4-1.3c-0.3-0.1-0.5-0.4-0.3-0.7l0,0L506.1,332.1z"/>
			</g>
			<g id="line4">
				<path class="st7" d="M507.9,329.5c0.1-0.3,0.4-0.5,0.7-0.3l0,0l1.2,0.3c0.3,0.1,0.5,0.4,0.3,0.7l0,0l-0.3,1.2
					c-0.1,0.3-0.4,0.5-0.7,0.3l0,0l-1.2-0.3c-0.3-0.1-0.5-0.4-0.3-0.7l0,0L507.9,329.5z"/>
				<path class="st7" d="M505.1,328.7c0.1-0.3,0.4-0.5,0.7-0.3l0,0l1.2,0.3c0.3,0.1,0.5,0.4,0.3,0.7l0,0l-0.3,1.2
					c-0.1,0.3-0.4,0.5-0.7,0.3l0,0l-1.2-0.3c-0.3-0.1-0.5-0.4-0.3-0.7l0,0L505.1,328.7z"/>
				<path class="st7" d="M502.5,327.8c0.1-0.3,0.4-0.5,0.7-0.3l0,0l1.1,0.3c0.3,0.1,0.5,0.4,0.3,0.7l0,0l-0.3,1.2
					c-0.1,0.3-0.4,0.5-0.7,0.3l-1.1-0.4c-0.3-0.1-0.5-0.4-0.3-0.7l0,0L502.5,327.8z"/>
				<path class="st7" d="M483.2,322.1c0.1-0.3,0.4-0.5,0.7-0.3l0,0l1.2,0.4c0.3,0.1,0.5,0.4,0.3,0.7l0,0l-0.3,1.2
					c-0.1,0.3-0.4,0.5-0.7,0.3l0,0l-1.2-0.4c-0.3-0.1-0.5-0.4-0.3-0.7l0,0L483.2,322.1z"/>
				<path class="st7" d="M480.3,321.2c0.1-0.3,0.4-0.5,0.7-0.3l0,0l1.2,0.3c0.3,0.1,0.5,0.4,0.3,0.7l-0.3,1.2
					c-0.1,0.3-0.4,0.5-0.7,0.3l0,0l-1.2-0.3c-0.3-0.1-0.5-0.4-0.3-0.7l0,0L480.3,321.2z"/>
				<path class="st7" d="M477.6,320.4c0.1-0.3,0.4-0.5,0.7-0.3l0,0l1.2,0.3c0.3,0.1,0.5,0.4,0.3,0.7l0,0l-0.3,1.2
					c-0.1,0.3-0.4,0.5-0.7,0.3l0,0l-1.2-0.3c-0.3-0.1-0.5-0.4-0.3-0.7l0,0L477.6,320.4z"/>
				<path class="st7" d="M486,323c0.1-0.3,0.5-0.6,0.8-0.5l14.8,4.4c0.3,0.1,0.5,0.5,0.2,0.8l-0.3,0.9c0,0.3-0.4,0.6-0.6,0.4l0,0
					l-14.8-4.4c-0.3-0.1-0.5-0.4-0.3-0.8L486,323L486,323L486,323z"/>
			</g>
		</g>
	</g>
</g>
<g id="desktop-2">
	<g id="monitor-2">
		<path d="M625.7,378.2c0,0.3-0.3,0.5-0.6,0.5l-13.5-0.8c-0.3,0-0.5-0.3-0.5-0.6l0,0l0.1-2.2c0-0.3,0.3-0.5,0.6-0.5l13.5,0.8
			c0.3,0,0.5,0.3,0.5,0.6L625.7,378.2z"/>
		<path class="st4" d="M644.3,382.3c0,0.8-2.8,1.5-4.2,1.5l-43.8-1.8c-1.4-0.1-4.3-1.2-4.3-1.9l0.1-2.7c0-0.8,1.3-1.6,2.7-1.6
			l47.5,2.1c1.1-0.1,2,0.7,2.1,1.8L644.3,382.3z"/>
	</g>
	<g id="keyboard-2">
		<path class="st5" d="M597.1,358.1c0-1,0.7-2.4,1.4-2.4l41.7,1.8c0.8,0,1.4,1.5,1.4,2.5l-0.4,9.5c0,0.8-0.6,1.5-1.4,1.5h-0.1
			l-41.7-1.8c-0.7,0-1.3-0.7-1.2-1.4c0-0.1,0-0.2,0-0.2L597.1,358.1L597.1,358.1L597.1,358.1z"/>
		<path class="st6" d="M597.1,358.8c0.1-1,0.5-2.3,1.3-2.3l41.8,1.8c0.7,0,1.4,1.4,1.4,2.4l-0.4,8.9c0,0.8-0.6,1.4-1.4,1.4h-0.1
			l-41.8-1.8c-0.7,0-1.1-0.5-1.1-1.5L597.1,358.8z"/>
		<g id="key-2">
			<g id="line1-2">
				<path class="st7" d="M599.8,366.7c0-0.3,0.3-0.5,0.6-0.5l4.5,0.2c0.3,0,0.5,0.3,0.5,0.6l-0.1,1.2c0,0.3-0.3,0.6-0.6,0.5l0,0
					l-4.6-0.2c-0.3,0-0.5-0.3-0.5-0.6L599.8,366.7z"/>
				<path class="st7" d="M629.2,368c0-0.3,0.3-0.5,0.6-0.5l1.2,0.1c0.3,0,0.6,0.3,0.5,0.6l0,0l-0.1,1.2c0,0.3-0.3,0.6-0.6,0.5l0,0
					l-1.2-0.1c-0.3,0-0.5-0.3-0.5-0.6L629.2,368z"/>
				<path class="st7" d="M626.4,367.9c0-0.3,0.3-0.5,0.6-0.5l1.2,0.1c0.3,0,0.6,0.3,0.5,0.6l0,0l-0.1,1.2c0,0.3-0.3,0.5-0.6,0.5
					l-1.2-0.1c-0.3,0-0.5-0.3-0.5-0.6L626.4,367.9z"/>
				<path class="st7" d="M623.6,367.7c0-0.3,0.3-0.5,0.6-0.5l1.2,0.1c0.3,0,0.5,0.3,0.5,0.6l-0.1,1.2c0,0.3-0.3,0.6-0.6,0.5l0,0
					l-1.2-0.1c-0.3,0-0.6-0.3-0.5-0.6l0,0L623.6,367.7z"/>
				<path class="st7" d="M620.5,367.6c0-0.3,0.3-0.5,0.6-0.5l1.2,0.1c0.3,0,0.6,0.3,0.5,0.6l0,0l-0.1,1.2c0,0.3-0.3,0.6-0.6,0.5l0,0
					l-1.2-0.1c-0.3,0-0.6-0.3-0.5-0.6l0,0L620.5,367.6z"/>
				<path class="st7" d="M617.6,367.5c0-0.3,0.3-0.6,0.6-0.5l0,0l1.2,0.1c0.3,0,0.6,0.3,0.5,0.6l-0.1,1.2c0,0.3-0.3,0.5-0.6,0.5
					l-1.2-0.1c-0.3,0-0.5-0.3-0.5-0.6L617.6,367.5z"/>
				<path class="st7" d="M614.7,367.3c0-0.3,0.3-0.6,0.6-0.5l0,0l1.2,0.1c0.3,0,0.5,0.3,0.5,0.6l-0.1,1.2c0,0.3-0.3,0.6-0.6,0.5l0,0
					l-1.2-0.1c-0.3,0-0.6-0.3-0.5-0.6l0,0L614.7,367.3z"/>
				<path class="st7" d="M611.9,367.2c0-0.3,0.3-0.6,0.6-0.5l1.2,0.1c0.3,0,0.5,0.3,0.5,0.6l-0.1,1.2c0,0.3-0.3,0.6-0.6,0.5l0,0
					l-1.2-0.1c-0.3,0-0.6-0.3-0.5-0.6l0,0L611.9,367.2z"/>
				<path class="st7" d="M608.9,367.1c0-0.3,0.3-0.6,0.6-0.5l0,0l1.2,0.1c0.3,0,0.6,0.3,0.5,0.6l0,0l-0.1,1.2c0,0.3-0.3,0.5-0.6,0.5
					l-1.2-0.1c-0.3,0-0.6-0.3-0.5-0.6l0,0L608.9,367.1z"/>
				<path class="st7" d="M606,367c0-0.3,0.3-0.6,0.6-0.5l0,0l1.2,0.1c0.3,0,0.6,0.3,0.5,0.6l0,0l-0.1,1.2c0,0.3-0.3,0.5-0.6,0.5
					l-1.2-0.1c-0.3,0-0.6-0.3-0.5-0.6l0,0L606,367z"/>
				<path class="st7" d="M632.1,368.1c0-0.3,0.3-0.6,0.6-0.5l0,0l4.5,0.2c0.3,0,0.6,0.3,0.5,0.6l0,0l-0.1,1.2c0,0.3-0.3,0.6-0.6,0.5
					l0,0l-4.5-0.2c-0.3,0-0.6-0.3-0.5-0.6l0,0L632.1,368.1z"/>
			</g>
			<g id="line2-2">
				<path class="st7" d="M633.2,365c0-0.3,0.3-0.5,0.6-0.5l1.2,0.1c0.3,0,0.6,0.3,0.5,0.6l-0.1,1.2c0,0.3-0.3,0.6-0.6,0.5l-1.2-0.1
					c-0.3,0-0.6-0.3-0.5-0.6l0,0L633.2,365z"/>
				<path class="st7" d="M630.4,364.9c0-0.3,0.3-0.6,0.6-0.5l0,0l1.2,0.1c0.3,0,0.6,0.3,0.5,0.6l0,0l-0.1,1.2c0,0.3-0.3,0.6-0.6,0.5
					l0,0l-1.2-0.1c-0.3,0-0.6-0.3-0.5-0.6l0,0L630.4,364.9z"/>
				<path class="st7" d="M627.7,364.8c0-0.3,0.3-0.6,0.6-0.5l0,0l1.2,0.1c0.3,0,0.6,0.3,0.5,0.6l0,0l-0.1,1.2c0,0.3-0.3,0.5-0.6,0.5
					l-1.2-0.1c-0.3,0-0.6-0.3-0.5-0.6L627.7,364.8z"/>
				<path class="st7" d="M624.7,364.7c0-0.3,0.3-0.5,0.6-0.5l1.2,0.1c0.3,0,0.6,0.3,0.5,0.6l0,0l-0.1,1.2c0,0.3-0.3,0.5-0.6,0.5
					l-1.2-0.1c-0.3,0-0.6-0.3-0.5-0.6l0,0L624.7,364.7z"/>
				<path class="st7" d="M621.9,364.5c0-0.3,0.3-0.6,0.6-0.5l0,0l1.2,0.1c0.3,0,0.6,0.3,0.5,0.6l0,0l-0.1,1.2c0,0.3-0.3,0.6-0.6,0.5
					l0,0l-1.2-0.1c-0.3,0-0.6-0.3-0.5-0.6l0,0L621.9,364.5z"/>
				<path class="st7" d="M618.7,364.4c0-0.3,0.3-0.6,0.6-0.5l0,0l1.2,0.1c0.3,0,0.5,0.3,0.5,0.6l-0.1,1.2c0,0.3-0.3,0.5-0.6,0.5
					l-1.2-0.1c-0.3,0-0.6-0.3-0.5-0.6l0,0L618.7,364.4z"/>
				<path class="st7" d="M616,364.3c0-0.3,0.3-0.5,0.6-0.5l1.2,0.1c0.3,0,0.5,0.3,0.5,0.6l-0.1,1.2c0,0.3-0.3,0.6-0.6,0.5l0,0
					l-1.2-0.1c-0.3,0-0.6-0.3-0.5-0.6l0,0L616,364.3z"/>
				<path class="st7" d="M613.1,364.2c0-0.3,0.3-0.6,0.6-0.5l0,0l1.2,0.1c0.3,0,0.6,0.3,0.5,0.6l0,0l-0.1,1.2c0,0.3-0.3,0.5-0.6,0.5
					l-1.2-0.1c-0.3,0-0.6-0.3-0.5-0.6l0,0L613.1,364.2z"/>
				<path class="st7" d="M610,364c0-0.3,0.3-0.6,0.6-0.5l0,0l1.2,0.1c0.3,0,0.6,0.3,0.5,0.6l0,0l-0.1,1.2c0,0.3-0.3,0.6-0.6,0.5l0,0
					l-1.2-0.1c-0.3,0-0.6-0.3-0.5-0.6l0,0L610,364z"/>
				<path class="st7" d="M607.2,363.9c0-0.3,0.3-0.6,0.6-0.5l0,0l1.2,0.1c0.3,0,0.5,0.3,0.5,0.6l-0.1,1.2c0,0.3-0.3,0.6-0.6,0.5l0,0
					l-1.2-0.1c-0.3,0-0.6-0.3-0.5-0.6L607.2,363.9z"/>
				<path class="st7" d="M604.1,363.8c0-0.3,0.3-0.6,0.6-0.5l0,0l1.2,0.1c0.3,0,0.6,0.3,0.5,0.6l0,0l-0.1,1.2c0,0.3-0.3,0.6-0.6,0.5
					l0,0l-1.2-0.1c-0.3,0-0.5-0.3-0.5-0.6L604.1,363.8z"/>
				<path class="st7" d="M601.2,363.7c0-0.3,0.3-0.5,0.6-0.5l1.2,0.1c0.3,0,0.6,0.3,0.5,0.6l0,0l-0.1,1.2c0,0.3-0.3,0.6-0.6,0.5l0,0
					l-1.2-0.1c-0.3,0-0.6-0.3-0.5-0.6L601.2,363.7z"/>
			</g>
			<g id="line3-2">
				<path class="st7" d="M600.1,360.7c0-0.3,0.3-0.6,0.6-0.5l4.6,0.2c0.3,0,0.5,0.3,0.5,0.6l-0.1,1.2c0,0.3-0.3,0.5-0.6,0.5l0,0
					l-4.5-0.2c-0.3,0-0.5-0.3-0.5-0.6V360.7z"/>
				<path class="st7" d="M629.4,361.9c0-0.3,0.3-0.6,0.6-0.5l0,0l1.2,0.1c0.3,0,0.6,0.3,0.5,0.6l0,0l-0.1,1.2c0,0.3-0.3,0.6-0.6,0.5
					l0,0l-1.2-0.1c-0.3,0-0.6-0.3-0.5-0.6l0,0L629.4,361.9z"/>
				<path class="st7" d="M626.6,361.8c0-0.3,0.3-0.6,0.6-0.5l0,0l1.2,0.1c0.3,0,0.6,0.3,0.5,0.6l0,0l-0.1,1.2c0,0.3-0.3,0.6-0.6,0.5
					l0,0l-1.2-0.1c-0.3,0-0.6-0.3-0.5-0.6l0,0L626.6,361.8z"/>
				<path class="st7" d="M623.8,361.7c0-0.3,0.3-0.5,0.6-0.5l1.2,0.1c0.3,0,0.6,0.3,0.5,0.6l0,0l-0.1,1.2c0,0.3-0.3,0.6-0.6,0.5l0,0
					l-1.2-0.1c-0.3,0-0.5-0.3-0.5-0.6L623.8,361.7z"/>
				<path class="st7" d="M620.9,361.6c0-0.3,0.3-0.5,0.6-0.5l1.2,0.1c0.3,0,0.6,0.3,0.5,0.6l0,0l-0.1,1.2c0,0.3-0.3,0.6-0.6,0.5l0,0
					l-1.2-0.1c-0.3,0-0.6-0.3-0.5-0.6l0,0L620.9,361.6z"/>
				<path class="st7" d="M618,361.4c0-0.3,0.3-0.5,0.6-0.5l1.2,0.1c0.3,0,0.5,0.3,0.5,0.6l-0.1,1.2c0,0.3-0.3,0.6-0.6,0.5l0,0
					l-1.2-0.1c-0.3,0-0.6-0.3-0.5-0.6l0,0L618,361.4z"/>
				<path class="st7" d="M615,361.3c0-0.3,0.3-0.6,0.6-0.5l1.2,0.1c0.3,0,0.6,0.3,0.5,0.6l-0.1,1.2c0,0.3-0.3,0.5-0.6,0.5l-1.2-0.1
					c-0.3,0-0.6-0.3-0.5-0.6l0,0L615,361.3z"/>
				<path class="st7" d="M612.1,361.2c0-0.3,0.3-0.6,0.6-0.5l0,0l1.2,0.1c0.3,0,0.6,0.3,0.5,0.6l0,0l-0.1,1.2c0,0.3-0.3,0.6-0.6,0.5
					l0,0l-1.2-0.1c-0.3,0-0.6-0.3-0.5-0.6l0,0L612.1,361.2z"/>
				<path class="st7" d="M609.1,361.1c0-0.3,0.3-0.6,0.6-0.5l0,0l1.2,0.1c0.3,0,0.5,0.3,0.5,0.6l-0.1,1.2c0,0.3-0.3,0.5-0.6,0.5
					l-1.2-0.1c-0.3,0-0.6-0.3-0.5-0.6l0,0L609.1,361.1z"/>
				<path class="st7" d="M606.3,360.9c0-0.3,0.3-0.6,0.6-0.5l0,0l1.2,0.1c0.3,0,0.6,0.3,0.5,0.6l0,0l-0.1,1.2c0,0.3-0.3,0.5-0.6,0.5
					l0,0l-1.2-0.1c-0.3,0-0.6-0.3-0.5-0.6l0,0L606.3,360.9z"/>
				<path class="st7" d="M632.3,362.1c0-0.3,0.3-0.6,0.6-0.5l0,0l4.5,0.2c0.3,0,0.6,0.3,0.5,0.6l0,0l-0.1,1.2c0,0.3-0.3,0.6-0.6,0.5
					l0,0l-4.5-0.2c-0.3,0-0.6-0.3-0.5-0.6l0,0L632.3,362.1z"/>
			</g>
			<g id="line4-2">
				<path class="st7" d="M633.4,359.1c0-0.3,0.3-0.5,0.6-0.5l1.2,0.1c0.3,0,0.6,0.3,0.5,0.6l0,0l-0.1,1.2c0,0.3-0.3,0.6-0.6,0.5l0,0
					l-1.2-0.1c-0.3,0-0.6-0.3-0.5-0.6l0,0L633.4,359.1z"/>
				<path class="st7" d="M630.5,359c0-0.3,0.3-0.6,0.6-0.5l0,0l1.2,0.1c0.3,0,0.6,0.3,0.5,0.6l0,0l-0.1,1.2c0,0.3-0.3,0.6-0.6,0.5
					l0,0l-1.2-0.1c-0.3,0-0.6-0.3-0.5-0.6l0,0L630.5,359z"/>
				<path class="st7" d="M627.7,358.9c0-0.3,0.3-0.6,0.6-0.5l0,0l1.2,0.1c0.3,0,0.6,0.3,0.5,0.6l0,0l-0.1,1.2c0,0.3-0.3,0.6-0.6,0.5
					l0,0l-1.2-0.1c-0.3,0-0.6-0.3-0.5-0.6l0,0L627.7,358.9z"/>
				<path class="st7" d="M607.6,358c0-0.3,0.3-0.6,0.6-0.5l0,0l1.2,0.1c0.3,0,0.6,0.3,0.5,0.6l-0.1,1.2c0,0.3-0.3,0.6-0.6,0.5l0,0
					l-1.2-0.1c-0.3,0-0.6-0.3-0.5-0.6l0,0L607.6,358z"/>
				<path class="st7" d="M604.5,357.9c0-0.3,0.3-0.6,0.6-0.5l0,0l1.2,0.1c0.3,0,0.6,0.3,0.5,0.6l0,0l-0.1,1.2c0,0.3-0.3,0.5-0.6,0.5
					l-1.2-0.1c-0.3,0-0.5-0.3-0.5-0.6L604.5,357.9z"/>
				<path class="st7" d="M601.6,357.7c0-0.3,0.3-0.6,0.6-0.5l0,0h1.2c0.3,0,0.6,0.3,0.5,0.6l-0.1,1.2c0,0.3-0.3,0.5-0.6,0.5
					l-1.2-0.1c-0.3,0-0.6-0.3-0.5-0.6l0,0L601.6,357.7z"/>
				<path class="st7" d="M610.5,358.3c0-0.3,0.3-0.6,0.6-0.7l15.5,0.7c0.3,0.1,0.5,0.4,0.5,0.7l-0.1,1c0,0.3-0.2,0.6-0.5,0.6l0,0
					l-15.5-0.7c-0.3,0-0.6-0.3-0.5-0.7V358.3L610.5,358.3L610.5,358.3z"/>
			</g>
		</g>
	</g>
</g>
<g id="desktop-2_1_">
	<g id="monitor-2_1_">
		<path d="M766.9,383c0,0.3-0.3,0.6-0.6,0.5l-13.5-0.5c-0.3,0-0.5-0.3-0.5-0.6l0,0l0.1-2.2c0-0.3,0.3-0.6,0.6-0.5l13.5,0.5
			c0.3,0,0.6,0.3,0.5,0.6L766.9,383z"/>
		<path class="st4" d="M785.6,386.7c0,0.8-2.7,1.6-4.1,1.5l-43.8-0.9c-1.4-0.1-4.3-1.1-4.3-1.8v-2.7c0-0.7,1.2-1.7,2.6-1.6l47.5,1.1
			c1-0.1,2,0.6,2.1,1.8V386.7z"/>
	</g>
	<g id="keyboard-2_1_">
		<path class="st5" d="M738,363.4c0-1,0.6-2.4,1.3-2.5l41.8,1c0.7,0,1.4,1.5,1.4,2.5l-0.2,9.5c0,0.8-0.6,1.5-1.4,1.5h-0.1l-41.8-1
			c-0.7,0-1.3-0.7-1.2-1.4c0-0.1,0-0.2,0-0.2L738,363.4L738,363.4L738,363.4z"/>
		<path class="st6" d="M737.9,364.2c0-1,0.5-2.4,1.2-2.3l41.9,1c0.7,0,1.4,1.4,1.4,2.4l-0.3,8.9c0,0.8-0.6,1.4-1.4,1.4h-0.1l-41.9-1
			c-0.7,0-1.1-0.5-1.1-1.4L737.9,364.2z"/>
		<g id="key-2_1_">
			<g id="line1-2_1_">
				<path class="st7" d="M740.8,372c0-0.3,0.3-0.6,0.6-0.5l4.5,0.1c0.3,0,0.6,0.3,0.5,0.6v1.2c0,0.3-0.3,0.6-0.6,0.5l0,0l-4.5-0.1
					c-0.3,0-0.6-0.3-0.5-0.6V372z"/>
				<path class="st7" d="M770.2,372.7c0-0.3,0.3-0.6,0.6-0.5h1.2c0.3,0,0.6,0.3,0.5,0.6l0,0v1.2c0,0.3-0.3,0.6-0.6,0.5l0,0h-1.2
					c-0.3,0-0.6-0.3-0.5-0.6V372.7z"/>
				<path class="st7" d="M767.4,372.6c0-0.3,0.3-0.6,0.6-0.5h1.2c0.3,0,0.6,0.3,0.5,0.6l0,0v1.2c0,0.3-0.3,0.6-0.6,0.5h-1.2
					c-0.3,0-0.6-0.3-0.5-0.6V372.6z"/>
				<path class="st7" d="M764.6,372.5c0-0.3,0.3-0.6,0.6-0.5h1.2c0.3,0,0.6,0.3,0.5,0.6v1.2c0,0.3-0.3,0.6-0.6,0.5l0,0h-1.2
					c-0.3,0-0.6-0.3-0.5-0.6l0,0V372.5z"/>
				<path class="st7" d="M761.5,372.4c0-0.3,0.3-0.6,0.6-0.5h1.2c0.3,0,0.6,0.3,0.5,0.6l0,0v1.2c0,0.3-0.3,0.6-0.6,0.5l0,0H762
					c-0.3,0-0.6-0.3-0.5-0.6l0,0V372.4z"/>
				<path class="st7" d="M758.7,372.4c0-0.3,0.3-0.6,0.6-0.5l0,0h1.2c0.3,0,0.6,0.3,0.5,0.6v1.2c0,0.3-0.3,0.6-0.6,0.5h-1.2
					c-0.3,0-0.6-0.3-0.5-0.6V372.4z"/>
				<path class="st7" d="M755.7,372.3c0-0.3,0.3-0.6,0.6-0.5l0,0h1.2c0.3,0,0.6,0.3,0.5,0.6v1.2c0,0.3-0.3,0.6-0.6,0.5l0,0h-1.2
					c-0.3,0-0.6-0.3-0.5-0.6l0,0V372.3z"/>
				<path class="st7" d="M752.8,372.2c0-0.3,0.3-0.6,0.6-0.5h1.2c0.3,0,0.6,0.3,0.5,0.6v1.2c0,0.3-0.3,0.6-0.6,0.5l0,0h-1.2
					c-0.3,0-0.6-0.3-0.5-0.6l0,0V372.2z"/>
				<path class="st7" d="M749.8,372.1c0-0.3,0.3-0.6,0.6-0.5l0,0h1.2c0.3,0,0.6,0.3,0.5,0.6l0,0v1.2c0,0.3-0.3,0.6-0.6,0.5h-1.1
					c-0.3,0-0.6-0.3-0.5-0.6l0,0L749.8,372.1z"/>
				<path class="st7" d="M747,372.1c0-0.3,0.3-0.6,0.6-0.5l0,0h1.2c0.3,0,0.6,0.3,0.5,0.6l0,0v1.2c0,0.3-0.3,0.6-0.6,0.5h-1.2
					c-0.3,0-0.6-0.3-0.5-0.6l0,0V372.1z"/>
				<path class="st7" d="M773.1,372.7c0-0.3,0.3-0.6,0.6-0.5l0,0l4.5,0.1c0.3,0,0.6,0.3,0.5,0.6l0,0v1.2c0,0.3-0.3,0.6-0.6,0.5l0,0
					l-4.5-0.1c-0.3,0-0.6-0.3-0.5-0.6l0,0V372.7z"/>
			</g>
			<g id="line2-2_1_">
				<path class="st7" d="M774.2,369.6c0-0.3,0.3-0.6,0.6-0.5h1.2c0.3,0,0.6,0.3,0.5,0.6v1.2c0,0.3-0.3,0.6-0.6,0.5h-1.2
					c-0.3,0-0.6-0.3-0.5-0.6l0,0V369.6z"/>
				<path class="st7" d="M771.4,369.6c0-0.3,0.3-0.6,0.6-0.5l0,0h1.2c0.3,0,0.6,0.3,0.5,0.6l0,0v1.2c0,0.3-0.3,0.6-0.6,0.5l0,0h-1.2
					c-0.3,0-0.6-0.3-0.5-0.6l0,0V369.6z"/>
				<path class="st7" d="M768.7,369.6c0-0.3,0.3-0.6,0.6-0.5l0,0h1.2c0.3,0,0.6,0.3,0.5,0.6l0,0v1.2c0,0.3-0.3,0.6-0.6,0.5h-1.2
					c-0.3,0-0.6-0.3-0.5-0.6V369.6z"/>
				<path class="st7" d="M765.6,369.5c0-0.3,0.3-0.6,0.6-0.5h1.2c0.3,0,0.6,0.3,0.5,0.6l0,0v1.2c0,0.3-0.3,0.6-0.6,0.5h-1.2
					c-0.3,0-0.6-0.3-0.5-0.6l0,0V369.5z"/>
				<path class="st7" d="M762.9,369.4c0-0.3,0.3-0.6,0.6-0.5l0,0h1.2c0.3,0,0.6,0.3,0.5,0.6l0,0v1.2c0,0.3-0.3,0.6-0.6,0.5l0,0h-1.2
					c-0.3,0-0.6-0.3-0.5-0.6l0,0V369.4z"/>
				<path class="st7" d="M759.7,369.3c0-0.3,0.3-0.6,0.6-0.5l0,0h1.2c0.3,0,0.6,0.3,0.5,0.6v1.2c0,0.3-0.3,0.6-0.6,0.5h-1.2
					c-0.3,0-0.6-0.3-0.5-0.6l0,0V369.3z"/>
				<path class="st7" d="M756.9,369.3c0-0.3,0.3-0.6,0.6-0.5h1.2c0.3,0,0.6,0.3,0.5,0.6v1.2c0,0.3-0.3,0.6-0.6,0.5l0,0h-1.2
					c-0.3,0-0.6-0.3-0.5-0.6l0,0V369.3z"/>
				<path class="st7" d="M754.1,369.2c0-0.3,0.3-0.6,0.6-0.5l0,0h1.2c0.3,0,0.6,0.3,0.5,0.6l0,0v1.2c0,0.3-0.3,0.6-0.6,0.5h-1.2
					c-0.3,0-0.6-0.3-0.5-0.6l0,0V369.2z"/>
				<path class="st7" d="M751,369.2c0-0.3,0.3-0.6,0.6-0.5l0,0h1.2c0.3,0,0.6,0.3,0.5,0.6l0,0v1.2c0,0.3-0.3,0.6-0.6,0.5l0,0h-1.2
					c-0.3,0-0.6-0.3-0.5-0.6l0,0V369.2z"/>
				<path class="st7" d="M748.1,369c0-0.3,0.3-0.6,0.6-0.5l0,0h1.2c0.3,0,0.6,0.3,0.5,0.6v1.2c0,0.3-0.3,0.6-0.6,0.5l0,0h-1.2
					c-0.3,0-0.6-0.3-0.5-0.6V369z"/>
				<path class="st7" d="M745.1,369c0-0.3,0.3-0.6,0.6-0.5l0,0h1.2c0.3,0,0.6,0.3,0.5,0.6l0,0v1.2c0,0.3-0.3,0.6-0.6,0.5l0,0h-1.2
					c-0.3,0-0.6-0.3-0.5-0.6V369z"/>
				<path class="st7" d="M742.2,368.9c0-0.3,0.3-0.6,0.6-0.5h1.2c0.3,0,0.6,0.3,0.5,0.6l0,0v1.2c0,0.3-0.3,0.6-0.6,0.5l0,0h-1.2
					c-0.3,0-0.6-0.3-0.5-0.6V368.9z"/>
			</g>
			<g id="line3-2_1_">
				<path class="st7" d="M741,366c0-0.3,0.3-0.6,0.6-0.5l4.5,0.1c0.3,0,0.6,0.3,0.5,0.6v1.2c0,0.3-0.3,0.6-0.6,0.5l0,0l-4.5-0.1
					c-0.3,0-0.6-0.3-0.5-0.6V366z"/>
				<path class="st7" d="M770.3,366.6c0-0.3,0.3-0.6,0.6-0.5l0,0h1.2c0.3,0,0.6,0.3,0.5,0.6l0,0v1.2c0,0.3-0.3,0.6-0.6,0.5l0,0h-1.2
					c-0.3,0-0.6-0.3-0.5-0.6l0,0V366.6z"/>
				<path class="st7" d="M767.5,366.6c0-0.3,0.3-0.6,0.6-0.5l0,0h1.2c0.3,0,0.6,0.3,0.5,0.6l0,0v1.2c0,0.3-0.3,0.6-0.6,0.5l0,0H768
					c-0.3,0-0.6-0.3-0.5-0.6l0,0V366.6z"/>
				<path class="st7" d="M764.7,366.5c0-0.3,0.3-0.6,0.6-0.5h1.2c0.3,0,0.6,0.3,0.5,0.6l0,0v1.2c0,0.3-0.3,0.6-0.6,0.5l0,0h-1.2
					c-0.3,0-0.6-0.3-0.5-0.6V366.5z"/>
				<path class="st7" d="M761.8,366.4c0-0.3,0.3-0.6,0.6-0.5h1.2c0.3,0,0.6,0.3,0.5,0.6l0,0v1.2c0,0.3-0.3,0.6-0.6,0.5l0,0h-1.2
					c-0.3,0-0.6-0.3-0.5-0.6l0,0V366.4z"/>
				<path class="st7" d="M758.9,366.4c0-0.3,0.3-0.6,0.6-0.5h1.2c0.3,0,0.6,0.3,0.5,0.6v1.2c0,0.3-0.3,0.6-0.6,0.5l0,0h-1.2
					c-0.3,0-0.6-0.3-0.5-0.6l0,0V366.4z"/>
				<path class="st7" d="M755.9,366.3c0-0.3,0.3-0.6,0.6-0.5h1.2c0.3,0,0.6,0.3,0.5,0.6v1.2c0,0.3-0.3,0.6-0.6,0.5h-1.2
					c-0.3,0-0.6-0.3-0.5-0.6l0,0V366.3z"/>
				<path class="st7" d="M752.9,366.3c0-0.3,0.3-0.6,0.6-0.5l0,0h1.2c0.3,0,0.6,0.3,0.5,0.6l0,0v1.2c0,0.3-0.3,0.6-0.6,0.5l0,0h-1.2
					c-0.3,0-0.6-0.3-0.5-0.6l0,0V366.3z"/>
				<path class="st7" d="M749.9,366.1c0-0.3,0.3-0.6,0.6-0.5l0,0h1.2c0.3,0,0.6,0.3,0.5,0.6v1.2c0,0.3-0.3,0.6-0.6,0.5h-1.2
					c-0.3,0-0.6-0.3-0.5-0.6l0,0V366.1z"/>
				<path class="st7" d="M747.1,366.1c0-0.3,0.3-0.6,0.6-0.5l0,0h1.2c0.3,0,0.6,0.3,0.5,0.6l0,0v1.2c0,0.3-0.3,0.6-0.6,0.5l0,0h-1.2
					c-0.3,0-0.6-0.3-0.5-0.6l0,0V366.1z"/>
				<path class="st7" d="M773.2,366.7c0-0.3,0.3-0.6,0.6-0.5l0,0l4.5,0.1c0.3,0,0.6,0.3,0.5,0.6l0,0v1.2c0,0.3-0.3,0.6-0.6,0.5l0,0
					l-4.5-0.1c-0.3,0-0.6-0.3-0.5-0.6l0,0V366.7z"/>
			</g>
			<g id="line4-2_1_">
				<path class="st7" d="M774.2,363.7c0-0.3,0.3-0.5,0.6-0.5h1.2c0.3,0,0.6,0.3,0.5,0.6l0,0v1.2c0,0.3-0.3,0.6-0.6,0.5l0,0h-1.2
					c-0.3,0-0.6-0.3-0.5-0.6l0,0V363.7z"/>
				<path class="st7" d="M771.4,363.6c0-0.3,0.3-0.6,0.6-0.5l0,0h1.2c0.3,0,0.6,0.3,0.5,0.6l0,0v1.2c0,0.3-0.3,0.6-0.6,0.5l0,0h-1.2
					c-0.3,0-0.6-0.3-0.5-0.6l0,0V363.6z"/>
				<path class="st7" d="M768.6,363.6c0-0.3,0.3-0.6,0.6-0.5l0,0h1.2c0.3,0,0.6,0.3,0.5,0.6l0,0v1.2c0,0.3-0.3,0.6-0.6,0.5l0,0h-1.2
					c-0.3,0-0.6-0.3-0.5-0.6l0,0V363.6z"/>
				<path class="st7" d="M748.4,363.1c0-0.3,0.3-0.6,0.6-0.5l0,0h1.2c0.3,0,0.6,0.3,0.5,0.6v1.2c0,0.3-0.3,0.6-0.6,0.5l0,0h-1.2
					c-0.3,0-0.6-0.3-0.5-0.6l0,0V363.1z"/>
				<path class="st7" d="M745.3,363c0-0.3,0.3-0.6,0.6-0.5l0,0h1.2c0.3,0,0.6,0.3,0.5,0.6l0,0v1.2c0,0.3-0.3,0.6-0.6,0.5h-1.2
					c-0.3,0-0.6-0.3-0.5-0.6V363z"/>
				<path class="st7" d="M742.5,363c0-0.3,0.3-0.6,0.6-0.5l0,0l1.2-0.1c0.3,0,0.6,0.3,0.5,0.6v1.2c0,0.3-0.3,0.6-0.6,0.5H743
					c-0.3,0-0.6-0.3-0.5-0.6l0,0V363z"/>
				<path class="st7" d="M751.4,363.4c-0.1-0.3,0.3-0.7,0.6-0.7l15.5,0.3c0.3,0,0.6,0.4,0.5,0.8v1c0.1,0.3-0.2,0.6-0.5,0.6l0,0
					l-15.5-0.3c-0.3,0-0.6-0.4-0.5-0.7L751.4,363.4L751.4,363.4L751.4,363.4z"/>
			</g>
		</g>
	</g>
</g>
<g id="desktop-3">
	<g id="monitor-3">
		<path d="M1114.7,196.9c0.3,0.1,0.4,0.5,0.2,0.8l-7,12.5c-0.1,0.3-0.5,0.4-0.8,0.2l-2-1.2c-0.3-0.1-0.4-0.5-0.2-0.8l7-12.5
			c0.1-0.3,0.5-0.4,0.8-0.2L1114.7,196.9z"/>
		<path class="st4" d="M1127.3,181.2c0.8,0.4,0.2,3.4-0.5,4.7l-22.2,40.9c-0.7,1.3-3.1,3.5-3.8,3.2l-2.5-1.4c-0.8-0.4-0.9-2-0.3-3.3
			l24-44.3c0.4-1.1,1.6-1.5,2.7-1.1L1127.3,181.2z"/>
	</g>
	<g id="keyboard-3">
		<path class="st5" d="M1082.1,214.8c-1-0.5-2-1.8-1.6-2.4l21.2-38.9c0.4-0.7,2.1-0.7,3-0.1l8.8,4.8c0.8,0.4,1.1,1.2,0.8,2l-0.1,0.1
			l-21.2,38.9c-0.4,0.7-1.3,0.9-1.9,0.5c-0.1-0.1-0.1-0.1-0.3-0.1L1082.1,214.8L1082.1,214.8L1082.1,214.8z"/>
		<path class="st6" d="M1082.8,215.1c-0.9-0.5-2-1.6-1.5-2.2l21.2-38.9c0.4-0.7,2-0.7,2.9-0.2l8.3,4.5c0.8,0.4,1,1.3,0.7,2l-0.1,0.1
			l-21.3,38.9c-0.4,0.7-1,0.8-2,0.4L1082.8,215.1z"/>
		<g id="key-3">
			<g id="line1-3">
				<path class="st7" d="M1091.7,216.2c-0.3-0.1-0.4-0.5-0.2-0.8l2.3-4.3c0.1-0.3,0.5-0.4,0.8-0.2l1.1,0.6c0.3,0.1,0.4,0.5,0.2,0.8
					l-2.3,4.3c-0.1,0.3-0.5,0.4-0.8,0.2L1091.7,216.2z"/>
				<path class="st7" d="M1106.6,188.7c-0.3-0.1-0.4-0.5-0.2-0.8l0,0l0.6-1.1c0.1-0.3,0.5-0.4,0.8-0.2l1.1,0.6
					c0.3,0.1,0.4,0.5,0.2,0.8l-0.6,1.1c-0.1,0.3-0.5,0.4-0.8,0.2l0,0L1106.6,188.7z"/>
				<path class="st7" d="M1105.1,191.4c-0.3-0.1-0.4-0.5-0.2-0.8l0.6-1.1c0.1-0.3,0.5-0.4,0.8-0.2l1.1,0.6c0.3,0.1,0.4,0.5,0.2,0.8
					l-0.6,1.1c-0.1,0.3-0.5,0.4-0.8,0.2L1105.1,191.4z"/>
				<path class="st7" d="M1103.7,193.9c-0.3-0.1-0.4-0.5-0.2-0.8l0.6-1.1c0.1-0.3,0.5-0.4,0.8-0.2l1.1,0.6c0.3,0.1,0.4,0.5,0.2,0.8
					l-0.6,1.1c-0.1,0.3-0.5,0.4-0.8,0.2l0,0L1103.7,193.9z"/>
				<path class="st7" d="M1102.1,196.9c-0.3-0.1-0.4-0.5-0.2-0.8l0.6-1.1c0.1-0.3,0.5-0.4,0.8-0.2l1.1,0.6c0.3,0.1,0.4,0.5,0.2,0.8
					l-0.6,1.1c-0.1,0.3-0.5,0.4-0.8,0.2l0,0L1102.1,196.9z"/>
				<path class="st7" d="M1100.7,199.5c-0.3-0.1-0.4-0.5-0.2-0.8l0.6-1.1c0.1-0.3,0.5-0.4,0.8-0.2l0,0l1.1,0.6
					c0.3,0.1,0.4,0.5,0.2,0.8l0,0l-0.6,1.1c-0.1,0.3-0.5,0.4-0.8,0.2L1100.7,199.5z"/>
				<path class="st7" d="M1099.2,202.2c-0.3-0.1-0.4-0.5-0.2-0.8l0.6-1.1c0.1-0.3,0.5-0.4,0.8-0.2l0,0l1.1,0.6
					c0.3,0.1,0.4,0.5,0.2,0.8l-0.6,1.1c-0.1,0.3-0.5,0.4-0.8,0.2L1099.2,202.2z"/>
				<path class="st7" d="M1097.8,204.9c-0.3-0.1-0.4-0.5-0.2-0.8l0.6-1.1c0.1-0.3,0.5-0.4,0.8-0.2l1.1,0.6c0.3,0.1,0.4,0.5,0.2,0.8
					l-0.6,1.1c-0.1,0.3-0.5,0.4-0.8,0.2L1097.8,204.9z"/>
				<path class="st7" d="M1096.3,207.8c-0.3-0.1-0.4-0.5-0.2-0.8l0.6-1.1c0.1-0.3,0.5-0.4,0.8-0.2l1.1,0.6c0.3,0.1,0.4,0.5,0.2,0.8
					l-0.6,1.1c-0.1,0.3-0.5,0.4-0.8,0.2L1096.3,207.8z"/>
				<path class="st7" d="M1094.8,210.4c-0.3-0.1-0.4-0.5-0.2-0.8l0.6-1.1c0.1-0.3,0.5-0.4,0.8-0.2l1.1,0.6c0.3,0.1,0.4,0.5,0.2,0.8
					l0,0l-0.6,1.1c-0.1,0.3-0.5,0.4-0.8,0.2L1094.8,210.4z"/>
				<path class="st7" d="M1108,186c-0.3-0.1-0.4-0.5-0.2-0.8l2.2-4.3c0.1-0.3,0.5-0.4,0.8-0.2l1.1,0.6c0.3,0.1,0.4,0.5,0.2,0.8l0,0
					l-2.3,4.3c-0.1,0.3-0.5,0.4-0.8,0.2l0,0L1108,186z"/>
			</g>
			<g id="line2-3">
				<path class="st7" d="M1105.7,183.6c-0.3-0.1-0.4-0.5-0.2-0.8l0.6-1.1c0.1-0.3,0.5-0.4,0.8-0.2l1.1,0.6c0.3,0.1,0.4,0.5,0.2,0.8
					l-0.6,1.1c-0.1,0.3-0.5,0.4-0.8,0.2l0,0L1105.7,183.6z"/>
				<path class="st7" d="M1104.3,186.2c-0.3-0.1-0.4-0.5-0.2-0.8l0,0l0.6-1.1c0.1-0.3,0.5-0.4,0.8-0.2l1.1,0.6
					c0.3,0.1,0.4,0.5,0.2,0.8l-0.6,1.1c-0.1,0.3-0.5,0.4-0.8,0.2L1104.3,186.2z"/>
				<path class="st7" d="M1102.8,188.8c-0.3-0.1-0.4-0.5-0.2-0.8l0.6-1.1c0.1-0.3,0.5-0.4,0.8-0.2l0,0l1.1,0.6
					c0.3,0.1,0.4,0.5,0.2,0.8l-0.6,1.1c-0.1,0.3-0.5,0.4-0.8,0.2l0,0L1102.8,188.8z"/>
				<path class="st7" d="M1101.3,191.5c-0.3-0.1-0.4-0.5-0.2-0.8l0.6-1.1c0.1-0.3,0.5-0.4,0.8-0.2l1.1,0.6c0.3,0.1,0.4,0.5,0.2,0.8
					l-0.6,1.1c-0.1,0.3-0.5,0.4-0.8,0.2L1101.3,191.5z"/>
				<path class="st7" d="M1099.9,194.2c-0.3-0.1-0.4-0.5-0.2-0.8l0.6-1.1c0.1-0.3,0.5-0.4,0.8-0.2l1.1,0.6c0.3,0.1,0.4,0.5,0.2,0.8
					l0,0l-0.6,1.1c-0.1,0.3-0.5,0.4-0.8,0.2l0,0L1099.9,194.2z"/>
				<path class="st7" d="M1098.3,197.1c-0.3-0.1-0.4-0.5-0.2-0.8l0.6-1.1c0.1-0.3,0.5-0.4,0.8-0.2l1.1,0.6c0.3,0.1,0.4,0.5,0.2,0.8
					l0,0l-0.6,1.1c-0.1,0.3-0.5,0.4-0.8,0.2L1098.3,197.1z"/>
				<path class="st7" d="M1096.9,199.7c-0.3-0.1-0.4-0.5-0.2-0.8l0.6-1.1c0.1-0.3,0.5-0.4,0.8-0.2l1.1,0.6c0.3,0.1,0.4,0.5,0.2,0.8
					l0,0l-0.6,1.1c-0.1,0.3-0.5,0.4-0.8,0.2l0,0L1096.9,199.7z"/>
				<path class="st7" d="M1095.4,202.4c-0.3-0.1-0.4-0.5-0.2-0.8l0.6-1.1c0.1-0.3,0.5-0.4,0.8-0.2l1.1,0.6c0.3,0.1,0.4,0.5,0.2,0.8
					l-0.6,1.1c-0.1,0.3-0.5,0.4-0.8,0.2L1095.4,202.4z"/>
				<path class="st7" d="M1093.9,205.2c-0.3-0.1-0.4-0.5-0.2-0.8l0.6-1.1c0.1-0.3,0.5-0.4,0.8-0.2l1.1,0.6c0.3,0.1,0.4,0.5,0.2,0.8
					l-0.6,1.1c-0.1,0.3-0.5,0.4-0.8,0.2l0,0L1093.9,205.2z"/>
				<path class="st7" d="M1092.4,207.8c-0.3-0.1-0.4-0.5-0.2-0.8l0.6-1.1c0.1-0.3,0.5-0.4,0.8-0.2l1.1,0.6c0.3,0.1,0.4,0.5,0.2,0.8
					l-0.6,1.1c-0.1,0.3-0.5,0.4-0.8,0.2l0,0L1092.4,207.8z"/>
				<path class="st7" d="M1090.8,210.7c-0.3-0.1-0.4-0.5-0.2-0.8l0.6-1.1c0.1-0.3,0.5-0.4,0.8-0.2l1.1,0.6c0.3,0.1,0.4,0.5,0.2,0.8
					l0,0l-0.6,1.1c-0.1,0.3-0.5,0.4-0.8,0.2L1090.8,210.7z"/>
				<path class="st7" d="M1089.4,213.3c-0.3-0.1-0.4-0.5-0.2-0.8l0.6-1.1c0.1-0.3,0.5-0.4,0.8-0.2l1.1,0.6c0.3,0.1,0.4,0.5,0.2,0.8
					l-0.6,1.1c-0.1,0.3-0.5,0.4-0.8,0.2L1089.4,213.3z"/>
			</g>
			<g id="line3-3">
				<path class="st7" d="M1086,213.1c-0.3-0.1-0.4-0.5-0.2-0.8l2.4-4.2c0.1-0.3,0.5-0.4,0.8-0.2l1.1,0.6c0.3,0.1,0.4,0.5,0.2,0.8
					l0,0l-2.3,4.3c-0.1,0.3-0.5,0.4-0.8,0.2L1086,213.1z"/>
				<path class="st7" d="M1101,185.7c-0.3-0.1-0.4-0.5-0.2-0.8l0.6-1.1c0.1-0.3,0.5-0.4,0.8-0.2l0,0l1.1,0.6
					c0.3,0.1,0.4,0.5,0.2,0.8l-0.6,1.1c-0.1,0.3-0.5,0.4-0.8,0.2L1101,185.7z"/>
				<path class="st7" d="M1099.5,188.3c-0.3-0.1-0.4-0.5-0.2-0.8l0,0l0.6-1.1c0.1-0.3,0.5-0.4,0.8-0.2l1.1,0.6
					c0.3,0.1,0.4,0.5,0.2,0.8l-0.6,1.1c-0.1,0.3-0.5,0.4-0.8,0.2L1099.5,188.3z"/>
				<path class="st7" d="M1098.1,191c-0.3-0.1-0.4-0.5-0.2-0.8l0.6-1.1c0.1-0.3,0.5-0.4,0.8-0.2l1.1,0.6c0.3,0.1,0.4,0.5,0.2,0.8
					l-0.6,1.1c-0.1,0.3-0.5,0.4-0.8,0.2L1098.1,191z"/>
				<path class="st7" d="M1096.5,193.7c-0.3-0.1-0.4-0.5-0.2-0.8l0.6-1.1c0.1-0.3,0.5-0.4,0.8-0.2l1.1,0.6c0.3,0.1,0.4,0.5,0.2,0.8
					l-0.6,1.1c-0.1,0.3-0.5,0.4-0.8,0.2L1096.5,193.7z"/>
				<path class="st7" d="M1095.2,196.4c-0.3-0.1-0.4-0.5-0.2-0.8l0,0l0.6-1.1c0.1-0.3,0.5-0.4,0.8-0.2l1.1,0.6
					c0.3,0.1,0.4,0.5,0.2,0.8l0,0l-0.6,1.1c-0.1,0.3-0.5,0.4-0.8,0.2L1095.2,196.4z"/>
				<path class="st7" d="M1093.6,199.2c-0.3-0.1-0.4-0.5-0.2-0.8l0.6-1.1c0.1-0.3,0.5-0.4,0.8-0.2l1.1,0.6c0.3,0.1,0.4,0.5,0.2,0.8
					l-0.6,1.1c-0.1,0.3-0.5,0.4-0.8,0.2L1093.6,199.2z"/>
				<path class="st7" d="M1092.2,201.9c-0.3-0.1-0.4-0.5-0.2-0.8l0,0l0.6-1.2c0.1-0.3,0.5-0.4,0.8-0.2l0,0l1.1,0.6
					c0.3,0.1,0.4,0.5,0.2,0.8l-0.6,1.1c-0.1,0.3-0.5,0.4-0.8,0.2L1092.2,201.9z"/>
				<path class="st7" d="M1090.6,204.7c-0.3-0.1-0.4-0.5-0.2-0.8l0.6-1.1c0.1-0.3,0.5-0.4,0.8-0.2l1.1,0.6c0.3,0.1,0.4,0.5,0.2,0.8
					l-0.6,1.1c-0.1,0.3-0.5,0.4-0.8,0.2l0,0L1090.6,204.7z"/>
				<path class="st7" d="M1089.1,207.3c-0.3-0.1-0.4-0.5-0.2-0.8l0.6-1.1c0.1-0.3,0.5-0.4,0.8-0.2l1.1,0.6c0.3,0.1,0.4,0.5,0.2,0.8
					l0,0l-0.6,1.1c-0.1,0.3-0.5,0.4-0.8,0.2L1089.1,207.3z"/>
				<path class="st7" d="M1102.4,183c-0.3-0.1-0.4-0.5-0.2-0.8l2.3-4.3c0.1-0.3,0.5-0.4,0.8-0.2l1.1,0.6c0.3,0.1,0.5,0.5,0.2,0.8
					c0,0,0,0-0.1,0.1l-2.3,4.3c-0.1,0.3-0.5,0.4-0.8,0.2L1102.4,183z"/>
			</g>
			<g id="line4-3">
				<path class="st7" d="M1100.1,180.6c-0.3-0.1-0.4-0.5-0.2-0.8l0,0l0.6-1.1c0.1-0.3,0.5-0.4,0.8-0.2l0,0l1.1,0.6
					c0.3,0.1,0.4,0.5,0.2,0.8l-0.6,1.1c-0.1,0.3-0.5,0.4-0.8,0.2L1100.1,180.6z"/>
				<path class="st7" d="M1098.6,183.3c-0.3-0.1-0.4-0.5-0.2-0.8l0.6-1.1c0.1-0.3,0.5-0.4,0.8-0.2l0,0l1.1,0.6
					c0.3,0.1,0.4,0.5,0.2,0.8l-0.6,1.1c-0.1,0.3-0.5,0.4-0.8,0.2L1098.6,183.3z"/>
				<path class="st7" d="M1097.3,185.9c-0.3-0.1-0.4-0.5-0.2-0.8l0.6-1.1c0.1-0.3,0.5-0.4,0.8-0.2l1.1,0.6c0.3,0.1,0.4,0.5,0.2,0.8
					l-0.6,1.1c-0.1,0.3-0.5,0.4-0.8,0.2L1097.3,185.9z"/>
				<path class="st7" d="M1086.9,204.7c-0.3-0.1-0.4-0.5-0.2-0.8l0.6-1.1c0.1-0.3,0.5-0.4,0.8-0.2l1.1,0.6c0.3,0.1,0.4,0.5,0.2,0.8
					l-0.6,1.1c-0.1,0.3-0.5,0.4-0.8,0.2L1086.9,204.7z"/>
				<path class="st7" d="M1085.4,207.5c-0.3-0.1-0.4-0.5-0.2-0.8l0.6-1.1c0.1-0.3,0.5-0.4,0.8-0.2l1.1,0.6c0.3,0.1,0.4,0.5,0.2,0.8
					l-0.6,1.1c-0.1,0.3-0.5,0.4-0.8,0.2l0,0L1085.4,207.5z"/>
				<path class="st7" d="M1083.9,210.2c-0.3-0.1-0.4-0.5-0.2-0.8l0.6-1.1c0.1-0.3,0.5-0.4,0.8-0.2l1.1,0.6c0.3,0.1,0.4,0.5,0.2,0.8
					l-0.6,1.1c-0.1,0.3-0.5,0.4-0.8,0.2l0,0L1083.9,210.2z"/>
				<path class="st7" d="M1088.5,202c-0.4-0.2-0.5-0.6-0.4-0.9l7.9-14.4c0.2-0.3,0.6-0.3,0.9-0.1l0.9,0.5c0.3,0.1,0.5,0.5,0.3,0.7
					l0,0l-7.9,14.4c-0.2,0.3-0.6,0.4-0.9,0.2L1088.5,202L1088.5,202z"/>
			</g>
		</g>
	</g>
</g>
<g id="desktop-3_1_">
	<g id="monitor-3_1_">
		<path d="M1049.5,291.3c0.2,0.2,0.2,0.6,0,0.8l-10.5,9.8c-0.2,0.2-0.6,0.2-0.8,0l-1.6-1.7c-0.2-0.2-0.2-0.6,0-0.8l10.5-9.8
			c0.2-0.2,0.6-0.2,0.8,0L1049.5,291.3z"/>
		<path class="st4" d="M1066.3,280.1c0.6,0.6-0.8,3.3-1.9,4.3l-33.6,32.2c-1,1-4,2.4-4.6,1.9l-2-2.1c-0.6-0.6-0.3-2.2,0.7-3.2
			l36.4-34.8c0.7-0.9,2-1,2.9-0.3L1066.3,280.1z"/>
	</g>
	<g id="keyboard-3_1_">
		<path class="st5" d="M1013,298.3c-0.8-0.8-1.4-2.3-0.8-2.8l32.1-30.6c0.6-0.5,2.2,0,2.9,0.8l6.9,7.3c0.6,0.6,0.7,1.5,0.2,2.2
			l-0.1,0.1l-32.1,30.6c-0.6,0.5-1.5,0.5-2-0.1c-0.1-0.1-0.1-0.1-0.2-0.2L1013,298.3L1013,298.3L1013,298.3z"/>
		<path class="st6" d="M1013.6,298.8c-0.7-0.7-1.4-2.1-0.8-2.6l32.1-30.6c0.6-0.5,2.1-0.1,2.8,0.7l6.5,6.9c0.6,0.6,0.6,1.5,0.1,2.1
			l-0.1,0.1L1022,306c-0.6,0.5-1.2,0.5-2-0.2L1013.6,298.8z"/>
		<g id="key-3_1_">
			<g id="line1-3_1_">
				<path class="st7" d="M1021.6,302.6c-0.2-0.2-0.2-0.6,0-0.8l3.5-3.4c0.2-0.2,0.6-0.2,0.8,0l0.9,0.9c0.2,0.2,0.2,0.6,0,0.8
					l-3.5,3.4c-0.2,0.2-0.6,0.2-0.8,0L1021.6,302.6z"/>
				<path class="st7" d="M1044.2,281c-0.2-0.2-0.2-0.6,0-0.8l0,0l0.9-0.9c0.2-0.2,0.6-0.2,0.8,0l0.9,0.9c0.2,0.2,0.2,0.6,0,0.8
					l-0.9,0.9c-0.2,0.2-0.6,0.2-0.8,0l0,0L1044.2,281z"/>
				<path class="st7" d="M1042,283.1c-0.2-0.2-0.2-0.6,0-0.8l0.9-0.9c0.2-0.2,0.6-0.2,0.8,0l0.9,0.9c0.2,0.2,0.2,0.6,0,0.8l-0.9,0.9
					c-0.2,0.2-0.6,0.2-0.8,0L1042,283.1z"/>
				<path class="st7" d="M1039.9,285.1c-0.2-0.2-0.2-0.6,0-0.8l0.9-0.9c0.2-0.2,0.6-0.2,0.8,0l0.9,0.9c0.2,0.2,0.2,0.6,0,0.8
					l-0.9,0.9c-0.2,0.2-0.6,0.2-0.8,0l0,0L1039.9,285.1z"/>
				<path class="st7" d="M1037.5,287.5c-0.2-0.2-0.2-0.6,0-0.8l0.9-0.9c0.2-0.2,0.6-0.2,0.8,0l0.9,0.9c0.2,0.2,0.2,0.6,0,0.8
					l-0.9,0.9c-0.2,0.2-0.6,0.2-0.8,0l0,0L1037.5,287.5z"/>
				<path class="st7" d="M1035.4,289.4c-0.2-0.2-0.2-0.6,0-0.8l0.9-0.9c0.2-0.2,0.6-0.2,0.8,0l0,0l0.9,0.9c0.2,0.2,0.2,0.6,0,0.8
					l0,0l-0.9,0.9c-0.2,0.2-0.6,0.2-0.8,0L1035.4,289.4z"/>
				<path class="st7" d="M1033.1,291.6c-0.2-0.2-0.2-0.6,0-0.8l0.9-0.9c0.2-0.2,0.6-0.2,0.8,0l0,0l0.9,0.9c0.2,0.2,0.2,0.6,0,0.8
					l-0.9,0.9c-0.2,0.2-0.6,0.2-0.8,0L1033.1,291.6z"/>
				<path class="st7" d="M1030.9,293.7c-0.2-0.2-0.2-0.6,0-0.8l0.9-0.9c0.2-0.2,0.6-0.2,0.8,0l0.9,0.9c0.2,0.2,0.2,0.6,0,0.8
					l-0.9,0.9c-0.2,0.2-0.6,0.2-0.8,0L1030.9,293.7z"/>
				<path class="st7" d="M1028.6,296c-0.2-0.2-0.2-0.6,0-0.8l0.9-0.9c0.2-0.2,0.6-0.2,0.8,0l0.9,0.9c0.2,0.2,0.2,0.6,0,0.8l-0.9,0.9
					c-0.2,0.2-0.6,0.2-0.8,0L1028.6,296z"/>
				<path class="st7" d="M1026.4,298.1c-0.2-0.2-0.2-0.6,0-0.8l0.9-0.9c0.2-0.2,0.6-0.2,0.8,0l0.9,0.9c0.2,0.2,0.2,0.6,0,0.8l0,0
					l-0.9,0.9c-0.2,0.2-0.6,0.2-0.8,0L1026.4,298.1z"/>
				<path class="st7" d="M1046.4,278.8c-0.2-0.2-0.2-0.6,0-0.8l3.4-3.4c0.2-0.2,0.6-0.2,0.8,0l0.9,0.9c0.2,0.2,0.2,0.6,0,0.8l0,0
					l-3.5,3.4c-0.2,0.2-0.6,0.2-0.8,0l0,0L1046.4,278.8z"/>
			</g>
			<g id="line2-3_1_">
				<path class="st7" d="M1044.9,275.8c-0.2-0.2-0.2-0.6,0-0.8l0.9-0.9c0.2-0.2,0.6-0.2,0.8,0l0.9,0.9c0.2,0.2,0.2,0.6,0,0.8
					l-0.9,0.9c-0.2,0.2-0.6,0.2-0.8,0l0,0L1044.9,275.8z"/>
				<path class="st7" d="M1042.8,277.9c-0.2-0.2-0.2-0.6,0-0.8l0,0l0.9-0.9c0.2-0.2,0.6-0.2,0.8,0l0.9,0.9c0.2,0.2,0.2,0.6,0,0.8
					l-0.9,0.9c-0.2,0.2-0.6,0.2-0.8,0L1042.8,277.9z"/>
				<path class="st7" d="M1040.7,279.9c-0.2-0.2-0.2-0.6,0-0.8l0.9-0.9c0.2-0.2,0.6-0.2,0.8,0l0,0l0.9,0.9c0.2,0.2,0.2,0.6,0,0.8
					l-0.9,0.9c-0.2,0.2-0.6,0.2-0.8,0l0,0L1040.7,279.9z"/>
				<path class="st7" d="M1038.3,282.1c-0.2-0.2-0.2-0.6,0-0.8l0.9-0.9c0.2-0.2,0.6-0.2,0.8,0l0.9,0.9c0.2,0.2,0.2,0.6,0,0.8
					l-0.9,0.9c-0.2,0.2-0.6,0.2-0.8,0L1038.3,282.1z"/>
				<path class="st7" d="M1036.2,284.2c-0.2-0.2-0.2-0.6,0-0.8l0.9-0.9c0.2-0.2,0.6-0.2,0.8,0l0.9,0.9c0.2,0.2,0.2,0.6,0,0.8l0,0
					l-0.9,0.9c-0.2,0.2-0.6,0.2-0.8,0l0,0L1036.2,284.2z"/>
				<path class="st7" d="M1033.8,286.4c-0.2-0.2-0.2-0.6,0-0.8l0.9-0.9c0.2-0.2,0.6-0.2,0.8,0l0.9,0.9c0.2,0.2,0.2,0.6,0,0.8l0,0
					l-0.9,0.9c-0.2,0.2-0.6,0.2-0.8,0L1033.8,286.4z"/>
				<path class="st7" d="M1031.7,288.5c-0.2-0.2-0.2-0.6,0-0.8l0.9-0.9c0.2-0.2,0.6-0.2,0.8,0l0.9,0.9c0.2,0.2,0.2,0.6,0,0.8l0,0
					l-0.9,0.9c-0.2,0.2-0.6,0.2-0.8,0l0,0L1031.7,288.5z"/>
				<path class="st7" d="M1029.5,290.6c-0.2-0.2-0.2-0.6,0-0.8l0.9-0.9c0.2-0.2,0.6-0.2,0.8,0l0.9,0.9c0.2,0.2,0.2,0.6,0,0.8
					l-0.9,0.9c-0.2,0.2-0.6,0.2-0.8,0L1029.5,290.6z"/>
				<path class="st7" d="M1027.1,292.9c-0.2-0.2-0.2-0.6,0-0.8l0.9-0.9c0.2-0.2,0.6-0.2,0.8,0l0.9,0.9c0.2,0.2,0.2,0.6,0,0.8
					l-0.9,0.9c-0.2,0.2-0.6,0.2-0.8,0l0,0L1027.1,292.9z"/>
				<path class="st7" d="M1024.9,294.9c-0.2-0.2-0.2-0.6,0-0.8l0.9-0.9c0.2-0.2,0.6-0.2,0.8,0l0.9,0.9c0.2,0.2,0.2,0.6,0,0.8
					l-0.9,0.9c-0.2,0.2-0.6,0.2-0.8,0l0,0L1024.9,294.9z"/>
				<path class="st7" d="M1022.5,297.1c-0.2-0.2-0.2-0.6,0-0.8l0.9-0.9c0.2-0.2,0.6-0.2,0.8,0l0.9,0.9c0.2,0.2,0.2,0.6,0,0.8l0,0
					l-0.9,0.9c-0.2,0.2-0.6,0.2-0.8,0L1022.5,297.1z"/>
				<path class="st7" d="M1020.4,299.2c-0.2-0.2-0.2-0.6,0-0.8l0.9-0.9c0.2-0.2,0.6-0.2,0.8,0l0.9,0.9c0.2,0.2,0.2,0.6,0,0.8
					l-0.9,0.9c-0.2,0.2-0.6,0.2-0.8,0L1020.4,299.2z"/>
			</g>
			<g id="line3-3_1_">
				<path class="st7" d="M1017.2,298c-0.2-0.2-0.2-0.6,0-0.8l3.5-3.3c0.2-0.2,0.6-0.2,0.8,0l0.9,0.9c0.2,0.2,0.2,0.6,0,0.8l0,0
					l-3.5,3.4c-0.2,0.2-0.6,0.2-0.8,0L1017.2,298z"/>
				<path class="st7" d="M1039.8,276.4c-0.2-0.2-0.2-0.6,0-0.8l0.9-0.9c0.2-0.2,0.6-0.2,0.8,0l0,0l0.9,0.9c0.2,0.2,0.2,0.6,0,0.8
					l-0.9,0.9c-0.2,0.2-0.6,0.2-0.8,0L1039.8,276.4z"/>
				<path class="st7" d="M1037.6,278.5c-0.2-0.2-0.2-0.6,0-0.8l0,0l0.9-0.9c0.2-0.2,0.6-0.2,0.8,0l0.9,0.9c0.2,0.2,0.2,0.6,0,0.8
					l-0.9,0.9c-0.2,0.2-0.6,0.2-0.8,0L1037.6,278.5z"/>
				<path class="st7" d="M1035.5,280.5c-0.2-0.2-0.2-0.6,0-0.8l0.9-0.9c0.2-0.2,0.6-0.2,0.8,0l0.9,0.9c0.2,0.2,0.2,0.6,0,0.8
					l-0.9,0.9c-0.2,0.2-0.6,0.2-0.8,0L1035.5,280.5z"/>
				<path class="st7" d="M1033.1,282.7c-0.2-0.2-0.2-0.6,0-0.8l0.9-0.9c0.2-0.2,0.6-0.2,0.8,0l0.9,0.9c0.2,0.2,0.2,0.6,0,0.8
					l-0.9,0.9c-0.2,0.2-0.6,0.2-0.8,0L1033.1,282.7z"/>
				<path class="st7" d="M1031,284.8c-0.2-0.2-0.2-0.6,0-0.8l0,0l0.9-0.9c0.2-0.2,0.6-0.2,0.8,0l0.9,0.9c0.2,0.2,0.2,0.6,0,0.8l0,0
					l-0.9,0.9c-0.2,0.2-0.6,0.2-0.8,0L1031,284.8z"/>
				<path class="st7" d="M1028.7,287c-0.2-0.2-0.2-0.6,0-0.8l0.9-0.9c0.2-0.2,0.6-0.2,0.8,0l0.9,0.9c0.2,0.2,0.2,0.6,0,0.8l-0.9,0.9
					c-0.2,0.2-0.6,0.2-0.8,0L1028.7,287z"/>
				<path class="st7" d="M1026.5,289.2c-0.2-0.2-0.2-0.6,0-0.8l0,0l0.9-1c0.2-0.2,0.6-0.2,0.8,0l0,0l0.9,0.9c0.2,0.2,0.2,0.6,0,0.8
					l-0.9,0.9c-0.2,0.2-0.6,0.2-0.8,0L1026.5,289.2z"/>
				<path class="st7" d="M1024.2,291.3c-0.2-0.2-0.2-0.6,0-0.8l0.9-0.9c0.2-0.2,0.6-0.2,0.8,0l0.9,0.9c0.2,0.2,0.2,0.6,0,0.8
					l-0.9,0.9c-0.2,0.2-0.6,0.2-0.8,0l0,0L1024.2,291.3z"/>
				<path class="st7" d="M1021.9,293.4c-0.2-0.2-0.2-0.6,0-0.8l0.9-0.9c0.2-0.2,0.6-0.2,0.8,0l0.9,0.9c0.2,0.2,0.2,0.6,0,0.8l0,0
					l-0.9,0.9c-0.2,0.2-0.6,0.2-0.8,0L1021.9,293.4z"/>
				<path class="st7" d="M1042,274.3c-0.2-0.2-0.2-0.6,0-0.8l3.5-3.4c0.2-0.2,0.6-0.2,0.8,0l0.9,0.9c0.2,0.2,0.3,0.6,0,0.8
					c0,0,0,0-0.1,0.1l-3.5,3.4c-0.2,0.2-0.6,0.2-0.8,0L1042,274.3z"/>
			</g>
			<g id="line4-3_1_">
				<path class="st7" d="M1040.5,271.3c-0.2-0.2-0.2-0.6,0-0.8l0,0l0.9-0.9c0.2-0.2,0.6-0.2,0.8,0l0,0l0.9,0.9
					c0.2,0.2,0.2,0.6,0,0.8l-0.9,0.9c-0.2,0.2-0.6,0.2-0.8,0L1040.5,271.3z"/>
				<path class="st7" d="M1038.3,273.4c-0.2-0.2-0.2-0.6,0-0.8l0.9-0.9c0.2-0.2,0.6-0.2,0.8,0l0,0l0.9,0.9c0.2,0.2,0.2,0.6,0,0.8
					l-0.9,0.9c-0.2,0.2-0.6,0.2-0.8,0L1038.3,273.4z"/>
				<path class="st7" d="M1036.2,275.5c-0.2-0.2-0.2-0.6,0-0.8l0.9-0.9c0.2-0.2,0.6-0.2,0.8,0l0.9,0.9c0.2,0.2,0.2,0.6,0,0.8
					l-0.9,0.9c-0.2,0.2-0.6,0.2-0.8,0L1036.2,275.5z"/>
				<path class="st7" d="M1020.7,290.2c-0.2-0.2-0.2-0.6,0-0.8l0.9-0.9c0.2-0.2,0.6-0.2,0.8,0l0.9,0.9c0.2,0.2,0.2,0.6,0,0.8
					l-0.9,0.9c-0.2,0.2-0.6,0.2-0.8,0L1020.7,290.2z"/>
				<path class="st7" d="M1018.3,292.5c-0.2-0.2-0.2-0.6,0-0.8l0.9-0.9c0.2-0.2,0.6-0.2,0.8,0l0.9,0.9c0.2,0.2,0.2,0.6,0,0.8
					l-0.9,0.9c-0.2,0.2-0.6,0.2-0.8,0l0,0L1018.3,292.5z"/>
				<path class="st7" d="M1016.1,294.6c-0.2-0.2-0.2-0.6,0-0.8l0.9-0.9c0.2-0.2,0.6-0.2,0.8,0l0.9,0.9c0.2,0.2,0.2,0.6,0,0.8
					l-0.9,0.9c-0.2,0.2-0.6,0.2-0.8,0l0,0L1016.1,294.6z"/>
				<path class="st7" d="M1023,288.1c-0.3-0.3-0.3-0.7-0.1-1l11.9-11.3c0.3-0.2,0.7-0.1,0.9,0.2l0.7,0.7c0.3,0.2,0.3,0.6,0.1,0.8
					l0,0l-11.9,11.3c-0.3,0.2-0.7,0.2-0.9-0.1L1023,288.1L1023,288.1z"/>
			</g>
		</g>
	</g>
</g>
<g id="desktop-3_2_">
	<g id="monitor-3_2_">
		<path d="M918.7,357.7c0.1,0.3-0.2,0.6-0.5,0.7l-14.2,2.2c-0.3,0.1-0.6-0.2-0.7-0.5l-0.3-2.3c-0.1-0.3,0.2-0.6,0.5-0.7l14.2-2.2
			c0.3-0.1,0.6,0.2,0.7,0.5L918.7,357.7z"/>
		<path class="st4" d="M938.9,357.9c0.2,0.8-2.5,2.3-4,2.4L889,368c-1.4,0.3-4.7-0.3-4.9-1.1l-0.4-2.9c-0.2-0.8,1-2,2.4-2.2
			l49.7-8.2c1.1-0.3,2.2,0.3,2.6,1.4L938.9,357.9z"/>
	</g>
	<g id="keyboard-3_2_">
		<path class="st5" d="M884.6,343c-0.2-1.1,0.2-2.7,0.9-2.8l43.7-7.2c0.8-0.1,1.8,1.3,1.9,2.3l1.6,9.9c0.2,0.8-0.3,1.6-1.1,1.9h-0.1
			l-43.7,7.2c-0.8,0.1-1.5-0.4-1.6-1.2c0-0.1,0-0.1-0.1-0.3L884.6,343L884.6,343L884.6,343z"/>
		<path class="st6" d="M884.8,343.8c-0.2-1,0-2.5,0.8-2.6l43.7-7.2c0.8-0.1,1.8,1.1,1.9,2.2l1.5,9.4c0.2,0.8-0.4,1.6-1.1,1.8h-0.1
			l-43.8,7.2c-0.8,0.1-1.3-0.3-1.5-1.3L884.8,343.8z"/>
		<g id="key-3_2_">
			<g id="line1-3_2_">
				<path class="st7" d="M889.4,351.4c-0.1-0.3,0.2-0.6,0.5-0.7l4.8-0.8c0.3-0.1,0.6,0.2,0.7,0.5l0.2,1.3c0.1,0.3-0.2,0.6-0.5,0.7
					l-4.8,0.8c-0.3,0.1-0.6-0.2-0.7-0.5L889.4,351.4z"/>
				<path class="st7" d="M920.2,346.3c-0.1-0.3,0.2-0.6,0.5-0.7l0,0l1.3-0.2c0.3-0.1,0.6,0.2,0.7,0.5l0.2,1.3
					c0.1,0.3-0.2,0.6-0.5,0.7l-1.3,0.2c-0.3,0.1-0.6-0.2-0.7-0.5l0,0L920.2,346.3z"/>
				<path class="st7" d="M917.2,346.8c-0.1-0.3,0.2-0.6,0.5-0.7l1.3-0.2c0.3-0.1,0.6,0.2,0.7,0.5l0.2,1.3c0.1,0.3-0.2,0.6-0.5,0.7
					l-1.3,0.2c-0.3,0.1-0.6-0.2-0.7-0.5L917.2,346.8z"/>
				<path class="st7" d="M914.3,347.2c-0.1-0.3,0.2-0.6,0.5-0.7l1.3-0.2c0.3-0.1,0.6,0.2,0.7,0.5l0.2,1.3c0.1,0.3-0.2,0.6-0.5,0.7
					l-1.3,0.2c-0.3,0.1-0.6-0.2-0.7-0.5l0,0L914.3,347.2z"/>
				<path class="st7" d="M911,347.8c-0.1-0.3,0.2-0.6,0.5-0.7l1.3-0.2c0.3-0.1,0.6,0.2,0.7,0.5l0.2,1.3c0.1,0.3-0.2,0.6-0.5,0.7
					l-1.3,0.2c-0.3,0.1-0.6-0.2-0.7-0.5l0,0L911,347.8z"/>
				<path class="st7" d="M908.1,348.3c-0.1-0.3,0.2-0.6,0.5-0.7l1.3-0.2c0.3-0.1,0.6,0.2,0.7,0.5l0,0l0.2,1.3
					c0.1,0.3-0.2,0.6-0.5,0.7l0,0L909,350c-0.3,0.1-0.6-0.2-0.7-0.5L908.1,348.3z"/>
				<path class="st7" d="M905,348.7c-0.1-0.3,0.2-0.6,0.5-0.7l1.3-0.2c0.3-0.1,0.6,0.2,0.7,0.5l0,0l0.2,1.3c0.1,0.3-0.2,0.6-0.5,0.7
					l-1.3,0.2c-0.3,0.1-0.6-0.2-0.7-0.5L905,348.7z"/>
				<path class="st7" d="M902.1,349.3c-0.1-0.3,0.2-0.6,0.5-0.7l1.3-0.2c0.3-0.1,0.6,0.2,0.7,0.5l0.2,1.3c0.1,0.3-0.2,0.6-0.5,0.7
					l-1.3,0.2c-0.3,0.1-0.6-0.2-0.7-0.5L902.1,349.3z"/>
				<path class="st7" d="M898.9,349.8c-0.1-0.3,0.2-0.6,0.5-0.7l1.3-0.2c0.3-0.1,0.6,0.2,0.7,0.5l0.2,1.3c0.1,0.3-0.2,0.6-0.5,0.7
					l-1.3,0.2c-0.3,0.1-0.6-0.2-0.7-0.5L898.9,349.8z"/>
				<path class="st7" d="M895.9,350.3c-0.1-0.3,0.2-0.6,0.5-0.7l1.3-0.2c0.3-0.1,0.6,0.2,0.7,0.5l0.2,1.3c0.1,0.3-0.2,0.6-0.5,0.7
					l0,0l-1.3,0.2c-0.3,0.1-0.6-0.2-0.7-0.5L895.9,350.3z"/>
				<path class="st7" d="M923.2,345.7c-0.1-0.3,0.2-0.6,0.5-0.7l4.7-0.9c0.3-0.1,0.6,0.2,0.7,0.5l0.2,1.3c0.1,0.3-0.2,0.6-0.5,0.7
					l0,0l-4.8,0.8c-0.3,0.1-0.6-0.2-0.7-0.5l0,0L923.2,345.7z"/>
			</g>
			<g id="line2-3_2_">
				<path class="st7" d="M923.7,342.4c-0.1-0.3,0.2-0.6,0.5-0.7l1.3-0.2c0.3-0.1,0.6,0.2,0.7,0.5l0.2,1.3c0.1,0.3-0.2,0.6-0.5,0.7
					l-1.3,0.2c-0.3,0.1-0.6-0.2-0.7-0.5l0,0L923.7,342.4z"/>
				<path class="st7" d="M920.7,342.9c-0.1-0.3,0.2-0.6,0.5-0.7l0,0l1.3-0.2c0.3-0.1,0.6,0.2,0.7,0.5l0.2,1.3
					c0.1,0.3-0.2,0.6-0.5,0.7l-1.3,0.2c-0.3,0.1-0.6-0.2-0.7-0.5L920.7,342.9z"/>
				<path class="st7" d="M917.9,343.3c-0.1-0.3,0.2-0.6,0.5-0.7l1.3-0.2c0.3-0.1,0.6,0.2,0.7,0.5l0,0l0.2,1.3
					c0.1,0.3-0.2,0.6-0.5,0.7l-1.3,0.2c-0.3,0.1-0.6-0.2-0.7-0.5l0,0L917.9,343.3z"/>
				<path class="st7" d="M914.7,343.8c-0.1-0.3,0.2-0.6,0.5-0.7l1.3-0.2c0.3-0.1,0.6,0.2,0.7,0.5l0.2,1.3c0.1,0.3-0.2,0.6-0.5,0.7
					l-1.3,0.2c-0.3,0.1-0.6-0.2-0.7-0.5L914.7,343.8z"/>
				<path class="st7" d="M911.8,344.4c-0.1-0.3,0.2-0.6,0.5-0.7l1.3-0.2c0.3-0.1,0.6,0.2,0.7,0.5l0.2,1.3c0.1,0.3-0.2,0.6-0.5,0.7
					l0,0l-1.3,0.2c-0.3,0.1-0.6-0.2-0.7-0.5l0,0L911.8,344.4z"/>
				<path class="st7" d="M908.5,344.9c-0.1-0.3,0.2-0.6,0.5-0.7l1.3-0.2c0.3-0.1,0.6,0.2,0.7,0.5l0.2,1.3c0.1,0.3-0.2,0.6-0.5,0.7
					l0,0l-1.3,0.2c-0.3,0.1-0.6-0.2-0.7-0.5L908.5,344.9z"/>
				<path class="st7" d="M905.6,345.4c-0.1-0.3,0.2-0.6,0.5-0.7l1.3-0.2c0.3-0.1,0.6,0.2,0.7,0.5l0.2,1.3c0.1,0.3-0.2,0.6-0.5,0.7
					l0,0l-1.3,0.2c-0.3,0.1-0.6-0.2-0.7-0.5l0,0L905.6,345.4z"/>
				<path class="st7" d="M902.6,345.9c-0.1-0.3,0.2-0.6,0.5-0.7l1.3-0.2c0.3-0.1,0.6,0.2,0.7,0.5l0.2,1.3c0.1,0.3-0.2,0.6-0.5,0.7
					l-1.3,0.2c-0.3,0.1-0.6-0.2-0.7-0.5L902.6,345.9z"/>
				<path class="st7" d="M899.4,346.4c-0.1-0.3,0.2-0.6,0.5-0.7l1.3-0.2c0.3-0.1,0.6,0.2,0.7,0.5l0.2,1.3c0.1,0.3-0.2,0.6-0.5,0.7
					l-1.3,0.2c-0.3,0.1-0.6-0.2-0.7-0.5l0,0L899.4,346.4z"/>
				<path class="st7" d="M896.5,346.8c-0.1-0.3,0.2-0.6,0.5-0.7l1.3-0.2c0.3-0.1,0.6,0.2,0.7,0.5l0.2,1.3c0.1,0.3-0.2,0.6-0.5,0.7
					l-1.3,0.2c-0.3,0.1-0.6-0.2-0.7-0.5l0,0L896.5,346.8z"/>
				<path class="st7" d="M893.2,347.4c-0.1-0.3,0.2-0.6,0.5-0.7l1.3-0.2c0.3-0.1,0.6,0.2,0.7,0.5l0.2,1.3c0.1,0.3-0.2,0.6-0.5,0.7
					l0,0l-1.3,0.2c-0.3,0.1-0.6-0.2-0.7-0.5L893.2,347.4z"/>
				<path class="st7" d="M890.2,347.9c-0.1-0.3,0.2-0.6,0.5-0.7l1.3-0.2c0.3-0.1,0.6,0.2,0.7,0.5l0.2,1.3c0.1,0.3-0.2,0.6-0.5,0.7
					l-1.3,0.2c-0.3,0.1-0.6-0.2-0.7-0.5L890.2,347.9z"/>
			</g>
			<g id="line3-3_2_">
				<path class="st7" d="M888.3,345.1c-0.1-0.3,0.2-0.6,0.5-0.7l4.8-0.7c0.3-0.1,0.6,0.2,0.7,0.5l0.2,1.3c0.1,0.3-0.2,0.6-0.5,0.7
					l0,0l-4.8,0.8c-0.3,0.1-0.6-0.2-0.7-0.5L888.3,345.1z"/>
				<path class="st7" d="M919.1,339.9c-0.1-0.3,0.2-0.6,0.5-0.7l1.3-0.2c0.3-0.1,0.6,0.2,0.7,0.5l0,0l0.2,1.3
					c0.1,0.3-0.2,0.6-0.5,0.7l-1.3,0.2c-0.3,0.1-0.6-0.2-0.7-0.5L919.1,339.9z"/>
				<path class="st7" d="M916.1,340.4c-0.1-0.3,0.2-0.6,0.5-0.7l0,0l1.3-0.2c0.3-0.1,0.6,0.2,0.7,0.5l0.2,1.3
					c0.1,0.3-0.2,0.6-0.5,0.7l-1.3,0.2c-0.3,0.1-0.6-0.2-0.7-0.5L916.1,340.4z"/>
				<path class="st7" d="M913.2,340.9c-0.1-0.3,0.2-0.6,0.5-0.7l1.3-0.2c0.3-0.1,0.6,0.2,0.7,0.5l0.2,1.3c0.1,0.3-0.2,0.6-0.5,0.7
					l-1.3,0.2c-0.3,0.1-0.6-0.2-0.7-0.5L913.2,340.9z"/>
				<path class="st7" d="M910.1,341.4c-0.1-0.3,0.2-0.6,0.5-0.7l1.3-0.2c0.3-0.1,0.6,0.2,0.7,0.5l0.2,1.3c0.1,0.3-0.2,0.6-0.5,0.7
					l-1.3,0.2c-0.3,0.1-0.6-0.2-0.7-0.5L910.1,341.4z"/>
				<path class="st7" d="M907.1,342c-0.1-0.3,0.2-0.6,0.5-0.7l0,0l1.3-0.2c0.3-0.1,0.6,0.2,0.7,0.5l0.2,1.3c0.1,0.3-0.2,0.6-0.5,0.7
					l0,0l-1.3,0.2c-0.3,0.1-0.6-0.2-0.7-0.5L907.1,342z"/>
				<path class="st7" d="M904,342.5c-0.1-0.3,0.2-0.6,0.5-0.7l1.3-0.2c0.3-0.1,0.6,0.2,0.7,0.5l0.2,1.3c0.1,0.3-0.2,0.6-0.5,0.7
					l-1.3,0.2c-0.3,0.1-0.6-0.2-0.7-0.5L904,342.5z"/>
				<path class="st7" d="M900.9,343c-0.1-0.3,0.2-0.6,0.5-0.7l0,0l1.3-0.3c0.3-0.1,0.6,0.2,0.7,0.5l0,0l0.2,1.3
					c0.1,0.3-0.2,0.6-0.5,0.7l-1.3,0.2c-0.3,0.1-0.6-0.2-0.7-0.5L900.9,343z"/>
				<path class="st7" d="M897.8,343.5c-0.1-0.3,0.2-0.6,0.5-0.7l1.3-0.2c0.3-0.1,0.6,0.2,0.7,0.5l0.2,1.3c0.1,0.3-0.2,0.6-0.5,0.7
					l-1.3,0.2c-0.3,0.1-0.6-0.2-0.7-0.5l0,0L897.8,343.5z"/>
				<path class="st7" d="M894.8,344c-0.1-0.3,0.2-0.6,0.5-0.7l1.3-0.2c0.3-0.1,0.6,0.2,0.7,0.5l0.2,1.3c0.1,0.3-0.2,0.6-0.5,0.7l0,0
					l-1.3,0.2c-0.3,0.1-0.6-0.2-0.7-0.5L894.8,344z"/>
				<path class="st7" d="M922.1,339.5c-0.1-0.3,0.2-0.6,0.5-0.7l4.8-0.8c0.3-0.1,0.6,0.2,0.7,0.5l0.2,1.3c0.1,0.3-0.1,0.7-0.5,0.7
					c0,0,0,0-0.1,0l-4.8,0.8c-0.3,0.1-0.6-0.2-0.7-0.5L922.1,339.5z"/>
			</g>
			<g id="line4-3_2_">
				<path class="st7" d="M922.6,336.2c-0.1-0.3,0.2-0.6,0.5-0.7l0,0l1.3-0.2c0.3-0.1,0.6,0.2,0.7,0.5l0,0l0.2,1.3
					c0.1,0.3-0.2,0.6-0.5,0.7l-1.3,0.2c-0.3,0.1-0.6-0.2-0.7-0.5L922.6,336.2z"/>
				<path class="st7" d="M919.6,336.6c-0.1-0.3,0.2-0.6,0.5-0.7l1.3-0.2c0.3-0.1,0.6,0.2,0.7,0.5l0,0l0.2,1.3
					c0.1,0.3-0.2,0.6-0.5,0.7l-1.3,0.2c-0.3,0.1-0.6-0.2-0.7-0.5L919.6,336.6z"/>
				<path class="st7" d="M916.7,337.2c-0.1-0.3,0.2-0.6,0.5-0.7l1.3-0.2c0.3-0.1,0.6,0.2,0.7,0.5l0.2,1.3c0.1,0.3-0.2,0.6-0.5,0.7
					l-1.3,0.2c-0.3,0.1-0.6-0.2-0.7-0.5L916.7,337.2z"/>
				<path class="st7" d="M895.5,340.6c-0.1-0.3,0.2-0.6,0.5-0.7l1.3-0.2c0.3-0.1,0.6,0.2,0.7,0.5l0.2,1.3c0.1,0.3-0.2,0.6-0.5,0.7
					l-1.3,0.2c-0.3,0.1-0.6-0.2-0.7-0.5L895.5,340.6z"/>
				<path class="st7" d="M892.3,341.2c-0.1-0.3,0.2-0.6,0.5-0.7l1.3-0.2c0.3-0.1,0.6,0.2,0.7,0.5l0.2,1.3c0.1,0.3-0.2,0.6-0.5,0.7
					l-1.3,0.2c-0.3,0.1-0.6-0.2-0.7-0.5l0,0L892.3,341.2z"/>
				<path class="st7" d="M889.3,341.6c-0.1-0.3,0.2-0.6,0.5-0.7l1.3-0.2c0.3-0.1,0.6,0.2,0.7,0.5l0.2,1.3c0.1,0.3-0.2,0.6-0.5,0.7
					l-1.3,0.2c-0.3,0.1-0.6-0.2-0.7-0.5l0,0L889.3,341.6z"/>
				<path class="st7" d="M898.6,340.2c-0.1-0.4,0.2-0.7,0.5-0.9l16.2-2.6c0.4,0,0.6,0.3,0.6,0.7l0.2,1c0.1,0.3-0.1,0.7-0.4,0.7l0,0
					l-16.2,2.6c-0.4,0-0.7-0.2-0.7-0.6L898.6,340.2L898.6,340.2z"/>
			</g>
		</g>
	</g>
</g>
<g id="note">
	<path class="st8" d="M263.5,322.9c-0.3-1.2,0.2-1.4,1.3-1.7l14.4-3.8c1.2-0.3,2.7-0.5,2.9,0.7l5.7,21.2c0.3,1.2-0.9,2.3-2.1,2.6
		l-14.4,3.8c-1,0.3-1.9-0.3-2.1-1.1c0-0.1,0-0.2-0.1-0.3L263.5,322.9z"/>
	<polygon class="st9" points="265.6,322.9 265.6,322.9 280.5,319 280.5,319 285.5,337.7 285.5,337.7 270.5,341.7 270.5,341.7 	"/>
	<path class="st10" d="M269.9,343.8c-0.5-0.6-0.4-1.4,0.2-2c0.1,0,0.2-0.1,0.3-0.2l15.8-4.2c0.7-0.2,1.4,1,1.1,1.7s-4.8,2.6-4.8,2.6
		c-0.4,0.9-1.2,3.1-1.9,3.3c-0.6,0.2-1.1,0.5-1.7,0.5c-0.7,0-2.6-1.4-3.3-2C275.4,343.5,270.3,344.1,269.9,343.8z"/>
	<line class="st11" x1="280.9" y1="335.9" x2="273.5" y2="337.9"/>
	<line class="st11" x1="279.5" y1="330.2" x2="272" y2="332.3"/>
	<line class="st11" x1="278" y1="324.6" x2="270.6" y2="326.6"/>
</g>
<g id="pencil">
	<polygon class="st12" points="263.1,342.2 263.4,340 262,340.3 	"/>
	<polygon points="263.1,342.1 263.2,341.5 262.8,341.6 	"/>
	<path class="st13" d="M260.5,330.8l1-0.2l1.9,9.4c-0.1,0.1-0.1,0.1-0.2,0.1s-0.1-0.1-0.2-0.1c-0.1,0.1-0.2,0.1-0.3,0.2
		c-0.1,0-0.2-0.1-0.3-0.1L260.5,330.8L260.5,330.8L260.5,330.8z"/>
	<path class="st2" d="M260.2,330.9l0.4-0.1l1.9,9.4v0.1c-0.1,0-0.1-0.1-0.1-0.1c0,0.1-0.1,0.1-0.1,0.1l-0.1-0.1L260.2,330.9
		L260.2,330.9L260.2,330.9z"/>
	<polygon class="st14" points="261.5,330.5 260.2,330.8 260,329.6 261.3,329.2 	"/>
</g>
<g id="NOTE-2">
	<polygon class="st9" points="363.2,323.8 363.2,323.8 347.2,326.8 347.2,326.8 342,299.3 342,299.3 358,296.3 358,296.3 	"/>
	<polygon class="st15" points="358.6,299.4 358.6,299.4 342.6,302.5 342.6,302.5 342,299.3 342,299.3 358,296.3 358,296.3 	"/>
	<polygon class="st9" points="361.9,325.7 361.9,325.7 346,328.7 346,328.7 340.8,301.1 340.8,301.1 356.7,298.1 356.7,298.1 	"/>
	<polygon class="st15" points="357.3,301.3 357.3,301.3 341.4,304.4 341.4,304.4 340.8,301.1 340.8,301.1 356.7,298.1 356.7,298.1 	
		"/>
	<line class="st11" x1="346.1" y1="314.3" x2="356.4" y2="312.3"/>
	<line class="st11" x1="347.2" y1="320.1" x2="357.5" y2="318.2"/>
</g>
<g id="NOTE-3">
	<polygon class="st16" points="335.9,326.9 335.9,326.9 320.5,330.5 320.5,330.5 315.8,311.2 315.8,311.2 331.3,307.6 331.3,307.6 	
		"/>
	
		<rect x="317.5" y="311.5" transform="matrix(0.9755 -0.2198 0.2198 0.9755 -61.327 78.1866)" class="st17" width="6.4" height="6.4"/>
	<polygon class="st16" points="337.4,324.5 337.4,324.5 322,328.2 322,328.2 317.4,308.9 317.4,308.9 332.8,305.2 332.8,305.2 	"/>
	
		<rect x="320.3" y="309.4" transform="matrix(0.9756 -0.2196 0.2196 0.9756 -60.77 78.4943)" class="st17" width="4.8" height="6.4"/>
	
		<rect x="321.8" y="318.2" transform="matrix(0.9755 -0.2198 0.2198 0.9755 -62.107 79.7651)" class="st17" width="11.2" height="1.6"/>
	
		<rect x="323.2" y="323" transform="matrix(0.976 -0.2177 0.2177 0.976 -62.6006 79.3466)" class="st17" width="11.2" height="1.6"/>
</g>
<g id="NOTE-4">
	<polygon class="st18" points="311.3,330.2 311.3,330.2 294.8,334.6 294.8,334.6 289.3,313.8 289.3,313.8 306,309.5 306,309.5 	"/>
	<polygon class="st19" points="311.9,330.6 311.9,330.6 295.3,334.9 295.3,334.9 289.9,314 289.9,314 306.5,309.8 306.5,309.8 	"/>
	
		<rect x="293.9" y="317.6" transform="matrix(0.9662 -0.2577 0.2577 0.9662 -72.5311 88.2318)" class="st20" width="12.9" height="6.4"/>
	<polygon class="st18" points="312.8,332.7 312.8,332.7 296.1,337 296.1,337 290.7,316.3 290.7,316.3 307.4,311.9 307.4,311.9 	"/>
	<polygon class="st19" points="313.4,333.2 313.4,333.2 296.7,337.5 296.7,337.5 291.4,316.8 291.4,316.8 308,312.4 308,312.4 	"/>
	
		<rect x="295.4" y="320.4" transform="matrix(0.9662 -0.2577 0.2577 0.9662 -73.1985 88.7162)" class="st20" width="12.9" height="6.4"/>
</g>
</svg>
