<?xml version="1.0" encoding="utf-8"?>
<!-- Generator: Adobe Illustrator 16.0.0, SVG Export Plug-In . SVG Version: 6.00 Build 0)  -->
<!DOCTYPE svg PUBLIC "-//W3C//DTD SVG 1.1//EN" "http://www.w3.org/Graphics/SVG/1.1/DTD/svg11.dtd">
<svg version="1.1" id="图层_1" xmlns="http://www.w3.org/2000/svg" xmlns:xlink="http://www.w3.org/1999/xlink" x="0px" y="0px"
	 width="280px" height="76.666px" viewBox="0 0.667 280 76.666" enable-background="new 0 0.667 280 76.666" xml:space="preserve">
<g id="char">
	<path fill="#CBC8B8" d="M161.557,67.342c-0.264,1.14-0.711,2.007-1.848,1.742l-23.565-5.44c-1.14-0.263-1.162-1.237-0.898-2.377
		c0,0,3.961-17.157,5.281-22.878l26.311,6.074C165.518,50.185,161.557,67.342,161.557,67.342z"/>
	<path fill="#BCBAAF" d="M140.292,23.742c0.157-0.683,1.21-1.031,2.347-0.77l28.827,6.655c1.138,0.263,1.933,1.037,1.772,1.721
		c0,0-7.782,9.18-8.574,12.611l-22.709-5.242C142.748,35.286,140.292,23.742,140.292,23.742z"/>
	<path fill="#5E5951" d="M138.377,58.133c-0.088,0.382-0.464,0.617-0.845,0.531l-3.203-0.738c-0.38-0.09-0.616-0.469-0.529-0.846
		l4.331-18.763c0.089-0.38,0.466-0.616,0.846-0.528l3.203,0.739c0.381,0.087,0.615,0.465,0.527,0.847L138.377,58.133z"/>
	<path fill="#5E5951" d="M164.458,64.159c-0.087,0.377-0.464,0.613-0.845,0.527l-3.203-0.738c-0.378-0.088-0.615-0.469-0.527-0.846
		l4.331-18.762c0.088-0.381,0.466-0.616,0.845-0.529l3.205,0.74c0.377,0.087,0.613,0.464,0.525,0.845L164.458,64.159z"/>
</g>
<g id="char_1_">
	<path fill="#CBC8B8" d="M214.58,58.571c0.206,1.148,0.135,2.123-1.016,2.326l-23.808,4.252c-1.151,0.205-1.555-0.684-1.76-1.832
		c0,0-3.097-17.337-4.128-23.117l26.583-4.747C211.484,41.233,214.58,58.571,214.58,58.571z"/>
	<path fill="#BCBAAF" d="M177.902,26.823c-0.125-0.69,0.707-1.424,1.855-1.629l29.123-5.201c1.15-0.206,2.186,0.195,2.307,0.886
		c0,0-3.551,11.499-2.933,14.967l-22.942,4.098C184.693,36.475,177.902,26.823,177.902,26.823z"/>
	<path fill="#5E5951" d="M189.646,59.206c0.068,0.385-0.184,0.75-0.567,0.818l-3.236,0.578c-0.383,0.068-0.75-0.188-0.817-0.57
		l-3.385-18.955c-0.068-0.385,0.188-0.75,0.569-0.818l3.235-0.577c0.385-0.069,0.748,0.187,0.816,0.571L189.646,59.206z"/>
	<path fill="#5E5951" d="M216,54.5c0.066,0.383-0.186,0.75-0.568,0.818l-3.238,0.578c-0.383,0.068-0.748-0.188-0.815-0.57
		l-3.385-18.956c-0.068-0.385,0.187-0.75,0.567-0.818l3.237-0.578c0.384-0.068,0.748,0.186,0.815,0.571L216,54.5z"/>
</g>
<g id="char_2_">
	<path fill="#CBC8B8" d="M261.014,33.587c0.693,0.938,1.063,1.842,0.123,2.535L241.7,50.513c-0.94,0.696-1.696,0.079-2.392-0.859
		c0,0-10.478-14.153-13.972-18.872l21.704-16.067C250.534,19.433,261.014,33.587,261.014,33.587z"/>
	<path fill="#BCBAAF" d="M214.046,21.45c-0.418-0.563,0.002-1.59,0.938-2.284l23.777-17.603c0.939-0.695,2.045-0.795,2.461-0.231
		c0,0,1.93,11.878,4.023,14.71l-18.73,13.867C224.421,27.078,214.046,21.45,214.046,21.45z"/>
	<path fill="#5E5951" d="M238.96,45.239c0.231,0.314,0.169,0.752-0.146,0.984l-2.643,1.956c-0.313,0.231-0.756,0.166-0.984-0.146
		L223.73,32.559c-0.232-0.314-0.166-0.755,0.146-0.986l2.643-1.956c0.313-0.233,0.752-0.166,0.984,0.148L238.96,45.239z"/>
	<path fill="#5E5951" d="M260.475,29.311c0.231,0.313,0.168,0.753-0.146,0.985l-2.642,1.958c-0.313,0.23-0.756,0.164-0.985-0.148
		L245.244,16.63c-0.23-0.314-0.166-0.754,0.146-0.985l2.645-1.957c0.313-0.232,0.753-0.166,0.984,0.148L260.475,29.311z"/>
</g>
<path fill="#A7D6D1" d="M280,6.333c0,0-0.039,61.794-75.833,69.979C144.782,82.725,102,56.333,102,56.333H0v-25h102
	c5.576,4.182,56.443,28.182,99.657,22.119C252.557,46.308,255,6.333,255,6.333H280z"/>
<g id="desktop">
	<g id="monitor_5_">
		<path d="M151.314,69.86c-0.047,0.221-0.267,0.36-0.485,0.313l-10.021-2.192c-0.222-0.046-0.359-0.265-0.313-0.485l0.354-1.604
			c0.047-0.222,0.266-0.36,0.485-0.313l10.021,2.193c0.221,0.048,0.359,0.266,0.312,0.486L151.314,69.86z"/>
		<path fill="#666666" d="M164.764,75.142c-0.113,0.563-2.27,0.813-3.299,0.604l-32.651-6.58c-1.029-0.211-3.072-1.401-2.958-1.963
			l0.416-2.037c0.114-0.563,1.152-1.06,2.18-0.85l35.384,7.223c1.029,0.209,1.458,1.006,1.344,1.565L164.764,75.142z"/>
	</g>
	<g id="keyboard">
		<path fill="#808080" d="M132.291,51.313c0.16-0.781,0.783-1.76,1.333-1.648l31.092,6.346c0.552,0.113,0.875,1.283,0.716,2.068
			l-1.447,7.094c-0.159,0.785-0.781,1.065-1.332,0.953l-31.09-6.344c-0.552-0.113-0.877-0.589-0.717-1.373L132.291,51.313
			L132.291,51.313z"/>
		<path fill="#999999" d="M132.178,51.872c0.15-0.73,0.672-1.672,1.224-1.559l31.175,6.361c0.551,0.111,0.89,1.229,0.741,1.959
			l-1.354,6.621c-0.148,0.73-0.764,0.979-1.314,0.867l-31.175-6.361c-0.554-0.112-0.797-0.536-0.648-1.266L132.178,51.872z"/>
		<g id="key">
			<g id="line1_2_">
				<path fill="#E6E6E6" d="M133.29,58.118c0.048-0.229,0.274-0.381,0.505-0.334l3.394,0.692c0.232,0.048,0.38,0.272,0.333,0.506
					l-0.183,0.892c-0.048,0.229-0.272,0.381-0.504,0.334l-3.395-0.691c-0.229-0.049-0.379-0.275-0.333-0.506L133.29,58.118z"/>
				<path fill="#E6E6E6" d="M155.218,62.59c0.046-0.229,0.274-0.379,0.503-0.332l0.896,0.183c0.232,0.048,0.381,0.272,0.333,0.505
					l-0.183,0.893c-0.047,0.232-0.271,0.382-0.504,0.334l-0.896-0.182c-0.229-0.046-0.38-0.271-0.33-0.504L155.218,62.59z"/>
				<path fill="#E6E6E6" d="M153.102,62.161c0.045-0.231,0.274-0.382,0.504-0.332l0.895,0.18c0.23,0.049,0.38,0.273,0.334,0.506
					l-0.182,0.893c-0.047,0.23-0.273,0.381-0.506,0.336l-0.893-0.184c-0.23-0.049-0.381-0.273-0.333-0.505L153.102,62.161z"/>
				<path fill="#E6E6E6" d="M150.986,61.729c0.047-0.23,0.271-0.381,0.504-0.335l0.894,0.185c0.231,0.047,0.382,0.272,0.335,0.504
					l-0.184,0.895c-0.047,0.229-0.271,0.38-0.504,0.332l-0.896-0.182c-0.231-0.047-0.379-0.272-0.333-0.504L150.986,61.729z"/>
				<path fill="#E6E6E6" d="M148.68,61.256c0.047-0.229,0.271-0.381,0.502-0.334l0.895,0.185c0.232,0.046,0.382,0.272,0.335,0.504
					l-0.183,0.894c-0.047,0.231-0.273,0.381-0.506,0.334l-0.894-0.185c-0.231-0.047-0.379-0.271-0.333-0.503L148.68,61.256z"/>
				<path fill="#E6E6E6" d="M146.602,60.834c0.049-0.231,0.273-0.381,0.504-0.336L148,60.682c0.23,0.047,0.38,0.273,0.333,0.506
					l-0.183,0.893c-0.049,0.231-0.272,0.383-0.502,0.334l-0.896-0.184c-0.231-0.048-0.38-0.271-0.334-0.504L146.602,60.834z"/>
				<path fill="#E6E6E6" d="M144.407,60.385c0.046-0.23,0.272-0.381,0.504-0.334l0.896,0.185c0.229,0.046,0.379,0.272,0.332,0.503
					l-0.182,0.895c-0.046,0.23-0.271,0.382-0.505,0.332l-0.894-0.182c-0.231-0.049-0.381-0.273-0.334-0.502L144.407,60.385z"/>
				<path fill="#E6E6E6" d="M142.273,59.95c0.045-0.229,0.273-0.379,0.506-0.332l0.894,0.18c0.229,0.05,0.38,0.275,0.333,0.507
					l-0.182,0.894c-0.049,0.232-0.273,0.381-0.506,0.336l-0.893-0.185c-0.23-0.048-0.382-0.274-0.334-0.503L142.273,59.95z"/>
				<path fill="#E6E6E6" d="M140.021,59.489c0.048-0.229,0.274-0.38,0.504-0.332l0.896,0.184c0.229,0.047,0.381,0.273,0.333,0.505
					l-0.182,0.893c-0.049,0.232-0.276,0.38-0.506,0.335l-0.893-0.184c-0.231-0.047-0.381-0.271-0.334-0.504L140.021,59.489z"/>
				<path fill="#E6E6E6" d="M137.908,59.061c0.046-0.23,0.271-0.382,0.504-0.335l0.892,0.185c0.233,0.045,0.383,0.271,0.335,0.502
					l-0.184,0.896c-0.046,0.229-0.271,0.38-0.503,0.331l-0.893-0.181c-0.234-0.049-0.381-0.274-0.334-0.506L137.908,59.061z"/>
				<path fill="#E6E6E6" d="M157.333,63.021c0.048-0.229,0.272-0.38,0.505-0.332l3.393,0.69c0.232,0.05,0.381,0.274,0.334,0.509
					l-0.183,0.894c-0.046,0.229-0.272,0.381-0.505,0.331l-3.393-0.692c-0.23-0.047-0.381-0.271-0.334-0.504L157.333,63.021z"/>
			</g>
			<g id="line2">
				<path fill="#E6E6E6" d="M158.574,60.872c0.046-0.229,0.273-0.379,0.505-0.332l0.894,0.182c0.229,0.047,0.381,0.273,0.334,0.506
					l-0.183,0.893c-0.049,0.229-0.272,0.381-0.506,0.334l-0.894-0.184c-0.231-0.046-0.382-0.271-0.334-0.504L158.574,60.872z"/>
				<path fill="#E6E6E6" d="M156.458,60.441c0.046-0.229,0.272-0.38,0.503-0.334l0.895,0.183c0.232,0.045,0.381,0.273,0.334,0.502
					l-0.183,0.896c-0.048,0.231-0.272,0.381-0.505,0.334l-0.895-0.183c-0.232-0.047-0.381-0.273-0.334-0.506L156.458,60.441z"/>
				<path fill="#E6E6E6" d="M154.458,60.032c0.046-0.23,0.274-0.381,0.505-0.332l0.893,0.184c0.232,0.046,0.383,0.271,0.334,0.502
					l-0.183,0.894c-0.047,0.231-0.274,0.382-0.503,0.334l-0.895-0.182c-0.231-0.048-0.381-0.274-0.334-0.505L154.458,60.032z"/>
				<path fill="#E6E6E6" d="M152.168,59.567c0.046-0.23,0.275-0.381,0.505-0.334l0.894,0.184c0.23,0.047,0.381,0.272,0.334,0.504
					l-0.184,0.894c-0.047,0.229-0.273,0.38-0.503,0.335l-0.896-0.186c-0.231-0.047-0.379-0.271-0.332-0.504L152.168,59.567z"/>
				<path fill="#E6E6E6" d="M150.111,59.146c0.046-0.229,0.272-0.381,0.504-0.332l0.896,0.183c0.229,0.047,0.38,0.272,0.332,0.504
					l-0.184,0.894c-0.048,0.229-0.271,0.381-0.503,0.333l-0.896-0.182c-0.231-0.047-0.38-0.274-0.333-0.504L150.111,59.146z"/>
				<path fill="#E6E6E6" d="M147.764,58.667c0.047-0.23,0.272-0.379,0.504-0.334l0.895,0.184c0.23,0.048,0.379,0.275,0.334,0.506
					l-0.184,0.893c-0.045,0.231-0.272,0.381-0.502,0.334l-0.896-0.183c-0.231-0.048-0.381-0.272-0.333-0.505L147.764,58.667z"/>
				<path fill="#E6E6E6" d="M145.686,58.243c0.049-0.229,0.273-0.38,0.504-0.332l0.896,0.182c0.23,0.047,0.381,0.273,0.334,0.505
					l-0.184,0.894c-0.045,0.23-0.273,0.383-0.504,0.334l-0.896-0.184c-0.229-0.046-0.379-0.271-0.333-0.504L145.686,58.243z"/>
				<path fill="#E6E6E6" d="M143.572,57.812c0.047-0.229,0.271-0.382,0.504-0.334l0.896,0.183c0.229,0.049,0.379,0.274,0.33,0.506
					l-0.181,0.893c-0.047,0.23-0.272,0.382-0.503,0.335l-0.896-0.183c-0.231-0.049-0.381-0.272-0.332-0.506L143.572,57.812z"/>
				<path fill="#E6E6E6" d="M141.262,57.34c0.049-0.229,0.275-0.381,0.506-0.332l0.894,0.183c0.231,0.047,0.38,0.272,0.333,0.504
					l-0.184,0.896c-0.045,0.23-0.273,0.379-0.504,0.332l-0.892-0.182c-0.233-0.048-0.383-0.273-0.336-0.506L141.262,57.34z"/>
				<path fill="#E6E6E6" d="M139.148,56.907c0.046-0.229,0.271-0.379,0.503-0.332l0.893,0.184c0.231,0.047,0.381,0.273,0.334,0.504
					l-0.183,0.893c-0.047,0.23-0.271,0.383-0.505,0.334l-0.891-0.181c-0.232-0.048-0.381-0.274-0.335-0.507L139.148,56.907z"/>
				<path fill="#E6E6E6" d="M136.838,56.438c0.047-0.23,0.274-0.382,0.504-0.334l0.895,0.184c0.231,0.045,0.378,0.271,0.333,0.502
					l-0.183,0.895c-0.047,0.23-0.272,0.381-0.503,0.334l-0.895-0.184c-0.232-0.047-0.381-0.273-0.333-0.504L136.838,56.438z"/>
				<path fill="#E6E6E6" d="M134.723,56.006c0.047-0.229,0.271-0.379,0.503-0.334l0.894,0.184c0.233,0.048,0.38,0.273,0.333,0.504
					l-0.182,0.893c-0.048,0.231-0.272,0.383-0.504,0.334l-0.896-0.182c-0.229-0.047-0.379-0.273-0.332-0.504L134.723,56.006z"/>
			</g>
			<g id="line3_2_">
				<path fill="#E6E6E6" d="M134.205,53.627c0.048-0.231,0.276-0.381,0.505-0.334l3.395,0.691c0.231,0.049,0.379,0.273,0.333,0.504
					l-0.183,0.895c-0.047,0.232-0.272,0.382-0.503,0.332l-3.394-0.692c-0.229-0.046-0.38-0.272-0.334-0.502L134.205,53.627z"/>
				<path fill="#E6E6E6" d="M156.096,58.092c0.047-0.229,0.273-0.379,0.506-0.332l0.893,0.185c0.23,0.046,0.381,0.272,0.335,0.502
					l-0.183,0.894c-0.047,0.231-0.272,0.383-0.506,0.334l-0.894-0.184c-0.231-0.047-0.381-0.271-0.333-0.504L156.096,58.092z"/>
				<path fill="#E6E6E6" d="M154,57.665c0.045-0.229,0.271-0.381,0.503-0.334l0.894,0.184c0.232,0.047,0.383,0.271,0.336,0.505
					l-0.183,0.894c-0.047,0.23-0.274,0.379-0.505,0.332l-0.896-0.183c-0.229-0.047-0.379-0.272-0.332-0.504L154,57.665z"/>
				<path fill="#E6E6E6" d="M151.882,57.233c0.048-0.23,0.274-0.381,0.507-0.333l0.894,0.183c0.229,0.047,0.381,0.273,0.333,0.504
					l-0.184,0.895c-0.046,0.23-0.271,0.381-0.502,0.332l-0.895-0.182c-0.23-0.047-0.381-0.274-0.333-0.506L151.882,57.233z"/>
				<path fill="#E6E6E6" d="M149.691,56.786c0.045-0.229,0.272-0.381,0.504-0.334l0.895,0.184c0.23,0.047,0.381,0.273,0.333,0.504
					l-0.181,0.893c-0.047,0.232-0.275,0.383-0.506,0.334l-0.895-0.182c-0.23-0.046-0.379-0.273-0.333-0.503L149.691,56.786z"/>
				<path fill="#E6E6E6" d="M147.557,56.35c0.047-0.23,0.271-0.38,0.504-0.333l0.894,0.183c0.231,0.047,0.38,0.273,0.334,0.504
					l-0.183,0.894c-0.049,0.231-0.273,0.382-0.506,0.333l-0.895-0.182c-0.23-0.047-0.381-0.274-0.333-0.506L147.557,56.35z"/>
				<path fill="#E6E6E6" d="M145.305,55.89c0.045-0.229,0.274-0.38,0.504-0.332l0.895,0.181c0.23,0.049,0.381,0.274,0.334,0.506
					l-0.182,0.895c-0.049,0.23-0.275,0.38-0.506,0.333l-0.895-0.185c-0.229-0.047-0.381-0.271-0.333-0.504L145.305,55.89z"/>
				<path fill="#E6E6E6" d="M143.17,55.456c0.046-0.23,0.273-0.381,0.506-0.334l0.895,0.184c0.23,0.047,0.38,0.271,0.332,0.504
					l-0.182,0.895c-0.048,0.23-0.271,0.381-0.504,0.332l-0.895-0.183c-0.229-0.046-0.381-0.274-0.334-0.504L143.17,55.456z"/>
				<path fill="#E6E6E6" d="M140.938,54.999c0.047-0.229,0.273-0.379,0.506-0.332l0.893,0.183c0.229,0.049,0.381,0.272,0.334,0.505
					l-0.182,0.895c-0.047,0.23-0.275,0.379-0.506,0.33l-0.894-0.181c-0.231-0.048-0.381-0.272-0.333-0.505L140.938,54.999z"/>
				<path fill="#E6E6E6" d="M138.823,54.568c0.048-0.229,0.273-0.381,0.505-0.333l0.893,0.182c0.232,0.049,0.382,0.273,0.333,0.506
					l-0.182,0.894c-0.047,0.231-0.272,0.381-0.505,0.332l-0.893-0.183c-0.233-0.047-0.38-0.273-0.334-0.504L138.823,54.568z"/>
				<path fill="#E6E6E6" d="M158.25,58.534c0.046-0.23,0.271-0.382,0.505-0.336l3.392,0.694c0.232,0.046,0.383,0.271,0.336,0.504
					l-0.184,0.894c-0.046,0.23-0.271,0.381-0.505,0.334l-3.392-0.691c-0.232-0.047-0.381-0.273-0.334-0.506L158.25,58.534z"/>
			</g>
			<g id="line4">
				<path fill="#E6E6E6" d="M159.379,56.431c0.048-0.233,0.275-0.382,0.505-0.334l0.894,0.183c0.232,0.047,0.381,0.274,0.334,0.506
					l-0.182,0.891c-0.047,0.232-0.273,0.382-0.505,0.334l-0.893-0.182c-0.232-0.047-0.382-0.273-0.335-0.504L159.379,56.431z"/>
				<path fill="#E6E6E6" d="M157.266,56c0.047-0.234,0.272-0.385,0.504-0.336l0.894,0.184c0.231,0.046,0.379,0.271,0.333,0.505
					l-0.182,0.894c-0.049,0.23-0.273,0.381-0.506,0.332l-0.894-0.182c-0.229-0.047-0.38-0.273-0.333-0.505L157.266,56z"/>
				<path fill="#E6E6E6" d="M155.167,55.57c0.048-0.231,0.276-0.381,0.506-0.332l0.894,0.181c0.232,0.049,0.384,0.272,0.336,0.508
					l-0.182,0.892c-0.048,0.229-0.273,0.38-0.506,0.334l-0.895-0.185c-0.229-0.047-0.383-0.271-0.334-0.504L155.167,55.57z"/>
				<path fill="#E6E6E6" d="M140.163,52.508c0.048-0.231,0.273-0.379,0.505-0.334l0.893,0.183c0.231,0.05,0.383,0.272,0.334,0.507
					l-0.182,0.891c-0.047,0.231-0.271,0.383-0.503,0.334l-0.893-0.182c-0.233-0.047-0.382-0.271-0.335-0.505L140.163,52.508z"/>
				<path fill="#E6E6E6" d="M137.856,52.038c0.047-0.23,0.272-0.381,0.504-0.332l0.893,0.18c0.231,0.05,0.381,0.273,0.333,0.507
					l-0.182,0.894c-0.047,0.229-0.271,0.379-0.503,0.332l-0.894-0.183c-0.232-0.048-0.38-0.272-0.333-0.505L137.856,52.038z"/>
				<path fill="#E6E6E6" d="M135.74,51.606c0.046-0.232,0.273-0.381,0.504-0.334l0.893,0.184c0.233,0.049,0.381,0.272,0.334,0.506
					l-0.182,0.892c-0.047,0.231-0.272,0.382-0.503,0.332l-0.895-0.181c-0.231-0.047-0.38-0.273-0.333-0.506L135.74,51.606z"/>
				<path fill="#E6E6E6" d="M142.333,53.066c0.056-0.267,0.302-0.491,0.533-0.444l11.519,2.352c0.231,0.047,0.313,0.341,0.26,0.605
					l-0.147,0.717c-0.056,0.267-0.235,0.457-0.466,0.408l-11.52-2.35c-0.229-0.048-0.379-0.307-0.326-0.572L142.333,53.066
					L142.333,53.066z"/>
			</g>
		</g>
	</g>
</g>
<g id="desktop_1_">
	<g id="monitor_1_">
		<path d="M215.369,69.362c0.035,0.225-0.119,0.434-0.342,0.467l-10.141,1.563c-0.222,0.037-0.43-0.116-0.465-0.342l-0.25-1.623
			c-0.033-0.225,0.12-0.434,0.342-0.467l10.139-1.563c0.223-0.034,0.432,0.119,0.465,0.342L215.369,69.362z"/>
		<path fill="#666666" d="M229.816,69.447c0.096,0.565-1.825,1.575-2.86,1.753l-32.831,5.614c-1.033,0.177-3.369-0.2-3.466-0.767
			l-0.347-2.051c-0.096-0.563,0.694-1.4,1.729-1.576l35.611-6.002c1.033-0.176,1.722,0.414,1.815,0.979L229.816,69.447z"/>
	</g>
	<g id="keyboard_1_">
		<path fill="#808080" d="M190.941,58.909c-0.133-0.787,0.098-1.926,0.649-2.02l31.291-5.273c0.558-0.095,1.279,0.881,1.412,1.67
			l1.205,7.139c0.133,0.791-0.347,1.277-0.899,1.371l-31.291,5.274c-0.555,0.093-1.029-0.233-1.162-1.021L190.941,58.909
			L190.941,58.909z"/>
		<path fill="#999999" d="M191.037,59.47c-0.123-0.735,0.025-1.802,0.581-1.894l31.376-5.291c0.555-0.094,1.271,0.825,1.396,1.562
			l1.12,6.665c0.126,0.734-0.36,1.189-0.913,1.283l-31.375,5.289c-0.559,0.094-0.937-0.215-1.063-0.947L191.037,59.47z"/>
		<g id="key_1_">
			<g id="line1_1_">
				<path fill="#E6E6E6" d="M194.323,64.897c-0.038-0.232,0.12-0.454,0.353-0.493l3.415-0.577c0.234-0.039,0.453,0.119,0.493,0.354
					l0.15,0.896c0.037,0.232-0.117,0.455-0.351,0.492l-3.416,0.577c-0.231,0.038-0.452-0.12-0.493-0.353L194.323,64.897z"/>
				<path fill="#E6E6E6" d="M216.393,61.174c-0.041-0.229,0.117-0.452,0.35-0.49l0.9-0.152c0.233-0.039,0.453,0.118,0.492,0.352
					l0.151,0.898c0.039,0.233-0.116,0.452-0.351,0.492l-0.899,0.152c-0.229,0.041-0.453-0.117-0.49-0.352L216.393,61.174z"/>
				<path fill="#E6E6E6" d="M214.262,61.536c-0.039-0.232,0.12-0.453,0.352-0.492l0.9-0.152c0.232-0.039,0.453,0.117,0.493,0.352
					l0.151,0.897c0.037,0.231-0.118,0.454-0.352,0.493l-0.899,0.152c-0.232,0.039-0.454-0.119-0.493-0.352L214.262,61.536z"/>
				<path fill="#E6E6E6" d="M212.134,61.895c-0.038-0.232,0.116-0.454,0.349-0.494l0.901-0.15c0.232-0.039,0.454,0.117,0.495,0.351
					l0.148,0.899c0.039,0.23-0.116,0.451-0.351,0.492l-0.899,0.152c-0.232,0.04-0.452-0.119-0.492-0.352L212.134,61.895z"/>
				<path fill="#E6E6E6" d="M209.813,62.286c-0.039-0.231,0.115-0.453,0.35-0.494l0.898-0.149c0.232-0.04,0.455,0.116,0.494,0.349
					l0.151,0.899c0.041,0.233-0.119,0.454-0.353,0.493l-0.899,0.15c-0.231,0.041-0.451-0.117-0.491-0.35L209.813,62.286z"/>
				<path fill="#E6E6E6" d="M207.723,62.639c-0.041-0.232,0.115-0.454,0.348-0.494l0.9-0.152c0.232-0.039,0.455,0.119,0.493,0.354
					l0.151,0.898c0.039,0.232-0.117,0.453-0.35,0.49l-0.902,0.152c-0.232,0.037-0.45-0.118-0.491-0.352L207.723,62.639z"/>
				<path fill="#E6E6E6" d="M205.514,63.01c-0.041-0.231,0.116-0.453,0.35-0.492l0.9-0.15c0.231-0.041,0.453,0.117,0.49,0.35
					l0.153,0.898c0.04,0.232-0.117,0.453-0.353,0.492l-0.897,0.152c-0.234,0.037-0.454-0.119-0.492-0.35L205.514,63.01z"/>
				<path fill="#E6E6E6" d="M203.363,63.374c-0.038-0.231,0.119-0.453,0.354-0.494l0.899-0.152c0.231-0.037,0.452,0.12,0.491,0.352
					l0.151,0.898c0.039,0.234-0.116,0.454-0.351,0.494l-0.899,0.15c-0.231,0.039-0.454-0.119-0.491-0.35L203.363,63.374z"/>
				<path fill="#E6E6E6" d="M201.1,63.752c-0.039-0.23,0.117-0.453,0.351-0.492l0.899-0.15c0.231-0.039,0.455,0.119,0.492,0.352
					l0.151,0.898c0.041,0.232-0.12,0.454-0.351,0.494l-0.897,0.15c-0.233,0.039-0.455-0.117-0.494-0.351L201.1,63.752z"/>
				<path fill="#E6E6E6" d="M198.973,64.113c-0.041-0.231,0.115-0.452,0.35-0.493l0.898-0.149c0.233-0.041,0.454,0.114,0.493,0.349
					l0.149,0.901c0.039,0.229-0.116,0.452-0.35,0.489l-0.896,0.153c-0.236,0.04-0.455-0.118-0.494-0.351L198.973,64.113z"/>
				<path fill="#E6E6E6" d="M218.521,60.815c-0.039-0.23,0.115-0.453,0.351-0.492l3.414-0.574c0.235-0.039,0.456,0.117,0.495,0.352
					l0.15,0.898c0.039,0.231-0.117,0.453-0.352,0.49l-3.414,0.576c-0.232,0.039-0.454-0.115-0.493-0.35L218.521,60.815z"/>
			</g>
			<g id="line2_1_">
				<path fill="#E6E6E6" d="M218.904,58.363c-0.039-0.229,0.117-0.452,0.351-0.491l0.899-0.154c0.23-0.037,0.453,0.121,0.494,0.354
					l0.15,0.896c0.037,0.232-0.119,0.453-0.354,0.494l-0.898,0.151c-0.23,0.039-0.453-0.118-0.492-0.351L218.904,58.363z"/>
				<path fill="#E6E6E6" d="M216.775,58.723c-0.041-0.23,0.117-0.452,0.35-0.492l0.898-0.152c0.232-0.041,0.453,0.119,0.492,0.35
					l0.152,0.898c0.039,0.234-0.118,0.455-0.352,0.493l-0.899,0.154c-0.233,0.039-0.454-0.119-0.492-0.353L216.775,58.723z"/>
				<path fill="#E6E6E6" d="M214.762,59.062c-0.039-0.231,0.118-0.454,0.352-0.492l0.898-0.149c0.233-0.041,0.455,0.115,0.493,0.348
					l0.149,0.898c0.039,0.233-0.116,0.453-0.35,0.494l-0.898,0.152c-0.232,0.038-0.455-0.12-0.493-0.354L214.762,59.062z"/>
				<path fill="#E6E6E6" d="M212.458,59.454c-0.04-0.232,0.121-0.455,0.351-0.494l0.899-0.15c0.231-0.04,0.454,0.117,0.493,0.35
					l0.15,0.898c0.039,0.232-0.117,0.453-0.349,0.494l-0.903,0.15c-0.23,0.039-0.449-0.119-0.49-0.353L212.458,59.454z"/>
				<path fill="#E6E6E6" d="M210.387,59.799c-0.039-0.229,0.118-0.453,0.352-0.491l0.9-0.151c0.231-0.041,0.453,0.117,0.492,0.35
					l0.15,0.9c0.039,0.23-0.116,0.452-0.35,0.491l-0.902,0.151c-0.23,0.041-0.451-0.118-0.49-0.35L210.387,59.799z"/>
				<path fill="#E6E6E6" d="M208.025,60.2c-0.041-0.234,0.117-0.453,0.349-0.494l0.901-0.151c0.231-0.039,0.451,0.12,0.494,0.353
					l0.149,0.897c0.04,0.231-0.119,0.454-0.351,0.491l-0.9,0.152c-0.232,0.038-0.453-0.117-0.492-0.351L208.025,60.2z"/>
				<path fill="#E6E6E6" d="M205.934,60.551c-0.037-0.232,0.119-0.453,0.352-0.493l0.9-0.151c0.232-0.039,0.453,0.117,0.494,0.352
					l0.148,0.898c0.043,0.231-0.115,0.455-0.35,0.494l-0.9,0.148c-0.23,0.041-0.452-0.116-0.491-0.35L205.934,60.551z"/>
				<path fill="#E6E6E6" d="M203.807,60.909c-0.039-0.229,0.115-0.453,0.352-0.492l0.9-0.152c0.23-0.037,0.453,0.119,0.49,0.352
					l0.151,0.898c0.039,0.232-0.116,0.453-0.349,0.494l-0.901,0.152c-0.232,0.037-0.453-0.119-0.491-0.354L203.807,60.909z"/>
				<path fill="#E6E6E6" d="M201.482,61.303c-0.039-0.233,0.117-0.454,0.35-0.493l0.9-0.151c0.231-0.039,0.453,0.118,0.492,0.35
					l0.151,0.9c0.041,0.232-0.119,0.452-0.351,0.492l-0.897,0.15c-0.235,0.041-0.456-0.116-0.495-0.35L201.482,61.303z"/>
				<path fill="#E6E6E6" d="M199.354,61.659c-0.041-0.23,0.117-0.451,0.351-0.492l0.897-0.15c0.233-0.039,0.453,0.117,0.494,0.35
					l0.149,0.9c0.04,0.23-0.115,0.453-0.351,0.492l-0.896,0.152c-0.232,0.039-0.454-0.119-0.494-0.353L199.354,61.659z"/>
				<path fill="#E6E6E6" d="M197.029,62.051c-0.039-0.23,0.119-0.453,0.35-0.491l0.9-0.151c0.232-0.041,0.453,0.117,0.492,0.35
					l0.15,0.898c0.04,0.233-0.115,0.454-0.349,0.493l-0.901,0.151c-0.23,0.039-0.453-0.118-0.49-0.35L197.029,62.051z"/>
				<path fill="#E6E6E6" d="M194.9,62.413c-0.039-0.232,0.117-0.453,0.35-0.494l0.898-0.149c0.234-0.04,0.455,0.116,0.494,0.349
					l0.151,0.898c0.038,0.232-0.117,0.455-0.353,0.492l-0.898,0.154c-0.23,0.039-0.453-0.121-0.491-0.353L194.9,62.413z"/>
			</g>
			<g id="line3_1_">
				<path fill="#E6E6E6" d="M193.561,60.377c-0.039-0.232,0.121-0.455,0.353-0.492l3.417-0.576c0.232-0.04,0.451,0.119,0.49,0.35
					l0.15,0.899c0.041,0.233-0.115,0.454-0.349,0.491l-3.416,0.576c-0.229,0.039-0.453-0.119-0.493-0.35L193.561,60.377z"/>
				<path fill="#E6E6E6" d="M215.592,56.663c-0.039-0.23,0.118-0.453,0.352-0.492l0.898-0.149c0.231-0.04,0.454,0.116,0.493,0.349
					l0.151,0.897c0.039,0.233-0.116,0.455-0.353,0.493l-0.899,0.152c-0.23,0.039-0.453-0.119-0.491-0.353L215.592,56.663z"/>
				<path fill="#E6E6E6" d="M213.482,57.018c-0.041-0.23,0.115-0.453,0.349-0.492l0.899-0.15c0.233-0.039,0.455,0.117,0.494,0.351
					l0.15,0.897c0.039,0.232-0.119,0.453-0.352,0.492l-0.901,0.151c-0.229,0.039-0.451-0.118-0.49-0.351L213.482,57.018z"/>
				<path fill="#E6E6E6" d="M211.352,57.379c-0.039-0.233,0.119-0.455,0.352-0.494l0.9-0.152c0.23-0.038,0.453,0.119,0.49,0.352
					l0.152,0.899c0.04,0.231-0.118,0.453-0.352,0.491l-0.897,0.152c-0.231,0.039-0.455-0.119-0.493-0.353L211.352,57.379z"/>
				<path fill="#E6E6E6" d="M209.146,57.749c-0.039-0.229,0.119-0.453,0.351-0.492l0.899-0.151c0.232-0.039,0.455,0.118,0.492,0.351
					l0.153,0.898c0.039,0.232-0.119,0.455-0.353,0.492l-0.898,0.152c-0.232,0.041-0.452-0.119-0.492-0.35L209.146,57.749z"/>
				<path fill="#E6E6E6" d="M206.998,58.11c-0.04-0.23,0.115-0.451,0.35-0.49l0.898-0.152c0.232-0.039,0.454,0.117,0.494,0.349
					l0.15,0.899c0.039,0.234-0.117,0.455-0.353,0.492l-0.897,0.152c-0.232,0.04-0.455-0.117-0.494-0.352L206.998,58.11z"/>
				<path fill="#E6E6E6" d="M204.729,58.493c-0.039-0.23,0.121-0.451,0.354-0.492l0.898-0.152c0.232-0.038,0.455,0.119,0.494,0.354
					l0.151,0.896c0.038,0.232-0.119,0.453-0.353,0.494l-0.898,0.148c-0.232,0.041-0.454-0.115-0.493-0.35L204.729,58.493z"/>
				<path fill="#E6E6E6" d="M202.584,58.855c-0.04-0.231,0.117-0.453,0.352-0.492l0.9-0.151c0.23-0.039,0.452,0.117,0.49,0.352
					l0.15,0.898c0.041,0.231-0.117,0.453-0.35,0.492l-0.9,0.15c-0.23,0.039-0.455-0.118-0.492-0.35L202.584,58.855z"/>
				<path fill="#E6E6E6" d="M200.337,59.234c-0.041-0.231,0.118-0.452,0.353-0.491l0.897-0.152c0.231-0.037,0.453,0.117,0.493,0.352
					l0.15,0.898c0.041,0.231-0.119,0.453-0.352,0.49l-0.898,0.152c-0.232,0.039-0.455-0.117-0.492-0.352L200.337,59.234z"/>
				<path fill="#E6E6E6" d="M198.208,59.594c-0.038-0.233,0.117-0.453,0.353-0.492l0.896-0.152c0.234-0.039,0.455,0.117,0.494,0.35
					l0.152,0.9c0.037,0.233-0.117,0.453-0.354,0.491l-0.896,0.151c-0.235,0.039-0.455-0.118-0.494-0.352L198.208,59.594z"/>
				<path fill="#E6E6E6" d="M217.762,56.297c-0.041-0.23,0.114-0.452,0.35-0.494l3.414-0.573c0.232-0.041,0.455,0.115,0.494,0.351
					l0.15,0.897c0.04,0.233-0.115,0.455-0.352,0.494l-3.411,0.575c-0.234,0.039-0.454-0.118-0.494-0.352L217.762,56.297z"/>
			</g>
			<g id="line4_1_">
				<path fill="#E6E6E6" d="M218.059,53.93c-0.041-0.235,0.118-0.455,0.35-0.493l0.898-0.151c0.232-0.041,0.455,0.118,0.492,0.352
					l0.153,0.896c0.04,0.232-0.119,0.453-0.353,0.492l-0.897,0.152c-0.233,0.039-0.455-0.117-0.493-0.35L218.059,53.93z"/>
				<path fill="#E6E6E6" d="M215.93,54.29c-0.041-0.234,0.115-0.457,0.35-0.496l0.898-0.149c0.232-0.041,0.452,0.116,0.493,0.353
					l0.151,0.896c0.037,0.232-0.117,0.454-0.352,0.492l-0.898,0.152c-0.231,0.039-0.452-0.117-0.492-0.352L215.93,54.29z"/>
				<path fill="#E6E6E6" d="M213.818,54.644c-0.039-0.233,0.119-0.455,0.352-0.492L215.068,54c0.232-0.039,0.455,0.115,0.494,0.352
					l0.151,0.896c0.039,0.231-0.118,0.453-0.353,0.492l-0.899,0.151c-0.229,0.039-0.455-0.116-0.493-0.349L213.818,54.644z"/>
				<path fill="#E6E6E6" d="M198.716,57.188c-0.038-0.232,0.118-0.452,0.353-0.492l0.898-0.152c0.232-0.037,0.455,0.117,0.495,0.353
					l0.149,0.897c0.039,0.231-0.115,0.453-0.35,0.492l-0.898,0.15c-0.233,0.041-0.454-0.116-0.494-0.35L198.716,57.188z"/>
				<path fill="#E6E6E6" d="M196.396,57.581c-0.041-0.232,0.115-0.453,0.351-0.492l0.897-0.151c0.232-0.038,0.453,0.116,0.492,0.353
					l0.151,0.896c0.039,0.232-0.117,0.453-0.351,0.49l-0.897,0.154c-0.233,0.039-0.454-0.119-0.493-0.353L196.396,57.581z"/>
				<path fill="#E6E6E6" d="M194.266,57.941c-0.041-0.235,0.118-0.455,0.352-0.494l0.898-0.151c0.234-0.039,0.453,0.119,0.493,0.353
					l0.151,0.897c0.039,0.232-0.117,0.453-0.35,0.49l-0.9,0.152c-0.23,0.04-0.452-0.117-0.492-0.352L194.266,57.941z"/>
				<path fill="#E6E6E6" d="M200.943,56.929c-0.047-0.269,0.103-0.567,0.336-0.607l11.594-1.954c0.23-0.039,0.414,0.207,0.459,0.473
					l0.122,0.722c0.044,0.269-0.056,0.513-0.288,0.55l-11.593,1.955c-0.232,0.039-0.464-0.148-0.511-0.416L200.943,56.929
					L200.943,56.929z"/>
			</g>
		</g>
	</g>
</g>
<g id="desktop_2_">
	<g id="monitor_2_">
		<path d="M263.1,38.733c0.174,0.145,0.195,0.403,0.049,0.575l-6.592,7.86c-0.144,0.174-0.399,0.195-0.576,0.051l-1.258-1.059
			c-0.173-0.145-0.193-0.404-0.051-0.576l6.592-7.857c0.146-0.173,0.403-0.196,0.575-0.049L263.1,38.733z"/>
		<path fill="#666666" d="M274.018,29.272c0.444,0.361-0.332,2.387-0.996,3.203L252.04,58.342c-0.661,0.814-2.666,2.07-3.11,1.709
			l-1.611-1.313c-0.444-0.363-0.402-1.512,0.261-2.326l22.815-27.991c0.662-0.815,1.567-0.826,2.012-0.463L274.018,29.272z"/>
	</g>
	<g id="keyboard_2_">
		<path fill="#808080" d="M237.841,46.979c-0.618-0.504-1.196-1.512-0.842-1.945l20.048-24.597c0.355-0.438,1.543-0.181,2.164,0.326
			l5.611,4.572c0.623,0.508,0.582,1.189,0.228,1.625l-20.048,24.595c-0.355,0.438-0.93,0.506-1.548,0L237.841,46.979L237.841,46.979
			z"/>
		<path fill="#999999" d="M238.282,47.338c-0.577-0.473-1.169-1.371-0.812-1.807l20.103-24.665c0.354-0.436,1.499-0.219,2.077,0.253
			l5.238,4.272c0.578,0.47,0.512,1.132,0.156,1.567l-20.102,24.663c-0.357,0.439-0.844,0.457-1.424-0.014L238.282,47.338z"/>
		<g id="key_2_">
			<g id="line1_3_">
				<path fill="#E6E6E6" d="M244.332,49.252c-0.182-0.149-0.21-0.42-0.061-0.603l2.188-2.687c0.15-0.185,0.418-0.209,0.604-0.062
					l0.705,0.576c0.181,0.149,0.211,0.419,0.062,0.601l-2.188,2.688c-0.147,0.182-0.418,0.209-0.602,0.063L244.332,49.252z"/>
				<path fill="#E6E6E6" d="M258.471,31.903c-0.184-0.147-0.211-0.418-0.063-0.599l0.577-0.709c0.149-0.183,0.42-0.209,0.603-0.061
					l0.706,0.576c0.184,0.15,0.212,0.417,0.063,0.602l-0.576,0.709c-0.146,0.182-0.418,0.209-0.6,0.059L258.471,31.903z"/>
				<path fill="#E6E6E6" d="M257.105,33.579c-0.184-0.149-0.209-0.42-0.062-0.602l0.576-0.708c0.149-0.183,0.419-0.211,0.603-0.063
					l0.707,0.575c0.182,0.149,0.211,0.419,0.062,0.604l-0.576,0.707c-0.147,0.182-0.42,0.21-0.603,0.061L257.105,33.579z"/>
				<path fill="#E6E6E6" d="M255.743,35.252c-0.185-0.15-0.212-0.418-0.063-0.602l0.577-0.707c0.147-0.184,0.419-0.21,0.604-0.063
					l0.705,0.578c0.183,0.147,0.211,0.417,0.062,0.601l-0.577,0.708c-0.146,0.184-0.417,0.209-0.601,0.061L255.743,35.252z"/>
				<path fill="#E6E6E6" d="M254.253,37.077c-0.18-0.149-0.21-0.417-0.062-0.602l0.576-0.707c0.148-0.183,0.42-0.211,0.603-0.063
					l0.708,0.576c0.184,0.149,0.209,0.419,0.061,0.602l-0.578,0.707c-0.147,0.184-0.416,0.21-0.6,0.062L254.253,37.077z"/>
				<path fill="#E6E6E6" d="M252.916,38.72c-0.186-0.149-0.212-0.418-0.064-0.602l0.578-0.708c0.148-0.183,0.42-0.21,0.604-0.061
					l0.705,0.576c0.184,0.149,0.212,0.418,0.062,0.6l-0.577,0.708c-0.148,0.184-0.416,0.209-0.601,0.061L252.916,38.72z"/>
				<path fill="#E6E6E6" d="M251.5,40.458c-0.184-0.148-0.211-0.418-0.063-0.603l0.578-0.708c0.147-0.183,0.418-0.209,0.6-0.061
					l0.708,0.575c0.184,0.149,0.211,0.42,0.061,0.604l-0.573,0.708c-0.152,0.182-0.422,0.209-0.603,0.062L251.5,40.458z"/>
				<path fill="#E6E6E6" d="M250.124,42.146c-0.183-0.147-0.209-0.419-0.062-0.604l0.576-0.707c0.148-0.181,0.42-0.207,0.602-0.06
					l0.707,0.576c0.184,0.149,0.212,0.418,0.063,0.603l-0.576,0.707c-0.148,0.182-0.42,0.209-0.601,0.062L250.124,42.146z"/>
				<path fill="#E6E6E6" d="M248.67,43.924c-0.182-0.148-0.209-0.418-0.061-0.6l0.578-0.709c0.146-0.182,0.42-0.209,0.602-0.061
					l0.707,0.576c0.186,0.147,0.208,0.42,0.063,0.603l-0.576,0.706c-0.148,0.184-0.42,0.212-0.604,0.063L248.67,43.924z"/>
				<path fill="#E6E6E6" d="M247.311,45.599c-0.184-0.147-0.213-0.418-0.063-0.603l0.577-0.707c0.148-0.184,0.418-0.211,0.602-0.063
					l0.707,0.579c0.182,0.147,0.21,0.417,0.059,0.601l-0.571,0.706c-0.152,0.185-0.421,0.21-0.603,0.062L247.311,45.599z"/>
				<path fill="#E6E6E6" d="M259.834,30.229c-0.182-0.149-0.212-0.418-0.063-0.602l2.188-2.684c0.151-0.184,0.421-0.212,0.604-0.062
					l0.705,0.577c0.185,0.148,0.211,0.417,0.062,0.601l-2.188,2.684c-0.147,0.183-0.416,0.212-0.6,0.063L259.834,30.229z"/>
			</g>
			<g id="line2_2_">
				<path fill="#E6E6E6" d="M258.505,28.133c-0.182-0.148-0.211-0.419-0.062-0.602l0.576-0.708c0.147-0.182,0.418-0.209,0.603-0.061
					l0.706,0.575c0.182,0.15,0.209,0.419,0.063,0.604l-0.578,0.707c-0.146,0.183-0.418,0.21-0.601,0.061L258.505,28.133z"/>
				<path fill="#E6E6E6" d="M257.143,29.806c-0.184-0.147-0.211-0.417-0.063-0.6l0.575-0.708c0.148-0.184,0.42-0.208,0.601-0.062
					l0.707,0.576c0.185,0.15,0.211,0.419,0.063,0.602l-0.576,0.709c-0.15,0.184-0.42,0.21-0.602,0.06L257.143,29.806z"/>
				<path fill="#E6E6E6" d="M255.852,31.39c-0.184-0.148-0.211-0.419-0.062-0.602l0.577-0.706c0.146-0.185,0.418-0.212,0.6-0.064
					l0.707,0.578c0.184,0.149,0.21,0.418,0.063,0.602l-0.576,0.708c-0.148,0.182-0.421,0.21-0.604,0.06L255.852,31.39z"/>
				<path fill="#E6E6E6" d="M254.376,33.202c-0.185-0.148-0.209-0.421-0.062-0.602l0.576-0.706c0.147-0.183,0.42-0.211,0.603-0.063
					l0.706,0.576c0.182,0.149,0.21,0.419,0.063,0.602l-0.578,0.708c-0.149,0.183-0.418,0.208-0.603,0.06L254.376,33.202z"/>
				<path fill="#E6E6E6" d="M253.048,34.829c-0.182-0.147-0.211-0.419-0.062-0.602l0.578-0.708c0.146-0.183,0.418-0.21,0.601-0.061
					l0.706,0.577c0.184,0.148,0.212,0.417,0.063,0.601l-0.578,0.708c-0.146,0.184-0.418,0.21-0.6,0.061L253.048,34.829z"/>
				<path fill="#E6E6E6" d="M251.535,36.686c-0.184-0.148-0.209-0.417-0.063-0.601l0.576-0.708c0.149-0.183,0.419-0.208,0.604-0.062
					l0.705,0.576c0.186,0.148,0.211,0.419,0.063,0.601l-0.577,0.708c-0.148,0.182-0.419,0.209-0.602,0.061L251.535,36.686z"/>
				<path fill="#E6E6E6" d="M250.195,38.329c-0.182-0.149-0.209-0.419-0.063-0.602l0.576-0.708c0.148-0.184,0.419-0.21,0.604-0.063
					l0.705,0.578c0.186,0.147,0.213,0.419,0.063,0.602l-0.58,0.707c-0.146,0.183-0.417,0.21-0.601,0.061L250.195,38.329z"/>
				<path fill="#E6E6E6" d="M248.832,40c-0.182-0.146-0.212-0.416-0.063-0.602l0.578-0.709c0.147-0.18,0.418-0.208,0.601-0.059
					l0.706,0.575c0.184,0.149,0.213,0.42,0.063,0.603l-0.577,0.708c-0.15,0.184-0.42,0.211-0.603,0.061L248.832,40z"/>
				<path fill="#E6E6E6" d="M247.344,41.831c-0.183-0.15-0.21-0.42-0.063-0.603l0.578-0.708c0.147-0.182,0.418-0.208,0.601-0.061
					l0.708,0.576c0.184,0.148,0.208,0.418,0.061,0.603l-0.574,0.704c-0.149,0.188-0.42,0.214-0.604,0.064L247.344,41.831z"/>
				<path fill="#E6E6E6" d="M245.979,43.5c-0.182-0.147-0.209-0.416-0.062-0.602l0.576-0.707c0.149-0.184,0.419-0.209,0.603-0.063
					l0.707,0.578c0.182,0.147,0.211,0.416,0.061,0.603l-0.574,0.706c-0.148,0.184-0.419,0.21-0.604,0.061L245.979,43.5z"/>
				<path fill="#E6E6E6" d="M244.491,45.329c-0.185-0.147-0.212-0.42-0.063-0.602l0.576-0.708c0.148-0.185,0.419-0.209,0.602-0.062
					l0.707,0.578c0.184,0.147,0.211,0.418,0.063,0.6l-0.577,0.709c-0.147,0.182-0.42,0.21-0.601,0.063L244.491,45.329z"/>
				<path fill="#E6E6E6" d="M243.128,47.002c-0.183-0.148-0.212-0.418-0.063-0.602l0.578-0.706c0.149-0.185,0.418-0.211,0.6-0.063
					l0.708,0.576c0.183,0.149,0.212,0.42,0.062,0.603l-0.574,0.708c-0.148,0.182-0.42,0.209-0.603,0.061L243.128,47.002z"/>
			</g>
			<g id="line3_3_">
				<path fill="#E6E6E6" d="M240.777,46.357c-0.182-0.149-0.209-0.421-0.061-0.603l2.188-2.687c0.148-0.183,0.419-0.208,0.601-0.062
					l0.707,0.578c0.185,0.148,0.213,0.416,0.062,0.601l-2.188,2.685c-0.146,0.182-0.419,0.209-0.602,0.063L240.777,46.357z"/>
				<path fill="#E6E6E6" d="M254.893,29.038c-0.182-0.147-0.209-0.418-0.06-0.601l0.577-0.706c0.146-0.183,0.417-0.212,0.6-0.063
					l0.706,0.575c0.185,0.151,0.214,0.419,0.062,0.603l-0.575,0.708c-0.147,0.181-0.42,0.21-0.603,0.06L254.893,29.038z"/>
				<path fill="#E6E6E6" d="M253.541,30.696c-0.184-0.146-0.212-0.417-0.063-0.6l0.576-0.708c0.149-0.183,0.42-0.211,0.604-0.062
					l0.705,0.576c0.184,0.149,0.21,0.419,0.061,0.602l-0.576,0.708c-0.148,0.181-0.418,0.208-0.6,0.061L253.541,30.696z"/>
				<path fill="#E6E6E6" d="M252.177,32.372c-0.184-0.149-0.211-0.42-0.062-0.603l0.576-0.708c0.148-0.181,0.42-0.21,0.601-0.061
					L254,31.578c0.184,0.149,0.21,0.418,0.061,0.601l-0.574,0.707c-0.148,0.183-0.422,0.21-0.604,0.061L252.177,32.372z"/>
				<path fill="#E6E6E6" d="M250.762,34.104c-0.181-0.146-0.209-0.417-0.061-0.6l0.576-0.708c0.148-0.182,0.42-0.21,0.602-0.061
					l0.708,0.574c0.183,0.15,0.21,0.422,0.06,0.603l-0.574,0.708c-0.148,0.183-0.42,0.208-0.6,0.062L250.762,34.104z"/>
				<path fill="#E6E6E6" d="M249.387,35.793c-0.184-0.147-0.21-0.417-0.062-0.6l0.575-0.707c0.147-0.183,0.418-0.21,0.601-0.063
					L251.208,35c0.185,0.151,0.212,0.418,0.062,0.602l-0.576,0.708c-0.147,0.183-0.42,0.21-0.602,0.061L249.387,35.793z"/>
				<path fill="#E6E6E6" d="M247.934,37.576c-0.182-0.148-0.207-0.419-0.061-0.603l0.576-0.708c0.148-0.183,0.419-0.21,0.603-0.061
					l0.706,0.575c0.184,0.15,0.209,0.42,0.063,0.604l-0.578,0.706c-0.148,0.184-0.418,0.211-0.602,0.062L247.934,37.576z"/>
				<path fill="#E6E6E6" d="M246.559,39.263c-0.184-0.147-0.211-0.418-0.061-0.602l0.577-0.709c0.147-0.181,0.418-0.209,0.601-0.059
					l0.707,0.576c0.182,0.148,0.211,0.418,0.061,0.6l-0.576,0.708c-0.148,0.183-0.42,0.21-0.602,0.063L246.559,39.263z"/>
				<path fill="#E6E6E6" d="M245.118,41.03c-0.183-0.146-0.21-0.419-0.06-0.602l0.574-0.707c0.149-0.182,0.418-0.211,0.604-0.061
					l0.707,0.574c0.183,0.148,0.207,0.422,0.06,0.602l-0.576,0.707c-0.149,0.184-0.419,0.211-0.601,0.062L245.118,41.03z"/>
				<path fill="#E6E6E6" d="M243.756,42.704c-0.183-0.149-0.211-0.416-0.063-0.601l0.576-0.707c0.149-0.185,0.42-0.211,0.603-0.063
					l0.707,0.576c0.185,0.15,0.211,0.418,0.06,0.602l-0.576,0.707c-0.148,0.186-0.418,0.209-0.602,0.063L243.756,42.704z"/>
				<path fill="#E6E6E6" d="M256.282,27.333c-0.183-0.147-0.212-0.416-0.063-0.602l2.189-2.683c0.146-0.184,0.417-0.212,0.602-0.063
					l0.706,0.575c0.185,0.149,0.214,0.419,0.062,0.603l-2.186,2.683c-0.148,0.184-0.42,0.21-0.604,0.062L256.282,27.333z"/>
			</g>
			<g id="line4_2_">
				<path fill="#E6E6E6" d="M254.945,25.358c-0.188-0.15-0.211-0.42-0.063-0.602l0.575-0.707c0.148-0.185,0.42-0.211,0.602-0.062
					l0.707,0.574c0.185,0.149,0.211,0.419,0.063,0.603l-0.575,0.707c-0.149,0.183-0.42,0.212-0.603,0.063L254.945,25.358z"/>
				<path fill="#E6E6E6" d="M253.581,27.031c-0.187-0.149-0.213-0.419-0.063-0.603l0.576-0.705c0.148-0.185,0.418-0.21,0.604-0.062
					l0.705,0.576c0.184,0.15,0.211,0.418,0.062,0.603l-0.575,0.707c-0.147,0.183-0.418,0.209-0.602,0.061L253.581,27.031z"/>
				<path fill="#E6E6E6" d="M252.229,28.689c-0.183-0.15-0.211-0.42-0.061-0.602l0.575-0.707c0.149-0.184,0.419-0.212,0.604-0.062
					l0.705,0.575c0.182,0.149,0.211,0.419,0.061,0.603l-0.576,0.708c-0.146,0.181-0.42,0.212-0.602,0.063L252.229,28.689z"/>
				<path fill="#E6E6E6" d="M242.551,40.561c-0.182-0.15-0.209-0.418-0.06-0.604l0.575-0.707c0.149-0.182,0.418-0.211,0.604-0.062
					l0.705,0.576c0.184,0.149,0.211,0.417,0.063,0.601l-0.576,0.706c-0.148,0.185-0.418,0.212-0.604,0.063L242.551,40.561z"/>
				<path fill="#E6E6E6" d="M241.064,42.385c-0.184-0.149-0.211-0.416-0.062-0.602l0.576-0.707c0.147-0.183,0.416-0.211,0.603-0.061
					l0.705,0.574c0.184,0.15,0.211,0.418,0.062,0.601l-0.574,0.708c-0.149,0.184-0.42,0.21-0.604,0.061L241.064,42.385z"/>
				<path fill="#E6E6E6" d="M239.701,44.061c-0.186-0.15-0.211-0.42-0.063-0.602l0.576-0.707c0.151-0.185,0.419-0.211,0.604-0.063
					l0.705,0.575c0.184,0.149,0.211,0.419,0.062,0.601l-0.577,0.709c-0.146,0.184-0.417,0.209-0.601,0.061L239.701,44.061z"/>
				<path fill="#E6E6E6" d="M244.055,38.896c-0.212-0.172-0.297-0.495-0.146-0.679l7.427-9.113c0.148-0.183,0.448-0.118,0.657,0.053
					l0.565,0.461c0.211,0.173,0.297,0.421,0.146,0.604l-7.428,9.112c-0.148,0.183-0.447,0.194-0.657,0.022L244.055,38.896
					L244.055,38.896z"/>
			</g>
		</g>
	</g>
</g>
<g id="note" display="none">
	<path display="inline" fill="#CFAD49" d="M227.229,18.5c-0.397-0.62-0.147-0.918,0.486-1.327l8.049-5.18
		c0.637-0.41,1.5-0.829,1.897-0.208l7.584,11.782c0.397,0.621-0.116,1.582-0.752,1.992l-8.05,5.178
		c-0.635,0.41-1.232,0.166-1.635-0.454L227.229,18.5z"/>
	<polygon display="inline" fill="#FFFFFF" points="228.48,18.154 228.48,18.154 236.83,12.782 236.83,12.782 243.546,23.216 
		243.546,23.216 235.197,28.589 235.197,28.589 	"/>
	<path display="inline" fill="#333333" d="M235.27,30.019c-0.449-0.149-0.568-1.108-0.17-1.365l8.778-5.65
		c0.397-0.256,1.015,0.348,1.015,0.823c-0.002,0.409-2.468,2.515-2.468,2.515c-0.063,0.607-0.146,2.086-0.485,2.415
		c-0.221,0.214-0.635,0.517-0.955,0.626c-0.45,0.151-1.896-0.388-2.406-0.568C238.576,28.813,235.596,30.128,235.27,30.019z"/>
	
		<line display="inline" fill="none" stroke="#4B4B4B" stroke-linecap="round" stroke-miterlimit="10" x1="240.45" y1="22.995" x2="236.275" y2="25.683"/>
	
		<line display="inline" fill="none" stroke="#4B4B4B" stroke-linecap="round" stroke-miterlimit="10" x1="238.438" y1="19.864" x2="234.264" y2="22.551"/>
	
		<line display="inline" fill="none" stroke="#4B4B4B" stroke-linecap="round" stroke-miterlimit="10" x1="236.421" y1="16.734" x2="232.249" y2="19.419"/>
</g>
<g id="pencil" display="none">
	<polygon display="inline" fill="#F4ECBD" points="230.634,28.317 230.378,26.985 229.673,27.383 	"/>
	<polygon display="inline" points="230.616,28.304 230.548,27.948 230.357,28.054 	"/>
	<path display="inline" fill="#998D74" d="M226.939,22.038l0.504-0.285l2.939,5.225c0,0-0.025,0.112-0.049,0.127
		c-0.027,0.016-0.146-0.02-0.146-0.02s-0.088,0.148-0.111,0.164c-0.026,0.016-0.197,0.012-0.197,0.012L226.939,22.038
		L226.939,22.038z"/>
	<path display="inline" fill="#5E5951" d="M226.751,22.146l0.188-0.107l2.938,5.225c0,0,0.045,0.072,0.022,0.086
		c-0.023,0.014-0.099-0.045-0.099-0.045s0.007,0.094-0.017,0.108c-0.021,0.013-0.102-0.043-0.102-0.043L226.751,22.146
		L226.751,22.146z"/>
	
		<rect x="226.499" y="21.196" transform="matrix(0.8708 -0.4917 0.4917 0.8708 18.6976 114.3465)" display="inline" fill="#FC9B7A" width="0.798" height="0.809"/>
</g>
<g id="NOTE">
	<polygon fill="#FFFFFF" points="92.264,51.772 92.264,51.772 82.741,51.375 82.741,51.375 83.427,34.931 83.427,34.931 
		92.954,35.33 92.954,35.33 	"/>
	<polygon fill="#FB5856" points="92.874,37.23 92.874,37.23 83.35,36.833 83.35,36.833 83.427,34.931 83.427,34.931 92.953,35.33 
		92.953,35.33 	"/>
	<polygon fill="#FFFFFF" points="91.32,52.677 91.32,52.677 81.794,52.277 81.794,52.277 82.482,35.837 82.482,35.837 
		92.009,36.235 92.009,36.235 	"/>
	<polygon fill="#FB5856" points="91.929,38.139 91.929,38.139 82.406,37.739 82.406,37.739 82.482,35.837 82.482,35.837 
		92.009,36.236 92.009,36.236 	"/>
	
		<line fill="none" stroke="#4B4B4B" stroke-linecap="round" stroke-miterlimit="10" x1="83.769" y1="44.04" x2="89.927" y2="44.299"/>
	
		<line fill="none" stroke="#4B4B4B" stroke-linecap="round" stroke-miterlimit="10" x1="83.621" y1="47.532" x2="89.779" y2="47.788"/>
</g>
<g id="NOTE_1_">
	<polygon fill="#D8C59A" points="76.87,50.669 76.87,50.669 66.396,50.717 66.396,50.717 66.337,37.625 66.337,37.625 
		76.811,37.576 76.811,37.576 	"/>
	<rect x="66.834" y="38.517" transform="matrix(1 0.0079 -0.0079 1 0.3219 -0.5413)" fill="#FBFAF9" width="4.219" height="4.22"/>
	<polygon fill="#D8C59A" points="78.188,49.372 78.188,49.372 67.715,49.419 67.715,49.419 67.656,36.329 67.656,36.329 
		78.129,36.279 78.129,36.279 	"/>
	<rect x="68.952" y="37.469" transform="matrix(1 0.008 -0.008 1 0.3197 -0.5644)" fill="#FBFAF9" width="3.166" height="4.22"/>
	<rect x="68.916" y="43.812" transform="matrix(1 0.0079 -0.0079 1 0.354 -0.5746)" fill="#FBFAF9" width="7.386" height="1.056"/>
	<rect x="68.892" y="46.978" transform="matrix(1 0.0081 -0.0081 1 0.3856 -0.584)" fill="#FBFAF9" width="7.385" height="1.054"/>
</g>
<g id="NOTE_2_">
	<polygon fill="#9B9296" points="62.18,48.737 62.18,48.737 51.71,49.005 51.71,49.005 51.374,35.917 51.374,35.917 61.842,35.646 
		61.842,35.646 	"/>
	<polygon fill="#D8BFC9" points="62.458,48.995 62.458,48.995 51.99,49.264 51.99,49.264 51.652,36.177 51.652,36.177 
		62.122,35.906 62.122,35.906 	"/>
	
		<rect x="52.999" y="39.696" transform="matrix(0.9995 -0.0312 0.0312 0.9995 -1.2723 1.7967)" fill="#E5DCD1" width="7.855" height="3.927"/>
	<polygon fill="#9B9296" points="62.657,50.411 62.657,50.411 52.189,50.678 52.189,50.678 51.851,37.599 51.851,37.599 
		62.32,37.329 62.32,37.329 	"/>
	<polygon fill="#D8BFC9" points="62.958,50.777 62.958,50.777 52.49,51.047 52.49,51.047 52.153,37.959 52.153,37.959 
		62.623,37.688 62.623,37.688 	"/>
	
		<rect x="53.498" y="41.492" transform="matrix(0.9995 -0.0311 0.0311 0.9995 -1.3231 1.8061)" fill="#E5DCD1" width="7.854" height="3.927"/>
</g>
</svg>
