<?xml version="1.0" encoding="utf-8"?>
<!-- Generator: Adobe Illustrator 16.0.0, SVG Export Plug-In . SVG Version: 6.00 Build 0)  -->
<!DOCTYPE svg PUBLIC "-//W3C//DTD SVG 1.1//EN" "http://www.w3.org/Graphics/SVG/1.1/DTD/svg11.dtd">
<svg version="1.1" id="图层_1" xmlns="http://www.w3.org/2000/svg" xmlns:xlink="http://www.w3.org/1999/xlink" x="0px" y="0px"
	 width="90px" height="90px" viewBox="0 0 90 90" enable-background="new 0 0 90 90" xml:space="preserve">
<path fill="#00325F" d="M90,80.955C90,85.698,86.738,90,82.348,90H8.525C4.134,90,0,85.698,0,80.955V8.587C0,3.844,4.134,0,8.525,0
	h73.823C86.738,0,90,3.844,90,8.587V80.955z"/>
<g>
	<ellipse fill="#FFFFFA" cx="57" cy="19.879" rx="9.334" ry="9.62"/>
	<polygon fill="#00325F" points="62,21.576 56.859,23.273 52,21.576 52,8 62,8 	"/>
	<path fill="#FFFFFA" d="M61,57.893C61,59.607,59.457,61,57.348,61h-0.363C54.876,61,53,59.607,53,57.893V29.108
		C53,27.392,54.876,26,56.984,26h0.363C59.457,26,61,27.392,61,29.108V57.893z"/>
	<circle fill="#FFFFFA" cx="57" cy="59" r="6"/>
</g>
<g>
	<ellipse fill="#FFFFFA" cx="32" cy="19.879" rx="9.333" ry="9.62"/>
	<path fill="#FFFFFA" d="M36,55.956C36,57.566,34.79,59,32.682,59h-0.363C30.209,59,28,57.566,28,55.956V28.919
		C28,27.307,30.209,26,32.318,26h0.363C34.79,26,36,27.307,36,28.919V55.956z"/>
	<polygon fill="#00325F" points="32,24.625 27.6,22 27.5,17 32,14.375 36.5,17 36.399,22 	"/>
	<circle fill="#FFFFFA" cx="32" cy="59" r="5.5"/>
</g>
<text transform="matrix(1 0 0 1 21.875 77.1338)" fill="#FFFFFA" font-family="'ArialMT'" font-size="8">Laptop Clinic</text>
</svg>
