<?xml version="1.0" encoding="utf-8"?>
<!-- Generator: Adobe Illustrator 16.0.0, SVG Export Plug-In . SVG Version: 6.00 Build 0)  -->
<!DOCTYPE svg PUBLIC "-//W3C//DTD SVG 1.1//EN" "http://www.w3.org/Graphics/SVG/1.1/DTD/svg11.dtd">
<svg version="1.1" id="图层_1" xmlns="http://www.w3.org/2000/svg" xmlns:xlink="http://www.w3.org/1999/xlink" x="0px" y="0px"
	 width="90px" height="90px" viewBox="0 0 90 90" enable-background="new 0 0 90 90" xml:space="preserve">
<path fill="#00325F" d="M90,80.955C90,85.698,86.738,90,82.348,90H8.525C4.134,90,0,85.698,0,80.955V8.587C0,3.844,4.134,0,8.525,0
	h73.823C86.738,0,90,3.844,90,8.587V80.955z"/>
<g id="icon">
	<path fill="#FFFFFA" d="M69,54.49c0,3.043-2.467,5.51-5.509,5.51H26.509C23.466,60,21,57.533,21,54.49V30.51
		c0-3.043,2.466-5.51,5.509-5.51h36.982C66.533,25,69,27.467,69,30.51V54.49z"/>
	<path fill="#FFFFFA" d="M62.43,25.296c0,8.574-7.805,15.523-17.43,15.523s-17.429-6.95-17.429-15.523
		c0-8.573,7.804-15.524,17.429-15.524S62.43,16.722,62.43,25.296z M45,13.081c-7.574,0-13.714,5.469-13.714,12.215
		S37.426,37.511,45,37.511c7.573,0,13.714-5.469,13.714-12.215S52.573,13.081,45,13.081z"/>
	<circle fill="#00325F" cx="45" cy="37.867" r="4.571"/>
	<polygon fill="#00325F" points="50.714,49 39.286,49 41.571,40 48.43,40 	"/>
</g>
<text transform="matrix(1 0 0 1 32.938 77.1338)" fill="#FFFFFA" font-family="'ArialMT'" font-size="8">Locker</text>
</svg>
