<?xml version="1.0" encoding="UTF-8" standalone="no" ?><!DOCTYPE svg PUBLIC "-//W3C//DTD SVG 1.1//EN" "http://www.w3.org/Graphics/SVG/1.1/DTD/svg11.dtd">
<svg xmlns="http://www.w3.org/2000/svg" xmlns:xlink="http://www.w3.org/1999/xlink" version="1.1" width="6003" height="4003" xml:space="preserve"><desc>Created with Fabric.js 1.6.0-rc.1</desc><defs></defs><rect x="-3000" y="-2000" rx="0" ry="0" width="6000" height="4000" style="stroke: #333; stroke-width: 1; stroke-dasharray: none; stroke-linecap: butt; stroke-linejoin: miter; stroke-miterlimit: 10; fill: transparent; fill-rule: nonzero; opacity: 1;" transform="translate(3000.5 2000.5)"/>
<g style="stroke: none; stroke-width: 1; stroke-dasharray: none; stroke-linecap: butt; stroke-linejoin: miter; stroke-miterlimit: 10; fill: none; fill-rule: nonzero; opacity: 1;" transform="translate(2620 1200)" >
<path d="M 31.264 46.286 c 0 -1.332 0.226 -2.446 1.553 -2.446 h 27.515 c 1.326 0 1.597 1.116 1.597 2.446 c 0 0 0 20.125 0 26.748 H 31.264 C 31.264 66.411 31.264 46.286 31.264 46.286 z" style="stroke: none; stroke-width: 1; stroke-dasharray: none; stroke-linecap: butt; stroke-linejoin: miter; stroke-miterlimit: 10; fill: #CBC8B8; fill-rule: nonzero; opacity: 1;" transform=" matrix(1 0 0 1 0.313 0.552) " stroke-linecap="round" />
<path d="M 65.938 89.226 c 0 0.798 -1.076 1.472 -2.404 1.472 H 29.877 c -1.326 0 -2.402 -0.674 -2.402 -1.472 c 0 0 6.275 -12.268 6.275 -16.19 h 26.512 C 60.264 76.958 65.938 89.226 65.938 89.226 z" style="stroke: none; stroke-width: 1; stroke-dasharray: none; stroke-linecap: butt; stroke-linejoin: miter; stroke-miterlimit: 10; fill: #BCBAAF; fill-rule: nonzero; opacity: 1;" transform=" matrix(1 0 0 1 0.313 0.552) " stroke-linecap="round" />
<path d="M 64.625 72.478 c 0 0.443 -0.359 0.804 -0.803 0.804 h -3.795 c -0.441 0 -0.801 -0.357 -0.801 -0.804 V 50.532 c 0 -0.443 0.356 -0.801 0.801 -0.801 h 3.797 c 0.439 0 0.801 0.356 0.801 0.801 V 72.478 L 64.625 72.478 z" style="stroke: none; stroke-width: 1; stroke-dasharray: none; stroke-linecap: butt; stroke-linejoin: miter; stroke-miterlimit: 10; fill: #5E5951; fill-rule: nonzero; opacity: 1;" transform=" matrix(1 0 0 1 0.313 0.552) " stroke-linecap="round" />
<path d="M 34.205 72.478 c 0 0.443 -0.356 0.804 -0.801 0.804 H 29.61 c -0.442 0 -0.801 -0.357 -0.801 -0.804 V 50.532 c 0 -0.443 0.357 -0.801 0.801 -0.801 h 3.794 c 0.443 0 0.801 0.356 0.801 0.801 V 72.478 L 34.205 72.478 z" style="stroke: none; stroke-width: 1; stroke-dasharray: none; stroke-linecap: butt; stroke-linejoin: miter; stroke-miterlimit: 10; fill: #5E5951; fill-rule: nonzero; opacity: 1;" transform=" matrix(1 0 0 1 0.313 0.552) " stroke-linecap="round" />
<rect x="0.938" y="0.305" rx="0" ry="0" width="89.805" height="56.004" style="stroke: #4D4D4D; stroke-width: 2; stroke-dasharray: none; stroke-linecap: butt; stroke-linejoin: miter; stroke-miterlimit: 10; fill: #E2E0D6; fill-rule: nonzero; opacity: 1;" transform=" matrix(1 0 0 1 0.313 0.552) "/>
<path d="M 40.787 47.515 c 0 0.24 0.011 0.334 -0.229 0.334 H 21.426 c -0.24 0 -0.791 -0.528 -0.791 -0.77 v -0.982 c 0 0 0.551 0 0.791 0 h 19.132 c 0.24 0 0.229 0.31 0.229 0.547 V 47.515 L 40.787 47.515 z" style="stroke: none; stroke-width: 1; stroke-dasharray: none; stroke-linecap: butt; stroke-linejoin: miter; stroke-miterlimit: 10; fill: rgb(0,0,0); fill-rule: nonzero; opacity: 1;" transform=" matrix(1 0 0 1 0.313 0.552) " stroke-linecap="round" />
<path d="M 40.203 46.677 c 0 0.465 0.377 0.59 0.139 0.59 H 21.402 c -0.24 0 -0.185 -0.127 -0.185 -0.59 v -0.422 c 0 -0.465 0.185 -1.328 0.424 -1.328 H 40.12 c 0.24 0 0.082 0.863 0.082 1.328 L 40.203 46.677 L 40.203 46.677 z" style="stroke: none; stroke-width: 1; stroke-dasharray: none; stroke-linecap: butt; stroke-linejoin: miter; stroke-miterlimit: 10; fill: #FFFFFF; fill-rule: nonzero; opacity: 1;" transform=" matrix(1 0 0 1 0.313 0.552) " stroke-linecap="round" />
<path d="M 41.664 45.964 c 0 0.396 -0.321 0.719 -0.719 0.719 H 21.353 c -0.397 0 -0.719 -0.321 -0.719 -0.719 v -25.73 c 0 -0.396 0.32 -0.72 0.719 -0.72 h 19.593 c 0.396 0 0.719 0.322 0.719 0.72 V 45.964 L 41.664 45.964 z" style="stroke: none; stroke-width: 1; stroke-dasharray: none; stroke-linecap: butt; stroke-linejoin: miter; stroke-miterlimit: 10; fill: rgb(0,0,0); fill-rule: nonzero; opacity: 1;" transform=" matrix(1 0 0 1 0.313 0.552) " stroke-linecap="round" />
<path d="M 61.815 47.138 c 0 0.211 0.009 0.297 -0.205 0.297 H 44.604 c -0.213 0 -0.703 -0.471 -0.703 -0.686 v -0.875 c 0 0 0.489 0 0.703 0 H 61.61 c 0.214 0 0.205 0.275 0.205 0.488 V 47.138 L 61.815 47.138 z" style="stroke: none; stroke-width: 1; stroke-dasharray: none; stroke-linecap: butt; stroke-linejoin: miter; stroke-miterlimit: 10; fill: #0E265D; fill-rule: nonzero; opacity: 1;" transform=" matrix(1 0 0 1 0.313 0.552) " stroke-linecap="round" />
<path d="M 61.297 46.39 c 0 0.412 0.336 0.523 0.121 0.523 H 44.584 c -0.215 0 -0.163 -0.111 -0.163 -0.523 v -0.373 c 0 -0.411 0.163 -1.182 0.377 -1.182 h 16.427 c 0.213 0 0.07 0.771 0.07 1.182 L 61.297 46.39 L 61.297 46.39 z" style="stroke: none; stroke-width: 1; stroke-dasharray: none; stroke-linecap: butt; stroke-linejoin: miter; stroke-miterlimit: 10; fill: #FFFFFF; fill-rule: nonzero; opacity: 1;" transform=" matrix(1 0 0 1 0.313 0.552) " stroke-linecap="round" />
<path d="M 62.58 45.837 c 0 0.354 -0.285 0.639 -0.64 0.639 H 44.524 c -0.353 0 -0.638 -0.284 -0.638 -0.639 V 22.966 c 0 -0.354 0.285 -0.64 0.638 -0.64 H 61.94 c 0.354 0 0.64 0.286 0.64 0.64 V 45.837 L 62.58 45.837 z" style="stroke: none; stroke-width: 1; stroke-dasharray: none; stroke-linecap: butt; stroke-linejoin: miter; stroke-miterlimit: 10; fill: #0E265D; fill-rule: nonzero; opacity: 1;" transform=" matrix(1 0 0 1 0.313 0.552) " stroke-linecap="round" />
<polygon points="65.44,30.64 64.6,33.37 66.17,33.37 " style="stroke: none; stroke-width: 1; stroke-dasharray: none; stroke-linecap: butt; stroke-linejoin: miter; stroke-miterlimit: 10; fill: #F4ECBD; fill-rule: nonzero; opacity: 1;" transform="  matrix(1 0 0 1 0.313 0.552) "/>
<polygon points="65.45,30.68 65.23,31.41 65.65,31.41 " style="stroke: none; stroke-width: 1; stroke-dasharray: none; stroke-linecap: butt; stroke-linejoin: miter; stroke-miterlimit: 10; fill: rgb(0,0,0); fill-rule: nonzero; opacity: 1;" transform="  matrix(1 0 0 1 0.313 0.552) "/>
<path d="M 65.705 46.134 h -1.121 V 33.382 c 0 0 0.15 -0.182 0.206 -0.184 c 0.062 -0.002 0.228 0.184 0.228 0.184 s 0.287 -0.184 0.344 -0.184 c 0.059 0 0.345 0.184 0.345 0.184 L 65.705 46.134 L 65.705 46.134 z" style="stroke: none; stroke-width: 1; stroke-dasharray: none; stroke-linecap: butt; stroke-linejoin: miter; stroke-miterlimit: 10; fill: #998D74; fill-rule: nonzero; opacity: 1;" transform=" matrix(1 0 0 1 0.313 0.552) " stroke-linecap="round" />
<path d="M 66.126 46.134 h -0.421 V 33.382 c 0 0 -0.009 -0.183 0.042 -0.184 c 0.056 -0.002 0.124 0.184 0.124 0.184 s 0.076 -0.184 0.129 -0.184 s 0.129 0.184 0.129 0.184 v 12.752 H 66.126 z" style="stroke: none; stroke-width: 1; stroke-dasharray: none; stroke-linecap: butt; stroke-linejoin: miter; stroke-miterlimit: 10; fill: #5E5951; fill-rule: nonzero; opacity: 1;" transform=" matrix(1 0 0 1 0.313 0.552) " stroke-linecap="round" />
<rect x="64.584" y="46.134" rx="0" ry="0" width="1.542" height="1.717" style="stroke: none; stroke-width: 1; stroke-dasharray: none; stroke-linecap: butt; stroke-linejoin: miter; stroke-miterlimit: 10; fill: #FC9B7A; fill-rule: nonzero; opacity: 1;" transform=" matrix(1 0 0 1 0.313 0.552) "/>
</g>
<g style="stroke: none; stroke-width: 1; stroke-dasharray: none; stroke-linecap: butt; stroke-linejoin: miter; stroke-miterlimit: 10; fill: none; fill-rule: nonzero; opacity: 1;" transform="translate(2600 1460)" >
<polygon points="111.17,1 111.17,87 1.17,87 1,1 " style="stroke: #4B4B4B; stroke-width: 2; stroke-dasharray: none; stroke-linecap: butt; stroke-linejoin: miter; stroke-miterlimit: 10; fill: #E2E0D6; fill-rule: nonzero; opacity: 1;" transform=" "/>
<path d="M 44.615 27.934 c 0.003 -0.516 0.432 -0.926 0.942 -0.917 l 23.383 0.328 c 0.516 0.005 0.926 0.427 0.918 0.943 l -0.053 3.747 c -0.006 0.514 -0.429 0.928 -0.942 0.919 l -23.382 -0.328 c -0.517 -0.006 -0.926 -0.43 -0.918 -0.943 L 44.615 27.934 z" style="stroke: none; stroke-width: 1; stroke-dasharray: none; stroke-linecap: butt; stroke-linejoin: miter; stroke-miterlimit: 10; fill: rgb(0,0,0); fill-rule: nonzero; opacity: 1;" transform="" stroke-linecap="round" />
<path d="M 12.167 22.266 c 0 -1.308 4.7 -2.854 7.093 -2.854 l 76.168 -0.183 c 2.394 0 7.738 1.73 7.738 3.037 v 4.739 c 0 1.308 -2.561 1.994 -4.953 1.994 H 15.881 c -2.394 0 -3.714 -0.686 -3.714 -1.994 V 22.266 z" style="stroke: none; stroke-width: 1; stroke-dasharray: none; stroke-linecap: butt; stroke-linejoin: miter; stroke-miterlimit: 10; fill: #666666; fill-rule: nonzero; opacity: 1;" transform="" stroke-linecap="round" />
<path d="M 95.563 60.692 c 0 1.823 -0.945 4.291 -2.226 4.291 H 20.993 c -1.281 0 -2.541 -2.468 -2.541 -4.291 V 44.183 c 0 -1.824 1.26 -2.736 2.541 -2.736 h 72.344 c 1.28 0 2.226 0.912 2.226 2.736 V 60.692 L 95.563 60.692 z" style="stroke: none; stroke-width: 1; stroke-dasharray: none; stroke-linecap: butt; stroke-linejoin: miter; stroke-miterlimit: 10; fill: #808080; fill-rule: nonzero; opacity: 1;" transform="" stroke-linecap="round" />
<path d="M 95.563 59.391 c 0 1.702 -0.739 4.041 -2.025 4.041 H 21.001 c -1.284 0 -2.547 -2.339 -2.547 -4.041 V 43.982 c 0 -1.7 1.263 -2.535 2.547 -2.535 h 72.537 c 1.288 0 2.025 0.835 2.025 2.535 V 59.391 z" style="stroke: none; stroke-width: 1; stroke-dasharray: none; stroke-linecap: butt; stroke-linejoin: miter; stroke-miterlimit: 10; fill: #999999; fill-rule: nonzero; opacity: 1;" transform="" stroke-linecap="round" />
<path d="M 90.231 45.948 c 0 0.538 -0.438 0.976 -0.974 0.976 h -7.898 c -0.538 0 -0.974 -0.438 -0.974 -0.976 v -2.079 c 0 -0.536 0.436 -0.974 0.974 -0.974 h 7.898 c 0.535 0 0.974 0.438 0.974 0.974 V 45.948 z" style="stroke: none; stroke-width: 1; stroke-dasharray: none; stroke-linecap: butt; stroke-linejoin: miter; stroke-miterlimit: 10; fill: #E6E6E6; fill-rule: nonzero; opacity: 1;" transform="" stroke-linecap="round" />
<path d="M 39.21 45.948 c 0 0.538 -0.438 0.976 -0.974 0.976 h -2.082 c -0.538 0 -0.974 -0.438 -0.974 -0.976 v -2.079 c 0 -0.536 0.436 -0.974 0.974 -0.974 h 2.082 c 0.536 0 0.974 0.438 0.974 0.974 V 45.948 z" style="stroke: none; stroke-width: 1; stroke-dasharray: none; stroke-linecap: butt; stroke-linejoin: miter; stroke-miterlimit: 10; fill: #E6E6E6; fill-rule: nonzero; opacity: 1;" transform="" stroke-linecap="round" />
<path d="M 44.134 45.948 c 0 0.538 -0.437 0.976 -0.975 0.976 H 41.08 c -0.54 0 -0.977 -0.438 -0.977 -0.976 v -2.079 c 0 -0.536 0.438 -0.974 0.977 -0.974 h 2.079 c 0.538 0 0.975 0.438 0.975 0.974 V 45.948 z" style="stroke: none; stroke-width: 1; stroke-dasharray: none; stroke-linecap: butt; stroke-linejoin: miter; stroke-miterlimit: 10; fill: #E6E6E6; fill-rule: nonzero; opacity: 1;" transform="" stroke-linecap="round" />
<path d="M 49.056 45.948 c 0 0.538 -0.437 0.976 -0.975 0.976 h -2.081 c -0.537 0 -0.975 -0.438 -0.975 -0.976 v -2.079 c 0 -0.536 0.438 -0.974 0.975 -0.974 h 2.081 c 0.538 0 0.975 0.438 0.975 0.974 V 45.948 z" style="stroke: none; stroke-width: 1; stroke-dasharray: none; stroke-linecap: butt; stroke-linejoin: miter; stroke-miterlimit: 10; fill: #E6E6E6; fill-rule: nonzero; opacity: 1;" transform="" stroke-linecap="round" />
<path d="M 54.425 45.948 c 0 0.538 -0.436 0.976 -0.975 0.976 h -2.08 c -0.538 0 -0.977 -0.438 -0.977 -0.976 v -2.079 c 0 -0.536 0.438 -0.974 0.977 -0.974 h 2.08 c 0.539 0 0.975 0.438 0.975 0.974 V 45.948 z" style="stroke: none; stroke-width: 1; stroke-dasharray: none; stroke-linecap: butt; stroke-linejoin: miter; stroke-miterlimit: 10; fill: #E6E6E6; fill-rule: nonzero; opacity: 1;" transform="" stroke-linecap="round" />
<path d="M 59.258 45.948 c 0 0.538 -0.436 0.976 -0.974 0.976 h -2.081 c -0.537 0 -0.974 -0.438 -0.974 -0.976 v -2.079 c 0 -0.536 0.438 -0.974 0.974 -0.974 h 2.081 c 0.538 0 0.974 0.438 0.974 0.974 V 45.948 z" style="stroke: none; stroke-width: 1; stroke-dasharray: none; stroke-linecap: butt; stroke-linejoin: miter; stroke-miterlimit: 10; fill: #E6E6E6; fill-rule: nonzero; opacity: 1;" transform="" stroke-linecap="round" />
<path d="M 64.364 45.948 c 0 0.538 -0.436 0.976 -0.974 0.976 h -2.079 c -0.538 0 -0.976 -0.438 -0.976 -0.976 v -2.079 c 0 -0.536 0.438 -0.974 0.976 -0.974 h 2.079 c 0.538 0 0.974 0.438 0.974 0.974 V 45.948 z" style="stroke: none; stroke-width: 1; stroke-dasharray: none; stroke-linecap: butt; stroke-linejoin: miter; stroke-miterlimit: 10; fill: #E6E6E6; fill-rule: nonzero; opacity: 1;" transform="" stroke-linecap="round" />
<path d="M 69.33 45.948 c 0 0.538 -0.44 0.976 -0.976 0.976 h -2.079 c -0.536 0 -0.974 -0.438 -0.974 -0.976 v -2.079 c 0 -0.536 0.438 -0.974 0.974 -0.974 h 2.079 c 0.535 0 0.976 0.438 0.976 0.974 V 45.948 z" style="stroke: none; stroke-width: 1; stroke-dasharray: none; stroke-linecap: butt; stroke-linejoin: miter; stroke-miterlimit: 10; fill: #E6E6E6; fill-rule: nonzero; opacity: 1;" transform="" stroke-linecap="round" />
<path d="M 74.567 45.948 c 0 0.538 -0.436 0.976 -0.974 0.976 h -2.081 c -0.536 0 -0.975 -0.438 -0.975 -0.976 v -2.079 c 0 -0.536 0.438 -0.974 0.975 -0.974 h 2.081 c 0.538 0 0.974 0.438 0.974 0.974 V 45.948 z" style="stroke: none; stroke-width: 1; stroke-dasharray: none; stroke-linecap: butt; stroke-linejoin: miter; stroke-miterlimit: 10; fill: #E6E6E6; fill-rule: nonzero; opacity: 1;" transform="" stroke-linecap="round" />
<path d="M 79.489 45.948 c 0 0.538 -0.435 0.976 -0.974 0.976 h -2.078 c -0.541 0 -0.977 -0.438 -0.977 -0.976 v -2.079 c 0 -0.536 0.436 -0.974 0.977 -0.974 h 2.078 c 0.539 0 0.974 0.438 0.974 0.974 V 45.948 z" style="stroke: none; stroke-width: 1; stroke-dasharray: none; stroke-linecap: butt; stroke-linejoin: miter; stroke-miterlimit: 10; fill: #E6E6E6; fill-rule: nonzero; opacity: 1;" transform="" stroke-linecap="round" />
<path d="M 34.286 45.948 c 0 0.538 -0.437 0.976 -0.975 0.976 h -7.895 c -0.54 0 -0.976 -0.438 -0.976 -0.976 v -2.079 c 0 -0.536 0.437 -0.974 0.976 -0.974 h 7.895 c 0.54 0 0.975 0.438 0.975 0.974 V 45.948 z" style="stroke: none; stroke-width: 1; stroke-dasharray: none; stroke-linecap: butt; stroke-linejoin: miter; stroke-miterlimit: 10; fill: #E6E6E6; fill-rule: nonzero; opacity: 1;" transform="" stroke-linecap="round" />
<path d="M 32.497 51.318 c 0 0.536 -0.438 0.974 -0.976 0.974 h -2.078 c -0.538 0 -0.975 -0.438 -0.975 -0.974 v -2.079 c 0 -0.538 0.437 -0.976 0.975 -0.976 h 2.078 c 0.538 0 0.976 0.438 0.976 0.976 V 51.318 z" style="stroke: none; stroke-width: 1; stroke-dasharray: none; stroke-linecap: butt; stroke-linejoin: miter; stroke-miterlimit: 10; fill: #E6E6E6; fill-rule: nonzero; opacity: 1;" transform="" stroke-linecap="round" />
<path d="M 37.419 51.318 c 0 0.536 -0.438 0.974 -0.974 0.974 h -2.081 c -0.539 0 -0.974 -0.438 -0.974 -0.974 v -2.079 c 0 -0.538 0.435 -0.976 0.974 -0.976 h 2.081 c 0.537 0 0.974 0.438 0.974 0.976 V 51.318 z" style="stroke: none; stroke-width: 1; stroke-dasharray: none; stroke-linecap: butt; stroke-linejoin: miter; stroke-miterlimit: 10; fill: #E6E6E6; fill-rule: nonzero; opacity: 1;" transform="" stroke-linecap="round" />
<path d="M 42.074 51.318 c 0 0.536 -0.438 0.974 -0.976 0.974 h -2.079 c -0.538 0 -0.974 -0.438 -0.974 -0.974 v -2.079 c 0 -0.538 0.436 -0.976 0.974 -0.976 h 2.079 c 0.538 0 0.976 0.438 0.976 0.976 V 51.318 z" style="stroke: none; stroke-width: 1; stroke-dasharray: none; stroke-linecap: butt; stroke-linejoin: miter; stroke-miterlimit: 10; fill: #E6E6E6; fill-rule: nonzero; opacity: 1;" transform="" stroke-linecap="round" />
<path d="M 47.399 51.318 c 0 0.536 -0.438 0.974 -0.972 0.974 h -2.081 c -0.536 0 -0.974 -0.438 -0.974 -0.974 v -2.079 c 0 -0.538 0.438 -0.976 0.974 -0.976 h 2.081 c 0.539 0 0.972 0.438 0.972 0.976 V 51.318 z" style="stroke: none; stroke-width: 1; stroke-dasharray: none; stroke-linecap: butt; stroke-linejoin: miter; stroke-miterlimit: 10; fill: #E6E6E6; fill-rule: nonzero; opacity: 1;" transform="" stroke-linecap="round" />
<path d="M 52.188 51.318 c 0 0.536 -0.438 0.974 -0.975 0.974 h -2.081 c -0.536 0 -0.974 -0.438 -0.974 -0.974 v -2.079 c 0 -0.538 0.438 -0.976 0.974 -0.976 h 2.081 c 0.538 0 0.975 0.438 0.975 0.976 V 51.318 z" style="stroke: none; stroke-width: 1; stroke-dasharray: none; stroke-linecap: butt; stroke-linejoin: miter; stroke-miterlimit: 10; fill: #E6E6E6; fill-rule: nonzero; opacity: 1;" transform="" stroke-linecap="round" />
<path d="M 57.651 51.318 c 0 0.536 -0.438 0.974 -0.974 0.974 h -2.082 c -0.538 0 -0.975 -0.438 -0.975 -0.974 v -2.079 c 0 -0.538 0.438 -0.976 0.975 -0.976 h 2.082 c 0.536 0 0.974 0.438 0.974 0.976 V 51.318 z" style="stroke: none; stroke-width: 1; stroke-dasharray: none; stroke-linecap: butt; stroke-linejoin: miter; stroke-miterlimit: 10; fill: #E6E6E6; fill-rule: nonzero; opacity: 1;" transform="" stroke-linecap="round" />
<path d="M 62.481 51.318 c 0 0.536 -0.436 0.974 -0.972 0.974 h -2.081 c -0.538 0 -0.977 -0.438 -0.977 -0.974 v -2.079 c 0 -0.538 0.438 -0.976 0.977 -0.976 h 2.081 c 0.536 0 0.972 0.438 0.972 0.976 V 51.318 z" style="stroke: none; stroke-width: 1; stroke-dasharray: none; stroke-linecap: butt; stroke-linejoin: miter; stroke-miterlimit: 10; fill: #E6E6E6; fill-rule: nonzero; opacity: 1;" transform="" stroke-linecap="round" />
<path d="M 67.403 51.318 c 0 0.536 -0.433 0.974 -0.974 0.974 h -2.081 c -0.533 0 -0.971 -0.438 -0.971 -0.974 v -2.079 c 0 -0.538 0.438 -0.976 0.971 -0.976 h 2.081 c 0.541 0 0.974 0.438 0.974 0.976 V 51.318 z" style="stroke: none; stroke-width: 1; stroke-dasharray: none; stroke-linecap: butt; stroke-linejoin: miter; stroke-miterlimit: 10; fill: #E6E6E6; fill-rule: nonzero; opacity: 1;" transform="" stroke-linecap="round" />
<path d="M 72.777 51.318 c 0 0.536 -0.438 0.974 -0.977 0.974 h -2.079 c -0.535 0 -0.974 -0.438 -0.974 -0.974 v -2.079 c 0 -0.538 0.438 -0.976 0.974 -0.976 H 71.8 c 0.538 0 0.977 0.438 0.977 0.976 V 51.318 z" style="stroke: none; stroke-width: 1; stroke-dasharray: none; stroke-linecap: butt; stroke-linejoin: miter; stroke-miterlimit: 10; fill: #E6E6E6; fill-rule: nonzero; opacity: 1;" transform="" stroke-linecap="round" />
<path d="M 77.699 51.318 c 0 0.536 -0.438 0.974 -0.974 0.974 h -2.076 c -0.541 0 -0.976 -0.438 -0.976 -0.974 v -2.079 c 0 -0.538 0.435 -0.976 0.976 -0.976 h 2.076 c 0.536 0 0.974 0.438 0.974 0.976 V 51.318 z" style="stroke: none; stroke-width: 1; stroke-dasharray: none; stroke-linecap: butt; stroke-linejoin: miter; stroke-miterlimit: 10; fill: #E6E6E6; fill-rule: nonzero; opacity: 1;" transform="" stroke-linecap="round" />
<path d="M 83.07 51.318 c 0 0.536 -0.436 0.974 -0.974 0.974 h -2.079 c -0.538 0 -0.974 -0.438 -0.974 -0.974 v -2.079 c 0 -0.538 0.436 -0.976 0.974 -0.976 h 2.079 c 0.538 0 0.974 0.438 0.974 0.976 V 51.318 z" style="stroke: none; stroke-width: 1; stroke-dasharray: none; stroke-linecap: butt; stroke-linejoin: miter; stroke-miterlimit: 10; fill: #E6E6E6; fill-rule: nonzero; opacity: 1;" transform="" stroke-linecap="round" />
<path d="M 87.992 51.318 c 0 0.536 -0.435 0.974 -0.971 0.974 H 84.94 c -0.541 0 -0.974 -0.438 -0.974 -0.974 v -2.079 c 0 -0.538 0.433 -0.976 0.974 -0.976 h 2.081 c 0.536 0 0.971 0.438 0.971 0.976 V 51.318 z" style="stroke: none; stroke-width: 1; stroke-dasharray: none; stroke-linecap: butt; stroke-linejoin: miter; stroke-miterlimit: 10; fill: #E6E6E6; fill-rule: nonzero; opacity: 1;" transform="" stroke-linecap="round" />
<path d="M 90.231 56.398 c 0 0.538 -0.438 0.974 -0.974 0.974 h -7.898 c -0.538 0 -0.974 -0.436 -0.974 -0.974 v -2.079 c 0 -0.538 0.436 -0.974 0.974 -0.974 h 7.898 c 0.535 0 0.974 0.438 0.974 0.974 V 56.398 z" style="stroke: none; stroke-width: 1; stroke-dasharray: none; stroke-linecap: butt; stroke-linejoin: miter; stroke-miterlimit: 10; fill: #E6E6E6; fill-rule: nonzero; opacity: 1;" transform="" stroke-linecap="round" />
<path d="M 39.299 56.398 c 0 0.538 -0.437 0.974 -0.975 0.974 h -2.079 c -0.539 0 -0.977 -0.436 -0.977 -0.974 v -2.079 c 0 -0.538 0.438 -0.974 0.977 -0.974 h 2.079 c 0.539 0 0.975 0.438 0.975 0.974 V 56.398 z" style="stroke: none; stroke-width: 1; stroke-dasharray: none; stroke-linecap: butt; stroke-linejoin: miter; stroke-miterlimit: 10; fill: #E6E6E6; fill-rule: nonzero; opacity: 1;" transform="" stroke-linecap="round" />
<path d="M 44.177 56.398 c 0 0.538 -0.438 0.974 -0.975 0.974 h -2.079 c -0.538 0 -0.976 -0.436 -0.976 -0.974 v -2.079 c 0 -0.538 0.438 -0.974 0.976 -0.974 h 2.079 c 0.537 0 0.975 0.438 0.975 0.974 V 56.398 z" style="stroke: none; stroke-width: 1; stroke-dasharray: none; stroke-linecap: butt; stroke-linejoin: miter; stroke-miterlimit: 10; fill: #E6E6E6; fill-rule: nonzero; opacity: 1;" transform="" stroke-linecap="round" />
<path d="M 49.101 56.398 c 0 0.538 -0.438 0.974 -0.975 0.974 h -2.08 c -0.539 0 -0.974 -0.436 -0.974 -0.974 v -2.079 c 0 -0.538 0.438 -0.974 0.974 -0.974 h 2.08 c 0.537 0 0.975 0.438 0.975 0.974 V 56.398 z" style="stroke: none; stroke-width: 1; stroke-dasharray: none; stroke-linecap: butt; stroke-linejoin: miter; stroke-miterlimit: 10; fill: #E6E6E6; fill-rule: nonzero; opacity: 1;" transform="" stroke-linecap="round" />
<path d="M 54.202 56.398 c 0 0.538 -0.436 0.974 -0.974 0.974 h -2.079 c -0.54 0 -0.977 -0.436 -0.977 -0.974 v -2.079 c 0 -0.538 0.438 -0.974 0.977 -0.974 h 2.079 c 0.538 0 0.974 0.438 0.974 0.974 V 56.398 z" style="stroke: none; stroke-width: 1; stroke-dasharray: none; stroke-linecap: butt; stroke-linejoin: miter; stroke-miterlimit: 10; fill: #E6E6E6; fill-rule: nonzero; opacity: 1;" transform="" stroke-linecap="round" />
<path d="M 59.17 56.398 c 0 0.538 -0.438 0.974 -0.976 0.974 h -2.077 c -0.541 0 -0.977 -0.436 -0.977 -0.974 v -2.079 c 0 -0.538 0.436 -0.974 0.977 -0.974 h 2.077 c 0.538 0 0.976 0.438 0.976 0.974 V 56.398 z" style="stroke: none; stroke-width: 1; stroke-dasharray: none; stroke-linecap: butt; stroke-linejoin: miter; stroke-miterlimit: 10; fill: #E6E6E6; fill-rule: nonzero; opacity: 1;" transform="" stroke-linecap="round" />
<path d="M 64.41 56.398 c 0 0.538 -0.44 0.974 -0.976 0.974 h -2.079 c -0.538 0 -0.977 -0.436 -0.977 -0.974 v -2.079 c 0 -0.538 0.438 -0.974 0.977 -0.974 h 2.079 c 0.535 0 0.976 0.438 0.976 0.974 V 56.398 z" style="stroke: none; stroke-width: 1; stroke-dasharray: none; stroke-linecap: butt; stroke-linejoin: miter; stroke-miterlimit: 10; fill: #E6E6E6; fill-rule: nonzero; opacity: 1;" transform="" stroke-linecap="round" />
<path d="M 69.376 56.398 c 0 0.538 -0.44 0.974 -0.977 0.974 h -2.081 c -0.536 0 -0.974 -0.436 -0.974 -0.974 v -2.079 c 0 -0.538 0.438 -0.974 0.974 -0.974 H 68.4 c 0.536 0 0.977 0.438 0.977 0.974 V 56.398 z" style="stroke: none; stroke-width: 1; stroke-dasharray: none; stroke-linecap: butt; stroke-linejoin: miter; stroke-miterlimit: 10; fill: #E6E6E6; fill-rule: nonzero; opacity: 1;" transform="" stroke-linecap="round" />
<path d="M 74.567 56.398 c 0 0.538 -0.436 0.974 -0.974 0.974 h -2.081 c -0.536 0 -0.975 -0.436 -0.975 -0.974 v -2.079 c 0 -0.538 0.438 -0.974 0.975 -0.974 h 2.081 c 0.538 0 0.974 0.438 0.974 0.974 V 56.398 z" style="stroke: none; stroke-width: 1; stroke-dasharray: none; stroke-linecap: butt; stroke-linejoin: miter; stroke-miterlimit: 10; fill: #E6E6E6; fill-rule: nonzero; opacity: 1;" transform="" stroke-linecap="round" />
<path d="M 79.489 56.398 c 0 0.538 -0.435 0.974 -0.974 0.974 h -2.078 c -0.541 0 -0.977 -0.436 -0.977 -0.974 v -2.079 c 0 -0.538 0.436 -0.974 0.977 -0.974 h 2.078 c 0.539 0 0.974 0.438 0.974 0.974 V 56.398 z" style="stroke: none; stroke-width: 1; stroke-dasharray: none; stroke-linecap: butt; stroke-linejoin: miter; stroke-miterlimit: 10; fill: #E6E6E6; fill-rule: nonzero; opacity: 1;" transform="" stroke-linecap="round" />
<path d="M 34.286 56.398 c 0 0.538 -0.437 0.974 -0.975 0.974 h -7.895 c -0.54 0 -0.976 -0.436 -0.976 -0.974 v -2.079 c 0 -0.538 0.437 -0.974 0.976 -0.974 h 7.895 c 0.54 0 0.975 0.438 0.975 0.974 V 56.398 z" style="stroke: none; stroke-width: 1; stroke-dasharray: none; stroke-linecap: butt; stroke-linejoin: miter; stroke-miterlimit: 10; fill: #E6E6E6; fill-rule: nonzero; opacity: 1;" transform="" stroke-linecap="round" />
<path d="M 32.721 61.609 c 0 0.541 -0.438 0.976 -0.976 0.976 h -2.079 c -0.538 0 -0.975 -0.435 -0.975 -0.976 v -2.076 c 0 -0.539 0.438 -0.974 0.975 -0.974 h 2.079 c 0.538 0 0.976 0.435 0.976 0.974 V 61.609 z" style="stroke: none; stroke-width: 1; stroke-dasharray: none; stroke-linecap: butt; stroke-linejoin: miter; stroke-miterlimit: 10; fill: #E6E6E6; fill-rule: nonzero; opacity: 1;" transform="" stroke-linecap="round" />
<path d="M 37.643 61.609 c 0 0.541 -0.438 0.976 -0.975 0.976 h -2.079 c -0.537 0 -0.974 -0.435 -0.974 -0.976 v -2.076 c 0 -0.539 0.437 -0.974 0.974 -0.974 h 2.079 c 0.537 0 0.975 0.435 0.975 0.974 V 61.609 z" style="stroke: none; stroke-width: 1; stroke-dasharray: none; stroke-linecap: butt; stroke-linejoin: miter; stroke-miterlimit: 10; fill: #E6E6E6; fill-rule: nonzero; opacity: 1;" transform="" stroke-linecap="round" />
<path d="M 42.52 61.609 c 0 0.541 -0.439 0.976 -0.977 0.976 h -2.08 c -0.537 0 -0.975 -0.435 -0.975 -0.976 v -2.076 c 0 -0.539 0.438 -0.974 0.975 -0.974 h 2.08 c 0.537 0 0.977 0.435 0.977 0.974 V 61.609 z" style="stroke: none; stroke-width: 1; stroke-dasharray: none; stroke-linecap: butt; stroke-linejoin: miter; stroke-miterlimit: 10; fill: #E6E6E6; fill-rule: nonzero; opacity: 1;" transform="" stroke-linecap="round" />
<path d="M 77.434 61.609 c 0 0.541 -0.436 0.976 -0.977 0.976 h -2.079 c -0.538 0 -0.974 -0.435 -0.974 -0.976 v -2.076 c 0 -0.539 0.436 -0.974 0.974 -0.974 h 2.079 c 0.541 0 0.977 0.435 0.977 0.974 V 61.609 z" style="stroke: none; stroke-width: 1; stroke-dasharray: none; stroke-linecap: butt; stroke-linejoin: miter; stroke-miterlimit: 10; fill: #E6E6E6; fill-rule: nonzero; opacity: 1;" transform="" stroke-linecap="round" />
<path d="M 82.801 61.609 c 0 0.541 -0.435 0.976 -0.976 0.976 H 79.75 c -0.538 0 -0.974 -0.435 -0.974 -0.976 v -2.076 c 0 -0.539 0.436 -0.974 0.974 -0.974 h 2.076 c 0.541 0 0.976 0.435 0.976 0.974 V 61.609 z" style="stroke: none; stroke-width: 1; stroke-dasharray: none; stroke-linecap: butt; stroke-linejoin: miter; stroke-miterlimit: 10; fill: #E6E6E6; fill-rule: nonzero; opacity: 1;" transform="" stroke-linecap="round" />
<path d="M 87.724 61.609 c 0 0.541 -0.436 0.976 -0.974 0.976 h -2.079 c -0.54 0 -0.974 -0.435 -0.974 -0.976 v -2.076 c 0 -0.539 0.434 -0.974 0.974 -0.974 h 2.079 c 0.538 0 0.974 0.435 0.974 0.974 V 61.609 z" style="stroke: none; stroke-width: 1; stroke-dasharray: none; stroke-linecap: butt; stroke-linejoin: miter; stroke-miterlimit: 10; fill: #E6E6E6; fill-rule: nonzero; opacity: 1;" transform="" stroke-linecap="round" />
<path d="M 72.331 61.353 c 0 0.616 -0.448 1.234 -0.986 1.234 H 44.542 c -0.539 0 -0.855 -0.618 -0.855 -1.234 v -1.669 c 0 -0.618 0.317 -1.125 0.855 -1.125 h 26.802 c 0.538 0 0.986 0.51 0.986 1.125 V 61.353 L 72.331 61.353 z" style="stroke: none; stroke-width: 1; stroke-dasharray: none; stroke-linecap: butt; stroke-linejoin: miter; stroke-miterlimit: 10; fill: #E6E6E6; fill-rule: nonzero; opacity: 1;" transform="" stroke-linecap="round" />
</g>
<g style="stroke: none; stroke-width: 1; stroke-dasharray: none; stroke-linecap: butt; stroke-linejoin: miter; stroke-miterlimit: 10; fill: none; fill-rule: nonzero; opacity: 1;" transform="translate(3044.08 1496.86) rotate(270.07) scale(0.89 0.89)" >
<circle cx="22.5" cy="22.5" r="22.5" style="stroke: none; stroke-width: 1; stroke-dasharray: none; stroke-linecap: butt; stroke-linejoin: miter; stroke-miterlimit: 10; fill: #F4DEA8; fill-rule: nonzero; opacity: 1;" transform=" "/>
</g>
<g style="stroke: none; stroke-width: 1; stroke-dasharray: none; stroke-linecap: butt; stroke-linejoin: miter; stroke-miterlimit: 10; fill: none; fill-rule: nonzero; opacity: 1;" transform="translate(3043.98 1585.86) rotate(270.07) scale(0.89 0.89)" >
<rect x="0" y="0" rx="0" ry="0" width="90" height="46" style="stroke: none; stroke-width: 1; stroke-dasharray: none; stroke-linecap: butt; stroke-linejoin: miter; stroke-miterlimit: 10; fill: #E5DCD1; fill-rule: nonzero; opacity: 1;" transform=""/>
</g>
<g style="stroke: none; stroke-width: 1; stroke-dasharray: none; stroke-linecap: butt; stroke-linejoin: miter; stroke-miterlimit: 10; fill: none; fill-rule: nonzero; opacity: 1;" transform="translate(2540 1620) scale(1.89 1.89)" >
<polygon points="115.12,44.64 25.36,45.2 18.74,1.5 119.26,1.5 " style="stroke: #4B4B4B; stroke-width: 1; stroke-dasharray: none; stroke-linecap: butt; stroke-linejoin: miter; stroke-miterlimit: 10; fill: #CBC8B8; fill-rule: nonzero; opacity: 1;" transform=" "/>
<path d="M 137.25 0.5 c 0 0 1.041 61.425 -68.25 61.425 C 4.793 61.925 0.75 0.5 0.75 0.5 h 18.614 c 0 0 12.249 42.812 49.636 42.812 c 36.466 0 49.636 -42.812 49.636 -42.812 H 137.25 z" style="stroke: #4B4B4B; stroke-width: 1; stroke-dasharray: none; stroke-linecap: butt; stroke-linejoin: miter; stroke-miterlimit: 10; fill: #B3B3B3; fill-rule: nonzero; opacity: 1; visibility: hidden;" transform="" stroke-linecap="round" />
<path d="M 137.25 0.5 c 0 0 1.041 61.425 -68.25 61.425 C 4.793 61.925 0.75 0.5 0.75 0.5 h 18.614 c 0 0 4.757 42.812 49.636 42.812 c 46.741 0 49.636 -42.812 49.636 -42.812 H 137.25 z" style="stroke: #4B4B4B; stroke-width: 1; stroke-dasharray: none; stroke-linecap: butt; stroke-linejoin: miter; stroke-miterlimit: 10; fill: #4D4D4D; fill-rule: nonzero; opacity: 1;" transform="" stroke-linecap="round" />
<path d="M 57.284 28.058 c -0.106 0.199 -0.357 0.271 -0.554 0.163 l -9.007 -4.908 c -0.199 -0.107 -0.272 -0.354 -0.164 -0.553 l 0.787 -1.443 c 0.108 -0.199 0.356 -0.272 0.554 -0.164 l 9.007 4.908 c 0.199 0.108 0.271 0.356 0.163 0.554 L 57.284 28.058 z" style="stroke: none; stroke-width: 1; stroke-dasharray: none; stroke-linecap: butt; stroke-linejoin: miter; stroke-miterlimit: 10; fill: rgb(0,0,0); fill-rule: nonzero; opacity: 1;" transform="" stroke-linecap="round" />
<path d="M 68.718 36.891 c -0.267 0.507 -2.407 0.146 -3.336 -0.343 L 35.876 21.096 c -0.929 -0.49 -2.558 -2.206 -2.291 -2.713 l 0.968 -1.839 c 0.268 -0.508 1.403 -0.694 2.331 -0.205 l 31.951 16.832 c 0.929 0.489 1.118 1.374 0.851 1.88 L 68.718 36.891 z" style="stroke: none; stroke-width: 1; stroke-dasharray: none; stroke-linecap: butt; stroke-linejoin: miter; stroke-miterlimit: 10; fill: #666666; fill-rule: nonzero; opacity: 1;" transform="" stroke-linecap="round" />
<path d="M 44.208 4.929 c 0.373 -0.707 1.245 -1.472 1.741 -1.21 l 28.076 14.79 c 0.498 0.262 0.482 1.477 0.109 2.185 L 70.76 27.1 c -0.373 0.708 -1.049 0.805 -1.547 0.543 l -28.075 -14.79 c -0.497 -0.262 -0.677 -0.809 -0.304 -1.517 L 44.208 4.929 L 44.208 4.929 z" style="stroke: none; stroke-width: 1; stroke-dasharray: none; stroke-linecap: butt; stroke-linejoin: miter; stroke-miterlimit: 10; fill: #808080; fill-rule: nonzero; opacity: 1;" transform="" stroke-linecap="round" />
<path d="M 43.943 5.433 c 0.349 -0.66 1.113 -1.417 1.612 -1.153 l 28.15 14.829 c 0.498 0.262 0.511 1.428 0.163 2.088 l -3.151 5.979 c -0.347 0.66 -1.008 0.727 -1.506 0.464 l -28.15 -14.829 c -0.5 -0.264 -0.615 -0.738 -0.268 -1.398 L 43.943 5.433 z" style="stroke: none; stroke-width: 1; stroke-dasharray: none; stroke-linecap: butt; stroke-linejoin: miter; stroke-miterlimit: 10; fill: #999999; fill-rule: nonzero; opacity: 1;" transform="" stroke-linecap="round" />
<path d="M 43.264 11.741 c 0.11 -0.208 0.37 -0.288 0.578 -0.179 l 3.064 1.615 c 0.21 0.11 0.289 0.368 0.179 0.578 L 46.66 14.56 c -0.11 0.208 -0.368 0.29 -0.577 0.179 l -3.065 -1.614 c -0.207 -0.11 -0.288 -0.369 -0.179 -0.578 L 43.264 11.741 z" style="stroke: none; stroke-width: 1; stroke-dasharray: none; stroke-linecap: butt; stroke-linejoin: miter; stroke-miterlimit: 10; fill: #E6E6E6; fill-rule: nonzero; opacity: 1;" transform="" stroke-linecap="round" />
<path d="M 63.065 22.171 c 0.108 -0.208 0.368 -0.289 0.576 -0.18 l 0.808 0.426 c 0.209 0.111 0.289 0.369 0.179 0.578 l -0.425 0.806 c -0.11 0.21 -0.368 0.289 -0.578 0.18 l -0.808 -0.425 c -0.207 -0.109 -0.288 -0.369 -0.177 -0.577 L 63.065 22.171 z" style="stroke: none; stroke-width: 1; stroke-dasharray: none; stroke-linecap: butt; stroke-linejoin: miter; stroke-miterlimit: 10; fill: #E6E6E6; fill-rule: nonzero; opacity: 1;" transform="" stroke-linecap="round" />
<path d="M 61.153 21.165 c 0.109 -0.209 0.37 -0.289 0.578 -0.179 l 0.807 0.425 c 0.209 0.11 0.289 0.369 0.18 0.578 l -0.425 0.806 c -0.11 0.208 -0.369 0.289 -0.578 0.179 l -0.807 -0.424 c -0.209 -0.11 -0.29 -0.37 -0.18 -0.578 L 61.153 21.165 z" style="stroke: none; stroke-width: 1; stroke-dasharray: none; stroke-linecap: butt; stroke-linejoin: miter; stroke-miterlimit: 10; fill: #E6E6E6; fill-rule: nonzero; opacity: 1;" transform="" stroke-linecap="round" />
<path d="M 59.243 20.158 c 0.11 -0.208 0.369 -0.289 0.577 -0.179 l 0.808 0.425 c 0.209 0.11 0.289 0.37 0.18 0.579 l -0.426 0.806 c -0.109 0.208 -0.369 0.289 -0.577 0.179 l -0.808 -0.425 c -0.209 -0.109 -0.288 -0.368 -0.179 -0.577 L 59.243 20.158 z" style="stroke: none; stroke-width: 1; stroke-dasharray: none; stroke-linecap: butt; stroke-linejoin: miter; stroke-miterlimit: 10; fill: #E6E6E6; fill-rule: nonzero; opacity: 1;" transform="" stroke-linecap="round" />
<path d="M 57.16 19.061 c 0.109 -0.208 0.367 -0.29 0.577 -0.18 l 0.807 0.425 c 0.209 0.11 0.29 0.37 0.181 0.578 l -0.426 0.807 c -0.11 0.209 -0.369 0.289 -0.578 0.178 l -0.808 -0.425 c -0.209 -0.11 -0.288 -0.368 -0.178 -0.577 L 57.16 19.061 z" style="stroke: none; stroke-width: 1; stroke-dasharray: none; stroke-linecap: butt; stroke-linejoin: miter; stroke-miterlimit: 10; fill: #E6E6E6; fill-rule: nonzero; opacity: 1;" transform="" stroke-linecap="round" />
<path d="M 55.284 18.073 c 0.11 -0.209 0.369 -0.29 0.578 -0.18 l 0.808 0.426 c 0.208 0.109 0.288 0.369 0.178 0.577 l -0.425 0.807 c -0.11 0.208 -0.369 0.289 -0.576 0.179 l -0.808 -0.426 c -0.21 -0.111 -0.289 -0.368 -0.179 -0.577 L 55.284 18.073 z" style="stroke: none; stroke-width: 1; stroke-dasharray: none; stroke-linecap: butt; stroke-linejoin: miter; stroke-miterlimit: 10; fill: #E6E6E6; fill-rule: nonzero; opacity: 1;" transform="" stroke-linecap="round" />
<path d="M 53.303 17.029 c 0.109 -0.209 0.368 -0.29 0.577 -0.179 l 0.807 0.425 c 0.209 0.109 0.289 0.369 0.179 0.577 l -0.425 0.807 c -0.109 0.209 -0.368 0.289 -0.577 0.179 l -0.807 -0.425 c -0.209 -0.111 -0.289 -0.369 -0.179 -0.577 L 53.303 17.029 z" style="stroke: none; stroke-width: 1; stroke-dasharray: none; stroke-linecap: butt; stroke-linejoin: miter; stroke-miterlimit: 10; fill: #E6E6E6; fill-rule: nonzero; opacity: 1;" transform="" stroke-linecap="round" />
<path d="M 51.375 16.014 c 0.11 -0.208 0.37 -0.288 0.579 -0.179 l 0.807 0.425 c 0.208 0.109 0.289 0.37 0.179 0.578 l -0.425 0.807 c -0.11 0.208 -0.369 0.289 -0.577 0.179 l -0.807 -0.426 c -0.208 -0.109 -0.29 -0.368 -0.18 -0.576 L 51.375 16.014 z" style="stroke: none; stroke-width: 1; stroke-dasharray: none; stroke-linecap: butt; stroke-linejoin: miter; stroke-miterlimit: 10; fill: #E6E6E6; fill-rule: nonzero; opacity: 1;" transform="" stroke-linecap="round" />
<path d="M 49.343 14.942 c 0.11 -0.208 0.369 -0.289 0.578 -0.179 l 0.807 0.426 c 0.208 0.11 0.289 0.369 0.179 0.578 l -0.425 0.807 c -0.11 0.209 -0.37 0.288 -0.577 0.179 l -0.808 -0.425 c -0.209 -0.11 -0.288 -0.369 -0.179 -0.578 L 49.343 14.942 z" style="stroke: none; stroke-width: 1; stroke-dasharray: none; stroke-linecap: butt; stroke-linejoin: miter; stroke-miterlimit: 10; fill: #E6E6E6; fill-rule: nonzero; opacity: 1;" transform="" stroke-linecap="round" />
<path d="M 47.433 13.938 c 0.11 -0.209 0.368 -0.291 0.578 -0.18 l 0.806 0.425 c 0.21 0.11 0.29 0.369 0.18 0.578 l -0.426 0.807 c -0.109 0.208 -0.368 0.289 -0.577 0.178 l -0.807 -0.424 c -0.21 -0.111 -0.289 -0.369 -0.179 -0.578 L 47.433 13.938 z" style="stroke: none; stroke-width: 1; stroke-dasharray: none; stroke-linecap: butt; stroke-linejoin: miter; stroke-miterlimit: 10; fill: #E6E6E6; fill-rule: nonzero; opacity: 1;" transform="" stroke-linecap="round" />
<path d="M 64.975 23.177 c 0.11 -0.208 0.369 -0.29 0.578 -0.179 l 3.063 1.614 c 0.21 0.11 0.29 0.37 0.18 0.579 l -0.425 0.807 c -0.109 0.208 -0.368 0.289 -0.578 0.178 l -3.063 -1.614 c -0.209 -0.11 -0.289 -0.368 -0.18 -0.578 L 64.975 23.177 z" style="stroke: none; stroke-width: 1; stroke-dasharray: none; stroke-linecap: butt; stroke-linejoin: miter; stroke-miterlimit: 10; fill: #E6E6E6; fill-rule: nonzero; opacity: 1;" transform="" stroke-linecap="round" />
<path d="M 66.768 21.459 c 0.108 -0.208 0.368 -0.288 0.577 -0.178 l 0.807 0.425 c 0.208 0.109 0.289 0.369 0.18 0.577 l -0.425 0.807 c -0.111 0.208 -0.369 0.289 -0.579 0.179 l -0.806 -0.425 c -0.209 -0.11 -0.289 -0.369 -0.179 -0.578 L 66.768 21.459 z" style="stroke: none; stroke-width: 1; stroke-dasharray: none; stroke-linecap: butt; stroke-linejoin: miter; stroke-miterlimit: 10; fill: #E6E6E6; fill-rule: nonzero; opacity: 1;" transform="" stroke-linecap="round" />
<path d="M 64.857 20.453 c 0.109 -0.208 0.368 -0.288 0.576 -0.179 l 0.808 0.425 c 0.21 0.11 0.288 0.369 0.179 0.577 l -0.425 0.807 c -0.11 0.209 -0.368 0.289 -0.577 0.179 l -0.808 -0.425 c -0.209 -0.11 -0.289 -0.369 -0.179 -0.578 L 64.857 20.453 z" style="stroke: none; stroke-width: 1; stroke-dasharray: none; stroke-linecap: butt; stroke-linejoin: miter; stroke-miterlimit: 10; fill: #E6E6E6; fill-rule: nonzero; opacity: 1;" transform="" stroke-linecap="round" />
<path d="M 63.051 19.501 c 0.108 -0.208 0.369 -0.289 0.578 -0.178 l 0.806 0.425 c 0.209 0.11 0.289 0.369 0.18 0.576 l -0.425 0.807 c -0.11 0.209 -0.369 0.289 -0.577 0.179 l -0.808 -0.424 c -0.209 -0.11 -0.289 -0.37 -0.179 -0.578 L 63.051 19.501 z" style="stroke: none; stroke-width: 1; stroke-dasharray: none; stroke-linecap: butt; stroke-linejoin: miter; stroke-miterlimit: 10; fill: #E6E6E6; fill-rule: nonzero; opacity: 1;" transform="" stroke-linecap="round" />
<path d="M 60.983 18.414 c 0.109 -0.208 0.37 -0.288 0.577 -0.179 l 0.807 0.425 c 0.208 0.11 0.289 0.37 0.18 0.578 l -0.425 0.806 c -0.11 0.208 -0.37 0.289 -0.577 0.18 l -0.808 -0.426 c -0.209 -0.11 -0.288 -0.368 -0.179 -0.577 L 60.983 18.414 z" style="stroke: none; stroke-width: 1; stroke-dasharray: none; stroke-linecap: butt; stroke-linejoin: miter; stroke-miterlimit: 10; fill: #E6E6E6; fill-rule: nonzero; opacity: 1;" transform="" stroke-linecap="round" />
<path d="M 59.126 17.434 c 0.109 -0.208 0.368 -0.289 0.577 -0.178 l 0.808 0.425 c 0.208 0.109 0.288 0.369 0.178 0.577 l -0.425 0.806 c -0.11 0.208 -0.368 0.29 -0.576 0.179 l -0.809 -0.425 c -0.208 -0.109 -0.288 -0.369 -0.178 -0.577 L 59.126 17.434 z" style="stroke: none; stroke-width: 1; stroke-dasharray: none; stroke-linecap: butt; stroke-linejoin: miter; stroke-miterlimit: 10; fill: #E6E6E6; fill-rule: nonzero; opacity: 1;" transform="" stroke-linecap="round" />
<path d="M 57.006 16.318 c 0.109 -0.208 0.368 -0.289 0.576 -0.179 l 0.808 0.425 c 0.209 0.11 0.288 0.37 0.18 0.578 l -0.425 0.806 c -0.109 0.209 -0.37 0.29 -0.577 0.18 l -0.808 -0.426 c -0.209 -0.109 -0.289 -0.369 -0.179 -0.577 L 57.006 16.318 z" style="stroke: none; stroke-width: 1; stroke-dasharray: none; stroke-linecap: butt; stroke-linejoin: miter; stroke-miterlimit: 10; fill: #E6E6E6; fill-rule: nonzero; opacity: 1;" transform="" stroke-linecap="round" />
<path d="M 55.13 15.33 c 0.11 -0.208 0.369 -0.289 0.577 -0.179 l 0.808 0.425 c 0.209 0.11 0.29 0.37 0.18 0.578 L 56.27 16.96 c -0.109 0.209 -0.369 0.29 -0.579 0.18 l -0.807 -0.426 c -0.208 -0.109 -0.288 -0.368 -0.179 -0.577 L 55.13 15.33 z" style="stroke: none; stroke-width: 1; stroke-dasharray: none; stroke-linecap: butt; stroke-linejoin: miter; stroke-miterlimit: 10; fill: #E6E6E6; fill-rule: nonzero; opacity: 1;" transform="" stroke-linecap="round" />
<path d="M 53.221 14.324 c 0.109 -0.208 0.367 -0.29 0.578 -0.179 l 0.808 0.426 c 0.207 0.109 0.287 0.369 0.177 0.576 l -0.425 0.807 c -0.109 0.208 -0.368 0.289 -0.576 0.181 l -0.808 -0.426 c -0.209 -0.111 -0.289 -0.369 -0.178 -0.578 L 53.221 14.324 z" style="stroke: none; stroke-width: 1; stroke-dasharray: none; stroke-linecap: butt; stroke-linejoin: miter; stroke-miterlimit: 10; fill: #E6E6E6; fill-rule: nonzero; opacity: 1;" transform="" stroke-linecap="round" />
<path d="M 51.135 13.226 c 0.11 -0.208 0.37 -0.289 0.578 -0.179 l 0.807 0.426 c 0.208 0.109 0.288 0.369 0.179 0.577 l -0.425 0.807 c -0.11 0.209 -0.37 0.288 -0.578 0.179 l -0.806 -0.425 c -0.21 -0.11 -0.29 -0.37 -0.18 -0.579 L 51.135 13.226 z" style="stroke: none; stroke-width: 1; stroke-dasharray: none; stroke-linecap: butt; stroke-linejoin: miter; stroke-miterlimit: 10; fill: #E6E6E6; fill-rule: nonzero; opacity: 1;" transform="" stroke-linecap="round" />
<path d="M 49.226 12.219 c 0.109 -0.208 0.368 -0.289 0.577 -0.179 l 0.806 0.425 c 0.21 0.11 0.289 0.369 0.18 0.577 l -0.425 0.807 c -0.11 0.208 -0.368 0.29 -0.578 0.179 l -0.806 -0.424 c -0.208 -0.11 -0.289 -0.369 -0.179 -0.578 L 49.226 12.219 z" style="stroke: none; stroke-width: 1; stroke-dasharray: none; stroke-linecap: butt; stroke-linejoin: miter; stroke-miterlimit: 10; fill: #E6E6E6; fill-rule: nonzero; opacity: 1;" transform="" stroke-linecap="round" />
<path d="M 47.141 11.121 c 0.109 -0.208 0.369 -0.289 0.577 -0.179 l 0.807 0.425 c 0.209 0.109 0.288 0.369 0.179 0.577 l -0.425 0.807 c -0.11 0.208 -0.368 0.289 -0.577 0.179 l -0.808 -0.425 c -0.208 -0.11 -0.289 -0.37 -0.178 -0.577 L 47.141 11.121 z" style="stroke: none; stroke-width: 1; stroke-dasharray: none; stroke-linecap: butt; stroke-linejoin: miter; stroke-miterlimit: 10; fill: #E6E6E6; fill-rule: nonzero; opacity: 1;" transform="" stroke-linecap="round" />
<path d="M 45.23 10.115 c 0.11 -0.208 0.368 -0.289 0.576 -0.18 l 0.808 0.426 c 0.21 0.111 0.289 0.369 0.179 0.577 l -0.425 0.807 c -0.11 0.208 -0.368 0.29 -0.577 0.179 l -0.808 -0.425 c -0.208 -0.109 -0.288 -0.369 -0.178 -0.577 L 45.23 10.115 z" style="stroke: none; stroke-width: 1; stroke-dasharray: none; stroke-linecap: butt; stroke-linejoin: miter; stroke-miterlimit: 10; fill: #E6E6E6; fill-rule: nonzero; opacity: 1;" transform="" stroke-linecap="round" />
<path d="M 45.399 7.685 c 0.11 -0.208 0.371 -0.288 0.578 -0.178 l 3.065 1.614 c 0.209 0.11 0.288 0.369 0.179 0.577 l -0.425 0.807 c -0.11 0.209 -0.368 0.29 -0.577 0.179 l -3.065 -1.615 C 44.947 8.96 44.866 8.7 44.975 8.492 L 45.399 7.685 z" style="stroke: none; stroke-width: 1; stroke-dasharray: none; stroke-linecap: butt; stroke-linejoin: miter; stroke-miterlimit: 10; fill: #E6E6E6; fill-rule: nonzero; opacity: 1;" transform="" stroke-linecap="round" />
<path d="M 65.166 18.098 c 0.109 -0.208 0.369 -0.289 0.578 -0.178 l 0.806 0.425 c 0.209 0.109 0.29 0.369 0.181 0.577 l -0.425 0.807 c -0.11 0.208 -0.369 0.289 -0.579 0.178 l -0.807 -0.425 c -0.209 -0.11 -0.289 -0.369 -0.179 -0.578 L 65.166 18.098 z" style="stroke: none; stroke-width: 1; stroke-dasharray: none; stroke-linecap: butt; stroke-linejoin: miter; stroke-miterlimit: 10; fill: #E6E6E6; fill-rule: nonzero; opacity: 1;" transform="" stroke-linecap="round" />
<path d="M 63.273 17.1 c 0.109 -0.208 0.368 -0.289 0.577 -0.179 l 0.806 0.425 c 0.21 0.11 0.291 0.369 0.181 0.578 l -0.425 0.806 c -0.11 0.209 -0.369 0.289 -0.578 0.178 l -0.808 -0.425 c -0.207 -0.109 -0.288 -0.369 -0.179 -0.577 L 63.273 17.1 z" style="stroke: none; stroke-width: 1; stroke-dasharray: none; stroke-linecap: butt; stroke-linejoin: miter; stroke-miterlimit: 10; fill: #E6E6E6; fill-rule: nonzero; opacity: 1;" transform="" stroke-linecap="round" />
<path d="M 61.362 16.093 c 0.109 -0.208 0.368 -0.288 0.577 -0.178 l 0.808 0.425 c 0.208 0.11 0.289 0.369 0.179 0.577 L 62.5 17.724 c -0.11 0.209 -0.368 0.289 -0.576 0.179 l -0.808 -0.425 c -0.208 -0.109 -0.289 -0.37 -0.179 -0.577 L 61.362 16.093 z" style="stroke: none; stroke-width: 1; stroke-dasharray: none; stroke-linecap: butt; stroke-linejoin: miter; stroke-miterlimit: 10; fill: #E6E6E6; fill-rule: nonzero; opacity: 1;" transform="" stroke-linecap="round" />
<path d="M 59.383 15.051 c 0.109 -0.208 0.368 -0.289 0.577 -0.179 l 0.807 0.425 c 0.21 0.11 0.29 0.37 0.18 0.578 l -0.424 0.807 c -0.11 0.209 -0.371 0.288 -0.578 0.178 l -0.808 -0.424 c -0.209 -0.11 -0.288 -0.369 -0.179 -0.577 L 59.383 15.051 z" style="stroke: none; stroke-width: 1; stroke-dasharray: none; stroke-linecap: butt; stroke-linejoin: miter; stroke-miterlimit: 10; fill: #E6E6E6; fill-rule: nonzero; opacity: 1;" transform="" stroke-linecap="round" />
<path d="M 57.455 14.035 c 0.109 -0.208 0.367 -0.288 0.577 -0.179 l 0.807 0.425 c 0.209 0.11 0.289 0.369 0.18 0.577 l -0.425 0.807 c -0.111 0.209 -0.369 0.289 -0.579 0.178 l -0.807 -0.424 c -0.208 -0.11 -0.289 -0.37 -0.179 -0.578 L 57.455 14.035 z" style="stroke: none; stroke-width: 1; stroke-dasharray: none; stroke-linecap: butt; stroke-linejoin: miter; stroke-miterlimit: 10; fill: #E6E6E6; fill-rule: nonzero; opacity: 1;" transform="" stroke-linecap="round" />
<path d="M 55.421 12.964 c 0.109 -0.208 0.37 -0.288 0.578 -0.179 l 0.807 0.425 c 0.209 0.11 0.289 0.369 0.181 0.578 l -0.425 0.807 c -0.111 0.208 -0.37 0.289 -0.579 0.178 l -0.807 -0.425 c -0.207 -0.11 -0.289 -0.369 -0.179 -0.578 L 55.421 12.964 z" style="stroke: none; stroke-width: 1; stroke-dasharray: none; stroke-linecap: butt; stroke-linejoin: miter; stroke-miterlimit: 10; fill: #E6E6E6; fill-rule: nonzero; opacity: 1;" transform="" stroke-linecap="round" />
<path d="M 53.494 11.949 c 0.109 -0.209 0.37 -0.289 0.579 -0.178 l 0.808 0.425 c 0.208 0.109 0.288 0.369 0.178 0.577 l -0.426 0.807 c -0.109 0.208 -0.368 0.289 -0.576 0.179 l -0.808 -0.426 c -0.208 -0.109 -0.29 -0.37 -0.18 -0.577 L 53.494 11.949 z" style="stroke: none; stroke-width: 1; stroke-dasharray: none; stroke-linecap: butt; stroke-linejoin: miter; stroke-miterlimit: 10; fill: #E6E6E6; fill-rule: nonzero; opacity: 1;" transform="" stroke-linecap="round" />
<path d="M 51.479 10.887 c 0.109 -0.208 0.368 -0.289 0.577 -0.178 l 0.807 0.425 c 0.208 0.11 0.29 0.369 0.18 0.578 l -0.425 0.806 c -0.11 0.209 -0.371 0.288 -0.578 0.178 l -0.807 -0.425 c -0.209 -0.11 -0.289 -0.369 -0.179 -0.577 L 51.479 10.887 z" style="stroke: none; stroke-width: 1; stroke-dasharray: none; stroke-linecap: butt; stroke-linejoin: miter; stroke-miterlimit: 10; fill: #E6E6E6; fill-rule: nonzero; opacity: 1;" transform="" stroke-linecap="round" />
<path d="M 49.569 9.882 c 0.11 -0.209 0.369 -0.29 0.578 -0.179 l 0.806 0.424 c 0.21 0.111 0.29 0.369 0.18 0.578 l -0.425 0.807 c -0.11 0.209 -0.368 0.289 -0.578 0.178 l -0.806 -0.425 c -0.21 -0.111 -0.289 -0.369 -0.18 -0.577 L 49.569 9.882 z" style="stroke: none; stroke-width: 1; stroke-dasharray: none; stroke-linecap: butt; stroke-linejoin: miter; stroke-miterlimit: 10; fill: #E6E6E6; fill-rule: nonzero; opacity: 1;" transform="" stroke-linecap="round" />
<path d="M 67.111 19.123 c 0.109 -0.209 0.368 -0.289 0.578 -0.179 l 3.063 1.614 c 0.21 0.11 0.291 0.368 0.181 0.578 l -0.425 0.806 c -0.11 0.209 -0.368 0.29 -0.578 0.179 l -3.063 -1.613 c -0.21 -0.11 -0.289 -0.37 -0.18 -0.578 L 67.111 19.123 z" style="stroke: none; stroke-width: 1; stroke-dasharray: none; stroke-linecap: butt; stroke-linejoin: miter; stroke-miterlimit: 10; fill: #E6E6E6; fill-rule: nonzero; opacity: 1;" transform="" stroke-linecap="round" />
<path d="M 68.783 17.42 c 0.111 -0.21 0.371 -0.288 0.579 -0.179 l 0.807 0.425 c 0.21 0.11 0.289 0.369 0.179 0.578 l -0.424 0.806 c -0.11 0.209 -0.369 0.288 -0.578 0.179 l -0.807 -0.425 c -0.209 -0.11 -0.29 -0.368 -0.179 -0.577 L 68.783 17.42 z" style="stroke: none; stroke-width: 1; stroke-dasharray: none; stroke-linecap: butt; stroke-linejoin: miter; stroke-miterlimit: 10; fill: #E6E6E6; fill-rule: nonzero; opacity: 1;" transform="" stroke-linecap="round" />
<path d="M 66.874 16.414 c 0.11 -0.21 0.369 -0.29 0.578 -0.179 l 0.807 0.425 c 0.209 0.11 0.288 0.367 0.179 0.578 l -0.425 0.806 c -0.11 0.208 -0.368 0.289 -0.577 0.179 l -0.807 -0.425 c -0.209 -0.109 -0.289 -0.368 -0.18 -0.577 L 66.874 16.414 z" style="stroke: none; stroke-width: 1; stroke-dasharray: none; stroke-linecap: butt; stroke-linejoin: miter; stroke-miterlimit: 10; fill: #E6E6E6; fill-rule: nonzero; opacity: 1;" transform="" stroke-linecap="round" />
<path d="M 64.98 15.417 c 0.111 -0.209 0.371 -0.289 0.579 -0.179 l 0.807 0.425 c 0.209 0.11 0.291 0.368 0.18 0.579 l -0.424 0.805 c -0.11 0.209 -0.369 0.289 -0.578 0.179 L 64.736 16.8 c -0.207 -0.109 -0.29 -0.368 -0.18 -0.578 L 64.98 15.417 z" style="stroke: none; stroke-width: 1; stroke-dasharray: none; stroke-linecap: butt; stroke-linejoin: miter; stroke-miterlimit: 10; fill: #E6E6E6; fill-rule: nonzero; opacity: 1;" transform="" stroke-linecap="round" />
<path d="M 51.432 8.279 C 51.542 8.07 51.8 7.99 52.01 8.1 l 0.807 0.425 c 0.209 0.111 0.29 0.368 0.179 0.579 l -0.424 0.805 c -0.11 0.209 -0.368 0.289 -0.576 0.179 l -0.807 -0.425 c -0.21 -0.11 -0.291 -0.368 -0.18 -0.578 L 51.432 8.279 z" style="stroke: none; stroke-width: 1; stroke-dasharray: none; stroke-linecap: butt; stroke-linejoin: miter; stroke-miterlimit: 10; fill: #E6E6E6; fill-rule: nonzero; opacity: 1;" transform="" stroke-linecap="round" />
<path d="M 49.348 7.182 c 0.111 -0.21 0.369 -0.29 0.578 -0.179 l 0.806 0.424 c 0.209 0.11 0.29 0.368 0.179 0.578 l -0.424 0.806 C 50.376 9.02 50.119 9.1 49.91 8.989 l -0.806 -0.424 c -0.21 -0.111 -0.29 -0.369 -0.179 -0.578 L 49.348 7.182 z" style="stroke: none; stroke-width: 1; stroke-dasharray: none; stroke-linecap: butt; stroke-linejoin: miter; stroke-miterlimit: 10; fill: #E6E6E6; fill-rule: nonzero; opacity: 1;" transform="" stroke-linecap="round" />
<path d="M 47.438 6.176 c 0.11 -0.211 0.368 -0.29 0.577 -0.18 l 0.807 0.425 c 0.21 0.111 0.29 0.369 0.179 0.578 l -0.424 0.806 c -0.11 0.209 -0.368 0.29 -0.577 0.179 l -0.807 -0.425 c -0.209 -0.11 -0.289 -0.368 -0.179 -0.577 L 47.438 6.176 z" style="stroke: none; stroke-width: 1; stroke-dasharray: none; stroke-linecap: butt; stroke-linejoin: miter; stroke-miterlimit: 10; fill: #E6E6E6; fill-rule: nonzero; opacity: 1;" transform="" stroke-linecap="round" />
<path d="M 53.36 9.421 c 0.126 -0.239 0.426 -0.387 0.635 -0.277 l 10.401 5.479 c 0.21 0.11 0.206 0.415 0.08 0.654 l -0.341 0.647 c -0.127 0.24 -0.354 0.373 -0.563 0.263 l -10.401 -5.479 c -0.208 -0.11 -0.279 -0.399 -0.153 -0.639 L 53.36 9.421 L 53.36 9.421 z" style="stroke: none; stroke-width: 1; stroke-dasharray: none; stroke-linecap: butt; stroke-linejoin: miter; stroke-miterlimit: 10; fill: #E6E6E6; fill-rule: nonzero; opacity: 1;" transform="" stroke-linecap="round" />
<path d="M 80.604 12.667 c -0.398 -0.62 -0.148 -0.918 0.487 -1.327 l 8.048 -5.18 c 0.636 -0.41 1.5 -0.829 1.898 -0.208 l 7.584 11.783 c 0.398 0.621 -0.116 1.581 -0.752 1.991 l -8.049 5.179 c -0.635 0.409 -1.233 0.166 -1.634 -0.455 L 80.604 12.667 z" style="stroke: none; stroke-width: 1; stroke-dasharray: none; stroke-linecap: butt; stroke-linejoin: miter; stroke-miterlimit: 10; fill: #CFAD49; fill-rule: nonzero; opacity: 1;" transform="" stroke-linecap="round" />
<polygon points="81.86,12.32 81.86,12.32 90.21,6.95 90.21,6.95 96.92,17.38 96.92,17.38 88.57,22.76 88.57,22.76 " style="stroke: none; stroke-width: 1; stroke-dasharray: none; stroke-linecap: butt; stroke-linejoin: miter; stroke-miterlimit: 10; fill: #FFFFFF; fill-rule: nonzero; opacity: 1;" transform=" "/>
<path d="M 88.645 24.185 c -0.45 -0.149 -0.569 -1.108 -0.171 -1.364 l 8.78 -5.651 c 0.398 -0.256 1.014 0.348 1.013 0.823 c -0.002 0.41 -2.466 2.515 -2.466 2.515 c -0.063 0.607 -0.145 2.086 -0.486 2.415 c -0.221 0.214 -0.635 0.517 -0.956 0.626 c -0.45 0.151 -1.896 -0.388 -2.406 -0.568 C 91.952 22.98 88.971 24.295 88.645 24.185 z" style="stroke: none; stroke-width: 1; stroke-dasharray: none; stroke-linecap: butt; stroke-linejoin: miter; stroke-miterlimit: 10; fill: #333333; fill-rule: nonzero; opacity: 1;" transform="" stroke-linecap="round" />
<line x1="93.826" y1="17.162" x2="89.653" y2="19.849" style="stroke: #4B4B4B; stroke-width: 1; stroke-dasharray: none; stroke-linecap: round; stroke-linejoin: miter; stroke-miterlimit: 10; fill: none; fill-rule: nonzero; opacity: 1;" transform=""/>
<line x1="91.813" y1="14.031" x2="87.639" y2="16.718" style="stroke: #4B4B4B; stroke-width: 1; stroke-dasharray: none; stroke-linecap: round; stroke-linejoin: miter; stroke-miterlimit: 10; fill: none; fill-rule: nonzero; opacity: 1;" transform=""/>
<line x1="89.797" y1="10.901" x2="85.625" y2="13.586" style="stroke: #4B4B4B; stroke-width: 1; stroke-dasharray: none; stroke-linecap: round; stroke-linejoin: miter; stroke-miterlimit: 10; fill: none; fill-rule: nonzero; opacity: 1;" transform=""/>
<polygon points="84.01,22.48 83.75,21.15 83.05,21.55 " style="stroke: none; stroke-width: 1; stroke-dasharray: none; stroke-linecap: butt; stroke-linejoin: miter; stroke-miterlimit: 10; fill: #F4ECBD; fill-rule: nonzero; opacity: 1;" transform=" "/>
<polygon points="83.99,22.47 83.92,22.11 83.73,22.22 " style="stroke: none; stroke-width: 1; stroke-dasharray: none; stroke-linecap: butt; stroke-linejoin: miter; stroke-miterlimit: 10; fill: rgb(0,0,0); fill-rule: nonzero; opacity: 1;" transform=" "/>
<path d="M 80.316 16.205 l 0.505 -0.285 l 2.939 5.224 c 0 0 -0.025 0.113 -0.049 0.127 c -0.028 0.016 -0.146 -0.019 -0.146 -0.019 s -0.088 0.148 -0.113 0.164 c -0.026 0.015 -0.197 0.012 -0.197 0.012 L 80.316 16.205 L 80.316 16.205 z" style="stroke: none; stroke-width: 1; stroke-dasharray: none; stroke-linecap: butt; stroke-linejoin: miter; stroke-miterlimit: 10; fill: #998D74; fill-rule: nonzero; opacity: 1;" transform="" stroke-linecap="round" />
<path d="M 80.127 16.313 l 0.189 -0.108 l 2.939 5.224 c 0 0 0.045 0.073 0.023 0.086 c -0.024 0.014 -0.099 -0.044 -0.099 -0.044 s 0.007 0.094 -0.016 0.108 c -0.023 0.013 -0.1 -0.043 -0.1 -0.043 L 80.127 16.313 L 80.127 16.313 z" style="stroke: none; stroke-width: 1; stroke-dasharray: none; stroke-linecap: butt; stroke-linejoin: miter; stroke-miterlimit: 10; fill: #5E5951; fill-rule: nonzero; opacity: 1;" transform="" stroke-linecap="round" />
<rect x="79.877" y="15.359" rx="0" ry="0" width="0.798" height="0.809" style="stroke: none; stroke-width: 1; stroke-dasharray: none; stroke-linecap: butt; stroke-linejoin: miter; stroke-miterlimit: 10; fill: #FC9B7A; fill-rule: nonzero; opacity: 1;" transform=" matrix(0.8705 -0.4922 0.4922 0.8705 2.6375 41.5513) "/>
<polygon points="47.81,58.84 47.81,58.84 39.77,54.72 39.77,54.72 46.88,40.84 46.88,40.84 54.93,44.96 54.93,44.96 " style="stroke: none; stroke-width: 1; stroke-dasharray: none; stroke-linecap: butt; stroke-linejoin: miter; stroke-miterlimit: 10; fill: #FFFFFF; fill-rule: nonzero; opacity: 1;" transform=" "/>
<polygon points="54.1,46.56 54.1,46.56 46.06,42.45 46.06,42.45 46.88,40.84 46.88,40.84 54.92,44.96 54.92,44.96 " style="stroke: none; stroke-width: 1; stroke-dasharray: none; stroke-linecap: butt; stroke-linejoin: miter; stroke-miterlimit: 10; fill: #FB5856; fill-rule: nonzero; opacity: 1;" transform=" "/>
<polygon points="46.64,59.25 46.64,59.25 38.6,55.13 38.6,55.13 45.71,41.24 45.71,41.24 53.75,45.36 53.75,45.36 " style="stroke: none; stroke-width: 1; stroke-dasharray: none; stroke-linecap: butt; stroke-linejoin: miter; stroke-miterlimit: 10; fill: #FFFFFF; fill-rule: nonzero; opacity: 1;" transform=" "/>
<polygon points="52.93,46.97 52.93,46.97 44.89,42.85 44.89,42.85 45.71,41.24 45.71,41.24 53.75,45.37 53.75,45.37 " style="stroke: none; stroke-width: 1; stroke-dasharray: none; stroke-linecap: butt; stroke-linejoin: miter; stroke-miterlimit: 10; fill: #FB5856; fill-rule: nonzero; opacity: 1;" transform=" "/>
<line x1="43.565" y1="48.816" x2="48.764" y2="51.481" style="stroke: #4B4B4B; stroke-width: 1; stroke-dasharray: none; stroke-linecap: round; stroke-linejoin: miter; stroke-miterlimit: 10; fill: none; fill-rule: nonzero; opacity: 1;" transform=""/>
<line x1="42.053" y1="51.764" x2="47.254" y2="54.426" style="stroke: #4B4B4B; stroke-width: 1; stroke-dasharray: none; stroke-linecap: round; stroke-linejoin: miter; stroke-miterlimit: 10; fill: none; fill-rule: nonzero; opacity: 1;" transform=""/>
<polygon points="73.33,59.46 73.33,59.46 63.41,59.59 63.41,59.59 63.25,47.18 63.25,47.18 73.18,47.05 73.18,47.05 " style="stroke: none; stroke-width: 1; stroke-dasharray: none; stroke-linecap: butt; stroke-linejoin: miter; stroke-miterlimit: 10; fill: #0E95D2; fill-rule: nonzero; opacity: 1;" transform=" "/>
<rect x="63.75" y="48" rx="0" ry="0" width="4" height="4" style="stroke: none; stroke-width: 1; stroke-dasharray: none; stroke-linecap: butt; stroke-linejoin: miter; stroke-miterlimit: 10; fill: #FBFAF9; fill-rule: nonzero; opacity: 1;" transform=""/>
<polygon points="74.58,58.22 74.58,58.22 64.65,58.34 64.65,58.34 64.49,45.94 64.49,45.94 74.42,45.81 74.42,45.81 " style="stroke: none; stroke-width: 1; stroke-dasharray: none; stroke-linecap: butt; stroke-linejoin: miter; stroke-miterlimit: 10; fill: #0E95D2; fill-rule: nonzero; opacity: 1;" transform=" "/>
<rect x="65.75" y="47" rx="0" ry="0" width="3" height="4" style="stroke: none; stroke-width: 1; stroke-dasharray: none; stroke-linecap: butt; stroke-linejoin: miter; stroke-miterlimit: 10; fill: #FBFAF9; fill-rule: nonzero; opacity: 1;" transform=""/>
<rect x="65.75" y="53" rx="0" ry="0" width="7" height="1" style="stroke: none; stroke-width: 1; stroke-dasharray: none; stroke-linecap: butt; stroke-linejoin: miter; stroke-miterlimit: 10; fill: #FBFAF9; fill-rule: nonzero; opacity: 1;" transform=""/>
<rect x="65.75" y="56" rx="0" ry="0" width="7" height="1" style="stroke: none; stroke-width: 1; stroke-dasharray: none; stroke-linecap: butt; stroke-linejoin: miter; stroke-miterlimit: 10; fill: #FBFAF9; fill-rule: nonzero; opacity: 1;" transform=""/>
<polygon points="101.79,49.9 101.79,49.9 93.27,54.98 93.27,54.98 86.91,44.33 86.91,44.33 95.44,39.24 95.44,39.24 " style="stroke: none; stroke-width: 1; stroke-dasharray: none; stroke-linecap: butt; stroke-linejoin: miter; stroke-miterlimit: 10; fill: #3CACA7; fill-rule: nonzero; opacity: 1;" transform=" "/>
<rect x="90.095" y="44.552" rx="0" ry="0" width="7.446" height="3.723" style="stroke: none; stroke-width: 1; stroke-dasharray: none; stroke-linecap: butt; stroke-linejoin: miter; stroke-miterlimit: 10; fill: #E5DCD1; fill-rule: nonzero; opacity: 1;" transform=" matrix(0.8562 -0.5166 0.5166 0.8562 -10.4889 55.1368) "/>
<polygon points="103.03,51.15 103.03,51.15 94.51,56.23 94.51,56.23 88.15,45.57 88.15,45.57 96.68,40.48 96.68,40.48 " style="stroke: none; stroke-width: 1; stroke-dasharray: none; stroke-linecap: butt; stroke-linejoin: miter; stroke-miterlimit: 10; fill: #3CACA7; fill-rule: nonzero; opacity: 1;" transform=" "/>
<rect x="91.337" y="45.794" rx="0" ry="0" width="7.445" height="3.722" style="stroke: none; stroke-width: 1; stroke-dasharray: none; stroke-linecap: butt; stroke-linejoin: miter; stroke-miterlimit: 10; fill: #E5DCD1; fill-rule: nonzero; opacity: 1;" transform=" matrix(0.8563 -0.5165 0.5165 0.8563 -10.9521 55.9514) "/>
</g>
<g style="stroke: none; stroke-width: 1; stroke-dasharray: none; stroke-linecap: butt; stroke-linejoin: miter; stroke-miterlimit: 10; fill: none; fill-rule: nonzero; opacity: 1;" transform="translate(3044.08 1496.86) rotate(270.07) scale(0.89 0.89)" >
<circle cx="22.5" cy="22.5" r="22.5" style="stroke: none; stroke-width: 1; stroke-dasharray: none; stroke-linecap: butt; stroke-linejoin: miter; stroke-miterlimit: 10; fill: #F4DEA8; fill-rule: nonzero; opacity: 1;" transform=" "/>
</g>
<g style="stroke: none; stroke-width: 1; stroke-dasharray: none; stroke-linecap: butt; stroke-linejoin: miter; stroke-miterlimit: 10; fill: none; fill-rule: nonzero; opacity: 1;" transform="translate(3000 1554) rotate(299.75) scale(0.58 0.38)" >
<rect x="0" y="0" rx="0" ry="0" width="90" height="46" style="stroke: none; stroke-width: 1; stroke-dasharray: none; stroke-linecap: butt; stroke-linejoin: miter; stroke-miterlimit: 10; fill: #E5DCD1; fill-rule: nonzero; opacity: 1;" transform=""/>
</g>
<g style="stroke: none; stroke-width: 1; stroke-dasharray: none; stroke-linecap: butt; stroke-linejoin: miter; stroke-miterlimit: 10; fill: none; fill-rule: nonzero; opacity: 1;" transform="translate(3112.59 1567.08) rotate(243.47) scale(0.58 0.38)" >
<rect x="0" y="0" rx="0" ry="0" width="90" height="46" style="stroke: none; stroke-width: 1; stroke-dasharray: none; stroke-linecap: butt; stroke-linejoin: miter; stroke-miterlimit: 10; fill: #E5DCD1; fill-rule: nonzero; opacity: 1;" transform=""/>
</g>
<g style="stroke: none; stroke-width: 1; stroke-dasharray: none; stroke-linecap: butt; stroke-linejoin: miter; stroke-miterlimit: 10; fill: none; fill-rule: nonzero; opacity: 1;" transform="translate(3046 1680) rotate(270.07) scale(0.89 0.32)" >
<rect x="0" y="0" rx="0" ry="0" width="90" height="46" style="stroke: none; stroke-width: 1; stroke-dasharray: none; stroke-linecap: butt; stroke-linejoin: miter; stroke-miterlimit: 10; fill: #E5DCD1; fill-rule: nonzero; opacity: 1;" transform=""/>
</g>
<g style="stroke: none; stroke-width: 1; stroke-dasharray: none; stroke-linecap: butt; stroke-linejoin: miter; stroke-miterlimit: 10; fill: none; fill-rule: nonzero; opacity: 1;" transform="translate(3043.98 1585.86) rotate(270.07) scale(0.89 0.89)" >
<rect x="0" y="0" rx="0" ry="0" width="90" height="46" style="stroke: none; stroke-width: 1; stroke-dasharray: none; stroke-linecap: butt; stroke-linejoin: miter; stroke-miterlimit: 10; fill: #E5DCD1; fill-rule: nonzero; opacity: 1;" transform=""/>
</g>
<g style="stroke: none; stroke-width: 1; stroke-dasharray: none; stroke-linecap: butt; stroke-linejoin: miter; stroke-miterlimit: 10; fill: none; fill-rule: nonzero; opacity: 1;" transform="translate(3000 1554) rotate(299.75) scale(0.58 0.38)" >
<rect x="0" y="0" rx="0" ry="0" width="90" height="46" style="stroke: none; stroke-width: 1; stroke-dasharray: none; stroke-linecap: butt; stroke-linejoin: miter; stroke-miterlimit: 10; fill: #E5DCD1; fill-rule: nonzero; opacity: 1;" transform=""/>
</g>
<g style="stroke: none; stroke-width: 1; stroke-dasharray: none; stroke-linecap: butt; stroke-linejoin: miter; stroke-miterlimit: 10; fill: none; fill-rule: nonzero; opacity: 1;" transform="translate(3112.59 1567.08) rotate(243.47) scale(0.58 0.38)" >
<rect x="0" y="0" rx="0" ry="0" width="90" height="46" style="stroke: none; stroke-width: 1; stroke-dasharray: none; stroke-linecap: butt; stroke-linejoin: miter; stroke-miterlimit: 10; fill: #E5DCD1; fill-rule: nonzero; opacity: 1;" transform=""/>
</g>
<g style="stroke: none; stroke-width: 1; stroke-dasharray: none; stroke-linecap: butt; stroke-linejoin: miter; stroke-miterlimit: 10; fill: none; fill-rule: nonzero; opacity: 1;" transform="translate(3070 1680) rotate(270.07) scale(0.89 0.32)" >
<rect x="0" y="0" rx="0" ry="0" width="90" height="46" style="stroke: none; stroke-width: 1; stroke-dasharray: none; stroke-linecap: butt; stroke-linejoin: miter; stroke-miterlimit: 10; fill: #E5DCD1; fill-rule: nonzero; opacity: 1;" transform=""/>
</g>
</svg>