<?xml version="1.0" encoding="utf-8"?>
<!-- Generator: Adobe Illustrator 16.0.0, SVG Export Plug-In . SVG Version: 6.00 Build 0)  -->
<!DOCTYPE svg PUBLIC "-//W3C//DTD SVG 1.1//EN" "http://www.w3.org/Graphics/SVG/1.1/DTD/svg11.dtd">
<svg version="1.1" id="图层_1" xmlns="http://www.w3.org/2000/svg" xmlns:xlink="http://www.w3.org/1999/xlink" x="0px" y="0px"
	 width="90px" height="90px" viewBox="0 0 90 90" enable-background="new 0 0 90 90" xml:space="preserve">
<path fill="#00325F" d="M90,80.955C90,85.698,86.738,90,82.348,90H8.525C4.134,90,0,85.698,0,80.955V8.587C0,3.844,4.134,0,8.525,0
	h73.823C86.738,0,90,3.844,90,8.587V80.955z"/>
<g id="icon">
	<g id="legs">
		
			<line fill="none" stroke="#FFFFFA" stroke-width="2" stroke-linecap="round" stroke-miterlimit="10" x1="37.833" y1="46.271" x2="28.258" y2="65"/>
		
			<line fill="none" stroke="#FFFFFA" stroke-width="2" stroke-linecap="round" stroke-miterlimit="10" x1="44.095" y1="45.951" x2="44.095" y2="65"/>
		
			<line fill="none" stroke="#FFFFFA" stroke-width="2" stroke-linecap="round" stroke-miterlimit="10" x1="51.461" y1="46.005" x2="60.667" y2="65"/>
	</g>
	<path fill="#FFFFFA" d="M74.059,44.843c0,2.257-1.47,4.46-4.201,4.46H21.634c-2.731,0-5.691-2.203-5.691-4.46V16.72
		C15.942,14.461,18.902,13,21.634,13h48.224c2.731,0,4.201,1.461,4.201,3.72V44.843z"/>
	
		<line fill="none" stroke="#00325F" stroke-width="2" stroke-linecap="round" stroke-miterlimit="10" x1="22.991" y1="20.408" x2="38.624" y2="20.408"/>
	
		<line fill="none" stroke="#00325F" stroke-width="2" stroke-linecap="round" stroke-miterlimit="10" x1="22.991" y1="27.078" x2="38.624" y2="27.078"/>
	
		<line fill="none" stroke="#00325F" stroke-width="2" stroke-linecap="round" stroke-miterlimit="10" x1="22.991" y1="34.487" x2="38.624" y2="34.487"/>
	
		<line fill="none" stroke="#00325F" stroke-width="2" stroke-linecap="round" stroke-miterlimit="10" x1="22.991" y1="41.895" x2="38.624" y2="41.895"/>
	<path fill="none" stroke="#00325F" stroke-width="2" stroke-linecap="round" stroke-miterlimit="10" d="M67.009,41.895
		c0,0.41-0.37,0.742-0.823,0.742H46.438c-0.453,0-0.821-0.33-0.821-0.742V20.408c0-0.409,0.368-0.741,0.821-0.741h19.746
		c0.455,0,0.824,0.333,0.824,0.741L67.009,41.895L67.009,41.895z"/>
</g>
<text transform="matrix(1 0 0 1 20.541 77.3379)" fill="#FFFFFA" font-family="'ArialMT'" font-size="8">Meeting Suite</text>
</svg>
