<?xml version="1.0" encoding="utf-8"?>
<!-- Generator: Adobe Illustrator 16.0.0, SVG Export Plug-In . SVG Version: 6.00 Build 0)  -->
<!DOCTYPE svg PUBLIC "-//W3C//DTD SVG 1.1//EN" "http://www.w3.org/Graphics/SVG/1.1/DTD/svg11.dtd">
<svg version="1.1" id="图层_1" xmlns="http://www.w3.org/2000/svg" xmlns:xlink="http://www.w3.org/1999/xlink" x="0px" y="0px"
	 width="90px" height="90px" viewBox="0 0 90 90" enable-background="new 0 0 90 90" xml:space="preserve">
<path fill="#00325F" d="M90,80.955C90,85.698,86.738,90,82.348,90H8.525C4.134,90,0,85.698,0,80.955V8.587C0,3.844,4.134,0,8.525,0
	h73.823C86.738,0,90,3.844,90,8.587V80.955z"/>
<rect x="7" y="15" fill="#FFFFFA" width="76" height="50"/>
<g>
	<rect x="14" y="13" fill="#00325F" width="2" height="55"/>
	<rect x="24" y="13" fill="#00325F" width="2" height="55"/>
	<rect x="34" y="13" fill="#00325F" width="2" height="55"/>
	<rect x="44" y="13" fill="#00325F" width="2" height="55"/>
	<rect x="54" y="13" fill="#00325F" width="2" height="55"/>
	<rect x="64" y="13" fill="#00325F" width="2" height="55"/>
	<rect x="74" y="13" fill="#00325F" width="2" height="55"/>
</g>
<g>
	<rect x="12" y="16" fill="#044D84" width="6" height="42"/>
	<rect x="12" y="14" fill="#00325F" width="6" height="42"/>
</g>
<g>
	<rect x="22" y="16" fill="#044D84" width="6" height="42"/>
	<rect x="22" y="14" fill="#00325F" width="6" height="42"/>
</g>
<g>
	<rect x="42" y="16" fill="#044D84" width="6" height="42"/>
	<rect x="42" y="14" fill="#00325F" width="6" height="42"/>
</g>
<g>
	<rect x="52" y="16" fill="#044D84" width="6" height="42"/>
	<rect x="52" y="14" fill="#00325F" width="6" height="42"/>
</g>
<g>
	<rect x="62" y="16" fill="#044D84" width="6" height="42"/>
	<rect x="62" y="14" fill="#00325F" width="6" height="42"/>
</g>
<text transform="matrix(1 0 0 1 2.9824 77.3379)" fill="#FFFFFA" font-family="'ArialMT'" font-size="8">Music Listening Service</text>
</svg>
