<?xml version="1.0" encoding="utf-8"?>
<!-- Generator: Adobe Illustrator 21.0.2, SVG Export Plug-In . SVG Version: 6.00 Build 0)  -->
<svg version="1.1" id="图层_1" xmlns="http://www.w3.org/2000/svg" xmlns:xlink="http://www.w3.org/1999/xlink" x="0px" y="0px"
	 viewBox="0 0 90 90" style="enable-background:new 0 0 90 90;" xml:space="preserve">
<style type="text/css">
	.st0{fill:#00325F;}
	.st1{display:none;}
	.st2{display:inline;fill:#FFFFFA;}
	.st3{display:inline;fill:none;stroke:#00325F;stroke-width:3;stroke-linecap:round;stroke-miterlimit:10;}
	.st4{enable-background:new    ;}
	.st5{fill:#FFFFFA;}
	.st6{fill:#FFFFFF;}
	.st7{fill:#E4E6F4;}
	.st8{fill:#EAE8E8;}
	.st9{fill:#966A59;}
</style>
<path class="st0" d="M90,81c0,4.7-3.3,9-7.7,9H8.5C4.1,90,0,85.7,0,81V8.6C0,3.8,4.1,0,8.5,0h73.8C86.7,0,90,3.8,90,8.6V81z"/>
<g class="st1">
	<circle class="st2" cx="45" cy="35" r="30"/>
	<path class="st3" d="M34.8,25.1c0-15,22.8-16.2,22.8,0c0,4.8-1.2,11.9-9.4,16.7c-3.6,2.1-3.5,2.8-3.6,7.7"/>
	<line class="st3" x1="44.7" y1="54.8" x2="44.7" y2="59"/>
</g>
<g class="st4">
	<path class="st5" d="M32.3,77.3h-0.5l-3.3-4.9v4.9H28v-5.7h0.5l3.3,4.9v-4.9h0.5V77.3z"/>
	<path class="st5" d="M35.2,77.4c-0.4,0-0.7-0.1-1-0.3s-0.5-0.4-0.7-0.7s-0.2-0.7-0.2-1.1v-0.2c0-0.4,0.1-0.8,0.2-1.1
		s0.4-0.6,0.7-0.8s0.6-0.3,0.9-0.3c0.5,0,0.9,0.2,1.2,0.5s0.5,0.8,0.5,1.4v0.3h-3v0.1c0,0.5,0.1,0.9,0.4,1.2s0.6,0.5,1,0.5
		c0.2,0,0.5,0,0.7-0.1s0.4-0.2,0.5-0.4l0.3,0.2C36.4,77.2,35.9,77.4,35.2,77.4z M35.2,73.4c-0.4,0-0.6,0.1-0.9,0.4s-0.4,0.6-0.4,1
		h2.5v-0.1c0-0.4-0.1-0.7-0.3-1S35.5,73.4,35.2,73.4z"/>
	<path class="st5" d="M38.8,76.4l0.1,0.4l0.1-0.4l1-3.2h0.4l1,3.2l0.1,0.4l0.1-0.4l0.9-3.2h0.5l-1.2,4.2h-0.4L40.2,74l-0.1-0.2
		L40.1,74L39,77.3h-0.4l-1.2-4.2h0.5L38.8,76.4z"/>
	<path class="st5" d="M45.8,77.3v-5.7h1.7c0.6,0,1.1,0.1,1.4,0.4c0.3,0.3,0.5,0.6,0.5,1.1c0,0.3-0.1,0.6-0.2,0.8
		c-0.2,0.2-0.4,0.4-0.7,0.5c0.3,0.1,0.6,0.2,0.8,0.5c0.2,0.3,0.3,0.5,0.3,0.9c0,0.5-0.2,0.9-0.5,1.2s-0.8,0.4-1.4,0.4H45.8z
		 M46.3,74.2h1.3c0.4,0,0.7-0.1,0.9-0.3c0.2-0.2,0.3-0.4,0.3-0.8c0-0.4-0.1-0.6-0.3-0.8c-0.2-0.2-0.6-0.3-1-0.3h-1.2V74.2z
		 M46.3,74.6v2.3h1.4c0.4,0,0.7-0.1,1-0.3c0.2-0.2,0.4-0.5,0.4-0.9c0-0.4-0.1-0.6-0.3-0.8c-0.2-0.2-0.5-0.3-1-0.3H46.3z"/>
	<path class="st5" d="M50.4,75.2c0-0.4,0.1-0.8,0.2-1.1s0.4-0.6,0.7-0.8s0.6-0.3,1-0.3c0.6,0,1,0.2,1.4,0.6s0.5,0.9,0.5,1.6v0.1
		c0,0.4-0.1,0.8-0.2,1.1s-0.4,0.6-0.7,0.8s-0.6,0.3-1,0.3c-0.6,0-1-0.2-1.4-0.6S50.4,75.9,50.4,75.2L50.4,75.2z M50.8,75.3
		c0,0.5,0.1,0.9,0.4,1.2s0.6,0.5,1,0.5c0.4,0,0.8-0.2,1-0.5s0.4-0.8,0.4-1.3v-0.1c0-0.3-0.1-0.6-0.2-0.9s-0.3-0.5-0.5-0.6
		s-0.5-0.2-0.7-0.2c-0.4,0-0.8,0.2-1,0.5S50.8,74.7,50.8,75.3L50.8,75.3z"/>
	<path class="st5" d="M54.8,75.2c0-0.4,0.1-0.8,0.2-1.1s0.4-0.6,0.7-0.8s0.6-0.3,1-0.3c0.6,0,1,0.2,1.4,0.6s0.5,0.9,0.5,1.6v0.1
		c0,0.4-0.1,0.8-0.2,1.1S58,77,57.7,77.2s-0.6,0.3-1,0.3c-0.6,0-1-0.2-1.4-0.6S54.8,75.9,54.8,75.2L54.8,75.2z M55.3,75.3
		c0,0.5,0.1,0.9,0.4,1.2s0.6,0.5,1,0.5c0.4,0,0.8-0.2,1-0.5s0.4-0.8,0.4-1.3v-0.1c0-0.3-0.1-0.6-0.2-0.9s-0.3-0.5-0.5-0.6
		s-0.5-0.2-0.7-0.2c-0.4,0-0.8,0.2-1,0.5S55.3,74.7,55.3,75.3L55.3,75.3z"/>
	<path class="st5" d="M60.6,75.2L60,75.7v1.6h-0.5v-6H60v3.8l0.4-0.5l1.6-1.6h0.6l-1.8,1.8l1.9,2.4h-0.6L60.6,75.2z"/>
	<path class="st5" d="M66,76.3c0-0.2-0.1-0.4-0.3-0.6s-0.5-0.3-0.8-0.3s-0.7-0.2-0.9-0.3s-0.4-0.2-0.5-0.4s-0.2-0.3-0.2-0.5
		c0-0.3,0.1-0.6,0.4-0.8s0.6-0.3,1.1-0.3c0.5,0,0.8,0.1,1.1,0.3s0.4,0.5,0.4,0.9H66c0-0.2-0.1-0.5-0.3-0.6s-0.5-0.2-0.8-0.2
		c-0.3,0-0.6,0.1-0.7,0.2s-0.3,0.3-0.3,0.5c0,0.2,0.1,0.4,0.2,0.5s0.4,0.2,0.8,0.3s0.7,0.2,0.9,0.3s0.4,0.2,0.5,0.4s0.1,0.3,0.1,0.6
		c0,0.4-0.1,0.6-0.4,0.9s-0.7,0.3-1.1,0.3c-0.5,0-0.9-0.1-1.2-0.4s-0.5-0.5-0.5-0.9h0.5c0,0.3,0.1,0.5,0.3,0.6s0.5,0.2,0.8,0.2
		c0.3,0,0.6-0.1,0.8-0.2S66,76.5,66,76.3z"/>
</g>
<path class="st6" d="M30.9,61.6h-4.1c-0.8,0-1.4-0.6-1.4-1.4V19.1c0-0.8,0.6-1.4,1.4-1.4h4.1c0.8,0,1.4,0.6,1.4,1.4v41.1
	C32.3,61,31.7,61.6,30.9,61.6z"/>
<path class="st7" d="M24.2,61.6h-3.6c-0.8,0-1.4-0.6-1.4-1.4V19.1c0-0.8,0.6-1.4,1.4-1.4h3.6c0.8,0,1.4,0.6,1.4,1.4v41.1
	C25.6,61,25,61.6,24.2,61.6z"/>
<path class="st8" d="M39.6,61.6h-5.9c-0.8,0-1.4-0.6-1.4-1.4V19.1c0-0.8,0.6-1.4,1.4-1.4h5.9c0.8,0,1.4,0.6,1.4,1.4v41.1
	C41.1,61,40.4,61.6,39.6,61.6z"/>
<path class="st6" d="M67.9,59.5l-3,1.9c-0.7,0.4-1.5,0.2-2-0.5L41.3,26c-0.4-0.7-0.2-1.5,0.5-2l3-1.9c0.7-0.4,1.5-0.2,2,0.5l21.6,35
	C68.8,58.2,68.6,59.1,67.9,59.5z"/>
<rect x="16.5" y="61.6" class="st9" width="61.1" height="1.9"/>
</svg>
