<?xml version="1.0" encoding="utf-8"?>
<!-- Generator: Adobe Illustrator 16.0.0, SVG Export Plug-In . SVG Version: 6.00 Build 0)  -->
<!DOCTYPE svg PUBLIC "-//W3C//DTD SVG 1.1//EN" "http://www.w3.org/Graphics/SVG/1.1/DTD/svg11.dtd">
<svg version="1.1" id="图层_1" xmlns="http://www.w3.org/2000/svg" xmlns:xlink="http://www.w3.org/1999/xlink" x="0px" y="0px"
	 width="90px" height="90px" viewBox="0 0 90 90" enable-background="new 0 0 90 90" xml:space="preserve">
<path fill="#00325F" d="M90,80.139C90,85.585,85.919,90,80.887,90H9.114C4.081,90,0,85.586,0,80.139V9.863C0,4.416,4.081,0,9.114,0
	h71.773C85.919,0,90,4.416,90,9.863V80.139z"/>
<g id="icon">
	<g>
		<path fill="#FFFFFA" d="M80,60.375C80,60.997,79.577,62,79.054,62H10.946C10.423,62,10,60.997,10,60.375V8.625
			C10,8.003,10.423,8,10.946,8H73.75C74.273,8,80,12.691,80,13.313V60.375z"/>
	</g>
	<g>
		<path fill="#00325F" d="M42,35c0,0.552-0.448,1-1,1H16c-0.552,0-1-0.448-1-1V21c0-0.552,0.448-1,1-1h25c0.552,0,1,0.448,1,1V35z"
			/>
		<g>
			<rect x="15" y="43" fill="#00325F" width="27" height="2"/>
			<rect x="15" y="48" fill="#00325F" width="27" height="2"/>
			<rect x="15" y="53" fill="#00325F" width="27" height="2"/>
			<rect x="15" y="58" fill="#00325F" width="27" height="2"/>
		</g>
		<g>
			<rect x="48" y="20" fill="#00325F" width="27" height="2"/>
			<rect x="48" y="25" fill="#00325F" width="27" height="2"/>
			<rect x="48" y="30" fill="#00325F" width="27" height="2"/>
			<rect x="48" y="35" fill="#00325F" width="27" height="2"/>
		</g>
		<g>
			<rect x="48" y="43" fill="#00325F" width="27" height="2"/>
			<path fill="#00325F" d="M75,59c0,0.553-0.447,1-1,1H49c-0.553,0-1-0.447-1-1V49c0-0.553,0.447-1,1-1h25c0.553,0,1,0.447,1,1V59z"
				/>
		</g>
	</g>
	<rect id="title" x="15" y="11" fill="#00325F" width="60" height="6"/>
	<g>
		<defs>
			<path id="SVGID_1_" d="M80,60.375C80,60.997,79.577,62,79.054,62H10.946C10.423,62,10,60.997,10,60.375V8.625
				C10,8.003,10.423,8,10.946,8H73.75C74.273,8,80,12.691,80,13.313V60.375z"/>
		</defs>
		<clipPath id="SVGID_2_">
			<use xlink:href="#SVGID_1_"  overflow="visible"/>
		</clipPath>
		<polygon clip-path="url(#SVGID_2_)" fill="#CCCCCC" points="80.813,13 74,13 74,7.5 		"/>
	</g>
</g>
<text transform="matrix(1 0 0 1 11.9321 77.1338)" fill="#FFFFFA" font-family="'ArialMT'" font-size="6">New Items &amp; Newspaper</text>
</svg>
