<?xml version="1.0" encoding="utf-8"?>
<!-- Generator: Adobe Illustrator 19.2.1, SVG Export Plug-In . SVG Version: 6.00 Build 0)  -->
<svg version="1.1" id="图层_1" xmlns="http://www.w3.org/2000/svg" xmlns:xlink="http://www.w3.org/1999/xlink" x="0px" y="0px"
	 viewBox="0 0 90 90" style="enable-background:new 0 0 90 90;" xml:space="preserve">
<style type="text/css">
	.st0{fill:#00325F;}
	.st1{fill:#FFFFFA;}
	.st2{clip-path:url(#SVGID_2_);fill:#CCCCCC;}
	.st3{font-family:'ArialMT';}
	.st4{font-size:6px;}
</style>
<path class="st0" d="M90,80.1c0,5.4-4.1,9.9-9.1,9.9H9.1c-5,0-9.1-4.4-9.1-9.9V9.9C0,4.4,4.1,0,9.1,0h71.8c5,0,9.1,4.4,9.1,9.9V80.1
	z"/>
<g id="icon">
	<g>
		<path class="st1" d="M80,60.4c0,0.6-0.4,1.6-0.9,1.6H10.9c-0.5,0-0.9-1-0.9-1.6V8.6C10,8,10.4,8,10.9,8h62.8
			c0.5,0,6.3,4.7,6.3,5.3V60.4z"/>
		<path class="st0" d="M42,35c0,0.6-0.4,1-1,1H16c-0.6,0-1-0.4-1-1V21c0-0.6,0.4-1,1-1h25c0.6,0,1,0.4,1,1V35z"/>
		<g>
			<rect x="15" y="43" class="st0" width="27" height="2"/>
			<rect x="15" y="48" class="st0" width="27" height="2"/>
			<rect x="15" y="53" class="st0" width="27" height="2"/>
			<rect x="15" y="58" class="st0" width="27" height="2"/>
		</g>
		<g>
			<rect x="48" y="20" class="st0" width="27" height="2"/>
			<rect x="48" y="25" class="st0" width="27" height="2"/>
			<rect x="48" y="30" class="st0" width="27" height="2"/>
			<rect x="48" y="35" class="st0" width="27" height="2"/>
		</g>
		<g>
			<rect x="48" y="43" class="st0" width="27" height="2"/>
			<path class="st0" d="M75,59c0,0.6-0.4,1-1,1H49c-0.6,0-1-0.4-1-1V49c0-0.6,0.4-1,1-1h25c0.6,0,1,0.4,1,1V59z"/>
		</g>
	</g>
	<rect id="title" x="15" y="11" class="st0" width="60" height="6"/>
	<g>
		<g>
			<defs>
				<path id="SVGID_1_" d="M80,60.4c0,0.6-0.4,1.6-0.9,1.6H10.9c-0.5,0-0.9-1-0.9-1.6V8.6C10,8,10.4,8,10.9,8h62.8
					c0.5,0,6.3,4.7,6.3,5.3V60.4z"/>
			</defs>
			<clipPath id="SVGID_2_">
				<use xlink:href="#SVGID_1_"  style="overflow:visible;"/>
			</clipPath>
			<polygon class="st2" points="80.8,13 74,13 74,7.5 			"/>
		</g>
	</g>
</g>
<text transform="matrix(1 0 0 1 11.9321 77.1338)" class="st1 st3 st4">New Items &amp; Newspaper</text>
</svg>
