<svg id="图层_1" data-name="图层 1" xmlns="http://www.w3.org/2000/svg" xmlns:xlink="http://www.w3.org/1999/xlink" viewBox="0 0 90 90">
  <defs>
    <style>
      .cls-1 {
        fill: none;
      }

      .cls-2 {
        fill: #00325f;
      }

      .cls-3 {
        fill: #fffffa;
      }

      .cls-4 {
        clip-path: url(#clip-path);
      }

      .cls-5 {
        fill: #ccc;
      }

      .cls-6 {
        isolation: isolate;
      }
    </style>
    <clipPath id="clip-path">
      <path class="cls-1" d="M80,60.4c0,0.6-.4,1.6-0.9,1.6H10.9c-0.5,0-.9-1-0.9-1.6V8.6C10,8,10.4,8,10.9,8H73.7c0.5,0,6.3,4.7,6.3,5.3V60.4Z"/>
    </clipPath>
  </defs>
  <title>newspaper</title>
  <path class="cls-2" d="M90,80.1c0,5.4-4.1,9.9-9.1,9.9H9.1C4.1,90,0,85.6,0,80.1V9.9C0,4.4,4.1,0,9.1,0H80.9c5,0,9.1,4.4,9.1,9.9V80.1Z"/>
  <g id="icon">
    <g>
      <path class="cls-3" d="M80,60.4c0,0.6-.4,1.6-0.9,1.6H10.9c-0.5,0-.9-1-0.9-1.6V8.6C10,8,10.4,8,10.9,8H73.7c0.5,0,6.3,4.7,6.3,5.3V60.4Z"/>
      <path class="cls-2" d="M42,35a0.94,0.94,0,0,1-1,1H16a0.94,0.94,0,0,1-1-1V21a0.94,0.94,0,0,1,1-1H41a0.94,0.94,0,0,1,1,1V35Z"/>
      <g>
        <rect class="cls-2" x="15" y="43" width="27" height="2"/>
        <rect class="cls-2" x="15" y="48" width="27" height="2"/>
        <rect class="cls-2" x="15" y="53" width="27" height="2"/>
        <rect class="cls-2" x="15" y="58" width="27" height="2"/>
      </g>
      <g>
        <rect class="cls-2" x="48" y="20" width="27" height="2"/>
        <rect class="cls-2" x="48" y="25" width="27" height="2"/>
        <rect class="cls-2" x="48" y="30" width="27" height="2"/>
        <rect class="cls-2" x="48" y="35" width="27" height="2"/>
      </g>
      <g>
        <rect class="cls-2" x="48" y="43" width="27" height="2"/>
        <path class="cls-2" d="M75,59a0.94,0.94,0,0,1-1,1H49a0.94,0.94,0,0,1-1-1V49a0.94,0.94,0,0,1,1-1H74a0.94,0.94,0,0,1,1,1V59Z"/>
      </g>
    </g>
    <rect id="title" class="cls-2" x="15" y="11" width="60" height="6"/>
    <g class="cls-4">
      <polygon class="cls-5" points="80.8 13 74 13 74 7.5 80.8 13"/>
    </g>
  </g>
  <g class="cls-6">
    <path class="cls-3" d="M12.39,77.13V72.84H13l2.26,3.37V72.84h0.54v4.29H15.19l-2.26-3.37v3.38H12.39Z"/>
    <path class="cls-3" d="M18.79,76.13l0.54,0.07a1.33,1.33,0,0,1-.48.74,1.62,1.62,0,0,1-2-.16,1.64,1.64,0,0,1-.4-1.18,1.72,1.72,0,0,1,.4-1.22,1.37,1.37,0,0,1,1-.43,1.33,1.33,0,0,1,1,.42,1.69,1.69,0,0,1,.4,1.2s0,0.08,0,.14H17a1.2,1.2,0,0,0,.29.79,0.86,0.86,0,0,0,.65.27,0.81,0.81,0,0,0,.5-0.15A1,1,0,0,0,18.79,76.13Zm-1.73-.85H18.8a1.05,1.05,0,0,0-.2-0.59,0.81,0.81,0,0,0-.65-0.3,0.84,0.84,0,0,0-.61.24A1,1,0,0,0,17.06,75.28Z"/>
    <path class="cls-3" d="M20.57,77.13l-1-3.11h0.54l0.5,1.8,0.18,0.67L21,75.84,21.5,74H22l0.47,1.8,0.16,0.59,0.18-.6L23.38,74h0.51l-1,3.11H22.37l-0.5-1.86-0.12-.53-0.63,2.39H20.57Z"/>
    <path class="cls-3" d="M26.16,77.13V72.84h0.57v4.29H26.16Z"/>
    <path class="cls-3" d="M28.82,76.66l0.08,0.47a2,2,0,0,1-.4,0A0.9,0.9,0,0,1,28,77.08a0.51,0.51,0,0,1-.22-0.24,1.88,1.88,0,0,1-.06-0.62V74.43H27.37V74h0.39V73.25l0.52-.32V74h0.53v0.41H28.29v1.82a0.92,0.92,0,0,0,0,.29,0.22,0.22,0,0,0,.09.1,0.35,0.35,0,0,0,.18,0Z"/>
    <path class="cls-3" d="M31.46,76.13L32,76.2a1.33,1.33,0,0,1-.48.74,1.62,1.62,0,0,1-2-.16,1.64,1.64,0,0,1-.4-1.18,1.72,1.72,0,0,1,.4-1.22,1.37,1.37,0,0,1,1-.43,1.33,1.33,0,0,1,1,.42,1.69,1.69,0,0,1,.4,1.2s0,0.08,0,.14H29.7a1.2,1.2,0,0,0,.29.79,0.86,0.86,0,0,0,.65.27,0.81,0.81,0,0,0,.5-0.15A1,1,0,0,0,31.46,76.13Zm-1.73-.85h1.74a1.05,1.05,0,0,0-.2-0.59,0.81,0.81,0,0,0-.65-0.3,0.84,0.84,0,0,0-.61.24A1,1,0,0,0,29.73,75.28Z"/>
    <path class="cls-3" d="M32.67,77.13V74h0.47v0.44a1.12,1.12,0,0,1,.39-0.37A1.1,1.1,0,0,1,34.08,74a1,1,0,0,1,.57.14,0.77,0.77,0,0,1,.31.4,1.12,1.12,0,0,1,1-.54,1,1,0,0,1,.71.26,1.1,1.1,0,0,1,.25.79v2.14H36.36v-2a1.45,1.45,0,0,0-.05-0.46,0.44,0.44,0,0,0-.19-0.22,0.58,0.58,0,0,0-.32-0.08,0.74,0.74,0,0,0-.54.22,1,1,0,0,0-.22.7v1.81H34.52v-2a0.89,0.89,0,0,0-.13-0.53A0.49,0.49,0,0,0,34,74.41a0.77,0.77,0,0,0-.41.12,0.66,0.66,0,0,0-.27.34,1.93,1.93,0,0,0-.08.65v1.61H32.67Z"/>
    <path class="cls-3" d="M37.46,76.21L38,76.12a0.73,0.73,0,0,0,.25.48,0.85,0.85,0,0,0,.56.17,0.82,0.82,0,0,0,.54-0.15,0.44,0.44,0,0,0,.18-0.35A0.32,0.32,0,0,0,39.34,76a2.29,2.29,0,0,0-.54-0.18,4.77,4.77,0,0,1-.8-0.25,0.77,0.77,0,0,1-.34-0.29,0.78,0.78,0,0,1-.12-0.42,0.8,0.8,0,0,1,.09-0.38,0.86,0.86,0,0,1,.26-0.29A1.1,1.1,0,0,1,38.23,74,1.62,1.62,0,0,1,38.69,74a1.79,1.79,0,0,1,.64.11,0.88,0.88,0,0,1,.41.29,1.12,1.12,0,0,1,.18.48l-0.52.07a0.56,0.56,0,0,0-.2-0.37,0.74,0.74,0,0,0-.48-0.13,0.86,0.86,0,0,0-.52.12,0.35,0.35,0,0,0-.16.28,0.29,0.29,0,0,0,.06.18,0.47,0.47,0,0,0,.2.14l0.47,0.13a6.68,6.68,0,0,1,.78.24,0.8,0.8,0,0,1,.35.28,0.77,0.77,0,0,1,.13.45,0.89,0.89,0,0,1-.15.5,1,1,0,0,1-.44.36,1.63,1.63,0,0,1-.66.13A1.46,1.46,0,0,1,37.86,77,1.17,1.17,0,0,1,37.46,76.21Z"/>
    <path class="cls-3" d="M44.79,76.63a1.78,1.78,0,0,1-.57.43,1.53,1.53,0,0,1-.67.15,1.31,1.31,0,0,1-1-.45A1.21,1.21,0,0,1,42.2,76a1.12,1.12,0,0,1,.26-0.72,2.13,2.13,0,0,1,.77-0.56,2.57,2.57,0,0,1-.39-0.54,1,1,0,0,1-.1-0.4,0.9,0.9,0,0,1,.3-0.67,1.07,1.07,0,0,1,.76-0.29,1,1,0,0,1,.72.27,0.87,0.87,0,0,1,.28.65,1.24,1.24,0,0,1-.81,1l0.77,1a2.44,2.44,0,0,0,.21-0.6l0.55,0.12a3,3,0,0,1-.38.93,3.06,3.06,0,0,0,.67.66l-0.35.42A3.06,3.06,0,0,1,44.79,76.63Zm-0.33-.42-1-1.2a1.86,1.86,0,0,0-.58.47,0.77,0.77,0,0,0-.15.43,0.92,0.92,0,0,0,.21.54,0.69,0.69,0,0,0,.59.28,1,1,0,0,0,.49-0.15A1.18,1.18,0,0,0,44.46,76.21Zm-0.74-1.82A1.42,1.42,0,0,0,44.16,74a0.6,0.6,0,0,0,.1-0.34,0.48,0.48,0,0,0-.14-0.36,0.47,0.47,0,0,0-.35-0.14,0.49,0.49,0,0,0-.36.14,0.45,0.45,0,0,0-.14.34,0.49,0.49,0,0,0,.05.21,1.08,1.08,0,0,0,.15.23Z"/>
    <path class="cls-3" d="M48.06,77.13V72.84h0.58l2.26,3.37V72.84h0.54v4.29H50.86l-2.26-3.37v3.38H48.06Z"/>
    <path class="cls-3" d="M54.46,76.13L55,76.2a1.33,1.33,0,0,1-.48.74,1.62,1.62,0,0,1-2-.16,1.65,1.65,0,0,1-.4-1.18,1.72,1.72,0,0,1,.4-1.22,1.37,1.37,0,0,1,1-.43,1.33,1.33,0,0,1,1,.42,1.69,1.69,0,0,1,.4,1.2s0,0.08,0,.14H52.7a1.2,1.2,0,0,0,.29.79,0.86,0.86,0,0,0,.65.27,0.81,0.81,0,0,0,.5-0.15A1,1,0,0,0,54.46,76.13Zm-1.73-.85h1.74a1.05,1.05,0,0,0-.2-0.59,0.81,0.81,0,0,0-.65-0.3,0.84,0.84,0,0,0-.61.24A1,1,0,0,0,52.73,75.28Z"/>
    <path class="cls-3" d="M56.25,77.13l-1-3.11h0.54l0.5,1.8,0.18,0.67,0.16-.64L57.17,74h0.54l0.47,1.8,0.16,0.59,0.18-.6L59,74h0.51l-1,3.11H58l-0.5-1.86-0.12-.53L56.8,77.13H56.25Z"/>
    <path class="cls-3" d="M59.79,76.21l0.52-.08a0.73,0.73,0,0,0,.25.48,0.85,0.85,0,0,0,.56.17,0.82,0.82,0,0,0,.54-0.15,0.44,0.44,0,0,0,.18-0.35A0.32,0.32,0,0,0,61.68,76a2.29,2.29,0,0,0-.54-0.18,4.77,4.77,0,0,1-.8-0.25A0.77,0.77,0,0,1,60,75.27a0.78,0.78,0,0,1-.12-0.42A0.8,0.8,0,0,1,60,74.46a0.86,0.86,0,0,1,.26-0.29A1.1,1.1,0,0,1,60.57,74,1.62,1.62,0,0,1,61,74a1.79,1.79,0,0,1,.64.11,0.88,0.88,0,0,1,.41.29,1.12,1.12,0,0,1,.18.48l-0.52.07a0.56,0.56,0,0,0-.2-0.37,0.74,0.74,0,0,0-.48-0.13,0.86,0.86,0,0,0-.52.12,0.35,0.35,0,0,0-.16.28,0.29,0.29,0,0,0,.06.18,0.47,0.47,0,0,0,.2.14l0.47,0.13a6.68,6.68,0,0,1,.78.24,0.8,0.8,0,0,1,.35.28,0.77,0.77,0,0,1,.13.45,0.89,0.89,0,0,1-.15.5,1,1,0,0,1-.44.36,1.63,1.63,0,0,1-.66.13A1.46,1.46,0,0,1,60.2,77,1.17,1.17,0,0,1,59.79,76.21Z"/>
    <path class="cls-3" d="M63,78.33V74h0.48v0.4a1.17,1.17,0,0,1,.38-0.36A1,1,0,0,1,64.39,74a1.23,1.23,0,0,1,.7.21,1.26,1.26,0,0,1,.46.58,2.25,2.25,0,0,1,0,1.68A1.31,1.31,0,0,1,65,77a1.29,1.29,0,0,1-.69.2,1,1,0,0,1-.47-0.11,1.07,1.07,0,0,1-.34-0.28v1.51H63Zm0.48-2.73a1.35,1.35,0,0,0,.24.89,0.75,0.75,0,0,0,.59.29,0.76,0.76,0,0,0,.6-0.3,1.41,1.41,0,0,0,.25-0.92,1.37,1.37,0,0,0-.25-0.89,0.74,0.74,0,0,0-.58-0.3,0.76,0.76,0,0,0-.6.32A1.4,1.4,0,0,0,63.48,75.6Z"/>
    <path class="cls-3" d="M68.37,76.75a2,2,0,0,1-.56.35,1.63,1.63,0,0,1-.58.1A1.14,1.14,0,0,1,66.44,77a0.83,0.83,0,0,1-.28-0.64,0.86,0.86,0,0,1,.38-0.72,1.27,1.27,0,0,1,.38-0.17l0.47-.08a4.82,4.82,0,0,0,.94-0.18q0-.11,0-0.14a0.58,0.58,0,0,0-.15-0.45,0.88,0.88,0,0,0-.6-0.18,0.94,0.94,0,0,0-.55.13,0.8,0.8,0,0,0-.26.46l-0.52-.07a1.28,1.28,0,0,1,.23-0.53A1,1,0,0,1,67,74.06,2.1,2.1,0,0,1,67.66,74a1.87,1.87,0,0,1,.65.09,0.85,0.85,0,0,1,.37.24,0.83,0.83,0,0,1,.16.36,3,3,0,0,1,0,.49v0.7a7.24,7.24,0,0,0,0,.93,1.15,1.15,0,0,0,.13.37H68.48A1.12,1.12,0,0,1,68.37,76.75Zm0-1.18a3.87,3.87,0,0,1-.86.2,2,2,0,0,0-.46.11,0.46,0.46,0,0,0-.21.17,0.45,0.45,0,0,0-.07.25,0.45,0.45,0,0,0,.16.35,0.68,0.68,0,0,0,.47.14,1.08,1.08,0,0,0,.54-0.13,0.81,0.81,0,0,0,.35-0.36,1.27,1.27,0,0,0,.08-0.53V75.57Z"/>
    <path class="cls-3" d="M69.68,78.33V74h0.48v0.4a1.17,1.17,0,0,1,.38-0.36A1,1,0,0,1,71.06,74a1.23,1.23,0,0,1,.7.21,1.26,1.26,0,0,1,.46.58,2.25,2.25,0,0,1,0,1.68,1.31,1.31,0,0,1-.5.59,1.29,1.29,0,0,1-.69.2,1,1,0,0,1-.47-0.11,1.07,1.07,0,0,1-.34-0.28v1.51H69.68Zm0.48-2.73a1.35,1.35,0,0,0,.24.89,0.75,0.75,0,0,0,.59.29,0.76,0.76,0,0,0,.6-0.3,1.41,1.41,0,0,0,.25-0.92,1.37,1.37,0,0,0-.25-0.89,0.74,0.74,0,0,0-.58-0.3,0.76,0.76,0,0,0-.6.32A1.4,1.4,0,0,0,70.16,75.6Z"/>
    <path class="cls-3" d="M75.15,76.13l0.54,0.07a1.33,1.33,0,0,1-.48.74,1.62,1.62,0,0,1-2-.16,1.65,1.65,0,0,1-.4-1.18,1.72,1.72,0,0,1,.4-1.22,1.37,1.37,0,0,1,1-.43,1.33,1.33,0,0,1,1,.42,1.69,1.69,0,0,1,.4,1.2s0,0.08,0,.14H73.38a1.2,1.2,0,0,0,.29.79,0.86,0.86,0,0,0,.65.27,0.81,0.81,0,0,0,.5-0.15A1,1,0,0,0,75.15,76.13Zm-1.73-.85h1.74a1.05,1.05,0,0,0-.2-0.59,0.81,0.81,0,0,0-.65-0.3,0.84,0.84,0,0,0-.61.24A1,1,0,0,0,73.41,75.28Z"/>
    <path class="cls-3" d="M76.35,77.13V74h0.47v0.47a1.3,1.3,0,0,1,.33-0.44A0.59,0.59,0,0,1,77.5,74a1,1,0,0,1,.54.17l-0.18.49a0.75,0.75,0,0,0-.39-0.11,0.51,0.51,0,0,0-.31.1,0.57,0.57,0,0,0-.2.29,2.05,2.05,0,0,0-.09.62v1.63H76.35Z"/>
  </g>
</svg>
