<?xml version="1.0" encoding="utf-8"?>
<!-- Generator: Adobe Illustrator 19.2.1, SVG Export Plug-In . SVG Version: 6.00 Build 0)  -->
<svg version="1.1" id="图层_1" xmlns="http://www.w3.org/2000/svg" xmlns:xlink="http://www.w3.org/1999/xlink" x="0px" y="0px"
	 viewBox="0 0 160 170.4" style="enable-background:new 0 0 160 170.4;" xml:space="preserve">
<style type="text/css">
	.st0{fill:#EDE1AE;}
	.st1{fill:#6D6D6D;}
	.st2{fill:#B1B0A1;}
	.st3{fill:#E2E0D6;}
	.st4{fill:#C0CED8;}
	.st5{fill:#E6E6E6;}
	.st6{fill:#333333;}
</style>
<g>
	<ellipse class="st0" cx="132" cy="45.9" rx="17.1" ry="21.3"/>
	<path class="st0" d="M110.8,91c2.5-11.5,12.1-19.2,21.3-17.1c9.2,2,14.6,13,12.1,24.5c-2.5,11.5-12.1,19.2-21.3,17.1
		C113.7,113.4,108.3,102.5,110.8,91z"/>
	
		<ellipse transform="matrix(0.9168 -0.3993 0.3993 0.9168 -44.2837 52.8189)" class="st0" cx="104.6" cy="132.7" rx="21.3" ry="17.1"/>
	<path class="st1" d="M64.4,166.4c-18.7-2-47.2-27.8-50.7-48.4C4.1,61.3,3.8,13,3.8,13l30.4-0.6c0,0-4.5,40.3,2.9,82.6
		c3.7,20.9,41.2,46.4,41.2,46.4L64.4,166.4z"/>
	<path class="st2" d="M120.9,161.7c-8.1,5.5-22.6,8.7-42.6,8.7c-24.1,0-55.1-12.7-66.7-46.4C0,90.6,0,13.9,0,13.9h7
		c0,0,0.6,77.3,10.7,106.4c7.5,21.7,25.8,44.9,60.6,44.9c22.9,0,41.2-7.5,41.2-7.5L120.9,161.7z"/>
	<path class="st3" d="M78.3,141.4c-18.2,0-31.9-23.3-38.8-38.5c-8-17.6-6-89-6-89h89.3c0,0,0.5,76.3-6,89
		C108.9,118.6,95.7,141.4,78.3,141.4z"/>
	<rect y="0" class="st2" width="160" height="13.9"/>
</g>
<g id="keyboard">
	<path class="st4" d="M101.9,36.1c0,1.1-0.6,2.6-1.3,2.6H57.5c-0.8,0-1.5-1.5-1.5-2.6v-9.8c0-1.1,0.8-1.6,1.5-1.6h43.2
		c0.8,0,1.3,0.5,1.3,1.6L101.9,36.1L101.9,36.1z"/>
	<path class="st5" d="M101.9,35.3c0,1-0.4,2.4-1.2,2.4H57.5c-0.8,0-1.5-1.4-1.5-2.4v-9.2c0-1,0.8-1.5,1.5-1.5h43.3
		c0.8,0,1.2,0.5,1.2,1.5V35.3L101.9,35.3z"/>
	<g id="key">
		<g id="line1_2_">
			<path d="M98.8,27.3c0,0.3-0.3,0.6-0.6,0.6h-4.7c-0.3,0-0.6-0.3-0.6-0.6v-1.2c0-0.3,0.3-0.6,0.6-0.6h4.7c0.3,0,0.6,0.3,0.6,0.6
				V27.3z"/>
			<path d="M68.3,27.3c0,0.3-0.3,0.6-0.6,0.6h-1.2c-0.3,0-0.6-0.3-0.6-0.6v-1.2c0-0.3,0.3-0.6,0.6-0.6h1.2c0.3,0,0.6,0.3,0.6,0.6
				V27.3z"/>
			<path d="M71.3,27.3c0,0.3-0.3,0.6-0.6,0.6h-1.2c-0.3,0-0.6-0.3-0.6-0.6v-1.2c0-0.3,0.3-0.6,0.6-0.6h1.2c0.3,0,0.6,0.3,0.6,0.6
				V27.3z"/>
			<path d="M74.2,27.3c0,0.3-0.3,0.6-0.6,0.6h-1.2c-0.3,0-0.6-0.3-0.6-0.6v-1.2c0-0.3,0.3-0.6,0.6-0.6h1.2c0.3,0,0.6,0.3,0.6,0.6
				V27.3L74.2,27.3z"/>
			<path d="M77.4,27.3c0,0.3-0.3,0.6-0.6,0.6h-1.2c-0.3,0-0.6-0.3-0.6-0.6v-1.2c0-0.3,0.3-0.6,0.6-0.6h1.2c0.3,0,0.6,0.3,0.6,0.6
				V27.3z"/>
			<path d="M80.3,27.3c0,0.3-0.3,0.6-0.6,0.6h-1.2c-0.3,0-0.6-0.3-0.6-0.6v-1.2c0-0.3,0.3-0.6,0.6-0.6h1.2c0.3,0,0.6,0.3,0.6,0.6
				V27.3L80.3,27.3z"/>
			<path d="M83.3,27.3c0,0.3-0.3,0.6-0.6,0.6h-1.2c-0.3,0-0.6-0.3-0.6-0.6v-1.2c0-0.3,0.3-0.6,0.6-0.6h1.2c0.3,0,0.6,0.3,0.6,0.6
				V27.3z"/>
			<path d="M86.3,27.3c0,0.3-0.3,0.6-0.6,0.6h-1.2c-0.3,0-0.6-0.3-0.6-0.6v-1.2c0-0.3,0.3-0.6,0.6-0.6h1.2c0.3,0,0.6,0.3,0.6,0.6
				V27.3z"/>
			<path d="M89.4,27.3c0,0.3-0.3,0.6-0.6,0.6h-1.2c-0.3,0-0.6-0.3-0.6-0.6v-1.2c0-0.3,0.3-0.6,0.6-0.6h1.2c0.3,0,0.6,0.3,0.6,0.6
				V27.3L89.4,27.3z"/>
			<path d="M92.4,27.3c0,0.3-0.3,0.6-0.6,0.6h-1.2c-0.3,0-0.6-0.3-0.6-0.6v-1.2c0-0.3,0.3-0.6,0.6-0.6h1.2c0.3,0,0.6,0.3,0.6,0.6
				V27.3L92.4,27.3z"/>
			<path d="M65.4,27.3c0,0.3-0.3,0.6-0.6,0.6h-4.7c-0.3,0-0.6-0.3-0.6-0.6v-1.2c0-0.3,0.3-0.6,0.6-0.6h4.7c0.3,0,0.6,0.3,0.6,0.6
				L65.4,27.3L65.4,27.3z"/>
		</g>
		<g id="line2">
			<path d="M64.3,30.5c0,0.3-0.3,0.6-0.6,0.6h-1.2c-0.3,0-0.6-0.3-0.6-0.6v-1.2c0-0.3,0.3-0.6,0.6-0.6h1.2c0.3,0,0.6,0.3,0.6,0.6
				V30.5z"/>
			<path d="M67.3,30.5c0,0.3-0.3,0.6-0.6,0.6h-1.2c-0.3,0-0.6-0.3-0.6-0.6v-1.2c0-0.3,0.3-0.6,0.6-0.6h1.2c0.3,0,0.6,0.3,0.6,0.6
				V30.5L67.3,30.5z"/>
			<path d="M70,30.5c0,0.3-0.3,0.6-0.6,0.6h-1.2c-0.3,0-0.6-0.3-0.6-0.6v-1.2c0-0.3,0.3-0.6,0.6-0.6h1.2c0.3,0,0.6,0.3,0.6,0.6V30.5
				z"/>
			<path d="M73.2,30.5c0,0.3-0.3,0.6-0.6,0.6h-1.2c-0.3,0-0.6-0.3-0.6-0.6v-1.2c0-0.3,0.3-0.6,0.6-0.6h1.2c0.3,0,0.6,0.3,0.6,0.6
				V30.5z"/>
			<path d="M76.1,30.5c0,0.3-0.3,0.6-0.6,0.6h-1.2c-0.3,0-0.6-0.3-0.6-0.6v-1.2c0-0.3,0.3-0.6,0.6-0.6h1.2c0.3,0,0.6,0.3,0.6,0.6
				V30.5z"/>
			<path d="M79.3,30.5c0,0.3-0.3,0.6-0.6,0.6h-1.2c-0.3,0-0.6-0.3-0.6-0.6v-1.2c0-0.3,0.3-0.6,0.6-0.6h1.2c0.3,0,0.6,0.3,0.6,0.6
				L79.3,30.5L79.3,30.5z"/>
			<path d="M82.2,30.5c0,0.3-0.3,0.6-0.6,0.6h-1.2c-0.3,0-0.6-0.3-0.6-0.6v-1.2c0-0.3,0.3-0.6,0.6-0.6h1.2c0.3,0,0.6,0.3,0.6,0.6
				V30.5z"/>
			<path d="M85.1,30.5c0,0.3-0.3,0.6-0.6,0.6h-1.2c-0.3,0-0.6-0.3-0.6-0.6v-1.2c0-0.3,0.3-0.6,0.6-0.6h1.2c0.3,0,0.6,0.3,0.6,0.6
				L85.1,30.5L85.1,30.5z"/>
			<path d="M88.4,30.5c0,0.3-0.3,0.6-0.6,0.6h-1.2c-0.3,0-0.6-0.3-0.6-0.6v-1.2c0-0.3,0.3-0.6,0.6-0.6h1.2c0.3,0,0.6,0.3,0.6,0.6
				V30.5L88.4,30.5z"/>
			<path d="M91.3,30.5c0,0.3-0.3,0.6-0.6,0.6h-1.2c-0.3,0-0.6-0.3-0.6-0.6v-1.2c0-0.3,0.3-0.6,0.6-0.6h1.2c0.3,0,0.6,0.3,0.6,0.6
				V30.5z"/>
			<path d="M94.5,30.5c0,0.3-0.3,0.6-0.6,0.6h-1.2c-0.3,0-0.6-0.3-0.6-0.6v-1.2c0-0.3,0.3-0.6,0.6-0.6h1.2c0.3,0,0.6,0.3,0.6,0.6
				L94.5,30.5L94.5,30.5z"/>
			<path d="M97.4,30.5c0,0.3-0.3,0.6-0.6,0.6h-1.2c-0.3,0-0.6-0.3-0.6-0.6v-1.2c0-0.3,0.3-0.6,0.6-0.6h1.2c0.3,0,0.6,0.3,0.6,0.6
				V30.5z"/>
		</g>
		<g id="line3_2_">
			<path d="M98.8,33.5c0,0.3-0.3,0.6-0.6,0.6h-4.7c-0.3,0-0.6-0.3-0.6-0.6v-1.2c0-0.3,0.3-0.6,0.6-0.6h4.7c0.3,0,0.6,0.3,0.6,0.6
				V33.5z"/>
			<path d="M68.4,33.5c0,0.3-0.3,0.6-0.6,0.6h-1.2c-0.3,0-0.6-0.3-0.6-0.6v-1.2c0-0.3,0.3-0.6,0.6-0.6h1.2c0.3,0,0.6,0.3,0.6,0.6
				V33.5z"/>
			<path d="M71.3,33.5c0,0.3-0.3,0.6-0.6,0.6h-1.2c-0.3,0-0.6-0.3-0.6-0.6v-1.2c0-0.3,0.3-0.6,0.6-0.6h1.2c0.3,0,0.6,0.3,0.6,0.6
				V33.5z"/>
			<path d="M74.2,33.5c0,0.3-0.3,0.6-0.6,0.6h-1.2c-0.3,0-0.6-0.3-0.6-0.6v-1.2c0-0.3,0.3-0.6,0.6-0.6h1.2c0.3,0,0.6,0.3,0.6,0.6
				V33.5z"/>
			<path d="M77.3,33.5c0,0.3-0.3,0.6-0.6,0.6h-1.2c-0.3,0-0.6-0.3-0.6-0.6v-1.2c0-0.3,0.3-0.6,0.6-0.6h1.2c0.3,0,0.6,0.3,0.6,0.6
				V33.5z"/>
			<path d="M80.2,33.5c0,0.3-0.3,0.6-0.6,0.6h-1.2c-0.3,0-0.6-0.3-0.6-0.6v-1.2c0-0.3,0.3-0.6,0.6-0.6h1.2c0.3,0,0.6,0.3,0.6,0.6
				V33.5z"/>
			<path d="M83.4,33.5c0,0.3-0.3,0.6-0.6,0.6h-1.2c-0.3,0-0.6-0.3-0.6-0.6v-1.2c0-0.3,0.3-0.6,0.6-0.6h1.2c0.3,0,0.6,0.3,0.6,0.6
				V33.5z"/>
			<path d="M86.3,33.5c0,0.3-0.3,0.6-0.6,0.6h-1.2c-0.3,0-0.6-0.3-0.6-0.6v-1.2c0-0.3,0.3-0.6,0.6-0.6h1.2c0.3,0,0.6,0.3,0.6,0.6
				V33.5z"/>
			<path d="M89.4,33.5c0,0.3-0.3,0.6-0.6,0.6h-1.2c-0.3,0-0.6-0.3-0.6-0.6v-1.2c0-0.3,0.3-0.6,0.6-0.6h1.2c0.3,0,0.6,0.3,0.6,0.6
				V33.5L89.4,33.5z"/>
			<path d="M92.4,33.5c0,0.3-0.3,0.6-0.6,0.6h-1.2c-0.3,0-0.6-0.3-0.6-0.6v-1.2c0-0.3,0.3-0.6,0.6-0.6h1.2c0.3,0,0.6,0.3,0.6,0.6
				V33.5L92.4,33.5z"/>
			<path d="M65.4,33.5c0,0.3-0.3,0.6-0.6,0.6h-4.7c-0.3,0-0.6-0.3-0.6-0.6v-1.2c0-0.3,0.3-0.6,0.6-0.6h4.7c0.3,0,0.6,0.3,0.6,0.6
				L65.4,33.5L65.4,33.5z"/>
		</g>
		<g id="line4">
			<path d="M64.5,36.6c0,0.3-0.3,0.6-0.6,0.6h-1.2c-0.3,0-0.6-0.3-0.6-0.6v-1.2c0-0.3,0.3-0.6,0.6-0.6h1.2c0.3,0,0.6,0.3,0.6,0.6
				V36.6z"/>
			<path d="M67.4,36.6c0,0.3-0.3,0.6-0.6,0.6h-1.2c-0.3,0-0.6-0.3-0.6-0.6v-1.2c0-0.3,0.3-0.6,0.6-0.6h1.2c0.3,0,0.6,0.3,0.6,0.6
				C67.4,35.4,67.4,36.6,67.4,36.6z"/>
			<path d="M70.3,36.6c0,0.3-0.3,0.6-0.6,0.6h-1.2c-0.3,0-0.6-0.3-0.6-0.6v-1.2c0-0.3,0.3-0.6,0.6-0.6h1.2c0.3,0,0.6,0.3,0.6,0.6
				L70.3,36.6L70.3,36.6z"/>
			<path d="M91.1,36.6c0,0.3-0.3,0.6-0.6,0.6h-1.2c-0.3,0-0.6-0.3-0.6-0.6v-1.2c0-0.3,0.3-0.6,0.6-0.6h1.2c0.3,0,0.6,0.3,0.6,0.6
				L91.1,36.6L91.1,36.6z"/>
			<path d="M94.3,36.6c0,0.3-0.3,0.6-0.6,0.6h-1.2c-0.3,0-0.6-0.3-0.6-0.6v-1.2c0-0.3,0.3-0.6,0.6-0.6h1.2c0.3,0,0.6,0.3,0.6,0.6
				V36.6z"/>
			<path d="M97.3,36.6c0,0.3-0.3,0.6-0.6,0.6h-1.2c-0.3,0-0.6-0.3-0.6-0.6v-1.2c0-0.3,0.3-0.6,0.6-0.6h1.2c0.3,0,0.6,0.3,0.6,0.6
				V36.6z"/>
			<path d="M88.1,36.5c0,0.4-0.3,0.7-0.6,0.7h-16c-0.3,0-0.5-0.4-0.5-0.7v-1c0-0.4,0.2-0.7,0.5-0.7h16c0.3,0,0.6,0.3,0.6,0.7
				L88.1,36.5L88.1,36.5z"/>
		</g>
	</g>
</g>
<g id="monitor">
	<path class="st6" d="M132.6,17.3c0,0.5-0.3,1.2-1,1.2H32c-0.7,0-1.6-0.7-1.6-1.2v-3c0-0.5,0.9-0.4,1.6-0.4h99.6c0.7,0,1-0.1,1,0.4
		V17.3L132.6,17.3z"/>
</g>
</svg>
