<?xml version="1.0" encoding="utf-8"?>
<!-- Generator: Adobe Illustrator 19.2.1, SVG Export Plug-In . SVG Version: 6.00 Build 0)  -->
<svg version="1.1" id="图层_1" xmlns="http://www.w3.org/2000/svg" xmlns:xlink="http://www.w3.org/1999/xlink" x="0px" y="0px"
	 viewBox="0 0 60 46" style="enable-background:new 0 0 60 46;" xml:space="preserve">
<style type="text/css">
	.st0{fill:#CCCCCC;}
	.st1{fill:#808080;}
	.st2{fill:#383A42;}
	.st3{fill:#E5DCD1;}
	.st4{fill:#0E95D2;}
	.st5{fill:#FBFAF9;}
	.st6{fill:#BE3E43;}
	.st7{fill:#B1B0A1;}
	.st8{fill:#3CACA7;}
	.st9{fill:#CFAD49;}
	.st10{fill:#FB5856;}
	.st11{fill:#0E0010;}
	.st12{fill:#E6E6E6;}
	.st13{fill:#B3B3B3;}
	.st14{fill:#666666;}
	.st15{fill:#00325F;}
</style>
<rect x="-0.1" class="st0" width="60.2" height="46"/>
<rect x="-0.1" y="0.2" class="st1" width="60.2" height="32.7"/>
<g id="controller">
	<rect x="15.1" y="36.3" class="st2" width="39.4" height="9.5"/>
	<path class="st3" d="M44.3,44.5c0,0.6-0.4,1.1-0.9,1.1H22.1c-0.5,0-0.9-0.5-0.9-1.1V38c0-0.6,0.4-1.1,0.9-1.1h21.3
		c0.5,0,0.9,0.5,0.9,1.1L44.3,44.5L44.3,44.5z M43.8,38.4c0-0.5-0.4-1-0.9-1H22.5c-0.5,0-0.9,0.4-0.9,1v5.8c0,0.5,0.4,1,0.9,1h20.4
		c0.5,0,0.9-0.4,0.9-1L43.8,38.4L43.8,38.4z"/>
	<rect x="-0.1" y="33.5" class="st2" width="8.8" height="4.9"/>
	<rect x="1" y="34.2" class="st4" width="6.6" height="3.7"/>
	<path class="st4" d="M36.8,44.1c0,0.1-0.2,0.3-0.3,0.3H27c-0.1,0-0.4-0.2-0.4-0.3v-4.7c0-0.1,0.3-0.3,0.4-0.3h9.5
		c0.1,0,0.3,0.2,0.3,0.3V44.1z"/>
	<g>
		<g id="sign">
			<path class="st5" d="M4.9,35.8C4.9,35.8,4.9,35.8,4.9,35.8c-0.2-0.1-0.3-0.2-0.5-0.2c-0.2,0-0.3,0.1-0.4,0.2c0,0-0.1,0-0.1,0
				c0,0,0-0.1,0-0.1c0.2-0.1,0.4-0.2,0.6-0.2c0.2,0,0.4,0.1,0.6,0.2C5,35.7,5,35.7,4.9,35.8C5,35.8,4.9,35.8,4.9,35.8"/>
			<path class="st5" d="M5.2,35.5C5.1,35.5,5.1,35.5,5.2,35.5c-0.3-0.2-0.5-0.2-0.8-0.2c-0.3,0-0.5,0.1-0.7,0.2c0,0-0.1,0-0.1,0
				c0,0,0-0.1,0-0.1c0.2-0.2,0.5-0.3,0.8-0.3s0.6,0.1,0.8,0.3C5.3,35.4,5.3,35.4,5.2,35.5C5.2,35.5,5.2,35.5,5.2,35.5"/>
			<path class="st5" d="M5.4,35.2C5.4,35.2,5.4,35.2,5.4,35.2c-0.3-0.2-0.7-0.3-1-0.3c-0.3,0-0.7,0.1-1,0.3c0,0-0.1,0-0.1,0
				s0-0.1,0-0.1c0.3-0.2,0.7-0.3,1.1-0.3s0.8,0.1,1.1,0.3C5.5,35.1,5.5,35.1,5.4,35.2C5.5,35.2,5.4,35.2,5.4,35.2"/>
		</g>
		<g id="sign_1_">
			<path class="st5" d="M3.9,36.3C3.9,36.3,3.9,36.3,3.9,36.3c0.2,0.1,0.3,0.2,0.5,0.2c0.2,0,0.3-0.1,0.4-0.2c0,0,0.1,0,0.1,0
				c0,0,0,0.1,0,0.1c-0.2,0.1-0.4,0.2-0.6,0.2c-0.2,0-0.4-0.1-0.6-0.2C3.8,36.4,3.8,36.3,3.9,36.3C3.8,36.3,3.9,36.3,3.9,36.3"/>
			<path class="st5" d="M3.6,36.6C3.7,36.6,3.7,36.6,3.6,36.6c0.3,0.2,0.5,0.2,0.8,0.2c0.3,0,0.5-0.1,0.7-0.2c0,0,0.1,0,0.1,0
				c0,0,0,0.1,0,0.1c-0.2,0.2-0.5,0.3-0.8,0.3s-0.6-0.1-0.8-0.3C3.5,36.7,3.5,36.6,3.6,36.6C3.6,36.6,3.6,36.6,3.6,36.6"/>
			<path class="st5" d="M3.4,36.9C3.4,36.9,3.4,36.9,3.4,36.9c0.3,0.2,0.7,0.3,1,0.3s0.7-0.1,1-0.3c0,0,0.1,0,0.1,0c0,0,0,0.1,0,0.1
				c-0.3,0.2-0.7,0.3-1.1,0.3S3.6,37.2,3.3,37C3.3,37,3.3,36.9,3.4,36.9C3.3,36.9,3.4,36.9,3.4,36.9"/>
		</g>
		<circle class="st6" cx="4.4" cy="36" r="0.2"/>
	</g>
	<g>
		<circle class="st7" cx="38.2" cy="39.9" r="0.4"/>
		<circle class="st7" cx="39.9" cy="39.9" r="0.4"/>
		<circle class="st7" cx="41.5" cy="39.9" r="0.4"/>
		<circle class="st7" cx="38.2" cy="38.4" r="0.4"/>
		<circle class="st7" cx="41.5" cy="38.4" r="0.4"/>
		<circle class="st7" cx="38.1" cy="41.4" r="0.4"/>
		<circle class="st7" cx="39.9" cy="41.4" r="0.4"/>
		<circle class="st7" cx="41.5" cy="41.4" r="0.4"/>
		<circle class="st7" cx="38.1" cy="42.8" r="0.4"/>
		<circle class="st7" cx="39.9" cy="42.8" r="0.4"/>
		<circle class="st7" cx="41.5" cy="42.8" r="0.4"/>
		<circle class="st7" cx="38.1" cy="44.2" r="0.4"/>
		<circle class="st7" cx="39.9" cy="44.2" r="0.4"/>
	</g>
	<g>
		<circle class="st7" cx="24.7" cy="39" r="0.5"/>
		<circle class="st7" cx="24.7" cy="40.9" r="0.4"/>
		<circle class="st7" cx="24.7" cy="42.4" r="0.4"/>
		<circle class="st7" cx="24.7" cy="43.8" r="0.4"/>
	</g>
	<circle class="st8" cx="49" cy="43.4" r="1.2"/>
	<circle class="st9" cx="49" cy="40" r="0.5"/>
	<circle class="st10" cx="50.4" cy="41.3" r="0.5"/>
	<circle class="st7" cx="47.6" cy="41.3" r="0.5"/>
	<circle class="st11" cx="47.6" cy="37.7" r="0.5"/>
	<circle class="st7" cx="50.6" cy="37.7" r="0.5"/>
</g>
<rect x="-0.1" y="0" class="st12" width="9.6" height="33"/>
<rect x="9.8" class="st12" width="50" height="6.9"/>
<path class="st13" d="M59.9,20.3c0,0.7-0.5,1.3-1.1,1.3H31.1c-0.6,0-1.1-0.6-1.1-1.3V8.4c0-0.7,0.5-1.3,1.1-1.3h27.7
	c0.6,0,1.1,0.6,1.1,1.3L59.9,20.3L59.9,20.3z"/>
<path class="st12" d="M30.9,29.3H9.8V7.2h42.9v7.9c0,0-0.1,0.8-0.5,0.7l-20.8,0c-0.6,0-1,0.3-1,0.3v8.4l0.5,0.1
	C30.9,24.7,30.9,29.3,30.9,29.3z"/>
<rect x="28.1" y="7.3" class="st14" width="0.4" height="20.8"/>
<rect x="9.7" y="7.8" class="st12" width="17.7" height="19.7"/>
<g>
	<path class="st15" d="M18.9,16c0.5,0,1,0.3,1.2,0.7c0,0,0,0.1,0,0.1c0,0.1,0,0.1-0.1,0.1c-0.1,0-0.1,0-0.1-0.1c0,0,0-0.1,0-0.1
		c-0.2-0.4-0.6-0.6-1-0.6c-0.6,0-1.1,0.5-1.1,1.1c0,0.6,0.5,1.1,1.1,1.1c0.6,0,1.1-0.5,1.1-1h-1.5c-0.1,0-0.1-0.1-0.1-0.1
		s0.1-0.1,0.1-0.1h1.6c0.1,0,0.1,0,0.1,0.1c0,0.8-0.6,1.4-1.4,1.4s-1.4-0.6-1.4-1.4C17.5,16.7,18.1,16,18.9,16"/>
	<path class="st15" d="M19,16.7C19,16.7,19,16.7,19,16.7c0.1,0.1,0.1,0.2,0.1,0.2l-0.5,0.5l0.5,0.5c0,0,0,0.1,0,0.2c0,0-0.1,0-0.2,0
		l-0.5-0.5c0,0-0.1-0.1-0.1-0.2s0-0.1,0.1-0.2L19,16.7C18.9,16.7,19,16.7,19,16.7"/>
</g>
<path class="st1" d="M27.4,11.7c0,0-4.2,1-9,1c-4.7,0-8.7-1-8.7-1V7.6h17.7L27.4,11.7L27.4,11.7z"/>
<path class="st1" d="M27.4,28.6H9.7v-4c0,0,4.7-1.2,8.8-1.2c4.2,0,8.9,1.2,8.9,1.2S27.4,28.6,27.4,28.6z"/>
</svg>
