<?xml version="1.0" encoding="utf-8"?>
<!-- Generator: Adobe Illustrator 16.0.0, SVG Export Plug-In . SVG Version: 6.00 Build 0)  -->
<!DOCTYPE svg PUBLIC "-//W3C//DTD SVG 1.1//EN" "http://www.w3.org/Graphics/SVG/1.1/DTD/svg11.dtd">
<svg version="1.1" id="图层_1" xmlns="http://www.w3.org/2000/svg" xmlns:xlink="http://www.w3.org/1999/xlink" x="0px" y="0px"
	 width="60px" height="46px" viewBox="-3.5 14.5 60 46" enable-background="new -3.5 14.5 60 46" xml:space="preserve">
<rect x="-3.5" y="14.5" fill="#CCCCCC" width="60.166" height="46"/>
<rect x="-3.5" y="14.736" fill="#808080" width="60.166" height="32.699"/>
<g id="controller">
	<rect x="11.73" y="50.794" fill="#383A42" width="39.395" height="9.519"/>
	<path fill="#E5DCD1" d="M40.844,59.034c0,0.595-0.419,1.075-0.936,1.075H18.655c-0.517,0-0.937-0.48-0.937-1.075v-6.521
		c0-0.595,0.419-1.075,0.937-1.075h21.252c0.517,0,0.936,0.48,0.936,1.075V59.034z M40.362,52.875c0-0.528-0.402-0.956-0.897-0.956
		H19.098c-0.496,0-0.897,0.428-0.897,0.956v5.797c0,0.528,0.402,0.956,0.897,0.956h20.366c0.496,0,0.897-0.428,0.897-0.956V52.875z"
		/>
	<rect x="-3.5" y="48.037" fill="#383A42" width="8.833" height="4.943"/>
	<rect x="-2.399" y="48.653" fill="#0E95D2" width="6.632" height="3.711"/>
	<path fill="#0E95D2" d="M33.349,58.551c0,0.087-0.202,0.315-0.302,0.315h-9.451c-0.102,0-0.444-0.229-0.444-0.315v-4.735
		c0-0.086,0.343-0.316,0.444-0.316h9.452c0.099,0,0.301,0.23,0.301,0.316V58.551z"/>
	<g>
		<g id="sign">
			<path fill="#FBFAF9" d="M1.496,50.291c-0.022,0-0.046-0.008-0.064-0.022c-0.118-0.1-0.277-0.155-0.448-0.155
				s-0.33,0.056-0.448,0.155c-0.034,0.029-0.091,0.029-0.126,0.002c-0.035-0.028-0.036-0.074-0.001-0.104
				c0.152-0.128,0.356-0.199,0.576-0.199c0.219,0,0.424,0.071,0.576,0.199c0.034,0.029,0.034,0.075-0.002,0.104
				C1.541,50.284,1.519,50.291,1.496,50.291"/>
			<path fill="#FBFAF9" d="M1.748,49.984c-0.021,0-0.042-0.007-0.059-0.018c-0.195-0.141-0.445-0.217-0.705-0.217
				s-0.51,0.076-0.705,0.217c-0.037,0.025-0.093,0.022-0.125-0.007c-0.033-0.031-0.029-0.076,0.008-0.104
				c0.228-0.162,0.52-0.252,0.823-0.252c0.303,0,0.595,0.09,0.822,0.252c0.037,0.027,0.042,0.072,0.008,0.104
				C1.798,49.977,1.773,49.984,1.748,49.984"/>
			<path fill="#FBFAF9" d="M1.998,49.68c-0.02,0-0.04-0.005-0.056-0.017c-0.271-0.179-0.61-0.277-0.958-0.277
				s-0.688,0.099-0.958,0.277c-0.038,0.026-0.094,0.021-0.125-0.01c-0.031-0.031-0.025-0.077,0.013-0.103
				c0.301-0.2,0.682-0.311,1.07-0.311c0.388,0,0.768,0.11,1.07,0.311c0.038,0.025,0.043,0.071,0.012,0.103
				C2.05,49.671,2.024,49.68,1.998,49.68"/>
		</g>
		<g id="sign_1_">
			<path fill="#FBFAF9" d="M0.472,50.76c0.022,0,0.046,0.008,0.064,0.022c0.118,0.1,0.277,0.155,0.448,0.155s0.33-0.056,0.448-0.155
				c0.034-0.029,0.091-0.029,0.126-0.002c0.035,0.028,0.036,0.074,0.001,0.104c-0.152,0.128-0.356,0.199-0.576,0.199
				c-0.219,0-0.424-0.071-0.576-0.199c-0.034-0.029-0.034-0.075,0.002-0.104C0.427,50.767,0.449,50.76,0.472,50.76"/>
			<path fill="#FBFAF9" d="M0.22,51.066c0.021,0,0.042,0.007,0.059,0.018c0.195,0.141,0.445,0.217,0.705,0.217
				s0.51-0.076,0.705-0.217c0.037-0.025,0.093-0.022,0.125,0.007c0.033,0.031,0.029,0.076-0.008,0.104
				c-0.228,0.162-0.52,0.252-0.823,0.252c-0.303,0-0.595-0.09-0.822-0.252c-0.037-0.027-0.042-0.072-0.008-0.104
				C0.17,51.074,0.195,51.066,0.22,51.066"/>
			<path fill="#FBFAF9" d="M-0.029,51.371c0.02,0,0.04,0.005,0.056,0.017c0.271,0.179,0.61,0.277,0.958,0.277
				s0.688-0.099,0.958-0.277c0.038-0.026,0.094-0.021,0.125,0.01c0.031,0.031,0.025,0.077-0.013,0.103
				c-0.301,0.2-0.682,0.311-1.07,0.311c-0.388,0-0.768-0.11-1.07-0.311c-0.038-0.025-0.043-0.071-0.012-0.103
				C-0.082,51.38-0.056,51.371-0.029,51.371"/>
		</g>
		<circle fill="#BE3E43" cx="1.014" cy="50.514" r="0.188"/>
	</g>
	<g>
		<circle fill="#B1B0A1" cx="34.734" cy="54.43" r="0.384"/>
		<circle fill="#B1B0A1" cx="36.464" cy="54.43" r="0.384"/>
		<circle fill="#B1B0A1" cx="38.11" cy="54.43" r="0.384"/>
		<circle fill="#B1B0A1" cx="34.734" cy="52.936" r="0.384"/>
		<circle fill="#B1B0A1" cx="38.11" cy="52.936" r="0.384"/>
		<circle fill="#B1B0A1" cx="34.711" cy="55.906" r="0.383"/>
		<circle fill="#B1B0A1" cx="36.441" cy="55.906" r="0.383"/>
		<circle fill="#B1B0A1" cx="38.087" cy="55.906" r="0.383"/>
		<circle fill="#B1B0A1" cx="34.711" cy="57.261" r="0.383"/>
		<circle fill="#B1B0A1" cx="36.441" cy="57.261" r="0.383"/>
		<circle fill="#B1B0A1" cx="38.087" cy="57.261" r="0.383"/>
		<circle fill="#B1B0A1" cx="34.711" cy="58.728" r="0.384"/>
		<circle fill="#B1B0A1" cx="36.441" cy="58.728" r="0.384"/>
	</g>
	<g>
		<circle fill="#B1B0A1" cx="21.294" cy="53.534" r="0.5"/>
		<circle fill="#B1B0A1" cx="21.293" cy="55.447" r="0.383"/>
		<circle fill="#B1B0A1" cx="21.294" cy="56.862" r="0.383"/>
		<circle fill="#B1B0A1" cx="21.293" cy="58.277" r="0.383"/>
	</g>
	<circle fill="#3CACA7" cx="45.591" cy="57.944" r="1.193"/>
	<circle fill="#CFAD49" cx="45.553" cy="54.526" r="0.489"/>
	<circle fill="#FB5856" cx="47.019" cy="55.797" r="0.489"/>
	<circle fill="#B1B0A1" cx="44.184" cy="55.797" r="0.489"/>
	<circle fill="#0E0010" cx="44.184" cy="52.234" r="0.489"/>
	<circle fill="#B1B0A1" cx="47.188" cy="52.234" r="0.489"/>
</g>
<rect x="-3.5" y="14.536" fill="#E6E6E6" width="9.563" height="32.98"/>
<rect x="6.333" y="14.5" fill="#E6E6E6" width="49.967" height="6.915"/>
<path fill="#B3B3B3" d="M56.5,34.806c0,0.707-0.507,1.28-1.134,1.28H27.682c-0.625,0-1.133-0.573-1.133-1.28V22.859
	c0-0.707,0.508-1.28,1.133-1.28h27.685c0.627,0,1.134,0.573,1.134,1.28V34.806z"/>
<path fill="#E6E6E6" d="M27.44,43.75H6.333V21.684h42.895v7.868c0,0-0.055,0.76-0.511,0.749l-20.83,0.034
	c-0.641-0.022-0.959,0.348-0.959,0.348v8.42l0.512,0.128V43.75z"/>
<rect x="24.665" y="21.759" fill="#666666" width="0.381" height="20.801"/>
<rect x="6.25" y="22.333" fill="#E6E6E6" width="17.667" height="19.667"/>
<g>
	<path fill="#00325F" d="M15.449,30.538c0.519,0,0.988,0.286,1.225,0.746c0.019,0.034,0.035,0.071,0.05,0.108
		c0.024,0.058-0.004,0.125-0.063,0.149c-0.059,0.023-0.126-0.005-0.15-0.063c-0.012-0.031-0.026-0.061-0.042-0.09
		c-0.197-0.385-0.588-0.623-1.021-0.623c-0.632,0-1.146,0.513-1.146,1.143c0,0.633,0.514,1.146,1.146,1.146
		c0.593,0,1.083-0.453,1.14-1.031h-1.483c-0.063,0-0.115-0.052-0.115-0.115s0.051-0.113,0.115-0.113h1.604
		c0.063,0,0.114,0.05,0.114,0.113c0,0.759-0.617,1.376-1.375,1.376s-1.375-0.617-1.375-1.376
		C14.074,31.151,14.69,30.538,15.449,30.538"/>
	<path fill="#00325F" d="M15.563,31.223c0.031,0,0.063,0.012,0.084,0.037c0.042,0.046,0.04,0.118-0.007,0.16l-0.537,0.488
		l0.537,0.489c0.047,0.042,0.05,0.114,0.007,0.162c-0.042,0.046-0.115,0.049-0.162,0.007l-0.537-0.488
		c-0.047-0.043-0.075-0.105-0.075-0.17s0.027-0.125,0.075-0.169l0.537-0.487C15.508,31.231,15.536,31.223,15.563,31.223"/>
</g>
<path fill="#808080" d="M23.975,26.231c0,0-4.24,0.984-9.006,0.984c-4.665,0-8.734-0.984-8.734-0.984v-4.165h17.741V26.231z"/>
<path fill="#808080" d="M23.975,43.131H6.234v-3.953c0,0,4.728-1.197,8.822-1.197c4.167,0,8.919,1.197,8.919,1.197V43.131z"/>
</svg>
