<?xml version="1.0" encoding="utf-8"?>
<!-- Generator: Adobe Illustrator 16.0.0, SVG Export Plug-In . SVG Version: 6.00 Build 0)  -->
<!DOCTYPE svg PUBLIC "-//W3C//DTD SVG 1.1//EN" "http://www.w3.org/Graphics/SVG/1.1/DTD/svg11.dtd">
<svg version="1.1" id="图层_1" xmlns="http://www.w3.org/2000/svg" xmlns:xlink="http://www.w3.org/1999/xlink" x="0px" y="0px"
	 width="90px" height="90px" viewBox="0 0 90 90" enable-background="new 0 0 90 90" xml:space="preserve">
<path fill="#00325F" d="M90,80.955C90,85.698,86.738,90,82.348,90H8.525C4.134,90,0,85.698,0,80.955V8.587C0,3.844,4.134,0,8.525,0
	h73.823C86.738,0,90,3.844,90,8.587V80.955z"/>
<g id="printer">
	<path fill="#959593" d="M75,58H15V25.699C15,22.988,17.374,21,19.516,21h51.817C73.476,21,75,22.988,75,25.699V58z"/>
	<path fill="#B1B0A1" d="M75,58H15V29.423C15,27.05,17.374,26,19.516,26h51.817C73.476,26,75,27.05,75,29.423V58z"/>
	<polygon fill="#FFFFFA" points="66,65 24,65 31,43 59,43 	"/>
	<g>
		<rect x="31" y="6" fill="#FFFFFA" width="28" height="18"/>
		<rect x="34" y="11" fill="#959593" width="21" height="1"/>
		<rect x="34" y="15" fill="#959593" width="21" height="1"/>
		<rect x="34" y="19" fill="#959593" width="21" height="1"/>
	</g>
</g>
<text transform="matrix(1 0 0 1 16.0981 77.1338)" fill="#FFFFFA" font-family="'ArialMT'" font-size="8">Print Copy Scan</text>
</svg>
