<svg id="图层_1" data-name="图层 1" xmlns="http://www.w3.org/2000/svg" viewBox="0 0 253.49 317.63"><defs><style>.cls-1{fill:#231815;}</style></defs><title>R</title><path class="cls-1" d="M580.49,3385.29v127h-63.7V3194.63H636.55q54.32,0,85,24.76t30.65,69q0,24.65-12.87,42.32t-37.74,28.58Q729.7,3367.63,742,3387t12.33,48v23.34a115.41,115.41,0,0,0,3.6,27.81q3.6,14.51,12.33,21.49v4.58H704.61q-8.73-7-11.34-23.34a196.42,196.42,0,0,1-2.62-31v-22.47q0-23.77-13-37t-36.54-13.2H580.49Zm0-49.08h55q26.83,0,40-11.34t13.2-33.59q0-21.81-13.2-34.69t-38.94-12.87H580.49v92.5Z" transform="translate(-516.79 -3194.63)"/></svg>