<?xml version="1.0" encoding="utf-8"?>
<!-- Generator: Adobe Illustrator 19.2.1, SVG Export Plug-In . SVG Version: 6.00 Build 0)  -->
<svg version="1.1" id="图层_1" xmlns="http://www.w3.org/2000/svg" xmlns:xlink="http://www.w3.org/1999/xlink" x="0px" y="0px"
	 viewBox="0 0 160 340" style="enable-background:new 0 0 160 340;" xml:space="preserve">
<style type="text/css">
	.st0{fill:#EDE1AE;}
	.st1{fill:#6D6D6D;}
	.st2{fill:#B1B0A1;}
	.st3{display:none;}
	.st4{display:inline;fill:#C0CED8;}
	.st5{display:inline;fill:#E6E6E6;}
	.st6{display:inline;}
	.st7{display:inline;fill:#333333;}
	.st8{fill:#E2E0D6;}
</style>
<g>
	<ellipse class="st0" cx="142.4" cy="170.3" rx="17.1" ry="21.3"/>
	<ellipse class="st0" cx="142.8" cy="97.3" rx="17.1" ry="21.3"/>
	<ellipse transform="matrix(0.9482 -0.3175 0.3175 0.9482 -5.1102 42.2241)" class="st0" cx="127" cy="36.8" rx="17.1" ry="21.3"/>
	<path class="st0" d="M125.7,246c2.5-11.5,12.1-19.2,21.3-17.1c9.2,2,14.6,13,12.1,24.5s-12.1,19.2-21.3,17.1
		C128.6,268.4,123.2,257.5,125.7,246z"/>
	
		<ellipse transform="matrix(0.9168 -0.3993 0.3993 0.9168 -112.6664 75.5844)" class="st0" cx="125.1" cy="308.2" rx="21.3" ry="17.1"/>
	<path class="st1" d="M64.4,336.4c-18.7-2-47.2-27.8-50.7-48.4c-9.6-56.7-9.9-119-9.9-119l30.4-0.6c0,0-2.5,54.3,4.9,96.6
		c3.7,20.9,39.2,46.4,39.2,46.4s10.2,2.9,4.7,15.1C77.9,337.8,64.4,336.4,64.4,336.4z"/>
	<path class="st1" d="M64.4,4.9c-18.7,2-47.2,27.8-50.7,48.4c-9.6,56.7-9.9,117-9.9,117l30.4-0.4c0,0-0.5-51.3,6.9-93.6
		c3.7-20.9,37.2-46.4,37.2-46.4s6.3-3.4,0-16.9C73.6,3,64.4,4.9,64.4,4.9z"/>
	<path class="st2" d="M120.9,331.7c-8.1,5.5-22.6,8.7-42.6,8.7c-24.1,0-55.1-12.7-66.7-46.4C0,260.6,0,170.9,0,170.9h7
		c0,0,0.6,90.3,10.7,119.4c7.5,21.7,25.8,43.9,60.6,43.9c22.9,0,41.2-6.5,41.2-6.5L120.9,331.7z"/>
	<path class="st2" d="M120.9,8.9c-8.1-5.5-22.6-8.7-42.6-8.7c-24.1,0-55.1,12.7-66.7,46.4C0,80,0,170.7,0,170.7h7
		c0,0,0.6-91.3,10.7-120.4C25.2,28.6,43.5,6.4,78.3,6.4c22.9,0,41.2,6.5,41.2,6.5L120.9,8.9z"/>
</g>
<g id="keyboard" class="st3">
	<path class="st4" d="M101.9,36.3c0,1.1-0.6,2.6-1.3,2.6H57.5c-0.8,0-1.5-1.5-1.5-2.6v-9.8c0-1.1,0.8-1.6,1.5-1.6h43.2
		c0.8,0,1.3,0.5,1.3,1.6L101.9,36.3L101.9,36.3z"/>
	<path class="st5" d="M101.9,35.5c0,1-0.4,2.4-1.2,2.4H57.5c-0.8,0-1.5-1.4-1.5-2.4v-9.2c0-1,0.8-1.5,1.5-1.5h43.3
		c0.8,0,1.2,0.5,1.2,1.5L101.9,35.5L101.9,35.5z"/>
	<g id="key" class="st6">
		<g id="line1_2_">
			<path d="M98.8,27.5c0,0.3-0.3,0.6-0.6,0.6h-4.7c-0.3,0-0.6-0.3-0.6-0.6v-1.2c0-0.3,0.3-0.6,0.6-0.6h4.7c0.3,0,0.6,0.3,0.6,0.6
				V27.5z"/>
			<path d="M68.3,27.5c0,0.3-0.3,0.6-0.6,0.6h-1.2c-0.3,0-0.6-0.3-0.6-0.6v-1.2c0-0.3,0.3-0.6,0.6-0.6h1.2c0.3,0,0.6,0.3,0.6,0.6
				V27.5z"/>
			<path d="M71.3,27.5c0,0.3-0.3,0.6-0.6,0.6h-1.2c-0.3,0-0.6-0.3-0.6-0.6v-1.2c0-0.3,0.3-0.6,0.6-0.6h1.2c0.3,0,0.6,0.3,0.6,0.6
				V27.5z"/>
			<path d="M74.2,27.5c0,0.3-0.3,0.6-0.6,0.6h-1.2c-0.3,0-0.6-0.3-0.6-0.6v-1.2c0-0.3,0.3-0.6,0.6-0.6h1.2c0.3,0,0.6,0.3,0.6,0.6
				V27.5L74.2,27.5z"/>
			<path d="M77.4,27.5c0,0.3-0.3,0.6-0.6,0.6h-1.2c-0.3,0-0.6-0.3-0.6-0.6v-1.2c0-0.3,0.3-0.6,0.6-0.6h1.2c0.3,0,0.6,0.3,0.6,0.6
				V27.5z"/>
			<path d="M80.3,27.5c0,0.3-0.3,0.6-0.6,0.6h-1.2c-0.3,0-0.6-0.3-0.6-0.6v-1.2c0-0.3,0.3-0.6,0.6-0.6h1.2c0.3,0,0.6,0.3,0.6,0.6
				V27.5L80.3,27.5z"/>
			<path d="M83.3,27.5c0,0.3-0.3,0.6-0.6,0.6h-1.2c-0.3,0-0.6-0.3-0.6-0.6v-1.2c0-0.3,0.3-0.6,0.6-0.6h1.2c0.3,0,0.6,0.3,0.6,0.6
				V27.5z"/>
			<path d="M86.3,27.5c0,0.3-0.3,0.6-0.6,0.6h-1.2c-0.3,0-0.6-0.3-0.6-0.6v-1.2c0-0.3,0.3-0.6,0.6-0.6h1.2c0.3,0,0.6,0.3,0.6,0.6
				V27.5z"/>
			<path d="M89.4,27.5c0,0.3-0.3,0.6-0.6,0.6h-1.2c-0.3,0-0.6-0.3-0.6-0.6v-1.2c0-0.3,0.3-0.6,0.6-0.6h1.2c0.3,0,0.6,0.3,0.6,0.6
				V27.5L89.4,27.5z"/>
			<path d="M92.4,27.5c0,0.3-0.3,0.6-0.6,0.6h-1.2c-0.3,0-0.6-0.3-0.6-0.6v-1.2c0-0.3,0.3-0.6,0.6-0.6h1.2c0.3,0,0.6,0.3,0.6,0.6
				V27.5L92.4,27.5z"/>
			<path d="M65.4,27.5c0,0.3-0.3,0.6-0.6,0.6h-4.7c-0.3,0-0.6-0.3-0.6-0.6v-1.2c0-0.3,0.3-0.6,0.6-0.6h4.7c0.3,0,0.6,0.3,0.6,0.6
				V27.5L65.4,27.5z"/>
		</g>
		<g id="line2">
			<path d="M64.3,30.7c0,0.3-0.3,0.6-0.6,0.6h-1.2c-0.3,0-0.6-0.3-0.6-0.6v-1.2c0-0.3,0.3-0.6,0.6-0.6h1.2c0.3,0,0.6,0.3,0.6,0.6
				V30.7z"/>
			<path d="M67.3,30.7c0,0.3-0.3,0.6-0.6,0.6h-1.2c-0.3,0-0.6-0.3-0.6-0.6v-1.2c0-0.3,0.3-0.6,0.6-0.6h1.2c0.3,0,0.6,0.3,0.6,0.6
				V30.7L67.3,30.7z"/>
			<path d="M70,30.7c0,0.3-0.3,0.6-0.6,0.6h-1.2c-0.3,0-0.6-0.3-0.6-0.6v-1.2c0-0.3,0.3-0.6,0.6-0.6h1.2c0.3,0,0.6,0.3,0.6,0.6V30.7
				z"/>
			<path d="M73.2,30.7c0,0.3-0.3,0.6-0.6,0.6h-1.2c-0.3,0-0.6-0.3-0.6-0.6v-1.2c0-0.3,0.3-0.6,0.6-0.6h1.2c0.3,0,0.6,0.3,0.6,0.6
				V30.7z"/>
			<path d="M76.1,30.7c0,0.3-0.3,0.6-0.6,0.6h-1.2c-0.3,0-0.6-0.3-0.6-0.6v-1.2c0-0.3,0.3-0.6,0.6-0.6h1.2c0.3,0,0.6,0.3,0.6,0.6
				V30.7z"/>
			<path d="M79.3,30.7c0,0.3-0.3,0.6-0.6,0.6h-1.2c-0.3,0-0.6-0.3-0.6-0.6v-1.2c0-0.3,0.3-0.6,0.6-0.6h1.2c0.3,0,0.6,0.3,0.6,0.6
				V30.7L79.3,30.7z"/>
			<path d="M82.2,30.7c0,0.3-0.3,0.6-0.6,0.6h-1.2c-0.3,0-0.6-0.3-0.6-0.6v-1.2c0-0.3,0.3-0.6,0.6-0.6h1.2c0.3,0,0.6,0.3,0.6,0.6
				V30.7z"/>
			<path d="M85.1,30.7c0,0.3-0.3,0.6-0.6,0.6h-1.2c-0.3,0-0.6-0.3-0.6-0.6v-1.2c0-0.3,0.3-0.6,0.6-0.6h1.2c0.3,0,0.6,0.3,0.6,0.6
				V30.7L85.1,30.7z"/>
			<path d="M88.4,30.7c0,0.3-0.3,0.6-0.6,0.6h-1.2c-0.3,0-0.6-0.3-0.6-0.6v-1.2c0-0.3,0.3-0.6,0.6-0.6h1.2c0.3,0,0.6,0.3,0.6,0.6
				V30.7L88.4,30.7z"/>
			<path d="M91.3,30.7c0,0.3-0.3,0.6-0.6,0.6h-1.2c-0.3,0-0.6-0.3-0.6-0.6v-1.2c0-0.3,0.3-0.6,0.6-0.6h1.2c0.3,0,0.6,0.3,0.6,0.6
				V30.7z"/>
			<path d="M94.5,30.7c0,0.3-0.3,0.6-0.6,0.6h-1.2c-0.3,0-0.6-0.3-0.6-0.6v-1.2c0-0.3,0.3-0.6,0.6-0.6h1.2c0.3,0,0.6,0.3,0.6,0.6
				V30.7L94.5,30.7z"/>
			<path d="M97.4,30.7c0,0.3-0.3,0.6-0.6,0.6h-1.2c-0.3,0-0.6-0.3-0.6-0.6v-1.2c0-0.3,0.3-0.6,0.6-0.6h1.2c0.3,0,0.6,0.3,0.6,0.6
				V30.7z"/>
		</g>
		<g id="line3_2_">
			<path d="M98.8,33.7c0,0.3-0.3,0.6-0.6,0.6h-4.7c-0.3,0-0.6-0.3-0.6-0.6v-1.2c0-0.3,0.3-0.6,0.6-0.6h4.7c0.3,0,0.6,0.3,0.6,0.6
				V33.7z"/>
			<path d="M68.4,33.7c0,0.3-0.3,0.6-0.6,0.6h-1.2c-0.3,0-0.6-0.3-0.6-0.6v-1.2c0-0.3,0.3-0.6,0.6-0.6h1.2c0.3,0,0.6,0.3,0.6,0.6
				V33.7z"/>
			<path d="M71.3,33.7c0,0.3-0.3,0.6-0.6,0.6h-1.2c-0.3,0-0.6-0.3-0.6-0.6v-1.2c0-0.3,0.3-0.6,0.6-0.6h1.2c0.3,0,0.6,0.3,0.6,0.6
				V33.7z"/>
			<path d="M74.2,33.7c0,0.3-0.3,0.6-0.6,0.6h-1.2c-0.3,0-0.6-0.3-0.6-0.6v-1.2c0-0.3,0.3-0.6,0.6-0.6h1.2c0.3,0,0.6,0.3,0.6,0.6
				V33.7z"/>
			<path d="M77.3,33.7c0,0.3-0.3,0.6-0.6,0.6h-1.2c-0.3,0-0.6-0.3-0.6-0.6v-1.2c0-0.3,0.3-0.6,0.6-0.6h1.2c0.3,0,0.6,0.3,0.6,0.6
				V33.7z"/>
			<path d="M80.2,33.7c0,0.3-0.3,0.6-0.6,0.6h-1.2c-0.3,0-0.6-0.3-0.6-0.6v-1.2c0-0.3,0.3-0.6,0.6-0.6h1.2c0.3,0,0.6,0.3,0.6,0.6
				V33.7z"/>
			<path d="M83.4,33.7c0,0.3-0.3,0.6-0.6,0.6h-1.2c-0.3,0-0.6-0.3-0.6-0.6v-1.2c0-0.3,0.3-0.6,0.6-0.6h1.2c0.3,0,0.6,0.3,0.6,0.6
				V33.7z"/>
			<path d="M86.3,33.7c0,0.3-0.3,0.6-0.6,0.6h-1.2c-0.3,0-0.6-0.3-0.6-0.6v-1.2c0-0.3,0.3-0.6,0.6-0.6h1.2c0.3,0,0.6,0.3,0.6,0.6
				V33.7z"/>
			<path d="M89.4,33.7c0,0.3-0.3,0.6-0.6,0.6h-1.2c-0.3,0-0.6-0.3-0.6-0.6v-1.2c0-0.3,0.3-0.6,0.6-0.6h1.2c0.3,0,0.6,0.3,0.6,0.6
				V33.7L89.4,33.7z"/>
			<path d="M92.4,33.7c0,0.3-0.3,0.6-0.6,0.6h-1.2c-0.3,0-0.6-0.3-0.6-0.6v-1.2c0-0.3,0.3-0.6,0.6-0.6h1.2c0.3,0,0.6,0.3,0.6,0.6
				V33.7L92.4,33.7z"/>
			<path d="M65.4,33.7c0,0.3-0.3,0.6-0.6,0.6h-4.7c-0.3,0-0.6-0.3-0.6-0.6v-1.2c0-0.3,0.3-0.6,0.6-0.6h4.7c0.3,0,0.6,0.3,0.6,0.6
				V33.7L65.4,33.7z"/>
		</g>
		<g id="line4">
			<path d="M64.5,36.8c0,0.3-0.3,0.6-0.6,0.6h-1.2c-0.3,0-0.6-0.3-0.6-0.6v-1.2c0-0.3,0.3-0.6,0.6-0.6h1.2c0.3,0,0.6,0.3,0.6,0.6
				V36.8z"/>
			<path d="M67.4,36.8c0,0.3-0.3,0.6-0.6,0.6h-1.2c-0.3,0-0.6-0.3-0.6-0.6v-1.2c0-0.3,0.3-0.6,0.6-0.6h1.2c0.3,0,0.6,0.3,0.6,0.6
				C67.4,35.6,67.4,36.8,67.4,36.8z"/>
			<path d="M70.3,36.8c0,0.3-0.3,0.6-0.6,0.6h-1.2c-0.3,0-0.6-0.3-0.6-0.6v-1.2c0-0.3,0.3-0.6,0.6-0.6h1.2c0.3,0,0.6,0.3,0.6,0.6
				V36.8L70.3,36.8z"/>
			<path d="M91.1,36.8c0,0.3-0.3,0.6-0.6,0.6h-1.2c-0.3,0-0.6-0.3-0.6-0.6v-1.2c0-0.3,0.3-0.6,0.6-0.6h1.2c0.3,0,0.6,0.3,0.6,0.6
				V36.8L91.1,36.8z"/>
			<path d="M94.3,36.8c0,0.3-0.3,0.6-0.6,0.6h-1.2c-0.3,0-0.6-0.3-0.6-0.6v-1.2c0-0.3,0.3-0.6,0.6-0.6h1.2c0.3,0,0.6,0.3,0.6,0.6
				V36.8z"/>
			<path d="M97.3,36.8c0,0.3-0.3,0.6-0.6,0.6h-1.2c-0.3,0-0.6-0.3-0.6-0.6v-1.2c0-0.3,0.3-0.6,0.6-0.6h1.2c0.3,0,0.6,0.3,0.6,0.6
				V36.8z"/>
			<path d="M88.1,36.7c0,0.4-0.3,0.7-0.6,0.7h-16c-0.3,0-0.5-0.4-0.5-0.7v-1c0-0.4,0.2-0.7,0.5-0.7h16c0.3,0,0.6,0.3,0.6,0.7V36.7
				L88.1,36.7z"/>
		</g>
	</g>
</g>
<g id="monitor" class="st3">
	<path class="st7" d="M132.6,17.5c0,0.5-0.3,1.2-1,1.2H32c-0.7,0-1.6-0.7-1.6-1.2v-3c0-0.5,0.9-0.4,1.6-0.4h99.6c0.7,0,1-0.1,1,0.4
		V17.5L132.6,17.5z"/>
</g>
<path class="st8" d="M81.5,314.3L81.5,314.3c-21.7,0-33.6-18.6-39.5-39.4c-7.8-27.9-7.7-80.5-7.8-105c-0.1-27,1.2-75.4,8.5-99.6
	c8.7-28.7,17.1-40.7,38.8-40.7c0,0,0,0,0,0c21.7,0,33.4,16,39.4,39.4c6.8,26.6,6.8,74,6.6,101.5c-0.2,24.3,0,78.4-6.6,104.3
	C115.5,295.9,103.1,314.3,81.5,314.3z"/>
<path class="st1" d="M70.2,326.1"/>
<g>
</g>
<g>
</g>
<g>
</g>
<g>
</g>
<g>
</g>
<g>
</g>
</svg>
