<svg id="图层_1" data-name="图层 1" xmlns="http://www.w3.org/2000/svg" viewBox="0 0 245.23 326.79"><defs><style>.cls-1{fill:#231815;}</style></defs><title>S</title><path class="cls-1" d="M268.3,3853.45q0-18.33-13-29.45t-45.48-20.94q-56.72-16.36-85.73-38.83t-29-61.52q0-39,33.27-63.81t85-24.76q52.36,0,85.3,27.81t31.85,68.61l-0.44,1.31H268.3q0-22-14.73-35.67t-41.34-13.63q-25.52,0-39.48,11.34t-14,29q0,16.15,14.94,26.5t51.59,21.92Q277.9,3766,305,3790T332,3853q0,40.8-32.18,64.35t-85,23.56q-51.92,0-90.53-26.72T86.8,3839.27l0.44-1.31h62q0,28.36,17.34,41.56t48.32,13.2q26,0,39.7-10.69T268.3,3853.45Z" transform="translate(-86.77 -3614.14)"/></svg>