<?xml version="1.0" encoding="utf-8"?>
<!-- Generator: Adobe Illustrator 16.0.0, SVG Export Plug-In . SVG Version: 6.00 Build 0)  -->
<!DOCTYPE svg PUBLIC "-//W3C//DTD SVG 1.1//EN" "http://www.w3.org/Graphics/SVG/1.1/DTD/svg11.dtd">
<svg version="1.1" id="图层_1" xmlns="http://www.w3.org/2000/svg" xmlns:xlink="http://www.w3.org/1999/xlink" x="0px" y="0px"
	 width="252px" height="58px" viewBox="354 31 252 58" enable-background="new 354 31 252 58" xml:space="preserve">
<g id="图层_1_1_">
	<path opacity="0.6" fill="#534741" d="M605.581,81.16c0,0.469-249.412,0.469-249.412,0V40.839h249.412V81.16L605.581,81.16z"/>
	<path fill="#C1B08E" stroke="#4D4D4D" stroke-width="2" stroke-miterlimit="10" d="M603.667,78.283c0,0.469-0.675,0.85-1.508,0.85
		H358.012c-0.832,0-1.507-0.381-1.507-0.85V37.962c0-0.468,0.674-0.849,1.507-0.849h244.147c0.833,0,1.508,0.38,1.508,0.849V78.283
		L603.667,78.283z"/>
	<g id="shelves_1_" display="none">
		<path display="inline" fill="#AF934E" stroke="#4D4D4D" stroke-width="2" stroke-miterlimit="10" d="M402.848,82.421
			c0,0.66-0.553,1.193-1.236,1.193h-0.927c-0.683,0-1.236-0.533-1.236-1.193V38.893c0-0.658,0.553-1.192,1.236-1.192h0.927
			c0.682,0,1.236,0.534,1.236,1.192V82.421z"/>
		<path display="inline" fill="#AF934E" stroke="#4D4D4D" stroke-width="2" stroke-miterlimit="10" d="M455.371,82.421
			c0,0.66-0.553,1.193-1.236,1.193h-0.926c-0.683,0-1.236-0.533-1.236-1.193V38.893c0-0.658,0.553-1.192,1.236-1.192h0.926
			c0.683,0,1.236,0.534,1.236,1.192V82.421z"/>
		<path display="inline" fill="#AF934E" stroke="#4D4D4D" stroke-width="2" stroke-miterlimit="10" d="M507.893,82.421
			c0,0.66-0.554,1.193-1.236,1.193h-0.928c-0.682,0-1.234-0.533-1.234-1.193V38.893c0-0.658,0.553-1.192,1.234-1.192h0.928
			c0.683,0,1.236,0.534,1.236,1.192V82.421z"/>
		<path display="inline" fill="#AF934E" stroke="#4D4D4D" stroke-width="2" stroke-miterlimit="10" d="M560.414,82.421
			c0,0.66-0.553,1.193-1.235,1.193h-0.927c-0.682,0-1.235-0.533-1.235-1.193V38.893c0-0.658,0.554-1.192,1.235-1.192h0.927
			c0.683,0,1.235,0.534,1.235,1.192V82.421z"/>
	</g>
</g>
<line fill="none" stroke="#4D4D4D" stroke-width="2" stroke-miterlimit="10" x1="375.167" y1="36.5" x2="375.167" y2="79.5"/>
<line fill="none" stroke="#4D4D4D" stroke-width="2" stroke-miterlimit="10" x1="585.834" y1="37.5" x2="585.834" y2="78.834"/>
</svg>
