<?xml version="1.0" encoding="utf-8"?>
<!-- Generator: Adobe Illustrator 16.0.0, SVG Export Plug-In . SVG Version: 6.00 Build 0)  -->
<!DOCTYPE svg PUBLIC "-//W3C//DTD SVG 1.1//EN" "http://www.w3.org/Graphics/SVG/1.1/DTD/svg11.dtd">
<svg version="1.1" id="图层_1" xmlns="http://www.w3.org/2000/svg" xmlns:xlink="http://www.w3.org/1999/xlink" x="0px" y="0px"
	 width="991px" height="205.592px" viewBox="5.5 6.5 991 205.592" enable-background="new 5.5 6.5 991 205.592"
	 xml:space="preserve">
<path fill="#CCCCCC" stroke="#4D4D4D" stroke-width="2" stroke-miterlimit="10" d="M994.719,186.01c0,1.866-2.686,3.38-6.001,3.38
	H16.502c-3.315,0-6.001-1.514-6.001-3.38V25.452c0-1.866,2.686-3.38,6.001-3.38h972.216c3.315,0,6.001,1.514,6.001,3.38V186.01z"/>
<g id="shelves_1_">
	<path fill="#CCCCCC" stroke="#4D4D4D" stroke-width="2" stroke-miterlimit="10" d="M195.042,195.541
		c0,2.719-2.204,4.922-4.921,4.922h-3.691c-2.717,0-4.921-2.203-4.921-4.922V15.921c0-2.717,2.204-4.921,4.921-4.921h3.691
		c2.717,0,4.921,2.204,4.921,4.921V195.541z"/>
	<path fill="#CCCCCC" stroke="#4D4D4D" stroke-width="2" stroke-miterlimit="10" d="M404.189,195.541
		c0,2.719-2.204,4.922-4.921,4.922h-3.691c-2.717,0-4.921-2.203-4.921-4.922V15.921c0-2.717,2.204-4.921,4.921-4.921h3.691
		c2.717,0,4.921,2.204,4.921,4.921V195.541z"/>
	<path fill="#CCCCCC" stroke="#4D4D4D" stroke-width="2" stroke-miterlimit="10" d="M613.333,195.541
		c0,2.719-2.203,4.922-4.921,4.922h-3.691c-2.717,0-4.92-2.203-4.92-4.922V15.921c0-2.717,2.203-4.921,4.92-4.921h3.691
		c2.718,0,4.921,2.204,4.921,4.921V195.541z"/>
	<path fill="#CCCCCC" stroke="#4D4D4D" stroke-width="2" stroke-miterlimit="10" d="M822.48,195.541
		c0,2.719-2.204,4.922-4.922,4.922h-3.69c-2.717,0-4.921-2.203-4.921-4.922V15.921c0-2.717,2.204-4.921,4.921-4.921h3.69
		c2.718,0,4.922,2.204,4.922,4.921V195.541z"/>
</g>
<g id="block_1_">
	<g>
		<path fill="#FBFAF9" stroke="#4D4D4D" stroke-width="2" stroke-miterlimit="10" d="M200.5,205.552V35.08
			c0-6.63,2.938-19.58,11.168-19.58h21.348c8.231,0,9.484,12.949,9.484,19.58v170.472c0,0-0.87-10.204-21.744-10.204
			C199.896,195.348,200.5,205.552,200.5,205.552z"/>
		<path fill="#A1D6F7" d="M200,207.953c-3.321,0.005-4.5-2.152-4.5-4.803V21.875c0-10.204,18.405-10.204,24.5-10.204
			c6.097,0,24.5,0,24.5,9.004V203.15c0,2.651,0.125,4.803-3,4.803c-1.464,0-3-2.202-3-4.803V25.477c0-6.103-15.2-6.604-17-6.604
			c-1.734,0-17,0.5-17,6.604V203.15C204.5,205.75,202.346,207.95,200,207.953z"/>
	</g>
	<g>
		<path fill="#FBFAF9" stroke="#4D4D4D" stroke-width="2" stroke-miterlimit="10" d="M248.5,205.552V35.08
			c0-6.63,4.159-19.58,12.389-19.58h21.347c8.232,0,9.265,12.949,9.265,19.58v170.472c0,0-1.37-10.204-22.245-10.204
			C248.396,195.348,248.5,205.552,248.5,205.552z"/>
		<path fill="#E5DCD1" d="M248.5,207.953c-3.323,0.005-4-2.152-4-4.803V21.875c0-10.204,19.404-10.204,25.5-10.204
			c6.097,0,25.5,0,25.5,9.004V203.15c0,2.651-0.874,4.803-4,4.803c-1.465,0-4-2.202-4-4.803V25.477c0-6.103-15.7-6.604-17.5-6.604
			c-1.735,0-17.5,0.5-17.5,6.604V203.15C252.5,205.75,250.845,207.95,248.5,207.953z"/>
	</g>
	<g display="none">
		<path display="inline" fill="#FBFAF9" stroke="#4D4D4D" stroke-width="2" stroke-miterlimit="10" d="M300.5,205.552V35.08
			c0-6.63,1.38-19.58,9.609-19.58h21.348c8.231,0,10.042,12.949,10.042,19.58v170.472c0,0-0.371-10.204-21.244-10.204
			C299.395,195.348,300.5,205.552,300.5,205.552z"/>
		<path display="inline" fill="#998D74" d="M300,207.953c-3.321,0.005-4.5-2.152-4.5-4.803V21.875
			c0-10.204,17.404-10.204,23.5-10.204c6.097,0,23.5,0,23.5,9.004V203.15c0,2.651,0.624,4.803-2.5,4.803
			c-1.464,0-2.5-2.202-2.5-4.803V25.477c0-6.103-14.7-6.604-16.5-6.604c-1.735,0-16.5,0.5-16.5,6.604V203.15
			C304.5,205.75,302.347,207.95,300,207.953z"/>
	</g>
	<g>
		<path fill="#FBFAF9" stroke="#4D4D4D" stroke-width="2" stroke-miterlimit="10" d="M344.5,205.552V35.08
			c0-6.63,3.6-19.58,11.83-19.58h21.347c8.231,0,8.823,12.949,8.823,19.58v170.472c0,0-0.87-10.204-21.744-10.204
			C343.896,195.348,344.5,205.552,344.5,205.552z"/>
		<path fill="#B28338" d="M344,207.953c-3.324,0.005-4.5-2.152-4.5-4.803V21.875c0-10.204,18.903-10.204,25-10.204s25,0,25,9.004
			V203.15c0,2.651-0.374,4.803-3.5,4.803c-1.463,0-3.5-2.202-3.5-4.803V25.477c0-6.103-15.199-6.604-17-6.604
			c-1.735,0-17,0.5-17,6.604V203.15C348.5,205.75,346.346,207.95,344,207.953z"/>
	</g>
</g>
<g id="block_4_">
	<g>
		<path fill="#FBFAF9" stroke="#4D4D4D" stroke-width="2" stroke-miterlimit="10" d="M36.5,205.552V35.08
			c0-6.63,2.52-19.58,10.75-19.58h21.347c8.231,0,8.903,12.949,8.903,19.58v170.472c0,0-0.369-10.204-21.244-10.204
			C35.396,195.348,36.5,205.552,36.5,205.552z"/>
		<path fill="#A1D6F7" d="M36,207.953c-3.321,0.005-4.5-2.152-4.5-4.803V21.875c0-10.204,17.905-10.204,24-10.204
			c6.097,0,24,0,24,9.004V203.15c0,2.651,0.125,4.803-3,4.803c-1.465,0-3-2.202-3-4.803V25.477c0-6.103-14.7-6.604-16.5-6.604
			c-1.735,0-16.5,0.5-16.5,6.604V203.15C40.5,205.75,38.345,207.95,36,207.953z"/>
	</g>
	<g>
		<path fill="#FBFAF9" stroke="#4D4D4D" stroke-width="2" stroke-miterlimit="10" d="M83.5,205.552V35.08
			c0-6.63,4.74-19.58,12.97-19.58h21.347c8.232,0,9.684,12.949,9.684,19.58v170.472c0,0-1.87-10.204-22.744-10.204
			C83.896,195.348,83.5,205.552,83.5,205.552z"/>
		<path fill="#E5DCD1" d="M83.5,207.953c-3.323,0.005-4-2.152-4-4.803V21.875c0-10.204,19.904-10.204,26-10.204
			c6.097,0,26,0,26,9.004V203.15c0,2.651-0.875,4.803-4,4.803c-1.465,0-4-2.202-4-4.803V25.477c0-6.103-16.201-6.604-18-6.604
			c-1.736,0-18,0.5-18,6.604V203.15C87.5,205.75,85.846,207.95,83.5,207.953z"/>
	</g>
	<g>
		<path fill="#FBFAF9" stroke="#4D4D4D" stroke-width="2" stroke-miterlimit="10" d="M136.5,205.552V35.08
			c0-6.63,2.561-19.58,10.791-19.58h21.348c8.231,0,7.861,12.949,7.861,19.58v170.472c0,0,0.13-10.204-20.744-10.204
			C134.896,195.348,136.5,205.552,136.5,205.552z"/>
		<path fill="#959593" d="M136,207.953c-3.324,0.005-4.5-2.152-4.5-4.803V21.875c0-10.204,18.403-10.204,24.5-10.204
			c6.098,0,24.5,0,24.5,9.004V203.15c0,2.651-0.875,4.803-4,4.803c-1.463,0-4-2.202-4-4.803V25.477c0-6.103-14.2-6.604-16-6.604
			c-1.735,0-16,0.5-16,6.604V203.15C140.5,205.75,138.346,207.95,136,207.953z"/>
	</g>
</g>
<g id="block">
	<g display="none">
		<path display="inline" fill="#FBFAF9" stroke="#4D4D4D" stroke-width="2" stroke-miterlimit="10" d="M407.5,205.552V35.08
			c0-6.63,3.23-19.58,11.46-19.58h21.348c8.231,0,9.192,12.949,9.192,19.58v170.472c0,0-0.87-10.204-21.744-10.204
			C406.895,195.348,407.5,205.552,407.5,205.552z"/>
		<path display="inline" fill="#A1D6F7" d="M406,207.953c-3.321,0.005-4.5-2.152-4.5-4.803V21.875
			c0-10.204,18.404-10.204,24.5-10.204c6.097,0,24.5,0,24.5,9.004V203.15c0,2.651-0.376,4.803-3.5,4.803
			c-1.465,0-3.5-2.202-3.5-4.803V25.477c0-6.103-14.701-6.604-16.5-6.604c-1.735,0-16.5,0.5-16.5,6.604V203.15
			C410.5,205.75,408.346,207.95,406,207.953z"/>
	</g>
	<g display="none">
		<path display="inline" fill="#FBFAF9" stroke="#4D4D4D" stroke-width="2" stroke-miterlimit="10" d="M454.5,205.552V35.08
			c0-6.63,4.197-19.58,12.427-19.58h21.348c8.231,0,9.225,12.949,9.225,19.58v170.472c0,0-1.373-10.204-22.245-10.204
			C454.396,195.348,454.5,205.552,454.5,205.552z"/>
		<path display="inline" fill="#E5DCD1" d="M454.5,207.953c-3.324,0.005-4-2.152-4-4.803V21.875
			c0-10.204,19.404-10.204,25.499-10.204c6.097,0,25.501,0,25.501,9.004V203.15c0,2.651-0.875,4.803-4,4.803
			c-1.466,0-4-2.202-4-4.803V25.477c0-6.103-15.703-6.604-17.5-6.604c-1.735,0-17.5,0.5-17.5,6.604V203.15
			C458.5,205.75,456.846,207.95,454.5,207.953z"/>
	</g>
	<g>
		<path fill="#FBFAF9" stroke="#4D4D4D" stroke-width="2" stroke-miterlimit="10" d="M506.5,205.552V35.08
			c0-6.63,1.42-19.58,9.648-19.58h21.347c8.233,0,10.005,12.949,10.005,19.58v170.472c0,0-0.368-10.204-21.242-10.204
			C505.397,195.348,506.5,205.552,506.5,205.552z"/>
		<path fill="#998D74" d="M506,207.953c-3.32,0.005-4.5-2.152-4.5-4.803V21.875c0-10.204,17.402-10.204,23.5-10.204
			c6.096,0,23.5,0,23.5,9.004V203.15c0,2.651,0.627,4.803-2.5,4.803c-1.464,0-2.5-2.202-2.5-4.803V25.477
			c0-6.103-14.7-6.604-16.5-6.604c-1.735,0-16.5,0.5-16.5,6.604V203.15C510.5,205.75,508.346,207.95,506,207.953z"/>
	</g>
	<g>
		<path fill="#FBFAF9" stroke="#4D4D4D" stroke-width="2" stroke-miterlimit="10" d="M553.5,205.552V35.08
			c0-6.63,3.64-19.58,11.87-19.58h21.348c8.231,0,8.782,12.949,8.782,19.58v170.472c0,0-0.87-10.204-21.744-10.204
			C552.894,195.348,553.5,205.552,553.5,205.552z"/>
		<path fill="#5E5951" d="M553,207.953c-3.324,0.005-4.5-2.152-4.5-4.803V21.875c0-10.204,19.402-10.204,25.5-10.204
			s25.5,0,25.5,9.004V203.15c0,2.651-0.875,4.803-4,4.803c-1.463,0-4-2.202-4-4.803V25.477c0-6.103-15.198-6.604-17-6.604
			c-1.735,0-17,0.5-17,6.604V203.15C557.5,205.75,555.344,207.95,553,207.953z"/>
	</g>
</g>
<g id="block_2_">
	<g>
		<path fill="#FBFAF9" stroke="#4D4D4D" stroke-width="2" stroke-miterlimit="10" d="M621.5,205.552V35.08
			c0-6.63-0.731-19.58,7.499-19.58h24.348c8.232,0,8.153,12.949,8.153,19.58v170.472c0,0,0.128-10.204-20.744-10.204
			C619.896,195.348,621.5,205.552,621.5,205.552z"/>
		<path fill="#A1D6F7" d="M619,207.953c-3.322,0.005-4.5-2.152-4.5-4.803V21.875c0-10.204,18.406-10.204,24.5-10.204
			c6.096,0,24.5,0,24.5,9.004V203.15c0,2.651-0.375,4.803-3.5,4.803c-1.465,0-3.5-2.202-3.5-4.803V25.477
			c0-6.103-14.702-6.604-16.5-6.604c-1.737,0-16.5,0.5-16.5,6.604V203.15C623.5,205.75,621.345,207.95,619,207.953z"/>
	</g>
	<g>
		<path fill="#FBFAF9" stroke="#4D4D4D" stroke-width="2" stroke-miterlimit="10" d="M667.5,205.552V35.08
			c0-6.63,0.236-19.58,8.466-19.58h25.349c8.231,0,9.186,12.949,9.186,19.58v170.472c0,0-1.371-10.204-22.242-10.204
			C667.395,195.348,667.5,205.552,667.5,205.552z"/>
		<path fill="#E5DCD1" d="M667,207.953c-3.322,0.005-3.5-2.152-3.5-4.803V21.875c0-10.204,19.904-10.204,26-10.204
			c6.098,0,26,0,26,9.004V203.15c0,2.651-1.373,4.803-4.5,4.803c-1.465,0-4.5-2.202-4.5-4.803V25.477c0-6.103-16.201-6.604-18-6.604
			c-1.736,0-18,0.5-18,6.604V203.15C670.5,205.75,669.346,207.95,667,207.953z"/>
	</g>
	<g display="none">
		<path display="inline" fill="#FBFAF9" stroke="#4D4D4D" stroke-width="2" stroke-miterlimit="10" d="M727.5,205.552V35.08
			c0-6.63,0.458-19.58,8.688-19.58h21.348c8.231,0,8.965,12.949,8.965,19.58v170.472c0,0,0.629-10.204-20.246-10.204
			C725.393,195.348,727.5,205.552,727.5,205.552z"/>
		<path display="inline" fill="#998D74" d="M727,207.953c-3.32,0.005-4.5-2.152-4.5-4.803V21.875c0-10.204,16.902-10.204,23-10.204
			s23,0,23,9.004V203.15c0,2.651,0.125,4.803-3,4.803c-1.463,0-3-2.202-3-4.803V25.477c0-6.103-13.698-6.604-15.5-6.604
			c-1.733,0-15.5,0.5-15.5,6.604V203.15C731.5,205.75,729.346,207.95,727,207.953z"/>
	</g>
	<g display="none">
		<path display="inline" fill="#FBFAF9" stroke="#4D4D4D" stroke-width="2" stroke-miterlimit="10" d="M773.5,205.552V35.08
			c0-6.63,3.679-19.58,11.909-19.58h21.349c8.229,0,8.742,12.949,8.742,19.58v170.472c0,0-0.87-10.204-21.744-10.204
			C772.896,195.348,773.5,205.552,773.5,205.552z"/>
		<path display="inline" fill="#B28338" d="M773,207.953c-3.32,0.005-4.5-2.152-4.5-4.803V21.875c0-10.204,18.904-10.204,25-10.204
			c6.098,0,25,0,25,9.004V203.15c0,2.651-0.376,4.803-3.5,4.803c-1.464,0-3.5-2.202-3.5-4.803V25.477c0-6.103-15.198-6.604-17-6.604
			c-1.735,0-17,0.5-17,6.604V203.15C777.5,205.75,775.348,207.95,773,207.953z"/>
	</g>
</g>
<g id="block_3_">
	<g>
		<path fill="#FBFAF9" stroke="#4D4D4D" stroke-width="2" stroke-miterlimit="10" d="M827.5,205.552V35.08
			c0-6.63,4.055-19.58,12.286-19.58h21.347c8.231,0,10.367,12.949,10.367,19.58v170.472c0,0-1.871-10.204-22.746-10.204
			C827.895,195.348,827.5,205.552,827.5,205.552z"/>
		<path fill="#5E5951" d="M826.5,207.953c-3.323,0.005-4-2.152-4-4.803V21.875c0-10.204,18.404-10.204,24.5-10.204
			c6.098,0,24.5,0,24.5,9.004V203.15c0,2.651,0.623,4.803-2.5,4.803c-1.467,0-2.5-2.202-2.5-4.803V25.477
			c0-6.103-16.203-6.604-18-6.604c-1.734,0-18,0.5-18,6.604V203.15C830.5,205.75,828.848,207.95,826.5,207.953z"/>
	</g>
	<g>
		<path fill="#FBFAF9" stroke="#4D4D4D" stroke-width="2" stroke-miterlimit="10" d="M875.5,205.552V35.08
			c0-6.63,4.022-19.58,12.252-19.58h21.349c8.231,0,8.399,12.949,8.399,19.58v170.472c0,0-0.874-10.204-21.744-10.204
			C874.893,195.348,875.5,205.552,875.5,205.552z"/>
		<path fill="#E5DCD1" d="M875.5,207.953c-3.324,0.005-4-2.152-4-4.803V21.875c0-10.204,18.904-10.204,25-10.204s25,0,25,9.004
			V203.15c0,2.651-0.375,4.803-3.5,4.803c-1.465,0-3.5-2.202-3.5-4.803V25.477c0-6.103-15.704-6.604-17.5-6.604
			c-1.737,0-17.5,0.5-17.5,6.604V203.15C879.5,205.75,877.846,207.95,875.5,207.953z"/>
	</g>
	<g>
		<path fill="#FBFAF9" stroke="#4D4D4D" stroke-width="2" stroke-miterlimit="10" d="M925.5,205.552V35.08
			c0-6.63,3.243-19.58,11.474-19.58h21.348c8.231,0,10.179,12.949,10.179,19.58v170.472c0,0-1.373-10.204-22.242-10.204
			C925.395,195.348,925.5,205.552,925.5,205.552z"/>
		<path fill="#998D74" d="M925.5,207.953c-3.32,0.005-4-2.152-4-4.803V21.875c0-10.204,17.901-10.204,24-10.204
			c6.098,0,24,0,24,9.004V203.15c0,2.651,0.624,4.803-2.501,4.803c-1.463,0-2.499-2.202-2.499-4.803V25.477
			c0-6.103-15.699-6.604-17.5-6.604c-1.736,0-17.5,0.5-17.5,6.604V203.15C929.5,205.75,927.844,207.95,925.5,207.953z"/>
	</g>
	<g display="none">
		<path display="inline" fill="#FBFAF9" stroke="#4D4D4D" stroke-width="2" stroke-miterlimit="10" d="M975.5,205.552V35.08
			c0-6.63,2.465-19.58,10.694-19.58h21.348c8.232,0,7.958,12.949,7.958,19.58v170.472c0,0,0.133-10.204-20.744-10.204
			C973.895,195.348,975.5,205.552,975.5,205.552z"/>
		<path display="inline" fill="#FC9B7A" d="M973.5,207.953c-3.322,0.005-4-2.152-4-4.803V21.875c0-10.204,18.902-10.204,25-10.204
			c6.1,0,25,0,25,9.004V203.15c0,2.651-0.876,4.803-4,4.803c-1.464,0-4-2.202-4-4.803V25.477c0-6.103-15.199-6.604-17-6.604
			c-1.735,0-17,0.5-17,6.604V203.15C977.5,205.75,975.847,207.95,973.5,207.953z"/>
	</g>
</g>
</svg>
