<?xml version="1.0" encoding="utf-8"?>
<!-- Generator: Adobe Illustrator 16.0.0, SVG Export Plug-In . SVG Version: 6.00 Build 0)  -->
<!DOCTYPE svg PUBLIC "-//W3C//DTD SVG 1.1//EN" "http://www.w3.org/Graphics/SVG/1.1/DTD/svg11.dtd">
<svg version="1.1" xmlns="http://www.w3.org/2000/svg" xmlns:xlink="http://www.w3.org/1999/xlink" x="0px" y="0px" width="960px"
	 height="120px" viewBox="15.5 42.796 960 120" enable-background="new 15.5 42.796 960 120" xml:space="preserve">
<g id="图层_1">
	<path fill="#CCCCCC" stroke="#4D4D4D" stroke-width="2" stroke-miterlimit="10" d="M541.029,145.337
		c0,0.988-1.423,1.791-3.178,1.791H23.046c-1.755,0-3.178-0.803-3.178-1.791V60.318c0-0.988,1.422-1.79,3.178-1.79h514.806
		c1.755,0,3.178,0.801,3.178,1.79V145.337z"/>
	<g id="shelves_1_">
		<path fill="#CCCCCC" stroke="#4D4D4D" stroke-width="2" stroke-miterlimit="10" d="M117.587,150.384
			c0,1.44-1.167,2.606-2.606,2.606h-1.954c-1.439,0-2.606-1.166-2.606-2.606V55.271c0-1.438,1.167-2.605,2.606-2.605h1.954
			c1.438,0,2.606,1.167,2.606,2.605V150.384z"/>
		<path fill="#CCCCCC" stroke="#4D4D4D" stroke-width="2" stroke-miterlimit="10" d="M228.335,150.384
			c0,1.44-1.167,2.606-2.606,2.606h-1.954c-1.439,0-2.605-1.166-2.605-2.606V55.271c0-1.438,1.167-2.605,2.605-2.605h1.954
			c1.439,0,2.606,1.167,2.606,2.605V150.384z"/>
		<path fill="#CCCCCC" stroke="#4D4D4D" stroke-width="2" stroke-miterlimit="10" d="M339.081,150.384
			c0,1.44-1.167,2.606-2.606,2.606h-1.955c-1.438,0-2.605-1.166-2.605-2.606V55.271c0-1.438,1.167-2.605,2.605-2.605h1.955
			c1.439,0,2.606,1.167,2.606,2.605V150.384z"/>
		<path fill="#CCCCCC" stroke="#4D4D4D" stroke-width="2" stroke-miterlimit="10" d="M449.828,150.384
			c0,1.44-1.166,2.606-2.605,2.606h-1.954c-1.438,0-2.605-1.166-2.605-2.606V55.271c0-1.438,1.167-2.605,2.605-2.605h1.954
			c1.439,0,2.605,1.167,2.605,2.605V150.384z"/>
	</g>
	<g id="block_1_">
		<g>
			<path fill="#FBFAF9" stroke="#4D4D4D" stroke-width="2" stroke-miterlimit="10" d="M121.26,155.018V65.335
				c0-3.487,1.545-10.3,5.875-10.3h11.231c4.33,0,4.989,6.813,4.989,10.3v89.682c0,0-0.458-5.366-11.439-5.366
				C120.942,149.651,121.26,155.018,121.26,155.018z"/>
			<path fill="#A1D6F7" d="M120.997,156.281c-1.747,0.004-2.367-1.131-2.367-2.527V58.389c0-5.368,9.683-5.368,12.89-5.368
				c3.208,0,12.889,0,12.889,4.737v95.996c0,1.396,0.066,2.527-1.578,2.527c-0.77,0-1.579-1.158-1.579-2.527v-93.47
				c0-3.211-7.997-3.475-8.943-3.475c-0.913,0-8.943,0.263-8.943,3.475v93.47C123.365,155.123,122.232,156.279,120.997,156.281z"/>
		</g>
		<g>
			<path fill="#FBFAF9" stroke="#4D4D4D" stroke-width="2" stroke-miterlimit="10" d="M146.513,155.018V65.335
				c0-3.487-0.257-10.303,4.073-10.303l13.675,0.002c4.331,0,4.874,6.813,4.874,10.3v89.682c0,0-0.721-5.366-11.703-5.366
				C146.458,149.651,146.513,155.018,146.513,155.018z"/>
			<path fill="#E5DCD1" d="M146.513,156.281c-1.749,0.004-2.104-1.131-2.104-2.527V58.389c0-5.368,10.208-5.368,13.416-5.368
				c3.207,0,13.415,0,13.415,4.737v95.996c0,1.396-0.459,2.527-2.104,2.527c-0.771,0-2.104-1.158-2.104-2.527v-93.47
				c0-3.211-8.259-3.475-9.206-3.475c-0.913,0-9.207,0.263-9.207,3.475v93.47C148.617,155.123,147.747,156.279,146.513,156.281z"/>
		</g>
		<g display="none">
			<path display="inline" fill="#FBFAF9" stroke="#4D4D4D" stroke-width="2" stroke-miterlimit="10" d="M173.869,155.018V65.335
				c0-3.487,0.726-10.3,5.055-10.3h11.231c4.33,0,5.283,6.813,5.283,10.3v89.682c0,0-0.195-5.366-11.176-5.366
				C173.288,149.651,173.869,155.018,173.869,155.018z"/>
			<path display="inline" fill="#998D74" d="M173.606,156.281c-1.747,0.004-2.368-1.131-2.368-2.527V58.389
				c0-5.368,9.156-5.368,12.363-5.368c3.208,0,12.363,0,12.363,4.737v95.996c0,1.396,0.328,2.527-1.315,2.527
				c-0.77,0-1.315-1.158-1.315-2.527v-93.47c0-3.211-7.733-3.475-8.68-3.475c-0.913,0-8.68,0.263-8.68,3.475v93.47
				C175.974,155.123,174.84,156.279,173.606,156.281z"/>
		</g>
		<g>
			<path fill="#FBFAF9" stroke="#4D4D4D" stroke-width="2" stroke-miterlimit="10" d="M197.017,155.018V65.335
				c0-3.487,1.893-10.3,6.223-10.3h11.23c4.331,0,4.642,6.813,4.642,10.3v89.682c0,0-0.458-5.366-11.439-5.366
				C196.699,149.651,197.017,155.018,197.017,155.018z"/>
			<path fill="#B28338" d="M196.754,156.281c-1.749,0.004-2.368-1.131-2.368-2.527V58.389c0-5.368,9.945-5.368,13.152-5.368
				s13.152,0,13.152,4.737v95.996c0,1.396-0.197,2.527-1.841,2.527c-0.77,0-1.841-1.158-1.841-2.527v-93.47
				c0-3.211-7.997-3.475-8.944-3.475c-0.913,0-8.944,0.263-8.944,3.475v93.47C199.121,155.123,197.988,156.279,196.754,156.281z"/>
		</g>
	</g>
	<g id="block_4_">
		<g>
			<path fill="#FBFAF9" stroke="#4D4D4D" stroke-width="2" stroke-miterlimit="10" d="M33.135,155.684V65.416
				c0-3.51,1.334-10.368,5.692-10.368h11.304c4.358,0,4.714,6.857,4.714,10.368v90.268c0,0-0.196-5.401-11.25-5.401
				C32.55,150.282,33.135,155.684,33.135,155.684z"/>
			<path fill="#A1D6F7" d="M32.87,156.956c-1.759,0.004-2.383-1.139-2.383-2.544V58.424c0-5.403,9.481-5.403,12.708-5.403
				c3.229,0,12.709,0,12.709,4.768v96.624c0,1.405,0.066,2.544-1.589,2.544c-0.775,0-1.588-1.166-1.588-2.544V60.332
				c0-3.232-7.784-3.497-8.737-3.497c-0.919,0-8.738,0.265-8.738,3.497v94.081C35.252,155.79,34.112,156.954,32.87,156.956z"/>
		</g>
		<g>
			<path fill="#FBFAF9" stroke="#4D4D4D" stroke-width="2" stroke-miterlimit="10" d="M58.022,155.684V65.416
				c0-3.51-1.013-9.87,3.345-9.87l14.826-0.498c4.359,0,5.128,6.857,5.128,10.368v90.268c0,0-0.99-5.401-12.043-5.401
				C58.232,150.282,58.022,155.684,58.022,155.684z"/>
			<path fill="#E5DCD1" d="M58.022,156.956c-1.76,0.004-2.118-1.139-2.118-2.544V58.424c0-5.403,10.539-5.403,13.768-5.403
				s13.767,0,13.767,4.768v96.624c0,1.405-0.463,2.544-2.118,2.544c-0.775,0-2.118-1.166-2.118-2.544V60.332
				c0-3.232-8.579-3.497-9.531-3.497c-0.919,0-9.531,0.265-9.531,3.497v94.081C60.141,155.79,59.265,156.954,58.022,156.956z"/>
		</g>
		<g>
			<path fill="#FBFAF9" stroke="#4D4D4D" stroke-width="2" stroke-miterlimit="10" d="M86.087,155.684V65.416
				c0-3.51,1.356-10.368,5.714-10.368h11.304c4.358,0,4.163,6.857,4.163,10.368v90.268c0,0,0.068-5.401-10.985-5.401
				C85.237,150.282,86.087,155.684,86.087,155.684z"/>
			<path fill="#959593" d="M85.822,156.956c-1.76,0.004-2.383-1.139-2.383-2.544V58.424c0-5.403,9.745-5.403,12.974-5.403
				c3.229,0,12.974,0,12.974,4.768v96.624c0,1.405-0.464,2.544-2.118,2.544c-0.775,0-2.118-1.166-2.118-2.544V60.332
				c0-3.232-7.52-3.497-8.473-3.497c-0.918,0-8.472,0.265-8.472,3.497v94.081C88.205,155.79,87.064,156.954,85.822,156.956z"/>
		</g>
	</g>
	<g id="block">
		<g display="none">
			<path display="inline" fill="#FBFAF9" stroke="#4D4D4D" stroke-width="2" stroke-miterlimit="10" d="M229.287,155.684V65.416
				c0-3.51,1.711-10.368,6.068-10.368h11.304c4.359,0,4.868,6.857,4.868,10.368v90.268c0,0-0.461-5.401-11.514-5.401
				C228.967,150.282,229.287,155.684,229.287,155.684z"/>
			<path display="inline" fill="#A1D6F7" d="M228.493,156.956c-1.758,0.004-2.382-1.139-2.382-2.544V58.424
				c0-5.403,9.745-5.403,12.973-5.403s12.973,0,12.973,4.768v96.624c0,1.405-0.199,2.544-1.854,2.544
				c-0.775,0-1.854-1.166-1.854-2.544V60.332c0-3.232-7.784-3.497-8.737-3.497c-0.919,0-8.737,0.265-8.737,3.497v94.081
				C230.875,155.79,229.735,156.954,228.493,156.956z"/>
		</g>
		<g display="none">
			<path display="inline" fill="#FBFAF9" stroke="#4D4D4D" stroke-width="2" stroke-miterlimit="10" d="M254.175,155.684V65.416
				c0-3.51,2.222-10.368,6.58-10.368h11.305c4.358,0,4.884,6.857,4.884,10.368v90.268c0,0-0.727-5.401-11.779-5.401
				C254.12,150.282,254.175,155.684,254.175,155.684z"/>
			<path display="inline" fill="#E5DCD1" d="M254.175,156.956c-1.761,0.004-2.118-1.139-2.118-2.544V58.424
				c0-5.403,10.275-5.403,13.502-5.403c3.229,0,13.503,0,13.503,4.768v96.624c0,1.405-0.463,2.544-2.118,2.544
				c-0.776,0-2.118-1.166-2.118-2.544V60.332c0-3.232-8.315-3.497-9.267-3.497c-0.918,0-9.266,0.265-9.266,3.497v94.081
				C256.293,155.79,255.417,156.954,254.175,156.956z"/>
		</g>
		<g>
			<path fill="#FBFAF9" stroke="#4D4D4D" stroke-width="2" stroke-miterlimit="10" d="M281.709,155.684V65.416
				c0-3.51,0.752-10.368,5.109-10.368h11.303c4.359,0,5.298,6.857,5.298,10.368v90.268c0,0-0.195-5.401-11.249-5.401
				C281.126,150.282,281.709,155.684,281.709,155.684z"/>
			<path fill="#998D74" d="M281.445,156.956c-1.759,0.004-2.383-1.139-2.383-2.544V58.424c0-5.403,9.215-5.403,12.444-5.403
				c3.228,0,12.444,0,12.444,4.768v96.624c0,1.405,0.332,2.544-1.324,2.544c-0.775,0-1.324-1.166-1.324-2.544V60.332
				c0-3.232-7.785-3.497-8.737-3.497c-0.919,0-8.737,0.265-8.737,3.497v94.081C283.828,155.79,282.687,156.954,281.445,156.956z"/>
		</g>
		<g>
			<path fill="#FBFAF9" stroke="#4D4D4D" stroke-width="2" stroke-miterlimit="10" d="M306.598,155.684V65.416
				c0-3.51,1.927-10.368,6.285-10.368h11.304c4.359,0,4.651,6.857,4.651,10.368v90.268c0,0-0.461-5.401-11.514-5.401
				C306.276,150.282,306.598,155.684,306.598,155.684z"/>
			<path fill="#5E5951" d="M306.333,156.956c-1.76,0.004-2.383-1.139-2.383-2.544V58.424c0-5.403,10.274-5.403,13.503-5.403
				c3.229,0,13.502,0,13.502,4.768v96.624c0,1.405-0.463,2.544-2.118,2.544c-0.775,0-2.118-1.166-2.118-2.544V60.332
				c0-3.232-8.048-3.497-9.002-3.497c-0.919,0-9.002,0.265-9.002,3.497v94.081C308.715,155.79,307.573,156.954,306.333,156.956z"/>
		</g>
	</g>
	<g id="block_2_">
		<g>
			<path fill="#FBFAF9" stroke="#4D4D4D" stroke-width="2" stroke-miterlimit="10" d="M343.906,155.684V65.416
				c0-3.51-1.896-10.245,2.462-10.245l14.4-0.123c4.36,0,4.318,6.857,4.318,10.368v90.268c0,0,0.067-5.401-10.985-5.401
				C343.057,150.282,343.906,155.684,343.906,155.684z"/>
			<path fill="#A1D6F7" d="M342.582,156.956c-1.759,0.004-2.382-1.139-2.382-2.544V58.424c0-5.403,9.747-5.403,12.973-5.403
				c3.228,0,12.973,0,12.973,4.768v96.624c0,1.405-0.198,2.544-1.853,2.544c-0.775,0-1.854-1.166-1.854-2.544V60.332
				c0-3.232-7.785-3.497-8.737-3.497c-0.919,0-8.736,0.265-8.736,3.497v94.081C344.965,155.79,343.824,156.954,342.582,156.956z"/>
		</g>
		<g>
			<path fill="#FBFAF9" stroke="#4D4D4D" stroke-width="2" stroke-miterlimit="10" d="M368.264,155.684V65.416
				c0-3.51,0.126-10.368,4.483-10.368h13.423c4.359,0,4.865,6.857,4.865,10.368v90.268c0,0-0.728-5.401-11.778-5.401
				C368.208,150.282,368.264,155.684,368.264,155.684z"/>
			<path fill="#E5DCD1" d="M367.999,156.956c-1.758,0.004-1.853-1.139-1.853-2.544V58.424c0-5.403,10.541-5.403,13.769-5.403
				c3.228,0,13.767,0,13.767,4.768v96.624c0,1.405-0.728,2.544-2.384,2.544c-0.774,0-2.383-1.166-2.383-2.544V60.332
				c0-3.232-8.578-3.497-9.53-3.497c-0.919,0-9.532,0.265-9.532,3.497v94.081C369.853,155.79,369.241,156.954,367.999,156.956z"/>
		</g>
		<g display="none">
			<path display="inline" fill="#FBFAF9" stroke="#4D4D4D" stroke-width="2" stroke-miterlimit="10" d="M400.036,155.684V65.416
				c0-3.51,0.243-10.368,4.6-10.368h11.305c4.359,0,4.747,6.857,4.747,10.368v90.268c0,0,0.334-5.401-10.721-5.401
				C398.919,150.282,400.036,155.684,400.036,155.684z"/>
			<path display="inline" fill="#998D74" d="M399.77,156.956c-1.758,0.004-2.383-1.139-2.383-2.544V58.424
				c0-5.403,8.951-5.403,12.18-5.403s12.18,0,12.18,4.768v96.624c0,1.405,0.065,2.544-1.589,2.544c-0.775,0-1.59-1.166-1.59-2.544
				V60.332c0-3.232-7.253-3.497-8.207-3.497c-0.917,0-8.207,0.265-8.207,3.497v94.081
				C402.154,155.79,401.013,156.954,399.77,156.956z"/>
		</g>
		<g display="none">
			<path display="inline" fill="#FBFAF9" stroke="#4D4D4D" stroke-width="2" stroke-miterlimit="10" d="M424.393,155.684V65.416
				c0-3.51,1.947-10.368,6.307-10.368h11.305c4.357,0,4.629,6.857,4.629,10.368v90.268c0,0-0.46-5.401-11.514-5.401
				C424.074,150.282,424.393,155.684,424.393,155.684z"/>
			<path display="inline" fill="#B28338" d="M424.128,156.956c-1.758,0.004-2.382-1.139-2.382-2.544V58.424
				c0-5.403,10.009-5.403,13.236-5.403c3.229,0,13.239,0,13.239,4.768v96.624c0,1.405-0.199,2.544-1.854,2.544
				c-0.774,0-1.854-1.166-1.854-2.544V60.332c0-3.232-8.048-3.497-9.002-3.497c-0.919,0-9.002,0.265-9.002,3.497v94.081
				C426.511,155.79,425.373,156.954,424.128,156.956z"/>
		</g>
	</g>
	<g id="block_3_" display="none">
		<g display="inline">
			<path fill="#FBFAF9" stroke="#4D4D4D" stroke-width="2" stroke-miterlimit="10" d="M454.287,155.684V65.416
				c0-3.51-1.025-10.12,3.332-10.12l14.041-0.248c4.359,0,4.868,6.857,4.868,10.368v90.268c0,0-0.461-5.401-11.514-5.401
				C453.967,150.282,454.287,155.684,454.287,155.684z"/>
			<path fill="#A1D6F7" d="M453.493,156.956c-1.758,0.004-2.382-1.139-2.382-2.544V58.424c0-5.403,9.745-5.403,12.973-5.403
				s12.973,0,12.973,4.768v96.624c0,1.405-0.199,2.544-1.854,2.544c-0.775,0-1.854-1.166-1.854-2.544V60.332
				c0-3.232-7.784-3.497-8.737-3.497c-0.919,0-8.737,0.265-8.737,3.497v94.081C455.875,155.79,454.735,156.954,453.493,156.956z"/>
		</g>
		<g display="inline">
			<path fill="#FBFAF9" stroke="#4D4D4D" stroke-width="2" stroke-miterlimit="10" d="M479.175,155.684V65.416
				c0-3.51,0.335-10.37,4.693-10.37l13.191,0.002c4.358,0,4.885,6.857,4.885,10.368v90.268c0,0-0.728-5.401-11.78-5.401
				C479.12,150.282,479.175,155.684,479.175,155.684z"/>
			<path fill="#E5DCD1" d="M479.175,156.956c-1.761,0.004-2.118-1.139-2.118-2.544V58.424c0-5.403,10.275-5.403,13.502-5.403
				c3.229,0,13.504,0,13.504,4.768v96.624c0,1.405-0.464,2.544-2.118,2.544c-0.776,0-2.118-1.166-2.118-2.544V60.332
				c0-3.232-8.315-3.497-9.267-3.497c-0.918,0-9.266,0.265-9.266,3.497v94.081C481.293,155.79,480.417,156.954,479.175,156.956z"/>
		</g>
	</g>
</g>
<g id="图层_1_x5F_复制">
	<path fill="#CCCCCC" stroke="#4D4D4D" stroke-width="2" stroke-miterlimit="10" d="M971.137,145.337
		c0,0.988-1.423,1.791-3.178,1.791H453.144c-1.755,0-3.178-0.803-3.178-1.791V60.318c0-0.988,1.422-1.79,3.178-1.79h514.815
		c1.755,0,3.178,0.801,3.178,1.79V145.337z"/>
	<g id="shelves_2_">
		<path fill="#CCCCCC" stroke="#4D4D4D" stroke-width="2" stroke-miterlimit="10" d="M547.69,150.384
			c0,1.44-1.168,2.606-2.605,2.606h-1.955c-1.439,0-2.605-1.166-2.605-2.606V55.271c0-1.438,1.166-2.605,2.605-2.605h1.955
			c1.438,0,2.605,1.167,2.605,2.605V150.384z"/>
		<path fill="#CCCCCC" stroke="#4D4D4D" stroke-width="2" stroke-miterlimit="10" d="M658.438,150.384
			c0,1.44-1.168,2.606-2.606,2.606h-1.954c-1.439,0-2.605-1.166-2.605-2.606V55.271c0-1.438,1.166-2.605,2.605-2.605h1.954
			c1.438,0,2.606,1.167,2.606,2.605V150.384z"/>
		<path fill="#CCCCCC" stroke="#4D4D4D" stroke-width="2" stroke-miterlimit="10" d="M769.185,150.384
			c0,1.44-1.166,2.606-2.605,2.606h-1.955c-1.438,0-2.605-1.166-2.605-2.606V55.271c0-1.438,1.167-2.605,2.605-2.605h1.955
			c1.439,0,2.605,1.167,2.605,2.605V150.384z"/>
		<path fill="#CCCCCC" stroke="#4D4D4D" stroke-width="2" stroke-miterlimit="10" d="M879.932,150.384
			c0,1.44-1.166,2.606-2.605,2.606h-1.954c-1.438,0-2.605-1.166-2.605-2.606V55.271c0-1.438,1.167-2.605,2.605-2.605h1.954
			c1.439,0,2.605,1.167,2.605,2.605V150.384z"/>
	</g>
	<g id="block_9_">
		<g>
			<path fill="#FBFAF9" stroke="#4D4D4D" stroke-width="2" stroke-miterlimit="10" d="M551.364,155.018V65.335
				c0-3.487,1.545-10.3,5.875-10.3h11.23c4.33,0,4.99,6.813,4.99,10.3v89.682c0,0-0.459-5.366-11.439-5.366
				C551.046,149.651,551.364,155.018,551.364,155.018z"/>
			<path fill="#A1D6F7" d="M551.101,156.281c-1.746,0.004-2.367-1.131-2.367-2.527V58.389c0-5.368,9.683-5.368,12.89-5.368
				c3.208,0,12.889,0,12.889,4.737v95.996c0,1.396,0.065,2.527-1.578,2.527c-0.771,0-1.579-1.158-1.579-2.527v-93.47
				c0-3.211-7.996-3.475-8.943-3.475c-0.912,0-8.943,0.263-8.943,3.475v93.47C553.468,155.123,552.335,156.279,551.101,156.281z"/>
		</g>
		<g>
			<path fill="#FBFAF9" stroke="#4D4D4D" stroke-width="2" stroke-miterlimit="10" d="M576.616,155.018V65.335
				c0-3.487-0.258-10.303,4.072-10.303l13.676,0.002c4.33,0,4.874,6.813,4.874,10.3v89.682c0,0-0.722-5.366-11.703-5.366
				C576.562,149.651,576.616,155.018,576.616,155.018z"/>
			<path fill="#E5DCD1" d="M576.616,156.281c-1.748,0.004-2.104-1.131-2.104-2.527V58.389c0-5.368,10.208-5.368,13.415-5.368
				s13.415,0,13.415,4.737v95.996c0,1.396-0.46,2.527-2.104,2.527c-0.77,0-2.104-1.158-2.104-2.527v-93.47
				c0-3.211-8.26-3.475-9.207-3.475c-0.912,0-9.206,0.263-9.206,3.475v93.47C578.721,155.123,577.851,156.279,576.616,156.281z"/>
		</g>
		<g display="none">
			<path display="inline" fill="#FBFAF9" stroke="#4D4D4D" stroke-width="2" stroke-miterlimit="10" d="M603.973,155.018V65.335
				c0-3.487,0.726-10.3,5.056-10.3h11.23c4.33,0,5.283,6.813,5.283,10.3v89.682c0,0-0.195-5.366-11.177-5.366
				C603.392,149.651,603.973,155.018,603.973,155.018z"/>
			<path display="inline" fill="#998D74" d="M603.71,156.281c-1.748,0.004-2.368-1.131-2.368-2.527V58.389
				c0-5.368,9.156-5.368,12.363-5.368c3.208,0,12.363,0,12.363,4.737v95.996c0,1.396,0.328,2.527-1.315,2.527
				c-0.77,0-1.315-1.158-1.315-2.527v-93.47c0-3.211-7.733-3.475-8.681-3.475c-0.912,0-8.68,0.263-8.68,3.475v93.47
				C606.077,155.123,604.944,156.279,603.71,156.281z"/>
		</g>
		<g>
			<path fill="#FBFAF9" stroke="#4D4D4D" stroke-width="2" stroke-miterlimit="10" d="M627.12,155.018V65.335
				c0-3.487,1.894-10.3,6.224-10.3h11.23c4.331,0,4.642,6.813,4.642,10.3v89.682c0,0-0.458-5.366-11.439-5.366
				C626.803,149.651,627.12,155.018,627.12,155.018z"/>
			<path fill="#B28338" d="M626.857,156.281c-1.749,0.004-2.368-1.131-2.368-2.527V58.389c0-5.368,9.945-5.368,13.152-5.368
				c3.208,0,13.152,0,13.152,4.737v95.996c0,1.396-0.196,2.527-1.841,2.527c-0.77,0-1.841-1.158-1.841-2.527v-93.47
				c0-3.211-7.997-3.475-8.944-3.475c-0.913,0-8.944,0.263-8.944,3.475v93.47C629.224,155.123,628.092,156.279,626.857,156.281z"/>
		</g>
	</g>
	<g id="block_8_">
		<g>
			<path fill="#FBFAF9" stroke="#4D4D4D" stroke-width="2" stroke-miterlimit="10" d="M463.233,155.684V65.416
				c0-3.51,1.334-10.368,5.692-10.368h11.304c4.358,0,4.714,6.857,4.714,10.368v90.268c0,0-0.196-5.401-11.25-5.401
				C462.648,150.282,463.233,155.684,463.233,155.684z"/>
			<path fill="#A1D6F7" d="M462.968,156.956c-1.759,0.004-2.383-1.139-2.383-2.544V58.424c0-5.403,9.481-5.403,12.708-5.403
				c3.229,0,12.709,0,12.709,4.768v96.624c0,1.405,0.066,2.544-1.589,2.544c-0.775,0-1.588-1.166-1.588-2.544V60.332
				c0-3.232-7.784-3.497-8.737-3.497c-0.919,0-8.738,0.265-8.738,3.497v94.081C465.351,155.79,464.21,156.954,462.968,156.956z"/>
		</g>
		<g>
			<path fill="#FBFAF9" stroke="#4D4D4D" stroke-width="2" stroke-miterlimit="10" d="M488.121,155.684V65.416
				c0-3.51-1.013-9.87,3.345-9.87l14.826-0.498c4.359,0,5.128,6.857,5.128,10.368v90.268c0,0-0.99-5.401-12.043-5.401
				C488.33,150.282,488.121,155.684,488.121,155.684z"/>
			<path fill="#E5DCD1" d="M488.121,156.956c-1.76,0.004-2.118-1.139-2.118-2.544V58.424c0-5.403,10.54-5.403,13.768-5.403
				s13.767,0,13.767,4.768v96.624c0,1.405-0.463,2.544-2.117,2.544c-0.775,0-2.118-1.166-2.118-2.544V60.332
				c0-3.232-8.579-3.497-9.531-3.497c-0.92,0-9.532,0.265-9.532,3.497v94.081C490.239,155.79,489.363,156.954,488.121,156.956z"/>
		</g>
		<g>
			<path fill="#FBFAF9" stroke="#4D4D4D" stroke-width="2" stroke-miterlimit="10" d="M516.19,155.684V65.416
				c0-3.51,1.355-10.368,5.715-10.368h11.304c4.358,0,4.163,6.857,4.163,10.368v90.268c0,0,0.068-5.401-10.985-5.401
				C515.34,150.282,516.19,155.684,516.19,155.684z"/>
			<path fill="#959593" d="M515.926,156.956c-1.766,0.004-2.389-1.139-2.389-2.544V58.424c0-5.403,9.751-5.403,12.979-5.403
				s12.973,0,12.973,4.768v96.624c0,1.405-0.463,2.544-2.117,2.544c-0.775,0-2.119-1.166-2.119-2.544V60.332
				c0-3.232-7.52-3.497-8.473-3.497c-0.918,0-8.472,0.265-8.472,3.497v94.081C518.309,155.79,517.168,156.954,515.926,156.956z"/>
		</g>
	</g>
	<g id="block_7_">
		<g display="none">
			<path display="inline" fill="#FBFAF9" stroke="#4D4D4D" stroke-width="2" stroke-miterlimit="10" d="M659.39,155.684V65.416
				c0-3.51,1.712-10.368,6.068-10.368h11.305c4.359,0,4.867,6.857,4.867,10.368v90.268c0,0-0.461-5.401-11.514-5.401
				C659.07,150.282,659.39,155.684,659.39,155.684z"/>
			<path display="inline" fill="#A1D6F7" d="M658.597,156.956c-1.759,0.004-2.383-1.139-2.383-2.544V58.424
				c0-5.403,9.745-5.403,12.973-5.403c3.229,0,12.974,0,12.974,4.768v96.624c0,1.405-0.199,2.544-1.854,2.544
				c-0.775,0-1.854-1.166-1.854-2.544V60.332c0-3.232-7.784-3.497-8.737-3.497c-0.919,0-8.736,0.265-8.736,3.497v94.081
				C660.979,155.79,659.839,156.954,658.597,156.956z"/>
		</g>
		<g display="none">
			<path display="inline" fill="#FBFAF9" stroke="#4D4D4D" stroke-width="2" stroke-miterlimit="10" d="M684.278,155.684V65.416
				c0-3.51,2.223-10.368,6.58-10.368h11.305c4.357,0,4.885,6.857,4.885,10.368v90.268c0,0-0.728-5.401-11.779-5.401
				C684.224,150.282,684.278,155.684,684.278,155.684z"/>
			<path display="inline" fill="#E5DCD1" d="M684.278,156.956c-1.761,0.004-2.118-1.139-2.118-2.544V58.424
				c0-5.403,10.274-5.403,13.502-5.403c3.229,0,13.503,0,13.503,4.768v96.624c0,1.405-0.463,2.544-2.117,2.544
				c-0.777,0-2.119-1.166-2.119-2.544V60.332c0-3.232-8.314-3.497-9.266-3.497c-0.919,0-9.267,0.265-9.267,3.497v94.081
				C686.396,155.79,685.521,156.954,684.278,156.956z"/>
		</g>
		<g>
			<path fill="#FBFAF9" stroke="#4D4D4D" stroke-width="2" stroke-miterlimit="10" d="M711.813,155.684V65.416
				c0-3.51,0.752-10.368,5.109-10.368h11.303c4.359,0,5.299,6.857,5.299,10.368v90.268c0,0-0.195-5.401-11.249-5.401
				C711.229,150.282,711.813,155.684,711.813,155.684z"/>
			<path fill="#998D74" d="M711.549,156.956c-1.759,0.004-2.384-1.139-2.384-2.544V58.424c0-5.403,9.215-5.403,12.444-5.403
				c3.228,0,12.444,0,12.444,4.768v96.624c0,1.405,0.332,2.544-1.324,2.544c-0.775,0-1.324-1.166-1.324-2.544V60.332
				c0-3.232-7.784-3.497-8.736-3.497c-0.92,0-8.738,0.265-8.738,3.497v94.081C713.931,155.79,712.79,156.954,711.549,156.956z"/>
		</g>
		<g>
			<path fill="#FBFAF9" stroke="#4D4D4D" stroke-width="2" stroke-miterlimit="10" d="M736.701,155.684V65.416
				c0-3.51,1.927-10.368,6.285-10.368h11.304c4.359,0,4.65,6.857,4.65,10.368v90.268c0,0-0.461-5.401-11.514-5.401
				C736.38,150.282,736.701,155.684,736.701,155.684z"/>
			<path fill="#5E5951" d="M736.437,156.956c-1.761,0.004-2.383-1.139-2.383-2.544V58.424c0-5.403,10.273-5.403,13.502-5.403
				s13.503,0,13.503,4.768v96.624c0,1.405-0.463,2.544-2.118,2.544c-0.774,0-2.117-1.166-2.117-2.544V60.332
				c0-3.232-8.049-3.497-9.002-3.497c-0.92,0-9.002,0.265-9.002,3.497v94.081C738.819,155.79,737.677,156.954,736.437,156.956z"/>
		</g>
	</g>
	<g id="block_6_">
		<g>
			<path fill="#FBFAF9" stroke="#4D4D4D" stroke-width="2" stroke-miterlimit="10" d="M774.01,155.684V65.416
				c0-3.51-1.896-10.245,2.462-10.245l14.4-0.123c4.361,0,4.318,6.857,4.318,10.368v90.268c0,0,0.068-5.401-10.984-5.401
				C773.16,150.282,774.01,155.684,774.01,155.684z"/>
			<path fill="#A1D6F7" d="M772.686,156.956c-1.759,0.004-2.382-1.139-2.382-2.544V58.424c0-5.403,9.746-5.403,12.973-5.403
				c3.229,0,12.973,0,12.973,4.768v96.624c0,1.405-0.198,2.544-1.854,2.544c-0.774,0-1.854-1.166-1.854-2.544V60.332
				c0-3.232-7.785-3.497-8.736-3.497c-0.92,0-8.736,0.265-8.736,3.497v94.081C775.069,155.79,773.927,156.954,772.686,156.956z"/>
		</g>
		<g>
			<path fill="#FBFAF9" stroke="#4D4D4D" stroke-width="2" stroke-miterlimit="10" d="M798.367,155.684V65.416
				c0-3.51,0.126-10.368,4.483-10.368h13.422c4.359,0,4.865,6.857,4.865,10.368v90.268c0,0-0.727-5.401-11.777-5.401
				C798.312,150.282,798.367,155.684,798.367,155.684z"/>
			<path fill="#E5DCD1" d="M798.103,156.956c-1.758,0.004-1.854-1.139-1.854-2.544V58.424c0-5.403,10.541-5.403,13.77-5.403
				c3.227,0,13.766,0,13.766,4.768v96.624c0,1.405-0.727,2.544-2.383,2.544c-0.775,0-2.383-1.166-2.383-2.544V60.332
				c0-3.232-8.578-3.497-9.531-3.497c-0.918,0-9.531,0.265-9.531,3.497v94.081C799.956,155.79,799.345,156.954,798.103,156.956z"/>
		</g>
		<g display="none">
			<path display="inline" fill="#FBFAF9" stroke="#4D4D4D" stroke-width="2" stroke-miterlimit="10" d="M830.14,155.684V65.416
				c0-3.51,0.242-10.368,4.6-10.368h11.305c4.359,0,4.746,6.857,4.746,10.368v90.268c0,0,0.334-5.401-10.721-5.401
				C829.022,150.282,830.14,155.684,830.14,155.684z"/>
			<path display="inline" fill="#998D74" d="M829.874,156.956c-1.758,0.004-2.383-1.139-2.383-2.544V58.424
				c0-5.403,8.951-5.403,12.18-5.403s12.18,0,12.18,4.768v96.624c0,1.405,0.064,2.544-1.59,2.544c-0.775,0-1.59-1.166-1.59-2.544
				V60.332c0-3.232-7.252-3.497-8.207-3.497c-0.916,0-8.207,0.265-8.207,3.497v94.081
				C832.257,155.79,831.116,156.954,829.874,156.956z"/>
		</g>
		<g display="none">
			<path display="inline" fill="#FBFAF9" stroke="#4D4D4D" stroke-width="2" stroke-miterlimit="10" d="M854.497,155.684V65.416
				c0-3.51,1.947-10.368,6.307-10.368h11.305c4.357,0,4.629,6.857,4.629,10.368v90.268c0,0-0.461-5.401-11.514-5.401
				C854.177,150.282,854.497,155.684,854.497,155.684z"/>
			<path display="inline" fill="#B28338" d="M854.231,156.956c-1.758,0.004-2.381-1.139-2.381-2.544V58.424
				c0-5.403,10.008-5.403,13.236-5.403s13.238,0,13.238,4.768v96.624c0,1.405-0.199,2.544-1.854,2.544
				c-0.773,0-1.854-1.166-1.854-2.544V60.332c0-3.232-8.047-3.497-9.002-3.497c-0.918,0-9.002,0.265-9.002,3.497v94.081
				C856.614,155.79,855.476,156.954,854.231,156.956z"/>
		</g>
	</g>
	<g id="block_5_">
		<g>
			<path fill="#FBFAF9" stroke="#4D4D4D" stroke-width="2" stroke-miterlimit="10" d="M884.39,155.684V65.416
				c0-3.51-1.025-10.12,3.332-10.12l14.041-0.248c4.359,0,4.867,6.857,4.867,10.368v90.268c0,0-0.461-5.401-11.514-5.401
				C884.07,150.282,884.39,155.684,884.39,155.684z"/>
			<path fill="#A1D6F7" d="M883.597,156.956c-1.759,0.004-2.383-1.139-2.383-2.544V58.424c0-5.403,9.745-5.403,12.973-5.403
				c3.229,0,12.974,0,12.974,4.768v96.624c0,1.405-0.199,2.544-1.854,2.544c-0.775,0-1.854-1.166-1.854-2.544V60.332
				c0-3.232-7.784-3.497-8.737-3.497c-0.919,0-8.736,0.265-8.736,3.497v94.081C885.979,155.79,884.839,156.954,883.597,156.956z"/>
		</g>
		<g>
			<path fill="#FBFAF9" stroke="#4D4D4D" stroke-width="2" stroke-miterlimit="10" d="M909.278,155.684V65.416
				c0-3.51,0.336-10.37,4.693-10.37l13.191,0.002c4.357,0,4.885,6.857,4.885,10.368v90.268c0,0-0.728-5.401-11.779-5.401
				C909.224,150.282,909.278,155.684,909.278,155.684z"/>
			<path fill="#E5DCD1" d="M909.278,156.956c-1.761,0.004-2.118-1.139-2.118-2.544V58.424c0-5.403,10.274-5.403,13.502-5.403
				c3.229,0,13.503,0,13.503,4.768v96.624c0,1.405-0.463,2.544-2.117,2.544c-0.777,0-2.119-1.166-2.119-2.544V60.332
				c0-3.232-8.314-3.497-9.266-3.497c-0.919,0-9.267,0.265-9.267,3.497v94.081C911.396,155.79,910.521,156.954,909.278,156.956z"/>
		</g>
	</g>
</g>
</svg>
