<?xml version="1.0" encoding="utf-8"?>
<!-- Generator: Adobe Illustrator 16.0.0, SVG Export Plug-In . SVG Version: 6.00 Build 0)  -->
<!DOCTYPE svg PUBLIC "-//W3C//DTD SVG 1.1//EN" "http://www.w3.org/Graphics/SVG/1.1/DTD/svg11.dtd">
<svg version="1.1" id="图层_1" xmlns="http://www.w3.org/2000/svg" xmlns:xlink="http://www.w3.org/1999/xlink" x="0px" y="0px"
	 width="90px" height="90px" viewBox="0 0 90 90" enable-background="new 0 0 90 90" xml:space="preserve">
<path fill="#00325F" d="M90,80.139C90,85.585,85.919,90,80.887,90H9.114C4.081,90,0,85.586,0,80.139V9.863C0,4.416,4.081,0,9.114,0
	h71.773C85.919,0,90,4.416,90,9.863V80.139z"/>
<g id="icon">
	<path fill="#E2E0D6" d="M21.499,49.535h-6.736c-0.671,0-1.215-0.576-1.215-1.287V21.65c0-0.71,0.544-1.287,1.215-1.287h6.736
		V49.535z"/>
	<polygon fill="#FFFFFA" points="51.886,61.74 21.499,49.586 21.499,20.414 51.886,8.259 	"/>
	<g id="X">
		<path fill="#FFFFFA" d="M62.716,43.516c-0.535,0.537-1.317,0.623-1.749,0.193l-2.205-2.205c-0.431-0.431-0.344-1.214,0.193-1.75
			l13.27-13.271c0.535-0.536,1.319-0.622,1.749-0.192l2.205,2.205c0.431,0.431,0.345,1.214-0.193,1.75L62.716,43.516z"/>
		<path fill="#FFFFFA" d="M75.985,39.754c0.538,0.535,0.624,1.318,0.193,1.749l-2.205,2.205c-0.43,0.431-1.214,0.345-1.749-0.193
			l-13.27-13.27c-0.536-0.536-0.623-1.32-0.193-1.75l2.205-2.205c0.432-0.431,1.214-0.345,1.749,0.192L75.985,39.754z"/>
	</g>
</g>
<text transform="matrix(1 0 0 1 23.6543 77.1338)" fill="#FFFFFA" font-family="'ArialMT'" font-size="8">Silent Study</text>
<path fill="#FFFFFA" d="M51.886,61.74c0,0.553-0.447,1-1,1L21.499,49.535V20.414L50.886,7.259c0.553,0,1,0.448,1,1V61.74z"/>
</svg>
