<?xml version="1.0" encoding="utf-8"?>
<!-- Generator: Adobe Illustrator 16.0.0, SVG Export Plug-In . SVG Version: 6.00 Build 0)  -->
<!DOCTYPE svg PUBLIC "-//W3C//DTD SVG 1.1//EN" "http://www.w3.org/Graphics/SVG/1.1/DTD/svg11.dtd">
<svg version="1.1" id="图层_1" xmlns="http://www.w3.org/2000/svg" xmlns:xlink="http://www.w3.org/1999/xlink" x="0px" y="0px"
	 width="92px" height="91.25px" viewBox="-0.313 -0.552 92 91.25" enable-background="new -0.313 -0.552 92 91.25"
	 xml:space="preserve">
<g id="chair">
	<path fill="#CBC8B8" d="M31.264,46.286c0-1.332,0.226-2.446,1.553-2.446h27.515c1.326,0,1.597,1.116,1.597,2.446
		c0,0,0,20.125,0,26.748H31.264C31.264,66.411,31.264,46.286,31.264,46.286z"/>
	<path fill="#BCBAAF" d="M65.938,89.226c0,0.798-1.076,1.472-2.404,1.472H29.877c-1.326,0-2.402-0.674-2.402-1.472
		c0,0,6.275-12.268,6.275-16.19h26.512C60.264,76.958,65.938,89.226,65.938,89.226z"/>
	<path fill="#5E5951" d="M64.625,72.478c0,0.443-0.359,0.804-0.803,0.804h-3.795c-0.441,0-0.801-0.357-0.801-0.804V50.532
		c0-0.443,0.356-0.801,0.801-0.801h3.797c0.439,0,0.801,0.356,0.801,0.801V72.478L64.625,72.478z"/>
	<path fill="#5E5951" d="M34.205,72.478c0,0.443-0.356,0.804-0.801,0.804H29.61c-0.442,0-0.801-0.357-0.801-0.804V50.532
		c0-0.443,0.357-0.801,0.801-0.801h3.794c0.443,0,0.801,0.356,0.801,0.801V72.478L34.205,72.478z"/>
</g>
<rect x="0.938" y="0.305" fill="#E2E0D6" stroke="#4D4D4D" stroke-width="2" stroke-miterlimit="10" width="89.805" height="56.004"/>
<g id="notebook_2_">
	<path d="M40.787,47.515c0,0.24,0.011,0.334-0.229,0.334H21.426c-0.24,0-0.791-0.528-0.791-0.77v-0.982c0,0,0.551,0,0.791,0h19.132
		c0.24,0,0.229,0.31,0.229,0.547V47.515L40.787,47.515z"/>
	<path fill="#FFFFFF" d="M40.203,46.677c0,0.465,0.377,0.59,0.139,0.59H21.402c-0.24,0-0.185-0.127-0.185-0.59v-0.422
		c0-0.465,0.185-1.328,0.424-1.328H40.12c0.24,0,0.082,0.863,0.082,1.328L40.203,46.677L40.203,46.677z"/>
	<path d="M41.664,45.964c0,0.396-0.321,0.719-0.719,0.719H21.353c-0.397,0-0.719-0.321-0.719-0.719v-25.73
		c0-0.396,0.32-0.72,0.719-0.72h19.593c0.396,0,0.719,0.322,0.719,0.72V45.964L41.664,45.964z"/>
</g>
<g id="notebook_1_">
	<path fill="#0E265D" d="M61.815,47.138c0,0.211,0.009,0.297-0.205,0.297H44.604c-0.213,0-0.703-0.471-0.703-0.686v-0.875
		c0,0,0.489,0,0.703,0H61.61c0.214,0,0.205,0.275,0.205,0.488V47.138L61.815,47.138z"/>
	<path fill="#FFFFFF" d="M61.297,46.39c0,0.412,0.336,0.523,0.121,0.523H44.584c-0.215,0-0.163-0.111-0.163-0.523v-0.373
		c0-0.411,0.163-1.182,0.377-1.182h16.427c0.213,0,0.07,0.771,0.07,1.182L61.297,46.39L61.297,46.39z"/>
	<path fill="#0E265D" d="M62.58,45.837c0,0.354-0.285,0.639-0.64,0.639H44.524c-0.353,0-0.638-0.284-0.638-0.639V22.966
		c0-0.354,0.285-0.64,0.638-0.64H61.94c0.354,0,0.64,0.286,0.64,0.64V45.837L62.58,45.837z"/>
</g>
<g id="pencil">
	<polygon fill="#F4ECBD" points="65.439,30.636 64.604,33.373 66.17,33.373 	"/>
	<polygon points="65.453,30.68 65.23,31.411 65.646,31.411 	"/>
	<path fill="#998D74" d="M65.705,46.134h-1.121V33.382c0,0,0.15-0.182,0.206-0.184c0.062-0.002,0.228,0.184,0.228,0.184
		s0.287-0.184,0.344-0.184c0.059,0,0.345,0.184,0.345,0.184L65.705,46.134L65.705,46.134z"/>
	<path fill="#5E5951" d="M66.126,46.134h-0.421V33.382c0,0-0.009-0.183,0.042-0.184c0.056-0.002,0.124,0.184,0.124,0.184
		s0.076-0.184,0.129-0.184s0.129,0.184,0.129,0.184v12.752H66.126z"/>
	<rect x="64.584" y="46.134" fill="#FC9B7A" width="1.542" height="1.717"/>
</g>
</svg>
