<?xml version="1.0" encoding="utf-8"?>
<!-- Generator: Adobe Illustrator 16.0.0, SVG Export Plug-In . SVG Version: 6.00 Build 0)  -->
<!DOCTYPE svg PUBLIC "-//W3C//DTD SVG 1.1//EN" "http://www.w3.org/Graphics/SVG/1.1/DTD/svg11.dtd">
<svg version="1.1" id="图层_1" xmlns="http://www.w3.org/2000/svg" xmlns:xlink="http://www.w3.org/1999/xlink" x="0px" y="0px"
	 width="447.667px" height="404.667px" viewBox="0 0 447.667 404.667" enable-background="new 0 0 447.667 404.667"
	 xml:space="preserve">
<g id="chair">
	<path fill="#CBC8B8" d="M160.667,222.623c0-5.414,0.921-9.957,6.333-9.957h112.156c5.412,0,6.512,4.543,6.512,9.957
		c0,0,0,82.043,0,109.043h-125C160.667,304.667,160.667,222.623,160.667,222.623z"/>
	<path fill="#BCBAAF" d="M302.023,397.669c0,3.252-4.389,5.996-9.801,5.996h-137.2c-5.412,0-9.8-2.744-9.8-5.996
		c0,0,25.589-50.004,25.589-66.004h108.071C278.882,347.667,302.023,397.669,302.023,397.669z"/>
	<path fill="#5E5951" d="M296.667,329.399c0,1.806-1.463,3.269-3.269,3.269h-15.467c-1.806,0-3.269-1.463-3.269-3.269v-89.465
		c0-1.806,1.463-3.269,3.269-3.269H293.4c1.805,0,3.268,1.463,3.268,3.269V329.399L296.667,329.399z"/>
	<path fill="#5E5951" d="M172.667,329.399c0,1.806-1.463,3.269-3.267,3.269h-15.466c-1.804,0-3.267-1.463-3.267-3.269v-89.465
		c0-1.806,1.463-3.269,3.267-3.269H169.4c1.804,0,3.267,1.463,3.267,3.269V329.399L172.667,329.399z"/>
</g>
<rect x="3.667" y="2.667" fill="#E2E0D6" stroke="#4D4D4D" stroke-width="2" stroke-miterlimit="10" width="441" height="275"/>
<g id="notebook_2_">
	<path d="M142.667,235.52c0,0.819,0.033,1.146-0.79,1.146H76.375c-0.822,0-2.708-1.813-2.708-2.636v-3.364c0,0,1.886,0,2.708,0
		h65.502c0.822,0,0.79,1.057,0.79,1.877V235.52L142.667,235.52z"/>
	<path fill="#FFFFFF" d="M140.667,232.641c0,1.59,1.29,2.024,0.467,2.024H76.296c-0.821,0-0.63-0.437-0.63-2.024v-1.438
		c0-1.591,0.63-4.535,1.452-4.535h63.271c0.821,0,0.277,2.944,0.277,4.535L140.667,232.641L140.667,232.641z"/>
	<path d="M145.667,230.207c0,1.358-1.103,2.461-2.462,2.461H76.129c-1.36,0-2.462-1.103-2.462-2.461v-88.079
		c0-1.359,1.103-2.461,2.462-2.461h67.075c1.36,0,2.462,1.102,2.462,2.461L145.667,230.207L145.667,230.207z"/>
</g>
<g id="pencil">
	<polygon fill="#F4ECBD" points="156.764,168.502 150.81,179.667 161.975,179.667 	"/>
	<polygon points="156.863,168.689 155.275,171.667 158.252,171.667 	"/>
	<path fill="#998D74" d="M158.667,231.667h-8v-51.975c0,0,1.073-0.735,1.467-0.744c0.438-0.011,1.619,0.744,1.619,0.744
		s2.041-0.744,2.456-0.744c0.416,0,2.458,0.744,2.458,0.744V231.667L158.667,231.667z"/>
	<path fill="#5E5951" d="M161.667,231.667h-3v-51.975c0,0-0.072-0.739,0.289-0.744c0.39-0.009,0.891,0.744,0.891,0.744
		s0.534-0.744,0.911-0.744c0.373,0,0.909,0.744,0.909,0.744V231.667z"/>
	<rect x="150.667" y="231.667" fill="#FC9B7A" width="11" height="7"/>
</g>
<g id="laptop">
	<path stroke="#000000" stroke-miterlimit="10" d="M381.101,122.812c0,5.335-3.525,8.354-8.814,8.354H190.291
		c-5.287,0-9.982-3.02-9.982-8.354l-6.084-83.258c0-5.335,4.695-9.388,9.983-9.388h194.163c5.289,0,8.814,4.052,8.814,9.388
		L381.101,122.812z"/>
	<path fill="#C0CED8" d="M379.667,238.923c0,5.338-2.092,10.742-7.381,10.742H190.291c-5.287,0-11.624-5.404-11.624-10.742v-94.178
		c0-5.334,6.337-8.079,11.624-8.079h181.996c5.289,0,7.381,2.745,7.381,8.079V238.923L379.667,238.923z"/>
	<path fill="#E6E6E6" d="M379.667,235.537c0,5.336-2.092,10.131-7.381,10.131H190.291c-5.287,0-11.624-4.795-11.624-10.131v-94.179
		c0-5.336,6.337-9.691,11.624-9.691h181.996c5.289,0,7.381,4.355,7.381,9.691V235.537L379.667,235.537z"/>
	<rect x="222.667" y="122.667" width="105" height="16"/>
	<polygon fill="#A1D6F7" stroke="#000000" stroke-miterlimit="10" points="375.015,129.167 186.394,129.167 180.309,36.167 
		381.101,36.167 	"/>
	<path fill="#C0CED8" d="M359.667,190.015c0,3.891-2.109,8.652-4.898,8.652H197.147c-2.79,0-4.481-4.761-4.481-8.652V154.78
		c0-3.891,1.691-5.114,4.481-5.114h157.62c2.791,0,4.898,1.223,4.898,5.114v35.235H359.667z"/>
	<path fill="#C0CED8" d="M301.667,226.944c0,3.117-2.76,4.724-5.879,4.724h-39.59c-3.119,0-5.531-1.604-5.531-4.724v-18.86
		c0-3.119,2.412-6.417,5.531-6.417h39.59c3.119,0,5.879,3.297,5.879,6.417V226.944z"/>
	<g id="key">
		<g id="line1_1_">
			<path d="M349.667,158.489c0,1.203-0.977,2.178-2.18,2.178h-17.645c-1.203,0-2.18-0.975-2.18-2.178v-4.646
				c0-1.203,0.977-2.178,2.18-2.178h17.645c1.203,0,2.18,0.975,2.18,2.178V158.489z"/>
			<path d="M235.667,158.489c0,1.203-0.977,2.178-2.178,2.178h-4.646c-1.203,0-2.18-0.975-2.18-2.178v-4.646
				c0-1.203,0.977-2.178,2.18-2.178h4.646c1.201,0,2.178,0.975,2.178,2.178V158.489z"/>
			<path d="M246.667,158.489c0,1.203-0.977,2.178-2.178,2.178h-4.646c-1.203,0-2.18-0.975-2.18-2.178v-4.646
				c0-1.203,0.977-2.178,2.18-2.178h4.646c1.201,0,2.178,0.975,2.178,2.178V158.489z"/>
			<path d="M257.667,158.489c0,1.203-0.977,2.178-2.18,2.178h-4.646c-1.201,0-2.178-0.975-2.178-2.178v-4.646
				c0-1.203,0.977-2.178,2.178-2.178h4.646c1.203,0,2.18,0.975,2.18,2.178V158.489z"/>
			<path d="M269.667,158.489c0,1.203-0.977,2.178-2.18,2.178h-4.646c-1.201,0-2.178-0.975-2.178-2.178v-4.646
				c0-1.203,0.977-2.178,2.178-2.178h4.646c1.203,0,2.18,0.975,2.18,2.178V158.489z"/>
			<path d="M280.464,158.489c0,1.203-0.978,2.178-2.181,2.178h-4.644c-1.202,0-2.18-0.975-2.18-2.178v-4.646
				c0-1.203,0.978-2.178,2.18-2.178h4.644c1.203,0,2.181,0.975,2.181,2.178V158.489z"/>
			<path d="M291.871,158.489c0,1.203-0.977,2.178-2.18,2.178h-4.646c-1.201,0-2.178-0.975-2.178-2.178v-4.646
				c0-1.203,0.977-2.178,2.178-2.178h4.646c1.203,0,2.18,0.975,2.18,2.178V158.489z"/>
			<path d="M302.966,158.489c0,1.203-0.977,2.178-2.18,2.178h-4.645c-1.202,0-2.18-0.975-2.18-2.178v-4.646
				c0-1.203,0.978-2.178,2.18-2.178h4.645c1.203,0,2.18,0.975,2.18,2.178V158.489z"/>
			<path d="M314.667,158.489c0,1.203-0.975,2.178-2.178,2.178h-4.646c-1.203,0-2.178-0.975-2.178-2.178v-4.646
				c0-1.203,0.975-2.178,2.178-2.178h4.646c1.203,0,2.178,0.975,2.178,2.178V158.489z"/>
			<path d="M325.667,158.489c0,1.203-0.975,2.178-2.178,2.178h-4.646c-1.203,0-2.178-0.975-2.178-2.178v-4.646
				c0-1.203,0.975-2.178,2.178-2.178h4.646c1.203,0,2.178,0.975,2.178,2.178V158.489z"/>
			<path d="M224.667,158.489c0,1.203-0.977,2.178-2.178,2.178h-17.645c-1.203,0-2.178-0.975-2.178-2.178v-4.646
				c0-1.203,0.975-2.178,2.178-2.178h17.645c1.203,0,2.178,0.975,2.178,2.178V158.489z"/>
		</g>
		<g id="line2">
			<path d="M220.667,170.489c0,1.203-0.975,2.178-2.178,2.178h-4.644c-1.203,0-2.178-0.975-2.178-2.178v-4.646
				c0-1.203,0.975-2.178,2.178-2.178h4.644c1.203,0,2.178,0.975,2.178,2.178V170.489z"/>
			<path d="M231.667,170.489c0,1.203-0.977,2.178-2.178,2.178h-4.646c-1.203,0-2.178-0.975-2.178-2.178v-4.646
				c0-1.203,0.975-2.178,2.178-2.178h4.646c1.201,0,2.178,0.975,2.178,2.178V170.489z"/>
			<path d="M242.066,170.489c0,1.203-0.977,2.178-2.178,2.178h-4.646c-1.203,0-2.18-0.975-2.18-2.178v-4.646
				c0-1.203,0.977-2.178,2.18-2.178h4.646c1.201,0,2.178,0.975,2.178,2.178V170.489z"/>
			<path d="M253.97,170.489c0,1.203-0.977,2.178-2.178,2.178h-4.646c-1.203,0-2.18-0.975-2.18-2.178v-4.646
				c0-1.203,0.977-2.178,2.18-2.178h4.646c1.201,0,2.178,0.975,2.178,2.178V170.489z"/>
			<path d="M264.667,170.489c0,1.203-0.977,2.178-2.18,2.178h-4.646c-1.201,0-2.178-0.975-2.178-2.178v-4.646
				c0-1.203,0.977-2.178,2.178-2.178h4.646c1.203,0,2.18,0.975,2.18,2.178V170.489z"/>
			<path d="M276.871,170.489c0,1.203-0.977,2.178-2.18,2.178h-4.646c-1.201,0-2.178-0.975-2.178-2.178v-4.646
				c0-1.203,0.977-2.178,2.178-2.178h4.646c1.203,0,2.18,0.975,2.18,2.178V170.489z"/>
			<path d="M287.667,170.489c0,1.203-0.977,2.178-2.18,2.178h-4.646c-1.201,0-2.178-0.975-2.178-2.178v-4.646
				c0-1.203,0.977-2.178,2.178-2.178h4.646c1.203,0,2.18,0.975,2.18,2.178V170.489z"/>
			<path d="M298.667,170.489c0,1.203-0.975,2.178-2.18,2.178h-4.646c-1.201,0-2.178-0.975-2.178-2.178v-4.646
				c0-1.203,0.977-2.178,2.178-2.178h4.646c1.205,0,2.18,0.975,2.18,2.178V170.489z"/>
			<path d="M310.667,170.489c0,1.203-0.977,2.178-2.18,2.178h-4.645c-1.203,0-2.18-0.975-2.18-2.178v-4.646
				c0-1.203,0.977-2.178,2.18-2.178h4.645c1.203,0,2.18,0.975,2.18,2.178V170.489z"/>
			<path d="M321.667,170.489c0,1.203-0.975,2.178-2.178,2.178h-4.646c-1.201,0-2.176-0.975-2.176-2.178v-4.646
				c0-1.203,0.975-2.178,2.176-2.178h4.646c1.203,0,2.178,0.975,2.178,2.178V170.489z"/>
			<path d="M333.667,170.489c0,1.203-0.975,2.178-2.178,2.178h-4.646c-1.203,0-2.178-0.975-2.178-2.178v-4.646
				c0-1.203,0.975-2.178,2.178-2.178h4.646c1.203,0,2.178,0.975,2.178,2.178V170.489z"/>
			<path d="M344.667,170.489c0,1.203-0.975,2.178-2.178,2.178h-4.646c-1.203,0-2.178-0.975-2.178-2.178v-4.646
				c0-1.203,0.975-2.178,2.178-2.178h4.646c1.203,0,2.178,0.975,2.178,2.178V170.489z"/>
		</g>
		<g id="line3_1_">
			<path d="M349.667,181.837c0,1.203-0.977,2.178-2.18,2.178h-17.645c-1.203,0-2.18-0.975-2.18-2.178v-4.644
				c0-1.203,0.977-2.178,2.18-2.178h17.645c1.203,0,2.18,0.975,2.18,2.178V181.837z"/>
			<path d="M235.867,181.837c0,1.203-0.977,2.178-2.178,2.178h-4.646c-1.203,0-2.18-0.975-2.18-2.178v-4.644
				c0-1.203,0.977-2.178,2.18-2.178h4.646c1.201,0,2.178,0.975,2.178,2.178V181.837z"/>
			<path d="M246.767,181.837c0,1.203-0.977,2.178-2.178,2.178h-4.646c-1.203,0-2.18-0.975-2.18-2.178v-4.644
				c0-1.203,0.977-2.178,2.18-2.178h4.646c1.201,0,2.178,0.975,2.178,2.178V181.837z"/>
			<path d="M257.767,181.837c0,1.203-0.977,2.178-2.18,2.178h-4.646c-1.201,0-2.178-0.975-2.178-2.178v-4.644
				c0-1.203,0.977-2.178,2.178-2.178h4.646c1.203,0,2.18,0.975,2.18,2.178V181.837z"/>
			<path d="M269.169,181.837c0,1.203-0.977,2.178-2.18,2.178h-4.646c-1.201,0-2.178-0.975-2.178-2.178v-4.644
				c0-1.203,0.977-2.178,2.178-2.178h4.646c1.203,0,2.18,0.975,2.18,2.178V181.837z"/>
			<path d="M280.265,181.837c0,1.203-0.978,2.178-2.181,2.178h-4.644c-1.202,0-2.18-0.975-2.18-2.178v-4.644
				c0-1.203,0.978-2.178,2.18-2.178h4.644c1.203,0,2.181,0.975,2.181,2.178V181.837z"/>
			<path d="M291.97,181.837c0,1.203-0.977,2.178-2.18,2.178h-4.646c-1.201,0-2.178-0.975-2.178-2.178v-4.644
				c0-1.203,0.977-2.178,2.178-2.178h4.646c1.203,0,2.18,0.975,2.18,2.178V181.837z"/>
			<path d="M303.066,181.837c0,1.203-0.977,2.178-2.18,2.178h-4.645c-1.202,0-2.18-0.975-2.18-2.178v-4.644
				c0-1.203,0.978-2.178,2.18-2.178h4.645c1.203,0,2.18,0.975,2.18,2.178V181.837z"/>
			<path d="M314.667,181.837c0,1.203-0.975,2.178-2.178,2.178h-4.646c-1.203,0-2.178-0.975-2.178-2.178v-4.644
				c0-1.203,0.975-2.178,2.178-2.178h4.646c1.203,0,2.178,0.975,2.178,2.178V181.837z"/>
			<path d="M325.667,181.837c0,1.203-0.975,2.178-2.178,2.178h-4.646c-1.203,0-2.178-0.975-2.178-2.178v-4.644
				c0-1.203,0.975-2.178,2.178-2.178h4.646c1.203,0,2.178,0.975,2.178,2.178V181.837z"/>
			<path d="M224.667,181.837c0,1.203-0.977,2.178-2.178,2.178h-17.645c-1.203,0-2.178-0.975-2.178-2.178v-4.644
				c0-1.203,0.975-2.178,2.178-2.178h17.645c1.203,0,2.178,0.975,2.178,2.178V181.837z"/>
		</g>
		<g id="line4">
			<path d="M221.167,193.488c0,1.203-0.975,2.178-2.178,2.178h-4.644c-1.203,0-2.178-0.975-2.178-2.178v-4.644
				c0-1.203,0.975-2.178,2.178-2.178h4.644c1.203,0,2.178,0.975,2.178,2.178V193.488z"/>
			<path d="M232.166,193.488c0,1.203-0.977,2.178-2.178,2.178h-4.646c-1.201,0-2.176-0.975-2.176-2.178v-4.644
				c0-1.203,0.975-2.178,2.176-2.178h4.646c1.201,0,2.178,0.975,2.178,2.178V193.488z"/>
			<path d="M243.062,193.488c0,1.203-0.977,2.178-2.178,2.178h-4.646c-1.203,0-2.18-0.975-2.18-2.178v-4.644
				c0-1.203,0.977-2.178,2.18-2.178h4.646c1.201,0,2.178,0.975,2.178,2.178V193.488z"/>
			<path d="M321.07,193.488c0,1.203-0.975,2.178-2.178,2.178h-4.646c-1.201,0-2.176-0.975-2.176-2.178v-4.644
				c0-1.203,0.975-2.178,2.176-2.178h4.646c1.203,0,2.178,0.975,2.178,2.178V193.488z"/>
			<path d="M333.07,193.488c0,1.203-0.975,2.178-2.178,2.178h-4.646c-1.203,0-2.178-0.975-2.178-2.178v-4.644
				c0-1.203,0.975-2.178,2.178-2.178h4.646c1.203,0,2.178,0.975,2.178,2.178V193.488z"/>
			<path d="M344.07,193.488c0,1.203-0.975,2.178-2.178,2.178h-4.646c-1.203,0-2.178-0.975-2.178-2.178v-4.644
				c0-1.203,0.975-2.178,2.178-2.178h4.646c1.203,0,2.178,0.975,2.178,2.178V193.488z"/>
			<path d="M309.667,192.911c0,1.375-0.998,2.756-2.201,2.756H247.58c-1.203,0-1.912-1.381-1.912-2.756v-3.732
				c0-1.375,0.709-2.512,1.912-2.512h59.887c1.203,0,2.201,1.137,2.201,2.512V192.911L309.667,192.911z"/>
		</g>
	</g>
</g>
</svg>
