<?xml version="1.0" encoding="utf-8"?>
<!-- Generator: Adobe Illustrator 19.2.1, SVG Export Plug-In . SVG Version: 6.00 Build 0)  -->
<svg version="1.1" id="图层_1" xmlns="http://www.w3.org/2000/svg" xmlns:xlink="http://www.w3.org/1999/xlink" x="0px" y="0px"
	 viewBox="0 0 102 98" style="enable-background:new 0 0 102 98;" xml:space="preserve">
<style type="text/css">
	.st0{fill:#CBC8B8;}
	.st1{fill:#BCBAAF;}
	.st2{fill:#5E5951;}
	.st3{fill:#E2E0D6;stroke:#808080;stroke-miterlimit:10;}
	.st4{fill:#FFFFFF;}
	.st5{fill:#0E265D;}
	.st6{fill:#F4ECBD;}
	.st7{fill:#998D74;}
	.st8{fill:#FC9B7A;}
</style>
<g id="chair">
	<path class="st0" d="M29.6,34.5c0-1.9,0.3-3.5,2.2-3.5h39.3c1.9,0,2.3,1.6,2.3,3.5c0,0,0,28.8,0,38.2H29.6
		C29.6,63.3,29.6,34.5,29.6,34.5z"/>
	<path class="st1" d="M79.2,95.9c0,1.1-1.5,2.1-3.4,2.1H27.6c-1.9,0-3.4-1-3.4-2.1c0,0,9-17.5,9-23.2h37.9
		C71.1,78.4,79.2,95.9,79.2,95.9z"/>
	<path class="st2" d="M77.3,71.9c0,0.6-0.5,1.1-1.1,1.1h-5.4c-0.6,0-1.1-0.5-1.1-1.1V40.6c0-0.6,0.5-1.1,1.1-1.1h5.4
		c0.6,0,1.1,0.5,1.1,1.1V71.9L77.3,71.9z"/>
	<path class="st2" d="M33.8,71.9c0,0.6-0.5,1.1-1.1,1.1h-5.4c-0.6,0-1.1-0.5-1.1-1.1V40.6c0-0.6,0.5-1.1,1.1-1.1h5.4
		c0.6,0,1.1,0.5,1.1,1.1L33.8,71.9L33.8,71.9z"/>
</g>
<rect x="0.5" y="0.9" class="st3" width="101" height="57.9"/>
<g id="notebook_2_">
	<path d="M39.2,48.4c0,0.3,0,0.4-0.3,0.4H18c-0.3,0-0.9-0.6-0.9-0.8v-1.1c0,0,0.6,0,0.9,0h20.9c0.3,0,0.3,0.3,0.3,0.6V48.4
		L39.2,48.4z"/>
	<path class="st4" d="M38.6,47.5c0,0.5,0.4,0.6,0.2,0.6H18c-0.3,0-0.2-0.1-0.2-0.6V47c0-0.5,0.2-1.5,0.5-1.5h20.2
		c0.3,0,0.1,0.9,0.1,1.5L38.6,47.5L38.6,47.5z"/>
	<path d="M40.1,46.7c0,0.4-0.4,0.8-0.8,0.8H17.9c-0.4,0-0.8-0.4-0.8-0.8V18.6c0-0.4,0.3-0.8,0.8-0.8h21.4c0.4,0,0.8,0.4,0.8,0.8
		L40.1,46.7L40.1,46.7z"/>
</g>
<g id="notebook_1_">
	<path class="st5" d="M65.4,48.3c0,0.2,0,0.3-0.2,0.3H47c-0.2,0-0.8-0.5-0.8-0.7v-0.9c0,0,0.5,0,0.8,0h18.2c0.2,0,0.2,0.3,0.2,0.5
		L65.4,48.3L65.4,48.3z"/>
	<path class="st4" d="M64.9,47.5c0,0.4,0.4,0.6,0.1,0.6H47c-0.2,0-0.2-0.1-0.2-0.6v-0.4c0-0.4,0.2-1.3,0.4-1.3h17.6
		c0.2,0,0.1,0.8,0.1,1.3L64.9,47.5L64.9,47.5z"/>
	<path class="st5" d="M66.2,46.9c0,0.4-0.3,0.7-0.7,0.7H46.9c-0.4,0-0.7-0.3-0.7-0.7V22.4c0-0.4,0.3-0.7,0.7-0.7h18.6
		c0.4,0,0.7,0.3,0.7,0.7L66.2,46.9L66.2,46.9z"/>
</g>
<g id="pencil">
	<polygon class="st6" points="71.5,26.7 70.4,30.1 72.4,30.1 	"/>
	<polygon points="71.5,26.7 71.2,27.6 71.7,27.6 	"/>
	<path class="st7" d="M71.8,46.2h-1.4V30.1c0,0,0.2-0.2,0.3-0.2c0.1,0,0.3,0.2,0.3,0.2s0.4-0.2,0.4-0.2c0.1,0,0.4,0.2,0.4,0.2
		L71.8,46.2L71.8,46.2z"/>
	<path class="st2" d="M72.3,46.2h-0.5V30.1c0,0,0-0.2,0.1-0.2c0.1,0,0.2,0.2,0.2,0.2s0.1-0.2,0.2-0.2c0.1,0,0.2,0.2,0.2,0.2
		L72.3,46.2L72.3,46.2z"/>
	<rect x="70.4" y="46.2" class="st8" width="1.9" height="2.2"/>
</g>
</svg>
