<?xml version="1.0" encoding="utf-8"?>
<!-- Generator: Adobe Illustrator 16.0.0, SVG Export Plug-In . SVG Version: 6.00 Build 0)  -->
<!DOCTYPE svg PUBLIC "-//W3C//DTD SVG 1.1//EN" "http://www.w3.org/Graphics/SVG/1.1/DTD/svg11.dtd">
<svg version="1.1" id="图层_1" xmlns="http://www.w3.org/2000/svg" xmlns:xlink="http://www.w3.org/1999/xlink" x="0px" y="0px"
	 width="93px" height="92.79px" viewBox="177.233 155.939 93 92.79" enable-background="new 177.233 155.939 93 92.79"
	 xml:space="preserve">
<g id="chair">
	<path fill="#CBC8B8" d="M209.579,203.524c0-1.331,0.226-2.446,1.553-2.446h27.514c1.327,0,1.597,1.116,1.597,2.446
		c0,0,0,20.125,0,26.748H209.58C209.579,223.649,209.579,203.524,209.579,203.524z"/>
	<path fill="#BCBAAF" d="M244.255,246.463c0,0.797-1.077,1.471-2.405,1.471h-33.656c-1.328,0-2.404-0.674-2.404-1.471
		c0,0,6.277-12.267,6.277-16.191h26.511C238.579,234.197,244.255,246.463,244.255,246.463z"/>
	<path fill="#5E5951" d="M242.941,229.715c0,0.444-0.359,0.803-0.802,0.803h-3.795c-0.442,0-0.801-0.358-0.801-0.803v-21.944
		c0-0.444,0.358-0.802,0.801-0.802h3.796c0.441,0,0.801,0.357,0.801,0.802V229.715L242.941,229.715z"/>
	<path fill="#5E5951" d="M212.522,229.715c0,0.444-0.358,0.803-0.801,0.803h-3.794c-0.442,0-0.801-0.358-0.801-0.803v-21.944
		c0-0.444,0.358-0.802,0.801-0.802h3.794c0.443,0,0.801,0.357,0.801,0.802V229.715L212.522,229.715z"/>
</g>
<rect x="179.254" y="157.543" fill="#E2E0D6" stroke="#4D4D4D" stroke-width="2" stroke-miterlimit="10" width="89.804" height="56.004"/>
<g id="notebook_2_">
	<path d="M219.104,204.752c0,0.24,0.01,0.335-0.231,0.335h-19.132c-0.24,0-0.791-0.529-0.791-0.77v-0.982c0,0,0.551,0,0.791,0
		h19.132c0.24,0,0.231,0.309,0.231,0.547V204.752L219.104,204.752z"/>
	<path fill="#FFFFFF" d="M218.52,203.914c0,0.465,0.377,0.59,0.137,0.59h-18.938c-0.24,0-0.185-0.127-0.185-0.59v-0.422
		c0-0.464,0.185-1.327,0.424-1.327h18.48c0.24,0,0.081,0.863,0.081,1.327L218.52,203.914L218.52,203.914z"/>
	<path d="M219.98,203.201c0,0.396-0.322,0.72-0.719,0.72h-19.592c-0.397,0-0.719-0.323-0.719-0.72v-25.73
		c0-0.397,0.321-0.719,0.719-0.719h19.592c0.397,0,0.719,0.322,0.719,0.719L219.98,203.201L219.98,203.201z"/>
</g>
<g id="notebook_1_">
	<path fill="#0E265D" d="M240.132,204.376c0,0.211,0.009,0.297-0.205,0.297H222.92c-0.213,0-0.703-0.472-0.703-0.685v-0.875
		c0,0,0.489,0,0.703,0h17.007c0.213,0,0.205,0.275,0.205,0.488V204.376L240.132,204.376z"/>
	<path fill="#FFFFFF" d="M239.614,203.628c0,0.412,0.334,0.524,0.121,0.524H222.9c-0.214,0-0.164-0.113-0.164-0.524v-0.374
		c0-0.412,0.164-1.182,0.377-1.182h16.427c0.213,0,0.072,0.77,0.072,1.182L239.614,203.628L239.614,203.628z"/>
	<path fill="#0E265D" d="M240.897,203.074c0,0.354-0.286,0.64-0.64,0.64h-17.416c-0.353,0-0.638-0.286-0.638-0.64v-22.871
		c0-0.353,0.285-0.639,0.638-0.639h17.416c0.354,0,0.639,0.286,0.639,0.639L240.897,203.074L240.897,203.074z"/>
</g>
<g id="pencil">
	<polygon fill="#F4ECBD" points="244.396,187.873 242.935,190.611 245.674,190.611 	"/>
	<polygon points="244.421,187.919 244.032,188.649 244.76,188.649 	"/>
	<path fill="#998D74" d="M244.862,203.371H242.9v-12.752c0,0,0.264-0.181,0.36-0.183c0.107-0.002,0.397,0.183,0.397,0.183
		s0.501-0.183,0.602-0.183c0.103,0,0.603,0.183,0.603,0.183V203.371L244.862,203.371z"/>
	<path fill="#5E5951" d="M245.598,203.371h-0.736v-12.752c0,0-0.017-0.182,0.071-0.183c0.096-0.002,0.219,0.183,0.219,0.183
		s0.132-0.183,0.224-0.183s0.223,0.183,0.223,0.183V203.371z"/>
	<rect x="242.9" y="203.371" fill="#FC9B7A" width="2.698" height="1.718"/>
</g>
</svg>
