<?xml version="1.0" encoding="utf-8"?>
<!-- Generator: Adobe Illustrator 16.0.0, SVG Export Plug-In . SVG Version: 6.00 Build 0)  -->
<!DOCTYPE svg PUBLIC "-//W3C//DTD SVG 1.1//EN" "http://www.w3.org/Graphics/SVG/1.1/DTD/svg11.dtd">
<svg version="1.1" id="图层_1_x5F_复制" xmlns="http://www.w3.org/2000/svg" xmlns:xlink="http://www.w3.org/1999/xlink"
	 x="0px" y="0px" width="112.083px" height="87.749px" viewBox="0 0 112.083 87.749" enable-background="new 0 0 112.083 87.749"
	 xml:space="preserve">
<polygon fill="#E2E0D6" stroke="#4B4B4B" stroke-width="2" stroke-miterlimit="10" points="111.167,0.999 111.167,86.999 
	1.167,86.999 1,0.999 "/>
<g id="monitor_5_">
	<path d="M44.615,27.934c0.003-0.516,0.432-0.926,0.942-0.917l23.383,0.328c0.516,0.005,0.926,0.427,0.918,0.943l-0.053,3.747
		c-0.006,0.514-0.429,0.928-0.942,0.919l-23.382-0.328c-0.517-0.006-0.926-0.43-0.918-0.943L44.615,27.934z"/>
	<path fill="#666666" d="M12.167,22.266c0-1.308,4.7-2.854,7.093-2.854l76.168-0.183c2.394,0,7.738,1.73,7.738,3.037v4.739
		c0,1.308-2.561,1.994-4.953,1.994H15.881c-2.394,0-3.714-0.686-3.714-1.994V22.266z"/>
</g>
<g id="keyboard">
	<path fill="#808080" d="M95.563,60.692c0,1.823-0.945,4.291-2.226,4.291H20.993c-1.281,0-2.541-2.468-2.541-4.291V44.183
		c0-1.824,1.26-2.736,2.541-2.736h72.344c1.28,0,2.226,0.912,2.226,2.736V60.692L95.563,60.692z"/>
	<path fill="#999999" d="M95.563,59.391c0,1.702-0.739,4.041-2.025,4.041H21.001c-1.284,0-2.547-2.339-2.547-4.041V43.982
		c0-1.7,1.263-2.535,2.547-2.535h72.537c1.288,0,2.025,0.835,2.025,2.535V59.391z"/>
	<g id="key">
		<g id="line1_2_">
			<path fill="#E6E6E6" d="M90.231,45.948c0,0.538-0.438,0.976-0.974,0.976h-7.898c-0.538,0-0.974-0.438-0.974-0.976v-2.079
				c0-0.536,0.436-0.974,0.974-0.974h7.898c0.535,0,0.974,0.438,0.974,0.974V45.948z"/>
			<path fill="#E6E6E6" d="M39.21,45.948c0,0.538-0.438,0.976-0.974,0.976h-2.082c-0.538,0-0.974-0.438-0.974-0.976v-2.079
				c0-0.536,0.436-0.974,0.974-0.974h2.082c0.536,0,0.974,0.438,0.974,0.974V45.948z"/>
			<path fill="#E6E6E6" d="M44.134,45.948c0,0.538-0.437,0.976-0.975,0.976H41.08c-0.54,0-0.977-0.438-0.977-0.976v-2.079
				c0-0.536,0.438-0.974,0.977-0.974h2.079c0.538,0,0.975,0.438,0.975,0.974V45.948z"/>
			<path fill="#E6E6E6" d="M49.056,45.948c0,0.538-0.437,0.976-0.975,0.976h-2.081c-0.537,0-0.975-0.438-0.975-0.976v-2.079
				c0-0.536,0.438-0.974,0.975-0.974h2.081c0.538,0,0.975,0.438,0.975,0.974V45.948z"/>
			<path fill="#E6E6E6" d="M54.425,45.948c0,0.538-0.436,0.976-0.975,0.976h-2.08c-0.538,0-0.977-0.438-0.977-0.976v-2.079
				c0-0.536,0.438-0.974,0.977-0.974h2.08c0.539,0,0.975,0.438,0.975,0.974V45.948z"/>
			<path fill="#E6E6E6" d="M59.258,45.948c0,0.538-0.436,0.976-0.974,0.976h-2.081c-0.537,0-0.974-0.438-0.974-0.976v-2.079
				c0-0.536,0.438-0.974,0.974-0.974h2.081c0.538,0,0.974,0.438,0.974,0.974V45.948z"/>
			<path fill="#E6E6E6" d="M64.364,45.948c0,0.538-0.436,0.976-0.974,0.976h-2.079c-0.538,0-0.976-0.438-0.976-0.976v-2.079
				c0-0.536,0.438-0.974,0.976-0.974h2.079c0.538,0,0.974,0.438,0.974,0.974V45.948z"/>
			<path fill="#E6E6E6" d="M69.33,45.948c0,0.538-0.44,0.976-0.976,0.976h-2.079c-0.536,0-0.974-0.438-0.974-0.976v-2.079
				c0-0.536,0.438-0.974,0.974-0.974h2.079c0.535,0,0.976,0.438,0.976,0.974V45.948z"/>
			<path fill="#E6E6E6" d="M74.567,45.948c0,0.538-0.436,0.976-0.974,0.976h-2.081c-0.536,0-0.975-0.438-0.975-0.976v-2.079
				c0-0.536,0.438-0.974,0.975-0.974h2.081c0.538,0,0.974,0.438,0.974,0.974V45.948z"/>
			<path fill="#E6E6E6" d="M79.489,45.948c0,0.538-0.435,0.976-0.974,0.976h-2.078c-0.541,0-0.977-0.438-0.977-0.976v-2.079
				c0-0.536,0.436-0.974,0.977-0.974h2.078c0.539,0,0.974,0.438,0.974,0.974V45.948z"/>
			<path fill="#E6E6E6" d="M34.286,45.948c0,0.538-0.437,0.976-0.975,0.976h-7.895c-0.54,0-0.976-0.438-0.976-0.976v-2.079
				c0-0.536,0.437-0.974,0.976-0.974h7.895c0.54,0,0.975,0.438,0.975,0.974V45.948z"/>
		</g>
		<g id="line2">
			<path fill="#E6E6E6" d="M32.497,51.318c0,0.536-0.438,0.974-0.976,0.974h-2.078c-0.538,0-0.975-0.438-0.975-0.974v-2.079
				c0-0.538,0.437-0.976,0.975-0.976h2.078c0.538,0,0.976,0.438,0.976,0.976V51.318z"/>
			<path fill="#E6E6E6" d="M37.419,51.318c0,0.536-0.438,0.974-0.974,0.974h-2.081c-0.539,0-0.974-0.438-0.974-0.974v-2.079
				c0-0.538,0.435-0.976,0.974-0.976h2.081c0.537,0,0.974,0.438,0.974,0.976V51.318z"/>
			<path fill="#E6E6E6" d="M42.074,51.318c0,0.536-0.438,0.974-0.976,0.974h-2.079c-0.538,0-0.974-0.438-0.974-0.974v-2.079
				c0-0.538,0.436-0.976,0.974-0.976h2.079c0.538,0,0.976,0.438,0.976,0.976V51.318z"/>
			<path fill="#E6E6E6" d="M47.399,51.318c0,0.536-0.438,0.974-0.972,0.974h-2.081c-0.536,0-0.974-0.438-0.974-0.974v-2.079
				c0-0.538,0.438-0.976,0.974-0.976h2.081c0.539,0,0.972,0.438,0.972,0.976V51.318z"/>
			<path fill="#E6E6E6" d="M52.188,51.318c0,0.536-0.438,0.974-0.975,0.974h-2.081c-0.536,0-0.974-0.438-0.974-0.974v-2.079
				c0-0.538,0.438-0.976,0.974-0.976h2.081c0.538,0,0.975,0.438,0.975,0.976V51.318z"/>
			<path fill="#E6E6E6" d="M57.651,51.318c0,0.536-0.438,0.974-0.974,0.974h-2.082c-0.538,0-0.975-0.438-0.975-0.974v-2.079
				c0-0.538,0.438-0.976,0.975-0.976h2.082c0.536,0,0.974,0.438,0.974,0.976V51.318z"/>
			<path fill="#E6E6E6" d="M62.481,51.318c0,0.536-0.436,0.974-0.972,0.974h-2.081c-0.538,0-0.977-0.438-0.977-0.974v-2.079
				c0-0.538,0.438-0.976,0.977-0.976h2.081c0.536,0,0.972,0.438,0.972,0.976V51.318z"/>
			<path fill="#E6E6E6" d="M67.403,51.318c0,0.536-0.433,0.974-0.974,0.974h-2.081c-0.533,0-0.971-0.438-0.971-0.974v-2.079
				c0-0.538,0.438-0.976,0.971-0.976h2.081c0.541,0,0.974,0.438,0.974,0.976V51.318z"/>
			<path fill="#E6E6E6" d="M72.777,51.318c0,0.536-0.438,0.974-0.977,0.974h-2.079c-0.535,0-0.974-0.438-0.974-0.974v-2.079
				c0-0.538,0.438-0.976,0.974-0.976H71.8c0.538,0,0.977,0.438,0.977,0.976V51.318z"/>
			<path fill="#E6E6E6" d="M77.699,51.318c0,0.536-0.438,0.974-0.974,0.974h-2.076c-0.541,0-0.976-0.438-0.976-0.974v-2.079
				c0-0.538,0.435-0.976,0.976-0.976h2.076c0.536,0,0.974,0.438,0.974,0.976V51.318z"/>
			<path fill="#E6E6E6" d="M83.07,51.318c0,0.536-0.436,0.974-0.974,0.974h-2.079c-0.538,0-0.974-0.438-0.974-0.974v-2.079
				c0-0.538,0.436-0.976,0.974-0.976h2.079c0.538,0,0.974,0.438,0.974,0.976V51.318z"/>
			<path fill="#E6E6E6" d="M87.992,51.318c0,0.536-0.435,0.974-0.971,0.974H84.94c-0.541,0-0.974-0.438-0.974-0.974v-2.079
				c0-0.538,0.433-0.976,0.974-0.976h2.081c0.536,0,0.971,0.438,0.971,0.976V51.318z"/>
		</g>
		<g id="line3_2_">
			<path fill="#E6E6E6" d="M90.231,56.398c0,0.538-0.438,0.974-0.974,0.974h-7.898c-0.538,0-0.974-0.436-0.974-0.974v-2.079
				c0-0.538,0.436-0.974,0.974-0.974h7.898c0.535,0,0.974,0.438,0.974,0.974V56.398z"/>
			<path fill="#E6E6E6" d="M39.299,56.398c0,0.538-0.437,0.974-0.975,0.974h-2.079c-0.539,0-0.977-0.436-0.977-0.974v-2.079
				c0-0.538,0.438-0.974,0.977-0.974h2.079c0.539,0,0.975,0.438,0.975,0.974V56.398z"/>
			<path fill="#E6E6E6" d="M44.177,56.398c0,0.538-0.438,0.974-0.975,0.974h-2.079c-0.538,0-0.976-0.436-0.976-0.974v-2.079
				c0-0.538,0.438-0.974,0.976-0.974h2.079c0.537,0,0.975,0.438,0.975,0.974V56.398z"/>
			<path fill="#E6E6E6" d="M49.101,56.398c0,0.538-0.438,0.974-0.975,0.974h-2.08c-0.539,0-0.974-0.436-0.974-0.974v-2.079
				c0-0.538,0.438-0.974,0.974-0.974h2.08c0.537,0,0.975,0.438,0.975,0.974V56.398z"/>
			<path fill="#E6E6E6" d="M54.202,56.398c0,0.538-0.436,0.974-0.974,0.974h-2.079c-0.54,0-0.977-0.436-0.977-0.974v-2.079
				c0-0.538,0.438-0.974,0.977-0.974h2.079c0.538,0,0.974,0.438,0.974,0.974V56.398z"/>
			<path fill="#E6E6E6" d="M59.17,56.398c0,0.538-0.438,0.974-0.976,0.974h-2.077c-0.541,0-0.977-0.436-0.977-0.974v-2.079
				c0-0.538,0.436-0.974,0.977-0.974h2.077c0.538,0,0.976,0.438,0.976,0.974V56.398z"/>
			<path fill="#E6E6E6" d="M64.41,56.398c0,0.538-0.44,0.974-0.976,0.974h-2.079c-0.538,0-0.977-0.436-0.977-0.974v-2.079
				c0-0.538,0.438-0.974,0.977-0.974h2.079c0.535,0,0.976,0.438,0.976,0.974V56.398z"/>
			<path fill="#E6E6E6" d="M69.376,56.398c0,0.538-0.44,0.974-0.977,0.974h-2.081c-0.536,0-0.974-0.436-0.974-0.974v-2.079
				c0-0.538,0.438-0.974,0.974-0.974H68.4c0.536,0,0.977,0.438,0.977,0.974V56.398z"/>
			<path fill="#E6E6E6" d="M74.567,56.398c0,0.538-0.436,0.974-0.974,0.974h-2.081c-0.536,0-0.975-0.436-0.975-0.974v-2.079
				c0-0.538,0.438-0.974,0.975-0.974h2.081c0.538,0,0.974,0.438,0.974,0.974V56.398z"/>
			<path fill="#E6E6E6" d="M79.489,56.398c0,0.538-0.435,0.974-0.974,0.974h-2.078c-0.541,0-0.977-0.436-0.977-0.974v-2.079
				c0-0.538,0.436-0.974,0.977-0.974h2.078c0.539,0,0.974,0.438,0.974,0.974V56.398z"/>
			<path fill="#E6E6E6" d="M34.286,56.398c0,0.538-0.437,0.974-0.975,0.974h-7.895c-0.54,0-0.976-0.436-0.976-0.974v-2.079
				c0-0.538,0.437-0.974,0.976-0.974h7.895c0.54,0,0.975,0.438,0.975,0.974V56.398z"/>
		</g>
		<g id="line4">
			<path fill="#E6E6E6" d="M32.721,61.609c0,0.541-0.438,0.976-0.976,0.976h-2.079c-0.538,0-0.975-0.435-0.975-0.976v-2.076
				c0-0.539,0.438-0.974,0.975-0.974h2.079c0.538,0,0.976,0.435,0.976,0.974V61.609z"/>
			<path fill="#E6E6E6" d="M37.643,61.609c0,0.541-0.438,0.976-0.975,0.976h-2.079c-0.537,0-0.974-0.435-0.974-0.976v-2.076
				c0-0.539,0.437-0.974,0.974-0.974h2.079c0.537,0,0.975,0.435,0.975,0.974V61.609z"/>
			<path fill="#E6E6E6" d="M42.52,61.609c0,0.541-0.439,0.976-0.977,0.976h-2.08c-0.537,0-0.975-0.435-0.975-0.976v-2.076
				c0-0.539,0.438-0.974,0.975-0.974h2.08c0.537,0,0.977,0.435,0.977,0.974V61.609z"/>
			<path fill="#E6E6E6" d="M77.434,61.609c0,0.541-0.436,0.976-0.977,0.976h-2.079c-0.538,0-0.974-0.435-0.974-0.976v-2.076
				c0-0.539,0.436-0.974,0.974-0.974h2.079c0.541,0,0.977,0.435,0.977,0.974V61.609z"/>
			<path fill="#E6E6E6" d="M82.801,61.609c0,0.541-0.435,0.976-0.976,0.976H79.75c-0.538,0-0.974-0.435-0.974-0.976v-2.076
				c0-0.539,0.436-0.974,0.974-0.974h2.076c0.541,0,0.976,0.435,0.976,0.974V61.609z"/>
			<path fill="#E6E6E6" d="M87.724,61.609c0,0.541-0.436,0.976-0.974,0.976h-2.079c-0.54,0-0.974-0.435-0.974-0.976v-2.076
				c0-0.539,0.434-0.974,0.974-0.974h2.079c0.538,0,0.974,0.435,0.974,0.974V61.609z"/>
			<path fill="#E6E6E6" d="M72.331,61.353c0,0.616-0.448,1.234-0.986,1.234H44.542c-0.539,0-0.855-0.618-0.855-1.234v-1.669
				c0-0.618,0.317-1.125,0.855-1.125h26.802c0.538,0,0.986,0.51,0.986,1.125V61.353L72.331,61.353z"/>
		</g>
	</g>
</g>
</svg>
