<?xml version="1.0" encoding="utf-8"?>
<!-- Generator: Adobe Illustrator 19.2.1, SVG Export Plug-In . SVG Version: 6.00 Build 0)  -->
<svg version="1.1" id="图层_1_x5F_复制" xmlns="http://www.w3.org/2000/svg" xmlns:xlink="http://www.w3.org/1999/xlink"
	 x="0px" y="0px" viewBox="0 0 100 60" style="enable-background:new 0 0 100 60;" xml:space="preserve">
<style type="text/css">
	.st0{fill:#E2E0D6;stroke:#4B4B4B;stroke-width:2;stroke-miterlimit:10;}
	.st1{fill:#666666;}
	.st2{fill:#808080;}
	.st3{fill:#999999;}
	.st4{fill:#E6E6E6;}
</style>
<polygon class="st0" points="100,0.1 100,60.1 0.2,60.1 0,0.1 "/>
<g id="monitor_5_">
	<path d="M42.9,18.9c0-0.3,0.3-0.6,0.6-0.6L59,18.5c0.3,0,0.6,0.3,0.6,0.6v2.5c0,0.3-0.3,0.6-0.6,0.6L43.6,22
		c-0.3,0-0.6-0.3-0.6-0.6L42.9,18.9z"/>
	<path class="st1" d="M21.6,15.2c0-0.9,3.1-1.9,4.7-1.9l50.2-0.1c1.6,0,5.1,1.1,5.1,2v3.1c0,0.9-1.7,1.3-3.3,1.3H24
		c-1.6,0-2.4-0.5-2.4-1.3V15.2z"/>
</g>
<g id="keyboard">
	<path class="st2" d="M76.5,40.5c0,1.2-0.6,2.8-1.5,2.8H27.4c-0.8,0-1.7-1.6-1.7-2.8V29.6c0-1.2,0.8-1.8,1.7-1.8h47.7
		c0.8,0,1.5,0.6,1.5,1.8L76.5,40.5L76.5,40.5z"/>
	<path class="st3" d="M76.5,39.8c0,1.1-0.5,2.7-1.3,2.7H27.4c-0.8,0-1.7-1.5-1.7-2.7V29.5c0-1.1,0.8-1.7,1.7-1.7h47.8
		c0.8,0,1.3,0.6,1.3,1.7V39.8z"/>
	<g id="key">
		<g id="line1_2_">
			<path class="st4" d="M73,30.8c0,0.4-0.3,0.6-0.6,0.6h-5.2c-0.4,0-0.6-0.3-0.6-0.6v-1.4c0-0.4,0.3-0.6,0.6-0.6h5.2
				c0.4,0,0.6,0.3,0.6,0.6V30.8z"/>
			<path class="st4" d="M39.4,30.8c0,0.4-0.3,0.6-0.6,0.6h-1.4c-0.4,0-0.6-0.3-0.6-0.6v-1.4c0-0.4,0.3-0.6,0.6-0.6h1.4
				c0.4,0,0.6,0.3,0.6,0.6V30.8z"/>
			<path class="st4" d="M42.6,30.8c0,0.4-0.3,0.6-0.6,0.6h-1.4c-0.4,0-0.6-0.3-0.6-0.6v-1.4c0-0.4,0.3-0.6,0.6-0.6H42
				c0.4,0,0.6,0.3,0.6,0.6V30.8z"/>
			<path class="st4" d="M45.9,30.8c0,0.4-0.3,0.6-0.6,0.6h-1.4c-0.4,0-0.6-0.3-0.6-0.6v-1.4c0-0.4,0.3-0.6,0.6-0.6h1.4
				c0.4,0,0.6,0.3,0.6,0.6V30.8z"/>
			<path class="st4" d="M49.4,30.8c0,0.4-0.3,0.6-0.6,0.6h-1.4c-0.4,0-0.6-0.3-0.6-0.6v-1.4c0-0.4,0.3-0.6,0.6-0.6h1.4
				c0.4,0,0.6,0.3,0.6,0.6V30.8z"/>
			<path class="st4" d="M52.6,30.8c0,0.4-0.3,0.6-0.6,0.6h-1.4c-0.4,0-0.6-0.3-0.6-0.6v-1.4c0-0.4,0.3-0.6,0.6-0.6H52
				c0.4,0,0.6,0.3,0.6,0.6V30.8z"/>
			<path class="st4" d="M56,30.8c0,0.4-0.3,0.6-0.6,0.6H54c-0.4,0-0.6-0.3-0.6-0.6v-1.4c0-0.4,0.3-0.6,0.6-0.6h1.4
				c0.4,0,0.6,0.3,0.6,0.6V30.8z"/>
			<path class="st4" d="M59.2,30.8c0,0.4-0.3,0.6-0.6,0.6h-1.4c-0.4,0-0.6-0.3-0.6-0.6v-1.4c0-0.4,0.3-0.6,0.6-0.6h1.4
				c0.4,0,0.6,0.3,0.6,0.6V30.8z"/>
			<path class="st4" d="M62.7,30.8c0,0.4-0.3,0.6-0.6,0.6h-1.4c-0.4,0-0.6-0.3-0.6-0.6v-1.4c0-0.4,0.3-0.6,0.6-0.6h1.4
				c0.4,0,0.6,0.3,0.6,0.6V30.8z"/>
			<path class="st4" d="M65.9,30.8c0,0.4-0.3,0.6-0.6,0.6h-1.4c-0.4,0-0.6-0.3-0.6-0.6v-1.4c0-0.4,0.3-0.6,0.6-0.6h1.4
				c0.4,0,0.6,0.3,0.6,0.6V30.8z"/>
			<path class="st4" d="M36.1,30.8c0,0.4-0.3,0.6-0.6,0.6h-5.2c-0.4,0-0.6-0.3-0.6-0.6v-1.4c0-0.4,0.3-0.6,0.6-0.6h5.2
				c0.4,0,0.6,0.3,0.6,0.6V30.8z"/>
		</g>
		<g id="line2">
			<path class="st4" d="M35,34.3c0,0.4-0.3,0.6-0.6,0.6H33c-0.4,0-0.6-0.3-0.6-0.6v-1.4c0-0.4,0.3-0.6,0.6-0.6h1.4
				c0.4,0,0.6,0.3,0.6,0.6V34.3z"/>
			<path class="st4" d="M38.2,34.3c0,0.4-0.3,0.6-0.6,0.6h-1.4c-0.4,0-0.6-0.3-0.6-0.6v-1.4c0-0.4,0.3-0.6,0.6-0.6h1.4
				c0.4,0,0.6,0.3,0.6,0.6V34.3z"/>
			<path class="st4" d="M41.3,34.3c0,0.4-0.3,0.6-0.6,0.6h-1.4c-0.4,0-0.6-0.3-0.6-0.6v-1.4c0-0.4,0.3-0.6,0.6-0.6h1.4
				c0.4,0,0.6,0.3,0.6,0.6V34.3z"/>
			<path class="st4" d="M44.8,34.3c0,0.4-0.3,0.6-0.6,0.6h-1.4c-0.4,0-0.6-0.3-0.6-0.6v-1.4c0-0.4,0.3-0.6,0.6-0.6h1.4
				c0.4,0,0.6,0.3,0.6,0.6V34.3z"/>
			<path class="st4" d="M47.9,34.3c0,0.4-0.3,0.6-0.6,0.6h-1.4c-0.4,0-0.6-0.3-0.6-0.6v-1.4c0-0.4,0.3-0.6,0.6-0.6h1.4
				c0.4,0,0.6,0.3,0.6,0.6V34.3z"/>
			<path class="st4" d="M51.5,34.3c0,0.4-0.3,0.6-0.6,0.6h-1.4c-0.4,0-0.6-0.3-0.6-0.6v-1.4c0-0.4,0.3-0.6,0.6-0.6h1.4
				c0.4,0,0.6,0.3,0.6,0.6V34.3z"/>
			<path class="st4" d="M54.7,34.3c0,0.4-0.3,0.6-0.6,0.6h-1.4c-0.4,0-0.6-0.3-0.6-0.6v-1.4c0-0.4,0.3-0.6,0.6-0.6h1.4
				c0.4,0,0.6,0.3,0.6,0.6V34.3z"/>
			<path class="st4" d="M58,34.3c0,0.4-0.3,0.6-0.6,0.6H56c-0.4,0-0.6-0.3-0.6-0.6v-1.4c0-0.4,0.3-0.6,0.6-0.6h1.4
				c0.4,0,0.6,0.3,0.6,0.6V34.3z"/>
			<path class="st4" d="M61.5,34.3c0,0.4-0.3,0.6-0.6,0.6h-1.4c-0.4,0-0.6-0.3-0.6-0.6v-1.4c0-0.4,0.3-0.6,0.6-0.6h1.4
				c0.4,0,0.6,0.3,0.6,0.6V34.3z"/>
			<path class="st4" d="M64.8,34.3c0,0.4-0.3,0.6-0.6,0.6h-1.4c-0.4,0-0.6-0.3-0.6-0.6v-1.4c0-0.4,0.3-0.6,0.6-0.6h1.4
				c0.4,0,0.6,0.3,0.6,0.6V34.3z"/>
			<path class="st4" d="M68.3,34.3c0,0.4-0.3,0.6-0.6,0.6h-1.4c-0.4,0-0.6-0.3-0.6-0.6v-1.4c0-0.4,0.3-0.6,0.6-0.6h1.4
				c0.4,0,0.6,0.3,0.6,0.6V34.3z"/>
			<path class="st4" d="M71.5,34.3c0,0.4-0.3,0.6-0.6,0.6h-1.4c-0.4,0-0.6-0.3-0.6-0.6v-1.4c0-0.4,0.3-0.6,0.6-0.6h1.4
				c0.4,0,0.6,0.3,0.6,0.6C71.5,33,71.5,34.3,71.5,34.3z"/>
		</g>
		<g id="line3_2_">
			<path class="st4" d="M73,37.8c0,0.4-0.3,0.6-0.6,0.6h-5.2c-0.4,0-0.6-0.3-0.6-0.6v-1.4c0-0.4,0.3-0.6,0.6-0.6h5.2
				c0.4,0,0.6,0.3,0.6,0.6V37.8z"/>
			<path class="st4" d="M39.4,37.8c0,0.4-0.3,0.6-0.6,0.6h-1.4c-0.4,0-0.6-0.3-0.6-0.6v-1.4c0-0.4,0.3-0.6,0.6-0.6h1.4
				c0.4,0,0.6,0.3,0.6,0.6V37.8z"/>
			<path class="st4" d="M42.7,37.8c0,0.4-0.3,0.6-0.6,0.6h-1.4c-0.4,0-0.6-0.3-0.6-0.6v-1.4c0-0.4,0.3-0.6,0.6-0.6H42
				c0.4,0,0.6,0.3,0.6,0.6v1.4H42.7z"/>
			<path class="st4" d="M45.9,37.8c0,0.4-0.3,0.6-0.6,0.6h-1.4c-0.4,0-0.6-0.3-0.6-0.6v-1.4c0-0.4,0.3-0.6,0.6-0.6h1.4
				c0.4,0,0.6,0.3,0.6,0.6V37.8z"/>
			<path class="st4" d="M49.3,37.8c0,0.4-0.3,0.6-0.6,0.6h-1.4c-0.4,0-0.6-0.3-0.6-0.6v-1.4c0-0.4,0.3-0.6,0.6-0.6h1.4
				c0.4,0,0.6,0.3,0.6,0.6V37.8z"/>
			<path class="st4" d="M52.5,37.8c0,0.4-0.3,0.6-0.6,0.6h-1.4c-0.4,0-0.6-0.3-0.6-0.6v-1.4c0-0.4,0.3-0.6,0.6-0.6h1.4
				c0.4,0,0.6,0.3,0.6,0.6V37.8z"/>
			<path class="st4" d="M56,37.8c0,0.4-0.3,0.6-0.6,0.6H54c-0.4,0-0.6-0.3-0.6-0.6v-1.4c0-0.4,0.3-0.6,0.6-0.6h1.4
				c0.4,0,0.6,0.3,0.6,0.6V37.8z"/>
			<path class="st4" d="M59.3,37.8c0,0.4-0.3,0.6-0.6,0.6h-1.4c-0.4,0-0.6-0.3-0.6-0.6v-1.4c0-0.4,0.3-0.6,0.6-0.6h1.4
				c0.4,0,0.6,0.3,0.6,0.6V37.8L59.3,37.8z"/>
			<path class="st4" d="M62.7,37.8c0,0.4-0.3,0.6-0.6,0.6h-1.4c-0.4,0-0.6-0.3-0.6-0.6v-1.4c0-0.4,0.3-0.6,0.6-0.6h1.4
				c0.4,0,0.6,0.3,0.6,0.6V37.8z"/>
			<path class="st4" d="M65.9,37.8c0,0.4-0.3,0.6-0.6,0.6h-1.4c-0.4,0-0.6-0.3-0.6-0.6v-1.4c0-0.4,0.3-0.6,0.6-0.6h1.4
				c0.4,0,0.6,0.3,0.6,0.6V37.8z"/>
			<path class="st4" d="M36.1,37.8c0,0.4-0.3,0.6-0.6,0.6h-5.2c-0.4,0-0.6-0.3-0.6-0.6v-1.4c0-0.4,0.3-0.6,0.6-0.6h5.2
				c0.4,0,0.6,0.3,0.6,0.6V37.8z"/>
		</g>
		<g id="line4">
			<path class="st4" d="M35.1,41.1c0,0.4-0.3,0.6-0.6,0.6h-1.4c-0.4,0-0.6-0.3-0.6-0.6v-1.3c0-0.4,0.3-0.6,0.6-0.6h1.4
				c0.4,0,0.6,0.3,0.6,0.6V41.1z"/>
			<path class="st4" d="M38.3,41.1c0,0.4-0.3,0.6-0.6,0.6h-1.4c-0.4,0-0.6-0.3-0.6-0.6v-1.3c0-0.4,0.3-0.6,0.6-0.6h1.4
				c0.4,0,0.6,0.3,0.6,0.6V41.1z"/>
			<path class="st4" d="M41.6,41.1c0,0.4-0.3,0.6-0.6,0.6h-1.4c-0.4,0-0.6-0.3-0.6-0.6v-1.3c0-0.4,0.3-0.6,0.6-0.6H41
				c0.4,0,0.6,0.3,0.6,0.6V41.1z"/>
			<path class="st4" d="M64.6,41.1c0,0.4-0.3,0.6-0.6,0.6h-1.4c-0.4,0-0.6-0.3-0.6-0.6v-1.3c0-0.4,0.3-0.6,0.6-0.6H64
				c0.4,0,0.6,0.3,0.6,0.6V41.1z"/>
			<path class="st4" d="M68.1,41.1c0,0.4-0.3,0.6-0.6,0.6h-1.4c-0.4,0-0.6-0.3-0.6-0.6v-1.3c0-0.4,0.3-0.6,0.6-0.6h1.4
				c0.4,0,0.6,0.3,0.6,0.6V41.1L68.1,41.1z"/>
			<path class="st4" d="M71.4,41.1c0,0.4-0.3,0.6-0.6,0.6h-1.4c-0.4,0-0.6-0.3-0.6-0.6v-1.3c0-0.4,0.3-0.6,0.6-0.6h1.4
				c0.4,0,0.6,0.3,0.6,0.6V41.1z"/>
			<path class="st4" d="M61.2,41c0,0.4-0.3,0.8-0.7,0.8H42.9c-0.4,0-0.6-0.4-0.6-0.8V40c0-0.4,0.2-0.7,0.6-0.7h17.7
				c0.4,0,0.7,0.3,0.7,0.7L61.2,41L61.2,41z"/>
		</g>
	</g>
</g>
</svg>
