<?xml version="1.0" encoding="utf-8"?>
<!-- Generator: Adobe Illustrator 16.0.0, SVG Export Plug-In . SVG Version: 6.00 Build 0)  -->
<!DOCTYPE svg PUBLIC "-//W3C//DTD SVG 1.1//EN" "http://www.w3.org/Graphics/SVG/1.1/DTD/svg11.dtd">
<svg version="1.1" id="图层_1" xmlns="http://www.w3.org/2000/svg" xmlns:xlink="http://www.w3.org/1999/xlink" x="0px" y="0px"
	 width="90px" height="90px" viewBox="0 0 90 90" enable-background="new 0 0 90 90" xml:space="preserve">
<path fill="#00325F" d="M90,80.139C90,85.585,85.919,90,80.887,90H9.114C4.081,90,0,85.586,0,80.139V9.863C0,4.416,4.081,0,9.114,0
	h71.773C85.919,0,90,4.416,90,9.863V80.139z"/>
<circle fill="#FFFFFF" cx="32.075" cy="32.147" r="10.096"/>
<path fill="none" stroke="#FFFFFA" stroke-width="2" stroke-linecap="round" stroke-miterlimit="10" d="M19.602,50.771
	C12.683,58.073,11.7,71.314,19.34,78.38c8.599,7.953,22.654,5.81,27.545-4.104"/>
<path fill="#FFFFFF" d="M58.582,81.758c-1.614,0.211-6.359-12.357-9.313-12.982c-7.109-1.506-10.728,8.826-18.281,0.746
	c-5.291-5.654-3.971-20.84-3.641-22.17c0.548-2.205,6.145-2.339,6.836-0.506c0.525,1.391-4.207,13.396,1.204,18.614
	c5.417,5.226,8.734-4.64,15.239-0.783C54.225,66.813,60.083,81.563,58.582,81.758z"/>
<text transform="matrix(1 0 0 1 52.5 27.8936)" fill="#FFFFFA" font-family="'Roboto-Light'" font-size="17.2062">WC</text>
</svg>
