<?xml version="1.0" encoding="utf-8"?>
<!-- Generator: Adobe Illustrator 16.0.0, SVG Export Plug-In . SVG Version: 6.00 Build 0)  -->
<!DOCTYPE svg PUBLIC "-//W3C//DTD SVG 1.1//EN" "http://www.w3.org/Graphics/SVG/1.1/DTD/svg11.dtd">
<svg version="1.1" id="图层_1" xmlns="http://www.w3.org/2000/svg" xmlns:xlink="http://www.w3.org/1999/xlink" x="0px" y="0px"
	 width="90px" height="90px" viewBox="0 0 90 90" enable-background="new 0 0 90 90" xml:space="preserve">
<path fill="#00325F" d="M90,80.138C90,85.585,85.919,90,80.886,90H9.114C4.081,90,0,85.586,0,80.138V9.863C0,4.416,4.081,0,9.114,0
	h71.772C85.919,0,90,4.416,90,9.863V80.138z"/>
<circle fill="#FFFFFF" cx="39.195" cy="17.566" r="13.515"/>
<path fill="none" stroke="#FFFFFA" stroke-width="2" stroke-linecap="round" stroke-miterlimit="10" d="M22.498,42.496
	c-9.262,9.775-10.578,27.5-0.351,36.959c11.511,10.646,30.326,7.777,36.873-5.495"/>
<path fill="#FFFFFF" d="M74.678,83.977c-2.161,0.282-8.512-16.543-12.466-17.38c-9.516-2.017-14.358,11.814-24.47,0.999
	c-7.082-7.57-5.316-27.898-4.874-29.678c0.733-2.95,8.226-3.132,9.151-0.678c0.703,1.864-5.631,17.932,1.612,24.919
	c7.251,6.995,11.692-6.211,20.4-1.047C68.845,63.969,76.687,83.715,74.678,83.977z"/>
</svg>
