<?xml version="1.0" encoding="utf-8"?>
<!-- Generator: Adobe Illustrator 16.0.0, SVG Export Plug-In . SVG Version: 6.00 Build 0)  -->
<!DOCTYPE svg PUBLIC "-//W3C//DTD SVG 1.1//EN" "http://www.w3.org/Graphics/SVG/1.1/DTD/svg11.dtd">
<svg version="1.1" id="图层_1" xmlns="http://www.w3.org/2000/svg" xmlns:xlink="http://www.w3.org/1999/xlink" x="0px" y="0px"
	 width="90px" height="90px" viewBox="0 0 90 90" enable-background="new 0 0 90 90" xml:space="preserve">
<path fill="#00325F" d="M90,80.138C90,85.585,85.919,90,80.886,90H9.114C4.081,90,0,85.586,0,80.138V9.863C0,4.416,4.081,0,9.114,0
	h71.772C85.919,0,90,4.416,90,9.863V80.138z"/>
<ellipse fill="#FFFFFF" cx="45.001" cy="79.877" rx="40.168" ry="5.072"/>
<path fill="#FFFFFA" stroke="#00325F" stroke-miterlimit="10" d="M52.228,78.962H37.811c-25.595,0-26.674-40.824-26.674-40.824
	c0-2.447-0.151-4.283,1.44-4.283H77.46c1.594,0,1.441,1.836,1.441,4.283C78.903,38.138,76.38,78.962,52.228,78.962z"/>
<path fill="none" stroke="#FFFFFA" stroke-width="2" stroke-linecap="round" stroke-miterlimit="10" d="M28.986,3.912
	c5.563,5.784-2.697,9.936-2.697,14.087c0,2.966,2.023,7.117,7.08,8.749"/>
<path fill="none" stroke="#FFFFFA" stroke-width="2" stroke-linecap="round" stroke-miterlimit="10" d="M44.158,3.586
	c5.563,5.783-2.698,9.936-2.698,14.087c0,2.966,2.022,7.117,7.081,8.75"/>
<path fill="none" stroke="#FFFFFA" stroke-width="2" stroke-linecap="round" stroke-miterlimit="10" d="M59.328,3.586
	c5.563,5.783-2.697,9.936-2.697,14.087c0,2.966,2.023,7.117,7.08,8.75"/>
<path display="none" fill="none" stroke="#BE3E43" stroke-width="2" stroke-linecap="round" stroke-miterlimit="10" d="
	M76.75,66.031c23.833-2.114,20.583-22.781,3.333-24.781"/>
</svg>
