<?xml version="1.0" encoding="utf-8"?>
<!-- Generator: Adobe Illustrator 16.0.0, SVG Export Plug-In . SVG Version: 6.00 Build 0)  -->
<!DOCTYPE svg PUBLIC "-//W3C//DTD SVG 1.1//EN" "http://www.w3.org/Graphics/SVG/1.1/DTD/svg11.dtd">
<svg version="1.1" id="图层_1" xmlns="http://www.w3.org/2000/svg" xmlns:xlink="http://www.w3.org/1999/xlink" x="0px" y="0px"
	 width="90px" height="90px" viewBox="0 0 90 90" enable-background="new 0 0 90 90" xml:space="preserve">
<path fill="#00325F" d="M90,80.955C90,85.698,86.738,90,82.348,90H8.525C4.135,90,0,85.698,0,80.955V8.587C0,3.844,4.134,0,8.525,0
	h73.822C86.738,0,90,3.844,90,8.587V80.955z"/>
<path display="none" fill="#FFFFFF" d="M80.875,82.434c0,0.568-0.463,1.028-1.032,1.028H30.625c-0.571,0-1.033-0.46-1.033-1.028
	V7.566c0-0.567,0.462-1.028,1.033-1.028h49.217c0.569,0,1.032,0.46,1.032,1.028V82.434z M48.311,44.487
	c0-0.566-0.458-1.026-1.025-1.026H11.901c-0.566,0-1.026,0.459-1.026,1.026v1.025c0,0.567,0.459,1.025,1.026,1.025h35.384
	c0.567,0,1.025-0.458,1.025-1.025V44.487z"/>
<g>
	<path fill="#FFFFFA" d="M73.684,43c0,1.012-0.821,1.834-1.834,1.834H57.852c-1.013,0-1.834-0.822-1.834-1.834l0,0
		c0-1.013,0.821-1.833,1.834-1.833H71.85C72.862,41.166,73.684,41.987,73.684,43L73.684,43z"/>
	<path fill="#FFFFFA" d="M71.932,35.447l11.533,6.66c0.689,0.397,0.689,1.389,0,1.785l-11.533,6.661
		c-0.688,0.398-1.547-0.1-1.547-0.891V36.339C70.386,35.546,71.245,35.05,71.932,35.447z"/>
</g>
<path fill="#FFFFFA" d="M68.167,68.549c0,2.721-1.978,4.926-4.418,4.926h-41.83c-2.44,0-4.419-2.205-4.419-4.926V12.4
	c0-2.721,1.979-4.926,4.419-4.926h41.83c2.44,0,4.418,2.205,4.418,4.926V68.549z M65.167,14.952c0-2.474-1.798-4.478-4.018-4.478
	H23.82c-2.218,0-4.017,2.004-4.017,4.478v51.044c0,2.473,1.799,4.479,4.017,4.479h37.329c2.22,0,4.018-2.006,4.018-4.479V14.952z"/>
<path fill="#FFFFFA" d="M54.667,77.619c0,2.719-1.457,4.924-3.255,4.924l-30.656-9.068c-2.318-0.813-3.256-2.205-3.256-4.926V12.4
	c0-2.721,2.62-5.176,4.292-4.926l29.62,9.074c1.744,0.988,3.255,2.205,3.255,4.926V77.619z"/>
</svg>
