<?xml version="1.0" encoding="utf-8"?>
<!-- Generator: Adobe Illustrator 16.0.0, SVG Export Plug-In . SVG Version: 6.00 Build 0)  -->
<!DOCTYPE svg PUBLIC "-//W3C//DTD SVG 1.1//EN" "http://www.w3.org/Graphics/SVG/1.1/DTD/svg11.dtd">
<svg version="1.1" id="图层_1" xmlns="http://www.w3.org/2000/svg" xmlns:xlink="http://www.w3.org/1999/xlink" x="0px" y="0px"
	 width="90px" height="90px" viewBox="0 0 90 90" enable-background="new 0 0 90 90" xml:space="preserve">
<path fill="#00325F" d="M90,80.955C90,85.698,86.738,90,82.348,90H8.525C4.135,90,0,85.698,0,80.955V8.587C0,3.844,4.134,0,8.525,0
	h73.823C86.738,0,90,3.844,90,8.587V80.955z"/>
<g>
	<g>
		<path fill="#FFFFFA" d="M68.334,33.402c0,0.809-0.656,1.465-1.467,1.465H55.682c-0.809,0-1.465-0.657-1.465-1.465l0,0
			c0-0.81,0.656-1.465,1.465-1.465h11.186C67.676,31.937,68.334,32.592,68.334,33.402L68.334,33.402z"/>
		<path fill="#FFFFFA" d="M66.934,27.366l9.215,5.322c0.551,0.317,0.551,1.11,0,1.427l-9.215,5.323
			c-0.549,0.318-1.236-0.08-1.236-0.712V28.079C65.699,27.445,66.385,27.049,66.934,27.366z"/>
	</g>
	<path fill="#FFFFFA" d="M63.926,53.817c0,2.174-1.58,3.937-3.531,3.937H26.97c-1.95,0-3.531-1.763-3.531-3.937V8.95
		c0-2.174,1.581-3.936,3.531-3.936h33.425c1.951,0,3.531,1.762,3.531,3.936V53.817z M61.527,10.989c0-1.977-1.436-3.578-3.211-3.578
		H28.488c-1.772,0-3.21,1.601-3.21,3.578v40.788c0,1.976,1.438,3.579,3.21,3.579h29.828c1.775,0,3.211-1.604,3.211-3.579V10.989z"/>
	<path fill="#FFFFFA" d="M53.137,61.065c0,2.172-1.164,3.935-2.6,3.935L26.04,57.754c-1.853-0.649-2.602-1.763-2.602-3.937V8.95
		c0-2.174,2.094-4.136,3.43-3.936l23.669,7.251c1.393,0.79,2.6,1.762,2.6,3.936V61.065z"/>
</g>
<text transform="matrix(1 0 0 1 35.6279 78.5068)" fill="#FFFFFA" font-family="'Roboto-Thin'" font-size="12">Exit</text>
</svg>
