<?xml version="1.0" encoding="utf-8"?>
<!-- Generator: Adobe Illustrator 16.0.0, SVG Export Plug-In . SVG Version: 6.00 Build 0)  -->
<!DOCTYPE svg PUBLIC "-//W3C//DTD SVG 1.1//EN" "http://www.w3.org/Graphics/SVG/1.1/DTD/svg11.dtd">
<svg version="1.1" id="图层_1" xmlns="http://www.w3.org/2000/svg" xmlns:xlink="http://www.w3.org/1999/xlink" x="0px" y="0px"
	 width="90px" height="90px" viewBox="0 0 90 90" enable-background="new 0 0 90 90" xml:space="preserve">
<path fill="#00325F" d="M90,80.955C90,85.698,86.738,90,82.348,90H8.525C4.134,90,0,85.698,0,80.955V8.587C0,3.844,4.134,0,8.525,0
	h73.822C86.738,0,90,3.844,90,8.587V80.955z"/>
<circle fill="#FFFFFF" cx="45" cy="17.981" r="13.849"/>
<path fill="#FFFFFF" d="M50.876,60.799c-0.425-0.847-11.19-1.095-11.742,0c-0.47,0.928,4.808,25.069,5.871,25.069
	C45.928,85.866,51.262,61.56,50.876,60.799z"/>
<path fill="#FFFFFF" d="M66.926,68.814c-1.591,1.157-41.756,1.498-43.816,0c-1.748-1.27,17.944-34.32,21.909-34.32
	C48.463,34.495,68.362,67.772,66.926,68.814z"/>
</svg>
