<?xml version="1.0" encoding="utf-8"?>
<!-- Generator: Adobe Illustrator 16.0.0, SVG Export Plug-In . SVG Version: 6.00 Build 0)  -->
<!DOCTYPE svg PUBLIC "-//W3C//DTD SVG 1.1//EN" "http://www.w3.org/Graphics/SVG/1.1/DTD/svg11.dtd">
<svg version="1.1" id="图层_1" xmlns="http://www.w3.org/2000/svg" xmlns:xlink="http://www.w3.org/1999/xlink" x="0px" y="0px"
	 width="90px" height="90px" viewBox="0 0 90 90" enable-background="new 0 0 90 90" xml:space="preserve">
<path fill="#00325F" d="M90,80.139C90,85.585,85.919,90,80.887,90H9.114C4.081,90,0,85.586,0,80.139V9.863C0,4.417,4.081,0,9.114,0
	h71.773C85.919,0,90,4.416,90,9.863V80.139z"/>
<g id="icon">
	<g id="arrow_4_">
		<path fill="#FFFFFA" d="M55.225,20.987c0,0.271-0.219,0.488-0.487,0.488h-1.466c-0.27,0-0.489-0.218-0.489-0.488V14.15
			c0-0.271,0.22-0.489,0.489-0.489h1.466c0.27,0,0.487,0.219,0.487,0.489V20.987L55.225,20.987z"/>
		<path fill="#FFFFFA" d="M48.01,12.77l5.286-9.153c0.315-0.546,1.102-0.546,1.416,0l5.285,9.155
			c0.315,0.545-0.077,1.227-0.706,1.227H48.717C48.089,13.998,47.694,13.316,48.01,12.77z"/>
	</g>
	<g id="arrow_2_">
		<path fill="#FFFFFA" d="M37.521,12.877c0,0.336-0.272,0.609-0.61,0.609H35.08c-0.338,0-0.611-0.273-0.611-0.609V4.33
			c0-0.337,0.273-0.611,0.611-0.611h1.832c0.337,0,0.61,0.273,0.61,0.611V12.877z"/>
		<path fill="#FFFFFA" d="M41.989,12.025l-5.285,9.153c-0.316,0.546-1.102,0.546-1.417,0l-5.286-9.153
			c-0.315-0.546,0.078-1.228,0.708-1.228h10.57C41.911,10.797,42.305,11.479,41.989,12.025z"/>
	</g>
	<rect x="20.625" y="23.717" fill="#FFFFFA" width="48.75" height="38.855"/>
	<g id="people">
		<circle fill="#00325F" cx="30" cy="36.307" r="5.403"/>
		<path fill="#00325F" d="M23.522,43.239c0.47-0.66,12.337-0.854,12.945,0c0.518,0.725-5.301,19.554-6.473,19.554
			C28.977,62.793,23.098,43.833,23.522,43.239z"/>
	</g>
	<g id="people_1_">
		<circle fill="#00325F" cx="60.001" cy="36.307" r="5.403"/>
		<path fill="#00325F" d="M53.521,43.239c0.47-0.66,12.339-0.854,12.946,0c0.517,0.725-5.302,19.554-6.473,19.554
			C58.978,62.793,53.098,43.833,53.521,43.239z"/>
	</g>
	<g id="people_3_">
		<circle fill="#00325F" cx="45" cy="36.217" r="5.418"/>
		<path fill="#00325F" d="M47.299,52.969c-0.167-0.332-4.378-0.429-4.594,0c-0.185,0.361,1.881,9.808,2.296,9.808
			C45.363,62.774,47.449,53.267,47.299,52.969z"/>
		<path fill="#00325F" d="M53.578,56.104c-0.622,0.452-16.337,0.586-17.143,0c-0.683-0.496,7.021-13.427,8.572-13.427
			C46.354,42.678,54.14,55.695,53.578,56.104z"/>
	</g>
</g>
<text transform="matrix(1 0 0 1 39.3418 77.3379)" fill="#FFFFFA" font-family="'Roboto-Light'" font-size="8">Lift</text>
</svg>
