<?xml version="1.0" encoding="utf-8"?>
<!-- Generator: Adobe Illustrator 16.0.0, SVG Export Plug-In . SVG Version: 6.00 Build 0)  -->
<!DOCTYPE svg PUBLIC "-//W3C//DTD SVG 1.1//EN" "http://www.w3.org/Graphics/SVG/1.1/DTD/svg11.dtd">
<svg version="1.1" id="图层_1" xmlns="http://www.w3.org/2000/svg" xmlns:xlink="http://www.w3.org/1999/xlink" x="0px" y="0px"
	 width="90px" height="90px" viewBox="0 0 90 90" enable-background="new 0 0 90 90" xml:space="preserve">
<path fill="#00325F" d="M90,80.138C90,85.585,85.919,90,80.886,90H9.114C4.081,90,0,85.586,0,80.138V9.863C0,4.417,4.081,0,9.114,0
	h71.772C85.919,0,90,4.416,90,9.863V80.138z"/>
<g id="_x3C_box编组_x3E_">
	<path fill="#FFFFFF" d="M82.5,76.805c0,2.944-2.618,5.695-6.813,5.695h-59.81c-4.194,0-8.379-2.751-8.379-5.695V38.695
		c0-2.944,4.185-5.695,8.379-5.695h59.81c4.193,0,6.813,2.75,6.813,5.695V76.805z"/>
	<rect x="44" y="33" fill="#00325F" width="2" height="49.5"/>
</g>
<g id="arrow_4_">
	<path fill="#FFFFFA" d="M28.5,27.572c0,0.333-0.269,0.6-0.6,0.6h-1.8c-0.331,0-0.6-0.267-0.6-0.6v-8.399
		c0-0.332,0.269-0.601,0.6-0.601h1.8c0.332,0,0.6,0.269,0.6,0.601L28.5,27.572L28.5,27.572z"/>
	<path fill="#FFFFFA" d="M19.636,18.293L26.13,7.047c0.387-0.671,1.354-0.671,1.74,0l6.494,11.247
		c0.387,0.67-0.097,1.508-0.87,1.508H20.506C19.733,19.801,19.249,18.963,19.636,18.293z"/>
</g>
<g id="arrow_2_">
	<path fill="#FFFFFA" d="M64.875,18.057c0,0.414-0.335,0.749-0.75,0.749h-2.25c-0.415,0-0.751-0.335-0.751-0.749v-10.5
		c0-0.414,0.336-0.75,0.751-0.75h2.25c0.415,0,0.75,0.336,0.75,0.75V18.057z"/>
	<path fill="#FFFFFA" d="M70.364,17.707l-6.493,11.246c-0.388,0.671-1.354,0.671-1.741,0l-6.493-11.246
		c-0.388-0.67,0.096-1.508,0.87-1.508h12.986C70.267,16.199,70.751,17.037,70.364,17.707z"/>
</g>
</svg>
