<?xml version="1.0" encoding="utf-8"?>
<!-- Generator: Adobe Illustrator 16.0.0, SVG Export Plug-In . SVG Version: 6.00 Build 0)  -->
<!DOCTYPE svg PUBLIC "-//W3C//DTD SVG 1.1//EN" "http://www.w3.org/Graphics/SVG/1.1/DTD/svg11.dtd">
<svg version="1.1" id="图层_1" xmlns="http://www.w3.org/2000/svg" xmlns:xlink="http://www.w3.org/1999/xlink" x="0px" y="0px"
	 width="90px" height="90px" viewBox="0 0 90 90" enable-background="new 0 0 90 90" xml:space="preserve">
<path fill="#00325F" d="M90,80.955C90,85.698,86.738,90,82.348,90H8.525C4.134,90,0,85.698,0,80.955V8.587C0,3.844,4.134,0,8.525,0
	h73.823C86.738,0,90,3.844,90,8.587V80.955z"/>
<g id="icon">
	<g id="legs">
		
			<line fill="none" stroke="#FFFFFA" stroke-width="2" stroke-linecap="round" stroke-miterlimit="10" x1="37.833" y1="43.39" x2="28.258" y2="65"/>
		
			<line fill="none" stroke="#FFFFFA" stroke-width="2" stroke-linecap="round" stroke-miterlimit="10" x1="44.095" y1="43.021" x2="44.095" y2="65"/>
		
			<line fill="none" stroke="#FFFFFA" stroke-width="2" stroke-linecap="round" stroke-miterlimit="10" x1="51.461" y1="43.083" x2="60.667" y2="65"/>
	</g>
	<path fill="#FFFFFA" d="M74.058,41.742c0,2.605-1.469,5.147-4.201,5.147H21.634c-2.731,0-5.691-2.542-5.691-5.147V9.292
		C15.942,6.686,18.902,5,21.634,5h48.223c2.732,0,4.201,1.686,4.201,4.292V41.742z"/>
	
		<line fill="none" stroke="#00325F" stroke-width="2" stroke-linecap="round" stroke-miterlimit="10" x1="22.991" y1="13.548" x2="38.624" y2="13.548"/>
	
		<line fill="none" stroke="#00325F" stroke-width="2" stroke-linecap="round" stroke-miterlimit="10" x1="22.991" y1="21.243" x2="38.624" y2="21.243"/>
	
		<line fill="none" stroke="#00325F" stroke-width="2" stroke-linecap="round" stroke-miterlimit="10" x1="22.991" y1="29.793" x2="38.624" y2="29.793"/>
	
		<line fill="none" stroke="#00325F" stroke-width="2" stroke-linecap="round" stroke-miterlimit="10" x1="22.991" y1="38.34" x2="38.624" y2="38.34"/>
	<path fill="none" stroke="#00325F" stroke-width="2" stroke-linecap="round" stroke-miterlimit="10" d="M67.009,38.34
		c0,0.473-0.37,0.856-0.824,0.856H46.438c-0.453,0-0.822-0.381-0.822-0.856V13.548c0-0.472,0.369-0.855,0.822-0.855h19.745
		c0.455,0,0.825,0.384,0.825,0.855V38.34L67.009,38.34z"/>
</g>
<text transform="matrix(1 0 0 1 20.8203 77.3379)" fill="#FFFFFA" font-family="'Roboto-Light'" font-size="8">Meeting Suite</text>
</svg>
