<?xml version="1.0" encoding="utf-8"?>
<!-- Generator: Adobe Illustrator 16.0.0, SVG Export Plug-In . SVG Version: 6.00 Build 0)  -->
<!DOCTYPE svg PUBLIC "-//W3C//DTD SVG 1.1//EN" "http://www.w3.org/Graphics/SVG/1.1/DTD/svg11.dtd">
<svg version="1.1" id="图层_1" xmlns="http://www.w3.org/2000/svg" xmlns:xlink="http://www.w3.org/1999/xlink" x="0px" y="0px"
	 width="90px" height="90px" viewBox="0 0 90 90" enable-background="new 0 0 90 90" xml:space="preserve">
<path fill="#00325F" d="M90,80.955C90,85.698,86.738,90,82.348,90H8.525C4.134,90,0,85.698,0,80.955V8.587C0,3.844,4.134,0,8.525,0
	h73.822C86.738,0,90,3.844,90,8.587V80.955z"/>
<g id="legs">
	
		<line fill="none" stroke="#FFFFFA" stroke-width="2" stroke-linecap="round" stroke-miterlimit="10" x1="35.145" y1="57.988" x2="21.978" y2="87.705"/>
	
		<line fill="none" stroke="#FFFFFA" stroke-width="2" stroke-linecap="round" stroke-miterlimit="10" x1="43.755" y1="57.48" x2="43.755" y2="87.705"/>
	
		<line fill="none" stroke="#FFFFFA" stroke-width="2" stroke-linecap="round" stroke-miterlimit="10" x1="53.884" y1="57.566" x2="66.544" y2="87.705"/>
</g>
<path fill="#FFFFFA" d="M84.957,55.722c0,3.584-2.02,7.08-5.778,7.08h-66.31c-3.755,0-7.826-3.496-7.826-7.08V11.101
	c0-3.584,4.07-5.902,7.826-5.902h66.31c3.758,0,5.778,2.318,5.778,5.902V55.722z"/>
<line fill="none" stroke="#00325F" stroke-width="2" stroke-linecap="round" stroke-miterlimit="10" x1="14.736" y1="16.954" x2="36.232" y2="16.954"/>
<line fill="none" stroke="#00325F" stroke-width="2" stroke-linecap="round" stroke-miterlimit="10" x1="14.736" y1="27.535" x2="36.232" y2="27.535"/>
<line fill="none" stroke="#00325F" stroke-width="2" stroke-linecap="round" stroke-miterlimit="10" x1="14.736" y1="39.292" x2="36.232" y2="39.292"/>
<line fill="none" stroke="#00325F" stroke-width="2" stroke-linecap="round" stroke-miterlimit="10" x1="14.736" y1="51.045" x2="36.232" y2="51.045"/>
<path fill="none" stroke="#00325F" stroke-width="2" stroke-linecap="round" stroke-miterlimit="10" d="M75.264,51.045
	c0,0.65-0.508,1.178-1.133,1.178H46.979c-0.624,0-1.131-0.525-1.131-1.178V16.954c0-0.649,0.507-1.176,1.131-1.176h27.151
	c0.625,0,1.133,0.527,1.133,1.176V51.045L75.264,51.045z"/>
</svg>
