<?xml version="1.0" encoding="utf-8"?>
<!-- Generator: Adobe Illustrator 16.0.0, SVG Export Plug-In . SVG Version: 6.00 Build 0)  -->
<!DOCTYPE svg PUBLIC "-//W3C//DTD SVG 1.1//EN" "http://www.w3.org/Graphics/SVG/1.1/DTD/svg11.dtd">
<svg version="1.1" id="图层_1" xmlns="http://www.w3.org/2000/svg" xmlns:xlink="http://www.w3.org/1999/xlink" x="0px" y="0px"
	 width="90px" height="90px" viewBox="0 0 90 90" enable-background="new 0 0 90 90" xml:space="preserve">
<path fill="#00325F" d="M90,80.955C90,85.698,86.738,90,82.348,90H8.525C4.134,90,0,85.698,0,80.955V8.587C0,3.844,4.134,0,8.525,0
	h73.822C86.738,0,90,3.844,90,8.587V80.955z"/>
<path fill="#FFFFFF" d="M80,56.517c0,3.298-2.674,5.972-5.972,5.972H15.971c-3.298,0-5.971-2.674-5.971-5.972V15.777
	c0-3.298,2.673-5.972,5.971-5.972h58.057c3.298,0,5.971,2.674,5.971,5.972L80,56.517L80,56.517z"/>
<path fill="#00325F" d="M73.637,41.778c0,1.651-2.331,3.21-5.038,3.21H20.799c-2.708,0-4.436-1.559-4.436-3.21V21.153
	c0-1.652,1.728-3.21,4.436-3.21h47.799c2.707,0,5.038,1.558,5.038,3.21V41.778z"/>
<line fill="none" stroke="#FFFFFA" stroke-width="2" stroke-linecap="round" stroke-miterlimit="10" x1="25.909" y1="40.613" x2="64.091" y2="40.613"/>
<line fill="none" stroke="#00325F" stroke-width="2" stroke-linecap="round" stroke-miterlimit="10" x1="19.943" y1="50.954" x2="70.057" y2="50.954"/>
<path fill="#FFFFFF" stroke="#00325F" stroke-width="2" stroke-miterlimit="10" d="M71.346,74.921c0,0-1.058,3.273,0,5.062
	c0.28,0.476-51.638,0-51.638,0c-1.192-0.846-1.242-3.88-0.795-5.094l7.943-23.542h36.543L71.346,74.921z"/>
<line fill="none" stroke="#00325F" stroke-width="2" stroke-linecap="round" stroke-miterlimit="10" x1="19.31" y1="75.823" x2="70.616" y2="75.752"/>
</svg>
