<?xml version="1.0" encoding="utf-8"?>
<!-- Generator: Adobe Illustrator 16.0.0, SVG Export Plug-In . SVG Version: 6.00 Build 0)  -->
<!DOCTYPE svg PUBLIC "-//W3C//DTD SVG 1.1//EN" "http://www.w3.org/Graphics/SVG/1.1/DTD/svg11.dtd">
<svg version="1.1" id="图层_1" xmlns="http://www.w3.org/2000/svg" xmlns:xlink="http://www.w3.org/1999/xlink" x="0px" y="0px"
	 width="90px" height="90px" viewBox="0 0 90 90" enable-background="new 0 0 90 90" xml:space="preserve">
<path fill="#00325F" d="M90,80.955C90,85.698,86.738,90,82.348,90H8.525C4.134,90,0,85.698,0,80.955V8.587C0,3.844,4.134,0,8.525,0
	h73.822C86.738,0,90,3.844,90,8.587V80.955z"/>
<path fill="#FFFFFA" d="M79.081,19.887h-14.35v16.86c-0.112,0.965,0,0.965-1.121,1.078H46.794v16.592
	c-0.088,0.396-0.337,1.233-1.072,1.346H28.856v16.33c-0.076,1.056-0.076,1.234-0.972,1.607H10.919c0,0-1.794-0.15-1.794-1.794
	c0-1.494,1.794-1.794,1.794-1.794h14.35v-16.86c0.149-0.748,0.403-1.077,1.413-1.077h16.525V35.674
	c0.112-0.808,0.516-1.437,1.412-1.437h16.525V17.435c0.448-1.045,0.448-0.687,1.25-1.135h16.688c0,0,1.794,0.448,1.794,1.794
	C80.875,19.737,79.081,19.887,79.081,19.887z"/>
<g display="none">
	<path display="inline" fill="#D8E9D6" d="M17.941,70.969c-0.52-0.619-0.438-1.543,0.18-2.063L24.68,63.4
		c-0.588-2.626-1.604-8.888,1.489-10.968c2.038-1.37,4.988-0.563,9.021,2.469c1.696,1.24,4.712,2.684,5.701,2.024
		c0.22-0.147,1.254-1.145-0.015-6.335c-0.284-1.152-1.543-7.022,1.469-9.169c1.834-1.307,4.459-0.822,8.027,1.481
		c1.824,1.28,4.353,2.291,5.073,1.778c0.421-0.3,0.822-1.896-0.342-5.968c-0.399-1.135-2.391-7.329,0.525-9.666
		c1.829-1.462,4.738-0.911,8.893,1.687c1.901,1.45,4.467,2.598,5.229,2.084c0.143-0.095,1.329-1.107-0.398-7.41
		c-0.152-0.55,0.032-1.141,0.47-1.508l5.85-4.91c0.62-0.521,1.543-0.439,2.063,0.18c0.519,0.618,0.439,1.542-0.18,2.062l-5.14,4.314
		c1.321,5.253,0.988,8.347-1.033,9.703c-2.945,1.974-7.621-1.418-8.527-2.118c-4.174-2.602-5.282-1.891-5.394-1.801
		c-0.827,0.664-0.454,3.976,0.432,6.494c0.903,3.155,1.776,7.445-0.751,9.241c-2.818,2-7.499-1.096-8.406-1.737
		c-2.63-1.695-4.156-1.903-4.691-1.524c-1.004,0.714-0.833,3.996-0.325,6.092c1.226,5.011,0.831,8.106-1.205,9.464
		c-3.095,2.063-8.097-1.397-9.069-2.111c-3.204-2.407-5.013-2.811-5.642-2.389c-1.293,0.87-0.863,5.698-0.069,8.702
		c0.142,0.552-0.042,1.133-0.475,1.496l-7.254,6.09C19.386,71.667,18.46,71.588,17.941,70.969z"/>
</g>
</svg>
