<?xml version="1.0" encoding="utf-8"?>
<!-- Generator: Adobe Illustrator 19.2.1, SVG Export Plug-In . SVG Version: 6.00 Build 0)  -->
<svg version="1.1" id="图层_1" xmlns="http://www.w3.org/2000/svg" xmlns:xlink="http://www.w3.org/1999/xlink" x="0px" y="0px"
	 viewBox="0 0 90 90" style="enable-background:new 0 0 90 90;" xml:space="preserve">
<style type="text/css">
	.st0{enable-background:new    ;}
	.st1{fill:#0F3259;}
</style>
<g class="st0">
	<path class="st1" d="M22.2,77.6v-6.2h2.4c0.4,0,0.8,0,1,0.1c0.3,0,0.5,0.1,0.8,0.3c0.2,0.2,0.3,0.3,0.5,0.7
		c0.2,0.3,0.2,0.5,0.2,0.9c0,0.5-0.2,1-0.5,1.3c-0.3,0.3-1.1,0.4-2,0.4H23v2.5H22.2z M23,74.3h1.6c0.5,0,0.9-0.1,1.1-0.3
		c0.2-0.2,0.3-0.4,0.3-0.9c0-0.2-0.1-0.4-0.2-0.7c-0.1-0.2-0.3-0.3-0.5-0.3c-0.1,0-0.4-0.1-0.8-0.1H23V74.3z"/>
	<path class="st1" d="M27.9,77.6v-6.2h0.8v6.2H27.9z"/>
	<path class="st1" d="M32.7,77c-0.3,0.2-0.5,0.4-0.9,0.5c-0.3,0.1-0.5,0.1-0.9,0.1c-0.5,0-0.9-0.1-1.2-0.3c-0.3-0.2-0.4-0.5-0.4-1
		c0-0.2,0-0.4,0.1-0.7c0.1-0.2,0.2-0.3,0.4-0.4c0.2-0.1,0.3-0.2,0.5-0.2c0.1,0,0.3-0.1,0.7-0.1c0.7-0.1,1.1-0.1,1.4-0.2
		c0-0.1,0-0.2,0-0.2c0-0.3-0.1-0.5-0.2-0.7c-0.2-0.2-0.4-0.2-0.9-0.2c-0.3,0-0.7,0.1-0.8,0.2c-0.1,0.1-0.3,0.3-0.3,0.7l-0.8-0.1
		c0.1-0.3,0.2-0.5,0.3-0.8c0.1-0.2,0.4-0.3,0.7-0.4c0.2-0.1,0.7-0.1,1-0.1c0.4,0,0.7,0,1,0.1c0.3,0.1,0.4,0.2,0.5,0.3
		c0.1,0.1,0.2,0.3,0.2,0.5c0,0.1,0,0.3,0,0.7v1c0,0.8,0,1.2,0,1.3s0.1,0.3,0.2,0.5h-0.8C32.9,77.5,32.7,77.3,32.7,77z M32.6,75.4
		c-0.3,0.1-0.7,0.2-1.2,0.3c-0.3,0-0.5,0.1-0.7,0.1c-0.1,0-0.2,0.1-0.3,0.2c-0.1,0.1-0.1,0.2-0.1,0.3c0,0.2,0.1,0.3,0.2,0.5
		s0.3,0.2,0.7,0.2s0.5-0.1,0.8-0.2s0.4-0.3,0.5-0.5s0.1-0.4,0.1-0.8V75.4z"/>
	<path class="st1" d="M36.3,76.9l0.1,0.7c-0.2,0-0.4,0.1-0.5,0.1c-0.3,0-0.5,0-0.7-0.1s-0.3-0.2-0.3-0.3c0-0.1-0.1-0.4-0.1-0.9v-2.6
		h-0.5v-0.5h0.5v-1.1l0.8-0.4v1.5h0.8v0.5h-0.8v2.6c0,0.2,0,0.3,0,0.4s0.1,0.1,0.1,0.1s0.1,0.1,0.2,0.1
		C36.1,76.9,36.2,76.9,36.3,76.9z"/>
	<path class="st1" d="M37.2,77.6v-3.9h-0.7v-0.5h0.7v-0.4c0-0.3,0-0.5,0.1-0.7c0.1-0.2,0.2-0.3,0.4-0.4s0.4-0.2,0.8-0.2
		c0.2,0,0.4,0,0.8,0.1l-0.1,0.7c-0.1,0-0.3,0-0.4,0c-0.2,0-0.4,0-0.5,0.1s-0.1,0.3-0.1,0.5v0.4h0.9v0.5h-0.9v3.9h-0.9V77.6z"/>
	<path class="st1" d="M39.1,75.4c0-0.9,0.2-1.4,0.7-1.8c0.4-0.3,0.9-0.5,1.4-0.5c0.7,0,1.1,0.2,1.5,0.7c0.4,0.4,0.5,1,0.5,1.6
		c0,0.5-0.1,1.1-0.2,1.4s-0.4,0.5-0.8,0.8c-0.3,0.2-0.7,0.3-1.1,0.3c-0.7,0-1.2-0.2-1.5-0.7C39.4,76.7,39.1,76.2,39.1,75.4z
		 M40,75.4c0,0.5,0.1,1,0.3,1.3c0.2,0.3,0.5,0.4,1,0.4c0.3,0,0.7-0.1,1-0.4s0.3-0.8,0.3-1.3c0-0.5-0.1-1-0.3-1.3s-0.5-0.4-1-0.4
		c-0.4,0-0.7,0.1-1,0.4C40,74.4,40,74.8,40,75.4z"/>
	<path class="st1" d="M44.2,77.6v-4.4h0.7v0.7c0.2-0.3,0.3-0.5,0.4-0.7s0.3-0.1,0.5-0.1s0.5,0.1,0.8,0.2L46.4,74
		c-0.2-0.1-0.3-0.2-0.5-0.2s-0.3,0-0.4,0.1s-0.2,0.2-0.3,0.4C45,74.7,45,74.9,45,75.2v2.4H44.2z"/>
	<path class="st1" d="M47.2,77.6v-4.4h0.7v0.7c0.1-0.2,0.3-0.4,0.5-0.5c0.2-0.1,0.5-0.2,0.8-0.2c0.3,0,0.7,0.1,0.9,0.2
		s0.3,0.3,0.4,0.5c0.3-0.5,0.9-0.8,1.4-0.8c0.4,0,0.8,0.1,1,0.3c0.2,0.2,0.3,0.7,0.3,1.2v3h-0.8v-2.8c0-0.3,0-0.5-0.1-0.7
		c0-0.1-0.1-0.2-0.2-0.3c-0.1-0.1-0.3-0.1-0.4-0.1c-0.3,0-0.5,0.1-0.8,0.3c-0.2,0.2-0.3,0.5-0.3,1v2.6h-0.8v-2.9
		c0-0.3-0.1-0.5-0.2-0.8c-0.1-0.2-0.3-0.2-0.7-0.2c-0.2,0-0.4,0.1-0.5,0.2s-0.3,0.3-0.4,0.5c0,0.1,0,0.4,0,0.9v2.4h-0.8V77.6z"/>
	<path class="st1" d="M56.9,77.6v-6.2h0.8v5.5h3v0.8h-3.8V77.6z"/>
	<path class="st1" d="M61.6,72.3v-0.9h0.8v0.9H61.6z M61.6,77.6v-4.4h0.8v4.4H61.6z"/>
	<path class="st1" d="M63.8,77.6v-3.9h-0.7v-0.5h0.7v-0.4c0-0.3,0-0.5,0.1-0.7c0.1-0.2,0.2-0.3,0.4-0.4c0.2-0.1,0.4-0.2,0.8-0.2
		c0.2,0,0.4,0,0.8,0.1l-0.1,0.7c-0.1,0-0.3,0-0.4,0c-0.2,0-0.4,0-0.5,0.1s-0.1,0.3-0.1,0.5v0.4h0.9v0.5h-0.9v3.9h-0.9V77.6z"/>
	<path class="st1" d="M67.7,76.9l0.1,0.7c-0.2,0-0.4,0.1-0.5,0.1c-0.3,0-0.5,0-0.7-0.1s-0.2-0.2-0.3-0.3c-0.1-0.1-0.1-0.4-0.1-0.9
		v-2.6h-0.5v-0.5h0.5v-1.1l0.8-0.4v1.5h0.8v0.5h-0.8v2.6c0,0.2,0,0.3,0,0.4s0.1,0.1,0.1,0.1c0.1,0,0.1,0.1,0.2,0.1
		C67.3,76.9,67.6,76.9,67.7,76.9z"/>
</g>
<g>
	<path class="st1" d="M5.6,62.9V16.3h6.2v41.1h22.9v5.5H5.6z"/>
	<path class="st1" d="M41.3,22.9v-6.6H47v6.6H41.3z M41.3,62.9V29.2H47v33.7H41.3z"/>
	<path class="st1" d="M57.1,62.9V33.6h-5.1v-4.4h5.1v-3.6c0-2.3,0.2-4,0.6-5.1c0.5-1.5,1.5-2.7,2.9-3.6c1.4-0.9,3.3-1.4,5.8-1.4
		c1.6,0,3.4,0.2,5.3,0.6l-0.9,5c-1.2-0.2-2.3-0.3-3.4-0.3c-1.7,0-3,0.4-3.7,1.1c-0.7,0.7-1.1,2.1-1.1,4.2v3.1h6.6v4.4h-6.6v29.3
		H57.1z"/>
	<path class="st1" d="M86.3,57.8l0.8,5.1c-1.6,0.3-3,0.5-4.3,0.5c-2.1,0-3.7-0.3-4.8-1c-1.1-0.7-1.9-1.5-2.4-2.6
		c-0.5-1.1-0.7-3.3-0.7-6.8V33.6h-4.2v-4.4h4.2v-8.4l5.7-3.4v11.8h5.8v4.4h-5.8v19.7c0,1.6,0.1,2.7,0.3,3.1s0.5,0.8,1,1.1
		c0.5,0.3,1.1,0.4,2,0.4C84.4,58,85.3,58,86.3,57.8z"/>
</g>
<g>
	<circle class="st1" cx="24.3" cy="29.7" r="5.1"/>
	<path class="st1" d="M31,52.7c-3.3,5.3-9.8,5.9-13.9,3.2c-1.7-1.1-3.1-2.9-3.7-4.6c-2.9-7.9,3.9-12.2,6.1-12.7
		c0.2,0,0.3-0.1,0.4,0.1c0.3,0.3,0.5,0.9,0.5,1.2c0,0.2,0,0.2-0.1,0.3c-3.6,1-6.4,4.6-5.8,8.7c0.2,1.4,0.8,3.3,2.4,4.7
		c4.6,4.1,10.7,2.1,12.8-2.2c0.1-0.1,0.3-0.1,0.5,0c0.2,0.1,0.8,0.6,0.9,0.8C31.2,52.3,31.2,52.4,31,52.7z"/>
	<path class="st1" d="M35.2,56.9c-0.9,0-1.3-5.6-1.3-5.6c0-0.8,0-1-0.9-1h-9.4c-0.8,0-2.1-0.5-2.2-1.6V37.3c0.5-1.7,3.6-1.4,4.2,0
		v7.1c0.1,0.2-0.3,1.6,0.6,1.8h8.3c1.3,0,1.8,0.6,1.8,1.8C36.3,47.9,36.1,56.9,35.2,56.9z"/>
</g>
</svg>
