<?xml version="1.0" encoding="utf-8"?>
<!-- Generator: Adobe Illustrator 19.2.1, SVG Export Plug-In . SVG Version: 6.00 Build 0)  -->
<svg version="1.1" id="图层_1" xmlns="http://www.w3.org/2000/svg" xmlns:xlink="http://www.w3.org/1999/xlink" x="0px" y="0px"
	 viewBox="0 0 90 90" style="enable-background:new 0 0 90 90;" xml:space="preserve">
<style type="text/css">
	.st0{display:none;fill:#00325F;}
	.st1{fill:#0F3259;}
	.st2{fill:#0F3259;stroke:#FFFFFF;stroke-miterlimit:10;}
</style>
<path class="st0" d="M90,80.1c0,5.4-4.1,9.9-9.1,9.9H9.1c-5,0-9.1-4.4-9.1-9.9V9.9C0,4.4,4.1,0,9.1,0h71.8c5,0,9.1,4.4,9.1,9.9V80.1
	z"/>
<g>
	<g>
		<path class="st1" d="M27.3,76.2c-0.1,0.2-0.4,0.4-0.7,0.6S25.9,77,25.3,77c-0.7,0-1.2-0.2-1.7-0.7s-0.7-1-0.7-1.7v-1.2
			c0-0.7,0.2-1.3,0.6-1.7s0.9-0.7,1.6-0.7c0.7,0,1.2,0.2,1.5,0.5s0.6,0.7,0.6,1.2l0,0h-0.7c0-0.3-0.1-0.6-0.4-0.8s-0.6-0.3-1-0.3
			c-0.4,0-0.8,0.2-1.1,0.5s-0.4,0.7-0.4,1.2v1.2c0,0.5,0.1,0.9,0.4,1.2c0.3,0.3,0.7,0.5,1.1,0.5c0.3,0,0.6,0,0.8-0.1
			c0.2-0.1,0.4-0.2,0.4-0.3v-1.3h-1.2v-0.6h2V76.2z"/>
		<path class="st1" d="M30.5,73.4l-0.4,0c-0.2,0-0.4,0-0.5,0.1s-0.2,0.2-0.3,0.4v3h-0.8v-4.2h0.7l0.1,0.6c0.1-0.2,0.3-0.4,0.4-0.5
			s0.4-0.2,0.6-0.2c0.1,0,0.1,0,0.2,0s0.1,0,0.1,0L30.5,73.4z"/>
		<path class="st1" d="M31,74.8c0-0.6,0.2-1.1,0.5-1.5s0.8-0.6,1.4-0.6c0.6,0,1,0.2,1.4,0.6s0.5,0.9,0.5,1.5v0.1
			c0,0.6-0.2,1.1-0.5,1.5S33.5,77,32.9,77s-1-0.2-1.4-0.6S31,75.5,31,74.8L31,74.8z M31.8,74.8c0,0.4,0.1,0.8,0.3,1.1
			c0.2,0.3,0.5,0.4,0.8,0.4c0.4,0,0.6-0.1,0.8-0.4c0.2-0.3,0.3-0.7,0.3-1.1v-0.1c0-0.4-0.1-0.8-0.3-1.1s-0.5-0.4-0.8-0.4
			c-0.4,0-0.6,0.1-0.8,0.4S31.8,74.3,31.8,74.8L31.8,74.8z"/>
		<path class="st1" d="M38.4,76.3c-0.1,0.2-0.3,0.4-0.5,0.5S37.4,77,37.2,77c-0.5,0-0.8-0.1-1.1-0.4s-0.4-0.8-0.4-1.4v-2.5h0.8v2.5
			c0,0.5,0.1,0.8,0.2,0.9s0.3,0.3,0.6,0.3c0.3,0,0.5-0.1,0.7-0.2s0.3-0.3,0.4-0.5v-3h0.8v4.2h-0.7L38.4,76.3z"/>
		<path class="st1" d="M43.9,75c0,0.6-0.1,1.1-0.4,1.5S42.7,77,42.2,77c-0.3,0-0.5,0-0.7-0.1s-0.4-0.2-0.5-0.4v2.1h-0.8v-5.9h0.6
			l0.1,0.5c0.1-0.2,0.3-0.4,0.5-0.5s0.4-0.2,0.7-0.2c0.5,0,0.9,0.2,1.2,0.6S43.9,74.2,43.9,75L43.9,75z M43.1,74.9
			c0-0.5-0.1-0.9-0.3-1.2c-0.2-0.3-0.5-0.5-0.8-0.5c-0.2,0-0.4,0-0.6,0.2c-0.2,0.1-0.3,0.2-0.4,0.4v2c0.1,0.2,0.2,0.3,0.4,0.4
			s0.3,0.1,0.6,0.1c0.4,0,0.6-0.1,0.8-0.4C43,75.7,43.1,75.4,43.1,74.9L43.1,74.9z"/>
		<path class="st1" d="M50,75.5c0-0.3-0.1-0.5-0.3-0.7s-0.5-0.3-1-0.4c-0.6-0.1-1.1-0.4-1.4-0.6s-0.5-0.6-0.5-1.1
			c0-0.4,0.2-0.8,0.5-1.1s0.8-0.4,1.4-0.4c0.6,0,1.1,0.2,1.5,0.5s0.5,0.7,0.5,1.2l0,0H50c0-0.3-0.1-0.6-0.3-0.8s-0.5-0.3-0.9-0.3
			c-0.4,0-0.7,0.1-0.9,0.3s-0.3,0.4-0.3,0.7c0,0.2,0.1,0.5,0.3,0.6s0.6,0.3,1.1,0.4c0.6,0.1,1.1,0.4,1.4,0.7s0.5,0.6,0.5,1.1
			c0,0.5-0.2,0.8-0.6,1.1S49.4,77,48.8,77c-0.6,0-1.1-0.2-1.5-0.5s-0.6-0.7-0.6-1.2l0,0h0.7c0,0.4,0.1,0.6,0.4,0.8s0.6,0.3,1,0.3
			c0.4,0,0.7-0.1,0.9-0.2C49.9,76,50,75.8,50,75.5z"/>
		<path class="st1" d="M52.8,71.7v1h0.8v0.6h-0.8v2.6c0,0.2,0,0.3,0.1,0.4s0.2,0.1,0.3,0.1c0,0,0.1,0,0.1,0s0.1,0,0.1,0l0.1,0.5
			c-0.1,0-0.1,0.1-0.3,0.1s-0.2,0-0.3,0c-0.3,0-0.6-0.1-0.7-0.3S52,76.2,52,75.8v-2.6h-0.7v-0.6H52v-1H52.8z"/>
		<path class="st1" d="M57.2,76.3c-0.1,0.2-0.3,0.4-0.5,0.5S56.3,77,56,77c-0.5,0-0.8-0.1-1.1-0.4s-0.4-0.8-0.4-1.4v-2.5h0.8v2.5
			c0,0.5,0.1,0.8,0.2,0.9s0.3,0.3,0.6,0.3c0.3,0,0.5-0.1,0.7-0.2s0.3-0.3,0.4-0.5v-3H58v4.2h-0.7L57.2,76.3z"/>
		<path class="st1" d="M58.9,74.9c0-0.7,0.1-1.2,0.4-1.6s0.7-0.6,1.2-0.6c0.2,0,0.5,0,0.7,0.1s0.4,0.2,0.5,0.4v-2.3h0.8v6.1h-0.6
			l-0.1-0.5c-0.1,0.2-0.3,0.3-0.5,0.4S60.8,77,60.6,77c-0.5,0-0.9-0.2-1.2-0.6S58.9,75.6,58.9,74.9L58.9,74.9z M59.7,75
			c0,0.4,0.1,0.8,0.3,1s0.4,0.4,0.8,0.4c0.2,0,0.4-0.1,0.6-0.2s0.3-0.3,0.4-0.4v-2c-0.1-0.2-0.2-0.3-0.4-0.4s-0.3-0.2-0.6-0.2
			c-0.4,0-0.6,0.2-0.8,0.5S59.7,74.4,59.7,75L59.7,75z"/>
		<path class="st1" d="M64.9,75.3l0.1,0.5h0l1-3.2H67l-1.8,4.9c-0.1,0.3-0.3,0.5-0.5,0.7s-0.5,0.3-0.8,0.3c-0.1,0-0.1,0-0.2,0
			s-0.2,0-0.2,0l0.1-0.6c0,0,0,0,0.1,0s0.2,0,0.2,0c0.2,0,0.3-0.1,0.4-0.2s0.2-0.3,0.3-0.5l0.2-0.4l-1.6-4.1h0.9L64.9,75.3z"/>
	</g>
</g>
<g id="group">
	<polygon class="st1" points="75.8,60.6 15.3,60.6 22.7,49.2 68.4,49.2 	"/>
	<g>
		<path class="st1" d="M53.5,38.4c-2.2,2.9-5.3,4.7-8.8,4.7c-3.5,0-6.7-1.8-8.8-4.7c-4.7,0.2-8.5,4.2-8.5,8.9V49
			c0,2.1,1.7,3.9,3.9,3.9h27c2.1,0,3.9-1.7,3.9-3.9v-1.7C62.1,42.5,58.3,38.6,53.5,38.4z"/>
		<ellipse class="st1" cx="44.7" cy="28.9" rx="8.7" ry="10.9"/>
	</g>
	<g>
		<path class="st2" d="M53.6,49.2c-2.2,2.9-5.3,4.7-8.8,4.7c-3.5,0-6.7-1.8-8.8-4.7c-4.7,0.2-8.5,4.2-8.5,8.9v1.7
			c0,2.1,1.7,3.9,3.9,3.9h27c2.1,0,3.9-1.7,3.9-3.9v-1.7C62.1,53.3,58.3,49.4,53.6,49.2z"/>
		<ellipse class="st2" cx="44.7" cy="39.8" rx="8.7" ry="10.9"/>
	</g>
</g>
</svg>
