<?xml version="1.0" encoding="utf-8"?>
<!-- Generator: Adobe Illustrator 19.2.1, SVG Export Plug-In . SVG Version: 6.00 Build 0)  -->
<svg version="1.1" id="图层_1" xmlns="http://www.w3.org/2000/svg" xmlns:xlink="http://www.w3.org/1999/xlink" x="0px" y="0px"
	 viewBox="0 0 90 90" style="enable-background:new 0 0 90 90;" xml:space="preserve">
<style type="text/css">
	.st0{fill:#00325F;}
	.st1{fill:#FFFFFA;}
	.st2{enable-background:new    ;}
</style>
<path class="st0" d="M90,81c0,4.7-3.3,9-7.7,9H8.5C4.1,90,0,85.7,0,81V8.6C0,3.8,4.1,0,8.5,0h73.8C86.7,0,90,3.8,90,8.6V81z"/>
<path class="st1" d="M79.1,13.5H64.7v14.4c-0.1,0.8,0,0.8-1.1,0.9H46.8v14.2c-0.1,0.3-0.3,1.1-1.1,1.2H28.9v14
	c-0.1,0.9-0.1,1.1-1,1.4h-17c0,0-1.8-0.1-1.8-1.5c0-1.3,1.8-1.5,1.8-1.5h14.4V42.1c0.1-0.6,0.4-0.9,1.4-0.9h16.5V27
	c0.1-0.7,0.5-1.2,1.4-1.2h16.5V11.4c0.4-0.9,0.4-0.6,1.3-1h16.7c0,0,1.8,0.4,1.8,1.5C80.9,13.4,79.1,13.5,79.1,13.5z"/>
<g class="st2">
	<path class="st1" d="M35.1,75.3l0.7-0.1c0,0.3,0.1,0.5,0.2,0.7s0.3,0.3,0.6,0.4s0.6,0.2,0.9,0.2c0.3,0,0.5,0,0.8-0.1
		s0.4-0.2,0.5-0.4s0.2-0.3,0.2-0.5c0-0.2-0.1-0.3-0.2-0.5s-0.3-0.2-0.5-0.3c-0.2-0.1-0.5-0.2-1-0.3s-0.9-0.2-1.1-0.4
		c-0.3-0.1-0.5-0.3-0.6-0.5s-0.2-0.5-0.2-0.7c0-0.3,0.1-0.6,0.2-0.8s0.4-0.4,0.7-0.6s0.7-0.2,1.1-0.2c0.4,0,0.8,0.1,1.1,0.2
		s0.6,0.3,0.7,0.6s0.3,0.6,0.3,0.9l-0.7,0.1c0-0.4-0.2-0.6-0.4-0.8s-0.6-0.3-1-0.3c-0.5,0-0.8,0.1-1,0.3s-0.3,0.4-0.3,0.6
		c0,0.2,0.1,0.4,0.2,0.5c0.1,0.1,0.5,0.3,1.1,0.4s1,0.3,1.3,0.4c0.3,0.2,0.6,0.3,0.7,0.6s0.2,0.5,0.2,0.8c0,0.3-0.1,0.6-0.3,0.9
		S39,76.9,38.7,77s-0.7,0.2-1.1,0.2c-0.5,0-1-0.1-1.3-0.2s-0.6-0.4-0.8-0.7S35.1,75.7,35.1,75.3z"/>
	<path class="st1" d="M42.2,76.5l0.1,0.6c-0.2,0-0.4,0.1-0.5,0.1c-0.3,0-0.5,0-0.6-0.1s-0.2-0.2-0.3-0.3s-0.1-0.4-0.1-0.8v-2.4h-0.5
		V73h0.5v-1l0.7-0.4V73h0.7v0.5h-0.7V76c0,0.2,0,0.3,0,0.4s0.1,0.1,0.1,0.1s0.1,0.1,0.2,0.1C41.9,76.5,42,76.5,42.2,76.5z"/>
	<path class="st1" d="M45.6,76.6c-0.3,0.2-0.5,0.4-0.8,0.5s-0.5,0.1-0.8,0.1c-0.5,0-0.8-0.1-1.1-0.3s-0.4-0.5-0.4-0.9
		c0-0.2,0-0.4,0.1-0.6s0.2-0.3,0.4-0.4s0.3-0.2,0.5-0.2c0.1,0,0.3-0.1,0.6-0.1c0.6-0.1,1-0.1,1.3-0.2c0-0.1,0-0.2,0-0.2
		c0-0.3-0.1-0.5-0.2-0.6c-0.2-0.2-0.4-0.2-0.8-0.2c-0.3,0-0.6,0.1-0.7,0.2s-0.3,0.3-0.3,0.6l-0.7-0.1c0.1-0.3,0.2-0.5,0.3-0.7
		s0.4-0.3,0.6-0.4s0.6-0.1,0.9-0.1c0.4,0,0.6,0,0.9,0.1s0.4,0.2,0.5,0.3c0.1,0.1,0.2,0.3,0.2,0.5c0,0.1,0,0.3,0,0.6v0.9
		c0,0.7,0,1.1,0,1.2c0,0.2,0.1,0.3,0.2,0.5h-0.7C45.6,77,45.6,76.8,45.6,76.6z M45.5,75.1c-0.3,0.1-0.6,0.2-1.1,0.3
		c-0.3,0-0.5,0.1-0.6,0.1s-0.2,0.1-0.3,0.2s-0.1,0.2-0.1,0.3c0,0.2,0.1,0.3,0.2,0.5s0.3,0.2,0.6,0.2c0.3,0,0.5-0.1,0.7-0.2
		s0.4-0.3,0.5-0.5c0.1-0.2,0.1-0.4,0.1-0.7V75.1z"/>
	<path class="st1" d="M47.3,72.2v-0.8H48v0.8H47.3z M47.3,77.1V73H48v4.1H47.3z"/>
	<path class="st1" d="M49.1,77.1V73h0.6v0.6c0.2-0.3,0.3-0.5,0.4-0.6s0.3-0.1,0.5-0.1c0.2,0,0.5,0.1,0.7,0.2l-0.2,0.7
		c-0.2-0.1-0.3-0.2-0.5-0.2c-0.2,0-0.3,0-0.4,0.1C50,73.8,50,74,49.9,74.1c-0.1,0.3-0.1,0.5-0.1,0.8v2.2H49.1z"/>
	<path class="st1" d="M51.5,75.9l0.7-0.1c0,0.3,0.1,0.5,0.3,0.6c0.2,0.1,0.4,0.2,0.7,0.2c0.3,0,0.6-0.1,0.7-0.2s0.2-0.3,0.2-0.5
		c0-0.2-0.1-0.3-0.2-0.4c-0.1-0.1-0.3-0.1-0.7-0.2c-0.5-0.1-0.9-0.2-1.1-0.3s-0.3-0.2-0.5-0.4c-0.1-0.2-0.2-0.4-0.2-0.6
		c0-0.2,0-0.4,0.1-0.5c0.1-0.2,0.2-0.3,0.3-0.4c0.1-0.1,0.3-0.1,0.4-0.2c0.2-0.1,0.4-0.1,0.6-0.1c0.3,0,0.6,0,0.9,0.1
		s0.4,0.2,0.5,0.4s0.2,0.4,0.2,0.6l-0.7,0.1c0-0.2-0.1-0.4-0.3-0.5c-0.1-0.1-0.4-0.2-0.6-0.2c-0.3,0-0.6,0.1-0.7,0.2
		c-0.1,0.1-0.2,0.2-0.2,0.4c0,0.1,0,0.2,0.1,0.2c0.1,0.1,0.1,0.1,0.3,0.2c0.1,0,0.3,0.1,0.6,0.2c0.5,0.1,0.8,0.2,1,0.3
		c0.2,0.1,0.4,0.2,0.5,0.4c0.1,0.2,0.2,0.4,0.2,0.6c0,0.2-0.1,0.5-0.2,0.7s-0.3,0.4-0.6,0.5s-0.5,0.2-0.9,0.2
		c-0.5,0-0.9-0.1-1.2-0.3C51.7,76.7,51.5,76.3,51.5,75.9z"/>
</g>
</svg>
