<?xml version="1.0" encoding="utf-8"?>
<!-- Generator: Adobe Illustrator 19.2.1, SVG Export Plug-In . SVG Version: 6.00 Build 0)  -->
<svg version="1.1" id="图层_1" xmlns="http://www.w3.org/2000/svg" xmlns:xlink="http://www.w3.org/1999/xlink" x="0px" y="0px"
	 viewBox="0 0 90 90" style="enable-background:new 0 0 90 90;" xml:space="preserve">
<style type="text/css">
	.st0{display:none;fill:#00325F;}
	.st1{fill:#0F3259;}
	.st2{enable-background:new    ;}
</style>
<path class="st0" d="M90,81c0,4.7-3.3,9-7.7,9H8.5C4.1,90,0,85.7,0,81V8.6C0,3.8,4.1,0,8.5,0h73.8C86.7,0,90,3.8,90,8.6V81z"/>
<circle class="st1" cx="45" cy="15.2" r="10.2"/>
<path class="st1" d="M30.5,28.2c1-1.2,27.6-1.6,28.9,0C60.6,29.6,47.6,65,45,65C42.7,65,29.6,29.3,30.5,28.2z"/>
<g class="st2">
	<path class="st1" d="M23.2,77.3v-5.7h1.1l1.4,4.1c0.1,0.4,0.2,0.7,0.3,0.8c0.1-0.2,0.2-0.5,0.3-0.9l1.4-4h1v5.7H28v-4.8l-1.7,4.8
		h-0.7l-1.7-4.9v4.9H23.2z"/>
	<path class="st1" d="M32.7,76l0.7,0.1c-0.1,0.4-0.3,0.8-0.6,1s-0.7,0.4-1.2,0.4c-0.6,0-1.1-0.2-1.4-0.6s-0.5-0.9-0.5-1.6
		s0.2-1.2,0.5-1.6s0.8-0.6,1.4-0.6c0.6,0,1,0.2,1.4,0.6s0.5,0.9,0.5,1.6c0,0,0,0.1,0,0.2h-3.1c0,0.5,0.2,0.8,0.4,1
		c0.2,0.2,0.5,0.4,0.9,0.4c0.3,0,0.5-0.1,0.7-0.2S32.6,76.3,32.7,76z M30.4,74.9h2.3c0-0.3-0.1-0.6-0.3-0.8
		c-0.2-0.3-0.5-0.4-0.9-0.4c-0.3,0-0.6,0.1-0.8,0.3C30.5,74.2,30.4,74.5,30.4,74.9z"/>
	<path class="st1" d="M34.3,77.3v-4.1h0.6v0.6c0.3-0.5,0.7-0.7,1.3-0.7c0.3,0,0.5,0,0.7,0.1s0.4,0.2,0.5,0.4s0.2,0.3,0.2,0.5
		c0,0.1,0,0.4,0,0.7v2.6h-0.7v-2.5c0-0.3,0-0.5-0.1-0.6S36.6,74,36.5,74s-0.3-0.1-0.5-0.1c-0.3,0-0.6,0.1-0.8,0.3s-0.3,0.6-0.3,1.1
		v2.3h-0.6V77.3z"/>
	<path class="st1" d="M38.7,72.4v-0.8h0.8v0.6c0,0.3,0,0.6-0.1,0.8c-0.1,0.2-0.3,0.4-0.5,0.5l-0.2-0.3c0.1-0.1,0.2-0.1,0.3-0.3
		s0.1-0.3,0.1-0.5C39.1,72.4,38.7,72.4,38.7,72.4z"/>
	<path class="st1" d="M40.1,76.1l0.7-0.1c0,0.3,0.1,0.5,0.3,0.6s0.4,0.2,0.7,0.2s0.6-0.1,0.7-0.2s0.2-0.3,0.2-0.5s-0.1-0.3-0.2-0.4
		c-0.1-0.1-0.3-0.1-0.7-0.2c-0.5-0.1-0.9-0.2-1.1-0.3s-0.4-0.2-0.5-0.4S40,74.4,40,74.2s0-0.4,0.1-0.5s0.2-0.3,0.3-0.4
		s0.3-0.1,0.4-0.2s0.4-0.1,0.6-0.1c0.3,0,0.6,0,0.9,0.1s0.4,0.2,0.5,0.4s0.2,0.4,0.2,0.6l-0.7,0.1c0-0.2-0.1-0.4-0.3-0.5
		s-0.4-0.2-0.6-0.2c-0.3,0-0.6,0.1-0.7,0.2s-0.2,0.2-0.2,0.4c0,0.1,0,0.2,0.1,0.2c0.1,0.1,0.1,0.1,0.3,0.2c0.1,0,0.3,0.1,0.6,0.2
		c0.5,0.1,0.8,0.2,1,0.3s0.4,0.2,0.5,0.4s0.2,0.4,0.2,0.6s-0.1,0.5-0.2,0.7s-0.3,0.4-0.6,0.5s-0.5,0.2-0.9,0.2
		c-0.5,0-0.9-0.1-1.2-0.3S40.2,76.5,40.1,76.1z"/>
	<path class="st1" d="M46.7,77.3v-5.7h2.5c0.5,0,0.9,0.1,1.2,0.2s0.5,0.3,0.6,0.5c0.2,0.3,0.2,0.5,0.2,0.9s-0.1,0.7-0.4,1
		c-0.3,0.3-0.7,0.5-1.2,0.5c0.2,0.1,0.4,0.2,0.5,0.3c0.2,0.2,0.4,0.5,0.6,0.8l1,1.6h-1l-0.8-1.2c-0.2-0.3-0.4-0.6-0.5-0.8
		c-0.1-0.2-0.2-0.4-0.3-0.4s-0.2-0.1-0.3-0.2c-0.1,0-0.2,0-0.4,0h-0.9v2.5H46.7z M47.5,74.1h1.6c0.3,0,0.6,0,0.8-0.1
		s0.3-0.2,0.4-0.3s0.2-0.3,0.2-0.5c0-0.3-0.1-0.5-0.3-0.7s-0.5-0.3-0.9-0.3h-1.8V74.1z"/>
	<path class="st1" d="M52.1,75.3c0-0.8,0.2-1.3,0.6-1.7c0.4-0.3,0.8-0.5,1.3-0.5c0.6,0,1,0.2,1.4,0.6s0.5,0.9,0.5,1.5
		c0,0.5-0.1,1-0.2,1.3s-0.3,0.5-0.6,0.7s-0.6,0.3-1,0.3c-0.6,0-1.1-0.2-1.4-0.6C52.3,76.5,52.1,76,52.1,75.3z M52.8,75.3
		c0,0.5,0.1,0.9,0.3,1.2c0.2,0.3,0.5,0.4,0.9,0.4c0.3,0,0.6-0.1,0.9-0.4c0.2-0.3,0.3-0.7,0.3-1.2s-0.1-0.9-0.3-1.2
		c-0.2-0.3-0.5-0.4-0.9-0.4s-0.6,0.1-0.9,0.4C52.9,74.3,52.8,74.7,52.8,75.3z"/>
	<path class="st1" d="M56.6,75.3c0-0.8,0.2-1.3,0.6-1.7c0.4-0.3,0.8-0.5,1.3-0.5c0.6,0,1,0.2,1.4,0.6s0.5,0.9,0.5,1.5
		c0,0.5-0.1,1-0.2,1.3s-0.4,0.5-0.7,0.7s-0.6,0.3-1,0.3c-0.6,0-1.1-0.2-1.4-0.6C56.7,76.5,56.6,76,56.6,75.3z M57.3,75.3
		c0,0.5,0.1,0.9,0.3,1.2c0.2,0.3,0.5,0.4,0.9,0.4c0.3,0,0.6-0.1,0.9-0.4c0.2-0.3,0.3-0.7,0.3-1.2s-0.1-0.9-0.3-1.2
		c-0.2-0.3-0.5-0.4-0.9-0.4s-0.6,0.1-0.9,0.4C57.4,74.3,57.3,74.7,57.3,75.3z"/>
	<path class="st1" d="M61.3,77.3v-4.1h0.6v0.6c0.1-0.2,0.3-0.4,0.5-0.5s0.5-0.2,0.7-0.2c0.3,0,0.6,0.1,0.8,0.2s0.3,0.3,0.4,0.5
		c0.3-0.5,0.8-0.7,1.3-0.7c0.4,0,0.7,0.1,0.9,0.3c0.2,0.2,0.3,0.6,0.3,1.1v2.8h-0.7v-2.6c0-0.3,0-0.5-0.1-0.6c0-0.1-0.1-0.2-0.2-0.3
		c-0.1-0.1-0.3-0.1-0.4-0.1c-0.3,0-0.5,0.1-0.7,0.3c-0.2,0.2-0.3,0.5-0.3,0.9v2.4h-0.7v-2.7c0-0.3-0.1-0.5-0.2-0.7
		c-0.1-0.2-0.3-0.2-0.6-0.2c-0.2,0-0.4,0.1-0.5,0.2s-0.3,0.3-0.4,0.5c-0.1,0.2-0.1,0.5-0.1,0.9v2.2h-0.6V77.3z"/>
</g>
</svg>
