<?xml version="1.0" encoding="utf-8"?>
<!-- Generator: Adobe Illustrator 19.2.1, SVG Export Plug-In . SVG Version: 6.00 Build 0)  -->
<svg version="1.1" id="图层_1" xmlns="http://www.w3.org/2000/svg" xmlns:xlink="http://www.w3.org/1999/xlink" x="0px" y="0px"
	 viewBox="0 0 500 300" style="enable-background:new 0 0 500 300;" xml:space="preserve">
<style type="text/css">
	.st0{fill:#CBC8B8;}
	.st1{fill:#BCBAAF;}
	.st2{fill:#5E5951;}
	.st3{fill:#D4D2CB;}
	.st4{fill:#666666;}
	.st5{fill:#808080;}
	.st6{fill:#999999;}
	.st7{fill:#E6E6E6;}
</style>
<g id="anothertable">
	<g id="chair">
		<g id="char_5_">
			<path class="st0" d="M366.4,220c1.3-0.5,2.6-0.8,3.1,0.5l12.9,27.8c0.5,1.3-0.3,2.1-1.7,2.7c0,0-20.2,9.4-27,12.5l-14.4-31
				C346.1,229.3,366.4,220,366.4,220z"/>
			<path class="st1" d="M339.3,275c-0.8,0.3-2-0.5-2.7-1.7l-15.7-34c-0.5-1.3-0.5-2.8,0.3-3.1c0,0,15.3,0.6,19.2-1.2l12.4,26.7
				C349,263.6,339.3,275,339.3,275z"/>
			<path class="st2" d="M375.1,250.3c0.5-0.2,1-0.1,1.2,0.5l1.8,3.8c0.2,0.5,0.1,1-0.5,1.2L355.5,266c-0.5,0.2-1,0.1-1.2-0.5
				l-1.8-3.8c-0.2-0.5-0.1-1,0.5-1.2L375.1,250.3z"/>
			<path class="st2" d="M360.9,219.5c0.5-0.2,1-0.1,1.2,0.5l1.8,3.8c0.2,0.5,0.1,1-0.5,1.2l-22.2,10.2c-0.5,0.2-1,0.1-1.2-0.5
				l-1.8-3.8c-0.2-0.5-0.1-1,0.5-1.2L360.9,219.5z"/>
		</g>
		<g id="char_4_">
			<path class="st0" d="M239.2,140.7c0.7-1.5,1.5-2.6,3.2-2l32.2,13.6c1.5,0.7,1.4,2.1,0.6,3.6c0,0-9.9,23.5-13.3,31.2l-36-15.2
				C229.3,164.2,239.2,140.7,239.2,140.7z"/>
			<path class="st1" d="M258.6,208.1c-0.4,1-2,1.2-3.6,0.5L215.6,192c-1.5-0.7-2.4-2-2.1-3c0,0,13.5-11.1,15.3-15.8l31.1,13.1
				C257.9,191,258.6,208.1,258.6,208.1z"/>
			<path class="st2" d="M269.9,159.6c0.2-0.5,0.8-0.8,1.3-0.5l4.3,1.9c0.5,0.2,0.8,0.8,0.5,1.3L265.2,188c-0.2,0.5-0.8,0.8-1.3,0.5
				l-4.3-1.9c-0.5-0.2-0.8-0.8-0.5-1.3L269.9,159.6z"/>
			<path class="st2" d="M234.3,144.5c0.2-0.5,0.8-0.8,1.3-0.5l4.3,1.9c0.5,0.2,0.8,0.8,0.5,1.3l-10.8,25.6c-0.2,0.5-0.8,0.8-1.3,0.5
				l-4.3-1.9c-0.5-0.2-0.8-0.8-0.5-1.3L234.3,144.5z"/>
		</g>
		<g id="char_3_">
			<path class="st0" d="M69.7,113.5c-0.1-1.7,0.2-3.2,2-3.4l36.8-1.7c1.9-0.1,2.2,1.4,2.2,3.1c0,0,1.2,26.8,1.6,35.7l-41.1,2
				C70.9,140.3,69.7,113.5,69.7,113.5z"/>
			<path class="st1" d="M118.7,168.6c0.1,1-1.3,2-3.1,2l-44.9,2.1c-1.7,0.1-3.3-0.8-3.4-1.8c0,0,7.7-16.7,7.4-21.9l35.4-1.6
				C110.4,152.7,118.7,168.6,118.7,168.6z"/>
			<path class="st2" d="M107.4,117.4c0-0.6,0.4-1.1,0.9-1.1l5-0.2c0.6,0,1.1,0.4,1.1,0.9l1.4,29.3c0,0.6-0.4,1.1-0.9,1.1l-5,0.2
				c-0.6,0-1.1-0.4-1.1-0.9L107.4,117.4z"/>
			<path class="st2" d="M66.7,119.3c0-0.6,0.4-1.1,0.9-1.1l5-0.2c0.6,0,1.1,0.4,1.1,0.9l1.4,29.3c0,0.6-0.4,1.1-0.9,1.1l-5,0.3
				c-0.6,0-1.1-0.4-1.1-0.9L66.7,119.3z"/>
		</g>
	</g>
	<path class="st3" d="M500,300c0,0,10.7-65-38-131.8c-49.2-67.6-119.4-108-215.5-139.4C158-0.1,0,0,0,0v88c0,0,115.9-7,190,16.3
		c75.5,23.7,146.7,52.2,195,120.9c26,36.6,28,74.8,28,74.8H500z"/>
	<g id="desktop_6_">
		<g id="desktop_5_">
			<g id="monitor_6_">
				<path d="M420.6,185.3c0.3-0.2,0.7-0.1,0.9,0.2l8.6,14.2c0.2,0.3,0.1,0.7-0.2,0.9l-2.3,1.4c-0.3,0.2-0.7,0.1-0.9-0.2l-8.6-14.2
					c-0.2-0.3-0.1-0.7,0.2-0.9L420.6,185.3z"/>
				<path class="st4" d="M411.8,163.6c0.8-0.5,3.4,1.7,4.4,3.3l28.7,45.7c0.9,1.4,1.9,5.1,1,5.7l-2.8,1.9c-0.8,0.5-2.5-0.2-3.4-1.6
					l-31-49.6c-0.9-1.4-0.4-2.8,0.3-3.4L411.8,163.6z"/>
			</g>
			<g id="keyboard_5_">
				<path class="st5" d="M420.1,228.4c-1.1,0.7-3,1-3.4,0.3l-27.3-43.6c-0.5-0.8,0.5-2.4,1.6-3.2l9.9-6.2c1.1-0.7,2.1-0.3,2.6,0.5
					l27.3,43.6c0.5,0.8,0.3,1.7-0.8,2.3L420.1,228.4L420.1,228.4z"/>
				<path class="st6" d="M420.9,227.8c-1,0.7-2.7,1.1-3.3,0.3l-27.4-43.7c-0.5-0.8,0.4-2.4,1.5-3.1l9.3-5.8c1-0.7,2.1-0.2,2.5,0.7
					L431,220c0.5,0.8,0.3,1.5-0.8,2.1L420.9,227.8z"/>
				<g id="key_5_">
					<g id="line1_6_">
						<path class="st7" d="M426.9,219.5c-0.3,0.2-0.7,0.1-0.9-0.2l-3-4.8c-0.2-0.3-0.1-0.7,0.2-0.9l1.2-0.8c0.3-0.2,0.7-0.1,0.9,0.2
							l3,4.8c0.2,0.3,0.1,0.7-0.2,0.9L426.9,219.5z"/>
						<path class="st7" d="M407.7,188.8c-0.3,0.2-0.7,0.1-0.9-0.2l-0.8-1.2c-0.2-0.3-0.1-0.7,0.2-0.9l1.2-0.8
							c0.3-0.2,0.7-0.1,0.9,0.2l0.8,1.2c0.2,0.3,0.1,0.7-0.2,0.9L407.7,188.8z"/>
						<path class="st7" d="M409.6,191.8c-0.3,0.2-0.7,0.1-0.9-0.2l-0.8-1.2c-0.2-0.3-0.1-0.7,0.2-0.9l1.2-0.8
							c0.3-0.2,0.7-0.1,0.9,0.2l0.8,1.2c0.2,0.3,0.1,0.7-0.2,0.9L409.6,191.8z"/>
						<path class="st7" d="M411.5,194.7c-0.3,0.2-0.7,0.1-0.9-0.2l-0.8-1.2c-0.2-0.3-0.1-0.7,0.2-0.9l1.2-0.8
							c0.3-0.2,0.7-0.1,0.9,0.2l0.8,1.2c0.2,0.3,0.1,0.7-0.2,0.9L411.5,194.7z"/>
						<path class="st7" d="M413.5,198c-0.3,0.2-0.7,0.1-0.9-0.2l-0.8-1.2c-0.2-0.3-0.1-0.7,0.2-0.9l1.2-0.8c0.3-0.2,0.7-0.1,0.9,0.2
							l0.8,1.2c0.2,0.3,0.1,0.7-0.2,0.9L413.5,198z"/>
						<path class="st7" d="M415.4,200.9c-0.3,0.2-0.7,0.1-0.9-0.2l-0.8-1.2c-0.2-0.3-0.1-0.7,0.2-0.9l1.2-0.8
							c0.3-0.2,0.7-0.1,0.9,0.2l0.8,1.2c0.2,0.3,0.1,0.7-0.2,0.9L415.4,200.9z"/>
						<path class="st7" d="M417.2,203.9c-0.3,0.2-0.7,0.1-0.9-0.2l-0.8-1.2c-0.2-0.3-0.1-0.7,0.2-0.9l1.2-0.8
							c0.3-0.2,0.7-0.1,0.9,0.2l0.8,1.2c0.2,0.3,0.1,0.7-0.2,0.9L417.2,203.9z"/>
						<path class="st7" d="M419.1,206.9c-0.3,0.2-0.7,0.1-0.9-0.2l-0.8-1.2c-0.2-0.3-0.1-0.7,0.2-0.9l1.2-0.8
							c0.3-0.2,0.7-0.1,0.9,0.2l0.8,1.2c0.2,0.3,0.1,0.7-0.2,0.9L419.1,206.9z"/>
						<path class="st7" d="M421.2,210.1c-0.3,0.2-0.7,0.1-0.9-0.2l-0.8-1.2c-0.2-0.3-0.1-0.7,0.2-0.9l1.2-0.8
							c0.3-0.2,0.7-0.1,0.9,0.2l0.8,1.2c0.2,0.3,0.1,0.7-0.2,0.9L421.2,210.1z"/>
						<path class="st7" d="M422.9,213.1c-0.3,0.2-0.7,0.1-0.9-0.2l-0.8-1.2c-0.2-0.3-0.1-0.7,0.2-0.9l1.2-0.8
							c0.3-0.2,0.7-0.1,0.9,0.2l0.8,1.2c0.2,0.3,0.1,0.7-0.2,0.9L422.9,213.1z"/>
						<path class="st7" d="M406,185.9c-0.3,0.2-0.7,0.1-0.9-0.2l-3-4.8c-0.2-0.3-0.1-0.7,0.2-0.9l1.2-0.8c0.3-0.2,0.7-0.1,0.9,0.2
							l3,4.8c0.2,0.3,0.1,0.7-0.2,0.9L406,185.9z"/>
					</g>
					<g id="line2_5_">
						<path class="st7" d="M401.9,186.8c-0.3,0.2-0.7,0.1-0.9-0.2l-0.8-1.2c-0.2-0.3-0.1-0.7,0.2-0.9l1.2-0.8
							c0.3-0.2,0.7-0.1,0.9,0.2l0.8,1.2c0.2,0.3,0.1,0.7-0.2,0.9L401.9,186.8z"/>
						<path class="st7" d="M403.8,189.8c-0.3,0.2-0.7,0.1-0.9-0.2l-0.8-1.2c-0.2-0.3-0.1-0.7,0.2-0.9l1.2-0.8
							c0.3-0.2,0.7-0.1,0.9,0.2l0.8,1.2c0.2,0.3,0.1,0.7-0.2,0.9L403.8,189.8z"/>
						<path class="st7" d="M405.6,192.6c-0.3,0.2-0.7,0.1-0.9-0.2l-0.8-1.2c-0.2-0.3-0.1-0.7,0.2-0.9l1.2-0.8
							c0.3-0.2,0.7-0.1,0.9,0.2l0.8,1.2c0.2,0.3,0.1,0.7-0.2,0.9L405.6,192.6z"/>
						<path class="st7" d="M407.6,195.7c-0.3,0.2-0.7,0.1-0.9-0.2l-0.8-1.2c-0.2-0.3-0.1-0.7,0.2-0.9l1.2-0.8
							c0.3-0.2,0.7-0.1,0.9,0.2l0.8,1.2c0.2,0.3,0.1,0.7-0.2,0.9L407.6,195.7z"/>
						<path class="st7" d="M409.3,198.6c-0.3,0.2-0.7,0.1-0.9-0.2l-0.8-1.2c-0.2-0.3-0.1-0.7,0.2-0.9l1.2-0.8
							c0.3-0.2,0.7-0.1,0.9,0.2l0.8,1.2c0.2,0.3,0.1,0.7-0.2,0.9L409.3,198.6z"/>
						<path class="st7" d="M411.5,201.9c-0.3,0.2-0.7,0.1-0.9-0.2l-0.8-1.2c-0.2-0.3-0.1-0.7,0.2-0.9l1.2-0.8
							c0.3-0.2,0.7-0.1,0.9,0.2l0.8,1.2c0.2,0.3,0.1,0.7-0.2,0.9L411.5,201.9z"/>
						<path class="st7" d="M413.3,204.9c-0.3,0.2-0.7,0.1-0.9-0.2l-0.8-1.2c-0.2-0.3-0.1-0.7,0.2-0.9l1.2-0.8
							c0.3-0.2,0.7-0.1,0.9,0.2l0.8,1.2c0.2,0.3,0.1,0.7-0.2,0.9L413.3,204.9z"/>
						<path class="st7" d="M415.1,207.9c-0.3,0.2-0.7,0.1-0.9-0.2l-0.8-1.2c-0.2-0.3-0.1-0.7,0.2-0.9l1.2-0.8
							c0.3-0.2,0.7-0.1,0.9,0.2l0.8,1.2c0.2,0.3,0.1,0.7-0.2,0.9L415.1,207.9z"/>
						<path class="st7" d="M417.1,211.1c-0.3,0.2-0.7,0.1-0.9-0.2l-0.8-1.2c-0.2-0.3-0.1-0.7,0.2-0.9l1.3-0.9
							c0.3-0.2,0.7-0.1,0.9,0.2l0.8,1.2c0.2,0.3,0.1,0.7-0.2,0.9L417.1,211.1z"/>
						<path class="st7" d="M419,214.1c-0.3,0.2-0.7,0.1-0.9-0.2l-0.8-1.2c-0.2-0.3-0.1-0.7,0.2-0.9l1.2-0.8c0.3-0.2,0.7-0.1,0.9,0.2
							l0.8,1.2c0.2,0.3,0.1,0.7-0.2,0.9L419,214.1z"/>
						<path class="st7" d="M421.2,217.3c-0.3,0.2-0.7,0.1-0.9-0.2l-0.8-1.2c-0.2-0.3-0.1-0.7,0.2-0.9l1.2-0.8
							c0.3-0.2,0.7-0.1,0.9,0.2l0.8,1.2c0.2,0.3,0.1,0.7-0.2,0.9L421.2,217.3z"/>
						<path class="st7" d="M422.9,220.3c-0.3,0.2-0.7,0.1-0.9-0.2l-0.8-1.2c-0.2-0.3-0.1-0.7,0.2-0.9l1.2-0.8
							c0.3-0.2,0.7-0.1,0.9,0.2l0.8,1.2c0.2,0.3,0.1,0.7-0.2,0.9L422.9,220.3z"/>
					</g>
					<g id="line3_6_">
						<path class="st7" d="M420.7,223.5c-0.3,0.2-0.7,0.1-0.9-0.2l-3-4.8c-0.2-0.3-0.1-0.7,0.2-0.9l1.2-0.8c0.3-0.2,0.7-0.1,0.9,0.2
							l3,4.8c0.2,0.3,0.1,0.7-0.2,0.9L420.7,223.5z"/>
						<path class="st7" d="M401.5,192.8c-0.3,0.2-0.7,0.1-0.9-0.2l-0.8-1.2c-0.2-0.3-0.1-0.7,0.2-0.9l1.2-0.8
							c0.3-0.2,0.7-0.1,0.9,0.2l0.8,1.2c0.2,0.3,0.1,0.7-0.2,0.9L401.5,192.8z"/>
						<path class="st7" d="M403.2,195.7c-0.3,0.2-0.7,0.1-0.9-0.2l-0.8-1.2c-0.2-0.3-0.1-0.7,0.2-0.9l1.2-0.8
							c0.3-0.2,0.7-0.1,0.9,0.2l0.8,1.2c0.2,0.3,0.1,0.7-0.2,0.9L403.2,195.7z"/>
						<path class="st7" d="M405.2,198.7c-0.3,0.2-0.7,0.1-0.9-0.2l-0.8-1.2c-0.2-0.3-0.1-0.7,0.2-0.9l1.2-0.8
							c0.3-0.2,0.7-0.1,0.9,0.2l0.8,1.2c0.2,0.3,0.1,0.7-0.2,0.9L405.2,198.7z"/>
						<path class="st7" d="M407.2,201.8c-0.3,0.2-0.7,0.1-0.9-0.2l-0.8-1.2c-0.2-0.3-0.1-0.7,0.2-0.9l1.2-0.8
							c0.3-0.2,0.7-0.1,0.9,0.2l0.8,1.2c0.2,0.3,0.1,0.7-0.2,0.9L407.2,201.8z"/>
						<path class="st7" d="M408.9,204.8c-0.3,0.2-0.7,0.1-0.9-0.2l-0.8-1.2c-0.2-0.3-0.1-0.7,0.2-0.9l1.2-0.8
							c0.3-0.2,0.7-0.1,0.9,0.2l0.8,1.2c0.2,0.3,0.1,0.7-0.2,0.9L408.9,204.8z"/>
						<path class="st7" d="M411,207.9c-0.3,0.2-0.7,0.1-0.9-0.2l-0.8-1.2c-0.2-0.3-0.1-0.7,0.2-0.9l1.2-0.8c0.3-0.2,0.7-0.1,0.9,0.2
							l0.8,1.2c0.2,0.3,0.1,0.7-0.2,0.9L411,207.9z"/>
						<path class="st7" d="M412.8,210.9c-0.3,0.2-0.7,0.1-0.9-0.2l-0.8-1.2c-0.2-0.3-0.1-0.7,0.2-0.9l1.2-0.8
							c0.3-0.2,0.7-0.1,0.9,0.2l0.8,1.2c0.2,0.3,0.1,0.7-0.2,0.9L412.8,210.9z"/>
						<path class="st7" d="M414.8,214.1c-0.3,0.2-0.7,0.1-0.9-0.2l-0.8-1.2c-0.2-0.3-0.1-0.7,0.2-0.9l1.2-0.8
							c0.3-0.2,0.7-0.1,0.9,0.2l0.8,1.2c0.2,0.3,0.1,0.7-0.2,0.9L414.8,214.1z"/>
						<path class="st7" d="M416.7,217c-0.3,0.2-0.7,0.1-0.9-0.2l-0.8-1.2c-0.2-0.3-0.1-0.7,0.2-0.9l1.2-0.8c0.3-0.2,0.7-0.1,0.9,0.2
							l0.8,1.2c0.2,0.3,0.1,0.7-0.2,0.9L416.7,217z"/>
						<path class="st7" d="M399.5,189.8c-0.3,0.2-0.7,0.1-0.9-0.2l-3-4.8c-0.2-0.3-0.1-0.7,0.2-0.9l1.2-0.8c0.3-0.2,0.7-0.1,0.9,0.2
							l3,4.8c0.2,0.3,0.1,0.7-0.2,0.9L399.5,189.8z"/>
					</g>
					<g id="line4_5_">
						<path class="st7" d="M395.9,190.8c-0.3,0.2-0.7,0.1-0.9-0.2l-0.8-1.2c-0.2-0.3-0.1-0.7,0.2-0.9l1.2-0.8
							c0.3-0.2,0.7-0.1,0.9,0.2l0.8,1.2c0.2,0.3,0.1,0.7-0.2,0.9L395.9,190.8z"/>
						<path class="st7" d="M397.8,193.8c-0.3,0.2-0.7,0.1-0.9-0.2l-0.8-1.2c-0.2-0.3-0.1-0.7,0.2-0.9l1.2-0.8
							c0.3-0.2,0.7-0.1,0.9,0.2l0.8,1.2c0.2,0.3,0.1,0.7-0.2,0.9L397.8,193.8z"/>
						<path class="st7" d="M399.5,196.8c-0.3,0.2-0.7,0.1-0.9-0.2l-0.8-1.2c-0.2-0.3-0.1-0.7,0.2-1l1.2-0.8c0.3-0.2,0.7-0.1,0.9,0.2
							l0.8,1.2c0.2,0.3,0.1,0.7-0.2,0.9L399.5,196.8z"/>
						<path class="st7" d="M412.7,217.8c-0.3,0.2-0.7,0.1-0.9-0.2l-0.8-1.2c-0.2-0.3-0.1-0.7,0.2-0.9l1.2-0.8
							c0.3-0.2,0.7-0.1,0.9,0.2l0.8,1.2c0.2,0.3,0.1,0.7-0.2,0.9L412.7,217.8z"/>
						<path class="st7" d="M414.7,221c-0.3,0.2-0.7,0.1-0.9-0.2l-0.8-1.2c-0.2-0.3-0.1-0.7,0.2-0.9l1.2-0.8c0.3-0.2,0.7-0.1,0.9,0.2
							l0.8,1.2c0.2,0.3,0.1,0.7-0.2,0.9L414.7,221z"/>
						<path class="st7" d="M416.7,224c-0.3,0.2-0.7,0.1-0.9-0.2l-0.8-1.2c-0.2-0.3-0.1-0.7,0.2-0.9l1.2-0.8c0.3-0.2,0.7-0.1,0.9,0.2
							l0.8,1.2c0.2,0.3,0.1,0.7-0.2,0.9L416.7,224z"/>
						<path class="st7" d="M411,214.6c-0.4,0.2-0.9,0.2-1.1-0.1l-10.2-16.2c-0.2-0.3,0-0.7,0.4-1l1-0.7c0.4-0.2,0.8-0.2,1,0.1
							l10.2,16.2c0.2,0.3,0.1,0.8-0.3,1L411,214.6L411,214.6z"/>
					</g>
				</g>
			</g>
		</g>
		<g id="desktop_4_">
			<g id="monitor_4_">
				<path d="M276.2,83.7c0.2-0.4,0.5-0.4,0.8-0.4l13.7,5.8c0.3,0.1,0.4,0.5,0.4,0.8l-0.9,2.2c-0.2,0.4-0.5,0.4-0.8,0.4l-13.7-5.8
					c-0.3-0.1-0.4-0.5-0.4-0.8L276.2,83.7z"/>
				<path class="st4" d="M258.4,72.6c0.3-0.8,3.5-0.6,4.9,0l45,18c1.4,0.6,4,2.8,3.7,3.6l-1.1,2.8c-0.3,0.8-1.9,1.2-3.3,0.6
					L258.9,78c-1.4-0.6-1.9-1.8-1.5-2.7L258.4,72.6z"/>
			</g>
			<g id="keyboard_4_">
				<path class="st5" d="M298.5,115.1c-0.5,1-1.7,2.3-2.3,2.1L253.4,100c-0.8-0.3-0.9-2.1-0.5-3.1l4-9.8c0.5-1,1.4-1.3,2.2-1.1
					l42.7,17.2c0.8,0.3,1.2,1.1,0.7,2.1L298.5,115.1L298.5,115.1z"/>
				<path class="st6" d="M298.9,114.4c-0.5,1-1.4,2.2-2.1,1.9L254,99.1c-0.8-0.3-1-2-0.6-3l3.7-9.1c0.5-1,1.4-1.2,2.2-0.9l42.8,17.2
					c0.8,0.3,1,1,0.6,2L298.9,114.4z"/>
				<g id="key_4_">
					<g id="line1_5_">
						<path class="st7" d="M298.9,105.2c-0.2,0.4-0.6,0.4-0.8,0.4l-4.7-1.9c-0.4-0.2-0.4-0.6-0.4-0.8l0.5-1.2
							c0.2-0.4,0.6-0.4,0.8-0.4l4.7,1.9c0.4,0.2,0.4,0.6,0.4,0.8L298.9,105.2z"/>
						<path class="st7" d="M268.7,93.1c-0.2,0.4-0.6,0.4-0.8,0.4l-1.2-0.5c-0.4-0.2-0.4-0.6-0.4-0.8l0.5-1.2
							c0.2-0.4,0.6-0.4,0.8-0.4l1.2,0.5c0.4,0.2,0.4,0.6,0.4,0.8L268.7,93.1z"/>
						<path class="st7" d="M271.6,94.2c-0.2,0.4-0.6,0.4-0.8,0.4l-1.2-0.5c-0.4-0.2-0.4-0.6-0.4-0.8l0.5-1.2
							c0.2-0.4,0.6-0.4,0.8-0.4l1.2,0.5c0.4,0.2,0.4,0.6,0.4,0.8L271.6,94.2z"/>
						<path class="st7" d="M274.5,95.4c-0.2,0.4-0.6,0.4-0.8,0.4l-1.2-0.5c-0.4-0.2-0.4-0.6-0.4-0.8l0.5-1.2
							c0.2-0.4,0.6-0.4,0.8-0.4l1.2,0.5c0.4,0.2,0.4,0.6,0.4,0.8L274.5,95.4z"/>
						<path class="st7" d="M277.7,96.7c-0.2,0.4-0.6,0.4-0.8,0.4l-1.2-0.5c-0.4-0.2-0.4-0.6-0.4-0.8l0.5-1.2
							c0.2-0.4,0.6-0.4,0.8-0.4l1.2,0.5c0.4,0.2,0.4,0.6,0.4,0.8L277.7,96.7z"/>
						<path class="st7" d="M280.5,97.8c-0.2,0.4-0.6,0.4-0.8,0.4l-1.3-0.6c-0.4-0.2-0.4-0.6-0.4-0.8l0.5-1.2
							c0.2-0.4,0.6-0.4,0.8-0.4l1.2,0.5c0.4,0.2,0.4,0.6,0.4,0.8L280.5,97.8z"/>
						<path class="st7" d="M283.6,99c-0.2,0.4-0.6,0.4-0.8,0.4l-1.2-0.5c-0.4-0.2-0.4-0.6-0.4-0.8l0.5-1.2c0.2-0.4,0.6-0.4,0.8-0.4
							l1.2,0.5c0.4,0.2,0.4,0.6,0.4,0.8L283.6,99z"/>
						<path class="st7" d="M286.6,100.2c-0.2,0.4-0.6,0.4-0.8,0.4l-1.2-0.5c-0.4-0.2-0.4-0.6-0.4-0.8l0.5-1.2
							c0.2-0.4,0.6-0.4,0.8-0.4l1.2,0.5c0.4,0.2,0.4,0.6,0.4,0.8L286.6,100.2z"/>
						<path class="st7" d="M289.6,101.5c-0.2,0.4-0.6,0.4-0.8,0.4l-1.2-0.5c-0.4-0.2-0.4-0.6-0.4-0.8l0.5-1.2
							c0.2-0.4,0.6-0.4,0.8-0.4l1.2,0.5c0.4,0.2,0.4,0.6,0.4,0.8L289.6,101.5z"/>
						<path class="st7" d="M292.6,102.6c-0.2,0.4-0.6,0.4-0.8,0.4l-1.2-0.5c-0.4-0.2-0.4-0.6-0.4-0.8l0.5-1.2
							c0.2-0.4,0.6-0.4,0.8-0.4l1.2,0.5c0.4,0.2,0.4,0.6,0.4,0.8L292.6,102.6z"/>
						<path class="st7" d="M265.7,91.9c-0.2,0.4-0.6,0.4-0.8,0.4l-4.7-1.9c-0.4-0.2-0.4-0.6-0.4-0.8l0.5-1.2
							c0.2-0.4,0.6-0.4,0.8-0.4l4.7,1.9c0.4,0.2,0.4,0.6,0.4,0.8L265.7,91.9z"/>
					</g>
					<g id="line2_4_">
						<path class="st7" d="M263.4,94.6c-0.2,0.4-0.6,0.4-0.8,0.4l-1.2-0.5c-0.4-0.2-0.4-0.6-0.4-0.8l0.5-1.2
							c0.2-0.4,0.6-0.4,0.8-0.4l1.2,0.5c0.4,0.2,0.4,0.6,0.4,0.8L263.4,94.6z"/>
						<path class="st7" d="M266.4,95.7c-0.2,0.4-0.6,0.4-0.8,0.4l-1.2-0.5c-0.4-0.2-0.4-0.6-0.4-0.8l0.5-1.2
							c0.2-0.4,0.6-0.4,0.8-0.4l1.2,0.5c0.4,0.2,0.4,0.6,0.4,0.8L266.4,95.7z"/>
						<path class="st7" d="M269.2,96.9c-0.2,0.4-0.6,0.4-0.8,0.4l-1.2-0.5c-0.4-0.2-0.4-0.6-0.4-0.8l0.5-1.2
							c0.2-0.4,0.6-0.4,0.8-0.4l1.2,0.5c0.4,0.2,0.4,0.6,0.4,0.8L269.2,96.9z"/>
						<path class="st7" d="M272.3,98.2c-0.2,0.4-0.6,0.4-0.8,0.4l-1.2-0.5c-0.4-0.2-0.4-0.6-0.4-0.8l0.5-1.2
							c0.2-0.4,0.6-0.4,0.8-0.4l1.2,0.5c0.4,0.2,0.4,0.6,0.4,0.8L272.3,98.2z"/>
						<path class="st7" d="M275.2,99.4c-0.2,0.4-0.6,0.4-0.8,0.4l-1.2-0.5c-0.4-0.2-0.4-0.6-0.4-0.8l0.5-1.2
							c0.2-0.4,0.6-0.4,0.8-0.4l1.2,0.5c0.4,0.2,0.4,0.6,0.4,0.8L275.2,99.4z"/>
						<path class="st7" d="M278.3,100.6c-0.2,0.4-0.6,0.4-0.8,0.4l-1.2-0.5c-0.4-0.2-0.4-0.6-0.4-0.8l0.5-1.2
							c0.2-0.4,0.6-0.4,0.8-0.4l1.2,0.5c0.4,0.2,0.4,0.6,0.4,0.8L278.3,100.6z"/>
						<path class="st7" d="M281.2,101.8c-0.2,0.4-0.6,0.4-0.8,0.4l-1.2-0.5c-0.4-0.2-0.4-0.6-0.4-0.8l0.5-1.2
							c0.2-0.4,0.6-0.4,0.8-0.4l1.2,0.5c0.4,0.2,0.4,0.6,0.4,0.8L281.2,101.8z"/>
						<path class="st7" d="M284.1,102.9c-0.2,0.4-0.6,0.4-0.8,0.4l-1.2-0.5c-0.4-0.2-0.4-0.6-0.4-0.8l0.5-1.2
							c0.2-0.4,0.6-0.4,0.8-0.4l1.2,0.5c0.4,0.2,0.4,0.6,0.4,0.8L284.1,102.9z"/>
						<path class="st7" d="M287.3,104.3c-0.2,0.4-0.6,0.4-0.8,0.4l-1.2-0.5c-0.4-0.2-0.4-0.6-0.4-0.8l0.5-1.2
							c0.2-0.4,0.6-0.4,0.8-0.4l1.2,0.5c0.4,0.2,0.4,0.6,0.4,0.8L287.3,104.3z"/>
						<path class="st7" d="M290.2,105.4c-0.2,0.4-0.6,0.4-0.8,0.4l-1.2-0.5c-0.4-0.2-0.4-0.6-0.4-0.8l0.5-1.2
							c0.2-0.4,0.6-0.4,0.8-0.4l1.2,0.5c0.4,0.2,0.4,0.6,0.4,0.8L290.2,105.4z"/>
						<path class="st7" d="M293.4,106.7c-0.2,0.4-0.6,0.4-0.8,0.4l-1.2-0.5c-0.4-0.2-0.4-0.6-0.4-0.8l0.5-1.2
							c0.2-0.4,0.6-0.4,0.8-0.4l1.2,0.5c0.4,0.2,0.4,0.6,0.4,0.8L293.4,106.7z"/>
						<path class="st7" d="M296.3,107.8c-0.2,0.4-0.6,0.4-0.8,0.4l-1.2-0.5c-0.4-0.2-0.4-0.6-0.4-0.8l0.5-1.2
							c0.2-0.4,0.6-0.4,0.8-0.4l1.2,0.5c0.4,0.2,0.4,0.6,0.4,0.8L296.3,107.8z"/>
					</g>
					<g id="line3_5_">
						<path class="st7" d="M296.4,111.4c-0.2,0.4-0.6,0.4-0.8,0.4l-4.7-1.9c-0.4-0.2-0.4-0.6-0.4-0.8l0.5-1.2
							c0.2-0.4,0.6-0.4,0.8-0.4l4.7,1.9c0.4,0.2,0.4,0.6,0.4,0.8L296.4,111.4z"/>
						<path class="st7" d="M266.3,99.3c-0.2,0.4-0.6,0.4-0.8,0.4l-1.2-0.5c-0.4-0.2-0.4-0.6-0.4-0.8l0.5-1.2
							c0.2-0.4,0.6-0.4,0.8-0.4l1.2,0.5c0.4,0.2,0.4,0.6,0.4,0.8L266.3,99.3z"/>
						<path class="st7" d="M269.2,100.4c-0.2,0.4-0.6,0.4-0.8,0.4l-1.2-0.5c-0.4-0.2-0.4-0.6-0.4-0.8l0.5-1.2
							c0.2-0.4,0.6-0.4,0.8-0.4l1.2,0.5c0.4,0.2,0.4,0.6,0.4,0.8L269.2,100.4z"/>
						<path class="st7" d="M272,101.5c-0.2,0.4-0.6,0.4-0.8,0.4l-1.2-0.5c-0.4-0.2-0.4-0.6-0.4-0.8l0.5-1.2c0.2-0.4,0.6-0.4,0.8-0.4
							l1.2,0.5c0.4,0.2,0.4,0.6,0.4,0.8L272,101.5z"/>
						<path class="st7" d="M275.1,102.8c-0.2,0.4-0.6,0.4-0.8,0.4l-1.2-0.5c-0.4-0.2-0.4-0.6-0.4-0.8l0.5-1.2
							c0.2-0.4,0.6-0.4,0.8-0.4l1.2,0.5c0.4,0.2,0.4,0.6,0.4,0.8L275.1,102.8z"/>
						<path class="st7" d="M278,104c-0.2,0.4-0.6,0.4-0.8,0.4l-1.2-0.5c-0.4-0.2-0.4-0.6-0.4-0.8l0.5-1.2c0.2-0.4,0.6-0.4,0.8-0.4
							l1.2,0.5c0.4,0.2,0.4,0.6,0.4,0.8L278,104z"/>
						<path class="st7" d="M281.2,105.3c-0.2,0.4-0.6,0.4-0.8,0.4l-1.2-0.5c-0.4-0.2-0.4-0.6-0.4-0.8l0.5-1.2
							c0.2-0.4,0.6-0.4,0.8-0.4l1.2,0.5c0.4,0.2,0.4,0.6,0.4,0.8L281.2,105.3z"/>
						<path class="st7" d="M284.1,106.4c-0.2,0.4-0.6,0.4-0.8,0.4l-1.2-0.5c-0.4-0.2-0.4-0.6-0.4-0.8l0.5-1.2
							c0.2-0.4,0.6-0.4,0.8-0.4l1.2,0.5c0.4,0.2,0.4,0.6,0.4,0.8L284.1,106.4z"/>
						<path class="st7" d="M287.1,107.6c-0.2,0.4-0.6,0.4-0.8,0.4l-1.2-0.5c-0.4-0.2-0.4-0.6-0.4-0.8l0.5-1.2
							c0.2-0.4,0.6-0.4,0.8-0.4l1.2,0.5c0.4,0.2,0.4,0.6,0.4,0.8L287.1,107.6z"/>
						<path class="st7" d="M290.1,108.7c-0.2,0.4-0.6,0.4-0.8,0.4l-1.2-0.5c-0.4-0.2-0.4-0.6-0.4-0.8l0.5-1.2
							c0.2-0.4,0.6-0.4,0.8-0.4l1.2,0.5c0.4,0.2,0.4,0.6,0.4,0.8L290.1,108.7z"/>
						<path class="st7" d="M263.3,98c-0.2,0.4-0.6,0.4-0.8,0.4l-4.7-1.9c-0.4-0.2-0.4-0.6-0.4-0.8l0.5-1.2c0.2-0.4,0.6-0.4,0.8-0.4
							l4.7,1.9c0.4,0.2,0.4,0.6,0.4,0.8L263.3,98z"/>
					</g>
					<g id="line4_4_">
						<path class="st7" d="M261.2,100.7c-0.2,0.4-0.6,0.4-0.8,0.4l-1.2-0.5c-0.4-0.2-0.4-0.6-0.4-0.8l0.5-1.2
							c0.2-0.4,0.6-0.4,0.8-0.4l1.2,0.5c0.4,0.2,0.4,0.6,0.4,0.8L261.2,100.7z"/>
						<path class="st7" d="M264.1,102c-0.2,0.4-0.6,0.4-0.8,0.4l-1.2-0.5c-0.4-0.2-0.4-0.6-0.4-0.8l0.5-1.2c0.2-0.4,0.6-0.4,0.8-0.4
							l1.2,0.5c0.4,0.2,0.4,0.6,0.4,0.8L264.1,102z"/>
						<path class="st7" d="M266.9,103.1c-0.2,0.4-0.6,0.4-0.8,0.4l-1.3-0.5c-0.4-0.2-0.4-0.6-0.4-0.8l0.5-1.2
							c0.2-0.4,0.6-0.4,0.8-0.4l1.2,0.5c0.4,0.2,0.4,0.6,0.4,0.8L266.9,103.1z"/>
						<path class="st7" d="M287.5,111.4c-0.2,0.4-0.6,0.4-0.8,0.4l-1.2-0.5c-0.4-0.2-0.4-0.6-0.4-0.8l0.5-1.2
							c0.2-0.4,0.6-0.4,0.8-0.4l1.2,0.5c0.4,0.2,0.4,0.6,0.4,0.8L287.5,111.4z"/>
						<path class="st7" d="M290.8,112.7c-0.2,0.4-0.6,0.4-0.8,0.4l-1.2-0.5c-0.4-0.2-0.4-0.6-0.4-0.8l0.5-1.2
							c0.2-0.4,0.6-0.4,0.8-0.4l1.2,0.5c0.4,0.2,0.4,0.6,0.4,0.8L290.8,112.7z"/>
						<path class="st7" d="M293.6,113.9c-0.2,0.4-0.6,0.4-0.8,0.4l-1.2-0.5c-0.4-0.2-0.4-0.6-0.4-0.8l0.5-1.2
							c0.2-0.4,0.6-0.4,0.8-0.4l1.4,0.4c0.4,0.2,0.4,0.6,0.4,0.8L293.6,113.9z"/>
						<path class="st7" d="M284.7,110c-0.2,0.4-0.6,0.6-0.9,0.5l-15.8-6.4c-0.4-0.2-0.4-0.6-0.3-0.9l0.4-0.9
							c0.2-0.4,0.5-0.5,0.8-0.4l15.8,6.4c0.4,0.2,0.4,0.6,0.4,0.9L284.7,110L284.7,110z"/>
					</g>
				</g>
			</g>
		</g>
		<g id="desktop_3_">
			<g id="monitor_3_">
				<path d="M91.9,48.6c0-0.4,0.3-0.5,0.7-0.5l14.7,1.3c0.4,0,0.5,0.3,0.5,0.7l-0.3,2.4c0,0.4-0.3,0.5-0.7,0.5l-14.7-1.3
					c-0.4,0-0.5-0.3-0.5-0.7L91.9,48.6z"/>
				<path class="st4" d="M71.9,43.5C72,42.7,75,42,76.4,42l47.7,3.6c1.5,0.1,4.6,1.4,4.5,2.2l-0.3,2.9c-0.1,0.8-1.4,1.7-3,1.6
					l-51.6-4c-1.5-0.1-2.3-1.2-2.1-2L71.9,43.5z"/>
			</g>
			<g id="keyboard_3_">
				<path class="st5" d="M122.3,71.6c-0.1,1.1-0.8,2.6-1.6,2.6l-45.5-3.6c-0.8-0.1-1.5-1.7-1.4-2.9l0.8-10.4c0.1-1.1,1-1.6,1.8-1.6
					l45.5,3.6c0.8,0.1,1.4,0.7,1.2,1.9L122.3,71.6L122.3,71.6z"/>
				<path class="st6" d="M122.4,70.8c-0.1,1.1-0.6,2.5-1.4,2.4l-45.7-3.5c-0.8-0.1-1.4-1.6-1.4-2.6l0.8-9.7c0.1-1.1,0.9-1.5,1.7-1.5
					l45.6,3.6c0.8,0.1,1.2,0.6,1.1,1.7L122.4,70.8z"/>
				<g id="key_3_">
					<g id="line1_4_">
						<path class="st7" d="M119.7,62.2c0,0.4-0.3,0.5-0.7,0.5l-5-0.3c-0.4,0-0.5-0.3-0.5-0.7v-1.3c0-0.4,0.3-0.5,0.7-0.5l5,0.3
							c0.4,0,0.5,0.3,0.5,0.7V62.2z"/>
						<path class="st7" d="M87.6,59.7c0,0.4-0.3,0.5-0.7,0.5h-1.3c-0.4,0-0.5-0.3-0.5-0.7l0.1-1.3c0-0.4,0.3-0.5,0.7-0.5h1.3
							c0.4,0,0.5,0.3,0.5,0.7L87.6,59.7z"/>
						<path class="st7" d="M90.7,60c0,0.4-0.3,0.5-0.7,0.5l-1.3-0.1c-0.4,0-0.5-0.3-0.5-0.7v-1.3c0-0.4,0.3-0.5,0.7-0.5h1.3
							c0.4,0,0.5,0.3,0.5,0.7V60z"/>
						<path class="st7" d="M93.9,60.1c0,0.4-0.3,0.5-0.7,0.5h-1.3c-0.4,0-0.5-0.3-0.5-0.7l0.1-1.2c0-0.4,0.3-0.5,0.7-0.5h1.3
							c0.4,0,0.5,0.3,0.5,0.7L93.9,60.1z"/>
						<path class="st7" d="M97.2,60.4c0,0.4-0.3,0.5-0.7,0.5h-1.3c-0.4,0-0.5-0.3-0.5-0.7v-1.3c0-0.4,0.3-0.5,0.7-0.5h1.3
							c0.4,0,0.5,0.3,0.5,0.7V60.4z"/>
						<path class="st7" d="M100.2,60.7c0,0.4-0.3,0.5-0.7,0.5h-1.3c-0.4,0-0.6-0.4-0.5-0.7v-1.3c0-0.4,0.3-0.5,0.7-0.5h1.3
							c0.4,0,0.5,0.3,0.5,0.7V60.7z"/>
						<path class="st7" d="M103.4,60.9c0,0.4-0.3,0.5-0.7,0.5h-1.3c-0.4,0-0.5-0.3-0.5-0.7v-1.3c0-0.4,0.3-0.5,0.7-0.5h1.3
							c0.4,0,0.5,0.3,0.5,0.7V60.9z"/>
						<path class="st7" d="M106.6,61.2c0,0.4-0.3,0.5-0.7,0.5h-1.3c-0.4,0-0.5-0.3-0.5-0.7v-1.3c0-0.4,0.3-0.5,0.7-0.5h1.3
							c0.4,0,0.5,0.3,0.5,0.7V61.2z"/>
						<path class="st7" d="M109.8,61.4c0,0.4-0.3,0.5-0.7,0.5h-1.3c-0.4,0-0.5-0.3-0.5-0.7l0.1-1.3c0-0.4,0.3-0.5,0.7-0.5h1.3
							c0.4,0,0.5,0.3,0.5,0.7L109.8,61.4z"/>
						<path class="st7" d="M112.9,61.6c0,0.4-0.3,0.5-0.7,0.5H111c-0.4,0-0.5-0.3-0.5-0.7v-1.3c0-0.4,0.3-0.5,0.7-0.5h1.3
							c0.4,0,0.5,0.3,0.5,0.7L112.9,61.6z"/>
						<path class="st7" d="M84.6,59.4c0,0.4-0.3,0.5-0.7,0.5L79,59.5c-0.4,0-0.5-0.3-0.5-0.7v-1.3c0-0.4,0.3-0.5,0.7-0.5l4.9,0.4
							c0.4,0,0.5,0.3,0.5,0.7V59.4z"/>
					</g>
					<g id="line2_3_">
						<path class="st7" d="M83.1,62.7c0,0.4-0.3,0.5-0.7,0.5h-1.3c-0.4,0-0.5-0.3-0.5-0.7v-1.3c0-0.4,0.3-0.5,0.7-0.5h1.3
							c0.4,0,0.5,0.3,0.5,0.7V62.7z"/>
						<path class="st7" d="M86.2,62.9c0,0.4-0.3,0.5-0.7,0.5h-1.3c-0.4,0-0.5-0.3-0.5-0.7v-1.3c0-0.4,0.3-0.5,0.7-0.5h1.3
							c0.4,0,0.5,0.3,0.5,0.7V62.9z"/>
						<path class="st7" d="M89.2,63.2c0,0.4-0.3,0.5-0.7,0.5h-1.3c-0.4,0-0.5-0.3-0.5-0.7v-1.3c0-0.4,0.3-0.5,0.7-0.5h1.3
							c0.4,0,0.5,0.3,0.5,0.7V63.2z"/>
						<path class="st7" d="M92.4,63.5c0,0.4-0.3,0.5-0.7,0.5h-1.2c-0.4,0-0.5-0.3-0.5-0.7V62c0-0.4,0.3-0.5,0.7-0.5H92
							c0.4,0,0.5,0.3,0.5,0.7L92.4,63.5z"/>
						<path class="st7" d="M95.6,63.7c0,0.4-0.3,0.5-0.7,0.5h-1.3c-0.4,0-0.5-0.3-0.5-0.7v-1.3c0-0.4,0.3-0.5,0.7-0.5h1.3
							c0.4,0,0.5,0.3,0.5,0.7V63.7z"/>
						<path class="st7" d="M98.9,63.9c0,0.4-0.3,0.5-0.7,0.5h-1.3c-0.4,0-0.5-0.3-0.5-0.7l0.1-1.2c0-0.4,0.3-0.5,0.7-0.5h1.3
							c0.4,0,0.5,0.3,0.5,0.7L98.9,63.9z"/>
						<path class="st7" d="M102,64.2c0,0.4-0.3,0.5-0.7,0.5H100c-0.4,0-0.5-0.3-0.5-0.7v-1.3c0-0.4,0.3-0.5,0.7-0.5h1.3
							c0.4,0,0.5,0.3,0.5,0.7V64.2z"/>
						<path class="st7" d="M105.2,64.4c0,0.4-0.3,0.5-0.7,0.5h-1.3c-0.4,0-0.5-0.3-0.5-0.7v-1.3c0-0.4,0.3-0.5,0.7-0.5h1.3
							c0.4,0,0.5,0.3,0.5,0.7V64.4z"/>
						<path class="st7" d="M108.4,64.7c0,0.4-0.3,0.5-0.7,0.5h-1.3c-0.4,0-0.5-0.3-0.5-0.7v-1.3c0-0.4,0.3-0.5,0.7-0.5h1.3
							c0.4,0,0.5,0.3,0.5,0.7V64.7z"/>
						<path class="st7" d="M111.5,64.9c0,0.4-0.3,0.5-0.7,0.5h-1.3c-0.4,0-0.5-0.3-0.5-0.7v-1.3c0-0.4,0.3-0.5,0.7-0.5h1.3
							c0.4,0,0.5,0.3,0.5,0.7V64.9z"/>
						<path class="st7" d="M114.9,65.2c0,0.4-0.3,0.5-0.7,0.5h-1.3c-0.4,0-0.5-0.3-0.5-0.7v-1.3c0-0.4,0.3-0.5,0.7-0.5h1.3
							c0.4,0,0.5,0.3,0.5,0.7V65.2z"/>
						<path class="st7" d="M118,65.4c0,0.4-0.3,0.5-0.7,0.5h-1.2c-0.4,0-0.5-0.3-0.5-0.7v-1.3c0-0.4,0.3-0.5,0.7-0.5h1.3
							c0.4,0,0.5,0.3,0.5,0.7L118,65.4z"/>
					</g>
					<g id="line3_4_">
						<path class="st7" d="M119.2,68.7c0,0.4-0.3,0.5-0.7,0.5l-5-0.3c-0.4,0-0.5-0.3-0.5-0.7V67c0-0.4,0.3-0.5,0.7-0.5l4.9,0.4
							c0.4,0,0.5,0.3,0.5,0.7L119.2,68.7z"/>
						<path class="st7" d="M87.2,66.3c0,0.4-0.3,0.5-0.7,0.5h-1.3c-0.4,0-0.5-0.3-0.5-0.7v-1.3c0-0.4,0.3-0.5,0.7-0.5h1.3
							c0.4,0,0.5,0.3,0.5,0.7V66.3z"/>
						<path class="st7" d="M90.3,66.5c0,0.4-0.3,0.5-0.7,0.5h-1.3c-0.4,0-0.5-0.3-0.5-0.7V65c0-0.4,0.3-0.5,0.7-0.5h1.3
							c0.4,0,0.5,0.3,0.5,0.7V66.5z"/>
						<path class="st7" d="M93.4,66.7c0,0.4-0.3,0.5-0.7,0.5h-1.3c-0.4,0-0.5-0.3-0.5-0.7v-1.3c0-0.4,0.3-0.5,0.7-0.5h1.3
							c0.4,0,0.5,0.3,0.5,0.7V66.7z"/>
						<path class="st7" d="M96.5,67c0,0.4-0.3,0.5-0.7,0.5h-1.3c-0.4,0-0.5-0.3-0.5-0.7v-1.3c0-0.4,0.3-0.5,0.7-0.5H96
							c0.4,0,0.5,0.3,0.5,0.7V67z"/>
						<path class="st7" d="M99.6,67.2c0,0.4-0.3,0.5-0.7,0.5h-1.3c-0.4,0-0.5-0.3-0.5-0.7v-1.3c0-0.4,0.3-0.5,0.7-0.5h1.3
							c0.4,0,0.5,0.3,0.5,0.7V67.2z"/>
						<path class="st7" d="M103,67.4c0,0.4-0.3,0.5-0.7,0.5H101c-0.4,0-0.5-0.3-0.5-0.7v-1.3c0-0.4,0.3-0.5,0.7-0.5h1.3
							c0.4,0,0.5,0.3,0.5,0.7V67.4z"/>
						<path class="st7" d="M106.1,67.8c0,0.4-0.3,0.5-0.7,0.5h-1.3c-0.4,0-0.5-0.3-0.5-0.7v-1.3c0-0.4,0.3-0.5,0.7-0.5h1.3
							c0.4,0,0.5,0.3,0.5,0.7V67.8z"/>
						<path class="st7" d="M109.3,68c0,0.4-0.3,0.5-0.7,0.5h-1.3c-0.4,0-0.5-0.3-0.5-0.7v-1.3c0-0.4,0.3-0.5,0.7-0.5h1.3
							c0.4,0,0.5,0.3,0.5,0.7V68z"/>
						<path class="st7" d="M112.5,68.2c0,0.4-0.3,0.5-0.7,0.5h-1.3c-0.4,0-0.5-0.3-0.5-0.7v-1.3c0-0.4,0.3-0.5,0.7-0.5h1.3
							c0.4,0,0.5,0.3,0.5,0.7V68.2z"/>
						<path class="st7" d="M84,66c0,0.4-0.3,0.5-0.7,0.5l-4.9-0.4c-0.4,0-0.5-0.3-0.5-0.7l0.1-1.2c0-0.4,0.3-0.5,0.7-0.5l4.9,0.4
							c0.4,0,0.5,0.3,0.5,0.7L84,66z"/>
					</g>
					<g id="line4_3_">
						<path class="st7" d="M82.8,69.2c0,0.4-0.3,0.5-0.7,0.5l-1.3-0.1c-0.4,0-0.5-0.3-0.5-0.7v-1.3c0-0.4,0.3-0.5,0.7-0.5h1.3
							c0.4,0,0.5,0.3,0.5,0.7V69.2z"/>
						<path class="st7" d="M86,69.4c0,0.4-0.3,0.5-0.7,0.5H84c-0.4,0-0.5-0.3-0.5-0.7v-1.3c0-0.4,0.3-0.5,0.7-0.5h1.3
							c0.4,0,0.5,0.3,0.5,0.7V69.4z"/>
						<path class="st7" d="M89,69.7c0,0.4-0.3,0.5-0.7,0.5H87c-0.4,0-0.5-0.3-0.5-0.7v-1.3c0-0.4,0.3-0.5,0.7-0.5h1.3
							c0.4,0,0.5,0.3,0.5,0.7V69.7z"/>
						<path class="st7" d="M110.9,71.3c0,0.4-0.3,0.5-0.7,0.5H109c-0.4,0-0.5-0.3-0.5-0.7v-1.3c0-0.4,0.3-0.5,0.7-0.5h1.3
							c0.4,0,0.5,0.3,0.5,0.7L110.9,71.3z"/>
						<path class="st7" d="M114.2,71.6c0,0.4-0.3,0.5-0.7,0.5h-1.3c-0.4,0-0.5-0.3-0.5-0.7v-1.3c0-0.4,0.3-0.5,0.7-0.5h1.3
							c0.4,0,0.5,0.3,0.5,0.7V71.6z"/>
						<path class="st7" d="M117.4,71.9c0,0.4-0.3,0.5-0.7,0.5h-1.3c-0.4,0-0.5-0.3-0.5-0.7v-1.3c0-0.4,0.3-0.5,0.7-0.5h1.3
							c0.4,0,0.5,0.3,0.5,0.7V71.9z"/>
						<path class="st7" d="M107.6,71c0,0.4-0.3,0.7-0.7,0.7L90,70.3c-0.4,0-0.5-0.5-0.5-0.8v-1c0-0.4,0.2-0.7,0.6-0.6l16.9,1.2
							c0.4,0,0.6,0.4,0.6,0.7V71L107.6,71z"/>
					</g>
				</g>
			</g>
		</g>
	</g>
</g>
</svg>
