<?xml version="1.0" encoding="UTF-8" standalone="no" ?><!DOCTYPE svg PUBLIC "-//W3C//DTD SVG 1.1//EN" "http://www.w3.org/Graphics/SVG/1.1/DTD/svg11.dtd">
<svg xmlns="http://www.w3.org/2000/svg" xmlns:xlink="http://www.w3.org/1999/xlink" version="1.1" width="975" height="1341" style="background-color: #fff" xml:space="preserve"><desc>Created with Fabric.js 1.6.0-rc.1</desc><defs></defs><rect x="-486" y="-669" rx="0" ry="0" width="972" height="1338" style="stroke: #333; stroke-width: 1; stroke-dasharray: none; stroke-linecap: butt; stroke-linejoin: miter; stroke-miterlimit: 10; fill: transparent; fill-rule: nonzero; opacity: 1;" transform="translate(486.5 669.5)"/>
<line x1="-100" y1="0" x2="100" y2="0" style="stroke: #333; stroke-width: 5; stroke-dasharray: none; stroke-linecap: butt; stroke-linejoin: miter; stroke-miterlimit: 10; fill: #333; fill-rule: nonzero; opacity: 1;" transform="translate(840 1080)"/>
<circle cx="0" cy="0" r="12" style="stroke: #666; stroke-width: 5; stroke-dasharray: none; stroke-linecap: butt; stroke-linejoin: miter; stroke-miterlimit: 10; fill: #fff; fill-rule: nonzero; opacity: 0;" transform="translate(740 1080) "/>
<circle cx="0" cy="0" r="12" style="stroke: #666; stroke-width: 5; stroke-dasharray: none; stroke-linecap: butt; stroke-linejoin: miter; stroke-miterlimit: 10; fill: #fff; fill-rule: nonzero; opacity: 0;" transform="translate(940 1080) "/>
<line x1="0" y1="-20" x2="0" y2="20" style="stroke: #333; stroke-width: 5; stroke-dasharray: none; stroke-linecap: butt; stroke-linejoin: miter; stroke-miterlimit: 10; fill: #333; fill-rule: nonzero; opacity: 1;" transform="translate(640 640)"/>
<circle cx="0" cy="0" r="12" style="stroke: #666; stroke-width: 5; stroke-dasharray: none; stroke-linecap: butt; stroke-linejoin: miter; stroke-miterlimit: 10; fill: #fff; fill-rule: nonzero; opacity: 0;" transform="translate(640 620) "/>
<circle cx="0" cy="0" r="12" style="stroke: #666; stroke-width: 5; stroke-dasharray: none; stroke-linecap: butt; stroke-linejoin: miter; stroke-miterlimit: 10; fill: #fff; fill-rule: nonzero; opacity: 0;" transform="translate(640 660) "/>
<line x1="-70" y1="0" x2="70" y2="0" style="stroke: #333; stroke-width: 5; stroke-dasharray: none; stroke-linecap: butt; stroke-linejoin: miter; stroke-miterlimit: 10; fill: #333; fill-rule: nonzero; opacity: 1;" transform="translate(590 1080)"/>
<circle cx="0" cy="0" r="12" style="stroke: #666; stroke-width: 5; stroke-dasharray: none; stroke-linecap: butt; stroke-linejoin: miter; stroke-miterlimit: 10; fill: #fff; fill-rule: nonzero; opacity: 0;" transform="translate(520 1080) "/>
<circle cx="0" cy="0" r="12" style="stroke: #666; stroke-width: 5; stroke-dasharray: none; stroke-linecap: butt; stroke-linejoin: miter; stroke-miterlimit: 10; fill: #fff; fill-rule: nonzero; opacity: 0;" transform="translate(660 1080) "/>
<g style="stroke: none; stroke-width: 1; stroke-dasharray: none; stroke-linecap: butt; stroke-linejoin: miter; stroke-miterlimit: 10; fill: none; fill-rule: nonzero; opacity: 1;" transform="translate(940 1082) rotate(89.73)" >
<rect x="0" y="0" rx="0" ry="0" width="150" height="40" style="stroke: none; stroke-width: 1; stroke-dasharray: none; stroke-linecap: butt; stroke-linejoin: miter; stroke-miterlimit: 10; fill: #B2B0A1; fill-rule: nonzero; opacity: 1;" transform=""/>
<rect x="0" y="40" rx="0" ry="0" width="150" height="40" style="stroke: none; stroke-width: 1; stroke-dasharray: none; stroke-linecap: butt; stroke-linejoin: miter; stroke-miterlimit: 10; fill: #C2C0B4; fill-rule: nonzero; opacity: 1;" transform=""/>
<rect x="0" y="80" rx="0" ry="0" width="150" height="40" style="stroke: none; stroke-width: 1; stroke-dasharray: none; stroke-linecap: butt; stroke-linejoin: miter; stroke-miterlimit: 10; fill: #D1D0C6; fill-rule: nonzero; opacity: 1;" transform=""/>
<rect x="0" y="120" rx="0" ry="0" width="150" height="40" style="stroke: none; stroke-width: 1; stroke-dasharray: none; stroke-linecap: butt; stroke-linejoin: miter; stroke-miterlimit: 10; fill: #E0DFD9; fill-rule: nonzero; opacity: 1;" transform=""/>
<rect x="0" y="160" rx="0" ry="0" width="150" height="40" style="stroke: none; stroke-width: 1; stroke-dasharray: none; stroke-linecap: butt; stroke-linejoin: miter; stroke-miterlimit: 10; fill: #F0EFEC; fill-rule: nonzero; opacity: 1;" transform=""/>
</g>
<g style="stroke: none; stroke-width: 1; stroke-dasharray: none; stroke-linecap: butt; stroke-linejoin: miter; stroke-miterlimit: 10; fill: none; fill-rule: nonzero; opacity: 1;" transform="translate(680 1076) scale(0.76 0.76)" >
<rect x="0" y="0" rx="28.35" ry="28.35" width="56.69" height="133.8" style="stroke: none; stroke-width: 1; stroke-dasharray: none; stroke-linecap: butt; stroke-linejoin: miter; stroke-miterlimit: 10; fill: #959593; fill-rule: nonzero; opacity: 1;" transform=""/>
<rect x="2.83" y="2.34" rx="25.51" ry="25.51" width="51.02" height="129.13" style="stroke: none; stroke-width: 1; stroke-dasharray: none; stroke-linecap: butt; stroke-linejoin: miter; stroke-miterlimit: 10; fill: #e5dcd1; fill-rule: nonzero; opacity: 1;" transform=""/>
<rect x="13.99" y="86.47" rx="14.17" ry="14.17" width="28.35" height="28.35" style="stroke: none; stroke-width: 1; stroke-dasharray: none; stroke-linecap: butt; stroke-linejoin: miter; stroke-miterlimit: 10; fill: #959593; fill-rule: nonzero; opacity: 1;" transform=""/>
<path d="M 23.9 92.36 H 23.78 a 0.31 0.31 0 0 0 -0.26 0.24 l -2.27 9.51 a 0.31 0.31 0 1 0 0.61 0.15 L 24 93.48 l 8.59 14 a 0.31 0.31 0 1 0 0.53 -0.33 l -8.59 -14 l 8.85 2.11 a 0.31 0.31 0 0 0 0.15 -0.61 Z" style="stroke: none; stroke-width: 1; stroke-dasharray: none; stroke-linecap: butt; stroke-linejoin: miter; stroke-miterlimit: 10; fill: #51bbab; fill-rule: nonzero; opacity: 1;" transform=" matrix(1 0 0 1 0 0) " stroke-linecap="round" />
</g>
<g style="stroke: none; stroke-width: 1; stroke-dasharray: none; stroke-linecap: butt; stroke-linejoin: miter; stroke-miterlimit: 10; fill: none; fill-rule: nonzero; opacity: 1;" transform="translate(636 694) scale(0.04 0.04)" >
<path d="M 580.49 3385.29 v 127 h -63.7 V 3194.63 H 636.55 q 54.32 0 85 24.76 t 30.65 69 q 0 24.65 -12.87 42.32 t -37.74 28.58 Q 729.7 3367.63 742 3387 t 12.33 48 v 23.34 a 115.41 115.41 0 0 0 3.6 27.81 q 3.6 14.51 12.33 21.49 v 4.58 H 704.61 q -8.73 -7 -11.34 -23.34 a 196.42 196.42 0 0 1 -2.62 -31 v -22.47 q 0 -23.77 -13 -37 t -36.54 -13.2 H 580.49 Z m 0 -49.08 h 55 q 26.83 0 40 -11.34 t 13.2 -33.59 q 0 -21.81 -13.2 -34.69 t -38.94 -12.87 H 580.49 v 92.5 Z" style="stroke: none; stroke-width: 1; stroke-dasharray: none; stroke-linecap: butt; stroke-linejoin: miter; stroke-miterlimit: 10; fill: #231815; fill-rule: nonzero; opacity: 1;" transform=" matrix(1 0 0 1 -516.79 -3194.63) " stroke-linecap="round" />
</g>
<g style="stroke: none; stroke-width: 1; stroke-dasharray: none; stroke-linecap: butt; stroke-linejoin: miter; stroke-miterlimit: 10; fill: none; fill-rule: nonzero; opacity: 1;" transform="translate(636 580) scale(0.04 0.04)" >
<path d="M 2046.15 4294.8 h 155.32 v 49.08 H 1969.14 v -33.31 l 151 -235.24 H 1969.36 v -49.08 h 228.4 v 31.85 Z" style="stroke: none; stroke-width: 1; stroke-dasharray: none; stroke-linecap: butt; stroke-linejoin: miter; stroke-miterlimit: 10; fill: #231815; fill-rule: nonzero; opacity: 1;" transform=" matrix(1 0 0 1 -1969.14 -4026.25) " stroke-linecap="round" />
</g>
<g style="stroke: none; stroke-width: 1; stroke-dasharray: none; stroke-linecap: butt; stroke-linejoin: miter; stroke-miterlimit: 10; fill: none; fill-rule: nonzero; opacity: 1;" transform="translate(936 266) scale(0.05 0.05)" >
<path d="M 242.39 233.1 H 130.91 l -21.6 68.5 H 45 L 154.25 -16 h 65.23 L 328.34 301.6 H 264 Z m -95.77 -50 h 80.06 L 187.41 58.36 H 186.1 Z" style="stroke: none; stroke-width: 1; stroke-dasharray: none; stroke-linecap: butt; stroke-linejoin: miter; stroke-miterlimit: 10; fill: #231815; fill-rule: nonzero; opacity: 1;" transform=" matrix(1 0 0 1 -44.96 16.02) " stroke-linecap="round" />
</g>
<g style="stroke: none; stroke-width: 1; stroke-dasharray: none; stroke-linecap: butt; stroke-linejoin: miter; stroke-miterlimit: 10; fill: none; fill-rule: nonzero; opacity: 1;" transform="translate(664.35 1015.5)" >
<path d="M 249 26.5 c 0 0.3 -0.7 0.5 -1.5 0.5 H 2.5 C 1.7 27 1 26.8 1 26.5 v -25 C 1 1.2 1.7 1 2.5 1 h 245 c 0.8 0 1.5 0.2 1.5 0.5 V 26.5 L 249 26.5 z" style="stroke: #4D4D4D; stroke-width: 2; stroke-dasharray: none; stroke-linecap: butt; stroke-linejoin: miter; stroke-miterlimit: 10; fill: #AFAE9F; fill-rule: nonzero; opacity: 1;" transform="" stroke-linecap="round" />
</g>
<g style="stroke: none; stroke-width: 1; stroke-dasharray: none; stroke-linecap: butt; stroke-linejoin: miter; stroke-miterlimit: 10; fill: none; fill-rule: nonzero; opacity: 1;" transform="translate(934 724) scale(0.06 0.06)" >
<path d="M 580.49 3385.29 v 127 h -63.7 V 3194.63 H 636.55 q 54.32 0 85 24.76 t 30.65 69 q 0 24.65 -12.87 42.32 t -37.74 28.58 Q 729.7 3367.63 742 3387 t 12.33 48 v 23.34 a 115.41 115.41 0 0 0 3.6 27.81 q 3.6 14.51 12.33 21.49 v 4.58 H 704.61 q -8.73 -7 -11.34 -23.34 a 196.42 196.42 0 0 1 -2.62 -31 v -22.47 q 0 -23.77 -13 -37 t -36.54 -13.2 H 580.49 Z m 0 -49.08 h 55 q 26.83 0 40 -11.34 t 13.2 -33.59 q 0 -21.81 -13.2 -34.69 t -38.94 -12.87 H 580.49 v 92.5 Z" style="stroke: none; stroke-width: 1; stroke-dasharray: none; stroke-linecap: butt; stroke-linejoin: miter; stroke-miterlimit: 10; fill: #231815; fill-rule: nonzero; opacity: 1;" transform=" matrix(1 0 0 1 -516.79 -3194.63) " stroke-linecap="round" />
</g>
<g style="stroke: none; stroke-width: 1; stroke-dasharray: none; stroke-linecap: butt; stroke-linejoin: miter; stroke-miterlimit: 10; fill: none; fill-rule: nonzero; opacity: 1;" transform="translate(664.35 955.5)" >
<path d="M 249 26.5 c 0 0.3 -0.7 0.5 -1.5 0.5 H 2.5 C 1.7 27 1 26.8 1 26.5 v -25 C 1 1.2 1.7 1 2.5 1 h 245 c 0.8 0 1.5 0.2 1.5 0.5 V 26.5 L 249 26.5 z" style="stroke: #4D4D4D; stroke-width: 2; stroke-dasharray: none; stroke-linecap: butt; stroke-linejoin: miter; stroke-miterlimit: 10; fill: #AFAE9F; fill-rule: nonzero; opacity: 1;" transform="" stroke-linecap="round" />
</g>
<g style="stroke: none; stroke-width: 1; stroke-dasharray: none; stroke-linecap: butt; stroke-linejoin: miter; stroke-miterlimit: 10; fill: none; fill-rule: nonzero; opacity: 1;" transform="translate(664.35 929.5)" >
<path d="M 249 26.5 c 0 0.3 -0.7 0.5 -1.5 0.5 H 2.5 C 1.7 27 1 26.8 1 26.5 v -25 C 1 1.2 1.7 1 2.5 1 h 245 c 0.8 0 1.5 0.2 1.5 0.5 V 26.5 L 249 26.5 z" style="stroke: #4D4D4D; stroke-width: 2; stroke-dasharray: none; stroke-linecap: butt; stroke-linejoin: miter; stroke-miterlimit: 10; fill: #AFAE9F; fill-rule: nonzero; opacity: 1;" transform="" stroke-linecap="round" />
</g>
<g style="stroke: none; stroke-width: 1; stroke-dasharray: none; stroke-linecap: butt; stroke-linejoin: miter; stroke-miterlimit: 10; fill: none; fill-rule: nonzero; opacity: 1;" transform="translate(666.35 855.5)" >
<path d="M 249 26.5 c 0 0.3 -0.7 0.5 -1.5 0.5 H 2.5 C 1.7 27 1 26.8 1 26.5 v -25 C 1 1.2 1.7 1 2.5 1 h 245 c 0.8 0 1.5 0.2 1.5 0.5 V 26.5 L 249 26.5 z" style="stroke: #4D4D4D; stroke-width: 2; stroke-dasharray: none; stroke-linecap: butt; stroke-linejoin: miter; stroke-miterlimit: 10; fill: #AFAE9F; fill-rule: nonzero; opacity: 1;" transform="" stroke-linecap="round" />
</g>
<g style="stroke: none; stroke-width: 1; stroke-dasharray: none; stroke-linecap: butt; stroke-linejoin: miter; stroke-miterlimit: 10; fill: none; fill-rule: nonzero; opacity: 1;" transform="translate(666.35 881.5)" >
<path d="M 249 26.5 c 0 0.3 -0.7 0.5 -1.5 0.5 H 2.5 C 1.7 27 1 26.8 1 26.5 v -25 C 1 1.2 1.7 1 2.5 1 h 245 c 0.8 0 1.5 0.2 1.5 0.5 V 26.5 L 249 26.5 z" style="stroke: #4D4D4D; stroke-width: 2; stroke-dasharray: none; stroke-linecap: butt; stroke-linejoin: miter; stroke-miterlimit: 10; fill: #AFAE9F; fill-rule: nonzero; opacity: 1;" transform="" stroke-linecap="round" />
</g>
<g style="stroke: none; stroke-width: 1; stroke-dasharray: none; stroke-linecap: butt; stroke-linejoin: miter; stroke-miterlimit: 10; fill: none; fill-rule: nonzero; opacity: 1;" transform="translate(666.35 785.5)" >
<path d="M 249 26.5 c 0 0.3 -0.7 0.5 -1.5 0.5 H 2.5 C 1.7 27 1 26.8 1 26.5 v -25 C 1 1.2 1.7 1 2.5 1 h 245 c 0.8 0 1.5 0.2 1.5 0.5 V 26.5 L 249 26.5 z" style="stroke: #4D4D4D; stroke-width: 2; stroke-dasharray: none; stroke-linecap: butt; stroke-linejoin: miter; stroke-miterlimit: 10; fill: #AFAE9F; fill-rule: nonzero; opacity: 1;" transform="" stroke-linecap="round" />
</g>
<g style="stroke: none; stroke-width: 1; stroke-dasharray: none; stroke-linecap: butt; stroke-linejoin: miter; stroke-miterlimit: 10; fill: none; fill-rule: nonzero; opacity: 1;" transform="translate(666.35 811.5)" >
<path d="M 249 26.5 c 0 0.3 -0.7 0.5 -1.5 0.5 H 2.5 C 1.7 27 1 26.8 1 26.5 v -25 C 1 1.2 1.7 1 2.5 1 h 245 c 0.8 0 1.5 0.2 1.5 0.5 V 26.5 L 249 26.5 z" style="stroke: #4D4D4D; stroke-width: 2; stroke-dasharray: none; stroke-linecap: butt; stroke-linejoin: miter; stroke-miterlimit: 10; fill: #AFAE9F; fill-rule: nonzero; opacity: 1;" transform="" stroke-linecap="round" />
</g>
<g style="stroke: none; stroke-width: 1; stroke-dasharray: none; stroke-linecap: butt; stroke-linejoin: miter; stroke-miterlimit: 10; fill: none; fill-rule: nonzero; opacity: 1;" transform="translate(668 724)" >
<path d="M 249 26.5 c 0 0.3 -0.7 0.5 -1.5 0.5 H 2.5 C 1.7 27 1 26.8 1 26.5 v -25 C 1 1.2 1.7 1 2.5 1 h 245 c 0.8 0 1.5 0.2 1.5 0.5 V 26.5 L 249 26.5 z" style="stroke: #4D4D4D; stroke-width: 2; stroke-dasharray: none; stroke-linecap: butt; stroke-linejoin: miter; stroke-miterlimit: 10; fill: #AFAE9F; fill-rule: nonzero; opacity: 1;" transform="" stroke-linecap="round" />
</g>
<g style="stroke: none; stroke-width: 1; stroke-dasharray: none; stroke-linecap: butt; stroke-linejoin: miter; stroke-miterlimit: 10; fill: none; fill-rule: nonzero; opacity: 1;" transform="translate(668 698)" >
<path d="M 249 26.5 c 0 0.3 -0.7 0.5 -1.5 0.5 H 2.5 C 1.7 27 1 26.8 1 26.5 v -25 C 1 1.2 1.7 1 2.5 1 h 245 c 0.8 0 1.5 0.2 1.5 0.5 V 26.5 L 249 26.5 z" style="stroke: #4D4D4D; stroke-width: 2; stroke-dasharray: none; stroke-linecap: butt; stroke-linejoin: miter; stroke-miterlimit: 10; fill: #AFAE9F; fill-rule: nonzero; opacity: 1;" transform="" stroke-linecap="round" />
</g>
<g style="stroke: none; stroke-width: 1; stroke-dasharray: none; stroke-linecap: butt; stroke-linejoin: miter; stroke-miterlimit: 10; fill: none; fill-rule: nonzero; opacity: 1;" transform="translate(671.6500000000001 342)" >
<path d="M 249 26.5 c 0 0.3 -0.7 0.5 -1.5 0.5 H 2.5 C 1.7 27 1 26.8 1 26.5 v -25 C 1 1.2 1.7 1 2.5 1 h 245 c 0.8 0 1.5 0.2 1.5 0.5 V 26.5 L 249 26.5 z" style="stroke: #4D4D4D; stroke-width: 2; stroke-dasharray: none; stroke-linecap: butt; stroke-linejoin: miter; stroke-miterlimit: 10; fill: #AFAE9F; fill-rule: nonzero; opacity: 1;" transform="" stroke-linecap="round" />
</g>
<g style="stroke: none; stroke-width: 1; stroke-dasharray: none; stroke-linecap: butt; stroke-linejoin: miter; stroke-miterlimit: 10; fill: none; fill-rule: nonzero; opacity: 1;" transform="translate(671.6500000000001 368)" >
<path d="M 249 26.5 c 0 0.3 -0.7 0.5 -1.5 0.5 H 2.5 C 1.7 27 1 26.8 1 26.5 v -25 C 1 1.2 1.7 1 2.5 1 h 245 c 0.8 0 1.5 0.2 1.5 0.5 V 26.5 L 249 26.5 z" style="stroke: #4D4D4D; stroke-width: 2; stroke-dasharray: none; stroke-linecap: butt; stroke-linejoin: miter; stroke-miterlimit: 10; fill: #AFAE9F; fill-rule: nonzero; opacity: 1;" transform="" stroke-linecap="round" />
</g>
<g style="stroke: none; stroke-width: 1; stroke-dasharray: none; stroke-linecap: butt; stroke-linejoin: miter; stroke-miterlimit: 10; fill: none; fill-rule: nonzero; opacity: 1;" transform="translate(670 459.5)" >
<path d="M 249 26.5 c 0 0.3 -0.7 0.5 -1.5 0.5 H 2.5 C 1.7 27 1 26.8 1 26.5 v -25 C 1 1.2 1.7 1 2.5 1 h 245 c 0.8 0 1.5 0.2 1.5 0.5 V 26.5 L 249 26.5 z" style="stroke: #4D4D4D; stroke-width: 2; stroke-dasharray: none; stroke-linecap: butt; stroke-linejoin: miter; stroke-miterlimit: 10; fill: #AFAE9F; fill-rule: nonzero; opacity: 1;" transform="" stroke-linecap="round" />
</g>
<g style="stroke: none; stroke-width: 1; stroke-dasharray: none; stroke-linecap: butt; stroke-linejoin: miter; stroke-miterlimit: 10; fill: none; fill-rule: nonzero; opacity: 1;" transform="translate(670 433.5)" >
<path d="M 249 26.5 c 0 0.3 -0.7 0.5 -1.5 0.5 H 2.5 C 1.7 27 1 26.8 1 26.5 v -25 C 1 1.2 1.7 1 2.5 1 h 245 c 0.8 0 1.5 0.2 1.5 0.5 V 26.5 L 249 26.5 z" style="stroke: #4D4D4D; stroke-width: 2; stroke-dasharray: none; stroke-linecap: butt; stroke-linejoin: miter; stroke-miterlimit: 10; fill: #AFAE9F; fill-rule: nonzero; opacity: 1;" transform="" stroke-linecap="round" />
</g>
<g style="stroke: none; stroke-width: 1; stroke-dasharray: none; stroke-linecap: butt; stroke-linejoin: miter; stroke-miterlimit: 10; fill: none; fill-rule: nonzero; opacity: 1;" transform="translate(670 547.5)" >
<path d="M 249 26.5 c 0 0.3 -0.7 0.5 -1.5 0.5 H 2.5 C 1.7 27 1 26.8 1 26.5 v -25 C 1 1.2 1.7 1 2.5 1 h 245 c 0.8 0 1.5 0.2 1.5 0.5 V 26.5 L 249 26.5 z" style="stroke: #4D4D4D; stroke-width: 2; stroke-dasharray: none; stroke-linecap: butt; stroke-linejoin: miter; stroke-miterlimit: 10; fill: #AFAE9F; fill-rule: nonzero; opacity: 1;" transform="" stroke-linecap="round" />
</g>
<g style="stroke: none; stroke-width: 1; stroke-dasharray: none; stroke-linecap: butt; stroke-linejoin: miter; stroke-miterlimit: 10; fill: none; fill-rule: nonzero; opacity: 1;" transform="translate(670 521.5)" >
<path d="M 249 26.5 c 0 0.3 -0.7 0.5 -1.5 0.5 H 2.5 C 1.7 27 1 26.8 1 26.5 v -25 C 1 1.2 1.7 1 2.5 1 h 245 c 0.8 0 1.5 0.2 1.5 0.5 V 26.5 L 249 26.5 z" style="stroke: #4D4D4D; stroke-width: 2; stroke-dasharray: none; stroke-linecap: butt; stroke-linejoin: miter; stroke-miterlimit: 10; fill: #AFAE9F; fill-rule: nonzero; opacity: 1;" transform="" stroke-linecap="round" />
</g>
<g style="stroke: none; stroke-width: 1; stroke-dasharray: none; stroke-linecap: butt; stroke-linejoin: miter; stroke-miterlimit: 10; fill: none; fill-rule: nonzero; opacity: 1;" transform="translate(668 603.5)" >
<path d="M 249 26.5 c 0 0.3 -0.7 0.5 -1.5 0.5 H 2.5 C 1.7 27 1 26.8 1 26.5 v -25 C 1 1.2 1.7 1 2.5 1 h 245 c 0.8 0 1.5 0.2 1.5 0.5 V 26.5 L 249 26.5 z" style="stroke: #4D4D4D; stroke-width: 2; stroke-dasharray: none; stroke-linecap: butt; stroke-linejoin: miter; stroke-miterlimit: 10; fill: #AFAE9F; fill-rule: nonzero; opacity: 1;" transform="" stroke-linecap="round" />
</g>
<g style="stroke: none; stroke-width: 1; stroke-dasharray: none; stroke-linecap: butt; stroke-linejoin: miter; stroke-miterlimit: 10; fill: none; fill-rule: nonzero; opacity: 1;" transform="translate(668 629.5)" >
<path d="M 249 26.5 c 0 0.3 -0.7 0.5 -1.5 0.5 H 2.5 C 1.7 27 1 26.8 1 26.5 v -25 C 1 1.2 1.7 1 2.5 1 h 245 c 0.8 0 1.5 0.2 1.5 0.5 V 26.5 L 249 26.5 z" style="stroke: #4D4D4D; stroke-width: 2; stroke-dasharray: none; stroke-linecap: butt; stroke-linejoin: miter; stroke-miterlimit: 10; fill: #AFAE9F; fill-rule: nonzero; opacity: 1;" transform="" stroke-linecap="round" />
</g>
<g style="stroke: none; stroke-width: 1; stroke-dasharray: none; stroke-linecap: butt; stroke-linejoin: miter; stroke-miterlimit: 10; fill: none; fill-rule: nonzero; opacity: 1;" transform="translate(670.35 263.5)" >
<path d="M 249 26.5 c 0 0.3 -0.7 0.5 -1.5 0.5 H 2.5 C 1.7 27 1 26.8 1 26.5 v -25 C 1 1.2 1.7 1 2.5 1 h 245 c 0.8 0 1.5 0.2 1.5 0.5 V 26.5 L 249 26.5 z" style="stroke: #4D4D4D; stroke-width: 2; stroke-dasharray: none; stroke-linecap: butt; stroke-linejoin: miter; stroke-miterlimit: 10; fill: #AFAE9F; fill-rule: nonzero; opacity: 1;" transform="" stroke-linecap="round" />
</g>
<g style="stroke: none; stroke-width: 1; stroke-dasharray: none; stroke-linecap: butt; stroke-linejoin: miter; stroke-miterlimit: 10; fill: none; fill-rule: nonzero; opacity: 1;" transform="translate(362.34999999999997 264)" >
<path d="M 249 26.5 c 0 0.3 -0.7 0.5 -1.5 0.5 H 2.5 C 1.7 27 1 26.8 1 26.5 v -25 C 1 1.2 1.7 1 2.5 1 h 245 c 0.8 0 1.5 0.2 1.5 0.5 V 26.5 L 249 26.5 z" style="stroke: #4D4D4D; stroke-width: 2; stroke-dasharray: none; stroke-linecap: butt; stroke-linejoin: miter; stroke-miterlimit: 10; fill: #AFAE9F; fill-rule: nonzero; opacity: 1;" transform="" stroke-linecap="round" />
</g>
<g style="stroke: none; stroke-width: 1; stroke-dasharray: none; stroke-linecap: butt; stroke-linejoin: miter; stroke-miterlimit: 10; fill: none; fill-rule: nonzero; opacity: 1;" transform="translate(360 630)" >
<path d="M 249 26.5 c 0 0.3 -0.7 0.5 -1.5 0.5 H 2.5 C 1.7 27 1 26.8 1 26.5 v -25 C 1 1.2 1.7 1 2.5 1 h 245 c 0.8 0 1.5 0.2 1.5 0.5 V 26.5 L 249 26.5 z" style="stroke: #4D4D4D; stroke-width: 2; stroke-dasharray: none; stroke-linecap: butt; stroke-linejoin: miter; stroke-miterlimit: 10; fill: #AFAE9F; fill-rule: nonzero; opacity: 1;" transform="" stroke-linecap="round" />
</g>
<g style="stroke: none; stroke-width: 1; stroke-dasharray: none; stroke-linecap: butt; stroke-linejoin: miter; stroke-miterlimit: 10; fill: none; fill-rule: nonzero; opacity: 1;" transform="translate(360 604)" >
<path d="M 249 26.5 c 0 0.3 -0.7 0.5 -1.5 0.5 H 2.5 C 1.7 27 1 26.8 1 26.5 v -25 C 1 1.2 1.7 1 2.5 1 h 245 c 0.8 0 1.5 0.2 1.5 0.5 V 26.5 L 249 26.5 z" style="stroke: #4D4D4D; stroke-width: 2; stroke-dasharray: none; stroke-linecap: butt; stroke-linejoin: miter; stroke-miterlimit: 10; fill: #AFAE9F; fill-rule: nonzero; opacity: 1;" transform="" stroke-linecap="round" />
</g>
<g style="stroke: none; stroke-width: 1; stroke-dasharray: none; stroke-linecap: butt; stroke-linejoin: miter; stroke-miterlimit: 10; fill: none; fill-rule: nonzero; opacity: 1;" transform="translate(362 520)" >
<path d="M 249 26.5 c 0 0.3 -0.7 0.5 -1.5 0.5 H 2.5 C 1.7 27 1 26.8 1 26.5 v -25 C 1 1.2 1.7 1 2.5 1 h 245 c 0.8 0 1.5 0.2 1.5 0.5 V 26.5 L 249 26.5 z" style="stroke: #4D4D4D; stroke-width: 2; stroke-dasharray: none; stroke-linecap: butt; stroke-linejoin: miter; stroke-miterlimit: 10; fill: #AFAE9F; fill-rule: nonzero; opacity: 1;" transform="" stroke-linecap="round" />
</g>
<g style="stroke: none; stroke-width: 1; stroke-dasharray: none; stroke-linecap: butt; stroke-linejoin: miter; stroke-miterlimit: 10; fill: none; fill-rule: nonzero; opacity: 1;" transform="translate(362 546)" >
<path d="M 249 26.5 c 0 0.3 -0.7 0.5 -1.5 0.5 H 2.5 C 1.7 27 1 26.8 1 26.5 v -25 C 1 1.2 1.7 1 2.5 1 h 245 c 0.8 0 1.5 0.2 1.5 0.5 V 26.5 L 249 26.5 z" style="stroke: #4D4D4D; stroke-width: 2; stroke-dasharray: none; stroke-linecap: butt; stroke-linejoin: miter; stroke-miterlimit: 10; fill: #AFAE9F; fill-rule: nonzero; opacity: 1;" transform="" stroke-linecap="round" />
</g>
<g style="stroke: none; stroke-width: 1; stroke-dasharray: none; stroke-linecap: butt; stroke-linejoin: miter; stroke-miterlimit: 10; fill: none; fill-rule: nonzero; opacity: 1;" transform="translate(362 434)" >
<path d="M 249 26.5 c 0 0.3 -0.7 0.5 -1.5 0.5 H 2.5 C 1.7 27 1 26.8 1 26.5 v -25 C 1 1.2 1.7 1 2.5 1 h 245 c 0.8 0 1.5 0.2 1.5 0.5 V 26.5 L 249 26.5 z" style="stroke: #4D4D4D; stroke-width: 2; stroke-dasharray: none; stroke-linecap: butt; stroke-linejoin: miter; stroke-miterlimit: 10; fill: #AFAE9F; fill-rule: nonzero; opacity: 1;" transform="" stroke-linecap="round" />
</g>
<g style="stroke: none; stroke-width: 1; stroke-dasharray: none; stroke-linecap: butt; stroke-linejoin: miter; stroke-miterlimit: 10; fill: none; fill-rule: nonzero; opacity: 1;" transform="translate(362 460)" >
<path d="M 249 26.5 c 0 0.3 -0.7 0.5 -1.5 0.5 H 2.5 C 1.7 27 1 26.8 1 26.5 v -25 C 1 1.2 1.7 1 2.5 1 h 245 c 0.8 0 1.5 0.2 1.5 0.5 V 26.5 L 249 26.5 z" style="stroke: #4D4D4D; stroke-width: 2; stroke-dasharray: none; stroke-linecap: butt; stroke-linejoin: miter; stroke-miterlimit: 10; fill: #AFAE9F; fill-rule: nonzero; opacity: 1;" transform="" stroke-linecap="round" />
</g>
<g style="stroke: none; stroke-width: 1; stroke-dasharray: none; stroke-linecap: butt; stroke-linejoin: miter; stroke-miterlimit: 10; fill: none; fill-rule: nonzero; opacity: 1;" transform="translate(363.65 364.5)" >
<path d="M 249 26.5 c 0 0.3 -0.7 0.5 -1.5 0.5 H 2.5 C 1.7 27 1 26.8 1 26.5 v -25 C 1 1.2 1.7 1 2.5 1 h 245 c 0.8 0 1.5 0.2 1.5 0.5 V 26.5 L 249 26.5 z" style="stroke: #4D4D4D; stroke-width: 2; stroke-dasharray: none; stroke-linecap: butt; stroke-linejoin: miter; stroke-miterlimit: 10; fill: #AFAE9F; fill-rule: nonzero; opacity: 1;" transform="" stroke-linecap="round" />
</g>
<g style="stroke: none; stroke-width: 1; stroke-dasharray: none; stroke-linecap: butt; stroke-linejoin: miter; stroke-miterlimit: 10; fill: none; fill-rule: nonzero; opacity: 1;" transform="translate(363.65 338.5)" >
<path d="M 249 26.5 c 0 0.3 -0.7 0.5 -1.5 0.5 H 2.5 C 1.7 27 1 26.8 1 26.5 v -25 C 1 1.2 1.7 1 2.5 1 h 245 c 0.8 0 1.5 0.2 1.5 0.5 V 26.5 L 249 26.5 z" style="stroke: #4D4D4D; stroke-width: 2; stroke-dasharray: none; stroke-linecap: butt; stroke-linejoin: miter; stroke-miterlimit: 10; fill: #AFAE9F; fill-rule: nonzero; opacity: 1;" transform="" stroke-linecap="round" />
</g>
<g style="stroke: none; stroke-width: 1; stroke-dasharray: none; stroke-linecap: butt; stroke-linejoin: miter; stroke-miterlimit: 10; fill: none; fill-rule: nonzero; opacity: 1;" transform="translate(360 696.5)" >
<path d="M 249 26.5 c 0 0.3 -0.7 0.5 -1.5 0.5 H 2.5 C 1.7 27 1 26.8 1 26.5 v -25 C 1 1.2 1.7 1 2.5 1 h 245 c 0.8 0 1.5 0.2 1.5 0.5 V 26.5 L 249 26.5 z" style="stroke: #4D4D4D; stroke-width: 2; stroke-dasharray: none; stroke-linecap: butt; stroke-linejoin: miter; stroke-miterlimit: 10; fill: #AFAE9F; fill-rule: nonzero; opacity: 1;" transform="" stroke-linecap="round" />
</g>
<g style="stroke: none; stroke-width: 1; stroke-dasharray: none; stroke-linecap: butt; stroke-linejoin: miter; stroke-miterlimit: 10; fill: none; fill-rule: nonzero; opacity: 1;" transform="translate(60.000000000000014 700.5)" >
<path d="M 249 26.5 c 0 0.3 -0.7 0.5 -1.5 0.5 H 2.5 C 1.7 27 1 26.8 1 26.5 v -25 C 1 1.2 1.7 1 2.5 1 h 245 c 0.8 0 1.5 0.2 1.5 0.5 V 26.5 L 249 26.5 z" style="stroke: #4D4D4D; stroke-width: 2; stroke-dasharray: none; stroke-linecap: butt; stroke-linejoin: miter; stroke-miterlimit: 10; fill: #AFAE9F; fill-rule: nonzero; opacity: 1;" transform="" stroke-linecap="round" />
</g>
<g style="stroke: none; stroke-width: 1; stroke-dasharray: none; stroke-linecap: butt; stroke-linejoin: miter; stroke-miterlimit: 10; fill: none; fill-rule: nonzero; opacity: 1;" transform="translate(63.64999999999999 340.5)" >
<path d="M 249 26.5 c 0 0.3 -0.7 0.5 -1.5 0.5 H 2.5 C 1.7 27 1 26.8 1 26.5 v -25 C 1 1.2 1.7 1 2.5 1 h 245 c 0.8 0 1.5 0.2 1.5 0.5 V 26.5 L 249 26.5 z" style="stroke: #4D4D4D; stroke-width: 2; stroke-dasharray: none; stroke-linecap: butt; stroke-linejoin: miter; stroke-miterlimit: 10; fill: #AFAE9F; fill-rule: nonzero; opacity: 1;" transform="" stroke-linecap="round" />
</g>
<g style="stroke: none; stroke-width: 1; stroke-dasharray: none; stroke-linecap: butt; stroke-linejoin: miter; stroke-miterlimit: 10; fill: none; fill-rule: nonzero; opacity: 1;" transform="translate(63.64999999999999 366.5)" >
<path d="M 249 26.5 c 0 0.3 -0.7 0.5 -1.5 0.5 H 2.5 C 1.7 27 1 26.8 1 26.5 v -25 C 1 1.2 1.7 1 2.5 1 h 245 c 0.8 0 1.5 0.2 1.5 0.5 V 26.5 L 249 26.5 z" style="stroke: #4D4D4D; stroke-width: 2; stroke-dasharray: none; stroke-linecap: butt; stroke-linejoin: miter; stroke-miterlimit: 10; fill: #AFAE9F; fill-rule: nonzero; opacity: 1;" transform="" stroke-linecap="round" />
</g>
<g style="stroke: none; stroke-width: 1; stroke-dasharray: none; stroke-linecap: butt; stroke-linejoin: miter; stroke-miterlimit: 10; fill: none; fill-rule: nonzero; opacity: 1;" transform="translate(62.000000000000014 458)" >
<path d="M 249 26.5 c 0 0.3 -0.7 0.5 -1.5 0.5 H 2.5 C 1.7 27 1 26.8 1 26.5 v -25 C 1 1.2 1.7 1 2.5 1 h 245 c 0.8 0 1.5 0.2 1.5 0.5 V 26.5 L 249 26.5 z" style="stroke: #4D4D4D; stroke-width: 2; stroke-dasharray: none; stroke-linecap: butt; stroke-linejoin: miter; stroke-miterlimit: 10; fill: #AFAE9F; fill-rule: nonzero; opacity: 1;" transform="" stroke-linecap="round" />
</g>
<g style="stroke: none; stroke-width: 1; stroke-dasharray: none; stroke-linecap: butt; stroke-linejoin: miter; stroke-miterlimit: 10; fill: none; fill-rule: nonzero; opacity: 1;" transform="translate(62.000000000000014 432)" >
<path d="M 249 26.5 c 0 0.3 -0.7 0.5 -1.5 0.5 H 2.5 C 1.7 27 1 26.8 1 26.5 v -25 C 1 1.2 1.7 1 2.5 1 h 245 c 0.8 0 1.5 0.2 1.5 0.5 V 26.5 L 249 26.5 z" style="stroke: #4D4D4D; stroke-width: 2; stroke-dasharray: none; stroke-linecap: butt; stroke-linejoin: miter; stroke-miterlimit: 10; fill: #AFAE9F; fill-rule: nonzero; opacity: 1;" transform="" stroke-linecap="round" />
</g>
<g style="stroke: none; stroke-width: 1; stroke-dasharray: none; stroke-linecap: butt; stroke-linejoin: miter; stroke-miterlimit: 10; fill: none; fill-rule: nonzero; opacity: 1;" transform="translate(62.000000000000014 544)" >
<path d="M 249 26.5 c 0 0.3 -0.7 0.5 -1.5 0.5 H 2.5 C 1.7 27 1 26.8 1 26.5 v -25 C 1 1.2 1.7 1 2.5 1 h 245 c 0.8 0 1.5 0.2 1.5 0.5 V 26.5 L 249 26.5 z" style="stroke: #4D4D4D; stroke-width: 2; stroke-dasharray: none; stroke-linecap: butt; stroke-linejoin: miter; stroke-miterlimit: 10; fill: #AFAE9F; fill-rule: nonzero; opacity: 1;" transform="" stroke-linecap="round" />
</g>
<g style="stroke: none; stroke-width: 1; stroke-dasharray: none; stroke-linecap: butt; stroke-linejoin: miter; stroke-miterlimit: 10; fill: none; fill-rule: nonzero; opacity: 1;" transform="translate(62.000000000000014 518)" >
<path d="M 249 26.5 c 0 0.3 -0.7 0.5 -1.5 0.5 H 2.5 C 1.7 27 1 26.8 1 26.5 v -25 C 1 1.2 1.7 1 2.5 1 h 245 c 0.8 0 1.5 0.2 1.5 0.5 V 26.5 L 249 26.5 z" style="stroke: #4D4D4D; stroke-width: 2; stroke-dasharray: none; stroke-linecap: butt; stroke-linejoin: miter; stroke-miterlimit: 10; fill: #AFAE9F; fill-rule: nonzero; opacity: 1;" transform="" stroke-linecap="round" />
</g>
<g style="stroke: none; stroke-width: 1; stroke-dasharray: none; stroke-linecap: butt; stroke-linejoin: miter; stroke-miterlimit: 10; fill: none; fill-rule: nonzero; opacity: 1;" transform="translate(60.000000000000014 608)" >
<path d="M 249 26.5 c 0 0.3 -0.7 0.5 -1.5 0.5 H 2.5 C 1.7 27 1 26.8 1 26.5 v -25 C 1 1.2 1.7 1 2.5 1 h 245 c 0.8 0 1.5 0.2 1.5 0.5 V 26.5 L 249 26.5 z" style="stroke: #4D4D4D; stroke-width: 2; stroke-dasharray: none; stroke-linecap: butt; stroke-linejoin: miter; stroke-miterlimit: 10; fill: #AFAE9F; fill-rule: nonzero; opacity: 1;" transform="" stroke-linecap="round" />
</g>
<g style="stroke: none; stroke-width: 1; stroke-dasharray: none; stroke-linecap: butt; stroke-linejoin: miter; stroke-miterlimit: 10; fill: none; fill-rule: nonzero; opacity: 1;" transform="translate(60.000000000000014 634)" >
<path d="M 249 26.5 c 0 0.3 -0.7 0.5 -1.5 0.5 H 2.5 C 1.7 27 1 26.8 1 26.5 v -25 C 1 1.2 1.7 1 2.5 1 h 245 c 0.8 0 1.5 0.2 1.5 0.5 V 26.5 L 249 26.5 z" style="stroke: #4D4D4D; stroke-width: 2; stroke-dasharray: none; stroke-linecap: butt; stroke-linejoin: miter; stroke-miterlimit: 10; fill: #AFAE9F; fill-rule: nonzero; opacity: 1;" transform="" stroke-linecap="round" />
</g>
<g style="stroke: none; stroke-width: 1; stroke-dasharray: none; stroke-linecap: butt; stroke-linejoin: miter; stroke-miterlimit: 10; fill: none; fill-rule: nonzero; opacity: 1;" transform="translate(62.35000000000001 266)" >
<path d="M 249 26.5 c 0 0.3 -0.7 0.5 -1.5 0.5 H 2.5 C 1.7 27 1 26.8 1 26.5 v -25 C 1 1.2 1.7 1 2.5 1 h 245 c 0.8 0 1.5 0.2 1.5 0.5 V 26.5 L 249 26.5 z" style="stroke: #4D4D4D; stroke-width: 2; stroke-dasharray: none; stroke-linecap: butt; stroke-linejoin: miter; stroke-miterlimit: 10; fill: #AFAE9F; fill-rule: nonzero; opacity: 1;" transform="" stroke-linecap="round" />
</g>
<line x1="0" y1="-200" x2="0" y2="200" style="stroke: #333; stroke-width: 5; stroke-dasharray: none; stroke-linecap: butt; stroke-linejoin: miter; stroke-miterlimit: 10; fill: #333; fill-rule: nonzero; opacity: 1;" transform="translate(940 500)"/>
<circle cx="0" cy="0" r="12" style="stroke: #666; stroke-width: 5; stroke-dasharray: none; stroke-linecap: butt; stroke-linejoin: miter; stroke-miterlimit: 10; fill: #fff; fill-rule: nonzero; opacity: 0;" transform="translate(940 300) "/>
<circle cx="0" cy="0" r="12" style="stroke: #666; stroke-width: 5; stroke-dasharray: none; stroke-linecap: butt; stroke-linejoin: miter; stroke-miterlimit: 10; fill: #fff; fill-rule: nonzero; opacity: 0;" transform="translate(940 700) "/>
</svg>