<?xml version="1.0" encoding="utf-8"?>
<!-- Generator: Adobe Illustrator 19.0.0, SVG Export Plug-In . SVG Version: 6.00 Build 0)  -->
<svg version="1.1" id="图层_1" xmlns="http://www.w3.org/2000/svg" xmlns:xlink="http://www.w3.org/1999/xlink" x="0px" y="0px"
	 viewBox="-254 348 102 98" style="enable-background:new -254 348 102 98;" xml:space="preserve">
<style type="text/css">
	.st0{fill:#CBC8B8;}
	.st1{fill:#BCBAAF;}
	.st2{fill:#5E5951;}
	.st3{fill:#E2E0D6;stroke:#808080;stroke-miterlimit:10;}
</style>
<g id="chair">
	<path class="st0" d="M-224.4,382.5c0-1.9,0.3-3.5,2.2-3.5h39.3c1.9,0,2.3,1.6,2.3,3.5c0,0,0,28.8,0,38.2h-43.8
		C-224.4,411.3-224.4,382.5-224.4,382.5z"/>
	<path class="st1" d="M-174.8,443.9c0,1.1-1.5,2.1-3.4,2.1h-48.2c-1.9,0-3.4-1-3.4-2.1c0,0,9-17.5,9-23.2h37.9
		C-182.9,426.4-174.8,443.9-174.8,443.9z"/>
	<path class="st2" d="M-176.7,419.9c0,0.6-0.5,1.1-1.1,1.1h-5.4c-0.6,0-1.1-0.5-1.1-1.1v-31.3c0-0.6,0.5-1.1,1.1-1.1h5.4
		c0.6,0,1.1,0.5,1.1,1.1V419.9L-176.7,419.9z"/>
	<path class="st2" d="M-220.2,419.9c0,0.6-0.5,1.1-1.1,1.1h-5.4c-0.6,0-1.1-0.5-1.1-1.1v-31.3c0-0.6,0.5-1.1,1.1-1.1h5.4
		c0.6,0,1.1,0.5,1.1,1.1V419.9L-220.2,419.9z"/>
</g>
<rect x="-253.5" y="348.9" class="st3" width="101" height="57.9"/>
</svg>
