<?xml version="1.0" encoding="utf-8"?>
<!-- Generator: Adobe Illustrator 16.0.0, SVG Export Plug-In . SVG Version: 6.00 Build 0)  -->
<!DOCTYPE svg PUBLIC "-//W3C//DTD SVG 1.1//EN" "http://www.w3.org/Graphics/SVG/1.1/DTD/svg11.dtd">
<svg version="1.1" id="图层_1" xmlns="http://www.w3.org/2000/svg" xmlns:xlink="http://www.w3.org/1999/xlink" x="0px" y="0px"
	 width="137.75px" height="62.375px" viewBox="0 0 137.75 62.375" enable-background="new 0 0 137.75 62.375" xml:space="preserve">
<polygon fill="#CBC8B8" stroke="#4B4B4B" stroke-miterlimit="10" points="115.121,44.64 25.361,45.199 18.743,1.5 119.257,1.5 "/>
<path display="none" fill="#B3B3B3" stroke="#4B4B4B" stroke-miterlimit="10" d="M137.25,0.5c0,0,1.041,61.425-68.25,61.425
	C4.793,61.925,0.75,0.5,0.75,0.5h18.614c0,0,12.249,42.812,49.636,42.812c36.466,0,49.636-42.812,49.636-42.812H137.25z"/>
<path fill="#4D4D4D" stroke="#4B4B4B" stroke-miterlimit="10" d="M137.25,0.5c0,0,1.041,61.425-68.25,61.425
	C4.793,61.925,0.75,0.5,0.75,0.5h18.614c0,0,4.757,42.812,49.636,42.812c46.741,0,49.636-42.812,49.636-42.812H137.25z"/>
<g id="monitor_5_">
	<path d="M57.284,28.058c-0.106,0.199-0.357,0.271-0.554,0.163l-9.007-4.908c-0.199-0.107-0.272-0.354-0.164-0.553l0.787-1.443
		c0.108-0.199,0.356-0.272,0.554-0.164l9.007,4.908c0.199,0.108,0.271,0.356,0.163,0.554L57.284,28.058z"/>
	<path fill="#666666" d="M68.718,36.891c-0.267,0.507-2.407,0.146-3.336-0.343L35.876,21.096c-0.929-0.49-2.558-2.206-2.291-2.713
		l0.968-1.839c0.268-0.508,1.403-0.694,2.331-0.205l31.951,16.832c0.929,0.489,1.118,1.374,0.851,1.88L68.718,36.891z"/>
</g>
<g id="keyboard">
	<path fill="#808080" d="M44.208,4.929c0.373-0.707,1.245-1.472,1.741-1.21l28.076,14.79c0.498,0.262,0.482,1.477,0.109,2.185
		L70.76,27.1c-0.373,0.708-1.049,0.805-1.547,0.543l-28.075-14.79c-0.497-0.262-0.677-0.809-0.304-1.517L44.208,4.929L44.208,4.929z
		"/>
	<path fill="#999999" d="M43.943,5.433c0.349-0.66,1.113-1.417,1.612-1.153l28.15,14.829c0.498,0.262,0.511,1.428,0.163,2.088
		l-3.151,5.979c-0.347,0.66-1.008,0.727-1.506,0.464l-28.15-14.829c-0.5-0.264-0.615-0.738-0.268-1.398L43.943,5.433z"/>
	<g id="key">
		<g id="line1_2_">
			<path fill="#E6E6E6" d="M43.264,11.741c0.11-0.208,0.37-0.288,0.578-0.179l3.064,1.615c0.21,0.11,0.289,0.368,0.179,0.578
				L46.66,14.56c-0.11,0.208-0.368,0.29-0.577,0.179l-3.065-1.614c-0.207-0.11-0.288-0.369-0.179-0.578L43.264,11.741z"/>
			<path fill="#E6E6E6" d="M63.065,22.171c0.108-0.208,0.368-0.289,0.576-0.18l0.808,0.426c0.209,0.111,0.289,0.369,0.179,0.578
				l-0.425,0.806c-0.11,0.21-0.368,0.289-0.578,0.18l-0.808-0.425c-0.207-0.109-0.288-0.369-0.177-0.577L63.065,22.171z"/>
			<path fill="#E6E6E6" d="M61.153,21.165c0.109-0.209,0.37-0.289,0.578-0.179l0.807,0.425c0.209,0.11,0.289,0.369,0.18,0.578
				l-0.425,0.806c-0.11,0.208-0.369,0.289-0.578,0.179l-0.807-0.424c-0.209-0.11-0.29-0.37-0.18-0.578L61.153,21.165z"/>
			<path fill="#E6E6E6" d="M59.243,20.158c0.11-0.208,0.369-0.289,0.577-0.179l0.808,0.425c0.209,0.11,0.289,0.37,0.18,0.579
				l-0.426,0.806c-0.109,0.208-0.369,0.289-0.577,0.179l-0.808-0.425c-0.209-0.109-0.288-0.368-0.179-0.577L59.243,20.158z"/>
			<path fill="#E6E6E6" d="M57.16,19.061c0.109-0.208,0.367-0.29,0.577-0.18l0.807,0.425c0.209,0.11,0.29,0.37,0.181,0.578
				l-0.426,0.807c-0.11,0.209-0.369,0.289-0.578,0.178l-0.808-0.425c-0.209-0.11-0.288-0.368-0.178-0.577L57.16,19.061z"/>
			<path fill="#E6E6E6" d="M55.284,18.073c0.11-0.209,0.369-0.29,0.578-0.18l0.808,0.426c0.208,0.109,0.288,0.369,0.178,0.577
				l-0.425,0.807c-0.11,0.208-0.369,0.289-0.576,0.179l-0.808-0.426c-0.21-0.111-0.289-0.368-0.179-0.577L55.284,18.073z"/>
			<path fill="#E6E6E6" d="M53.303,17.029c0.109-0.209,0.368-0.29,0.577-0.179l0.807,0.425c0.209,0.109,0.289,0.369,0.179,0.577
				l-0.425,0.807c-0.109,0.209-0.368,0.289-0.577,0.179l-0.807-0.425c-0.209-0.111-0.289-0.369-0.179-0.577L53.303,17.029z"/>
			<path fill="#E6E6E6" d="M51.375,16.014c0.11-0.208,0.37-0.288,0.579-0.179l0.807,0.425c0.208,0.109,0.289,0.37,0.179,0.578
				l-0.425,0.807c-0.11,0.208-0.369,0.289-0.577,0.179l-0.807-0.426c-0.208-0.109-0.29-0.368-0.18-0.576L51.375,16.014z"/>
			<path fill="#E6E6E6" d="M49.343,14.942c0.11-0.208,0.369-0.289,0.578-0.179l0.807,0.426c0.208,0.11,0.289,0.369,0.179,0.578
				l-0.425,0.807c-0.11,0.209-0.37,0.288-0.577,0.179l-0.808-0.425c-0.209-0.11-0.288-0.369-0.179-0.578L49.343,14.942z"/>
			<path fill="#E6E6E6" d="M47.433,13.938c0.11-0.209,0.368-0.291,0.578-0.18l0.806,0.425c0.21,0.11,0.29,0.369,0.18,0.578
				l-0.426,0.807c-0.109,0.208-0.368,0.289-0.577,0.178l-0.807-0.424c-0.21-0.111-0.289-0.369-0.179-0.578L47.433,13.938z"/>
			<path fill="#E6E6E6" d="M64.975,23.177c0.11-0.208,0.369-0.29,0.578-0.179l3.063,1.614c0.21,0.11,0.29,0.37,0.18,0.579
				l-0.425,0.807c-0.109,0.208-0.368,0.289-0.578,0.178l-3.063-1.614c-0.209-0.11-0.289-0.368-0.18-0.578L64.975,23.177z"/>
		</g>
		<g id="line2">
			<path fill="#E6E6E6" d="M66.768,21.459c0.108-0.208,0.368-0.288,0.577-0.178l0.807,0.425c0.208,0.109,0.289,0.369,0.18,0.577
				l-0.425,0.807c-0.111,0.208-0.369,0.289-0.579,0.179l-0.806-0.425c-0.209-0.11-0.289-0.369-0.179-0.578L66.768,21.459z"/>
			<path fill="#E6E6E6" d="M64.857,20.453c0.109-0.208,0.368-0.288,0.576-0.179l0.808,0.425c0.21,0.11,0.288,0.369,0.179,0.577
				l-0.425,0.807c-0.11,0.209-0.368,0.289-0.577,0.179l-0.808-0.425c-0.209-0.11-0.289-0.369-0.179-0.578L64.857,20.453z"/>
			<path fill="#E6E6E6" d="M63.051,19.501c0.108-0.208,0.369-0.289,0.578-0.178l0.806,0.425c0.209,0.11,0.289,0.369,0.18,0.576
				l-0.425,0.807c-0.11,0.209-0.369,0.289-0.577,0.179l-0.808-0.424c-0.209-0.11-0.289-0.37-0.179-0.578L63.051,19.501z"/>
			<path fill="#E6E6E6" d="M60.983,18.414c0.109-0.208,0.37-0.288,0.577-0.179l0.807,0.425c0.208,0.11,0.289,0.37,0.18,0.578
				l-0.425,0.806c-0.11,0.208-0.37,0.289-0.577,0.18l-0.808-0.426c-0.209-0.11-0.288-0.368-0.179-0.577L60.983,18.414z"/>
			<path fill="#E6E6E6" d="M59.126,17.434c0.109-0.208,0.368-0.289,0.577-0.178l0.808,0.425c0.208,0.109,0.288,0.369,0.178,0.577
				l-0.425,0.806c-0.11,0.208-0.368,0.29-0.576,0.179l-0.809-0.425c-0.208-0.109-0.288-0.369-0.178-0.577L59.126,17.434z"/>
			<path fill="#E6E6E6" d="M57.006,16.318c0.109-0.208,0.368-0.289,0.576-0.179l0.808,0.425c0.209,0.11,0.288,0.37,0.18,0.578
				l-0.425,0.806c-0.109,0.209-0.37,0.29-0.577,0.18l-0.808-0.426c-0.209-0.109-0.289-0.369-0.179-0.577L57.006,16.318z"/>
			<path fill="#E6E6E6" d="M55.13,15.33c0.11-0.208,0.369-0.289,0.577-0.179l0.808,0.425c0.209,0.11,0.29,0.37,0.18,0.578
				L56.27,16.96c-0.109,0.209-0.369,0.29-0.579,0.18l-0.807-0.426c-0.208-0.109-0.288-0.368-0.179-0.577L55.13,15.33z"/>
			<path fill="#E6E6E6" d="M53.221,14.324c0.109-0.208,0.367-0.29,0.578-0.179l0.808,0.426c0.207,0.109,0.287,0.369,0.177,0.576
				l-0.425,0.807c-0.109,0.208-0.368,0.289-0.576,0.181l-0.808-0.426c-0.209-0.111-0.289-0.369-0.178-0.578L53.221,14.324z"/>
			<path fill="#E6E6E6" d="M51.135,13.226c0.11-0.208,0.37-0.289,0.578-0.179l0.807,0.426c0.208,0.109,0.288,0.369,0.179,0.577
				l-0.425,0.807c-0.11,0.209-0.37,0.288-0.578,0.179l-0.806-0.425c-0.21-0.11-0.29-0.37-0.18-0.579L51.135,13.226z"/>
			<path fill="#E6E6E6" d="M49.226,12.219c0.109-0.208,0.368-0.289,0.577-0.179l0.806,0.425c0.21,0.11,0.289,0.369,0.18,0.577
				l-0.425,0.807c-0.11,0.208-0.368,0.29-0.578,0.179l-0.806-0.424c-0.208-0.11-0.289-0.369-0.179-0.578L49.226,12.219z"/>
			<path fill="#E6E6E6" d="M47.141,11.121c0.109-0.208,0.369-0.289,0.577-0.179l0.807,0.425c0.209,0.109,0.288,0.369,0.179,0.577
				l-0.425,0.807c-0.11,0.208-0.368,0.289-0.577,0.179l-0.808-0.425c-0.208-0.11-0.289-0.37-0.178-0.577L47.141,11.121z"/>
			<path fill="#E6E6E6" d="M45.23,10.115c0.11-0.208,0.368-0.289,0.576-0.18l0.808,0.426c0.21,0.111,0.289,0.369,0.179,0.577
				l-0.425,0.807c-0.11,0.208-0.368,0.29-0.577,0.179l-0.808-0.425c-0.208-0.109-0.288-0.369-0.178-0.577L45.23,10.115z"/>
		</g>
		<g id="line3_2_">
			<path fill="#E6E6E6" d="M45.399,7.685c0.11-0.208,0.371-0.288,0.578-0.178l3.065,1.614c0.209,0.11,0.288,0.369,0.179,0.577
				l-0.425,0.807c-0.11,0.209-0.368,0.29-0.577,0.179l-3.065-1.615C44.947,8.96,44.866,8.7,44.975,8.492L45.399,7.685z"/>
			<path fill="#E6E6E6" d="M65.166,18.098c0.109-0.208,0.369-0.289,0.578-0.178l0.806,0.425c0.209,0.109,0.29,0.369,0.181,0.577
				l-0.425,0.807c-0.11,0.208-0.369,0.289-0.579,0.178l-0.807-0.425c-0.209-0.11-0.289-0.369-0.179-0.578L65.166,18.098z"/>
			<path fill="#E6E6E6" d="M63.273,17.1c0.109-0.208,0.368-0.289,0.577-0.179l0.806,0.425c0.21,0.11,0.291,0.369,0.181,0.578
				l-0.425,0.806c-0.11,0.209-0.369,0.289-0.578,0.178l-0.808-0.425c-0.207-0.109-0.288-0.369-0.179-0.577L63.273,17.1z"/>
			<path fill="#E6E6E6" d="M61.362,16.093c0.109-0.208,0.368-0.288,0.577-0.178l0.808,0.425c0.208,0.11,0.289,0.369,0.179,0.577
				L62.5,17.724c-0.11,0.209-0.368,0.289-0.576,0.179l-0.808-0.425c-0.208-0.109-0.289-0.37-0.179-0.577L61.362,16.093z"/>
			<path fill="#E6E6E6" d="M59.383,15.051c0.109-0.208,0.368-0.289,0.577-0.179l0.807,0.425c0.21,0.11,0.29,0.37,0.18,0.578
				l-0.424,0.807c-0.11,0.209-0.371,0.288-0.578,0.178l-0.808-0.424c-0.209-0.11-0.288-0.369-0.179-0.577L59.383,15.051z"/>
			<path fill="#E6E6E6" d="M57.455,14.035c0.109-0.208,0.367-0.288,0.577-0.179l0.807,0.425c0.209,0.11,0.289,0.369,0.18,0.577
				l-0.425,0.807c-0.111,0.209-0.369,0.289-0.579,0.178l-0.807-0.424c-0.208-0.11-0.289-0.37-0.179-0.578L57.455,14.035z"/>
			<path fill="#E6E6E6" d="M55.421,12.964c0.109-0.208,0.37-0.288,0.578-0.179l0.807,0.425c0.209,0.11,0.289,0.369,0.181,0.578
				l-0.425,0.807c-0.111,0.208-0.37,0.289-0.579,0.178l-0.807-0.425c-0.207-0.11-0.289-0.369-0.179-0.578L55.421,12.964z"/>
			<path fill="#E6E6E6" d="M53.494,11.949c0.109-0.209,0.37-0.289,0.579-0.178l0.808,0.425c0.208,0.109,0.288,0.369,0.178,0.577
				l-0.426,0.807c-0.109,0.208-0.368,0.289-0.576,0.179l-0.808-0.426c-0.208-0.109-0.29-0.37-0.18-0.577L53.494,11.949z"/>
			<path fill="#E6E6E6" d="M51.479,10.887c0.109-0.208,0.368-0.289,0.577-0.178l0.807,0.425c0.208,0.11,0.29,0.369,0.18,0.578
				l-0.425,0.806c-0.11,0.209-0.371,0.288-0.578,0.178l-0.807-0.425c-0.209-0.11-0.289-0.369-0.179-0.577L51.479,10.887z"/>
			<path fill="#E6E6E6" d="M49.569,9.882c0.11-0.209,0.369-0.29,0.578-0.179l0.806,0.424c0.21,0.111,0.29,0.369,0.18,0.578
				l-0.425,0.807c-0.11,0.209-0.368,0.289-0.578,0.178l-0.806-0.425c-0.21-0.111-0.289-0.369-0.18-0.577L49.569,9.882z"/>
			<path fill="#E6E6E6" d="M67.111,19.123c0.109-0.209,0.368-0.289,0.578-0.179l3.063,1.614c0.21,0.11,0.291,0.368,0.181,0.578
				l-0.425,0.806c-0.11,0.209-0.368,0.29-0.578,0.179l-3.063-1.613c-0.21-0.11-0.289-0.37-0.18-0.578L67.111,19.123z"/>
		</g>
		<g id="line4">
			<path fill="#E6E6E6" d="M68.783,17.42c0.111-0.21,0.371-0.288,0.579-0.179l0.807,0.425c0.21,0.11,0.289,0.369,0.179,0.578
				l-0.424,0.806c-0.11,0.209-0.369,0.288-0.578,0.179l-0.807-0.425c-0.209-0.11-0.29-0.368-0.179-0.577L68.783,17.42z"/>
			<path fill="#E6E6E6" d="M66.874,16.414c0.11-0.21,0.369-0.29,0.578-0.179l0.807,0.425c0.209,0.11,0.288,0.367,0.179,0.578
				l-0.425,0.806c-0.11,0.208-0.368,0.289-0.577,0.179l-0.807-0.425c-0.209-0.109-0.289-0.368-0.18-0.577L66.874,16.414z"/>
			<path fill="#E6E6E6" d="M64.98,15.417c0.111-0.209,0.371-0.289,0.579-0.179l0.807,0.425c0.209,0.11,0.291,0.368,0.18,0.579
				l-0.424,0.805c-0.11,0.209-0.369,0.289-0.578,0.179L64.736,16.8c-0.207-0.109-0.29-0.368-0.18-0.578L64.98,15.417z"/>
			<path fill="#E6E6E6" d="M51.432,8.279C51.542,8.07,51.8,7.99,52.01,8.1l0.807,0.425c0.209,0.111,0.29,0.368,0.179,0.579
				l-0.424,0.805c-0.11,0.209-0.368,0.289-0.576,0.179l-0.807-0.425c-0.21-0.11-0.291-0.368-0.18-0.578L51.432,8.279z"/>
			<path fill="#E6E6E6" d="M49.348,7.182c0.111-0.21,0.369-0.29,0.578-0.179l0.806,0.424c0.209,0.11,0.29,0.368,0.179,0.578
				l-0.424,0.806C50.376,9.02,50.119,9.1,49.91,8.989l-0.806-0.424c-0.21-0.111-0.29-0.369-0.179-0.578L49.348,7.182z"/>
			<path fill="#E6E6E6" d="M47.438,6.176c0.11-0.211,0.368-0.29,0.577-0.18l0.807,0.425c0.21,0.111,0.29,0.369,0.179,0.578
				l-0.424,0.806c-0.11,0.209-0.368,0.29-0.577,0.179l-0.807-0.425c-0.209-0.11-0.289-0.368-0.179-0.577L47.438,6.176z"/>
			<path fill="#E6E6E6" d="M53.36,9.421c0.126-0.239,0.426-0.387,0.635-0.277l10.401,5.479c0.21,0.11,0.206,0.415,0.08,0.654
				l-0.341,0.647c-0.127,0.24-0.354,0.373-0.563,0.263l-10.401-5.479c-0.208-0.11-0.279-0.399-0.153-0.639L53.36,9.421L53.36,9.421z
				"/>
		</g>
	</g>
</g>
<g id="note">
	<path fill="#CFAD49" d="M80.604,12.667c-0.398-0.62-0.148-0.918,0.487-1.327l8.048-5.18c0.636-0.41,1.5-0.829,1.898-0.208
		l7.584,11.783c0.398,0.621-0.116,1.581-0.752,1.991l-8.049,5.179c-0.635,0.409-1.233,0.166-1.634-0.455L80.604,12.667z"/>
	<polygon fill="#FFFFFF" points="81.857,12.321 81.857,12.321 90.206,6.949 90.206,6.949 96.922,17.383 96.922,17.383 
		88.573,22.756 88.573,22.756 	"/>
	<path fill="#333333" d="M88.645,24.185c-0.45-0.149-0.569-1.108-0.171-1.364l8.78-5.651c0.398-0.256,1.014,0.348,1.013,0.823
		c-0.002,0.41-2.466,2.515-2.466,2.515c-0.063,0.607-0.145,2.086-0.486,2.415c-0.221,0.214-0.635,0.517-0.956,0.626
		c-0.45,0.151-1.896-0.388-2.406-0.568C91.952,22.98,88.971,24.295,88.645,24.185z"/>
	
		<line fill="none" stroke="#4B4B4B" stroke-linecap="round" stroke-miterlimit="10" x1="93.826" y1="17.162" x2="89.653" y2="19.849"/>
	
		<line fill="none" stroke="#4B4B4B" stroke-linecap="round" stroke-miterlimit="10" x1="91.813" y1="14.031" x2="87.639" y2="16.718"/>
	
		<line fill="none" stroke="#4B4B4B" stroke-linecap="round" stroke-miterlimit="10" x1="89.797" y1="10.901" x2="85.625" y2="13.586"/>
</g>
<g id="pencil">
	<polygon fill="#F4ECBD" points="84.01,22.485 83.754,21.152 83.049,21.55 	"/>
	<polygon points="83.992,22.471 83.924,22.115 83.735,22.221 	"/>
	<path fill="#998D74" d="M80.316,16.205l0.505-0.285l2.939,5.224c0,0-0.025,0.113-0.049,0.127c-0.028,0.016-0.146-0.019-0.146-0.019
		s-0.088,0.148-0.113,0.164c-0.026,0.015-0.197,0.012-0.197,0.012L80.316,16.205L80.316,16.205z"/>
	<path fill="#5E5951" d="M80.127,16.313l0.189-0.108l2.939,5.224c0,0,0.045,0.073,0.023,0.086c-0.024,0.014-0.099-0.044-0.099-0.044
		s0.007,0.094-0.016,0.108c-0.023,0.013-0.1-0.043-0.1-0.043L80.127,16.313L80.127,16.313z"/>
	
		<rect x="79.877" y="15.359" transform="matrix(0.8705 -0.4922 0.4922 0.8705 2.6375 41.5513)" fill="#FC9B7A" width="0.798" height="0.809"/>
</g>
<g id="NOTE">
	<polygon fill="#FFFFFF" points="47.813,58.842 47.813,58.842 39.771,54.722 39.771,54.722 46.882,40.839 46.882,40.839 
		54.926,44.959 54.926,44.959 	"/>
	<polygon fill="#FB5856" points="54.103,46.565 54.103,46.565 46.061,42.446 46.061,42.446 46.882,40.839 46.882,40.839 
		54.925,44.959 54.925,44.959 	"/>
	<polygon fill="#FFFFFF" points="46.641,59.247 46.641,59.247 38.598,55.127 38.598,55.127 45.709,41.244 45.709,41.244 
		53.753,45.364 53.753,45.364 	"/>
	<polygon fill="#FB5856" points="52.929,46.971 52.929,46.971 44.888,42.851 44.888,42.851 45.709,41.244 45.709,41.244 
		53.752,45.365 53.752,45.365 	"/>
	
		<line fill="none" stroke="#4B4B4B" stroke-linecap="round" stroke-miterlimit="10" x1="43.565" y1="48.816" x2="48.764" y2="51.481"/>
	
		<line fill="none" stroke="#4B4B4B" stroke-linecap="round" stroke-miterlimit="10" x1="42.053" y1="51.764" x2="47.254" y2="54.426"/>
</g>
<g id="NOTE_1_">
	<polygon fill="#0E95D2" points="73.335,59.461 73.335,59.461 63.408,59.585 63.408,59.585 63.254,47.177 63.254,47.177 
		73.181,47.052 73.181,47.052 	"/>
	<rect x="63.75" y="48" fill="#FBFAF9" width="4" height="4"/>
	<polygon fill="#0E95D2" points="74.575,58.221 74.575,58.221 64.649,58.344 64.649,58.344 64.494,45.937 64.494,45.937 
		74.422,45.812 74.422,45.812 	"/>
	<rect x="65.75" y="47" fill="#FBFAF9" width="3" height="4"/>
	<rect x="65.75" y="53" fill="#FBFAF9" width="7" height="1"/>
	<rect x="65.75" y="56" fill="#FBFAF9" width="7" height="1"/>
</g>
<g id="NOTE_2_">
	<polygon fill="#3CACA7" points="101.793,49.903 101.793,49.903 93.266,54.984 93.266,54.984 86.913,44.325 86.913,44.325 
		95.44,39.242 95.44,39.242 	"/>
	
		<rect x="90.095" y="44.552" transform="matrix(0.8562 -0.5166 0.5166 0.8562 -10.4889 55.1368)" fill="#E5DCD1" width="7.446" height="3.723"/>
	<polygon fill="#3CACA7" points="103.034,51.145 103.034,51.145 94.507,56.226 94.507,56.226 88.154,45.566 88.154,45.566 
		96.682,40.482 96.682,40.482 	"/>
	
		<rect x="91.337" y="45.794" transform="matrix(0.8563 -0.5165 0.5165 0.8563 -10.9521 55.9514)" fill="#E5DCD1" width="7.445" height="3.722"/>
</g>
</svg>
